  0
SECTION
  2
HEADER
  9
$ANGBASE
  50
0.0
  9
$ANGDIR
  70
  1
  9
$MEASUREMENT
  70
0
  0
ENDSEC
  0
SECTION
  2
TABLES
  0
TABLE
  2
LTYPE
  70
1
  0
LTYPE
  2
CONTINUOUS
  70
0
  3
Solid line
  72
65
  73
0
  40
0.0
  0
ENDTAB
  0
TABLE
  2
STYLE
  70
4
  0
STYLE
  2
KICAD
  70
0
  40
0
  41
1
  42
1
  50
0
  71
0
  3
isocp.shx
  0
STYLE
  2
KICADB
  70
0
  40
0
  41
1
  42
1
  50
0
  71
0
  3
isocp.shx
  0
STYLE
  2
KICADI
  70
0
  40
0
  41
1
  42
1
  50
15
  71
0
  3
isocp.shx
  0
STYLE
  2
KICADBI
  70
0
  40
0
  41
1
  42
1
  50
15
  71
0
  3
isocp.shx
  0
ENDTAB
  0
TABLE
  2
LAYER
  70
30
  0
LAYER
  2
BLACK
  70
0
  62
7
  6
CONTINUOUS
  0
LAYER
  2
GRAY1
  70
0
  62
251
  6
CONTINUOUS
  0
LAYER
  2
GRAY2
  70
0
  62
8
  6
CONTINUOUS
  0
LAYER
  2
GRAY3
  70
0
  62
9
  6
CONTINUOUS
  0
LAYER
  2
WHITE
  70
0
  62
7
  6
CONTINUOUS
  0
LAYER
  2
LYELLOW
  70
0
  62
51
  6
CONTINUOUS
  0
LAYER
  2
BLUE1
  70
0
  62
178
  6
CONTINUOUS
  0
LAYER
  2
GREEN1
  70
0
  62
98
  6
CONTINUOUS
  0
LAYER
  2
CYAN1
  70
0
  62
138
  6
CONTINUOUS
  0
LAYER
  2
RED1
  70
0
  62
18
  6
CONTINUOUS
  0
LAYER
  2
MAGENTA1
  70
0
  62
228
  6
CONTINUOUS
  0
LAYER
  2
BROWN1
  70
0
  62
58
  6
CONTINUOUS
  0
LAYER
  2
BLUE2
  70
0
  62
5
  6
CONTINUOUS
  0
LAYER
  2
GREEN2
  70
0
  62
3
  6
CONTINUOUS
  0
LAYER
  2
CYAN2
  70
0
  62
4
  6
CONTINUOUS
  0
LAYER
  2
RED2
  70
0
  62
1
  6
CONTINUOUS
  0
LAYER
  2
MAGENTA2
  70
0
  62
6
  6
CONTINUOUS
  0
LAYER
  2
BROWN2
  70
0
  62
54
  6
CONTINUOUS
  0
LAYER
  2
BLUE3
  70
0
  62
171
  6
CONTINUOUS
  0
LAYER
  2
GREEN3
  70
0
  62
91
  6
CONTINUOUS
  0
LAYER
  2
CYAN3
  70
0
  62
131
  6
CONTINUOUS
  0
LAYER
  2
RED3
  70
0
  62
11
  6
CONTINUOUS
  0
LAYER
  2
MAGENTA3
  70
0
  62
221
  6
CONTINUOUS
  0
LAYER
  2
YELLOW3
  70
0
  62
2
  6
CONTINUOUS
  0
LAYER
  2
BLUE4
  70
0
  62
5
  6
CONTINUOUS
  0
LAYER
  2
GREEN4
  70
0
  62
3
  6
CONTINUOUS
  0
LAYER
  2
CYAN4
  70
0
  62
4
  6
CONTINUOUS
  0
LAYER
  2
RED4
  70
0
  62
1
  6
CONTINUOUS
  0
LAYER
  2
MAGENTA4
  70
0
  62
6
  6
CONTINUOUS
  0
LAYER
  2
YELLOW4
  70
0
  62
2
  6
CONTINUOUS
  0
ENDTAB
  0
ENDSEC
  0
SECTION
  2
ENTITIES
0
LINE
8
Black
10
18.0184
20
32.1558
11
18.0218
21
32.1561
0
LINE
8
Black
10
18.0218
20
32.1561
11
18.0314
21
32.1535
0
LINE
8
Black
10
18.0314
20
32.1535
11
18.0412
21
32.1518
0
LINE
8
Black
10
18.0412
20
32.1518
11
18.0441
21
32.1501
0
LINE
8
Black
10
18.0441
20
32.1501
11
18.0473
21
32.1493
0
LINE
8
Black
10
18.0473
20
32.1493
11
18.0555
21
32.1435
0
LINE
8
Black
10
18.0555
20
32.1435
11
18.0641
21
32.1386
0
LINE
8
Black
10
18.0641
20
32.1386
11
18.0663
21
32.136
0
LINE
8
Black
10
18.0663
20
32.136
11
18.069
21
32.1341
0
LINE
8
Black
10
18.069
20
32.1341
11
32.5724
21
17.6307
0
LINE
8
Black
10
32.5724
20
17.6307
11
32.5781
21
17.6225
0
LINE
8
Black
10
32.5781
20
17.6225
11
32.5845
21
17.6149
0
LINE
8
Black
10
32.5845
20
17.6149
11
32.5857
21
17.6118
0
LINE
8
Black
10
32.5857
20
17.6118
11
32.5876
21
17.609
0
LINE
8
Black
10
32.5876
20
17.609
11
32.5902
21
17.5994
0
LINE
8
Black
10
32.5902
20
17.5994
11
32.5936
21
17.59
0
LINE
8
Black
10
32.5936
20
17.59
11
32.5936
21
17.5867
0
LINE
8
Black
10
32.5936
20
17.5867
11
32.5944
21
17.5834
0
LINE
8
Black
10
32.5944
20
17.5834
11
32.5936
21
17.5735
0
LINE
8
Black
10
32.5936
20
17.5735
11
32.5936
21
17.5636
0
LINE
8
Black
10
32.5936
20
17.5636
11
32.5924
21
17.5604
0
LINE
8
Black
10
32.5924
20
17.5604
11
32.5921
21
17.5571
0
LINE
8
Black
10
32.5921
20
17.5571
11
32.5879
21
17.5481
0
LINE
8
Black
10
32.5879
20
17.5481
11
32.5845
21
17.5387
0
LINE
8
Black
10
32.5845
20
17.5387
11
32.5824
21
17.5361
0
LINE
8
Black
10
32.5824
20
17.5361
11
32.581
21
17.5331
0
LINE
8
Black
10
32.581
20
17.5331
11
32.5739
21
17.5261
0
LINE
8
Black
10
32.5739
20
17.5261
11
32.5675
21
17.5184
0
LINE
8
Black
10
32.5675
20
17.5184
11
32.5646
21
17.5167
0
LINE
8
Black
10
32.5646
20
17.5167
11
32.5622
21
17.5144
0
LINE
8
Black
10
32.5622
20
17.5144
11
32.5532
21
17.5102
0
LINE
8
Black
10
32.5532
20
17.5102
11
32.5446
21
17.5052
0
LINE
8
Black
10
32.5446
20
17.5052
11
32.5413
21
17.5046
0
LINE
8
Black
10
32.5413
20
17.5046
11
32.5383
21
17.5032
0
LINE
8
Black
10
32.5383
20
17.5032
11
32.5283
21
17.5023
0
LINE
8
Black
10
32.5283
20
17.5023
11
32.5185
21
17.5006
0
LINE
8
Black
10
32.5185
20
17.5006
11
25.433
21
17.5006
0
LINE
8
Black
10
25.433
20
17.5006
11
25.4265
21
17.4993
0
LINE
8
Black
10
25.4265
20
17.4993
11
25.4254
21
17.4935
0
LINE
8
Black
10
25.4254
20
17.4935
11
25.4254
21
14.0397
0
LINE
8
Black
10
25.4254
20
14.0397
11
25.4248
21
14.0364
0
LINE
8
Black
10
25.4248
20
14.0364
11
25.4251
21
14.033
0
LINE
8
Black
10
25.4251
20
14.033
11
25.4225
21
14.0234
0
LINE
8
Black
10
25.4225
20
14.0234
11
25.4208
21
14.0136
0
LINE
8
Black
10
25.4208
20
14.0136
11
25.4191
21
14.0107
0
LINE
8
Black
10
25.4191
20
14.0107
11
25.4183
21
14.0075
0
LINE
8
Black
10
25.4183
20
14.0075
11
25.4125
21
13.9993
0
LINE
8
Black
10
25.4125
20
13.9993
11
25.4076
21
13.9907
0
LINE
8
Black
10
25.4076
20
13.9907
11
25.405
21
13.9885
0
LINE
8
Black
10
25.405
20
13.9885
11
25.4031
21
13.9858
0
LINE
8
Black
10
25.4031
20
13.9858
11
24.7323
21
13.315
0
LINE
8
Black
10
24.7323
20
13.315
11
24.7282
21
13.3088
0
LINE
8
Black
10
24.7282
20
13.3088
11
24.7269
21
13.3022
0
LINE
8
Black
10
24.7269
20
13.3022
11
24.7269
21
0.088861
0
LINE
8
Black
10
24.7269
20
0.088861
11
24.7257
21
0.082313
0
LINE
8
Black
10
24.7257
20
0.082313
11
24.7257
21
0.075668
0
LINE
8
Black
10
24.7257
20
0.075668
11
24.7235
21
0.069387
0
LINE
8
Black
10
24.7235
20
0.069387
11
24.7223
21
0.062799
0
LINE
8
Black
10
24.7223
20
0.062799
11
24.719
21
0.057038
0
LINE
8
Black
10
24.719
20
0.057038
11
24.7167
21
0.050795
0
LINE
8
Black
10
24.7167
20
0.050795
11
24.7124
21
0.045674
0
LINE
8
Black
10
24.7124
20
0.045674
11
24.7091
21
0.039881
0
LINE
8
Black
10
24.7091
20
0.039881
11
24.704
21
0.035608
0
LINE
8
Black
10
24.704
20
0.035608
11
24.6997
21
0.030513
0
LINE
8
Black
10
24.6997
20
0.030513
11
24.6939
21
0.027166
0
LINE
8
Black
10
24.6939
20
0.027166
11
24.6888
21
0.02287
0
LINE
8
Black
10
24.6888
20
0.02287
11
24.6826
21
0.020598
0
LINE
8
Black
10
24.6826
20
0.020598
11
24.6768
21
0.017269
0
LINE
8
Black
10
24.6768
20
0.017269
11
24.6702
21
0.016104
0
LINE
8
Black
10
24.6702
20
0.016104
11
24.6639
21
0.013819
0
LINE
8
Black
10
24.6639
20
0.013819
11
24.6573
21
0.013819
0
LINE
8
Black
10
24.6573
20
0.013819
11
24.6507
21
0.012661
0
LINE
8
Black
10
24.6507
20
0.012661
11
0.031587
21
1.6e-005
0
LINE
8
Black
10
0.031587
20
1.6e-005
11
0.028265
21
0.0006
0
LINE
8
Black
10
0.028265
20
0.0006
11
0.024906
21
0.000306
0
LINE
8
Black
10
0.024906
20
0.000306
11
0.015306
21
0.002878
0
LINE
8
Black
10
0.015306
20
0.002878
11
0.005523
21
0.004598
0
LINE
8
Black
10
0.005523
20
0.004598
11
0.002603
21
0.006282
0
LINE
8
Black
10
0.002603
20
0.006282
11
-0.000656
21
0.007155
0
LINE
8
Black
10
-0.000656
20
0.007155
11
-0.008798
21
0.012856
0
LINE
8
Black
10
-0.008798
20
0.012856
11
-0.017402
21
0.017818
0
LINE
8
Black
10
-0.017402
20
0.017818
11
-0.019571
21
0.0204
0
LINE
8
Black
10
-0.019571
20
0.0204
11
-0.022334
21
0.022335
0
LINE
8
Black
10
-0.022334
20
0.022335
11
-5.05768
21
5.05768
0
LINE
8
Black
10
-5.05768
20
5.05768
11
-5.05961
21
5.06043
0
LINE
8
Black
10
-5.05961
20
5.06043
11
-5.06217
21
5.06258
0
LINE
8
Black
10
-5.06217
20
5.06258
11
-5.06715
21
5.0712
0
LINE
8
Black
10
-5.06715
20
5.0712
11
-5.07286
21
5.07936
0
LINE
8
Black
10
-5.07286
20
5.07936
11
-5.07373
21
5.0826
0
LINE
8
Black
10
-5.07373
20
5.0826
11
-5.0754
21
5.0855
0
LINE
8
Black
10
-5.0754
20
5.0855
11
-5.07713
21
5.09531
0
LINE
8
Black
10
-5.07713
20
5.09531
11
-5.07971
21
5.10492
0
LINE
8
Black
10
-5.07971
20
5.10492
11
-5.07942
21
5.10826
0
LINE
8
Black
10
-5.07942
20
5.10826
11
-5.08
21
5.11156
0
LINE
8
Black
10
-5.08
20
5.11156
11
-5.08
21
24.1808
0
LINE
8
Black
10
-5.08
20
24.1808
11
-5.08
21
31.1776
0
LINE
8
Black
10
-5.08
20
31.1776
11
-5.08
21
32.0802
0
LINE
8
Black
10
-5.08
20
32.0802
11
-5.07884
21
32.0868
0
LINE
8
Black
10
-5.07884
20
32.0868
11
-5.07884
21
32.0934
0
LINE
8
Black
10
-5.07884
20
32.0934
11
-5.07656
21
32.0997
0
LINE
8
Black
10
-5.07656
20
32.0997
11
-5.0754
21
32.1063
0
LINE
8
Black
10
-5.0754
20
32.1063
11
-5.07207
21
32.112
0
LINE
8
Black
10
-5.07207
20
32.112
11
-5.06979
21
32.1183
0
LINE
8
Black
10
-5.06979
20
32.1183
11
-5.06551
21
32.1234
0
LINE
8
Black
10
-5.06551
20
32.1234
11
-5.06217
21
32.1292
0
LINE
8
Black
10
-5.06217
20
32.1292
11
-5.05707
21
32.1335
0
LINE
8
Black
10
-5.05707
20
32.1335
11
-5.05278
21
32.1386
0
LINE
8
Black
10
-5.05278
20
32.1386
11
-5.04701
21
32.1419
0
LINE
8
Black
10
-5.04701
20
32.1419
11
-5.0419
21
32.1462
0
LINE
8
Black
10
-5.0419
20
32.1462
11
-5.03564
21
32.1485
0
LINE
8
Black
10
-5.03564
20
32.1485
11
-5.02986
21
32.1518
0
LINE
8
Black
10
-5.02986
20
32.1518
11
-5.02329
21
32.153
0
LINE
8
Black
10
-5.02329
20
32.153
11
-5.01703
21
32.1552
0
LINE
8
Black
10
-5.01703
20
32.1552
11
-5.01037
21
32.1552
0
LINE
8
Black
10
-5.01037
20
32.1552
11
-5.0038
21
32.1564
0
LINE
8
Black
10
-5.0038
20
32.1564
11
18.0151
21
32.1564
0
LINE
8
Black
10
18.0151
20
32.1564
11
18.0184
21
32.1558
0
LINE
8
Black
10
3.52591
20
31.3345
11
3.4628
21
31.3226
0
LINE
8
Black
10
3.4628
20
31.3226
11
3.41049
21
31.2889
0
LINE
8
Black
10
3.41049
20
31.2889
11
3.37571
21
31.238
0
LINE
8
Black
10
3.37571
20
31.238
11
3.36192
21
31.17
0
LINE
8
Black
10
3.36192
20
31.17
11
3.36192
21
29.4847
0
LINE
8
Black
10
3.36192
20
29.4847
11
3.3738
21
29.4216
0
LINE
8
Black
10
3.3738
20
29.4216
11
3.40746
21
29.3693
0
LINE
8
Black
10
3.40746
20
29.3693
11
3.45837
21
29.3345
0
LINE
8
Black
10
3.45837
20
29.3345
11
3.49492
21
29.3271
0
LINE
8
Black
10
3.49492
20
29.3271
11
3.50637
21
29.3226
0
LINE
8
Black
10
3.50637
20
29.3226
11
3.5179
21
29.3184
0
LINE
8
Black
10
3.5179
20
29.3184
11
3.51865
21
29.3178
0
LINE
8
Black
10
3.51865
20
29.3178
11
3.51955
21
29.3174
0
LINE
8
Black
10
3.51955
20
29.3174
11
3.52878
21
29.3093
0
LINE
8
Black
10
3.52878
20
29.3093
11
3.53817
21
29.3014
0
LINE
8
Black
10
3.53817
20
29.3014
11
3.53866
21
29.3006
0
LINE
8
Black
10
3.53866
20
29.3006
11
3.53939
21
29.2999
0
LINE
8
Black
10
3.53939
20
29.2999
11
3.54526
21
29.2891
0
LINE
8
Black
10
3.54526
20
29.2891
11
3.5514
21
29.2785
0
LINE
8
Black
10
3.5514
20
29.2785
11
3.55157
21
29.2775
0
LINE
8
Black
10
3.55157
20
29.2775
11
3.55204
21
29.2767
0
LINE
8
Black
10
3.55204
20
29.2767
11
3.55386
21
29.2645
0
LINE
8
Black
10
3.55386
20
29.2645
11
3.556
21
29.2524
0
LINE
8
Black
10
3.556
20
29.2524
11
3.556
21
28.0924
0
LINE
8
Black
10
3.556
20
28.0924
11
3.55484
21
28.0858
0
LINE
8
Black
10
3.55484
20
28.0858
11
3.55484
21
28.0792
0
LINE
8
Black
10
3.55484
20
28.0792
11
3.55256
21
28.0729
0
LINE
8
Black
10
3.55256
20
28.0729
11
3.5514
21
28.0663
0
LINE
8
Black
10
3.5514
20
28.0663
11
3.54807
21
28.0606
0
LINE
8
Black
10
3.54807
20
28.0606
11
3.54579
21
28.0543
0
LINE
8
Black
10
3.54579
20
28.0543
11
3.54151
21
28.0492
0
LINE
8
Black
10
3.54151
20
28.0492
11
3.53817
21
28.0434
0
LINE
8
Black
10
3.53817
20
28.0434
11
3.53307
21
28.0391
0
LINE
8
Black
10
3.53307
20
28.0391
11
3.52878
21
28.034
0
LINE
8
Black
10
3.52878
20
28.034
11
3.52301
21
28.0307
0
LINE
8
Black
10
3.52301
20
28.0307
11
3.5179
21
28.0264
0
LINE
8
Black
10
3.5179
20
28.0264
11
3.51164
21
28.0241
0
LINE
8
Black
10
3.51164
20
28.0241
11
3.50586
21
28.0208
0
LINE
8
Black
10
3.50586
20
28.0208
11
3.49929
21
28.0196
0
LINE
8
Black
10
3.49929
20
28.0196
11
3.49303
21
28.0174
0
LINE
8
Black
10
3.49303
20
28.0174
11
3.48637
21
28.0174
0
LINE
8
Black
10
3.48637
20
28.0174
11
3.4798
21
28.0162
0
LINE
8
Black
10
3.4798
20
28.0162
11
-0.805294
21
28.0162
0
LINE
8
Black
10
-0.805294
20
28.0162
11
-1.11355
21
27.9549
0
LINE
8
Black
10
-1.11355
20
27.9549
11
-1.37488
21
27.7803
0
LINE
8
Black
10
-1.37488
20
27.7803
11
-4.41227
21
24.7429
0
LINE
8
Black
10
-4.41227
20
24.7429
11
-4.58688
21
24.4816
0
LINE
8
Black
10
-4.58688
20
24.4816
11
-4.64671
21
24.1808
0
LINE
8
Black
10
-4.64671
20
24.1808
11
-4.58688
21
23.88
0
LINE
8
Black
10
-4.58688
20
23.88
11
-4.58484
21
23.877
0
LINE
8
Black
10
-4.58484
20
23.877
11
-4.58116
21
23.8686
0
LINE
8
Black
10
-4.58116
20
23.8686
11
-4.5766
21
23.8607
0
LINE
8
Black
10
-4.5766
20
23.8607
11
-4.57587
21
23.8566
0
LINE
8
Black
10
-4.57587
20
23.8566
11
-4.57418
21
23.8528
0
LINE
8
Black
10
-4.57418
20
23.8528
11
-4.57359
21
23.8437
0
LINE
8
Black
10
-4.57359
20
23.8437
11
-4.572
21
23.8347
0
LINE
8
Black
10
-4.572
20
23.8347
11
-4.572
21
6.15431
0
LINE
8
Black
10
-4.572
20
6.15431
11
-4.52035
21
5.89465
0
LINE
8
Black
10
-4.52035
20
5.89465
11
-4.37327
21
5.67452
0
LINE
8
Black
10
-4.37327
20
5.67452
11
-0.193923
21
1.49518
0
LINE
8
Black
10
-0.193923
20
1.49518
11
-0.193905
21
1.49515
0
LINE
8
Black
10
-0.193905
20
1.49515
11
-0.193876
21
1.49513
0
LINE
8
Black
10
-0.193876
20
1.49513
11
-0.09311
21
1.39419
0
LINE
8
Black
10
-0.09311
20
1.39419
11
-0.092891
21
1.39405
0
LINE
8
Black
10
-0.092891
20
1.39405
11
-0.09263
21
1.39371
0
LINE
8
Black
10
-0.09263
20
1.39371
11
-0.091157
21
1.39223
0
LINE
8
Black
10
-0.091157
20
1.39223
11
-0.090555
21
1.39181
0
LINE
8
Black
10
-0.090555
20
1.39181
11
0.492918
21
0.808335
0
LINE
8
Black
10
0.492918
20
0.808335
11
0.713047
21
0.661249
0
LINE
8
Black
10
0.713047
20
0.661249
11
0.972705
21
0.6096
0
LINE
8
Black
10
0.972705
20
0.6096
11
5.65759
21
0.6096
0
LINE
8
Black
10
5.65759
20
0.6096
11
5.91725
21
0.661249
0
LINE
8
Black
10
5.91725
20
0.661249
11
5.9964
21
0.714136
0
LINE
8
Black
10
5.9964
20
0.714136
11
5.99831
21
0.714973
0
LINE
8
Black
10
5.99831
20
0.714973
11
5.99988
21
0.716328
0
LINE
8
Black
10
5.99988
20
0.716328
11
6.01037
21
0.72028
0
LINE
8
Black
10
6.01037
20
0.72028
11
6.02063
21
0.724795
0
LINE
8
Black
10
6.02063
20
0.724795
11
6.0208
21
0.724806
0
LINE
8
Black
10
6.0208
20
0.724806
11
6.07341
21
0.758658
0
LINE
8
Black
10
6.07341
20
0.758658
11
6.0738
21
0.759235
0
LINE
8
Black
10
6.0738
20
0.759235
11
6.0747
21
0.760153
0
LINE
8
Black
10
6.0747
20
0.760153
11
6.07527
21
0.761304
0
LINE
8
Black
10
6.07527
20
0.761304
11
6.08392
21
0.769589
0
LINE
8
Black
10
6.08392
20
0.769589
11
6.0923
21
0.778161
0
LINE
8
Black
10
6.0923
20
0.778161
11
6.09346
21
0.778717
0
LINE
8
Black
10
6.09346
20
0.778717
11
6.09438
21
0.779604
0
LINE
8
Black
10
6.09438
20
0.779604
11
6.13102
21
0.804081
0
LINE
8
Black
10
6.13102
20
0.804081
11
6.27385
21
1.01785
0
LINE
8
Black
10
6.27385
20
1.01785
11
6.3255
21
1.2775
0
LINE
8
Black
10
6.3255
20
1.2775
11
6.3255
21
4.33129
0
LINE
8
Black
10
6.3255
20
4.33129
11
6.32608
21
4.33459
0
LINE
8
Black
10
6.32608
20
4.33459
11
6.32579
21
4.33793
0
LINE
8
Black
10
6.32579
20
4.33793
11
6.32837
21
4.34755
0
LINE
8
Black
10
6.32837
20
4.34755
11
6.3301
21
4.35735
0
LINE
8
Black
10
6.3301
20
4.35735
11
6.33177
21
4.36025
0
LINE
8
Black
10
6.33177
20
4.36025
11
6.33264
21
4.36349
0
LINE
8
Black
10
6.33264
20
4.36349
11
6.33835
21
4.37165
0
LINE
8
Black
10
6.33835
20
4.37165
11
6.34333
21
4.38027
0
LINE
8
Black
10
6.34333
20
4.38027
11
6.34589
21
4.38242
0
LINE
8
Black
10
6.34589
20
4.38242
11
6.34782
21
4.38517
0
LINE
8
Black
10
6.34782
20
4.38517
11
6.94413
21
4.98148
0
LINE
8
Black
10
6.94413
20
4.98148
11
6.94687
21
4.9834
0
LINE
8
Black
10
6.94687
20
4.9834
11
6.94903
21
4.98597
0
LINE
8
Black
10
6.94903
20
4.98597
11
6.95765
21
4.99095
0
LINE
8
Black
10
6.95765
20
4.99095
11
6.96581
21
4.99666
0
LINE
8
Black
10
6.96581
20
4.99666
11
6.96904
21
4.99753
0
LINE
8
Black
10
6.96904
20
4.99753
11
6.97195
21
4.9992
0
LINE
8
Black
10
6.97195
20
4.9992
11
6.98175
21
5.00093
0
LINE
8
Black
10
6.98175
20
5.00093
11
6.99137
21
5.00351
0
LINE
8
Black
10
6.99137
20
5.00351
11
6.99471
21
5.00322
0
LINE
8
Black
10
6.99471
20
5.00322
11
6.99801
21
5.0038
0
LINE
8
Black
10
6.99801
20
5.0038
11
7.06913
21
5.0038
0
LINE
8
Black
10
7.06913
20
5.0038
11
7.07389
21
5.00296
0
LINE
8
Black
10
7.07389
20
5.00296
11
7.07873
21
5.00319
0
LINE
8
Black
10
7.07873
20
5.00319
11
7.08683
21
5.00068
0
LINE
8
Black
10
7.08683
20
5.00068
11
7.09519
21
4.9992
0
LINE
8
Black
10
7.09519
20
4.9992
11
7.09938
21
4.99678
0
LINE
8
Black
10
7.09938
20
4.99678
11
7.104
21
4.99535
0
LINE
8
Black
10
7.104
20
4.99535
11
7.11076
21
4.99022
0
LINE
8
Black
10
7.11076
20
4.99022
11
7.11811
21
4.98597
0
LINE
8
Black
10
7.11811
20
4.98597
11
7.12122
21
4.98226
0
LINE
8
Black
10
7.12122
20
4.98226
11
7.12507
21
4.97933
0
LINE
8
Black
10
7.12507
20
4.97933
11
7.12966
21
4.9722
0
LINE
8
Black
10
7.12966
20
4.9722
11
7.13512
21
4.9657
0
LINE
8
Black
10
7.13512
20
4.9657
11
7.13677
21
4.96115
0
LINE
8
Black
10
7.13677
20
4.96115
11
7.13939
21
4.95708
0
LINE
8
Black
10
7.13939
20
4.95708
11
7.14127
21
4.9488
0
LINE
8
Black
10
7.14127
20
4.9488
11
7.14417
21
4.94083
0
LINE
8
Black
10
7.14417
20
4.94083
11
7.14417
21
4.93599
0
LINE
8
Black
10
7.14417
20
4.93599
11
7.14524
21
4.93127
0
LINE
8
Black
10
7.14524
20
4.93127
11
7.14417
21
4.92285
0
LINE
8
Black
10
7.14417
20
4.92285
11
7.14417
21
4.91437
0
LINE
8
Black
10
7.14417
20
4.91437
11
7.14251
21
4.90982
0
LINE
8
Black
10
7.14251
20
4.90982
11
7.1419
21
4.90502
0
LINE
8
Black
10
7.1419
20
4.90502
11
7.13802
21
4.89747
0
LINE
8
Black
10
7.13802
20
4.89747
11
7.13512
21
4.8895
0
LINE
8
Black
10
7.13512
20
4.8895
11
7.13201
21
4.88579
0
LINE
8
Black
10
7.13201
20
4.88579
11
7.12979
21
4.88149
0
LINE
8
Black
10
7.12979
20
4.88149
11
7.12356
21
4.87572
0
LINE
8
Black
10
7.12356
20
4.87572
11
7.11811
21
4.86923
0
LINE
8
Black
10
7.11811
20
4.86923
11
7.11391
21
4.86681
0
LINE
8
Black
10
7.11391
20
4.86681
11
7.11036
21
4.86352
0
LINE
8
Black
10
7.11036
20
4.86352
11
7.06719
21
4.83574
0
LINE
8
Black
10
7.06719
20
4.83574
11
7.03241
21
4.78483
0
LINE
8
Black
10
7.03241
20
4.78483
11
7.01862
21
4.71676
0
LINE
8
Black
10
7.01862
20
4.71676
11
7.01862
21
2.19151
0
LINE
8
Black
10
7.01862
20
2.19151
11
7.0305
21
2.1284
0
LINE
8
Black
10
7.0305
20
2.1284
11
7.06416
21
2.07609
0
LINE
8
Black
10
7.06416
20
2.07609
11
7.11507
21
2.04131
0
LINE
8
Black
10
7.11507
20
2.04131
11
7.14687
21
2.03487
0
LINE
8
Black
10
7.14687
20
2.03487
11
7.15753
21
2.03068
0
LINE
8
Black
10
7.15753
20
2.03068
11
7.16839
21
2.02699
0
LINE
8
Black
10
7.16839
20
2.02699
11
7.16981
21
2.02585
0
LINE
8
Black
10
7.16981
20
2.02585
11
7.1715
21
2.02519
0
LINE
8
Black
10
7.1715
20
2.02519
11
7.1801
21
2.0176
0
LINE
8
Black
10
7.1801
20
2.0176
11
7.18903
21
2.01043
0
LINE
8
Black
10
7.18903
20
2.01043
11
7.18997
21
2.00888
0
LINE
8
Black
10
7.18997
20
2.00888
11
7.19133
21
2.00767
0
LINE
8
Black
10
7.19133
20
2.00767
11
7.19682
21
1.9976
0
LINE
8
Black
10
7.19682
20
1.9976
11
7.20276
21
1.9878
0
LINE
8
Black
10
7.20276
20
1.9878
11
7.20312
21
1.98602
0
LINE
8
Black
10
7.20312
20
1.98602
11
7.20398
21
1.98443
0
LINE
8
Black
10
7.20398
20
1.98443
11
7.20569
21
1.9731
0
LINE
8
Black
10
7.20569
20
1.9731
11
7.20792
21
1.96185
0
LINE
8
Black
10
7.20792
20
1.96185
11
7.20765
21
1.96005
0
LINE
8
Black
10
7.20765
20
1.96005
11
7.20792
21
1.95826
0
LINE
8
Black
10
7.20792
20
1.95826
11
7.20564
21
1.94703
0
LINE
8
Black
10
7.20564
20
1.94703
11
7.2039
21
1.93569
0
LINE
8
Black
10
7.2039
20
1.93569
11
7.20303
21
1.9341
0
LINE
8
Black
10
7.20303
20
1.9341
11
7.20267
21
1.93232
0
LINE
8
Black
10
7.20267
20
1.93232
11
7.19669
21
1.92254
0
LINE
8
Black
10
7.19669
20
1.92254
11
7.19117
21
1.91249
0
LINE
8
Black
10
7.19117
20
1.91249
11
7.1898
21
1.91129
0
LINE
8
Black
10
7.1898
20
1.91129
11
7.18886
21
1.90974
0
LINE
8
Black
10
7.18886
20
1.90974
11
7.1799
21
1.90261
0
LINE
8
Black
10
7.1799
20
1.90261
11
7.17127
21
1.89504
0
LINE
8
Black
10
7.17127
20
1.89504
11
7.16958
21
1.89438
0
LINE
8
Black
10
7.16958
20
1.89438
11
7.16816
21
1.89325
0
LINE
8
Black
10
7.16816
20
1.89325
11
7.15729
21
1.8896
0
LINE
8
Black
10
7.15729
20
1.8896
11
7.14661
21
1.88545
0
LINE
8
Black
10
7.14661
20
1.88545
11
7.11295
21
1.87875
0
LINE
8
Black
10
7.11295
20
1.87875
11
7.03379
21
1.82586
0
LINE
8
Black
10
7.03379
20
1.82586
11
7.03189
21
1.82503
0
LINE
8
Black
10
7.03189
20
1.82503
11
7.03031
21
1.82367
0
LINE
8
Black
10
7.03031
20
1.82367
11
7.01983
21
1.81972
0
LINE
8
Black
10
7.01983
20
1.81972
11
7.00957
21
1.8152
0
LINE
8
Black
10
7.00957
20
1.8152
11
7.0094
21
1.81519
0
LINE
8
Black
10
7.0094
20
1.81519
11
6.95679
21
1.78134
0
LINE
8
Black
10
6.95679
20
1.78134
11
6.9564
21
1.78076
0
LINE
8
Black
10
6.9564
20
1.78076
11
6.9555
21
1.77985
0
LINE
8
Black
10
6.9555
20
1.77985
11
6.95493
21
1.7787
0
LINE
8
Black
10
6.95493
20
1.7787
11
6.94627
21
1.77041
0
LINE
8
Black
10
6.94627
20
1.77041
11
6.9379
21
1.76184
0
LINE
8
Black
10
6.9379
20
1.76184
11
6.93674
21
1.76128
0
LINE
8
Black
10
6.93674
20
1.76128
11
6.93582
21
1.7604
0
LINE
8
Black
10
6.93582
20
1.7604
11
6.89918
21
1.73592
0
LINE
8
Black
10
6.89918
20
1.73592
11
6.75635
21
1.52215
0
LINE
8
Black
10
6.75635
20
1.52215
11
6.70619
21
1.27
0
LINE
8
Black
10
6.70619
20
1.27
11
6.75635
21
1.01785
0
LINE
8
Black
10
6.75635
20
1.01785
11
6.89918
21
0.804083
0
LINE
8
Black
10
6.89918
20
0.804083
11
6.9339
21
0.780885
0
LINE
8
Black
10
6.9339
20
0.780885
11
6.93559
21
0.779265
0
LINE
8
Black
10
6.93559
20
0.779265
11
6.93768
21
0.778192
0
LINE
8
Black
10
6.93768
20
0.778192
11
6.94511
21
0.770152
0
LINE
8
Black
10
6.94511
20
0.770152
11
6.95301
21
0.762585
0
LINE
8
Black
10
6.95301
20
0.762585
11
6.9533
21
0.762004
0
LINE
8
Black
10
6.9533
20
0.762004
11
7.0049
21
0.72675
0
LINE
8
Black
10
7.0049
20
0.72675
11
7.00576
21
0.726411
0
LINE
8
Black
10
7.00576
20
0.726411
11
7.0073
21
0.72631
0
LINE
8
Black
10
7.0073
20
0.72631
11
7.01803
21
0.721589
0
LINE
8
Black
10
7.01803
20
0.721589
11
7.02895
21
0.7173
0
LINE
8
Black
10
7.02895
20
0.7173
11
7.03011
21
0.716274
0
LINE
8
Black
10
7.03011
20
0.716274
11
7.03153
21
0.715651
0
LINE
8
Black
10
7.03153
20
0.715651
11
7.11295
21
0.661249
0
LINE
8
Black
10
7.11295
20
0.661249
11
7.37261
21
0.6096
0
LINE
8
Black
10
7.37261
20
0.6096
11
7.73642
21
0.6096
0
LINE
8
Black
10
7.73642
20
0.6096
11
7.74299
21
0.608442
0
LINE
8
Black
10
7.74299
20
0.608442
11
7.74965
21
0.608442
0
LINE
8
Black
10
7.74965
20
0.608442
11
7.75591
21
0.606163
0
LINE
8
Black
10
7.75591
20
0.606163
11
7.76248
21
0.605005
0
LINE
8
Black
10
7.76248
20
0.605005
11
7.76826
21
0.60167
0
LINE
8
Black
10
7.76826
20
0.60167
11
7.77452
21
0.599391
0
LINE
8
Black
10
7.77452
20
0.599391
11
7.77963
21
0.595107
0
LINE
8
Black
10
7.77963
20
0.595107
11
7.7854
21
0.591773
0
LINE
8
Black
10
7.7854
20
0.591773
11
7.78969
21
0.586666
0
LINE
8
Black
10
7.78969
20
0.586666
11
7.79479
21
0.58238
0
LINE
8
Black
10
7.79479
20
0.58238
11
7.79813
21
0.576606
0
LINE
8
Black
10
7.79813
20
0.576606
11
7.80241
21
0.5715
0
LINE
8
Black
10
7.80241
20
0.5715
11
7.80469
21
0.565238
0
LINE
8
Black
10
7.80469
20
0.565238
11
7.80803
21
0.559462
0
LINE
8
Black
10
7.80803
20
0.559462
11
7.80918
21
0.552893
0
LINE
8
Black
10
7.80918
20
0.552893
11
7.81146
21
0.546632
0
LINE
8
Black
10
7.81146
20
0.546632
11
7.81146
21
0.539968
0
LINE
8
Black
10
7.81146
20
0.539968
11
7.81262
21
0.5334
0
LINE
8
Black
10
7.81262
20
0.5334
11
7.81262
21
0.436208
0
LINE
8
Black
10
7.81262
20
0.436208
11
7.8245
21
0.373103
0
LINE
8
Black
10
7.8245
20
0.373103
11
7.85816
21
0.320793
0
LINE
8
Black
10
7.85816
20
0.320793
11
7.90907
21
0.286006
0
LINE
8
Black
10
7.90907
20
0.286006
11
7.97714
21
0.272222
0
LINE
8
Black
10
7.97714
20
0.272222
11
9.46239
21
0.272222
0
LINE
8
Black
10
9.46239
20
0.272222
11
9.5255
21
0.284096
0
LINE
8
Black
10
9.5255
20
0.284096
11
9.57781
21
0.317757
0
LINE
8
Black
10
9.57781
20
0.317757
11
9.61259
21
0.368669
0
LINE
8
Black
10
9.61259
20
0.368669
11
9.62638
21
0.436738
0
LINE
8
Black
10
9.62638
20
0.436738
11
9.62638
21
1.67199
0
LINE
8
Black
10
9.62638
20
1.67199
11
9.6145
21
1.7351
0
LINE
8
Black
10
9.6145
20
1.7351
11
9.58084
21
1.78741
0
LINE
8
Black
10
9.58084
20
1.78741
11
9.52993
21
1.82219
0
LINE
8
Black
10
9.52993
20
1.82219
11
9.46186
21
1.83598
0
LINE
8
Black
10
9.46186
20
1.83598
11
9.1821
21
1.83598
0
LINE
8
Black
10
9.1821
20
1.83598
11
9.17553
21
1.83714
0
LINE
8
Black
10
9.17553
20
1.83714
11
9.16887
21
1.83714
0
LINE
8
Black
10
9.16887
20
1.83714
11
9.16261
21
1.83942
0
LINE
8
Black
10
9.16261
20
1.83942
11
9.15604
21
1.84057
0
LINE
8
Black
10
9.15604
20
1.84057
11
9.15026
21
1.84391
0
LINE
8
Black
10
9.15026
20
1.84391
11
9.144
21
1.84619
0
LINE
8
Black
10
9.144
20
1.84619
11
9.13889
21
1.85047
0
LINE
8
Black
10
9.13889
20
1.85047
11
9.13312
21
1.8538
0
LINE
8
Black
10
9.13312
20
1.8538
11
9.12883
21
1.85891
0
LINE
8
Black
10
9.12883
20
1.85891
11
9.12373
21
1.8632
0
LINE
8
Black
10
9.12373
20
1.8632
11
9.12039
21
1.86897
0
LINE
8
Black
10
9.12039
20
1.86897
11
9.11611
21
1.87408
0
LINE
8
Black
10
9.11611
20
1.87408
11
9.11383
21
1.88034
0
LINE
8
Black
10
9.11383
20
1.88034
11
9.1105
21
1.88612
0
LINE
8
Black
10
9.1105
20
1.88612
11
9.10934
21
1.89268
0
LINE
8
Black
10
9.10934
20
1.89268
11
9.10706
21
1.89895
0
LINE
8
Black
10
9.10706
20
1.89895
11
9.10706
21
1.90561
0
LINE
8
Black
10
9.10706
20
1.90561
11
9.1059
21
1.91218
0
LINE
8
Black
10
9.1059
20
1.91218
11
9.1059
21
1.95132
0
LINE
8
Black
10
9.1059
20
1.95132
11
9.10706
21
1.95789
0
LINE
8
Black
10
9.10706
20
1.95789
11
9.10706
21
1.96455
0
LINE
8
Black
10
9.10706
20
1.96455
11
9.10934
21
1.97081
0
LINE
8
Black
10
9.10934
20
1.97081
11
9.1105
21
1.97738
0
LINE
8
Black
10
9.1105
20
1.97738
11
9.11383
21
1.98316
0
LINE
8
Black
10
9.11383
20
1.98316
11
9.11611
21
1.98942
0
LINE
8
Black
10
9.11611
20
1.98942
11
9.12039
21
1.99453
0
LINE
8
Black
10
9.12039
20
1.99453
11
9.12373
21
2.0003
0
LINE
8
Black
10
9.12373
20
2.0003
11
9.12883
21
2.00459
0
LINE
8
Black
10
9.12883
20
2.00459
11
9.13312
21
2.00969
0
LINE
8
Black
10
9.13312
20
2.00969
11
9.13889
21
2.01303
0
LINE
8
Black
10
9.13889
20
2.01303
11
9.144
21
2.01731
0
LINE
8
Black
10
9.144
20
2.01731
11
9.15026
21
2.01959
0
LINE
8
Black
10
9.15026
20
2.01959
11
9.15604
21
2.02293
0
LINE
8
Black
10
9.15604
20
2.02293
11
9.16261
21
2.02408
0
LINE
8
Black
10
9.16261
20
2.02408
11
9.16887
21
2.02636
0
LINE
8
Black
10
9.16887
20
2.02636
11
9.17553
21
2.02636
0
LINE
8
Black
10
9.17553
20
2.02636
11
9.1821
21
2.02752
0
LINE
8
Black
10
9.1821
20
2.02752
11
9.70839
21
2.02752
0
LINE
8
Black
10
9.70839
20
2.02752
11
9.7715
21
2.0394
0
LINE
8
Black
10
9.7715
20
2.0394
11
9.82381
21
2.07306
0
LINE
8
Black
10
9.82381
20
2.07306
11
9.85859
21
2.12397
0
LINE
8
Black
10
9.85859
20
2.12397
11
9.87238
21
2.19204
0
LINE
8
Black
10
9.87238
20
2.19204
11
9.87238
21
2.20412
0
LINE
8
Black
10
9.87238
20
2.20412
11
9.87238
21
4.71729
0
LINE
8
Black
10
9.87238
20
4.71729
11
9.8605
21
4.7804
0
LINE
8
Black
10
9.8605
20
4.7804
11
9.82684
21
4.83271
0
LINE
8
Black
10
9.82684
20
4.83271
11
9.78004
21
4.86468
0
LINE
8
Black
10
9.78004
20
4.86468
11
9.77733
21
4.86733
0
LINE
8
Black
10
9.77733
20
4.86733
11
9.77405
21
4.86923
0
LINE
8
Black
10
9.77405
20
4.86923
11
9.76793
21
4.87652
0
LINE
8
Black
10
9.76793
20
4.87652
11
9.76112
21
4.88318
0
LINE
8
Black
10
9.76112
20
4.88318
11
9.75948
21
4.8866
0
LINE
8
Black
10
9.75948
20
4.8866
11
9.75704
21
4.8895
0
LINE
8
Black
10
9.75704
20
4.8895
11
9.75379
21
4.89845
0
LINE
8
Black
10
9.75379
20
4.89845
11
9.74966
21
4.90704
0
LINE
8
Black
10
9.74966
20
4.90704
11
9.74929
21
4.91081
0
LINE
8
Black
10
9.74929
20
4.91081
11
9.74799
21
4.91437
0
LINE
8
Black
10
9.74799
20
4.91437
11
9.74799
21
4.92389
0
LINE
8
Black
10
9.74799
20
4.92389
11
9.74705
21
4.93337
0
LINE
8
Black
10
9.74705
20
4.93337
11
9.74799
21
4.93704
0
LINE
8
Black
10
9.74799
20
4.93704
11
9.74799
21
4.94083
0
LINE
8
Black
10
9.74799
20
4.94083
11
9.75125
21
4.94978
0
LINE
8
Black
10
9.75125
20
4.94978
11
9.75361
21
4.95901
0
LINE
8
Black
10
9.75361
20
4.95901
11
9.75574
21
4.96214
0
LINE
8
Black
10
9.75574
20
4.96214
11
9.75704
21
4.9657
0
LINE
8
Black
10
9.75704
20
4.9657
11
9.76317
21
4.973
0
LINE
8
Black
10
9.76317
20
4.973
11
9.76854
21
4.98086
0
LINE
8
Black
10
9.76854
20
4.98086
11
9.77162
21
4.98307
0
LINE
8
Black
10
9.77162
20
4.98307
11
9.77405
21
4.98597
0
LINE
8
Black
10
9.77405
20
4.98597
11
9.78231
21
4.99074
0
LINE
8
Black
10
9.78231
20
4.99074
11
9.79004
21
4.99629
0
LINE
8
Black
10
9.79004
20
4.99629
11
9.79369
21
4.99731
0
LINE
8
Black
10
9.79369
20
4.99731
11
9.79697
21
4.9992
0
LINE
8
Black
10
9.79697
20
4.9992
11
9.80636
21
5.00086
0
LINE
8
Black
10
9.80636
20
5.00086
11
9.81552
21
5.00343
0
LINE
8
Black
10
9.81552
20
5.00343
11
9.8193
21
5.00314
0
LINE
8
Black
10
9.8193
20
5.00314
11
9.82303
21
5.0038
0
LINE
8
Black
10
9.82303
20
5.0038
11
18.3694
21
5.0038
0
LINE
8
Black
10
18.3694
20
5.0038
11
18.6291
21
5.05545
0
LINE
8
Black
10
18.6291
20
5.05545
11
18.8428
21
5.19828
0
LINE
8
Black
10
18.8428
20
5.19828
11
18.9857
21
5.41205
0
LINE
8
Black
10
18.9857
20
5.41205
11
19.0358
21
5.6642
0
LINE
8
Black
10
19.0358
20
5.6642
11
18.9857
21
5.91635
0
LINE
8
Black
10
18.9857
20
5.91635
11
18.8428
21
6.13012
0
LINE
8
Black
10
18.8428
20
6.13012
11
18.6291
21
6.27295
0
LINE
8
Black
10
18.6291
20
6.27295
11
18.4259
21
6.31336
0
LINE
8
Black
10
18.4259
20
6.31336
11
18.4204
21
6.31548
0
LINE
8
Black
10
18.4204
20
6.31548
11
18.4147
21
6.31649
0
LINE
8
Black
10
18.4147
20
6.31649
11
18.4082
21
6.32024
0
LINE
8
Black
10
18.4082
20
6.32024
11
18.4012
21
6.32295
0
LINE
8
Black
10
18.4012
20
6.32295
11
18.3968
21
6.32681
0
LINE
8
Black
10
18.3968
20
6.32681
11
18.3918
21
6.32973
0
LINE
8
Black
10
18.3918
20
6.32973
11
18.387
21
6.33546
0
LINE
8
Black
10
18.387
20
6.33546
11
18.3813
21
6.3404
0
LINE
8
Black
10
18.3813
20
6.3404
11
18.3785
21
6.34553
0
LINE
8
Black
10
18.3785
20
6.34553
11
18.3748
21
6.35
0
LINE
8
Black
10
18.3748
20
6.35
11
18.3722
21
6.35704
0
LINE
8
Black
10
18.3722
20
6.35704
11
18.3686
21
6.36361
0
LINE
8
Black
10
18.3686
20
6.36361
11
18.3677
21
6.36938
0
LINE
8
Black
10
18.3677
20
6.36938
11
18.3657
21
6.37487
0
LINE
8
Black
10
18.3657
20
6.37487
11
18.3657
21
6.38236
0
LINE
8
Black
10
18.3657
20
6.38236
11
18.3646
21
6.38976
0
LINE
8
Black
10
18.3646
20
6.38976
11
18.3657
21
6.39549
0
LINE
8
Black
10
18.3657
20
6.39549
11
18.3657
21
6.40133
0
LINE
8
Black
10
18.3657
20
6.40133
11
18.3683
21
6.40837
0
LINE
8
Black
10
18.3683
20
6.40837
11
18.3697
21
6.41572
0
LINE
8
Black
10
18.3697
20
6.41572
11
18.3728
21
6.42071
0
LINE
8
Black
10
18.3728
20
6.42071
11
18.3748
21
6.4262
0
LINE
8
Black
10
18.3748
20
6.4262
11
18.3796
21
6.43194
0
LINE
8
Black
10
18.3796
20
6.43194
11
18.3835
21
6.43834
0
LINE
8
Black
10
18.3835
20
6.43834
11
18.388
21
6.442
0
LINE
8
Black
10
18.388
20
6.442
11
18.3918
21
6.44647
0
LINE
8
Black
10
18.3918
20
6.44647
11
18.3983
21
6.45022
0
LINE
8
Black
10
18.3983
20
6.45022
11
18.4041
21
6.45491
0
LINE
8
Black
10
18.4041
20
6.45491
11
18.4096
21
6.45678
0
LINE
8
Black
10
18.4096
20
6.45678
11
18.4147
21
6.4597
0
LINE
8
Black
10
18.4147
20
6.4597
11
18.4221
21
6.46101
0
LINE
8
Black
10
18.4221
20
6.46101
11
18.4292
21
6.46341
0
LINE
8
Black
10
18.4292
20
6.46341
11
18.435
21
6.46329
0
LINE
8
Black
10
18.435
20
6.46329
11
18.4407
21
6.4643
0
LINE
8
Black
10
18.4407
20
6.4643
11
20.0751
21
6.4643
0
LINE
8
Black
10
20.0751
20
6.4643
11
20.0817
21
6.46314
0
LINE
8
Black
10
20.0817
20
6.46314
11
20.0884
21
6.46314
0
LINE
8
Black
10
20.0884
20
6.46314
11
20.0946
21
6.46086
0
LINE
8
Black
10
20.0946
20
6.46086
11
20.1012
21
6.4597
0
LINE
8
Black
10
20.1012
20
6.4597
11
20.107
21
6.45637
0
LINE
8
Black
10
20.107
20
6.45637
11
20.1132
21
6.45409
0
LINE
8
Black
10
20.1132
20
6.45409
11
20.1183
21
6.44981
0
LINE
8
Black
10
20.1183
20
6.44981
11
20.1241
21
6.44647
0
LINE
8
Black
10
20.1241
20
6.44647
11
20.1284
21
6.44137
0
LINE
8
Black
10
20.1284
20
6.44137
11
20.1335
21
6.43708
0
LINE
8
Black
10
20.1335
20
6.43708
11
20.1368
21
6.43131
0
LINE
8
Black
10
20.1368
20
6.43131
11
20.1411
21
6.4262
0
LINE
8
Black
10
20.1411
20
6.4262
11
20.1434
21
6.41994
0
LINE
8
Black
10
20.1434
20
6.41994
11
20.1467
21
6.41416
0
LINE
8
Black
10
20.1467
20
6.41416
11
20.1479
21
6.40759
0
LINE
8
Black
10
20.1479
20
6.40759
11
20.1502
21
6.40133
0
LINE
8
Black
10
20.1502
20
6.40133
11
20.1502
21
6.39467
0
LINE
8
Black
10
20.1502
20
6.39467
11
20.1513
21
6.3881
0
LINE
8
Black
10
20.1513
20
6.3881
11
20.1513
21
6.10871
0
LINE
8
Black
10
20.1513
20
6.10871
11
20.1632
21
6.0456
0
LINE
8
Black
10
20.1632
20
6.0456
11
20.1969
21
5.99329
0
LINE
8
Black
10
20.1969
20
5.99329
11
20.2478
21
5.95851
0
LINE
8
Black
10
20.2478
20
5.95851
11
20.3158
21
5.94472
0
LINE
8
Black
10
20.3158
20
5.94472
11
20.9011
21
5.94472
0
LINE
8
Black
10
20.9011
20
5.94472
11
20.9642
21
5.9566
0
LINE
8
Black
10
20.9642
20
5.9566
11
21.0165
21
5.99026
0
LINE
8
Black
10
21.0165
20
5.99026
11
21.0513
21
6.04117
0
LINE
8
Black
10
21.0513
20
6.04117
11
21.0651
21
6.10924
0
LINE
8
Black
10
21.0651
20
6.10924
11
21.0651
21
6.79449
0
LINE
8
Black
10
21.0651
20
6.79449
11
21.0532
21
6.8576
0
LINE
8
Black
10
21.0532
20
6.8576
11
21.0195
21
6.90991
0
LINE
8
Black
10
21.0195
20
6.90991
11
20.9686
21
6.94469
0
LINE
8
Black
10
20.9686
20
6.94469
11
20.9006
21
6.95848
0
LINE
8
Black
10
20.9006
20
6.95848
11
20.5084
21
6.95848
0
LINE
8
Black
10
20.5084
20
6.95848
11
20.4994
21
6.96006
0
LINE
8
Black
10
20.4994
20
6.96006
11
20.4903
21
6.96066
0
LINE
8
Black
10
20.4903
20
6.96066
11
20.4864
21
6.96235
0
LINE
8
Black
10
20.4864
20
6.96235
11
20.4823
21
6.96307
0
LINE
8
Black
10
20.4823
20
6.96307
11
20.4744
21
6.96764
0
LINE
8
Black
10
20.4744
20
6.96764
11
20.4661
21
6.97132
0
LINE
8
Black
10
20.4661
20
6.97132
11
20.4224
21
7.00045
0
LINE
8
Black
10
20.4224
20
7.00045
11
20.3086
21
7.0231
0
LINE
8
Black
10
20.3086
20
7.0231
11
17.2792
21
7.0231
0
LINE
8
Black
10
17.2792
20
7.0231
11
17.2759
21
7.02369
0
LINE
8
Black
10
17.2759
20
7.02369
11
17.2725
21
7.0234
0
LINE
8
Black
10
17.2725
20
7.0234
11
17.2629
21
7.02597
0
LINE
8
Black
10
17.2629
20
7.02597
11
17.2532
21
7.02769
0
LINE
8
Black
10
17.2532
20
7.02769
11
17.2502
21
7.02939
0
LINE
8
Black
10
17.2502
20
7.02939
11
17.2469
21
7.03027
0
LINE
8
Black
10
17.2469
20
7.03027
11
17.2388
21
7.03597
0
LINE
8
Black
10
17.2388
20
7.03597
11
17.2302
21
7.04093
0
LINE
8
Black
10
17.2302
20
7.04093
11
17.2281
21
7.04352
0
LINE
8
Black
10
17.2281
20
7.04352
11
17.2253
21
7.04547
0
LINE
8
Black
10
17.2253
20
7.04547
11
17.1613
21
7.10955
0
LINE
8
Black
10
17.1613
20
7.10955
11
17.0027
21
7.17542
0
LINE
8
Black
10
17.0027
20
7.17542
11
16.8309
21
7.17557
0
LINE
8
Black
10
16.8309
20
7.17557
11
16.6721
21
7.10997
0
LINE
8
Black
10
16.6721
20
7.10997
11
16.5506
21
6.98861
0
LINE
8
Black
10
16.5506
20
6.98861
11
16.4847
21
6.82997
0
LINE
8
Black
10
16.4847
20
6.82997
11
16.4845
21
6.65819
0
LINE
8
Black
10
16.4845
20
6.65819
11
16.5501
21
6.49942
0
LINE
8
Black
10
16.5501
20
6.49942
11
16.5948
21
6.45463
0
LINE
8
Black
10
16.5948
20
6.45463
11
16.6005
21
6.4465
0
LINE
8
Black
10
16.6005
20
6.4465
11
16.6069
21
6.4389
0
LINE
8
Black
10
16.6069
20
6.4389
11
16.6081
21
6.43572
0
LINE
8
Black
10
16.6081
20
6.43572
11
16.61
21
6.43294
0
LINE
8
Black
10
16.61
20
6.43294
11
16.6126
21
6.42335
0
LINE
8
Black
10
16.6126
20
6.42335
11
16.6159
21
6.41403
0
LINE
8
Black
10
16.6159
20
6.41403
11
16.6159
21
6.41065
0
LINE
8
Black
10
16.6159
20
6.41065
11
16.6168
21
6.40738
0
LINE
8
Black
10
16.6168
20
6.40738
11
16.6159
21
6.39749
0
LINE
8
Black
10
16.6159
20
6.39749
11
16.6159
21
6.38757
0
LINE
8
Black
10
16.6159
20
6.38757
11
16.6148
21
6.38439
0
LINE
8
Black
10
16.6148
20
6.38439
11
16.6145
21
6.38101
0
LINE
8
Black
10
16.6145
20
6.38101
11
16.6103
21
6.37203
0
LINE
8
Black
10
16.6103
20
6.37203
11
16.6069
21
6.3627
0
LINE
8
Black
10
16.6069
20
6.3627
11
16.6047
21
6.36011
0
LINE
8
Black
10
16.6047
20
6.36011
11
16.6033
21
6.35704
0
LINE
8
Black
10
16.6033
20
6.35704
11
16.5963
21
6.35003
0
LINE
8
Black
10
16.5963
20
6.35003
11
16.5899
21
6.34243
0
LINE
8
Black
10
16.5899
20
6.34243
11
16.587
21
6.34073
0
LINE
8
Black
10
16.587
20
6.34073
11
16.5846
21
6.33834
0
LINE
8
Black
10
16.5846
20
6.33834
11
16.5756
21
6.33416
0
LINE
8
Black
10
16.5756
20
6.33416
11
16.567
21
6.32919
0
LINE
8
Black
10
16.567
20
6.32919
11
16.5636
21
6.32861
0
LINE
8
Black
10
16.5636
20
6.32861
11
16.5606
21
6.32718
0
LINE
8
Black
10
16.5606
20
6.32718
11
16.5507
21
6.32632
0
LINE
8
Black
10
16.5507
20
6.32632
11
16.5409
21
6.3246
0
LINE
8
Black
10
16.5409
20
6.3246
11
6.7004
21
6.3246
0
LINE
8
Black
10
6.7004
20
6.3246
11
6.44075
21
6.27295
0
LINE
8
Black
10
6.44075
20
6.27295
11
6.40555
21
6.24943
0
LINE
8
Black
10
6.40555
20
6.24943
11
6.40554
21
6.24943
0
LINE
8
Black
10
6.40554
20
6.24943
11
6.22062
21
6.12587
0
LINE
8
Black
10
6.22062
20
6.12587
11
5.20343
21
5.10868
0
LINE
8
Black
10
5.20343
20
5.10868
11
5.05635
21
4.88855
0
LINE
8
Black
10
5.05635
20
4.88855
11
5.0047
21
4.62889
0
LINE
8
Black
10
5.0047
20
4.62889
11
5.0047
21
2.0066
0
LINE
8
Black
10
5.0047
20
2.0066
11
5.00354
21
2.00003
0
LINE
8
Black
10
5.00354
20
2.00003
11
5.00354
21
1.99337
0
LINE
8
Black
10
5.00354
20
1.99337
11
5.00126
21
1.98711
0
LINE
8
Black
10
5.00126
20
1.98711
11
5.0001
21
1.98054
0
LINE
8
Black
10
5.0001
20
1.98054
11
4.99677
21
1.97476
0
LINE
8
Black
10
4.99677
20
1.97476
11
4.99449
21
1.9685
0
LINE
8
Black
10
4.99449
20
1.9685
11
4.99021
21
1.96339
0
LINE
8
Black
10
4.99021
20
1.96339
11
4.98687
21
1.95762
0
LINE
8
Black
10
4.98687
20
1.95762
11
4.98177
21
1.95333
0
LINE
8
Black
10
4.98177
20
1.95333
11
4.97748
21
1.94823
0
LINE
8
Black
10
4.97748
20
1.94823
11
4.97171
21
1.94489
0
LINE
8
Black
10
4.97171
20
1.94489
11
4.9666
21
1.94061
0
LINE
8
Black
10
4.9666
20
1.94061
11
4.96034
21
1.93833
0
LINE
8
Black
10
4.96034
20
1.93833
11
4.95456
21
1.935
0
LINE
8
Black
10
4.95456
20
1.935
11
4.94799
21
1.93384
0
LINE
8
Black
10
4.94799
20
1.93384
11
4.94173
21
1.93156
0
LINE
8
Black
10
4.94173
20
1.93156
11
4.93507
21
1.93156
0
LINE
8
Black
10
4.93507
20
1.93156
11
4.9285
21
1.9304
0
LINE
8
Black
10
4.9285
20
1.9304
11
1.27031
21
1.9304
0
LINE
8
Black
10
1.27031
20
1.9304
11
1.26701
21
1.93098
0
LINE
8
Black
10
1.26701
20
1.93098
11
1.26367
21
1.93069
0
LINE
8
Black
10
1.26367
20
1.93069
11
1.25405
21
1.93327
0
LINE
8
Black
10
1.25405
20
1.93327
11
1.24425
21
1.935
0
LINE
8
Black
10
1.24425
20
1.935
11
1.24134
21
1.93667
0
LINE
8
Black
10
1.24134
20
1.93667
11
1.23811
21
1.93754
0
LINE
8
Black
10
1.23811
20
1.93754
11
1.22995
21
1.94325
0
LINE
8
Black
10
1.22995
20
1.94325
11
1.22133
21
1.94823
0
LINE
8
Black
10
1.22133
20
1.94823
11
1.21917
21
1.9508
0
LINE
8
Black
10
1.21917
20
1.9508
11
1.21643
21
1.95272
0
LINE
8
Black
10
1.21643
20
1.95272
11
0.740023
21
2.42912
0
LINE
8
Black
10
0.740023
20
2.42912
11
0.740003
21
2.42915
0
LINE
8
Black
10
0.740003
20
2.42915
11
0.739975
21
2.42917
0
LINE
8
Black
10
0.739975
20
2.42917
11
0.639212
21
2.53011
0
LINE
8
Black
10
0.639212
20
2.53011
11
0.638991
21
2.53025
0
LINE
8
Black
10
0.638991
20
2.53025
11
0.638727
21
2.5306
0
LINE
8
Black
10
0.638727
20
2.5306
11
0.637254
21
2.53207
0
LINE
8
Black
10
0.637254
20
2.53207
11
0.636656
21
2.53249
0
LINE
8
Black
10
0.636656
20
2.53249
11
-3.22888
21
6.39803
0
LINE
8
Black
10
-3.22888
20
6.39803
11
-3.23081
21
6.40078
0
LINE
8
Black
10
-3.23081
20
6.40078
11
-3.23337
21
6.40293
0
LINE
8
Black
10
-3.23337
20
6.40293
11
-3.23835
21
6.41155
0
LINE
8
Black
10
-3.23835
20
6.41155
11
-3.24406
21
6.41971
0
LINE
8
Black
10
-3.24406
20
6.41971
11
-3.24493
21
6.42294
0
LINE
8
Black
10
-3.24493
20
6.42294
11
-3.2466
21
6.42585
0
LINE
8
Black
10
-3.2466
20
6.42585
11
-3.24833
21
6.43565
0
LINE
8
Black
10
-3.24833
20
6.43565
11
-3.25091
21
6.44527
0
LINE
8
Black
10
-3.25091
20
6.44527
11
-3.25062
21
6.44861
0
LINE
8
Black
10
-3.25062
20
6.44861
11
-3.2512
21
6.45191
0
LINE
8
Black
10
-3.2512
20
6.45191
11
-3.2512
21
10.9073
0
LINE
8
Black
10
-3.2512
20
10.9073
11
-3.2512
21
23.6453
0
LINE
8
Black
10
-3.2512
20
23.6453
11
-3.25062
21
23.6486
0
LINE
8
Black
10
-3.25062
20
23.6486
11
-3.25091
21
23.6519
0
LINE
8
Black
10
-3.25091
20
23.6519
11
-3.24833
21
23.6615
0
LINE
8
Black
10
-3.24833
20
23.6615
11
-3.2466
21
23.6713
0
LINE
8
Black
10
-3.2466
20
23.6713
11
-3.24493
21
23.6743
0
LINE
8
Black
10
-3.24493
20
23.6743
11
-3.24406
21
23.6775
0
LINE
8
Black
10
-3.24406
20
23.6775
11
-3.23835
21
23.6856
0
LINE
8
Black
10
-3.23835
20
23.6856
11
-3.23337
21
23.6943
0
LINE
8
Black
10
-3.23337
20
23.6943
11
-3.23081
21
23.6964
0
LINE
8
Black
10
-3.23081
20
23.6964
11
-3.22888
21
23.6992
0
LINE
8
Black
10
-3.22888
20
23.6992
11
-0.508968
21
26.4191
0
LINE
8
Black
10
-0.508968
20
26.4191
11
-0.506221
21
26.421
0
LINE
8
Black
10
-0.506221
20
26.421
11
-0.504066
21
26.4236
0
LINE
8
Black
10
-0.504066
20
26.4236
11
-0.495445
21
26.4285
0
LINE
8
Black
10
-0.495445
20
26.4285
11
-0.48729
21
26.4343
0
LINE
8
Black
10
-0.48729
20
26.4343
11
-0.484051
21
26.4351
0
LINE
8
Black
10
-0.484051
20
26.4351
11
-0.481148
21
26.4368
0
LINE
8
Black
10
-0.481148
20
26.4368
11
-0.471344
21
26.4385
0
LINE
8
Black
10
-0.471344
20
26.4385
11
-0.461728
21
26.4411
0
LINE
8
Black
10
-0.461728
20
26.4411
11
-0.458388
21
26.4408
0
LINE
8
Black
10
-0.458388
20
26.4408
11
-0.455086
21
26.4414
0
LINE
8
Black
10
-0.455086
20
26.4414
11
3.40844
21
26.4414
0
LINE
8
Black
10
3.40844
20
26.4414
11
3.41989
21
26.4394
0
LINE
8
Black
10
3.41989
20
26.4394
11
3.43141
21
26.4379
0
LINE
8
Black
10
3.43141
20
26.4379
11
3.43287
21
26.4371
0
LINE
8
Black
10
3.43287
20
26.4371
11
3.4345
21
26.4368
0
LINE
8
Black
10
3.4345
20
26.4368
11
3.44458
21
26.431
0
LINE
8
Black
10
3.44458
20
26.431
11
3.45488
21
26.4256
0
LINE
8
Black
10
3.45488
20
26.4256
11
3.45599
21
26.4244
0
LINE
8
Black
10
3.45599
20
26.4244
11
3.45742
21
26.4236
0
LINE
8
Black
10
3.45742
20
26.4236
11
3.4649
21
26.4147
0
LINE
8
Black
10
3.4649
20
26.4147
11
3.47274
21
26.4061
0
LINE
8
Black
10
3.47274
20
26.4061
11
3.47337
21
26.4046
0
LINE
8
Black
10
3.47337
20
26.4046
11
3.47443
21
26.4033
0
LINE
8
Black
10
3.47443
20
26.4033
11
3.47841
21
26.3924
0
LINE
8
Black
10
3.47841
20
26.3924
11
3.48285
21
26.3816
0
LINE
8
Black
10
3.48285
20
26.3816
11
3.48292
21
26.38
0
LINE
8
Black
10
3.48292
20
26.38
11
3.48348
21
26.3784
0
LINE
8
Black
10
3.48348
20
26.3784
11
3.48348
21
26.3668
0
LINE
8
Black
10
3.48348
20
26.3668
11
3.48398
21
26.3552
0
LINE
8
Black
10
3.48398
20
26.3552
11
3.48348
21
26.3536
0
LINE
8
Black
10
3.48348
20
26.3536
11
3.48348
21
26.352
0
LINE
8
Black
10
3.48348
20
26.352
11
3.4795
21
26.341
0
LINE
8
Black
10
3.4795
20
26.341
11
3.476
21
26.33
0
LINE
8
Black
10
3.476
20
26.33
11
3.47499
21
26.3286
0
LINE
8
Black
10
3.47499
20
26.3286
11
3.47443
21
26.3271
0
LINE
8
Black
10
3.47443
20
26.3271
11
3.46696
21
26.3182
0
LINE
8
Black
10
3.46696
20
26.3182
11
3.45987
21
26.309
0
LINE
8
Black
10
3.45987
20
26.309
11
3.45848
21
26.3081
0
LINE
8
Black
10
3.45848
20
26.3081
11
3.45742
21
26.3068
0
LINE
8
Black
10
3.45742
20
26.3068
11
3.44735
21
26.301
0
LINE
8
Black
10
3.44735
20
26.301
11
3.43754
21
26.2948
0
LINE
8
Black
10
3.43754
20
26.2948
11
3.38792
21
26.2743
0
LINE
8
Black
10
3.38792
20
26.2743
11
3.26635
21
26.1529
0
LINE
8
Black
10
3.26635
20
26.1529
11
3.20048
21
25.9943
0
LINE
8
Black
10
3.20048
20
25.9943
11
3.20032
21
25.8225
0
LINE
8
Black
10
3.20032
20
25.8225
11
3.26592
21
25.6637
0
LINE
8
Black
10
3.26592
20
25.6637
11
3.33053
21
25.599
0
LINE
8
Black
10
3.33053
20
25.599
11
3.33243
21
25.5963
0
LINE
8
Black
10
3.33243
20
25.5963
11
3.33497
21
25.5942
0
LINE
8
Black
10
3.33497
20
25.5942
11
3.33997
21
25.5855
0
LINE
8
Black
10
3.33997
20
25.5855
11
3.34569
21
25.5773
0
LINE
8
Black
10
3.34569
20
25.5773
11
3.34655
21
25.5741
0
LINE
8
Black
10
3.34655
20
25.5741
11
3.3482
21
25.5712
0
LINE
8
Black
10
3.3482
20
25.5712
11
3.34994
21
25.5614
0
LINE
8
Black
10
3.34994
20
25.5614
11
3.35252
21
25.5517
0
LINE
8
Black
10
3.35252
20
25.5517
11
3.35222
21
25.5484
0
LINE
8
Black
10
3.35222
20
25.5484
11
3.3528
21
25.5452
0
LINE
8
Black
10
3.3528
20
25.5452
11
3.3528
21
25.2043
0
LINE
8
Black
10
3.3528
20
25.2043
11
3.37545
21
25.0905
0
LINE
8
Black
10
3.37545
20
25.0905
11
3.43994
21
24.9939
0
LINE
8
Black
10
3.43994
20
24.9939
11
6.23603
21
22.1978
0
LINE
8
Black
10
6.23603
20
22.1978
11
6.33255
21
22.1333
0
LINE
8
Black
10
6.33255
20
22.1333
11
6.44641
21
22.1107
0
LINE
8
Black
10
6.44641
20
22.1107
11
17.2771
21
22.1107
0
LINE
8
Black
10
17.2771
20
22.1107
11
17.2804
21
22.1101
0
LINE
8
Black
10
17.2804
20
22.1101
11
17.2837
21
22.1104
0
LINE
8
Black
10
17.2837
20
22.1104
11
17.2934
21
22.1078
0
LINE
8
Black
10
17.2934
20
22.1078
11
17.3032
21
22.1061
0
LINE
8
Black
10
17.3032
20
22.1061
11
17.3061
21
22.1044
0
LINE
8
Black
10
17.3061
20
22.1044
11
17.3093
21
22.1036
0
LINE
8
Black
10
17.3093
20
22.1036
11
17.3175
21
22.0978
0
LINE
8
Black
10
17.3175
20
22.0978
11
17.3261
21
22.0929
0
LINE
8
Black
10
17.3261
20
22.0929
11
17.3282
21
22.0903
0
LINE
8
Black
10
17.3282
20
22.0903
11
17.331
21
22.0884
0
LINE
8
Black
10
17.331
20
22.0884
11
18.5536
21
20.8658
0
LINE
8
Black
10
18.5536
20
20.8658
11
18.5555
21
20.863
0
LINE
8
Black
10
18.5555
20
20.863
11
18.5581
21
20.8609
0
LINE
8
Black
10
18.5581
20
20.8609
11
18.563
21
20.8523
0
LINE
8
Black
10
18.563
20
20.8523
11
18.5688
21
20.8441
0
LINE
8
Black
10
18.5688
20
20.8441
11
18.5696
21
20.8409
0
LINE
8
Black
10
18.5696
20
20.8409
11
18.5713
21
20.838
0
LINE
8
Black
10
18.5713
20
20.838
11
18.573
21
20.8282
0
LINE
8
Black
10
18.573
20
20.8282
11
18.5756
21
20.8185
0
LINE
8
Black
10
18.5756
20
20.8185
11
18.5753
21
20.8152
0
LINE
8
Black
10
18.5753
20
20.8152
11
18.5759
21
20.8119
0
LINE
8
Black
10
18.5759
20
20.8119
11
18.5759
21
18.833
0
LINE
8
Black
10
18.5759
20
18.833
11
18.575
21
18.828
0
LINE
8
Black
10
18.575
20
18.828
11
18.5752
21
18.823
0
LINE
8
Black
10
18.5752
20
18.823
11
18.5727
21
18.8151
0
LINE
8
Black
10
18.5727
20
18.8151
11
18.5713
21
18.807
0
LINE
8
Black
10
18.5713
20
18.807
11
18.5688
21
18.8026
0
LINE
8
Black
10
18.5688
20
18.8026
11
18.5673
21
18.7978
0
LINE
8
Black
10
18.5673
20
18.7978
11
18.5622
21
18.7912
0
LINE
8
Black
10
18.5622
20
18.7912
11
18.5581
21
18.784
0
LINE
8
Black
10
18.5581
20
18.784
11
18.5542
21
18.7808
0
LINE
8
Black
10
18.5542
20
18.7808
11
18.5511
21
18.7768
0
LINE
8
Black
10
18.5511
20
18.7768
11
18.5441
21
18.7723
0
LINE
8
Black
10
18.5441
20
18.7723
11
18.5378
21
18.767
0
LINE
8
Black
10
18.5378
20
18.767
11
18.5331
21
18.7653
0
LINE
8
Black
10
18.5331
20
18.7653
11
18.5288
21
18.7626
0
LINE
8
Black
10
18.5288
20
18.7626
11
18.2034
21
18.6281
0
LINE
8
Black
10
18.2034
20
18.6281
11
17.8789
21
18.3042
0
LINE
8
Black
10
17.8789
20
18.3042
11
17.7031
21
17.8808
0
LINE
8
Black
10
17.7031
20
17.8808
11
17.7027
21
17.4224
0
LINE
8
Black
10
17.7027
20
17.4224
11
17.8778
21
16.9987
0
LINE
8
Black
10
17.8778
20
16.9987
11
18.2017
21
16.6742
0
LINE
8
Black
10
18.2017
20
16.6742
11
18.6251
21
16.4984
0
LINE
8
Black
10
18.6251
20
16.4984
11
19.0835
21
16.498
0
LINE
8
Black
10
19.0835
20
16.498
11
19.5072
21
16.6731
0
LINE
8
Black
10
19.5072
20
16.6731
11
19.8317
21
16.997
0
LINE
8
Black
10
19.8317
20
16.997
11
20.0075
21
17.4204
0
LINE
8
Black
10
20.0075
20
17.4204
11
20.0079
21
17.8788
0
LINE
8
Black
10
20.0079
20
17.8788
11
19.8328
21
18.3025
0
LINE
8
Black
10
19.8328
20
18.3025
11
19.5089
21
18.627
0
LINE
8
Black
10
19.5089
20
18.627
11
19.1817
21
18.7629
0
LINE
8
Black
10
19.1817
20
18.7629
11
19.1775
21
18.7656
0
LINE
8
Black
10
19.1775
20
18.7656
11
19.1728
21
18.7673
0
LINE
8
Black
10
19.1728
20
18.7673
11
19.1664
21
18.7726
0
LINE
8
Black
10
19.1664
20
18.7726
11
19.1594
21
18.7771
0
LINE
8
Black
10
19.1594
20
18.7771
11
19.1563
21
18.7811
0
LINE
8
Black
10
19.1563
20
18.7811
11
19.1525
21
18.7843
0
LINE
8
Black
10
19.1525
20
18.7843
11
19.1484
21
18.7915
0
LINE
8
Black
10
19.1484
20
18.7915
11
19.1433
21
18.7981
0
LINE
8
Black
10
19.1433
20
18.7981
11
19.1418
21
18.8029
0
LINE
8
Black
10
19.1418
20
18.8029
11
19.1393
21
18.8072
0
LINE
8
Black
10
19.1393
20
18.8072
11
19.1378
21
18.8154
0
LINE
8
Black
10
19.1378
20
18.8154
11
19.1353
21
18.8234
0
LINE
8
Black
10
19.1353
20
18.8234
11
19.1356
21
18.8283
0
LINE
8
Black
10
19.1356
20
18.8283
11
19.1347
21
18.8333
0
LINE
8
Black
10
19.1347
20
18.8333
11
19.1347
21
19.7047
0
LINE
8
Black
10
19.1347
20
19.7047
11
19.1347
21
21.0152
0
LINE
8
Black
10
19.1347
20
21.0152
11
19.1121
21
21.129
0
LINE
8
Black
10
19.1121
20
21.129
11
19.0518
21
21.2192
0
LINE
8
Black
10
19.0518
20
21.2192
11
18.9616
21
21.2795
0
LINE
8
Black
10
18.9616
20
21.2795
11
18.945
21
21.2828
0
LINE
8
Black
10
18.945
20
21.2828
11
18.9365
21
21.2861
0
LINE
8
Black
10
18.9365
20
21.2861
11
18.9277
21
21.2884
0
LINE
8
Black
10
18.9277
20
21.2884
11
18.9243
21
21.2908
0
LINE
8
Black
10
18.9243
20
21.2908
11
18.9204
21
21.2923
0
LINE
8
Black
10
18.9204
20
21.2923
11
18.9135
21
21.2984
0
LINE
8
Black
10
18.9135
20
21.2984
11
18.906
21
21.3036
0
LINE
8
Black
10
18.906
20
21.3036
11
17.6273
21
22.5824
0
LINE
8
Black
10
17.6273
20
22.5824
11
17.5307
21
22.6469
0
LINE
8
Black
10
17.5307
20
22.6469
11
17.4169
21
22.6695
0
LINE
8
Black
10
17.4169
20
22.6695
11
6.58619
21
22.6695
0
LINE
8
Black
10
6.58619
20
22.6695
11
6.58289
21
22.6701
0
LINE
8
Black
10
6.58289
20
22.6701
11
6.57955
21
22.6698
0
LINE
8
Black
10
6.57955
20
22.6698
11
6.56994
21
22.6724
0
LINE
8
Black
10
6.56994
20
22.6724
11
6.56013
21
22.6741
0
LINE
8
Black
10
6.56013
20
22.6741
11
6.55723
21
22.6758
0
LINE
8
Black
10
6.55723
20
22.6758
11
6.55399
21
22.6766
0
LINE
8
Black
10
6.55399
20
22.6766
11
6.54583
21
22.6824
0
LINE
8
Black
10
6.54583
20
22.6824
11
6.53721
21
22.6873
0
LINE
8
Black
10
6.53721
20
22.6873
11
6.53506
21
22.6899
0
LINE
8
Black
10
6.53506
20
22.6899
11
6.53231
21
22.6918
0
LINE
8
Black
10
6.53231
20
22.6918
11
3.93392
21
25.2902
0
LINE
8
Black
10
3.93392
20
25.2902
11
3.93199
21
25.293
0
LINE
8
Black
10
3.93199
20
25.293
11
3.92943
21
25.2951
0
LINE
8
Black
10
3.92943
20
25.2951
11
3.92445
21
25.3037
0
LINE
8
Black
10
3.92445
20
25.3037
11
3.91874
21
25.3119
0
LINE
8
Black
10
3.91874
20
25.3119
11
3.91787
21
25.3151
0
LINE
8
Black
10
3.91787
20
25.3151
11
3.91619
21
25.318
0
LINE
8
Black
10
3.91619
20
25.318
11
3.91447
21
25.3278
0
LINE
8
Black
10
3.91447
20
25.3278
11
3.91189
21
25.3375
0
LINE
8
Black
10
3.91189
20
25.3375
11
3.91218
21
25.3408
0
LINE
8
Black
10
3.91218
20
25.3408
11
3.9116
21
25.3441
0
LINE
8
Black
10
3.9116
20
25.3441
11
3.9116
21
25.5452
0
LINE
8
Black
10
3.9116
20
25.5452
11
3.91219
21
25.5485
0
LINE
8
Black
10
3.91219
20
25.5485
11
3.9119
21
25.5519
0
LINE
8
Black
10
3.9119
20
25.5519
11
3.91447
21
25.5615
0
LINE
8
Black
10
3.91447
20
25.5615
11
3.91619
21
25.5712
0
LINE
8
Black
10
3.91619
20
25.5712
11
3.91789
21
25.5742
0
LINE
8
Black
10
3.91789
20
25.5742
11
3.91877
21
25.5774
0
LINE
8
Black
10
3.91877
20
25.5774
11
3.92447
21
25.5856
0
LINE
8
Black
10
3.92447
20
25.5856
11
3.92943
21
25.5942
0
LINE
8
Black
10
3.92943
20
25.5942
11
3.93202
21
25.5963
0
LINE
8
Black
10
3.93202
20
25.5963
11
3.93396
21
25.5991
0
LINE
8
Black
10
3.93396
20
25.5991
11
3.99805
21
25.6631
0
LINE
8
Black
10
3.99805
20
25.6631
11
4.06392
21
25.8217
0
LINE
8
Black
10
4.06392
20
25.8217
11
4.06407
21
25.9935
0
LINE
8
Black
10
4.06407
20
25.9935
11
3.99848
21
26.1523
0
LINE
8
Black
10
3.99848
20
26.1523
11
3.87711
21
26.2738
0
LINE
8
Black
10
3.87711
20
26.2738
11
3.82659
21
26.2948
0
LINE
8
Black
10
3.82659
20
26.2948
11
3.81685
21
26.301
0
LINE
8
Black
10
3.81685
20
26.301
11
3.80684
21
26.3068
0
LINE
8
Black
10
3.80684
20
26.3068
11
3.80573
21
26.3081
0
LINE
8
Black
10
3.80573
20
26.3081
11
3.80429
21
26.3091
0
LINE
8
Black
10
3.80429
20
26.3091
11
3.79725
21
26.3183
0
LINE
8
Black
10
3.79725
20
26.3183
11
3.78983
21
26.3271
0
LINE
8
Black
10
3.78983
20
26.3271
11
3.78924
21
26.3287
0
LINE
8
Black
10
3.78924
20
26.3287
11
3.7882
21
26.3301
0
LINE
8
Black
10
3.7882
20
26.3301
11
3.78472
21
26.3411
0
LINE
8
Black
10
3.78472
20
26.3411
11
3.78077
21
26.352
0
LINE
8
Black
10
3.78077
20
26.352
11
3.78077
21
26.3537
0
LINE
8
Black
10
3.78077
20
26.3537
11
3.78026
21
26.3553
0
LINE
8
Black
10
3.78026
20
26.3553
11
3.78077
21
26.3669
0
LINE
8
Black
10
3.78077
20
26.3669
11
3.78077
21
26.3784
0
LINE
8
Black
10
3.78077
20
26.3784
11
3.78136
21
26.38
0
LINE
8
Black
10
3.78136
20
26.38
11
3.78144
21
26.3818
0
LINE
8
Black
10
3.78144
20
26.3818
11
3.78587
21
26.3924
0
LINE
8
Black
10
3.78587
20
26.3924
11
3.78983
21
26.4033
0
LINE
8
Black
10
3.78983
20
26.4033
11
3.79093
21
26.4046
0
LINE
8
Black
10
3.79093
20
26.4046
11
3.79159
21
26.4062
0
LINE
8
Black
10
3.79159
20
26.4062
11
3.7994
21
26.4147
0
LINE
8
Black
10
3.7994
20
26.4147
11
3.80684
21
26.4236
0
LINE
8
Black
10
3.80684
20
26.4236
11
3.80832
21
26.4244
0
LINE
8
Black
10
3.80832
20
26.4244
11
3.80948
21
26.4257
0
LINE
8
Black
10
3.80948
20
26.4257
11
3.81973
21
26.431
0
LINE
8
Black
10
3.81973
20
26.431
11
3.82976
21
26.4368
0
LINE
8
Black
10
3.82976
20
26.4368
11
3.83145
21
26.4371
0
LINE
8
Black
10
3.83145
20
26.4371
11
3.83297
21
26.4379
0
LINE
8
Black
10
3.83297
20
26.4379
11
3.84443
21
26.4394
0
LINE
8
Black
10
3.84443
20
26.4394
11
3.85582
21
26.4414
0
LINE
8
Black
10
3.85582
20
26.4414
11
4.20889
21
26.4414
0
LINE
8
Black
10
4.20889
20
26.4414
11
4.51715
21
26.5027
0
LINE
8
Black
10
4.51715
20
26.5027
11
4.59624
21
26.5556
0
LINE
8
Black
10
4.59624
20
26.5556
11
4.6046
21
26.5592
0
LINE
8
Black
10
4.6046
20
26.5592
11
4.61251
21
26.5638
0
LINE
8
Black
10
4.61251
20
26.5638
11
4.61663
21
26.5645
0
LINE
8
Black
10
4.61663
20
26.5645
11
4.62046
21
26.5662
0
LINE
8
Black
10
4.62046
20
26.5662
11
4.62958
21
26.5668
0
LINE
8
Black
10
4.62958
20
26.5668
11
4.63857
21
26.5684
0
LINE
8
Black
10
4.63857
20
26.5684
11
5.65759
21
26.5684
0
LINE
8
Black
10
5.65759
20
26.5684
11
5.91725
21
26.62
0
LINE
8
Black
10
5.91725
20
26.62
11
5.9964
21
26.6729
0
LINE
8
Black
10
5.9964
20
26.6729
11
5.99831
21
26.6738
0
LINE
8
Black
10
5.99831
20
26.6738
11
5.99988
21
26.6751
0
LINE
8
Black
10
5.99988
20
26.6751
11
6.01037
21
26.6791
0
LINE
8
Black
10
6.01037
20
26.6791
11
6.02063
21
26.6836
0
LINE
8
Black
10
6.02063
20
26.6836
11
6.0208
21
26.6836
0
LINE
8
Black
10
6.0208
20
26.6836
11
6.07341
21
26.7175
0
LINE
8
Black
10
6.07341
20
26.7175
11
6.0738
21
26.718
0
LINE
8
Black
10
6.0738
20
26.718
11
6.0747
21
26.719
0
LINE
8
Black
10
6.0747
20
26.719
11
6.07527
21
26.7201
0
LINE
8
Black
10
6.07527
20
26.7201
11
6.08392
21
26.7284
0
LINE
8
Black
10
6.08392
20
26.7284
11
6.0923
21
26.737
0
LINE
8
Black
10
6.0923
20
26.737
11
6.09346
21
26.7375
0
LINE
8
Black
10
6.09346
20
26.7375
11
6.09438
21
26.7384
0
LINE
8
Black
10
6.09438
20
26.7384
11
6.13102
21
26.7629
0
LINE
8
Black
10
6.13102
20
26.7629
11
6.27385
21
26.9766
0
LINE
8
Black
10
6.27385
20
26.9766
11
6.32401
21
27.2288
0
LINE
8
Black
10
6.32401
20
27.2288
11
6.27385
21
27.481
0
LINE
8
Black
10
6.27385
20
27.481
11
6.13102
21
27.6947
0
LINE
8
Black
10
6.13102
20
27.6947
11
6.13077
21
27.6949
0
LINE
8
Black
10
6.13077
20
27.6949
11
6.12298
21
27.7023
0
LINE
8
Black
10
6.12298
20
27.7023
11
6.11473
21
27.7093
0
LINE
8
Black
10
6.11473
20
27.7093
11
6.11347
21
27.7114
0
LINE
8
Black
10
6.11347
20
27.7114
11
6.11165
21
27.7132
0
LINE
8
Black
10
6.11165
20
27.7132
11
6.10689
21
27.7228
0
LINE
8
Black
10
6.10689
20
27.7228
11
6.10149
21
27.7322
0
LINE
8
Black
10
6.10149
20
27.7322
11
6.10106
21
27.7347
0
LINE
8
Black
10
6.10106
20
27.7347
11
6.09994
21
27.7369
0
LINE
8
Black
10
6.09994
20
27.7369
11
6.09877
21
27.7476
0
LINE
8
Black
10
6.09877
20
27.7476
11
6.0969
21
27.7582
0
LINE
8
Black
10
6.0969
20
27.7582
11
6.0969
21
28.048
0
LINE
8
Black
10
6.0969
20
28.048
11
6.09748
21
28.0513
0
LINE
8
Black
10
6.09748
20
28.0513
11
6.09719
21
28.0546
0
LINE
8
Black
10
6.09719
20
28.0546
11
6.09977
21
28.0642
0
LINE
8
Black
10
6.09977
20
28.0642
11
6.10149
21
28.074
0
LINE
8
Black
10
6.10149
20
28.074
11
6.10317
21
28.0769
0
LINE
8
Black
10
6.10317
20
28.0769
11
6.10404
21
28.0802
0
LINE
8
Black
10
6.10404
20
28.0802
11
6.10975
21
28.0883
0
LINE
8
Black
10
6.10975
20
28.0883
11
6.11473
21
28.097
0
LINE
8
Black
10
6.11473
20
28.097
11
6.1173
21
28.0991
0
LINE
8
Black
10
6.1173
20
28.0991
11
6.11922
21
28.1019
0
LINE
8
Black
10
6.11922
20
28.1019
11
6.74784
21
28.7305
0
LINE
8
Black
10
6.74784
20
28.7305
11
6.75059
21
28.7324
0
LINE
8
Black
10
6.75059
20
28.7324
11
6.75274
21
28.735
0
LINE
8
Black
10
6.75274
20
28.735
11
6.76136
21
28.74
0
LINE
8
Black
10
6.76136
20
28.74
11
6.76952
21
28.7457
0
LINE
8
Black
10
6.76952
20
28.7457
11
6.77276
21
28.7465
0
LINE
8
Black
10
6.77276
20
28.7465
11
6.77566
21
28.7482
0
LINE
8
Black
10
6.77566
20
28.7482
11
6.78546
21
28.7499
0
LINE
8
Black
10
6.78546
20
28.7499
11
6.79508
21
28.7525
0
LINE
8
Black
10
6.79508
20
28.7525
11
6.79842
21
28.7522
0
LINE
8
Black
10
6.79842
20
28.7522
11
6.80172
21
28.7528
0
LINE
8
Black
10
6.80172
20
28.7528
11
11.8546
21
28.7528
0
LINE
8
Black
10
11.8546
20
28.7528
11
11.8579
21
28.7522
0
LINE
8
Black
10
11.8579
20
28.7522
11
11.8612
21
28.7525
0
LINE
8
Black
10
11.8612
20
28.7525
11
11.8708
21
28.7499
0
LINE
8
Black
10
11.8708
20
28.7499
11
11.8806
21
28.7482
0
LINE
8
Black
10
11.8806
20
28.7482
11
11.8835
21
28.7465
0
LINE
8
Black
10
11.8835
20
28.7465
11
11.8868
21
28.7457
0
LINE
8
Black
10
11.8868
20
28.7457
11
11.8949
21
28.74
0
LINE
8
Black
10
11.8949
20
28.74
11
11.9036
21
28.735
0
LINE
8
Black
10
11.9036
20
28.735
11
11.9057
21
28.7324
0
LINE
8
Black
10
11.9057
20
28.7324
11
11.9085
21
28.7305
0
LINE
8
Black
10
11.9085
20
28.7305
11
12.0173
21
28.6217
0
LINE
8
Black
10
12.0173
20
28.6217
11
12.0192
21
28.6189
0
LINE
8
Black
10
12.0192
20
28.6189
11
12.0218
21
28.6168
0
LINE
8
Black
10
12.0218
20
28.6168
11
12.0267
21
28.6081
0
LINE
8
Black
10
12.0267
20
28.6081
11
12.0325
21
28.6
0
LINE
8
Black
10
12.0325
20
28.6
11
12.0333
21
28.5967
0
LINE
8
Black
10
12.0333
20
28.5967
11
12.035
21
28.5938
0
LINE
8
Black
10
12.035
20
28.5938
11
12.0367
21
28.584
0
LINE
8
Black
10
12.0367
20
28.584
11
12.0393
21
28.5744
0
LINE
8
Black
10
12.0393
20
28.5744
11
12.039
21
28.5711
0
LINE
8
Black
10
12.039
20
28.5711
11
12.0396
21
28.5678
0
LINE
8
Black
10
12.0396
20
28.5678
11
12.0396
21
26.7719
0
LINE
8
Black
10
12.0396
20
26.7719
11
12.039
21
26.7686
0
LINE
8
Black
10
12.039
20
26.7686
11
12.0393
21
26.7652
0
LINE
8
Black
10
12.0393
20
26.7652
11
12.0367
21
26.7556
0
LINE
8
Black
10
12.0367
20
26.7556
11
12.035
21
26.7458
0
LINE
8
Black
10
12.035
20
26.7458
11
12.0333
21
26.7429
0
LINE
8
Black
10
12.0333
20
26.7429
11
12.0324
21
26.7396
0
LINE
8
Black
10
12.0324
20
26.7396
11
12.0267
21
26.7315
0
LINE
8
Black
10
12.0267
20
26.7315
11
12.0218
21
26.7229
0
LINE
8
Black
10
12.0218
20
26.7229
11
12.0192
21
26.7207
0
LINE
8
Black
10
12.0192
20
26.7207
11
12.0172
21
26.718
0
LINE
8
Black
10
12.0172
20
26.718
11
11.9119
21
26.6128
0
LINE
8
Black
10
11.9119
20
26.6128
11
11.8111
21
26.3701
0
LINE
8
Black
10
11.8111
20
26.3701
11
11.811
21
26.2833
0
LINE
8
Black
10
11.811
20
26.2833
11
11.8093
21
26.2735
0
LINE
8
Black
10
11.8093
20
26.2735
11
11.8084
21
26.2636
0
LINE
8
Black
10
11.8084
20
26.2636
11
11.807
21
26.2606
0
LINE
8
Black
10
11.807
20
26.2606
11
11.8064
21
26.2573
0
LINE
8
Black
10
11.8064
20
26.2573
11
11.8014
21
26.2486
0
LINE
8
Black
10
11.8014
20
26.2486
11
11.7972
21
26.2396
0
LINE
8
Black
10
11.7972
20
26.2396
11
11.7948
21
26.2372
0
LINE
8
Black
10
11.7948
20
26.2372
11
11.7932
21
26.2343
0
LINE
8
Black
10
11.7932
20
26.2343
11
11.7855
21
26.228
0
LINE
8
Black
10
11.7855
20
26.228
11
11.7785
21
26.2209
0
LINE
8
Black
10
11.7785
20
26.2209
11
11.7755
21
26.2195
0
LINE
8
Black
10
11.7755
20
26.2195
11
11.7729
21
26.2174
0
LINE
8
Black
10
11.7729
20
26.2174
11
11.7635
21
26.214
0
LINE
8
Black
10
11.7635
20
26.214
11
11.7545
21
26.2098
0
LINE
8
Black
10
11.7545
20
26.2098
11
11.7512
21
26.2095
0
LINE
8
Black
10
11.7512
20
26.2095
11
11.748
21
26.2083
0
LINE
8
Black
10
11.748
20
26.2083
11
11.738
21
26.2083
0
LINE
8
Black
10
11.738
20
26.2083
11
11.7281
21
26.2075
0
LINE
8
Black
10
11.7281
20
26.2075
11
11.7249
21
26.2083
0
LINE
8
Black
10
11.7249
20
26.2083
11
11.7215
21
26.2083
0
LINE
8
Black
10
11.7215
20
26.2083
11
11.7122
21
26.2118
0
LINE
8
Black
10
11.7122
20
26.2118
11
11.7026
21
26.2143
0
LINE
8
Black
10
11.7026
20
26.2143
11
11.6998
21
26.2163
0
LINE
8
Black
10
11.6998
20
26.2163
11
11.6967
21
26.2174
0
LINE
8
Black
10
11.6967
20
26.2174
11
11.6891
21
26.2238
0
LINE
8
Black
10
11.6891
20
26.2238
11
11.6809
21
26.2295
0
LINE
8
Black
10
11.6809
20
26.2295
11
11.5606
21
26.35
0
LINE
8
Black
10
11.5606
20
26.35
11
11.402
21
26.4159
0
LINE
8
Black
10
11.402
20
26.4159
11
11.2302
21
26.4161
0
LINE
8
Black
10
11.2302
20
26.4161
11
11.0714
21
26.3505
0
LINE
8
Black
10
11.0714
20
26.3505
11
10.9499
21
26.2291
0
LINE
8
Black
10
10.9499
20
26.2291
11
10.884
21
26.0705
0
LINE
8
Black
10
10.884
20
26.0705
11
10.8838
21
25.8987
0
LINE
8
Black
10
10.8838
20
25.8987
11
10.9494
21
25.7399
0
LINE
8
Black
10
10.9494
20
25.7399
11
11.0708
21
25.6184
0
LINE
8
Black
10
11.0708
20
25.6184
11
11.2294
21
25.5525
0
LINE
8
Black
10
11.2294
20
25.5525
11
11.3209
21
25.5524
0
LINE
8
Black
10
11.3209
20
25.5524
11
11.3241
21
25.5518
0
LINE
8
Black
10
11.3241
20
25.5518
11
11.3275
21
25.5521
0
LINE
8
Black
10
11.3275
20
25.5521
11
11.3371
21
25.5495
0
LINE
8
Black
10
11.3371
20
25.5495
11
11.3469
21
25.5478
0
LINE
8
Black
10
11.3469
20
25.5478
11
11.3498
21
25.5461
0
LINE
8
Black
10
11.3498
20
25.5461
11
11.353
21
25.5453
0
LINE
8
Black
10
11.353
20
25.5453
11
11.3612
21
25.5395
0
LINE
8
Black
10
11.3612
20
25.5395
11
11.3698
21
25.5345
0
LINE
8
Black
10
11.3698
20
25.5345
11
11.372
21
25.532
0
LINE
8
Black
10
11.372
20
25.532
11
11.3747
21
25.5301
0
LINE
8
Black
10
11.3747
20
25.5301
11
12.0653
21
24.8394
0
LINE
8
Black
10
12.0653
20
24.8394
11
12.1618
21
24.7749
0
LINE
8
Black
10
12.1618
20
24.7749
11
12.2757
21
24.7523
0
LINE
8
Black
10
12.2757
20
24.7523
11
13.0735
21
24.7523
0
LINE
8
Black
10
13.0735
20
24.7523
11
13.1873
21
24.7749
0
LINE
8
Black
10
13.1873
20
24.7749
11
13.2839
21
24.8394
0
LINE
8
Black
10
13.2839
20
24.8394
11
13.9464
21
25.5019
0
LINE
8
Black
10
13.9464
20
25.5019
11
14.0109
21
25.5984
0
LINE
8
Black
10
14.0109
20
25.5984
11
14.0335
21
25.7123
0
LINE
8
Black
10
14.0335
20
25.7123
11
14.0335
21
26.5343
0
LINE
8
Black
10
14.0335
20
26.5343
11
14.0335
21
26.7259
0
LINE
8
Black
10
14.0335
20
26.7259
11
14.0341
21
26.7292
0
LINE
8
Black
10
14.0341
20
26.7292
11
14.0338
21
26.7325
0
LINE
8
Black
10
14.0338
20
26.7325
11
14.0364
21
26.7422
0
LINE
8
Black
10
14.0364
20
26.7422
11
14.0381
21
26.752
0
LINE
8
Black
10
14.0381
20
26.752
11
14.0398
21
26.7549
0
LINE
8
Black
10
14.0398
20
26.7549
11
14.0406
21
26.7581
0
LINE
8
Black
10
14.0406
20
26.7581
11
14.0464
21
26.7663
0
LINE
8
Black
10
14.0464
20
26.7663
11
14.0513
21
26.7749
0
LINE
8
Black
10
14.0513
20
26.7749
11
14.0539
21
26.777
0
LINE
8
Black
10
14.0539
20
26.777
11
14.0558
21
26.7798
0
LINE
8
Black
10
14.0558
20
26.7798
11
14.1689
21
26.8929
0
LINE
8
Black
10
14.1689
20
26.8929
11
14.1717
21
26.8948
0
LINE
8
Black
10
14.1717
20
26.8948
11
14.1738
21
26.8974
0
LINE
8
Black
10
14.1738
20
26.8974
11
14.1824
21
26.9023
0
LINE
8
Black
10
14.1824
20
26.9023
11
14.1906
21
26.9081
0
LINE
8
Black
10
14.1906
20
26.9081
11
14.1938
21
26.9089
0
LINE
8
Black
10
14.1938
20
26.9089
11
14.1967
21
26.9106
0
LINE
8
Black
10
14.1967
20
26.9106
11
14.2065
21
26.9123
0
LINE
8
Black
10
14.2065
20
26.9123
11
14.2162
21
26.9149
0
LINE
8
Black
10
14.2162
20
26.9149
11
14.2195
21
26.9146
0
LINE
8
Black
10
14.2195
20
26.9146
11
14.2228
21
26.9152
0
LINE
8
Black
10
14.2228
20
26.9152
11
14.2975
21
26.9152
0
LINE
8
Black
10
14.2975
20
26.9152
11
14.3101
21
26.913
0
LINE
8
Black
10
14.3101
20
26.913
11
14.3227
21
26.9109
0
LINE
8
Black
10
14.3227
20
26.9109
11
14.3231
21
26.9107
0
LINE
8
Black
10
14.3231
20
26.9107
11
14.3235
21
26.9106
0
LINE
8
Black
10
14.3235
20
26.9106
11
14.3347
21
26.9042
0
LINE
8
Black
10
14.3347
20
26.9042
11
14.3458
21
26.8979
0
LINE
8
Black
10
14.3458
20
26.8979
11
14.3461
21
26.8976
0
LINE
8
Black
10
14.3461
20
26.8976
11
14.3465
21
26.8974
0
LINE
8
Black
10
14.3465
20
26.8974
11
14.3547
21
26.8876
0
LINE
8
Black
10
14.3547
20
26.8876
11
14.363
21
26.8779
0
LINE
8
Black
10
14.363
20
26.8779
11
14.3632
21
26.8774
0
LINE
8
Black
10
14.3632
20
26.8774
11
14.3635
21
26.8771
0
LINE
8
Black
10
14.3635
20
26.8771
11
14.3678
21
26.8651
0
LINE
8
Black
10
14.3678
20
26.8651
11
14.3724
21
26.8531
0
LINE
8
Black
10
14.3724
20
26.8531
11
14.3751
21
26.8386
0
LINE
8
Black
10
14.3751
20
26.8386
11
14.4088
21
26.7863
0
LINE
8
Black
10
14.4088
20
26.7863
11
14.4597
21
26.7515
0
LINE
8
Black
10
14.4597
20
26.7515
11
14.5277
21
26.7377
0
LINE
8
Black
10
14.5277
20
26.7377
11
15.013
21
26.7377
0
LINE
8
Black
10
15.013
20
26.7377
11
15.0761
21
26.7496
0
LINE
8
Black
10
15.0761
20
26.7496
11
15.1284
21
26.7833
0
LINE
8
Black
10
15.1284
20
26.7833
11
15.1632
21
26.8342
0
LINE
8
Black
10
15.1632
20
26.8342
11
15.1672
21
26.8541
0
LINE
8
Black
10
15.1672
20
26.8541
11
15.1717
21
26.8656
0
LINE
8
Black
10
15.1717
20
26.8656
11
15.1759
21
26.8771
0
LINE
8
Black
10
15.1759
20
26.8771
11
15.1766
21
26.8778
0
LINE
8
Black
10
15.1766
20
26.8778
11
15.1769
21
26.8788
0
LINE
8
Black
10
15.1769
20
26.8788
11
15.1851
21
26.888
0
LINE
8
Black
10
15.1851
20
26.888
11
15.1929
21
26.8974
0
LINE
8
Black
10
15.1929
20
26.8974
11
15.1938
21
26.8979
0
LINE
8
Black
10
15.1938
20
26.8979
11
15.1944
21
26.8986
0
LINE
8
Black
10
15.1944
20
26.8986
11
15.2052
21
26.9044
0
LINE
8
Black
10
15.2052
20
26.9044
11
15.2159
21
26.9106
0
LINE
8
Black
10
15.2159
20
26.9106
11
15.2168
21
26.9108
0
LINE
8
Black
10
15.2168
20
26.9108
11
15.2177
21
26.9112
0
LINE
8
Black
10
15.2177
20
26.9112
11
15.2298
21
26.9131
0
LINE
8
Black
10
15.2298
20
26.9131
11
15.2419
21
26.9152
0
LINE
8
Black
10
15.2419
20
26.9152
11
15.5829
21
26.9152
0
LINE
8
Black
10
15.5829
20
26.9152
11
15.5923
21
26.9135
0
LINE
8
Black
10
15.5923
20
26.9135
11
15.6018
21
26.9128
0
LINE
8
Black
10
15.6018
20
26.9128
11
15.6052
21
26.9113
0
LINE
8
Black
10
15.6052
20
26.9113
11
15.609
21
26.9106
0
LINE
8
Black
10
15.609
20
26.9106
11
15.6172
21
26.9058
0
LINE
8
Black
10
15.6172
20
26.9058
11
15.6259
21
26.9019
0
LINE
8
Black
10
15.6259
20
26.9019
11
15.6416
21
26.8912
0
LINE
8
Black
10
15.6416
20
26.8912
11
15.7096
21
26.8774
0
LINE
8
Black
10
15.7096
20
26.8774
11
16.2949
21
26.8774
0
LINE
8
Black
10
16.2949
20
26.8774
11
16.358
21
26.8893
0
LINE
8
Black
10
16.358
20
26.8893
11
16.4103
21
26.923
0
LINE
8
Black
10
16.4103
20
26.923
11
16.4451
21
26.9739
0
LINE
8
Black
10
16.4451
20
26.9739
11
16.4589
21
27.0419
0
LINE
8
Black
10
16.4589
20
27.0419
11
16.4589
21
27.4272
0
LINE
8
Black
10
16.4589
20
27.4272
11
16.447
21
27.4903
0
LINE
8
Black
10
16.447
20
27.4903
11
16.4133
21
27.5426
0
LINE
8
Black
10
16.4133
20
27.5426
11
16.3624
21
27.5774
0
LINE
8
Black
10
16.3624
20
27.5774
11
16.2944
21
27.5912
0
LINE
8
Black
10
16.2944
20
27.5912
11
15.7091
21
27.5912
0
LINE
8
Black
10
15.7091
20
27.5912
11
15.646
21
27.5793
0
LINE
8
Black
10
15.646
20
27.5793
11
15.5937
21
27.5456
0
LINE
8
Black
10
15.5937
20
27.5456
11
15.5674
21
27.5072
0
LINE
8
Black
10
15.5674
20
27.5072
11
15.5602
21
27.4998
0
LINE
8
Black
10
15.5602
20
27.4998
11
15.5535
21
27.4918
0
LINE
8
Black
10
15.5535
20
27.4918
11
15.551
21
27.4904
0
LINE
8
Black
10
15.551
20
27.4904
11
15.5489
21
27.4883
0
LINE
8
Black
10
15.5489
20
27.4883
11
15.5396
21
27.4838
0
LINE
8
Black
10
15.5396
20
27.4838
11
15.5306
21
27.4786
0
LINE
8
Black
10
15.5306
20
27.4786
11
15.5277
21
27.4781
0
LINE
8
Black
10
15.5277
20
27.4781
11
15.5251
21
27.4768
0
LINE
8
Black
10
15.5251
20
27.4768
11
15.5147
21
27.4758
0
LINE
8
Black
10
15.5147
20
27.4758
11
15.5045
21
27.474
0
LINE
8
Black
10
15.5045
20
27.474
11
15.2427
21
27.474
0
LINE
8
Black
10
15.2427
20
27.474
11
15.2301
21
27.4762
0
LINE
8
Black
10
15.2301
20
27.4762
11
15.2175
21
27.4783
0
LINE
8
Black
10
15.2175
20
27.4783
11
15.2171
21
27.4785
0
LINE
8
Black
10
15.2171
20
27.4785
11
15.2167
21
27.4786
0
LINE
8
Black
10
15.2167
20
27.4786
11
15.2055
21
27.485
0
LINE
8
Black
10
15.2055
20
27.485
11
15.1944
21
27.4913
0
LINE
8
Black
10
15.1944
20
27.4913
11
15.1941
21
27.4916
0
LINE
8
Black
10
15.1941
20
27.4916
11
15.1937
21
27.4918
0
LINE
8
Black
10
15.1937
20
27.4918
11
15.1855
21
27.5016
0
LINE
8
Black
10
15.1855
20
27.5016
11
15.1772
21
27.5113
0
LINE
8
Black
10
15.1772
20
27.5113
11
15.177
21
27.5118
0
LINE
8
Black
10
15.177
20
27.5118
11
15.1767
21
27.5121
0
LINE
8
Black
10
15.1767
20
27.5121
11
15.1724
21
27.5241
0
LINE
8
Black
10
15.1724
20
27.5241
11
15.1678
21
27.5361
0
LINE
8
Black
10
15.1678
20
27.5361
11
15.1651
21
27.5506
0
LINE
8
Black
10
15.1651
20
27.5506
11
15.1314
21
27.6029
0
LINE
8
Black
10
15.1314
20
27.6029
11
15.0827
21
27.6362
0
LINE
8
Black
10
15.0827
20
27.6362
11
15.0753
21
27.6435
0
LINE
8
Black
10
15.0753
20
27.6435
11
15.0673
21
27.6501
0
LINE
8
Black
10
15.0673
20
27.6501
11
15.0659
21
27.6527
0
LINE
8
Black
10
15.0659
20
27.6527
11
15.0638
21
27.6547
0
LINE
8
Black
10
15.0638
20
27.6547
11
15.0593
21
27.6641
0
LINE
8
Black
10
15.0593
20
27.6641
11
15.0541
21
27.6731
0
LINE
8
Black
10
15.0541
20
27.6731
11
15.0536
21
27.6759
0
LINE
8
Black
10
15.0536
20
27.6759
11
15.0523
21
27.6786
0
LINE
8
Black
10
15.0523
20
27.6786
11
15.0513
21
27.6889
0
LINE
8
Black
10
15.0513
20
27.6889
11
15.0495
21
27.6991
0
LINE
8
Black
10
15.0495
20
27.6991
11
15.0495
21
29.2445
0
LINE
8
Black
10
15.0495
20
29.2445
11
15.0507
21
29.2511
0
LINE
8
Black
10
15.0507
20
29.2511
11
15.0507
21
29.2578
0
LINE
8
Black
10
15.0507
20
29.2578
11
15.0529
21
29.264
0
LINE
8
Black
10
15.0529
20
29.264
11
15.0541
21
29.2706
0
LINE
8
Black
10
15.0541
20
29.2706
11
15.0574
21
29.2764
0
LINE
8
Black
10
15.0574
20
29.2764
11
15.0597
21
29.2826
0
LINE
8
Black
10
15.0597
20
29.2826
11
15.064
21
29.2877
0
LINE
8
Black
10
15.064
20
29.2877
11
15.0673
21
29.2935
0
LINE
8
Black
10
15.0673
20
29.2935
11
15.0724
21
29.2978
0
LINE
8
Black
10
15.0724
20
29.2978
11
15.0767
21
29.3029
0
LINE
8
Black
10
15.0767
20
29.3029
11
15.0825
21
29.3062
0
LINE
8
Black
10
15.0825
20
29.3062
11
15.0876
21
29.3105
0
LINE
8
Black
10
15.0876
20
29.3105
11
15.0939
21
29.3128
0
LINE
8
Black
10
15.0939
20
29.3128
11
15.0996
21
29.3161
0
LINE
8
Black
10
15.0996
20
29.3161
11
15.1062
21
29.3173
0
LINE
8
Black
10
15.1062
20
29.3173
11
15.1125
21
29.3196
0
LINE
8
Black
10
15.1125
20
29.3196
11
15.1191
21
29.3196
0
LINE
8
Black
10
15.1191
20
29.3196
11
15.1257
21
29.3207
0
LINE
8
Black
10
15.1257
20
29.3207
11
15.613
21
29.3207
0
LINE
8
Black
10
15.613
20
29.3207
11
15.6761
21
29.3326
0
LINE
8
Black
10
15.6761
20
29.3326
11
15.7284
21
29.3663
0
LINE
8
Black
10
15.7284
20
29.3663
11
15.7632
21
29.4172
0
LINE
8
Black
10
15.7632
20
29.4172
11
15.777
21
29.4852
0
LINE
8
Black
10
15.777
20
29.4852
11
15.777
21
31.1705
0
LINE
8
Black
10
15.777
20
31.1705
11
15.7651
21
31.2336
0
LINE
8
Black
10
15.7651
20
31.2336
11
15.7314
21
31.2859
0
LINE
8
Black
10
15.7314
20
31.2859
11
15.6805
21
31.3207
0
LINE
8
Black
10
15.6805
20
31.3207
11
15.6125
21
31.3345
0
LINE
8
Black
10
15.6125
20
31.3345
11
13.9272
21
31.3345
0
LINE
8
Black
10
13.9272
20
31.3345
11
13.8641
21
31.3226
0
LINE
8
Black
10
13.8641
20
31.3226
11
13.8118
21
31.2889
0
LINE
8
Black
10
13.8118
20
31.2889
11
13.777
21
31.238
0
LINE
8
Black
10
13.777
20
31.238
11
13.7632
21
31.17
0
LINE
8
Black
10
13.7632
20
31.17
11
13.7632
21
29.4847
0
LINE
8
Black
10
13.7632
20
29.4847
11
13.7751
21
29.4216
0
LINE
8
Black
10
13.7751
20
29.4216
11
13.8088
21
29.3693
0
LINE
8
Black
10
13.8088
20
29.3693
11
13.8597
21
29.3345
0
LINE
8
Black
10
13.8597
20
29.3345
11
13.9277
21
29.3207
0
LINE
8
Black
10
13.9277
20
29.3207
11
14.4145
21
29.3207
0
LINE
8
Black
10
14.4145
20
29.3207
11
14.4211
21
29.3196
0
LINE
8
Black
10
14.4211
20
29.3196
11
14.4277
21
29.3196
0
LINE
8
Black
10
14.4277
20
29.3196
11
14.434
21
29.3173
0
LINE
8
Black
10
14.434
20
29.3173
11
14.4406
21
29.3161
0
LINE
8
Black
10
14.4406
20
29.3161
11
14.4463
21
29.3128
0
LINE
8
Black
10
14.4463
20
29.3128
11
14.4526
21
29.3105
0
LINE
8
Black
10
14.4526
20
29.3105
11
14.4577
21
29.3062
0
LINE
8
Black
10
14.4577
20
29.3062
11
14.4635
21
29.3029
0
LINE
8
Black
10
14.4635
20
29.3029
11
14.4678
21
29.2978
0
LINE
8
Black
10
14.4678
20
29.2978
11
14.4729
21
29.2935
0
LINE
8
Black
10
14.4729
20
29.2935
11
14.4762
21
29.2877
0
LINE
8
Black
10
14.4762
20
29.2877
11
14.4805
21
29.2826
0
LINE
8
Black
10
14.4805
20
29.2826
11
14.4828
21
29.2764
0
LINE
8
Black
10
14.4828
20
29.2764
11
14.4861
21
29.2706
0
LINE
8
Black
10
14.4861
20
29.2706
11
14.4873
21
29.264
0
LINE
8
Black
10
14.4873
20
29.264
11
14.4895
21
29.2578
0
LINE
8
Black
10
14.4895
20
29.2578
11
14.4895
21
29.2511
0
LINE
8
Black
10
14.4895
20
29.2511
11
14.4907
21
29.2445
0
LINE
8
Black
10
14.4907
20
29.2445
11
14.4907
21
27.6983
0
LINE
8
Black
10
14.4907
20
27.6983
11
14.4887
21
27.687
0
LINE
8
Black
10
14.4887
20
27.687
11
14.4873
21
27.6757
0
LINE
8
Black
10
14.4873
20
27.6757
11
14.4864
21
27.6741
0
LINE
8
Black
10
14.4864
20
27.6741
11
14.4861
21
27.6722
0
LINE
8
Black
10
14.4861
20
27.6722
11
14.4804
21
27.6623
0
LINE
8
Black
10
14.4804
20
27.6623
11
14.4752
21
27.6522
0
LINE
8
Black
10
14.4752
20
27.6522
11
14.4738
21
27.6509
0
LINE
8
Black
10
14.4738
20
27.6509
11
14.4729
21
27.6493
0
LINE
8
Black
10
14.4729
20
27.6493
11
14.4641
21
27.642
0
LINE
8
Black
10
14.4641
20
27.642
11
14.4557
21
27.6342
0
LINE
8
Black
10
14.4557
20
27.6342
11
14.4118
21
27.6059
0
LINE
8
Black
10
14.4118
20
27.6059
11
14.377
21
27.555
0
LINE
8
Black
10
14.377
20
27.555
11
14.373
21
27.5351
0
LINE
8
Black
10
14.373
20
27.5351
11
14.3685
21
27.5236
0
LINE
8
Black
10
14.3685
20
27.5236
11
14.3643
21
27.5121
0
LINE
8
Black
10
14.3643
20
27.5121
11
14.3636
21
27.5114
0
LINE
8
Black
10
14.3636
20
27.5114
11
14.3633
21
27.5104
0
LINE
8
Black
10
14.3633
20
27.5104
11
14.3551
21
27.5012
0
LINE
8
Black
10
14.3551
20
27.5012
11
14.3473
21
27.4918
0
LINE
8
Black
10
14.3473
20
27.4918
11
14.3464
21
27.4913
0
LINE
8
Black
10
14.3464
20
27.4913
11
14.3458
21
27.4906
0
LINE
8
Black
10
14.3458
20
27.4906
11
14.335
21
27.4848
0
LINE
8
Black
10
14.335
20
27.4848
11
14.3243
21
27.4786
0
LINE
8
Black
10
14.3243
20
27.4786
11
14.3234
21
27.4784
0
LINE
8
Black
10
14.3234
20
27.4784
11
14.3225
21
27.478
0
LINE
8
Black
10
14.3225
20
27.478
11
14.3104
21
27.4761
0
LINE
8
Black
10
14.3104
20
27.4761
11
14.2983
21
27.474
0
LINE
8
Black
10
14.2983
20
27.474
11
14.083
21
27.474
0
LINE
8
Black
10
14.083
20
27.474
11
13.9691
21
27.4514
0
LINE
8
Black
10
13.9691
20
27.4514
11
13.8726
21
27.3869
0
LINE
8
Black
10
13.8726
20
27.3869
11
13.5618
21
27.0761
0
LINE
8
Black
10
13.5618
20
27.0761
11
13.4973
21
26.9796
0
LINE
8
Black
10
13.4973
20
26.9796
11
13.4747
21
26.8657
0
LINE
8
Black
10
13.4747
20
26.8657
11
13.4747
21
25.8521
0
LINE
8
Black
10
13.4747
20
25.8521
11
13.4741
21
25.8488
0
LINE
8
Black
10
13.4741
20
25.8488
11
13.4744
21
25.8455
0
LINE
8
Black
10
13.4744
20
25.8455
11
13.4718
21
25.8358
0
LINE
8
Black
10
13.4718
20
25.8358
11
13.4701
21
25.826
0
LINE
8
Black
10
13.4701
20
25.826
11
13.4684
21
25.8231
0
LINE
8
Black
10
13.4684
20
25.8231
11
13.4676
21
25.8199
0
LINE
8
Black
10
13.4676
20
25.8199
11
13.4618
21
25.8117
0
LINE
8
Black
10
13.4618
20
25.8117
11
13.4569
21
25.8031
0
LINE
8
Black
10
13.4569
20
25.8031
11
13.4543
21
25.801
0
LINE
8
Black
10
13.4543
20
25.801
11
13.4524
21
25.7982
0
LINE
8
Black
10
13.4524
20
25.7982
11
12.9876
21
25.3334
0
LINE
8
Black
10
12.9876
20
25.3334
11
12.9848
21
25.3315
0
LINE
8
Black
10
12.9848
20
25.3315
11
12.9827
21
25.3289
0
LINE
8
Black
10
12.9827
20
25.3289
11
12.9741
21
25.324
0
LINE
8
Black
10
12.9741
20
25.324
11
12.9659
21
25.3182
0
LINE
8
Black
10
12.9659
20
25.3182
11
12.9627
21
25.3174
0
LINE
8
Black
10
12.9627
20
25.3174
11
12.9598
21
25.3157
0
LINE
8
Black
10
12.9598
20
25.3157
11
12.95
21
25.314
0
LINE
8
Black
10
12.95
20
25.314
11
12.9403
21
25.3114
0
LINE
8
Black
10
12.9403
20
25.3114
11
12.937
21
25.3117
0
LINE
8
Black
10
12.937
20
25.3117
11
12.9337
21
25.3111
0
LINE
8
Black
10
12.9337
20
25.3111
11
12.4155
21
25.3111
0
LINE
8
Black
10
12.4155
20
25.3111
11
12.4122
21
25.3117
0
LINE
8
Black
10
12.4122
20
25.3117
11
12.4089
21
25.3114
0
LINE
8
Black
10
12.4089
20
25.3114
11
12.3992
21
25.314
0
LINE
8
Black
10
12.3992
20
25.314
11
12.3894
21
25.3157
0
LINE
8
Black
10
12.3894
20
25.3157
11
12.3865
21
25.3174
0
LINE
8
Black
10
12.3865
20
25.3174
11
12.3833
21
25.3182
0
LINE
8
Black
10
12.3833
20
25.3182
11
12.3751
21
25.3239
0
LINE
8
Black
10
12.3751
20
25.3239
11
12.3665
21
25.3289
0
LINE
8
Black
10
12.3665
20
25.3289
11
12.3644
21
25.3315
0
LINE
8
Black
10
12.3644
20
25.3315
11
12.3616
21
25.3334
0
LINE
8
Black
10
12.3616
20
25.3334
11
12.2307
21
25.4643
0
LINE
8
Black
10
12.2307
20
25.4643
11
12.2241
21
25.4738
0
LINE
8
Black
10
12.2241
20
25.4738
11
12.217
21
25.4831
0
LINE
8
Black
10
12.217
20
25.4831
11
12.2165
21
25.4846
0
LINE
8
Black
10
12.2165
20
25.4846
11
12.2156
21
25.486
0
LINE
8
Black
10
12.2156
20
25.486
11
12.2125
21
25.4972
0
LINE
8
Black
10
12.2125
20
25.4972
11
12.2091
21
25.5083
0
LINE
8
Black
10
12.2091
20
25.5083
11
12.2091
21
25.5099
0
LINE
8
Black
10
12.2091
20
25.5099
11
12.2087
21
25.5115
0
LINE
8
Black
10
12.2087
20
25.5115
11
12.2097
21
25.5231
0
LINE
8
Black
10
12.2097
20
25.5231
11
12.2102
21
25.5347
0
LINE
8
Black
10
12.2102
20
25.5347
11
12.2109
21
25.5363
0
LINE
8
Black
10
12.2109
20
25.5363
11
12.211
21
25.5379
0
LINE
8
Black
10
12.211
20
25.5379
11
12.2159
21
25.5484
0
LINE
8
Black
10
12.2159
20
25.5484
11
12.2204
21
25.5592
0
LINE
8
Black
10
12.2204
20
25.5592
11
12.2215
21
25.5604
0
LINE
8
Black
10
12.2215
20
25.5604
11
12.2222
21
25.5619
0
LINE
8
Black
10
12.2222
20
25.5619
11
12.2304
21
25.5701
0
LINE
8
Black
10
12.2304
20
25.5701
11
12.2383
21
25.5787
0
LINE
8
Black
10
12.2383
20
25.5787
11
12.2397
21
25.5794
0
LINE
8
Black
10
12.2397
20
25.5794
11
12.2409
21
25.5806
0
LINE
8
Black
10
12.2409
20
25.5806
11
12.2514
21
25.5855
0
LINE
8
Black
10
12.2514
20
25.5855
11
12.2618
21
25.5909
0
LINE
8
Black
10
12.2618
20
25.5909
11
12.2634
21
25.5911
0
LINE
8
Black
10
12.2634
20
25.5911
11
12.2649
21
25.5918
0
LINE
8
Black
10
12.2649
20
25.5918
11
12.2765
21
25.5928
0
LINE
8
Black
10
12.2765
20
25.5928
11
12.288
21
25.5943
0
LINE
8
Black
10
12.288
20
25.5943
11
12.2896
21
25.5939
0
LINE
8
Black
10
12.2896
20
25.5939
11
12.2913
21
25.5941
0
LINE
8
Black
10
12.2913
20
25.5941
11
12.3025
21
25.5911
0
LINE
8
Black
10
12.3025
20
25.5911
11
12.3138
21
25.5886
0
LINE
8
Black
10
12.3138
20
25.5886
11
12.3395
21
25.5779
0
LINE
8
Black
10
12.3395
20
25.5779
11
12.6022
21
25.5777
0
LINE
8
Black
10
12.6022
20
25.5777
11
12.845
21
25.678
0
LINE
8
Black
10
12.845
20
25.678
11
13.0309
21
25.8636
0
LINE
8
Black
10
13.0309
20
25.8636
11
13.1317
21
26.1063
0
LINE
8
Black
10
13.1317
20
26.1063
11
13.1319
21
26.369
0
LINE
8
Black
10
13.1319
20
26.369
11
13.0316
21
26.6118
0
LINE
8
Black
10
13.0316
20
26.6118
11
12.9255
21
26.7181
0
LINE
8
Black
10
12.9255
20
26.7181
11
12.9236
21
26.7208
0
LINE
8
Black
10
12.9236
20
26.7208
11
12.921
21
26.723
0
LINE
8
Black
10
12.921
20
26.723
11
12.916
21
26.7316
0
LINE
8
Black
10
12.916
20
26.7316
11
12.9103
21
26.7398
0
LINE
8
Black
10
12.9103
20
26.7398
11
12.9095
21
26.743
0
LINE
8
Black
10
12.9095
20
26.743
11
12.9078
21
26.7459
0
LINE
8
Black
10
12.9078
20
26.7459
11
12.9061
21
26.7557
0
LINE
8
Black
10
12.9061
20
26.7557
11
12.9035
21
26.7654
0
LINE
8
Black
10
12.9035
20
26.7654
11
12.9038
21
26.7687
0
LINE
8
Black
10
12.9038
20
26.7687
11
12.9032
21
26.7719
0
LINE
8
Black
10
12.9032
20
26.7719
11
12.9032
21
28.7707
0
LINE
8
Black
10
12.9032
20
28.7707
11
12.869
21
28.9429
0
LINE
8
Black
10
12.869
20
28.9429
11
12.7714
21
29.0888
0
LINE
8
Black
10
12.7714
20
29.0888
11
12.3756
21
29.4846
0
LINE
8
Black
10
12.3756
20
29.4846
11
12.2297
21
29.5822
0
LINE
8
Black
10
12.2297
20
29.5822
11
12.0575
21
29.6164
0
LINE
8
Black
10
12.0575
20
29.6164
11
6.59881
21
29.6164
0
LINE
8
Black
10
6.59881
20
29.6164
11
6.42663
21
29.5822
0
LINE
8
Black
10
6.42663
20
29.5822
11
6.28066
21
29.4846
0
LINE
8
Black
10
6.28066
20
29.4846
11
5.36508
21
28.569
0
LINE
8
Black
10
5.36508
20
28.569
11
5.26755
21
28.4231
0
LINE
8
Black
10
5.26755
20
28.4231
11
5.2333
21
28.2509
0
LINE
8
Black
10
5.2333
20
28.2509
11
5.2333
21
27.9654
0
LINE
8
Black
10
5.2333
20
27.9654
11
5.23214
21
27.9588
0
LINE
8
Black
10
5.23214
20
27.9588
11
5.23214
21
27.9522
0
LINE
8
Black
10
5.23214
20
27.9522
11
5.22986
21
27.9459
0
LINE
8
Black
10
5.22986
20
27.9459
11
5.2287
21
27.9393
0
LINE
8
Black
10
5.2287
20
27.9393
11
5.22537
21
27.9336
0
LINE
8
Black
10
5.22537
20
27.9336
11
5.22309
21
27.9273
0
LINE
8
Black
10
5.22309
20
27.9273
11
5.21881
21
27.9222
0
LINE
8
Black
10
5.21881
20
27.9222
11
5.21547
21
27.9164
0
LINE
8
Black
10
5.21547
20
27.9164
11
5.21037
21
27.9121
0
LINE
8
Black
10
5.21037
20
27.9121
11
5.20608
21
27.907
0
LINE
8
Black
10
5.20608
20
27.907
11
5.20031
21
27.9037
0
LINE
8
Black
10
5.20031
20
27.9037
11
5.1952
21
27.8994
0
LINE
8
Black
10
5.1952
20
27.8994
11
5.18894
21
27.8971
0
LINE
8
Black
10
5.18894
20
27.8971
11
5.18316
21
27.8938
0
LINE
8
Black
10
5.18316
20
27.8938
11
5.17659
21
27.8926
0
LINE
8
Black
10
5.17659
20
27.8926
11
5.17033
21
27.8904
0
LINE
8
Black
10
5.17033
20
27.8904
11
5.16367
21
27.8904
0
LINE
8
Black
10
5.16367
20
27.8904
11
5.1571
21
27.8892
0
LINE
8
Black
10
5.1571
20
27.8892
11
4.953
21
27.8892
0
LINE
8
Black
10
4.953
20
27.8892
11
4.94643
21
27.8904
0
LINE
8
Black
10
4.94643
20
27.8904
11
4.93977
21
27.8904
0
LINE
8
Black
10
4.93977
20
27.8904
11
4.93351
21
27.8926
0
LINE
8
Black
10
4.93351
20
27.8926
11
4.92694
21
27.8938
0
LINE
8
Black
10
4.92694
20
27.8938
11
4.92116
21
27.8971
0
LINE
8
Black
10
4.92116
20
27.8971
11
4.9149
21
27.8994
0
LINE
8
Black
10
4.9149
20
27.8994
11
4.90979
21
27.9037
0
LINE
8
Black
10
4.90979
20
27.9037
11
4.90402
21
27.907
0
LINE
8
Black
10
4.90402
20
27.907
11
4.89973
21
27.9121
0
LINE
8
Black
10
4.89973
20
27.9121
11
4.89463
21
27.9164
0
LINE
8
Black
10
4.89463
20
27.9164
11
4.89129
21
27.9222
0
LINE
8
Black
10
4.89129
20
27.9222
11
4.88701
21
27.9273
0
LINE
8
Black
10
4.88701
20
27.9273
11
4.88473
21
27.9336
0
LINE
8
Black
10
4.88473
20
27.9336
11
4.88139
21
27.9393
0
LINE
8
Black
10
4.88139
20
27.9393
11
4.88024
21
27.9459
0
LINE
8
Black
10
4.88024
20
27.9459
11
4.87796
21
27.9522
0
LINE
8
Black
10
4.87796
20
27.9522
11
4.87796
21
27.9588
0
LINE
8
Black
10
4.87796
20
27.9588
11
4.8768
21
27.9654
0
LINE
8
Black
10
4.8768
20
27.9654
11
4.8768
21
29.2445
0
LINE
8
Black
10
4.8768
20
29.2445
11
4.87796
21
29.2511
0
LINE
8
Black
10
4.87796
20
29.2511
11
4.87796
21
29.2578
0
LINE
8
Black
10
4.87796
20
29.2578
11
4.88024
21
29.264
0
LINE
8
Black
10
4.88024
20
29.264
11
4.88139
21
29.2706
0
LINE
8
Black
10
4.88139
20
29.2706
11
4.88473
21
29.2764
0
LINE
8
Black
10
4.88473
20
29.2764
11
4.88701
21
29.2826
0
LINE
8
Black
10
4.88701
20
29.2826
11
4.89129
21
29.2877
0
LINE
8
Black
10
4.89129
20
29.2877
11
4.89463
21
29.2935
0
LINE
8
Black
10
4.89463
20
29.2935
11
4.89973
21
29.2978
0
LINE
8
Black
10
4.89973
20
29.2978
11
4.90402
21
29.3029
0
LINE
8
Black
10
4.90402
20
29.3029
11
4.90979
21
29.3062
0
LINE
8
Black
10
4.90979
20
29.3062
11
4.9149
21
29.3105
0
LINE
8
Black
10
4.9149
20
29.3105
11
4.92116
21
29.3128
0
LINE
8
Black
10
4.92116
20
29.3128
11
4.92694
21
29.3161
0
LINE
8
Black
10
4.92694
20
29.3161
11
4.93351
21
29.3173
0
LINE
8
Black
10
4.93351
20
29.3173
11
4.93977
21
29.3196
0
LINE
8
Black
10
4.93977
20
29.3196
11
4.94643
21
29.3196
0
LINE
8
Black
10
4.94643
20
29.3196
11
4.953
21
29.3207
0
LINE
8
Black
10
4.953
20
29.3207
11
5.21169
21
29.3207
0
LINE
8
Black
10
5.21169
20
29.3207
11
5.2748
21
29.3326
0
LINE
8
Black
10
5.2748
20
29.3326
11
5.32711
21
29.3663
0
LINE
8
Black
10
5.32711
20
29.3663
11
5.36189
21
29.4172
0
LINE
8
Black
10
5.36189
20
29.4172
11
5.37568
21
29.4852
0
LINE
8
Black
10
5.37568
20
29.4852
11
5.37568
21
30.6013
0
LINE
8
Black
10
5.37568
20
30.6013
11
5.37568
21
31.1705
0
LINE
8
Black
10
5.37568
20
31.1705
11
5.3638
21
31.2336
0
LINE
8
Black
10
5.3638
20
31.2336
11
5.33014
21
31.2859
0
LINE
8
Black
10
5.33014
20
31.2859
11
5.27923
21
31.3207
0
LINE
8
Black
10
5.27923
20
31.3207
11
5.21116
21
31.3345
0
LINE
8
Black
10
5.21116
20
31.3345
11
3.52591
21
31.3345
0
LINE
8
Black
10
17.7961
20
3.17594
11
17.5387
21
2.91894
0
LINE
8
Black
10
17.5387
20
2.91894
11
17.3992
21
2.58298
0
LINE
8
Black
10
17.3992
20
2.58298
11
17.3988
21
2.21921
0
LINE
8
Black
10
17.3988
20
2.21921
11
17.5378
21
1.88301
0
LINE
8
Black
10
17.5378
20
1.88301
11
17.7948
21
1.62556
0
LINE
8
Black
10
17.7948
20
1.62556
11
18.1307
21
1.48606
0
LINE
8
Black
10
18.1307
20
1.48606
11
18.4945
21
1.48574
0
LINE
8
Black
10
18.4945
20
1.48574
11
18.8307
21
1.62466
0
LINE
8
Black
10
18.8307
20
1.62466
11
19.0881
21
1.88166
0
LINE
8
Black
10
19.0881
20
1.88166
11
19.2276
21
2.21762
0
LINE
8
Black
10
19.2276
20
2.21762
11
19.228
21
2.58139
0
LINE
8
Black
10
19.228
20
2.58139
11
19.089
21
2.91759
0
LINE
8
Black
10
19.089
20
2.91759
11
18.832
21
3.17504
0
LINE
8
Black
10
18.832
20
3.17504
11
18.4961
21
3.31454
0
LINE
8
Black
10
18.4961
20
3.31454
11
18.1323
21
3.31486
0
LINE
8
Black
10
18.1323
20
3.31486
11
17.7961
21
3.17594
0
LINE
8
Black
10
21.4153
20
6.95848
11
21.3522
21
6.9466
0
LINE
8
Black
10
21.3522
20
6.9466
11
21.2999
21
6.91294
0
LINE
8
Black
10
21.2999
20
6.91294
11
21.2651
21
6.86203
0
LINE
8
Black
10
21.2651
20
6.86203
11
21.2513
21
6.79396
0
LINE
8
Black
10
21.2513
20
6.79396
11
21.2513
21
6.10871
0
LINE
8
Black
10
21.2513
20
6.10871
11
21.2632
21
6.0456
0
LINE
8
Black
10
21.2632
20
6.0456
11
21.2969
21
5.99329
0
LINE
8
Black
10
21.2969
20
5.99329
11
21.3478
21
5.95851
0
LINE
8
Black
10
21.3478
20
5.95851
11
21.3677
21
5.95446
0
LINE
8
Black
10
21.3677
20
5.95446
11
21.3792
21
5.94996
0
LINE
8
Black
10
21.3792
20
5.94996
11
21.3907
21
5.94577
0
LINE
8
Black
10
21.3907
20
5.94577
11
21.3914
21
5.94515
0
LINE
8
Black
10
21.3914
20
5.94515
11
21.3924
21
5.94479
0
LINE
8
Black
10
21.3924
20
5.94479
11
21.4016
21
5.93664
0
LINE
8
Black
10
21.4016
20
5.93664
11
21.411
21
5.92876
0
LINE
8
Black
10
21.411
20
5.92876
11
21.4115
21
5.92792
0
LINE
8
Black
10
21.4115
20
5.92792
11
21.4122
21
5.92727
0
LINE
8
Black
10
21.4122
20
5.92727
11
21.418
21
5.9165
0
LINE
8
Black
10
21.418
20
5.9165
11
21.4242
21
5.90584
0
LINE
8
Black
10
21.4242
20
5.90584
11
21.4244
21
5.90488
0
LINE
8
Black
10
21.4244
20
5.90488
11
21.4248
21
5.90402
0
LINE
8
Black
10
21.4248
20
5.90402
11
21.4267
21
5.89191
0
LINE
8
Black
10
21.4267
20
5.89191
11
21.4288
21
5.87978
0
LINE
8
Black
10
21.4288
20
5.87978
11
21.4288
21
5.77757
0
LINE
8
Black
10
21.4288
20
5.77757
11
21.4271
21
5.76819
0
LINE
8
Black
10
21.4271
20
5.76819
11
21.4264
21
5.75869
0
LINE
8
Black
10
21.4264
20
5.75869
11
21.4249
21
5.75524
0
LINE
8
Black
10
21.4249
20
5.75524
11
21.4242
21
5.75151
0
LINE
8
Black
10
21.4242
20
5.75151
11
21.4194
21
5.74326
0
LINE
8
Black
10
21.4194
20
5.74326
11
21.4155
21
5.73458
0
LINE
8
Black
10
21.4155
20
5.73458
11
21.3794
21
5.68173
0
LINE
8
Black
10
21.3794
20
5.68173
11
21.3656
21
5.61366
0
LINE
8
Black
10
21.3656
20
5.61366
11
21.3656
21
5.02841
0
LINE
8
Black
10
21.3656
20
5.02841
11
21.3775
21
4.9653
0
LINE
8
Black
10
21.3775
20
4.9653
11
21.4112
21
4.91299
0
LINE
8
Black
10
21.4112
20
4.91299
11
21.4621
21
4.87821
0
LINE
8
Black
10
21.4621
20
4.87821
11
21.5301
21
4.86442
0
LINE
8
Black
10
21.5301
20
4.86442
11
21.9154
21
4.86442
0
LINE
8
Black
10
21.9154
20
4.86442
11
21.9785
21
4.8763
0
LINE
8
Black
10
21.9785
20
4.8763
11
22.0308
21
4.90996
0
LINE
8
Black
10
22.0308
20
4.90996
11
22.0656
21
4.96087
0
LINE
8
Black
10
22.0656
20
4.96087
11
22.0794
21
5.02894
0
LINE
8
Black
10
22.0794
20
5.02894
11
22.0794
21
5.61419
0
LINE
8
Black
10
22.0794
20
5.61419
11
22.0675
21
5.6773
0
LINE
8
Black
10
22.0675
20
5.6773
11
22.0338
21
5.72961
0
LINE
8
Black
10
22.0338
20
5.72961
11
22.0208
21
5.73851
0
LINE
8
Black
10
22.0208
20
5.73851
11
22.0134
21
5.74577
0
LINE
8
Black
10
22.0134
20
5.74577
11
22.0054
21
5.75245
0
LINE
8
Black
10
22.0054
20
5.75245
11
22.004
21
5.75497
0
LINE
8
Black
10
22.004
20
5.75497
11
22.0019
21
5.75701
0
LINE
8
Black
10
22.0019
20
5.75701
11
21.9974
21
5.76637
0
LINE
8
Black
10
21.9974
20
5.76637
11
21.9922
21
5.77536
0
LINE
8
Black
10
21.9922
20
5.77536
11
21.9917
21
5.77823
0
LINE
8
Black
10
21.9917
20
5.77823
11
21.9904
21
5.78086
0
LINE
8
Black
10
21.9904
20
5.78086
11
21.9894
21
5.7912
0
LINE
8
Black
10
21.9894
20
5.7912
11
21.9876
21
5.80143
0
LINE
8
Black
10
21.9876
20
5.80143
11
21.9876
21
5.87898
0
LINE
8
Black
10
21.9876
20
5.87898
11
21.9898
21
5.89162
0
LINE
8
Black
10
21.9898
20
5.89162
11
21.9919
21
5.90422
0
LINE
8
Black
10
21.9919
20
5.90422
11
21.9921
21
5.90461
0
LINE
8
Black
10
21.9921
20
5.90461
11
21.9922
21
5.90505
0
LINE
8
Black
10
21.9922
20
5.90505
11
21.9986
21
5.91619
0
LINE
8
Black
10
21.9986
20
5.91619
11
22.0049
21
5.92729
0
LINE
8
Black
10
22.0049
20
5.92729
11
22.0052
21
5.92758
0
LINE
8
Black
10
22.0052
20
5.92758
11
22.0054
21
5.92796
0
LINE
8
Black
10
22.0054
20
5.92796
11
22.0152
21
5.93619
0
LINE
8
Black
10
22.0152
20
5.93619
11
22.0249
21
5.94454
0
LINE
8
Black
10
22.0249
20
5.94454
11
22.0254
21
5.94469
0
LINE
8
Black
10
22.0254
20
5.94469
11
22.0257
21
5.94497
0
LINE
8
Black
10
22.0257
20
5.94497
11
22.0377
21
5.94934
0
LINE
8
Black
10
22.0377
20
5.94934
11
22.0497
21
5.95387
0
LINE
8
Black
10
22.0497
20
5.95387
11
22.0642
21
5.9566
0
LINE
8
Black
10
22.0642
20
5.9566
11
22.1165
21
5.99026
0
LINE
8
Black
10
22.1165
20
5.99026
11
22.1513
21
6.04117
0
LINE
8
Black
10
22.1513
20
6.04117
11
22.1651
21
6.10924
0
LINE
8
Black
10
22.1651
20
6.10924
11
22.1651
21
6.79449
0
LINE
8
Black
10
22.1651
20
6.79449
11
22.1532
21
6.8576
0
LINE
8
Black
10
22.1532
20
6.8576
11
22.1195
21
6.90991
0
LINE
8
Black
10
22.1195
20
6.90991
11
22.0686
21
6.94469
0
LINE
8
Black
10
22.0686
20
6.94469
11
22.0006
21
6.95848
0
LINE
8
Black
10
22.0006
20
6.95848
11
21.4153
21
6.95848
0
LINE
8
Black
10
18.2034
20
12.1281
11
17.8789
21
11.8042
0
LINE
8
Black
10
17.8789
20
11.8042
11
17.7031
21
11.3808
0
LINE
8
Black
10
17.7031
20
11.3808
11
17.7027
21
10.9224
0
LINE
8
Black
10
17.7027
20
10.9224
11
17.8778
21
10.4987
0
LINE
8
Black
10
17.8778
20
10.4987
11
18.2017
21
10.1742
0
LINE
8
Black
10
18.2017
20
10.1742
11
18.6251
21
9.9984
0
LINE
8
Black
10
18.6251
20
9.9984
11
19.0835
21
9.998
0
LINE
8
Black
10
19.0835
20
9.998
11
19.5072
21
10.1731
0
LINE
8
Black
10
19.5072
20
10.1731
11
19.8317
21
10.497
0
LINE
8
Black
10
19.8317
20
10.497
11
20.0075
21
10.9204
0
LINE
8
Black
10
20.0075
20
10.9204
11
20.0079
21
11.3788
0
LINE
8
Black
10
20.0079
20
11.3788
11
19.8328
21
11.8025
0
LINE
8
Black
10
19.8328
20
11.8025
11
19.5089
21
12.127
0
LINE
8
Black
10
19.5089
20
12.127
11
19.0855
21
12.3028
0
LINE
8
Black
10
19.0855
20
12.3028
11
18.6271
21
12.3032
0
LINE
8
Black
10
18.6271
20
12.3032
11
18.2034
21
12.1281
0
LINE
8
Black
10
22.7034
20
12.1281
11
22.3789
21
11.8042
0
LINE
8
Black
10
22.3789
20
11.8042
11
22.2031
21
11.3808
0
LINE
8
Black
10
22.2031
20
11.3808
11
22.2027
21
10.9224
0
LINE
8
Black
10
22.2027
20
10.9224
11
22.3778
21
10.4987
0
LINE
8
Black
10
22.3778
20
10.4987
11
22.7017
21
10.1742
0
LINE
8
Black
10
22.7017
20
10.1742
11
23.1251
21
9.9984
0
LINE
8
Black
10
23.1251
20
9.9984
11
23.5835
21
9.998
0
LINE
8
Black
10
23.5835
20
9.998
11
24.0072
21
10.1731
0
LINE
8
Black
10
24.0072
20
10.1731
11
24.3317
21
10.497
0
LINE
8
Black
10
24.3317
20
10.497
11
24.5075
21
10.9204
0
LINE
8
Black
10
24.5075
20
10.9204
11
24.5079
21
11.3788
0
LINE
8
Black
10
24.5079
20
11.3788
11
24.3328
21
11.8025
0
LINE
8
Black
10
24.3328
20
11.8025
11
24.0089
21
12.127
0
LINE
8
Black
10
24.0089
20
12.127
11
23.5855
21
12.3028
0
LINE
8
Black
10
23.5855
20
12.3028
11
23.1271
21
12.3032
0
LINE
8
Black
10
23.1271
20
12.3032
11
22.7034
21
12.1281
0
LINE
8
Black
10
22.7034
20
18.6281
11
22.3789
21
18.3042
0
LINE
8
Black
10
22.3789
20
18.3042
11
22.2031
21
17.8808
0
LINE
8
Black
10
22.2031
20
17.8808
11
22.2027
21
17.4224
0
LINE
8
Black
10
22.2027
20
17.4224
11
22.3778
21
16.9987
0
LINE
8
Black
10
22.3778
20
16.9987
11
22.7017
21
16.6742
0
LINE
8
Black
10
22.7017
20
16.6742
11
23.1251
21
16.4984
0
LINE
8
Black
10
23.1251
20
16.4984
11
23.5835
21
16.498
0
LINE
8
Black
10
23.5835
20
16.498
11
24.0072
21
16.6731
0
LINE
8
Black
10
24.0072
20
16.6731
11
24.3317
21
16.997
0
LINE
8
Black
10
24.3317
20
16.997
11
24.5075
21
17.4204
0
LINE
8
Black
10
24.5075
20
17.4204
11
24.5079
21
17.8788
0
LINE
8
Black
10
24.5079
20
17.8788
11
24.3328
21
18.3025
0
LINE
8
Black
10
24.3328
20
18.3025
11
24.0089
21
18.627
0
LINE
8
Black
10
24.0089
20
18.627
11
23.5855
21
18.8028
0
LINE
8
Black
10
23.5855
20
18.8028
11
23.1271
21
18.8032
0
LINE
8
Black
10
23.1271
20
18.8032
11
22.7034
21
18.6281
0
LINE
8
Black
10
26.7877
20
20.6765
11
26.5303
21
20.4195
0
LINE
8
Black
10
26.5303
20
20.4195
11
26.3908
21
20.0836
0
LINE
8
Black
10
26.3908
20
20.0836
11
26.3904
21
19.7198
0
LINE
8
Black
10
26.3904
20
19.7198
11
26.5294
21
19.3836
0
LINE
8
Black
10
26.5294
20
19.3836
11
26.7864
21
19.1262
0
LINE
8
Black
10
26.7864
20
19.1262
11
27.1223
21
18.9867
0
LINE
8
Black
10
27.1223
20
18.9867
11
27.4861
21
18.9863
0
LINE
8
Black
10
27.4861
20
18.9863
11
27.8223
21
19.1253
0
LINE
8
Black
10
27.8223
20
19.1253
11
28.0797
21
19.3823
0
LINE
8
Black
10
28.0797
20
19.3823
11
28.2192
21
19.7182
0
LINE
8
Black
10
28.2192
20
19.7182
11
28.2196
21
20.082
0
LINE
8
Black
10
28.2196
20
20.082
11
28.0806
21
20.4182
0
LINE
8
Black
10
28.0806
20
20.4182
11
27.8236
21
20.6756
0
LINE
8
Black
10
27.8236
20
20.6756
11
27.4877
21
20.8151
0
LINE
8
Black
10
27.4877
20
20.8151
11
27.1239
21
20.8155
0
LINE
8
Black
10
27.1239
20
20.8155
11
26.7877
21
20.6765
0
LINE
8
Black
10
7.97661
20
28.2266
11
7.9135
21
28.2147
0
LINE
8
Black
10
7.9135
20
28.2147
11
7.86119
21
28.181
0
LINE
8
Black
10
7.86119
20
28.181
11
7.82641
21
28.1301
0
LINE
8
Black
10
7.82641
20
28.1301
11
7.81262
21
28.0621
0
LINE
8
Black
10
7.81262
20
28.0621
11
7.81262
21
27.9654
0
LINE
8
Black
10
7.81262
20
27.9654
11
7.81146
21
27.9588
0
LINE
8
Black
10
7.81146
20
27.9588
11
7.81146
21
27.9522
0
LINE
8
Black
10
7.81146
20
27.9522
11
7.80918
21
27.9459
0
LINE
8
Black
10
7.80918
20
27.9459
11
7.80803
21
27.9393
0
LINE
8
Black
10
7.80803
20
27.9393
11
7.80469
21
27.9336
0
LINE
8
Black
10
7.80469
20
27.9336
11
7.80241
21
27.9273
0
LINE
8
Black
10
7.80241
20
27.9273
11
7.79813
21
27.9222
0
LINE
8
Black
10
7.79813
20
27.9222
11
7.79479
21
27.9164
0
LINE
8
Black
10
7.79479
20
27.9164
11
7.78969
21
27.9121
0
LINE
8
Black
10
7.78969
20
27.9121
11
7.7854
21
27.907
0
LINE
8
Black
10
7.7854
20
27.907
11
7.77963
21
27.9037
0
LINE
8
Black
10
7.77963
20
27.9037
11
7.77452
21
27.8994
0
LINE
8
Black
10
7.77452
20
27.8994
11
7.76826
21
27.8971
0
LINE
8
Black
10
7.76826
20
27.8971
11
7.76248
21
27.8938
0
LINE
8
Black
10
7.76248
20
27.8938
11
7.75591
21
27.8926
0
LINE
8
Black
10
7.75591
20
27.8926
11
7.74965
21
27.8904
0
LINE
8
Black
10
7.74965
20
27.8904
11
7.74299
21
27.8904
0
LINE
8
Black
10
7.74299
20
27.8904
11
7.73642
21
27.8892
0
LINE
8
Black
10
7.73642
20
27.8892
11
7.37261
21
27.8892
0
LINE
8
Black
10
7.37261
20
27.8892
11
7.11295
21
27.8376
0
LINE
8
Black
10
7.11295
20
27.8376
11
7.03379
21
27.7847
0
LINE
8
Black
10
7.03379
20
27.7847
11
7.03189
21
27.7838
0
LINE
8
Black
10
7.03189
20
27.7838
11
7.03031
21
27.7825
0
LINE
8
Black
10
7.03031
20
27.7825
11
7.01983
21
27.7785
0
LINE
8
Black
10
7.01983
20
27.7785
11
7.00957
21
27.774
0
LINE
8
Black
10
7.00957
20
27.774
11
7.0094
21
27.774
0
LINE
8
Black
10
7.0094
20
27.774
11
6.95679
21
27.7401
0
LINE
8
Black
10
6.95679
20
27.7401
11
6.9564
21
27.7396
0
LINE
8
Black
10
6.9564
20
27.7396
11
6.9555
21
27.7386
0
LINE
8
Black
10
6.9555
20
27.7386
11
6.95493
21
27.7375
0
LINE
8
Black
10
6.95493
20
27.7375
11
6.94627
21
27.7292
0
LINE
8
Black
10
6.94627
20
27.7292
11
6.9379
21
27.7206
0
LINE
8
Black
10
6.9379
20
27.7206
11
6.93674
21
27.7201
0
LINE
8
Black
10
6.93674
20
27.7201
11
6.93582
21
27.7192
0
LINE
8
Black
10
6.93582
20
27.7192
11
6.89918
21
27.6947
0
LINE
8
Black
10
6.89918
20
27.6947
11
6.75635
21
27.481
0
LINE
8
Black
10
6.75635
20
27.481
11
6.70619
21
27.2288
0
LINE
8
Black
10
6.70619
20
27.2288
11
6.75635
21
26.9766
0
LINE
8
Black
10
6.75635
20
26.9766
11
6.89918
21
26.7629
0
LINE
8
Black
10
6.89918
20
26.7629
11
6.9339
21
26.7397
0
LINE
8
Black
10
6.9339
20
26.7397
11
6.93559
21
26.7381
0
LINE
8
Black
10
6.93559
20
26.7381
11
6.93768
21
26.737
0
LINE
8
Black
10
6.93768
20
26.737
11
6.94511
21
26.729
0
LINE
8
Black
10
6.94511
20
26.729
11
6.95301
21
26.7214
0
LINE
8
Black
10
6.95301
20
26.7214
11
6.9533
21
26.7208
0
LINE
8
Black
10
6.9533
20
26.7208
11
7.0049
21
26.6855
0
LINE
8
Black
10
7.0049
20
26.6855
11
7.00576
21
26.6852
0
LINE
8
Black
10
7.00576
20
26.6852
11
7.0073
21
26.6851
0
LINE
8
Black
10
7.0073
20
26.6851
11
7.01803
21
26.6804
0
LINE
8
Black
10
7.01803
20
26.6804
11
7.02895
21
26.6761
0
LINE
8
Black
10
7.02895
20
26.6761
11
7.03011
21
26.6751
0
LINE
8
Black
10
7.03011
20
26.6751
11
7.03153
21
26.6745
0
LINE
8
Black
10
7.03153
20
26.6745
11
7.11295
21
26.62
0
LINE
8
Black
10
7.11295
20
26.62
11
7.14499
21
26.6137
0
LINE
8
Black
10
7.14499
20
26.6137
11
7.15616
21
26.6093
0
LINE
8
Black
10
7.15616
20
26.6093
11
7.16746
21
26.6054
0
LINE
8
Black
10
7.16746
20
26.6054
11
7.16845
21
26.6046
0
LINE
8
Black
10
7.16845
20
26.6046
11
7.16965
21
26.6041
0
LINE
8
Black
10
7.16965
20
26.6041
11
7.17868
21
26.5962
0
LINE
8
Black
10
7.17868
20
26.5962
11
7.18793
21
26.5886
0
LINE
8
Black
10
7.18793
20
26.5886
11
7.18858
21
26.5875
0
LINE
8
Black
10
7.18858
20
26.5875
11
7.18955
21
26.5866
0
LINE
8
Black
10
7.18955
20
26.5866
11
7.19532
21
26.5761
0
LINE
8
Black
10
7.19532
20
26.5761
11
7.20142
21
26.5658
0
LINE
8
Black
10
7.20142
20
26.5658
11
7.20166
21
26.5646
0
LINE
8
Black
10
7.20166
20
26.5646
11
7.20228
21
26.5634
0
LINE
8
Black
10
7.20228
20
26.5634
11
7.20411
21
26.5516
0
LINE
8
Black
10
7.20411
20
26.5516
11
7.20632
21
26.5398
0
LINE
8
Black
10
7.20632
20
26.5398
11
7.20611
21
26.5385
0
LINE
8
Black
10
7.20611
20
26.5385
11
7.2063
21
26.5373
0
LINE
8
Black
10
7.2063
20
26.5373
11
7.20396
21
26.5255
0
LINE
8
Black
10
7.20396
20
26.5255
11
7.20202
21
26.5137
0
LINE
8
Black
10
7.20202
20
26.5137
11
7.20139
21
26.5126
0
LINE
8
Black
10
7.20139
20
26.5126
11
7.20114
21
26.5113
0
LINE
8
Black
10
7.20114
20
26.5113
11
7.19492
21
26.5011
0
LINE
8
Black
10
7.19492
20
26.5011
11
7.18905
21
26.4906
0
LINE
8
Black
10
7.18905
20
26.4906
11
7.18808
21
26.4898
0
LINE
8
Black
10
7.18808
20
26.4898
11
7.18741
21
26.4887
0
LINE
8
Black
10
7.18741
20
26.4887
11
7.17806
21
26.4812
0
LINE
8
Black
10
7.17806
20
26.4812
11
7.16898
21
26.4734
0
LINE
8
Black
10
7.16898
20
26.4734
11
7.16777
21
26.4729
0
LINE
8
Black
10
7.16777
20
26.4729
11
7.16677
21
26.4721
0
LINE
8
Black
10
7.16677
20
26.4721
11
7.15541
21
26.4683
0
LINE
8
Black
10
7.15541
20
26.4683
11
7.14421
21
26.4641
0
LINE
8
Black
10
7.14421
20
26.4641
11
7.1195
21
26.4594
0
LINE
8
Black
10
7.1195
20
26.4594
11
7.06719
21
26.4257
0
LINE
8
Black
10
7.06719
20
26.4257
11
7.03241
21
26.3748
0
LINE
8
Black
10
7.03241
20
26.3748
11
7.01862
21
26.3068
0
LINE
8
Black
10
7.01862
20
26.3068
11
7.01862
21
23.7815
0
LINE
8
Black
10
7.01862
20
23.7815
11
7.0305
21
23.7184
0
LINE
8
Black
10
7.0305
20
23.7184
11
7.06416
21
23.6661
0
LINE
8
Black
10
7.06416
20
23.6661
11
7.11507
21
23.6313
0
LINE
8
Black
10
7.11507
20
23.6313
11
7.18314
21
23.6175
0
LINE
8
Black
10
7.18314
20
23.6175
11
9.70839
21
23.6175
0
LINE
8
Black
10
9.70839
20
23.6175
11
9.7715
21
23.6294
0
LINE
8
Black
10
9.7715
20
23.6294
11
9.82381
21
23.6631
0
LINE
8
Black
10
9.82381
20
23.6631
11
9.85859
21
23.714
0
LINE
8
Black
10
9.85859
20
23.714
11
9.87238
21
23.782
0
LINE
8
Black
10
9.87238
20
23.782
11
9.87238
21
26.3073
0
LINE
8
Black
10
9.87238
20
26.3073
11
9.8605
21
26.3704
0
LINE
8
Black
10
9.8605
20
26.3704
11
9.82684
21
26.4227
0
LINE
8
Black
10
9.82684
20
26.4227
11
9.77593
21
26.4575
0
LINE
8
Black
10
9.77593
20
26.4575
11
9.70786
21
26.4713
0
LINE
8
Black
10
9.70786
20
26.4713
11
9.1821
21
26.4713
0
LINE
8
Black
10
9.1821
20
26.4713
11
9.17553
21
26.4724
0
LINE
8
Black
10
9.17553
20
26.4724
11
9.16887
21
26.4724
0
LINE
8
Black
10
9.16887
20
26.4724
11
9.16261
21
26.4747
0
LINE
8
Black
10
9.16261
20
26.4747
11
9.15604
21
26.4759
0
LINE
8
Black
10
9.15604
20
26.4759
11
9.15026
21
26.4792
0
LINE
8
Black
10
9.15026
20
26.4792
11
9.144
21
26.4815
0
LINE
8
Black
10
9.144
20
26.4815
11
9.13889
21
26.4858
0
LINE
8
Black
10
9.13889
20
26.4858
11
9.13312
21
26.4891
0
LINE
8
Black
10
9.13312
20
26.4891
11
9.12883
21
26.4942
0
LINE
8
Black
10
9.12883
20
26.4942
11
9.12373
21
26.4985
0
LINE
8
Black
10
9.12373
20
26.4985
11
9.12039
21
26.5043
0
LINE
8
Black
10
9.12039
20
26.5043
11
9.11611
21
26.5094
0
LINE
8
Black
10
9.11611
20
26.5094
11
9.11383
21
26.5156
0
LINE
8
Black
10
9.11383
20
26.5156
11
9.1105
21
26.5214
0
LINE
8
Black
10
9.1105
20
26.5214
11
9.10934
21
26.528
0
LINE
8
Black
10
9.10934
20
26.528
11
9.10706
21
26.5342
0
LINE
8
Black
10
9.10706
20
26.5342
11
9.10706
21
26.5409
0
LINE
8
Black
10
9.10706
20
26.5409
11
9.1059
21
26.5475
0
LINE
8
Black
10
9.1059
20
26.5475
11
9.1059
21
26.5866
0
LINE
8
Black
10
9.1059
20
26.5866
11
9.10706
21
26.5932
0
LINE
8
Black
10
9.10706
20
26.5932
11
9.10706
21
26.5999
0
LINE
8
Black
10
9.10706
20
26.5999
11
9.10934
21
26.6061
0
LINE
8
Black
10
9.10934
20
26.6061
11
9.1105
21
26.6127
0
LINE
8
Black
10
9.1105
20
26.6127
11
9.11383
21
26.6185
0
LINE
8
Black
10
9.11383
20
26.6185
11
9.11611
21
26.6247
0
LINE
8
Black
10
9.11611
20
26.6247
11
9.12039
21
26.6298
0
LINE
8
Black
10
9.12039
20
26.6298
11
9.12373
21
26.6356
0
LINE
8
Black
10
9.12373
20
26.6356
11
9.12883
21
26.6399
0
LINE
8
Black
10
9.12883
20
26.6399
11
9.13312
21
26.645
0
LINE
8
Black
10
9.13312
20
26.645
11
9.13889
21
26.6483
0
LINE
8
Black
10
9.13889
20
26.6483
11
9.144
21
26.6526
0
LINE
8
Black
10
9.144
20
26.6526
11
9.15026
21
26.6549
0
LINE
8
Black
10
9.15026
20
26.6549
11
9.15604
21
26.6582
0
LINE
8
Black
10
9.15604
20
26.6582
11
9.16261
21
26.6594
0
LINE
8
Black
10
9.16261
20
26.6594
11
9.16887
21
26.6617
0
LINE
8
Black
10
9.16887
20
26.6617
11
9.17553
21
26.6617
0
LINE
8
Black
10
9.17553
20
26.6617
11
9.1821
21
26.6628
0
LINE
8
Black
10
9.1821
20
26.6628
11
9.46239
21
26.6628
0
LINE
8
Black
10
9.46239
20
26.6628
11
9.5255
21
26.6747
0
LINE
8
Black
10
9.5255
20
26.6747
11
9.57781
21
26.7084
0
LINE
8
Black
10
9.57781
20
26.7084
11
9.61259
21
26.7593
0
LINE
8
Black
10
9.61259
20
26.7593
11
9.62638
21
26.8273
0
LINE
8
Black
10
9.62638
20
26.8273
11
9.62638
21
28.0626
0
LINE
8
Black
10
9.62638
20
28.0626
11
9.6145
21
28.1257
0
LINE
8
Black
10
9.6145
20
28.1257
11
9.58084
21
28.178
0
LINE
8
Black
10
9.58084
20
28.178
11
9.52993
21
28.2128
0
LINE
8
Black
10
9.52993
20
28.2128
11
9.46186
21
28.2266
0
LINE
8
Black
10
9.46186
20
28.2266
11
7.97661
21
28.2266
0
LINE
8
Black
10
15.7091
20
26.6912
11
15.646
21
26.6793
0
LINE
8
Black
10
15.646
20
26.6793
11
15.5937
21
26.6456
0
LINE
8
Black
10
15.5937
20
26.6456
11
15.5589
21
26.5947
0
LINE
8
Black
10
15.5589
20
26.5947
11
15.5451
21
26.5267
0
LINE
8
Black
10
15.5451
20
26.5267
11
15.5451
21
26.1414
0
LINE
8
Black
10
15.5451
20
26.1414
11
15.557
21
26.0783
0
LINE
8
Black
10
15.557
20
26.0783
11
15.5907
21
26.026
0
LINE
8
Black
10
15.5907
20
26.026
11
15.6416
21
25.9912
0
LINE
8
Black
10
15.6416
20
25.9912
11
15.7096
21
25.9774
0
LINE
8
Black
10
15.7096
20
25.9774
11
16.2949
21
25.9774
0
LINE
8
Black
10
16.2949
20
25.9774
11
16.358
21
25.9893
0
LINE
8
Black
10
16.358
20
25.9893
11
16.4113
21
26.0236
0
LINE
8
Black
10
16.4113
20
26.0236
11
16.4167
21
26.0291
0
LINE
8
Black
10
16.4167
20
26.0291
11
16.4234
21
26.0371
0
LINE
8
Black
10
16.4234
20
26.0371
11
16.4259
21
26.0385
0
LINE
8
Black
10
16.4259
20
26.0385
11
16.4279
21
26.0406
0
LINE
8
Black
10
16.4279
20
26.0406
11
16.4373
21
26.0451
0
LINE
8
Black
10
16.4373
20
26.0451
11
16.4463
21
26.0503
0
LINE
8
Black
10
16.4463
20
26.0503
11
16.4492
21
26.0508
0
LINE
8
Black
10
16.4492
20
26.0508
11
16.4518
21
26.0521
0
LINE
8
Black
10
16.4518
20
26.0521
11
16.4621
21
26.0531
0
LINE
8
Black
10
16.4621
20
26.0531
11
16.4724
21
26.0549
0
LINE
8
Black
10
16.4724
20
26.0549
11
16.5502
21
26.0549
0
LINE
8
Black
10
16.5502
20
26.0549
11
16.5551
21
26.054
0
LINE
8
Black
10
16.5551
20
26.054
11
16.5602
21
26.0542
0
LINE
8
Black
10
16.5602
20
26.0542
11
16.5681
21
26.0517
0
LINE
8
Black
10
16.5681
20
26.0517
11
16.5762
21
26.0503
0
LINE
8
Black
10
16.5762
20
26.0503
11
16.5806
21
26.0478
0
LINE
8
Black
10
16.5806
20
26.0478
11
16.5854
21
26.0463
0
LINE
8
Black
10
16.5854
20
26.0463
11
16.592
21
26.0412
0
LINE
8
Black
10
16.592
20
26.0412
11
16.5991
21
26.0371
0
LINE
8
Black
10
16.5991
20
26.0371
11
16.6024
21
26.0332
0
LINE
8
Black
10
16.6024
20
26.0332
11
16.6064
21
26.0301
0
LINE
8
Black
10
16.6064
20
26.0301
11
16.6108
21
26.0231
0
LINE
8
Black
10
16.6108
20
26.0231
11
16.6162
21
26.0168
0
LINE
8
Black
10
16.6162
20
26.0168
11
16.6179
21
26.0121
0
LINE
8
Black
10
16.6179
20
26.0121
11
16.6206
21
26.0078
0
LINE
8
Black
10
16.6206
20
26.0078
11
16.6263
21
25.9939
0
LINE
8
Black
10
16.6263
20
25.9939
11
16.7477
21
25.8724
0
LINE
8
Black
10
16.7477
20
25.8724
11
16.9063
21
25.8065
0
LINE
8
Black
10
16.9063
20
25.8065
11
17.0781
21
25.8063
0
LINE
8
Black
10
17.0781
20
25.8063
11
17.2369
21
25.8719
0
LINE
8
Black
10
17.2369
20
25.8719
11
17.3584
21
25.9933
0
LINE
8
Black
10
17.3584
20
25.9933
11
17.4243
21
26.1519
0
LINE
8
Black
10
17.4243
20
26.1519
11
17.4245
21
26.3237
0
LINE
8
Black
10
17.4245
20
26.3237
11
17.3589
21
26.4825
0
LINE
8
Black
10
17.3589
20
26.4825
11
17.2375
21
26.604
0
LINE
8
Black
10
17.2375
20
26.604
11
17.0789
21
26.6699
0
LINE
8
Black
10
17.0789
20
26.6699
11
16.9071
21
26.6701
0
LINE
8
Black
10
16.9071
20
26.6701
11
16.7846
21
26.6195
0
LINE
8
Black
10
16.7846
20
26.6195
11
16.783
21
26.6191
0
LINE
8
Black
10
16.783
20
26.6191
11
16.7816
21
26.6183
0
LINE
8
Black
10
16.7816
20
26.6183
11
16.7701
21
26.6163
0
LINE
8
Black
10
16.7701
20
26.6163
11
16.7588
21
26.6138
0
LINE
8
Black
10
16.7588
20
26.6138
11
16.7571
21
26.614
0
LINE
8
Black
10
16.7571
20
26.614
11
16.7555
21
26.6137
0
LINE
8
Black
10
16.7555
20
26.6137
11
16.4735
21
26.6137
0
LINE
8
Black
10
16.4735
20
26.6137
11
16.4623
21
26.6157
0
LINE
8
Black
10
16.4623
20
26.6157
11
16.4509
21
26.6171
0
LINE
8
Black
10
16.4509
20
26.6171
11
16.4493
21
26.618
0
LINE
8
Black
10
16.4493
20
26.618
11
16.4475
21
26.6183
0
LINE
8
Black
10
16.4475
20
26.6183
11
16.4376
21
26.624
0
LINE
8
Black
10
16.4376
20
26.624
11
16.4274
21
26.6292
0
LINE
8
Black
10
16.4274
20
26.6292
11
16.4262
21
26.6306
0
LINE
8
Black
10
16.4262
20
26.6306
11
16.4245
21
26.6315
0
LINE
8
Black
10
16.4245
20
26.6315
11
16.4178
21
26.6396
0
LINE
8
Black
10
16.4178
20
26.6396
11
16.3624
21
26.6774
0
LINE
8
Black
10
16.3624
20
26.6774
11
16.2944
21
26.6912
0
LINE
8
Black
10
16.2944
20
26.6912
11
15.7091
21
26.6912
0
LINE
8
Black
10
-1.55409
20
31.3345
11
-1.6172
21
31.3226
0
LINE
8
Black
10
-1.6172
20
31.3226
11
-1.66951
21
31.2889
0
LINE
8
Black
10
-1.66951
20
31.2889
11
-1.70429
21
31.238
0
LINE
8
Black
10
-1.70429
20
31.238
11
-1.71808
21
31.17
0
LINE
8
Black
10
-1.71808
20
31.17
11
-1.71808
21
29.4847
0
LINE
8
Black
10
-1.71808
20
29.4847
11
-1.7062
21
29.4216
0
LINE
8
Black
10
-1.7062
20
29.4216
11
-1.67254
21
29.3693
0
LINE
8
Black
10
-1.67254
20
29.3693
11
-1.62163
21
29.3345
0
LINE
8
Black
10
-1.62163
20
29.3345
11
-1.55356
21
29.3207
0
LINE
8
Black
10
-1.55356
20
29.3207
11
0.131692
21
29.3207
0
LINE
8
Black
10
0.131692
20
29.3207
11
0.194797
21
29.3326
0
LINE
8
Black
10
0.194797
20
29.3326
11
0.247107
21
29.3663
0
LINE
8
Black
10
0.247107
20
29.3663
11
0.281894
21
29.4172
0
LINE
8
Black
10
0.281894
20
29.4172
11
0.295678
21
29.4852
0
LINE
8
Black
10
0.295678
20
29.4852
11
0.295678
21
31.1705
0
LINE
8
Black
10
0.295678
20
31.1705
11
0.283804
21
31.2336
0
LINE
8
Black
10
0.283804
20
31.2336
11
0.250144
21
31.2859
0
LINE
8
Black
10
0.250144
20
31.2859
11
0.199231
21
31.3207
0
LINE
8
Black
10
0.199231
20
31.3207
11
0.131162
21
31.3345
0
LINE
8
Black
10
0.131162
20
31.3345
11
-1.55409
21
31.3345
0
LINE
8
Black
10
-4.09409
20
31.3345
11
-4.1572
21
31.3226
0
LINE
8
Black
10
-4.1572
20
31.3226
11
-4.20951
21
31.2889
0
LINE
8
Black
10
-4.20951
20
31.2889
11
-4.24429
21
31.238
0
LINE
8
Black
10
-4.24429
20
31.238
11
-4.25808
21
31.17
0
LINE
8
Black
10
-4.25808
20
31.17
11
-4.25808
21
29.4847
0
LINE
8
Black
10
-4.25808
20
29.4847
11
-4.2462
21
29.4216
0
LINE
8
Black
10
-4.2462
20
29.4216
11
-4.21254
21
29.3693
0
LINE
8
Black
10
-4.21254
20
29.3693
11
-4.16163
21
29.3345
0
LINE
8
Black
10
-4.16163
20
29.3345
11
-4.09356
21
29.3207
0
LINE
8
Black
10
-4.09356
20
29.3207
11
-2.40831
21
29.3207
0
LINE
8
Black
10
-2.40831
20
29.3207
11
-2.3452
21
29.3326
0
LINE
8
Black
10
-2.3452
20
29.3326
11
-2.29289
21
29.3663
0
LINE
8
Black
10
-2.29289
20
29.3663
11
-2.25811
21
29.4172
0
LINE
8
Black
10
-2.25811
20
29.4172
11
-2.24432
21
29.4852
0
LINE
8
Black
10
-2.24432
20
29.4852
11
-2.24432
21
31.1705
0
LINE
8
Black
10
-2.24432
20
31.1705
11
-2.2562
21
31.2336
0
LINE
8
Black
10
-2.2562
20
31.2336
11
-2.28986
21
31.2859
0
LINE
8
Black
10
-2.28986
20
31.2859
11
-2.34077
21
31.3207
0
LINE
8
Black
10
-2.34077
20
31.3207
11
-2.40884
21
31.3345
0
LINE
8
Black
10
-2.40884
20
31.3345
11
-4.09409
21
31.3345
0
LINE
8
Black
10
9.04581
20
31.5731
11
8.78836
21
31.3161
0
LINE
8
Black
10
8.78836
20
31.3161
11
8.64886
21
30.9802
0
LINE
8
Black
10
8.64886
20
30.9802
11
8.64854
21
30.6164
0
LINE
8
Black
10
8.64854
20
30.6164
11
8.78746
21
30.2802
0
LINE
8
Black
10
8.78746
20
30.2802
11
9.04446
21
30.0228
0
LINE
8
Black
10
9.04446
20
30.0228
11
9.38042
21
29.8833
0
LINE
8
Black
10
9.38042
20
29.8833
11
9.74419
21
29.8829
0
LINE
8
Black
10
9.74419
20
29.8829
11
10.0804
21
30.0219
0
LINE
8
Black
10
10.0804
20
30.0219
11
10.3378
21
30.2789
0
LINE
8
Black
10
10.3378
20
30.2789
11
10.4773
21
30.6148
0
LINE
8
Black
10
10.4773
20
30.6148
11
10.4777
21
30.9786
0
LINE
8
Black
10
10.4777
20
30.9786
11
10.3387
21
31.3148
0
LINE
8
Black
10
10.3387
20
31.3148
11
10.0817
21
31.5722
0
LINE
8
Black
10
10.0817
20
31.5722
11
9.74578
21
31.7117
0
LINE
8
Black
10
9.74578
20
31.7117
11
9.38201
21
31.7121
0
LINE
8
Black
10
9.38201
20
31.7121
11
9.04581
21
31.5731
0
LINE
8
Black
10
9.7155
20
2.1844
11
8.9535
21
2.1844
0
LINE
8
Black
10
8.9535
20
2.1844
11
8.9535
21
1.6791
0
LINE
8
Black
10
8.9535
20
1.6791
11
9.4695
21
1.6791
0
LINE
8
Black
10
9.4695
20
1.6791
11
9.4695
21
0.4291
0
LINE
8
Black
10
9.4695
20
0.4291
11
7.9695
21
0.4291
0
LINE
8
Black
10
7.9695
20
0.4291
11
7.9695
21
0.762
0
LINE
8
Black
10
7.9695
20
0.762
11
7.3651
21
0.762
0
LINE
8
Black
10
7.3651
20
0.762
11
7.19135
21
0.792636
0
LINE
8
Black
10
7.19135
20
0.792636
11
7.03856
21
0.880849
0
LINE
8
Black
10
7.03856
20
0.880849
11
6.92516
21
1.016
0
LINE
8
Black
10
6.92516
20
1.016
11
6.86482
21
1.18179
0
LINE
8
Black
10
6.86482
20
1.18179
11
6.86482
21
1.35821
0
LINE
8
Black
10
6.86482
20
1.35821
11
6.92516
21
1.524
0
LINE
8
Black
10
6.92516
20
1.524
11
7.03856
21
1.65915
0
LINE
8
Black
10
7.03856
20
1.65915
11
7.19135
21
1.74736
0
LINE
8
Black
10
7.19135
20
1.74736
11
7.3651
21
1.778
0
LINE
8
Black
10
7.3651
20
1.778
11
7.9375
21
1.778
0
LINE
8
Black
10
7.9375
20
1.778
11
7.9375
21
2.1844
0
LINE
8
Black
10
7.9375
20
2.1844
11
7.1755
21
2.1844
0
LINE
8
Black
10
7.1755
20
2.1844
11
7.1755
21
4.7244
0
LINE
8
Black
10
7.1755
20
4.7244
11
9.7155
21
4.7244
0
LINE
8
Black
10
9.7155
20
4.7244
11
9.7155
21
2.1844
0
LINE
8
Black
10
-3.4036
20
23.74
11
-3.4036
21
6.35722
0
LINE
8
Black
10
-3.4036
20
6.35722
11
0.63226
21
2.32136
0
LINE
8
Black
10
0.63226
20
2.32136
11
1.17562
21
1.778
0
LINE
8
Black
10
1.17562
20
1.778
11
5.1571
21
1.778
0
LINE
8
Black
10
5.1571
20
1.778
11
5.1571
21
4.6364
0
LINE
8
Black
10
5.1571
20
4.6364
11
5.16098
21
4.65841
0
LINE
8
Black
10
5.16098
20
4.65841
11
5.15903
21
4.68067
0
LINE
8
Black
10
5.15903
20
4.68067
11
5.17621
21
4.74478
0
LINE
8
Black
10
5.17621
20
4.74478
11
5.18774
21
4.81015
0
LINE
8
Black
10
5.18774
20
4.81015
11
5.19891
21
4.8295
0
LINE
8
Black
10
5.19891
20
4.8295
11
5.2047
21
4.85109
0
LINE
8
Black
10
5.2047
20
4.85109
11
5.24276
21
4.90545
0
LINE
8
Black
10
5.24276
20
4.90545
11
5.27595
21
4.96294
0
LINE
8
Black
10
5.27595
20
4.96294
11
5.29307
21
4.9773
0
LINE
8
Black
10
5.29307
20
4.9773
11
5.30589
21
4.99561
0
LINE
8
Black
10
5.30589
20
4.99561
11
6.33369
21
6.02341
0
LINE
8
Black
10
6.33369
20
6.02341
11
6.352
21
6.03623
0
LINE
8
Black
10
6.352
20
6.03623
11
6.36636
21
6.05335
0
LINE
8
Black
10
6.36636
20
6.05335
11
6.42384
21
6.08654
0
LINE
8
Black
10
6.42384
20
6.08654
11
6.47821
21
6.1246
0
LINE
8
Black
10
6.47821
20
6.1246
11
6.4998
21
6.13039
0
LINE
8
Black
10
6.4998
20
6.13039
11
6.51915
21
6.14156
0
LINE
8
Black
10
6.51915
20
6.14156
11
6.58451
21
6.15309
0
LINE
8
Black
10
6.58451
20
6.15309
11
6.64863
21
6.17027
0
LINE
8
Black
10
6.64863
20
6.17027
11
6.67089
21
6.16832
0
LINE
8
Black
10
6.67089
20
6.16832
11
6.6929
21
6.1722
0
LINE
8
Black
10
6.6929
20
6.1722
11
18.3769
21
6.1722
0
LINE
8
Black
10
18.3769
20
6.1722
11
18.5506
21
6.14156
0
LINE
8
Black
10
18.5506
20
6.14156
11
18.7034
21
6.05335
0
LINE
8
Black
10
18.7034
20
6.05335
11
18.8168
21
5.9182
0
LINE
8
Black
10
18.8168
20
5.9182
11
18.8772
21
5.75241
0
LINE
8
Black
10
18.8772
20
5.75241
11
18.8772
21
5.57599
0
LINE
8
Black
10
18.8772
20
5.57599
11
18.8168
21
5.4102
0
LINE
8
Black
10
18.8168
20
5.4102
11
18.7034
21
5.27505
0
LINE
8
Black
10
18.7034
20
5.27505
11
18.5506
21
5.18684
0
LINE
8
Black
10
18.5506
20
5.18684
11
18.3769
21
5.1562
0
LINE
8
Black
10
18.3769
20
5.1562
11
6.90332
21
5.1562
0
LINE
8
Black
10
6.90332
20
5.1562
11
6.1731
21
4.42598
0
LINE
8
Black
10
6.1731
20
4.42598
11
6.1731
21
1.27
0
LINE
8
Black
10
6.1731
20
1.27
11
6.16538
21
1.22623
0
LINE
8
Black
10
6.16538
20
1.22623
11
6.16538
21
1.18179
0
LINE
8
Black
10
6.16538
20
1.18179
11
6.15018
21
1.14002
0
LINE
8
Black
10
6.15018
20
1.14002
11
6.14246
21
1.09625
0
LINE
8
Black
10
6.14246
20
1.09625
11
6.12024
21
1.05776
0
LINE
8
Black
10
6.12024
20
1.05776
11
6.10504
21
1.016
0
LINE
8
Black
10
6.10504
20
1.016
11
6.07647
21
0.981954
0
LINE
8
Black
10
6.07647
20
0.981954
11
6.05425
21
0.943464
0
LINE
8
Black
10
6.05425
20
0.943464
11
6.0202
21
0.914896
0
LINE
8
Black
10
6.0202
20
0.914896
11
5.99164
21
0.880849
0
LINE
8
Black
10
5.99164
20
0.880849
11
5.95315
21
0.858627
0
LINE
8
Black
10
5.95315
20
0.858627
11
5.9191
21
0.830059
0
LINE
8
Black
10
5.9191
20
0.830059
11
5.87734
21
0.814859
0
LINE
8
Black
10
5.87734
20
0.814859
11
5.83885
21
0.792636
0
LINE
8
Black
10
5.83885
20
0.792636
11
5.79507
21
0.784918
0
LINE
8
Black
10
5.79507
20
0.784918
11
5.75331
21
0.769718
0
LINE
8
Black
10
5.75331
20
0.769718
11
5.70887
21
0.769718
0
LINE
8
Black
10
5.70887
20
0.769718
11
5.6651
21
0.762
0
LINE
8
Black
10
5.6651
20
0.762
11
0.9652
21
0.762
0
LINE
8
Black
10
0.9652
20
0.762
11
0.94319
21
0.765881
0
LINE
8
Black
10
0.94319
20
0.765881
11
0.920925
21
0.763933
0
LINE
8
Black
10
0.920925
20
0.763933
11
0.856818
21
0.781111
0
LINE
8
Black
10
0.856818
20
0.781111
11
0.791454
21
0.792636
0
LINE
8
Black
10
0.791454
20
0.792636
11
0.772097
21
0.803812
0
LINE
8
Black
10
0.772097
20
0.803812
11
0.75051
21
0.809596
0
LINE
8
Black
10
0.75051
20
0.809596
11
0.696148
21
0.847661
0
LINE
8
Black
10
0.696148
20
0.847661
11
0.638664
21
0.880849
0
LINE
8
Black
10
0.638664
20
0.880849
11
0.624296
21
0.897972
0
LINE
8
Black
10
0.624296
20
0.897972
11
0.60599
21
0.91079
0
LINE
8
Black
10
0.60599
20
0.91079
11
-0.08616
21
1.60294
0
LINE
8
Black
10
-0.08616
20
1.60294
11
-4.27081
21
5.78759
0
LINE
8
Black
10
-4.27081
20
5.78759
11
-4.28363
21
5.8059
0
LINE
8
Black
10
-4.28363
20
5.8059
11
-4.30075
21
5.82026
0
LINE
8
Black
10
-4.30075
20
5.82026
11
-4.33394
21
5.87775
0
LINE
8
Black
10
-4.33394
20
5.87775
11
-4.372
21
5.93211
0
LINE
8
Black
10
-4.372
20
5.93211
11
-4.37779
21
5.9537
0
LINE
8
Black
10
-4.37779
20
5.9537
11
-4.38896
21
5.97305
0
LINE
8
Black
10
-4.38896
20
5.97305
11
-4.40049
21
6.03842
0
LINE
8
Black
10
-4.40049
20
6.03842
11
-4.41767
21
6.10252
0
LINE
8
Black
10
-4.41767
20
6.10252
11
-4.41572
21
6.12479
0
LINE
8
Black
10
-4.41572
20
6.12479
11
-4.4196
21
6.1468
0
LINE
8
Black
10
-4.4196
20
6.1468
11
-4.4196
21
23.8994
0
LINE
8
Black
10
-4.4196
20
23.8994
11
-4.47416
21
24.0164
0
LINE
8
Black
10
-4.47416
20
24.0164
11
-4.49338
21
24.2361
0
LINE
8
Black
10
-4.49338
20
24.2361
11
-4.43631
21
24.4492
0
LINE
8
Black
10
-4.43631
20
24.4492
11
-4.30981
21
24.6298
0
LINE
8
Black
10
-4.30981
20
24.6298
11
-1.26181
21
27.6778
0
LINE
8
Black
10
-1.26181
20
27.6778
11
-1.23893
21
27.6938
0
LINE
8
Black
10
-1.23893
20
27.6938
11
-1.22097
21
27.7152
0
LINE
8
Black
10
-1.22097
20
27.7152
11
-1.14913
21
27.7567
0
LINE
8
Black
10
-1.14913
20
27.7567
11
-1.08116
21
27.8043
0
LINE
8
Black
10
-1.08116
20
27.8043
11
-1.05418
21
27.8115
0
LINE
8
Black
10
-1.05418
20
27.8115
11
-1.02998
21
27.8255
0
LINE
8
Black
10
-1.02998
20
27.8255
11
-0.948277
21
27.8399
0
LINE
8
Black
10
-0.948277
20
27.8399
11
-0.868144
21
27.8614
0
LINE
8
Black
10
-0.868144
20
27.8614
11
-0.840315
21
27.8589
0
LINE
8
Black
10
-0.840315
20
27.8589
11
-0.8128
21
27.8638
0
LINE
8
Black
10
-0.8128
20
27.8638
11
1.9812
21
27.8638
0
LINE
8
Black
10
1.9812
20
27.8638
11
3.7084
21
27.8638
0
LINE
8
Black
10
3.7084
20
27.8638
11
3.7084
21
29.4776
0
LINE
8
Black
10
3.7084
20
29.4776
11
3.5188
21
29.4776
0
LINE
8
Black
10
3.5188
20
29.4776
11
3.5188
21
31.1776
0
LINE
8
Black
10
3.5188
20
31.1776
11
5.2188
21
31.1776
0
LINE
8
Black
10
5.2188
20
31.1776
11
5.2188
21
29.4776
0
LINE
8
Black
10
5.2188
20
29.4776
11
4.7244
21
29.4776
0
LINE
8
Black
10
4.7244
20
29.4776
11
4.7244
21
27.7368
0
LINE
8
Black
10
4.7244
20
27.7368
11
5.3857
21
27.7368
0
LINE
8
Black
10
5.3857
20
27.7368
11
5.3857
21
28.2584
0
LINE
8
Black
10
5.3857
20
28.2584
11
5.38783
21
28.2705
0
LINE
8
Black
10
5.38783
20
28.2705
11
5.38676
21
28.2828
0
LINE
8
Black
10
5.38676
20
28.2828
11
5.39621
21
28.318
0
LINE
8
Black
10
5.39621
20
28.318
11
5.40255
21
28.354
0
LINE
8
Black
10
5.40255
20
28.354
11
5.4087
21
28.3646
0
LINE
8
Black
10
5.4087
20
28.3646
11
5.41188
21
28.3765
0
LINE
8
Black
10
5.41188
20
28.3765
11
5.43282
21
28.4064
0
LINE
8
Black
10
5.43282
20
28.4064
11
5.45107
21
28.438
0
LINE
8
Black
10
5.45107
20
28.438
11
5.46048
21
28.4459
0
LINE
8
Black
10
5.46048
20
28.4459
11
5.46753
21
28.456
0
LINE
8
Black
10
5.46753
20
28.456
11
6.39373
21
29.3822
0
LINE
8
Black
10
6.39373
20
29.3822
11
6.4038
21
29.3892
0
LINE
8
Black
10
6.4038
20
29.3892
11
6.4117
21
29.3986
0
LINE
8
Black
10
6.4117
20
29.3986
11
6.44332
21
29.4169
0
LINE
8
Black
10
6.44332
20
29.4169
11
6.47322
21
29.4378
0
LINE
8
Black
10
6.47322
20
29.4378
11
6.48509
21
29.441
0
LINE
8
Black
10
6.48509
20
29.441
11
6.49574
21
29.4471
0
LINE
8
Black
10
6.49574
20
29.4471
11
6.53169
21
29.4535
0
LINE
8
Black
10
6.53169
20
29.4535
11
6.56695
21
29.4629
0
LINE
8
Black
10
6.56695
20
29.4629
11
6.57919
21
29.4619
0
LINE
8
Black
10
6.57919
20
29.4619
11
6.5913
21
29.464
0
LINE
8
Black
10
6.5913
20
29.464
11
12.065
21
29.464
0
LINE
8
Black
10
12.065
20
29.464
11
12.0771
21
29.4619
0
LINE
8
Black
10
12.0771
20
29.4619
11
12.0894
21
29.4629
0
LINE
8
Black
10
12.0894
20
29.4629
11
12.1246
21
29.4535
0
LINE
8
Black
10
12.1246
20
29.4535
11
12.1606
21
29.4471
0
LINE
8
Black
10
12.1606
20
29.4471
11
12.1712
21
29.441
0
LINE
8
Black
10
12.1712
20
29.441
11
12.1831
21
29.4378
0
LINE
8
Black
10
12.1831
20
29.4378
11
12.213
21
29.4169
0
LINE
8
Black
10
12.213
20
29.4169
11
12.2446
21
29.3986
0
LINE
8
Black
10
12.2446
20
29.3986
11
12.2525
21
29.3892
0
LINE
8
Black
10
12.2525
20
29.3892
11
12.2626
21
29.3822
0
LINE
8
Black
10
12.2626
20
29.3822
11
12.669
21
28.9758
0
LINE
8
Black
10
12.669
20
28.9758
11
12.676
21
28.9657
0
LINE
8
Black
10
12.676
20
28.9657
11
12.6854
21
28.9578
0
LINE
8
Black
10
12.6854
20
28.9578
11
12.7037
21
28.9262
0
LINE
8
Black
10
12.7037
20
28.9262
11
12.7246
21
28.8963
0
LINE
8
Black
10
12.7246
20
28.8963
11
12.7278
21
28.8844
0
LINE
8
Black
10
12.7278
20
28.8844
11
12.734
21
28.8738
0
LINE
8
Black
10
12.734
20
28.8738
11
12.7403
21
28.8378
0
LINE
8
Black
10
12.7403
20
28.8378
11
12.7497
21
28.8026
0
LINE
8
Black
10
12.7497
20
28.8026
11
12.7487
21
28.7903
0
LINE
8
Black
10
12.7487
20
28.7903
11
12.7508
21
28.7782
0
LINE
8
Black
10
12.7508
20
28.7782
11
12.7508
21
26.6568
0
LINE
8
Black
10
12.7508
20
26.6568
11
12.7992
21
26.6288
0
LINE
8
Black
10
12.7992
20
26.6288
11
12.913
21
26.4932
0
LINE
8
Black
10
12.913
20
26.4932
11
12.9736
21
26.3268
0
LINE
8
Black
10
12.9736
20
26.3268
11
12.9736
21
26.1496
0
LINE
8
Black
10
12.9736
20
26.1496
11
12.913
21
25.9832
0
LINE
8
Black
10
12.913
20
25.9832
11
12.7992
21
25.8476
0
LINE
8
Black
10
12.7992
20
25.8476
11
12.6458
21
25.759
0
LINE
8
Black
10
12.6458
20
25.759
11
12.4714
21
25.7283
0
LINE
8
Black
10
12.4714
20
25.7283
11
12.297
21
25.759
0
LINE
8
Black
10
12.297
20
25.759
11
12.1436
21
25.8476
0
LINE
8
Black
10
12.1436
20
25.8476
11
12.0298
21
25.9832
0
LINE
8
Black
10
12.0298
20
25.9832
11
11.9692
21
26.1496
0
LINE
8
Black
10
11.9692
20
26.1496
11
11.9692
21
26.3268
0
LINE
8
Black
10
11.9692
20
26.3268
11
12.0298
21
26.4932
0
LINE
8
Black
10
12.0298
20
26.4932
11
12.1436
21
26.6288
0
LINE
8
Black
10
12.1436
20
26.6288
11
12.192
21
26.6568
0
LINE
8
Black
10
12.192
20
26.6568
11
12.192
21
28.6625
0
LINE
8
Black
10
12.192
20
28.6625
11
11.9493
21
28.9052
0
LINE
8
Black
10
11.9493
20
28.9052
11
6.70703
21
28.9052
0
LINE
8
Black
10
6.70703
20
28.9052
11
5.9445
21
28.1427
0
LINE
8
Black
10
5.9445
20
28.1427
11
5.9445
21
27.6452
0
LINE
8
Black
10
5.9445
20
27.6452
11
5.99164
21
27.618
0
LINE
8
Black
10
5.99164
20
27.618
11
6.10504
21
27.4828
0
LINE
8
Black
10
6.10504
20
27.4828
11
6.16538
21
27.317
0
LINE
8
Black
10
6.16538
20
27.317
11
6.16538
21
27.1406
0
LINE
8
Black
10
6.16538
20
27.1406
11
6.10504
21
26.9748
0
LINE
8
Black
10
6.10504
20
26.9748
11
5.99164
21
26.8396
0
LINE
8
Black
10
5.99164
20
26.8396
11
5.83885
21
26.7514
0
LINE
8
Black
10
5.83885
20
26.7514
11
5.6651
21
26.7208
0
LINE
8
Black
10
5.6651
20
26.7208
11
4.58722
21
26.7208
0
LINE
8
Black
10
4.58722
20
26.7208
11
4.43358
21
26.6321
0
LINE
8
Black
10
4.43358
20
26.6321
11
4.2164
21
26.5938
0
LINE
8
Black
10
4.2164
20
26.5938
11
1.9812
21
26.5938
0
LINE
8
Black
10
1.9812
20
26.5938
11
-0.549774
21
26.5938
0
LINE
8
Black
10
-0.549774
20
26.5938
11
-3.4036
21
23.74
0
LINE
8
Black
10
17.0123
20
7.00725
11
17.0967
21
6.95855
0
LINE
8
Black
10
17.0967
20
6.95855
11
17.1593
21
6.88393
0
LINE
8
Black
10
17.1593
20
6.88393
11
17.1641
21
6.8707
0
LINE
8
Black
10
17.1641
20
6.8707
11
20.3161
21
6.8707
0
LINE
8
Black
10
20.3161
20
6.8707
11
20.3216
21
6.86973
0
LINE
8
Black
10
20.3216
20
6.86973
11
20.3272
21
6.87022
0
LINE
8
Black
10
20.3272
20
6.87022
11
20.3432
21
6.86592
0
LINE
8
Black
10
20.3432
20
6.86592
11
20.3595
21
6.86304
0
LINE
8
Black
10
20.3595
20
6.86304
11
20.3644
21
6.86025
0
LINE
8
Black
10
20.3644
20
6.86025
11
20.3698
21
6.8588
0
LINE
8
Black
10
20.3698
20
6.8588
11
20.3834
21
6.84929
0
LINE
8
Black
10
20.3834
20
6.84929
11
20.3977
21
6.84099
0
LINE
8
Black
10
20.3977
20
6.84099
11
20.4013
21
6.83671
0
LINE
8
Black
10
20.4013
20
6.83671
11
20.4059
21
6.8335
0
LINE
8
Black
10
20.4059
20
6.8335
11
20.4378
21
6.8016
0
LINE
8
Black
10
20.4378
20
6.8016
11
20.9082
21
6.8016
0
LINE
8
Black
10
20.9082
20
6.8016
11
20.9082
21
6.1016
0
LINE
8
Black
10
20.9082
20
6.1016
11
20.3082
21
6.1016
0
LINE
8
Black
10
20.3082
20
6.1016
11
20.3082
21
6.57199
0
LINE
8
Black
10
20.3082
20
6.57199
11
20.2635
21
6.6167
0
LINE
8
Black
10
20.2635
20
6.6167
11
17.1641
21
6.6167
0
LINE
8
Black
10
17.1641
20
6.6167
11
17.1593
21
6.60347
0
LINE
8
Black
10
17.1593
20
6.60347
11
17.0967
21
6.52885
0
LINE
8
Black
10
17.0967
20
6.52885
11
17.0123
21
6.48015
0
LINE
8
Black
10
17.0123
20
6.48015
11
16.9164
21
6.46323
0
LINE
8
Black
10
16.9164
20
6.46323
11
16.8205
21
6.48015
0
LINE
8
Black
10
16.8205
20
6.48015
11
16.7361
21
6.52885
0
LINE
8
Black
10
16.7361
20
6.52885
11
16.6735
21
6.60347
0
LINE
8
Black
10
16.6735
20
6.60347
11
16.6402
21
6.695
0
LINE
8
Black
10
16.6402
20
6.695
11
16.6402
21
6.7924
0
LINE
8
Black
10
16.6402
20
6.7924
11
16.6735
21
6.88393
0
LINE
8
Black
10
16.6735
20
6.88393
11
16.7361
21
6.95855
0
LINE
8
Black
10
16.7361
20
6.95855
11
16.8205
21
7.00725
0
LINE
8
Black
10
16.8205
20
7.00725
11
16.9164
21
7.02417
0
LINE
8
Black
10
16.9164
20
7.02417
11
17.0123
21
7.00725
0
LINE
8
Black
10
3.72812
20
26.1716
11
3.81248
21
26.1228
0
LINE
8
Black
10
3.81248
20
26.1228
11
3.87509
21
26.0482
0
LINE
8
Black
10
3.87509
20
26.0482
11
3.90841
21
25.9567
0
LINE
8
Black
10
3.90841
20
25.9567
11
3.90841
21
25.8593
0
LINE
8
Black
10
3.90841
20
25.8593
11
3.87509
21
25.7678
0
LINE
8
Black
10
3.87509
20
25.7678
11
3.81248
21
25.6931
0
LINE
8
Black
10
3.81248
20
25.6931
11
3.7592
21
25.6624
0
LINE
8
Black
10
3.7592
20
25.6624
11
3.7592
21
25.2494
0
LINE
8
Black
10
3.7592
20
25.2494
11
6.49151
21
22.5171
0
LINE
8
Black
10
6.49151
20
22.5171
11
17.4244
21
22.5171
0
LINE
8
Black
10
17.4244
20
22.5171
11
17.4299
21
22.5161
0
LINE
8
Black
10
17.4299
20
22.5161
11
17.4355
21
22.5166
0
LINE
8
Black
10
17.4355
20
22.5166
11
17.4515
21
22.5123
0
LINE
8
Black
10
17.4515
20
22.5123
11
17.4678
21
22.5094
0
LINE
8
Black
10
17.4678
20
22.5094
11
17.4727
21
22.5066
0
LINE
8
Black
10
17.4727
20
22.5066
11
17.4781
21
22.5052
0
LINE
8
Black
10
17.4781
20
22.5052
11
17.4917
21
22.4957
0
LINE
8
Black
10
17.4917
20
22.4957
11
17.506
21
22.4874
0
LINE
8
Black
10
17.506
20
22.4874
11
17.5096
21
22.4831
0
LINE
8
Black
10
17.5096
20
22.4831
11
17.5142
21
22.4799
0
LINE
8
Black
10
17.5142
20
22.4799
11
18.8463
21
21.1478
0
LINE
8
Black
10
18.8463
20
21.1478
11
18.8774
21
21.1478
0
LINE
8
Black
10
18.8774
20
21.1478
11
18.9188
21
21.1327
0
LINE
8
Black
10
18.9188
20
21.1327
11
18.9526
21
21.1043
0
LINE
8
Black
10
18.9526
20
21.1043
11
18.9746
21
21.0661
0
LINE
8
Black
10
18.9746
20
21.0661
11
18.9823
21
21.0227
0
LINE
8
Black
10
18.9823
20
21.0227
11
18.9823
21
20.9592
0
LINE
8
Black
10
18.9823
20
20.9592
11
18.9823
21
18.632
0
LINE
8
Black
10
18.9823
20
18.632
11
19.1986
21
18.5939
0
LINE
8
Black
10
19.1986
20
18.5939
11
19.5005
21
18.4196
0
LINE
8
Black
10
19.5005
20
18.4196
11
19.7246
21
18.1525
0
LINE
8
Black
10
19.7246
20
18.1525
11
19.8439
21
17.8249
0
LINE
8
Black
10
19.8439
20
17.8249
11
19.8439
21
17.4763
0
LINE
8
Black
10
19.8439
20
17.4763
11
19.7246
21
17.1487
0
LINE
8
Black
10
19.7246
20
17.1487
11
19.5005
21
16.8816
0
LINE
8
Black
10
19.5005
20
16.8816
11
19.1986
21
16.7073
0
LINE
8
Black
10
19.1986
20
16.7073
11
18.8553
21
16.6468
0
LINE
8
Black
10
18.8553
20
16.6468
11
18.512
21
16.7073
0
LINE
8
Black
10
18.512
20
16.7073
11
18.2101
21
16.8816
0
LINE
8
Black
10
18.2101
20
16.8816
11
17.986
21
17.1487
0
LINE
8
Black
10
17.986
20
17.1487
11
17.8667
21
17.4763
0
LINE
8
Black
10
17.8667
20
17.4763
11
17.8667
21
17.8249
0
LINE
8
Black
10
17.8667
20
17.8249
11
17.986
21
18.1525
0
LINE
8
Black
10
17.986
20
18.1525
11
18.2101
21
18.4196
0
LINE
8
Black
10
18.2101
20
18.4196
11
18.512
21
18.5939
0
LINE
8
Black
10
18.512
20
18.5939
11
18.7283
21
18.632
0
LINE
8
Black
10
18.7283
20
18.632
11
18.7283
21
20.9066
0
LINE
8
Black
10
18.7283
20
20.9066
11
17.3718
21
22.2631
0
LINE
8
Black
10
17.3718
20
22.2631
11
6.4389
21
22.2631
0
LINE
8
Black
10
6.4389
20
22.2631
11
6.4334
21
22.2641
0
LINE
8
Black
10
6.4334
20
22.2641
11
6.42783
21
22.2636
0
LINE
8
Black
10
6.42783
20
22.2636
11
6.4118
21
22.2679
0
LINE
8
Black
10
6.4118
20
22.2679
11
6.39546
21
22.2708
0
LINE
8
Black
10
6.39546
20
22.2708
11
6.39062
21
22.2736
0
LINE
8
Black
10
6.39062
20
22.2736
11
6.38523
21
22.275
0
LINE
8
Black
10
6.38523
20
22.275
11
6.37164
21
22.2845
0
LINE
8
Black
10
6.37164
20
22.2845
11
6.35727
21
22.2928
0
LINE
8
Black
10
6.35727
20
22.2928
11
6.35367
21
22.2971
0
LINE
8
Black
10
6.35367
20
22.2971
11
6.3491
21
22.3003
0
LINE
8
Black
10
6.3491
20
22.3003
11
3.5424
21
25.107
0
LINE
8
Black
10
3.5424
20
25.107
11
3.53919
21
25.1116
0
LINE
8
Black
10
3.53919
20
25.1116
11
3.53491
21
25.1152
0
LINE
8
Black
10
3.53491
20
25.1152
11
3.52661
21
25.1295
0
LINE
8
Black
10
3.52661
20
25.1295
11
3.5171
21
25.1431
0
LINE
8
Black
10
3.5171
20
25.1431
11
3.51565
21
25.1485
0
LINE
8
Black
10
3.51565
20
25.1485
11
3.51286
21
25.1534
0
LINE
8
Black
10
3.51286
20
25.1534
11
3.50998
21
25.1697
0
LINE
8
Black
10
3.50998
20
25.1697
11
3.50568
21
25.1857
0
LINE
8
Black
10
3.50568
20
25.1857
11
3.50617
21
25.1913
0
LINE
8
Black
10
3.50617
20
25.1913
11
3.5052
21
25.1968
0
LINE
8
Black
10
3.5052
20
25.1968
11
3.5052
21
25.6624
0
LINE
8
Black
10
3.5052
20
25.6624
11
3.45192
21
25.6931
0
LINE
8
Black
10
3.45192
20
25.6931
11
3.38931
21
25.7678
0
LINE
8
Black
10
3.38931
20
25.7678
11
3.35599
21
25.8593
0
LINE
8
Black
10
3.35599
20
25.8593
11
3.35599
21
25.9567
0
LINE
8
Black
10
3.35599
20
25.9567
11
3.38931
21
26.0482
0
LINE
8
Black
10
3.38931
20
26.0482
11
3.45192
21
26.1228
0
LINE
8
Black
10
3.45192
20
26.1228
11
3.53627
21
26.1716
0
LINE
8
Black
10
3.53627
20
26.1716
11
3.6322
21
26.1885
0
LINE
8
Black
10
3.6322
20
26.1885
11
3.72812
21
26.1716
0
LINE
8
Black
10
15.6201
20
29.4776
11
14.8971
21
29.4776
0
LINE
8
Black
10
14.8971
20
29.4776
11
14.8971
21
27.4946
0
LINE
8
Black
10
14.8971
20
27.4946
11
15.0201
21
27.4946
0
LINE
8
Black
10
15.0201
20
27.4946
11
15.0201
21
27.3216
0
LINE
8
Black
10
15.0201
20
27.3216
11
15.702
21
27.3216
0
LINE
8
Black
10
15.702
20
27.3216
11
15.702
21
27.4343
0
LINE
8
Black
10
15.702
20
27.4343
11
16.302
21
27.4343
0
LINE
8
Black
10
16.302
20
27.4343
11
16.302
21
27.0343
0
LINE
8
Black
10
16.302
20
27.0343
11
15.702
21
27.0343
0
LINE
8
Black
10
15.702
20
27.0343
11
15.702
21
27.0676
0
LINE
8
Black
10
15.702
20
27.0676
11
15.0201
21
27.0676
0
LINE
8
Black
10
15.0201
20
27.0676
11
15.0201
21
26.8946
0
LINE
8
Black
10
15.0201
20
26.8946
11
14.5201
21
26.8946
0
LINE
8
Black
10
14.5201
20
26.8946
11
14.5201
21
27.0676
0
LINE
8
Black
10
14.5201
20
27.0676
11
14.1281
21
27.0676
0
LINE
8
Black
10
14.1281
20
27.0676
11
13.8811
21
26.8206
0
LINE
8
Black
10
13.8811
20
26.8206
11
13.8811
21
25.7048
0
LINE
8
Black
10
13.8811
20
25.7048
11
13.8801
21
25.6993
0
LINE
8
Black
10
13.8801
20
25.6993
11
13.8806
21
25.6937
0
LINE
8
Black
10
13.8806
20
25.6937
11
13.8763
21
25.6777
0
LINE
8
Black
10
13.8763
20
25.6777
11
13.8734
21
25.6614
0
LINE
8
Black
10
13.8734
20
25.6614
11
13.8706
21
25.6565
0
LINE
8
Black
10
13.8706
20
25.6565
11
13.8692
21
25.6511
0
LINE
8
Black
10
13.8692
20
25.6511
11
13.8597
21
25.6375
0
LINE
8
Black
10
13.8597
20
25.6375
11
13.8514
21
25.6232
0
LINE
8
Black
10
13.8514
20
25.6232
11
13.8471
21
25.6196
0
LINE
8
Black
10
13.8471
20
25.6196
11
13.8439
21
25.615
0
LINE
8
Black
10
13.8439
20
25.615
11
13.1708
21
24.9419
0
LINE
8
Black
10
13.1708
20
24.9419
11
13.1662
21
24.9387
0
LINE
8
Black
10
13.1662
20
24.9387
11
13.1626
21
24.9344
0
LINE
8
Black
10
13.1626
20
24.9344
11
13.1483
21
24.9261
0
LINE
8
Black
10
13.1483
20
24.9261
11
13.1347
21
24.9166
0
LINE
8
Black
10
13.1347
20
24.9166
11
13.1293
21
24.9152
0
LINE
8
Black
10
13.1293
20
24.9152
11
13.1244
21
24.9124
0
LINE
8
Black
10
13.1244
20
24.9124
11
13.1081
21
24.9095
0
LINE
8
Black
10
13.1081
20
24.9095
11
13.0921
21
24.9052
0
LINE
8
Black
10
13.0921
20
24.9052
11
13.0865
21
24.9057
0
LINE
8
Black
10
13.0865
20
24.9057
11
13.081
21
24.9047
0
LINE
8
Black
10
13.081
20
24.9047
11
12.2682
21
24.9047
0
LINE
8
Black
10
12.2682
20
24.9047
11
12.2627
21
24.9057
0
LINE
8
Black
10
12.2627
20
24.9057
11
12.2571
21
24.9052
0
LINE
8
Black
10
12.2571
20
24.9052
11
12.2411
21
24.9095
0
LINE
8
Black
10
12.2411
20
24.9095
11
12.2248
21
24.9124
0
LINE
8
Black
10
12.2248
20
24.9124
11
12.2199
21
24.9152
0
LINE
8
Black
10
12.2199
20
24.9152
11
12.2145
21
24.9166
0
LINE
8
Black
10
12.2145
20
24.9166
11
12.2009
21
24.9261
0
LINE
8
Black
10
12.2009
20
24.9261
11
12.1866
21
24.9344
0
LINE
8
Black
10
12.1866
20
24.9344
11
12.183
21
24.9387
0
LINE
8
Black
10
12.183
20
24.9387
11
12.1784
21
24.9419
0
LINE
8
Black
10
12.1784
20
24.9419
11
11.4014
21
25.7189
0
LINE
8
Black
10
11.4014
20
25.7189
11
11.3157
21
25.7037
0
LINE
8
Black
10
11.3157
20
25.7037
11
11.2198
21
25.7206
0
LINE
8
Black
10
11.2198
20
25.7206
11
11.1354
21
25.7693
0
LINE
8
Black
10
11.1354
20
25.7693
11
11.0728
21
25.844
0
LINE
8
Black
10
11.0728
20
25.844
11
11.0395
21
25.9355
0
LINE
8
Black
10
11.0395
20
25.9355
11
11.0395
21
26.0329
0
LINE
8
Black
10
11.0395
20
26.0329
11
11.0728
21
26.1244
0
LINE
8
Black
10
11.0728
20
26.1244
11
11.1354
21
26.199
0
LINE
8
Black
10
11.1354
20
26.199
11
11.2198
21
26.2478
0
LINE
8
Black
10
11.2198
20
26.2478
11
11.3157
21
26.2647
0
LINE
8
Black
10
11.3157
20
26.2647
11
11.4116
21
26.2478
0
LINE
8
Black
10
11.4116
20
26.2478
11
11.496
21
26.199
0
LINE
8
Black
10
11.496
20
26.199
11
11.5586
21
26.1244
0
LINE
8
Black
10
11.5586
20
26.1244
11
11.5919
21
26.0329
0
LINE
8
Black
10
11.5919
20
26.0329
11
11.5919
21
25.9355
0
LINE
8
Black
10
11.5919
20
25.9355
11
11.5791
21
25.9004
0
LINE
8
Black
10
11.5791
20
25.9004
11
12.3208
21
25.1587
0
LINE
8
Black
10
12.3208
20
25.1587
11
13.0284
21
25.1587
0
LINE
8
Black
10
13.0284
20
25.1587
11
13.6271
21
25.7574
0
LINE
8
Black
10
13.6271
20
25.7574
11
13.6271
21
26.8732
0
LINE
8
Black
10
13.6271
20
26.8732
11
13.6281
21
26.8787
0
LINE
8
Black
10
13.6281
20
26.8787
11
13.6276
21
26.8843
0
LINE
8
Black
10
13.6276
20
26.8843
11
13.6319
21
26.9003
0
LINE
8
Black
10
13.6319
20
26.9003
11
13.6348
21
26.9166
0
LINE
8
Black
10
13.6348
20
26.9166
11
13.6376
21
26.9215
0
LINE
8
Black
10
13.6376
20
26.9215
11
13.639
21
26.9269
0
LINE
8
Black
10
13.639
20
26.9269
11
13.6485
21
26.9405
0
LINE
8
Black
10
13.6485
20
26.9405
11
13.6568
21
26.9548
0
LINE
8
Black
10
13.6568
20
26.9548
11
13.6611
21
26.9584
0
LINE
8
Black
10
13.6611
20
26.9584
11
13.6643
21
26.963
0
LINE
8
Black
10
13.6643
20
26.963
11
13.9857
21
27.2844
0
LINE
8
Black
10
13.9857
20
27.2844
11
13.9903
21
27.2876
0
LINE
8
Black
10
13.9903
20
27.2876
11
13.9939
21
27.2919
0
LINE
8
Black
10
13.9939
20
27.2919
11
14.0082
21
27.3002
0
LINE
8
Black
10
14.0082
20
27.3002
11
14.0218
21
27.3097
0
LINE
8
Black
10
14.0218
20
27.3097
11
14.0272
21
27.3111
0
LINE
8
Black
10
14.0272
20
27.3111
11
14.0321
21
27.3139
0
LINE
8
Black
10
14.0321
20
27.3139
11
14.0484
21
27.3168
0
LINE
8
Black
10
14.0484
20
27.3168
11
14.0644
21
27.3211
0
LINE
8
Black
10
14.0644
20
27.3211
11
14.07
21
27.3206
0
LINE
8
Black
10
14.07
20
27.3206
11
14.0755
21
27.3216
0
LINE
8
Black
10
14.0755
20
27.3216
11
14.5201
21
27.3216
0
LINE
8
Black
10
14.5201
20
27.3216
11
14.5201
21
27.4946
0
LINE
8
Black
10
14.5201
20
27.4946
11
14.6431
21
27.4946
0
LINE
8
Black
10
14.6431
20
27.4946
11
14.6431
21
29.4776
0
LINE
8
Black
10
14.6431
20
29.4776
11
13.9201
21
29.4776
0
LINE
8
Black
10
13.9201
20
29.4776
11
13.9201
21
31.1776
0
LINE
8
Black
10
13.9201
20
31.1776
11
15.6201
21
31.1776
0
LINE
8
Black
10
15.6201
20
31.1776
11
15.6201
21
29.4776
0
LINE
8
Black
10
18.575
20
3.11908
11
18.8051
21
2.98626
0
LINE
8
Black
10
18.8051
20
2.98626
11
18.9758
21
2.78275
0
LINE
8
Black
10
18.9758
20
2.78275
11
19.0667
21
2.53313
0
LINE
8
Black
10
19.0667
20
2.53313
11
19.0667
21
2.26747
0
LINE
8
Black
10
19.0667
20
2.26747
11
18.9758
21
2.01784
0
LINE
8
Black
10
18.9758
20
2.01784
11
18.8051
21
1.81434
0
LINE
8
Black
10
18.8051
20
1.81434
11
18.575
21
1.68152
0
LINE
8
Black
10
18.575
20
1.68152
11
18.3134
21
1.63539
0
LINE
8
Black
10
18.3134
20
1.63539
11
18.0518
21
1.68152
0
LINE
8
Black
10
18.0518
20
1.68152
11
17.8217
21
1.81434
0
LINE
8
Black
10
17.8217
20
1.81434
11
17.651
21
2.01784
0
LINE
8
Black
10
17.651
20
2.01784
11
17.5601
21
2.26747
0
LINE
8
Black
10
17.5601
20
2.26747
11
17.5601
21
2.53313
0
LINE
8
Black
10
17.5601
20
2.53313
11
17.651
21
2.78275
0
LINE
8
Black
10
17.651
20
2.78275
11
17.8217
21
2.98626
0
LINE
8
Black
10
17.8217
20
2.98626
11
18.0518
21
3.11908
0
LINE
8
Black
10
18.0518
20
3.11908
11
18.3134
21
3.16521
0
LINE
8
Black
10
18.3134
20
3.16521
11
18.575
21
3.11908
0
LINE
8
Black
10
22.0082
20
6.1016
11
21.8352
21
6.1016
0
LINE
8
Black
10
21.8352
20
6.1016
11
21.8352
21
5.6213
0
LINE
8
Black
10
21.8352
20
5.6213
11
21.9225
21
5.6213
0
LINE
8
Black
10
21.9225
20
5.6213
11
21.9225
21
5.0213
0
LINE
8
Black
10
21.9225
20
5.0213
11
21.5225
21
5.0213
0
LINE
8
Black
10
21.5225
20
5.0213
11
21.5225
21
5.6213
0
LINE
8
Black
10
21.5225
20
5.6213
11
21.5812
21
5.6213
0
LINE
8
Black
10
21.5812
20
5.6213
11
21.5812
21
6.1016
0
LINE
8
Black
10
21.5812
20
6.1016
11
21.4082
21
6.1016
0
LINE
8
Black
10
21.4082
20
6.1016
11
21.4082
21
6.8016
0
LINE
8
Black
10
21.4082
20
6.8016
11
22.0082
21
6.8016
0
LINE
8
Black
10
22.0082
20
6.8016
11
22.0082
21
6.1016
0
LINE
8
Black
10
19.1986
20
12.0939
11
19.5005
21
11.9196
0
LINE
8
Black
10
19.5005
20
11.9196
11
19.7246
21
11.6525
0
LINE
8
Black
10
19.7246
20
11.6525
11
19.8439
21
11.3249
0
LINE
8
Black
10
19.8439
20
11.3249
11
19.8439
21
10.9763
0
LINE
8
Black
10
19.8439
20
10.9763
11
19.7246
21
10.6487
0
LINE
8
Black
10
19.7246
20
10.6487
11
19.5005
21
10.3816
0
LINE
8
Black
10
19.5005
20
10.3816
11
19.1986
21
10.2073
0
LINE
8
Black
10
19.1986
20
10.2073
11
18.8553
21
10.1468
0
LINE
8
Black
10
18.8553
20
10.1468
11
18.512
21
10.2073
0
LINE
8
Black
10
18.512
20
10.2073
11
18.2101
21
10.3816
0
LINE
8
Black
10
18.2101
20
10.3816
11
17.986
21
10.6487
0
LINE
8
Black
10
17.986
20
10.6487
11
17.8667
21
10.9763
0
LINE
8
Black
10
17.8667
20
10.9763
11
17.8667
21
11.3249
0
LINE
8
Black
10
17.8667
20
11.3249
11
17.986
21
11.6525
0
LINE
8
Black
10
17.986
20
11.6525
11
18.2101
21
11.9196
0
LINE
8
Black
10
18.2101
20
11.9196
11
18.512
21
12.0939
0
LINE
8
Black
10
18.512
20
12.0939
11
18.8553
21
12.1544
0
LINE
8
Black
10
18.8553
20
12.1544
11
19.1986
21
12.0939
0
LINE
8
Black
10
23.6986
20
12.0939
11
24.0005
21
11.9196
0
LINE
8
Black
10
24.0005
20
11.9196
11
24.2246
21
11.6525
0
LINE
8
Black
10
24.2246
20
11.6525
11
24.3439
21
11.3249
0
LINE
8
Black
10
24.3439
20
11.3249
11
24.3439
21
10.9763
0
LINE
8
Black
10
24.3439
20
10.9763
11
24.2246
21
10.6487
0
LINE
8
Black
10
24.2246
20
10.6487
11
24.0005
21
10.3816
0
LINE
8
Black
10
24.0005
20
10.3816
11
23.6986
21
10.2073
0
LINE
8
Black
10
23.6986
20
10.2073
11
23.3553
21
10.1468
0
LINE
8
Black
10
23.3553
20
10.1468
11
23.012
21
10.2073
0
LINE
8
Black
10
23.012
20
10.2073
11
22.7101
21
10.3816
0
LINE
8
Black
10
22.7101
20
10.3816
11
22.486
21
10.6487
0
LINE
8
Black
10
22.486
20
10.6487
11
22.3667
21
10.9763
0
LINE
8
Black
10
22.3667
20
10.9763
11
22.3667
21
11.3249
0
LINE
8
Black
10
22.3667
20
11.3249
11
22.486
21
11.6525
0
LINE
8
Black
10
22.486
20
11.6525
11
22.7101
21
11.9196
0
LINE
8
Black
10
22.7101
20
11.9196
11
23.012
21
12.0939
0
LINE
8
Black
10
23.012
20
12.0939
11
23.3553
21
12.1544
0
LINE
8
Black
10
23.3553
20
12.1544
11
23.6986
21
12.0939
0
LINE
8
Black
10
23.6986
20
18.5939
11
24.0005
21
18.4196
0
LINE
8
Black
10
24.0005
20
18.4196
11
24.2246
21
18.1525
0
LINE
8
Black
10
24.2246
20
18.1525
11
24.3439
21
17.8249
0
LINE
8
Black
10
24.3439
20
17.8249
11
24.3439
21
17.4763
0
LINE
8
Black
10
24.3439
20
17.4763
11
24.2246
21
17.1487
0
LINE
8
Black
10
24.2246
20
17.1487
11
24.0005
21
16.8816
0
LINE
8
Black
10
24.0005
20
16.8816
11
23.6986
21
16.7073
0
LINE
8
Black
10
23.6986
20
16.7073
11
23.3553
21
16.6468
0
LINE
8
Black
10
23.3553
20
16.6468
11
23.012
21
16.7073
0
LINE
8
Black
10
23.012
20
16.7073
11
22.7101
21
16.8816
0
LINE
8
Black
10
22.7101
20
16.8816
11
22.486
21
17.1487
0
LINE
8
Black
10
22.486
20
17.1487
11
22.3667
21
17.4763
0
LINE
8
Black
10
22.3667
20
17.4763
11
22.3667
21
17.8249
0
LINE
8
Black
10
22.3667
20
17.8249
11
22.486
21
18.1525
0
LINE
8
Black
10
22.486
20
18.1525
11
22.7101
21
18.4196
0
LINE
8
Black
10
22.7101
20
18.4196
11
23.012
21
18.5939
0
LINE
8
Black
10
23.012
20
18.5939
11
23.3553
21
18.6544
0
LINE
8
Black
10
23.3553
20
18.6544
11
23.6986
21
18.5939
0
LINE
8
Black
10
27.5666
20
20.6197
11
27.7967
21
20.4869
0
LINE
8
Black
10
27.7967
20
20.4869
11
27.9674
21
20.2834
0
LINE
8
Black
10
27.9674
20
20.2834
11
28.0583
21
20.0337
0
LINE
8
Black
10
28.0583
20
20.0337
11
28.0583
21
19.7681
0
LINE
8
Black
10
28.0583
20
19.7681
11
27.9674
21
19.5184
0
LINE
8
Black
10
27.9674
20
19.5184
11
27.7967
21
19.3149
0
LINE
8
Black
10
27.7967
20
19.3149
11
27.5666
21
19.1821
0
LINE
8
Black
10
27.5666
20
19.1821
11
27.305
21
19.136
0
LINE
8
Black
10
27.305
20
19.136
11
27.0434
21
19.1821
0
LINE
8
Black
10
27.0434
20
19.1821
11
26.8133
21
19.3149
0
LINE
8
Black
10
26.8133
20
19.3149
11
26.6426
21
19.5184
0
LINE
8
Black
10
26.6426
20
19.5184
11
26.5517
21
19.7681
0
LINE
8
Black
10
26.5517
20
19.7681
11
26.5517
21
20.0337
0
LINE
8
Black
10
26.5517
20
20.0337
11
26.6426
21
20.2834
0
LINE
8
Black
10
26.6426
20
20.2834
11
26.8133
21
20.4869
0
LINE
8
Black
10
26.8133
20
20.4869
11
27.0434
21
20.6197
0
LINE
8
Black
10
27.0434
20
20.6197
11
27.305
21
20.6658
0
LINE
8
Black
10
27.305
20
20.6658
11
27.5666
21
20.6197
0
LINE
8
Black
10
9.4695
20
26.8197
11
8.9535
21
26.8197
0
LINE
8
Black
10
8.9535
20
26.8197
11
8.9535
21
26.3144
0
LINE
8
Black
10
8.9535
20
26.3144
11
9.7155
21
26.3144
0
LINE
8
Black
10
9.7155
20
26.3144
11
9.7155
21
23.7744
0
LINE
8
Black
10
9.7155
20
23.7744
11
7.1755
21
23.7744
0
LINE
8
Black
10
7.1755
20
23.7744
11
7.1755
21
26.3144
0
LINE
8
Black
10
7.1755
20
26.3144
11
7.9375
21
26.3144
0
LINE
8
Black
10
7.9375
20
26.3144
11
7.9375
21
26.7208
0
LINE
8
Black
10
7.9375
20
26.7208
11
7.3651
21
26.7208
0
LINE
8
Black
10
7.3651
20
26.7208
11
7.19135
21
26.7514
0
LINE
8
Black
10
7.19135
20
26.7514
11
7.03856
21
26.8396
0
LINE
8
Black
10
7.03856
20
26.8396
11
6.92516
21
26.9748
0
LINE
8
Black
10
6.92516
20
26.9748
11
6.86482
21
27.1406
0
LINE
8
Black
10
6.86482
20
27.1406
11
6.86482
21
27.317
0
LINE
8
Black
10
6.86482
20
27.317
11
6.92516
21
27.4828
0
LINE
8
Black
10
6.92516
20
27.4828
11
7.03856
21
27.618
0
LINE
8
Black
10
7.03856
20
27.618
11
7.19135
21
27.7062
0
LINE
8
Black
10
7.19135
20
27.7062
11
7.3651
21
27.7368
0
LINE
8
Black
10
7.3651
20
27.7368
11
7.9695
21
27.7368
0
LINE
8
Black
10
7.9695
20
27.7368
11
7.9695
21
28.0697
0
LINE
8
Black
10
7.9695
20
28.0697
11
9.4695
21
28.0697
0
LINE
8
Black
10
9.4695
20
28.0697
11
9.4695
21
26.8197
0
LINE
8
Black
10
16.302
20
26.4613
11
16.8266
21
26.4613
0
LINE
8
Black
10
16.8266
20
26.4613
11
16.8967
21
26.5018
0
LINE
8
Black
10
16.8967
20
26.5018
11
16.9926
21
26.5187
0
LINE
8
Black
10
16.9926
20
26.5187
11
17.0885
21
26.5018
0
LINE
8
Black
10
17.0885
20
26.5018
11
17.1729
21
26.453
0
LINE
8
Black
10
17.1729
20
26.453
11
17.2355
21
26.3784
0
LINE
8
Black
10
17.2355
20
26.3784
11
17.2688
21
26.2869
0
LINE
8
Black
10
17.2688
20
26.2869
11
17.2688
21
26.1895
0
LINE
8
Black
10
17.2688
20
26.1895
11
17.2355
21
26.098
0
LINE
8
Black
10
17.2355
20
26.098
11
17.1729
21
26.0233
0
LINE
8
Black
10
17.1729
20
26.0233
11
17.0885
21
25.9746
0
LINE
8
Black
10
17.0885
20
25.9746
11
16.9926
21
25.9577
0
LINE
8
Black
10
16.9926
20
25.9577
11
16.8967
21
25.9746
0
LINE
8
Black
10
16.8967
20
25.9746
11
16.8123
21
26.0233
0
LINE
8
Black
10
16.8123
20
26.0233
11
16.7497
21
26.098
0
LINE
8
Black
10
16.7497
20
26.098
11
16.7164
21
26.1895
0
LINE
8
Black
10
16.7164
20
26.1895
11
16.7164
21
26.2073
0
LINE
8
Black
10
16.7164
20
26.2073
11
16.302
21
26.2073
0
LINE
8
Black
10
16.302
20
26.2073
11
16.302
21
26.1343
0
LINE
8
Black
10
16.302
20
26.1343
11
15.702
21
26.1343
0
LINE
8
Black
10
15.702
20
26.1343
11
15.702
21
26.5343
0
LINE
8
Black
10
15.702
20
26.5343
11
16.302
21
26.5343
0
LINE
8
Black
10
16.302
20
26.5343
11
16.302
21
26.4613
0
LINE
8
Black
10
0.1388
20
29.4776
11
-1.5612
21
29.4776
0
LINE
8
Black
10
-1.5612
20
29.4776
11
-1.5612
21
31.1776
0
LINE
8
Black
10
-1.5612
20
31.1776
11
0.1388
21
31.1776
0
LINE
8
Black
10
0.1388
20
31.1776
11
0.1388
21
29.4776
0
LINE
8
Black
10
-2.4012
20
29.4776
11
-4.1012
21
29.4776
0
LINE
8
Black
10
-4.1012
20
29.4776
11
-4.1012
21
31.1776
0
LINE
8
Black
10
-4.1012
20
31.1776
11
-2.4012
21
31.1776
0
LINE
8
Black
10
-2.4012
20
31.1776
11
-2.4012
21
29.4776
0
LINE
8
Black
10
9.82471
20
31.5163
11
10.0548
21
31.3835
0
LINE
8
Black
10
10.0548
20
31.3835
11
10.2255
21
31.18
0
LINE
8
Black
10
10.2255
20
31.18
11
10.3164
21
30.9303
0
LINE
8
Black
10
10.3164
20
30.9303
11
10.3164
21
30.6647
0
LINE
8
Black
10
10.3164
20
30.6647
11
10.2255
21
30.415
0
LINE
8
Black
10
10.2255
20
30.415
11
10.0548
21
30.2115
0
LINE
8
Black
10
10.0548
20
30.2115
11
9.82471
21
30.0787
0
LINE
8
Black
10
9.82471
20
30.0787
11
9.5631
21
30.0326
0
LINE
8
Black
10
9.5631
20
30.0326
11
9.30148
21
30.0787
0
LINE
8
Black
10
9.30148
20
30.0787
11
9.07142
21
30.2115
0
LINE
8
Black
10
9.07142
20
30.2115
11
8.90067
21
30.415
0
LINE
8
Black
10
8.90067
20
30.415
11
8.80981
21
30.6647
0
LINE
8
Black
10
8.80981
20
30.6647
11
8.80981
21
30.9303
0
LINE
8
Black
10
8.80981
20
30.9303
11
8.90067
21
31.18
0
LINE
8
Black
10
8.90067
20
31.18
11
9.07142
21
31.3835
0
LINE
8
Black
10
9.07142
20
31.3835
11
9.30148
21
31.5163
0
LINE
8
Black
10
9.30148
20
31.5163
11
9.5631
21
31.5624
0
LINE
8
Black
10
9.5631
20
31.5624
11
9.82471
21
31.5163
0
CIRCLE
8
Black
10
16.9926
20
26.2382
40
0.127
0
CIRCLE
8
Black
10
18.3769
20
5.6642
40
0.127
0
CIRCLE
8
Black
10
0.27305
20
1.96215
40
0.381
0
CIRCLE
8
Black
10
12.4714
20
26.2382
40
0.381
0
CIRCLE
8
Black
10
3.6322
20
25.908
40
0.127
0
CIRCLE
8
Black
10
16.9164
20
6.7437
40
0.127
0
CIRCLE
8
Black
10
11.3157
20
25.9842
40
0.127
  0
ENDSEC
  0
EOF
