  0
SECTION
  2
HEADER
  9
$ANGBASE
  50
0.0
  9
$ANGDIR
  70
  1
  9
$MEASUREMENT
  70
0
  0
ENDSEC
  0
SECTION
  2
TABLES
  0
TABLE
  2
LTYPE
  70
1
  0
LTYPE
  2
CONTINUOUS
  70
0
  3
Solid line
  72
65
  73
0
  40
0.0
  0
ENDTAB
  0
TABLE
  2
STYLE
  70
4
  0
STYLE
  2
KICAD
  70
0
  40
0
  41
1
  42
1
  50
0
  71
0
  3
isocp.shx
  0
STYLE
  2
KICADB
  70
0
  40
0
  41
1
  42
1
  50
0
  71
0
  3
isocp.shx
  0
STYLE
  2
KICADI
  70
0
  40
0
  41
1
  42
1
  50
15
  71
0
  3
isocp.shx
  0
STYLE
  2
KICADBI
  70
0
  40
0
  41
1
  42
1
  50
15
  71
0
  3
isocp.shx
  0
ENDTAB
  0
TABLE
  2
LAYER
  70
30
  0
LAYER
  2
BLACK
  70
0
  62
7
  6
CONTINUOUS
  0
LAYER
  2
GRAY1
  70
0
  62
251
  6
CONTINUOUS
  0
LAYER
  2
GRAY2
  70
0
  62
8
  6
CONTINUOUS
  0
LAYER
  2
GRAY3
  70
0
  62
9
  6
CONTINUOUS
  0
LAYER
  2
WHITE
  70
0
  62
7
  6
CONTINUOUS
  0
LAYER
  2
LYELLOW
  70
0
  62
51
  6
CONTINUOUS
  0
LAYER
  2
BLUE1
  70
0
  62
178
  6
CONTINUOUS
  0
LAYER
  2
GREEN1
  70
0
  62
98
  6
CONTINUOUS
  0
LAYER
  2
CYAN1
  70
0
  62
138
  6
CONTINUOUS
  0
LAYER
  2
RED1
  70
0
  62
18
  6
CONTINUOUS
  0
LAYER
  2
MAGENTA1
  70
0
  62
228
  6
CONTINUOUS
  0
LAYER
  2
BROWN1
  70
0
  62
58
  6
CONTINUOUS
  0
LAYER
  2
BLUE2
  70
0
  62
5
  6
CONTINUOUS
  0
LAYER
  2
GREEN2
  70
0
  62
3
  6
CONTINUOUS
  0
LAYER
  2
CYAN2
  70
0
  62
4
  6
CONTINUOUS
  0
LAYER
  2
RED2
  70
0
  62
1
  6
CONTINUOUS
  0
LAYER
  2
MAGENTA2
  70
0
  62
6
  6
CONTINUOUS
  0
LAYER
  2
BROWN2
  70
0
  62
54
  6
CONTINUOUS
  0
LAYER
  2
BLUE3
  70
0
  62
171
  6
CONTINUOUS
  0
LAYER
  2
GREEN3
  70
0
  62
91
  6
CONTINUOUS
  0
LAYER
  2
CYAN3
  70
0
  62
131
  6
CONTINUOUS
  0
LAYER
  2
RED3
  70
0
  62
11
  6
CONTINUOUS
  0
LAYER
  2
MAGENTA3
  70
0
  62
221
  6
CONTINUOUS
  0
LAYER
  2
YELLOW3
  70
0
  62
2
  6
CONTINUOUS
  0
LAYER
  2
BLUE4
  70
0
  62
5
  6
CONTINUOUS
  0
LAYER
  2
GREEN4
  70
0
  62
3
  6
CONTINUOUS
  0
LAYER
  2
CYAN4
  70
0
  62
4
  6
CONTINUOUS
  0
LAYER
  2
RED4
  70
0
  62
1
  6
CONTINUOUS
  0
LAYER
  2
MAGENTA4
  70
0
  62
6
  6
CONTINUOUS
  0
LAYER
  2
YELLOW4
  70
0
  62
2
  6
CONTINUOUS
  0
ENDTAB
  0
ENDSEC
  0
SECTION
  2
ENTITIES
0
LINE
8
Black
10
10.49
20
0.260482
11
10.5081
21
0.250063
0
LINE
8
Black
10
10.5081
20
0.250063
11
10.5215
21
0.2341
0
LINE
8
Black
10
10.5215
20
0.2341
11
10.5286
21
0.214519
0
LINE
8
Black
10
10.5286
20
0.214519
11
10.5286
21
0.193681
0
LINE
8
Black
10
10.5286
20
0.193681
11
10.5215
21
0.1741
0
LINE
8
Black
10
10.5215
20
0.1741
11
10.5081
21
0.158137
0
LINE
8
Black
10
10.5081
20
0.158137
11
10.49
21
0.147718
0
LINE
8
Black
10
10.49
20
0.147718
11
10.4695
21
0.1441
0
LINE
8
Black
10
10.4695
20
0.1441
11
9.4695
21
0.1441
0
LINE
8
Black
10
9.4695
20
0.1441
11
9.44898
21
0.147718
0
LINE
8
Black
10
9.44898
20
0.147718
11
9.43093
21
0.158137
0
LINE
8
Black
10
9.43093
20
0.158137
11
9.41754
21
0.1741
0
LINE
8
Black
10
9.41754
20
0.1741
11
9.41041
21
0.193681
0
LINE
8
Black
10
9.41041
20
0.193681
11
9.41041
21
0.214519
0
LINE
8
Black
10
9.41041
20
0.214519
11
9.41754
21
0.2341
0
LINE
8
Black
10
9.41754
20
0.2341
11
9.43093
21
0.250063
0
LINE
8
Black
10
9.43093
20
0.250063
11
9.44898
21
0.260482
0
LINE
8
Black
10
9.44898
20
0.260482
11
9.4695
21
0.2641
0
LINE
8
Black
10
9.4695
20
0.2641
11
10.4695
21
0.2641
0
LINE
8
Black
10
10.4695
20
0.2641
11
10.49
21
0.260482
0
LINE
8
Black
10
7.33562
20
1.89638
11
7.35367
21
1.88596
0
LINE
8
Black
10
7.35367
20
1.88596
11
7.36706
21
1.87
0
LINE
8
Black
10
7.36706
20
1.87
11
7.37419
21
1.85042
0
LINE
8
Black
10
7.37419
20
1.85042
11
7.37419
21
1.82958
0
LINE
8
Black
10
7.37419
20
1.82958
11
7.36706
21
1.81
0
LINE
8
Black
10
7.36706
20
1.81
11
7.35367
21
1.79404
0
LINE
8
Black
10
7.35367
20
1.79404
11
7.33562
21
1.78362
0
LINE
8
Black
10
7.33562
20
1.78362
11
7.3151
21
1.78
0
LINE
8
Black
10
7.3151
20
1.78
11
5.2751
21
1.78
0
LINE
8
Black
10
5.2751
20
1.78
11
5.2751
21
0.76
0
LINE
8
Black
10
5.2751
20
0.76
11
7.3151
21
0.76
0
LINE
8
Black
10
7.3151
20
0.76
11
7.33562
21
0.756382
0
LINE
8
Black
10
7.33562
20
0.756382
11
7.35367
21
0.745963
0
LINE
8
Black
10
7.35367
20
0.745963
11
7.36706
21
0.73
0
LINE
8
Black
10
7.36706
20
0.73
11
7.37419
21
0.710419
0
LINE
8
Black
10
7.37419
20
0.710419
11
7.37419
21
0.689581
0
LINE
8
Black
10
7.37419
20
0.689581
11
7.36706
21
0.67
0
LINE
8
Black
10
7.36706
20
0.67
11
7.35367
21
0.654037
0
LINE
8
Black
10
7.35367
20
0.654037
11
7.33562
21
0.643618
0
LINE
8
Black
10
7.33562
20
0.643618
11
7.3151
21
0.64
0
LINE
8
Black
10
7.3151
20
0.64
11
5.2151
21
0.64
0
LINE
8
Black
10
5.2151
20
0.64
11
5.20993
21
0.640912
0
LINE
8
Black
10
5.20993
20
0.640912
11
5.20468
21
0.640912
0
LINE
8
Black
10
5.20468
20
0.640912
11
5.19975
21
0.642706
0
LINE
8
Black
10
5.19975
20
0.642706
11
5.19458
21
0.643618
0
LINE
8
Black
10
5.19458
20
0.643618
11
5.19003
21
0.646243
0
LINE
8
Black
10
5.19003
20
0.646243
11
5.1851
21
0.648038
0
LINE
8
Black
10
5.1851
20
0.648038
11
5.18108
21
0.651413
0
LINE
8
Black
10
5.18108
20
0.651413
11
5.17653
21
0.654037
0
LINE
8
Black
10
5.17653
20
0.654037
11
5.17316
21
0.658058
0
LINE
8
Black
10
5.17316
20
0.658058
11
5.16914
21
0.661433
0
LINE
8
Black
10
5.16914
20
0.661433
11
5.16651
21
0.665978
0
LINE
8
Black
10
5.16651
20
0.665978
11
5.16314
21
0.67
0
LINE
8
Black
10
5.16314
20
0.67
11
5.16134
21
0.674933
0
LINE
8
Black
10
5.16134
20
0.674933
11
5.15872
21
0.679479
0
LINE
8
Black
10
5.15872
20
0.679479
11
5.15781
21
0.684651
0
LINE
8
Black
10
5.15781
20
0.684651
11
5.15601
21
0.689581
0
LINE
8
Black
10
5.15601
20
0.689581
11
5.15601
21
0.694827
0
LINE
8
Black
10
5.15601
20
0.694827
11
5.1551
21
0.7
0
LINE
8
Black
10
5.1551
20
0.7
11
5.1551
21
1.84
0
LINE
8
Black
10
5.1551
20
1.84
11
5.15601
21
1.84517
0
LINE
8
Black
10
5.15601
20
1.84517
11
5.15601
21
1.85042
0
LINE
8
Black
10
5.15601
20
1.85042
11
5.15781
21
1.85535
0
LINE
8
Black
10
5.15781
20
1.85535
11
5.15872
21
1.86052
0
LINE
8
Black
10
5.15872
20
1.86052
11
5.16134
21
1.86507
0
LINE
8
Black
10
5.16134
20
1.86507
11
5.16314
21
1.87
0
LINE
8
Black
10
5.16314
20
1.87
11
5.16651
21
1.87402
0
LINE
8
Black
10
5.16651
20
1.87402
11
5.16914
21
1.87857
0
LINE
8
Black
10
5.16914
20
1.87857
11
5.17316
21
1.88194
0
LINE
8
Black
10
5.17316
20
1.88194
11
5.17653
21
1.88596
0
LINE
8
Black
10
5.17653
20
1.88596
11
5.18108
21
1.88859
0
LINE
8
Black
10
5.18108
20
1.88859
11
5.1851
21
1.89196
0
LINE
8
Black
10
5.1851
20
1.89196
11
5.19003
21
1.89376
0
LINE
8
Black
10
5.19003
20
1.89376
11
5.19458
21
1.89638
0
LINE
8
Black
10
5.19458
20
1.89638
11
5.19975
21
1.89729
0
LINE
8
Black
10
5.19975
20
1.89729
11
5.20468
21
1.89909
0
LINE
8
Black
10
5.20468
20
1.89909
11
5.20993
21
1.89909
0
LINE
8
Black
10
5.20993
20
1.89909
11
5.2151
21
1.9
0
LINE
8
Black
10
5.2151
20
1.9
11
7.3151
21
1.9
0
LINE
8
Black
10
7.3151
20
1.9
11
7.33562
21
1.89638
0
LINE
8
Black
10
10.49
20
1.96048
11
10.5081
21
1.95006
0
LINE
8
Black
10
10.5081
20
1.95006
11
10.5215
21
1.9341
0
LINE
8
Black
10
10.5215
20
1.9341
11
10.5286
21
1.91452
0
LINE
8
Black
10
10.5286
20
1.91452
11
10.5286
21
1.89368
0
LINE
8
Black
10
10.5286
20
1.89368
11
10.5215
21
1.8741
0
LINE
8
Black
10
10.5215
20
1.8741
11
10.5081
21
1.85814
0
LINE
8
Black
10
10.5081
20
1.85814
11
10.49
21
1.84772
0
LINE
8
Black
10
10.49
20
1.84772
11
10.4695
21
1.8441
0
LINE
8
Black
10
10.4695
20
1.8441
11
9.4695
21
1.8441
0
LINE
8
Black
10
9.4695
20
1.8441
11
9.44898
21
1.84772
0
LINE
8
Black
10
9.44898
20
1.84772
11
9.43093
21
1.85814
0
LINE
8
Black
10
9.43093
20
1.85814
11
9.41754
21
1.8741
0
LINE
8
Black
10
9.41754
20
1.8741
11
9.41041
21
1.89368
0
LINE
8
Black
10
9.41041
20
1.89368
11
9.41041
21
1.91452
0
LINE
8
Black
10
9.41041
20
1.91452
11
9.41754
21
1.9341
0
LINE
8
Black
10
9.41754
20
1.9341
11
9.43093
21
1.95006
0
LINE
8
Black
10
9.43093
20
1.95006
11
9.44898
21
1.96048
0
LINE
8
Black
10
9.44898
20
1.96048
11
9.4695
21
1.9641
0
LINE
8
Black
10
9.4695
20
1.9641
11
10.4695
21
1.9641
0
LINE
8
Black
10
10.4695
20
1.9641
11
10.49
21
1.96048
0
LINE
8
Black
10
6.7801
20
2.55678
11
6.78426
21
2.55678
0
LINE
8
Black
10
6.78426
20
2.55678
11
6.78818
21
2.55536
0
LINE
8
Black
10
6.78818
20
2.55536
11
6.79228
21
2.55464
0
LINE
8
Black
10
6.79228
20
2.55464
11
6.79589
21
2.55255
0
LINE
8
Black
10
6.79589
20
2.55255
11
6.79981
21
2.55113
0
LINE
8
Black
10
6.79981
20
2.55113
11
6.803
21
2.54845
0
LINE
8
Black
10
6.803
20
2.54845
11
6.80661
21
2.54637
0
LINE
8
Black
10
6.80661
20
2.54637
11
6.80928
21
2.54317
0
LINE
8
Black
10
6.80928
20
2.54317
11
6.81248
21
2.5405
0
LINE
8
Black
10
6.81248
20
2.5405
11
6.81456
21
2.53688
0
LINE
8
Black
10
6.81456
20
2.53688
11
6.81724
21
2.53369
0
LINE
8
Black
10
6.81724
20
2.53369
11
6.81866
21
2.52978
0
LINE
8
Black
10
6.81866
20
2.52978
11
6.82075
21
2.52617
0
LINE
8
Black
10
6.82075
20
2.52617
11
6.82147
21
2.52207
0
LINE
8
Black
10
6.82147
20
2.52207
11
6.82289
21
2.51815
0
LINE
8
Black
10
6.82289
20
2.51815
11
6.82289
21
2.51399
0
LINE
8
Black
10
6.82289
20
2.51399
11
6.82362
21
2.50988
0
LINE
8
Black
10
6.82362
20
2.50988
11
6.82362
21
2.12888
0
LINE
8
Black
10
6.82362
20
2.12888
11
6.82289
21
2.12478
0
LINE
8
Black
10
6.82289
20
2.12478
11
6.82289
21
2.12061
0
LINE
8
Black
10
6.82289
20
2.12061
11
6.82147
21
2.1167
0
LINE
8
Black
10
6.82147
20
2.1167
11
6.82075
21
2.11259
0
LINE
8
Black
10
6.82075
20
2.11259
11
6.81866
21
2.10898
0
LINE
8
Black
10
6.81866
20
2.10898
11
6.81724
21
2.10507
0
LINE
8
Black
10
6.81724
20
2.10507
11
6.81456
21
2.10188
0
LINE
8
Black
10
6.81456
20
2.10188
11
6.81248
21
2.09827
0
LINE
8
Black
10
6.81248
20
2.09827
11
6.80929
21
2.09559
0
LINE
8
Black
10
6.80929
20
2.09559
11
6.80661
21
2.0924
0
LINE
8
Black
10
6.80661
20
2.0924
11
6.803
21
2.09031
0
LINE
8
Black
10
6.803
20
2.09031
11
6.79981
21
2.08764
0
LINE
8
Black
10
6.79981
20
2.08764
11
6.79589
21
2.08622
0
LINE
8
Black
10
6.79589
20
2.08622
11
6.79228
21
2.08413
0
LINE
8
Black
10
6.79228
20
2.08413
11
6.78818
21
2.08341
0
LINE
8
Black
10
6.78818
20
2.08341
11
6.78426
21
2.08198
0
LINE
8
Black
10
6.78426
20
2.08198
11
6.7801
21
2.08198
0
LINE
8
Black
10
6.7801
20
2.08198
11
6.77599
21
2.08126
0
LINE
8
Black
10
6.77599
20
2.08126
11
6.68528
21
2.08126
0
LINE
8
Black
10
6.68528
20
2.08126
11
6.67776
21
2.08258
0
LINE
8
Black
10
6.67776
20
2.08258
11
6.67022
21
2.0837
0
LINE
8
Black
10
6.67022
20
2.0837
11
6.61579
21
2.10184
0
LINE
8
Black
10
6.61579
20
2.10184
11
6.61337
21
2.10315
0
LINE
8
Black
10
6.61337
20
2.10315
11
6.61072
21
2.10386
0
LINE
8
Black
10
6.61072
20
2.10386
11
6.60615
21
2.10706
0
LINE
8
Black
10
6.60615
20
2.10706
11
6.60125
21
2.10972
0
LINE
8
Black
10
6.60125
20
2.10972
11
6.59943
21
2.11177
0
LINE
8
Black
10
6.59943
20
2.11177
11
6.59718
21
2.11335
0
LINE
8
Black
10
6.59718
20
2.11335
11
6.56089
21
2.14963
0
LINE
8
Black
10
6.56089
20
2.14963
11
6.55652
21
2.15587
0
LINE
8
Black
10
6.55652
20
2.15587
11
6.55197
21
2.16201
0
LINE
8
Black
10
6.55197
20
2.16201
11
6.53382
21
2.1983
0
LINE
8
Black
10
6.53382
20
2.1983
11
6.53234
21
2.20329
0
LINE
8
Black
10
6.53234
20
2.20329
11
6.53022
21
2.20805
0
LINE
8
Black
10
6.53022
20
2.20805
11
6.51208
21
2.28062
0
LINE
8
Black
10
6.51208
20
2.28062
11
6.51167
21
2.28643
0
LINE
8
Black
10
6.51167
20
2.28643
11
6.51065
21
2.29217
0
LINE
8
Black
10
6.51065
20
2.29217
11
6.51065
21
2.3466
0
LINE
8
Black
10
6.51065
20
2.3466
11
6.51167
21
2.35234
0
LINE
8
Black
10
6.51167
20
2.35234
11
6.51208
21
2.35815
0
LINE
8
Black
10
6.51208
20
2.35815
11
6.53022
21
2.43072
0
LINE
8
Black
10
6.53022
20
2.43072
11
6.53234
21
2.43548
0
LINE
8
Black
10
6.53234
20
2.43548
11
6.53382
21
2.44047
0
LINE
8
Black
10
6.53382
20
2.44047
11
6.55197
21
2.47675
0
LINE
8
Black
10
6.55197
20
2.47675
11
6.55652
21
2.48288
0
LINE
8
Black
10
6.55652
20
2.48288
11
6.56089
21
2.48913
0
LINE
8
Black
10
6.56089
20
2.48913
11
6.59718
21
2.52542
0
LINE
8
Black
10
6.59718
20
2.52542
11
6.59943
21
2.52699
0
LINE
8
Black
10
6.59943
20
2.52699
11
6.60125
21
2.52904
0
LINE
8
Black
10
6.60125
20
2.52904
11
6.60615
21
2.5317
0
LINE
8
Black
10
6.60615
20
2.5317
11
6.61072
21
2.5349
0
LINE
8
Black
10
6.61072
20
2.5349
11
6.61338
21
2.53561
0
LINE
8
Black
10
6.61338
20
2.53561
11
6.61579
21
2.53692
0
LINE
8
Black
10
6.61579
20
2.53692
11
6.67022
21
2.55506
0
LINE
8
Black
10
6.67022
20
2.55506
11
6.67776
21
2.55618
0
LINE
8
Black
10
6.67776
20
2.55618
11
6.68528
21
2.55751
0
LINE
8
Black
10
6.68528
20
2.55751
11
6.77599
21
2.55751
0
LINE
8
Black
10
6.77599
20
2.55751
11
6.7801
21
2.55678
0
LINE
8
Black
10
6.69301
20
2.46226
11
6.65658
21
2.45011
0
LINE
8
Black
10
6.65658
20
2.45011
11
6.63371
21
2.42724
0
LINE
8
Black
10
6.63371
20
2.42724
11
6.62136
21
2.40254
0
LINE
8
Black
10
6.62136
20
2.40254
11
6.6059
21
2.34073
0
LINE
8
Black
10
6.6059
20
2.34073
11
6.6059
21
2.29803
0
LINE
8
Black
10
6.6059
20
2.29803
11
6.62136
21
2.23622
0
LINE
8
Black
10
6.62136
20
2.23622
11
6.63371
21
2.21152
0
LINE
8
Black
10
6.63371
20
2.21152
11
6.65658
21
2.18865
0
LINE
8
Black
10
6.65658
20
2.18865
11
6.69301
21
2.17651
0
LINE
8
Black
10
6.69301
20
2.17651
11
6.72837
21
2.17651
0
LINE
8
Black
10
6.72837
20
2.17651
11
6.72837
21
2.46226
0
LINE
8
Black
10
6.72837
20
2.46226
11
6.69301
21
2.46226
0
LINE
8
Black
10
6.33197
20
2.57468
11
6.34735
21
2.5686
0
LINE
8
Black
10
6.34735
20
2.5686
11
6.35973
21
2.55763
0
LINE
8
Black
10
6.35973
20
2.55763
11
6.3676
21
2.54309
0
LINE
8
Black
10
6.3676
20
2.54309
11
6.45832
21
2.27094
0
LINE
8
Black
10
6.45832
20
2.27094
11
6.45883
21
2.26746
0
LINE
8
Black
10
6.45883
20
2.26746
11
6.46004
21
2.26415
0
LINE
8
Black
10
6.46004
20
2.26415
11
6.46004
21
2.25934
0
LINE
8
Black
10
6.46004
20
2.25934
11
6.46074
21
2.25458
0
LINE
8
Black
10
6.46074
20
2.25458
11
6.46004
21
2.25113
0
LINE
8
Black
10
6.46004
20
2.25113
11
6.46004
21
2.24761
0
LINE
8
Black
10
6.46004
20
2.24761
11
6.45839
21
2.24309
0
LINE
8
Black
10
6.45839
20
2.24309
11
6.45743
21
2.23838
0
LINE
8
Black
10
6.45743
20
2.23838
11
6.45559
21
2.23538
0
LINE
8
Black
10
6.45559
20
2.23538
11
6.45438
21
2.23207
0
LINE
8
Black
10
6.45438
20
2.23207
11
6.45129
21
2.22838
0
LINE
8
Black
10
6.45129
20
2.22838
11
6.44877
21
2.22429
0
LINE
8
Black
10
6.44877
20
2.22429
11
6.44602
21
2.2221
0
LINE
8
Black
10
6.44602
20
2.2221
11
6.44375
21
2.2194
0
LINE
8
Black
10
6.44375
20
2.2194
11
6.43958
21
2.21699
0
LINE
8
Black
10
6.43958
20
2.21699
11
6.43581
21
2.214
0
LINE
8
Black
10
6.43581
20
2.214
11
6.43248
21
2.21289
0
LINE
8
Black
10
6.43248
20
2.21289
11
6.42943
21
2.21113
0
LINE
8
Black
10
6.42943
20
2.21113
11
6.42468
21
2.21029
0
LINE
8
Black
10
6.42468
20
2.21029
11
6.42012
21
2.20877
0
LINE
8
Black
10
6.42012
20
2.20877
11
6.41661
21
2.20887
0
LINE
8
Black
10
6.41661
20
2.20887
11
6.41314
21
2.20826
0
LINE
8
Black
10
6.41314
20
2.20826
11
6.27933
21
2.20826
0
LINE
8
Black
10
6.27933
20
2.20826
11
6.27933
21
2.12888
0
LINE
8
Black
10
6.27933
20
2.12888
11
6.27646
21
2.11259
0
LINE
8
Black
10
6.27646
20
2.11259
11
6.26819
21
2.09827
0
LINE
8
Black
10
6.26819
20
2.09827
11
6.25552
21
2.08764
0
LINE
8
Black
10
6.25552
20
2.08764
11
6.23998
21
2.08198
0
LINE
8
Black
10
6.23998
20
2.08198
11
6.22344
21
2.08198
0
LINE
8
Black
10
6.22344
20
2.08198
11
6.20789
21
2.08764
0
LINE
8
Black
10
6.20789
20
2.08764
11
6.19522
21
2.09827
0
LINE
8
Black
10
6.19522
20
2.09827
11
6.18695
21
2.11259
0
LINE
8
Black
10
6.18695
20
2.11259
11
6.18408
21
2.12888
0
LINE
8
Black
10
6.18408
20
2.12888
11
6.18408
21
2.20826
0
LINE
8
Black
10
6.18408
20
2.20826
11
6.17728
21
2.20826
0
LINE
8
Black
10
6.17728
20
2.20826
11
6.16099
21
2.21113
0
LINE
8
Black
10
6.16099
20
2.21113
11
6.14667
21
2.2194
0
LINE
8
Black
10
6.14667
20
2.2194
11
6.13603
21
2.23207
0
LINE
8
Black
10
6.13603
20
2.23207
11
6.13038
21
2.24761
0
LINE
8
Black
10
6.13038
20
2.24761
11
6.13038
21
2.26415
0
LINE
8
Black
10
6.13038
20
2.26415
11
6.13603
21
2.2797
0
LINE
8
Black
10
6.13603
20
2.2797
11
6.14667
21
2.29237
0
LINE
8
Black
10
6.14667
20
2.29237
11
6.16099
21
2.30064
0
LINE
8
Black
10
6.16099
20
2.30064
11
6.17728
21
2.30351
0
LINE
8
Black
10
6.17728
20
2.30351
11
6.18408
21
2.30351
0
LINE
8
Black
10
6.18408
20
2.30351
11
6.18408
21
2.38288
0
LINE
8
Black
10
6.18408
20
2.38288
11
6.18695
21
2.39917
0
LINE
8
Black
10
6.18695
20
2.39917
11
6.19522
21
2.4135
0
LINE
8
Black
10
6.19522
20
2.4135
11
6.2079
21
2.42413
0
LINE
8
Black
10
6.2079
20
2.42413
11
6.22344
21
2.42978
0
LINE
8
Black
10
6.22344
20
2.42978
11
6.23998
21
2.42978
0
LINE
8
Black
10
6.23998
20
2.42978
11
6.25552
21
2.42413
0
LINE
8
Black
10
6.25552
20
2.42413
11
6.26819
21
2.4135
0
LINE
8
Black
10
6.26819
20
2.4135
11
6.27646
21
2.39917
0
LINE
8
Black
10
6.27646
20
2.39917
11
6.27933
21
2.38288
0
LINE
8
Black
10
6.27933
20
2.38288
11
6.27933
21
2.30351
0
LINE
8
Black
10
6.27933
20
2.30351
11
6.34706
21
2.30351
0
LINE
8
Black
10
6.34706
20
2.30351
11
6.27724
21
2.51297
0
LINE
8
Black
10
6.27724
20
2.51297
11
6.27481
21
2.52933
0
LINE
8
Black
10
6.27481
20
2.52933
11
6.27813
21
2.54553
0
LINE
8
Black
10
6.27813
20
2.54553
11
6.28679
21
2.55962
0
LINE
8
Black
10
6.28679
20
2.55962
11
6.29974
21
2.5699
0
LINE
8
Black
10
6.29974
20
2.5699
11
6.31544
21
2.57513
0
LINE
8
Black
10
6.31544
20
2.57513
11
6.33197
21
2.57468
0
LINE
8
Black
10
10.9937
20
2.77945
11
10.9974
21
2.77967
0
LINE
8
Black
10
10.9974
20
2.77967
11
11.0045
21
2.77755
0
LINE
8
Black
10
11.0045
20
2.77755
11
11.0118
21
2.77626
0
LINE
8
Black
10
11.0118
20
2.77626
11
11.015
21
2.77443
0
LINE
8
Black
10
11.015
20
2.77443
11
11.0185
21
2.77339
0
LINE
8
Black
10
11.0185
20
2.77339
11
11.0669
21
2.7492
0
LINE
8
Black
10
11.0669
20
2.7492
11
11.0751
21
2.74313
0
LINE
8
Black
10
11.0751
20
2.74313
11
11.0834
21
2.7373
0
LINE
8
Black
10
11.0834
20
2.7373
11
11.1076
21
2.71311
0
LINE
8
Black
10
11.1076
20
2.71311
11
11.1202
21
2.69505
0
LINE
8
Black
10
11.1202
20
2.69505
11
11.1259
21
2.67374
0
LINE
8
Black
10
11.1259
20
2.67374
11
11.124
21
2.65177
0
LINE
8
Black
10
11.124
20
2.65177
11
11.1147
21
2.63179
0
LINE
8
Black
10
11.1147
20
2.63179
11
11.0991
21
2.61619
0
LINE
8
Black
10
11.0991
20
2.61619
11
11.0791
21
2.60687
0
LINE
8
Black
10
11.0791
20
2.60687
11
11.0571
21
2.60495
0
LINE
8
Black
10
11.0571
20
2.60495
11
11.0358
21
2.61066
0
LINE
8
Black
10
11.0358
20
2.61066
11
11.0178
21
2.62331
0
LINE
8
Black
10
11.0178
20
2.62331
11
11.0009
21
2.64021
0
LINE
8
Black
10
11.0009
20
2.64021
11
10.9751
21
2.65309
0
LINE
8
Black
10
10.9751
20
2.65309
11
10.8841
21
2.65309
0
LINE
8
Black
10
10.8841
20
2.65309
11
10.8584
21
2.64021
0
LINE
8
Black
10
10.8584
20
2.64021
11
10.8488
21
2.6306
0
LINE
8
Black
10
10.8488
20
2.6306
11
10.8359
21
2.60484
0
LINE
8
Black
10
10.8359
20
2.60484
11
10.8359
21
2.58175
0
LINE
8
Black
10
10.8359
20
2.58175
11
10.8521
21
2.53318
0
LINE
8
Black
10
10.8521
20
2.53318
11
11.1318
21
2.25349
0
LINE
8
Black
10
11.1318
20
2.25349
11
11.1365
21
2.2467
0
LINE
8
Black
10
11.1365
20
2.2467
11
11.1419
21
2.24034
0
LINE
8
Black
10
11.1419
20
2.24034
11
11.1428
21
2.23771
0
LINE
8
Black
10
11.1428
20
2.23771
11
11.1444
21
2.23543
0
LINE
8
Black
10
11.1444
20
2.23543
11
11.1466
21
2.22742
0
LINE
8
Black
10
11.1466
20
2.22742
11
11.1494
21
2.21962
0
LINE
8
Black
10
11.1494
20
2.21962
11
11.1494
21
2.21682
0
LINE
8
Black
10
11.1494
20
2.21682
11
11.1501
21
2.21413
0
LINE
8
Black
10
11.1501
20
2.21413
11
11.1494
21
2.20586
0
LINE
8
Black
10
11.1494
20
2.20586
11
11.1494
21
2.19756
0
LINE
8
Black
10
11.1494
20
2.19756
11
11.1484
21
2.19494
0
LINE
8
Black
10
11.1484
20
2.19494
11
11.1482
21
2.19216
0
LINE
8
Black
10
11.1482
20
2.19216
11
11.1447
21
2.18464
0
LINE
8
Black
10
11.1447
20
2.18464
11
11.1419
21
2.17684
0
LINE
8
Black
10
11.1419
20
2.17684
11
11.1401
21
2.1747
0
LINE
8
Black
10
11.1401
20
2.1747
11
11.1389
21
2.17217
0
LINE
8
Black
10
11.1389
20
2.17217
11
11.133
21
2.16631
0
LINE
8
Black
10
11.133
20
2.16631
11
11.1277
21
2.15995
0
LINE
8
Black
10
11.1277
20
2.15995
11
11.1253
21
2.15855
0
LINE
8
Black
10
11.1253
20
2.15855
11
11.1233
21
2.15657
0
LINE
8
Black
10
11.1233
20
2.15657
11
11.1158
21
2.15307
0
LINE
8
Black
10
11.1158
20
2.15307
11
11.1086
21
2.14892
0
LINE
8
Black
10
11.1086
20
2.14892
11
11.1058
21
2.14844
0
LINE
8
Black
10
11.1058
20
2.14844
11
11.1033
21
2.14725
0
LINE
8
Black
10
11.1033
20
2.14725
11
11.095
21
2.14653
0
LINE
8
Black
10
11.095
20
2.14653
11
11.0869
21
2.14509
0
LINE
8
Black
10
11.0869
20
2.14509
11
10.7724
21
2.14509
0
LINE
8
Black
10
10.7724
20
2.14509
11
10.7507
21
2.14892
0
LINE
8
Black
10
10.7507
20
2.14892
11
10.7316
21
2.15995
0
LINE
8
Black
10
10.7316
20
2.15995
11
10.7174
21
2.17684
0
LINE
8
Black
10
10.7174
20
2.17684
11
10.7098
21
2.19756
0
LINE
8
Black
10
10.7098
20
2.19756
11
10.7098
21
2.21962
0
LINE
8
Black
10
10.7098
20
2.21962
11
10.7174
21
2.24034
0
LINE
8
Black
10
10.7174
20
2.24034
11
10.7316
21
2.25723
0
LINE
8
Black
10
10.7316
20
2.25723
11
10.7507
21
2.26826
0
LINE
8
Black
10
10.7507
20
2.26826
11
10.7724
21
2.27209
0
LINE
8
Black
10
10.7724
20
2.27209
11
10.9336
21
2.27209
0
LINE
8
Black
10
10.9336
20
2.27209
11
10.7517
21
2.45397
0
LINE
8
Black
10
10.7517
20
2.45397
11
10.7496
21
2.45697
0
LINE
8
Black
10
10.7496
20
2.45697
11
10.7468
21
2.4594
0
LINE
8
Black
10
10.7468
20
2.4594
11
10.7433
21
2.46595
0
LINE
8
Black
10
10.7433
20
2.46595
11
10.739
21
2.47204
0
LINE
8
Black
10
10.739
20
2.47204
11
10.7381
21
2.47558
0
LINE
8
Black
10
10.7381
20
2.47558
11
10.7363
21
2.47879
0
LINE
8
Black
10
10.7363
20
2.47879
11
10.7121
21
2.55137
0
LINE
8
Black
10
10.7121
20
2.55137
11
10.7106
21
2.56143
0
LINE
8
Black
10
10.7106
20
2.56143
11
10.7089
21
2.57145
0
LINE
8
Black
10
10.7089
20
2.57145
11
10.7089
21
2.61983
0
LINE
8
Black
10
10.7089
20
2.61983
11
10.7095
21
2.62344
0
LINE
8
Black
10
10.7095
20
2.62344
11
10.7093
21
2.62709
0
LINE
8
Black
10
10.7093
20
2.62709
11
10.7114
21
2.63422
0
LINE
8
Black
10
10.7114
20
2.63422
11
10.7127
21
2.64155
0
LINE
8
Black
10
10.7127
20
2.64155
11
10.7145
21
2.64472
0
LINE
8
Black
10
10.7145
20
2.64472
11
10.7156
21
2.64823
0
LINE
8
Black
10
10.7156
20
2.64823
11
10.7398
21
2.69661
0
LINE
8
Black
10
10.7398
20
2.69661
11
10.7458
21
2.70479
0
LINE
8
Black
10
10.7458
20
2.70479
11
10.7517
21
2.71311
0
LINE
8
Black
10
10.7517
20
2.71311
11
10.7759
21
2.7373
0
LINE
8
Black
10
10.7759
20
2.7373
11
10.7842
21
2.74313
0
LINE
8
Black
10
10.7842
20
2.74313
11
10.7924
21
2.7492
0
LINE
8
Black
10
10.7924
20
2.7492
11
10.8407
21
2.77339
0
LINE
8
Black
10
10.8407
20
2.77339
11
10.8443
21
2.77443
0
LINE
8
Black
10
10.8443
20
2.77443
11
10.8474
21
2.77626
0
LINE
8
Black
10
10.8474
20
2.77626
11
10.8548
21
2.77755
0
LINE
8
Black
10
10.8548
20
2.77755
11
10.8619
21
2.77967
0
LINE
8
Black
10
10.8619
20
2.77967
11
10.8655
21
2.77945
0
LINE
8
Black
10
10.8655
20
2.77945
11
10.8691
21
2.78009
0
LINE
8
Black
10
10.8691
20
2.78009
11
10.9901
21
2.78009
0
LINE
8
Black
10
10.9901
20
2.78009
11
10.9937
21
2.77945
0
LINE
8
Black
10
11.4114
20
2.77832
11
11.4214
21
2.77683
0
LINE
8
Black
10
11.4214
20
2.77683
11
11.494
21
2.75264
0
LINE
8
Black
10
11.494
20
2.75264
11
11.4972
21
2.7509
0
LINE
8
Black
10
11.4972
20
2.7509
11
11.5007
21
2.74995
0
LINE
8
Black
10
11.5007
20
2.74995
11
11.5068
21
2.74568
0
LINE
8
Black
10
11.5068
20
2.74568
11
11.5134
21
2.74214
0
LINE
8
Black
10
11.5134
20
2.74214
11
11.5158
21
2.7394
0
LINE
8
Black
10
11.5158
20
2.7394
11
11.5188
21
2.7373
0
LINE
8
Black
10
11.5188
20
2.7373
11
11.5672
21
2.68892
0
LINE
8
Black
10
11.5672
20
2.68892
11
11.573
21
2.68061
0
LINE
8
Black
10
11.573
20
2.68061
11
11.5791
21
2.67242
0
LINE
8
Black
10
11.5791
20
2.67242
11
11.6033
21
2.62404
0
LINE
8
Black
10
11.6033
20
2.62404
11
11.6053
21
2.61738
0
LINE
8
Black
10
11.6053
20
2.61738
11
11.6081
21
2.61104
0
LINE
8
Black
10
11.6081
20
2.61104
11
11.6323
21
2.51428
0
LINE
8
Black
10
11.6323
20
2.51428
11
11.6328
21
2.50653
0
LINE
8
Black
10
11.6328
20
2.50653
11
11.6342
21
2.49888
0
LINE
8
Black
10
11.6342
20
2.49888
11
11.6342
21
2.4263
0
LINE
8
Black
10
11.6342
20
2.4263
11
11.6328
21
2.41865
0
LINE
8
Black
10
11.6328
20
2.41865
11
11.6323
21
2.4109
0
LINE
8
Black
10
11.6323
20
2.4109
11
11.6081
21
2.31414
0
LINE
8
Black
10
11.6081
20
2.31414
11
11.6053
21
2.3078
0
LINE
8
Black
10
11.6053
20
2.3078
11
11.6033
21
2.30114
0
LINE
8
Black
10
11.6033
20
2.30114
11
11.5791
21
2.25276
0
LINE
8
Black
10
11.5791
20
2.25276
11
11.573
21
2.24457
0
LINE
8
Black
10
11.573
20
2.24457
11
11.5672
21
2.23626
0
LINE
8
Black
10
11.5672
20
2.23626
11
11.5188
21
2.18788
0
LINE
8
Black
10
11.5188
20
2.18788
11
11.5158
21
2.18578
0
LINE
8
Black
10
11.5158
20
2.18578
11
11.5134
21
2.18304
0
LINE
8
Black
10
11.5134
20
2.18304
11
11.5068
21
2.1795
0
LINE
8
Black
10
11.5068
20
2.1795
11
11.5007
21
2.17523
0
LINE
8
Black
10
11.5007
20
2.17523
11
11.4972
21
2.17428
0
LINE
8
Black
10
11.4972
20
2.17428
11
11.494
21
2.17254
0
LINE
8
Black
10
11.494
20
2.17254
11
11.4214
21
2.14835
0
LINE
8
Black
10
11.4214
20
2.14835
11
11.4114
21
2.14686
0
LINE
8
Black
10
11.4114
20
2.14686
11
11.4013
21
2.14509
0
LINE
8
Black
10
11.4013
20
2.14509
11
11.353
21
2.14509
0
LINE
8
Black
10
11.353
20
2.14509
11
11.3429
21
2.14686
0
LINE
8
Black
10
11.3429
20
2.14686
11
11.3329
21
2.14835
0
LINE
8
Black
10
11.3329
20
2.14835
11
11.2603
21
2.17254
0
LINE
8
Black
10
11.2603
20
2.17254
11
11.2571
21
2.17428
0
LINE
8
Black
10
11.2571
20
2.17428
11
11.2535
21
2.17523
0
LINE
8
Black
10
11.2535
20
2.17523
11
11.2475
21
2.1795
0
LINE
8
Black
10
11.2475
20
2.1795
11
11.2409
21
2.18304
0
LINE
8
Black
10
11.2409
20
2.18304
11
11.2385
21
2.18578
0
LINE
8
Black
10
11.2385
20
2.18578
11
11.2355
21
2.18788
0
LINE
8
Black
10
11.2355
20
2.18788
11
11.2113
21
2.21207
0
LINE
8
Black
10
11.2113
20
2.21207
11
11.1986
21
2.23013
0
LINE
8
Black
10
11.1986
20
2.23013
11
11.1929
21
2.25144
0
LINE
8
Black
10
11.1929
20
2.25144
11
11.1949
21
2.27341
0
LINE
8
Black
10
11.1949
20
2.27341
11
11.2042
21
2.29339
0
LINE
8
Black
10
11.2042
20
2.29339
11
11.2198
21
2.30899
0
LINE
8
Black
10
11.2198
20
2.30899
11
11.2398
21
2.31831
0
LINE
8
Black
10
11.2398
20
2.31831
11
11.2617
21
2.32023
0
LINE
8
Black
10
11.2617
20
2.32023
11
11.283
21
2.31452
0
LINE
8
Black
10
11.283
20
2.31452
11
11.3011
21
2.30187
0
LINE
8
Black
10
11.3011
20
2.30187
11
11.3147
21
2.28828
0
LINE
8
Black
10
11.3147
20
2.28828
11
11.3633
21
2.27209
0
LINE
8
Black
10
11.3633
20
2.27209
11
11.391
21
2.27209
0
LINE
8
Black
10
11.391
20
2.27209
11
11.4396
21
2.28828
0
LINE
8
Black
10
11.4396
20
2.28828
11
11.4701
21
2.31878
0
LINE
8
Black
10
11.4701
20
2.31878
11
11.4866
21
2.35171
0
LINE
8
Black
10
11.4866
20
2.35171
11
11.5072
21
2.43412
0
LINE
8
Black
10
11.5072
20
2.43412
11
11.5072
21
2.49106
0
LINE
8
Black
10
11.5072
20
2.49106
11
11.4866
21
2.57347
0
LINE
8
Black
10
11.4866
20
2.57347
11
11.4701
21
2.60641
0
LINE
8
Black
10
11.4701
20
2.60641
11
11.4396
21
2.6369
0
LINE
8
Black
10
11.4396
20
2.6369
11
11.391
21
2.65309
0
LINE
8
Black
10
11.391
20
2.65309
11
11.3633
21
2.65309
0
LINE
8
Black
10
11.3633
20
2.65309
11
11.3147
21
2.6369
0
LINE
8
Black
10
11.3147
20
2.6369
11
11.3011
21
2.62331
0
LINE
8
Black
10
11.3011
20
2.62331
11
11.283
21
2.61066
0
LINE
8
Black
10
11.283
20
2.61066
11
11.2617
21
2.60495
0
LINE
8
Black
10
11.2617
20
2.60495
11
11.2398
21
2.60687
0
LINE
8
Black
10
11.2398
20
2.60687
11
11.2198
21
2.61619
0
LINE
8
Black
10
11.2198
20
2.61619
11
11.2042
21
2.63179
0
LINE
8
Black
10
11.2042
20
2.63179
11
11.1949
21
2.65177
0
LINE
8
Black
10
11.1949
20
2.65177
11
11.1929
21
2.67374
0
LINE
8
Black
10
11.1929
20
2.67374
11
11.1986
21
2.69505
0
LINE
8
Black
10
11.1986
20
2.69505
11
11.2113
21
2.71311
0
LINE
8
Black
10
11.2113
20
2.71311
11
11.2355
21
2.7373
0
LINE
8
Black
10
11.2355
20
2.7373
11
11.2385
21
2.7394
0
LINE
8
Black
10
11.2385
20
2.7394
11
11.2409
21
2.74214
0
LINE
8
Black
10
11.2409
20
2.74214
11
11.2475
21
2.74568
0
LINE
8
Black
10
11.2475
20
2.74568
11
11.2535
21
2.74995
0
LINE
8
Black
10
11.2535
20
2.74995
11
11.2571
21
2.7509
0
LINE
8
Black
10
11.2571
20
2.7509
11
11.2603
21
2.75264
0
LINE
8
Black
10
11.2603
20
2.75264
11
11.3329
21
2.77683
0
LINE
8
Black
10
11.3329
20
2.77683
11
11.3429
21
2.77832
0
LINE
8
Black
10
11.3429
20
2.77832
11
11.353
21
2.78009
0
LINE
8
Black
10
11.353
20
2.78009
11
11.4013
21
2.78009
0
LINE
8
Black
10
11.4013
20
2.78009
11
11.4114
21
2.77832
0
LINE
8
Black
10
10.557
20
2.77967
11
10.5594
21
2.77991
0
LINE
8
Black
10
10.5594
20
2.77991
11
10.5678
21
2.77777
0
LINE
8
Black
10
10.5678
20
2.77777
11
10.5764
21
2.77626
0
LINE
8
Black
10
10.5764
20
2.77626
11
10.5785
21
2.77506
0
LINE
8
Black
10
10.5785
20
2.77506
11
10.5808
21
2.77447
0
LINE
8
Black
10
10.5808
20
2.77447
11
10.588
21
2.76957
0
LINE
8
Black
10
10.588
20
2.76957
11
10.5955
21
2.76523
0
LINE
8
Black
10
10.5955
20
2.76523
11
10.597
21
2.7634
0
LINE
8
Black
10
10.597
20
2.7634
11
10.599
21
2.76205
0
LINE
8
Black
10
10.599
20
2.76205
11
10.6041
21
2.755
0
LINE
8
Black
10
10.6041
20
2.755
11
10.6097
21
2.74834
0
LINE
8
Black
10
10.6097
20
2.74834
11
10.6105
21
2.74608
0
LINE
8
Black
10
10.6105
20
2.74608
11
10.6119
21
2.74414
0
LINE
8
Black
10
10.6119
20
2.74414
11
10.6142
21
2.73578
0
LINE
8
Black
10
10.6142
20
2.73578
11
10.6172
21
2.72762
0
LINE
8
Black
10
10.6172
20
2.72762
11
10.6172
21
2.72522
0
LINE
8
Black
10
10.6172
20
2.72522
11
10.6179
21
2.72291
0
LINE
8
Black
10
10.6179
20
2.72291
11
10.642
21
2.481
0
LINE
8
Black
10
10.642
20
2.481
11
10.642
21
2.48061
0
LINE
8
Black
10
10.642
20
2.48061
11
10.6421
21
2.48022
0
LINE
8
Black
10
10.6421
20
2.48022
11
10.6412
21
2.46955
0
LINE
8
Black
10
10.6412
20
2.46955
11
10.6404
21
2.45901
0
LINE
8
Black
10
10.6404
20
2.45901
11
10.6402
21
2.45865
0
LINE
8
Black
10
10.6402
20
2.45865
11
10.6402
21
2.45825
0
LINE
8
Black
10
10.6402
20
2.45825
11
10.6357
21
2.44856
0
LINE
8
Black
10
10.6357
20
2.44856
11
10.6313
21
2.43891
0
LINE
8
Black
10
10.6313
20
2.43891
11
10.631
21
2.43863
0
LINE
8
Black
10
10.631
20
2.43863
11
10.6309
21
2.43826
0
LINE
8
Black
10
10.6309
20
2.43826
11
10.6233
21
2.43073
0
LINE
8
Black
10
10.6233
20
2.43073
11
10.6159
21
2.42313
0
LINE
8
Black
10
10.6159
20
2.42313
11
10.6156
21
2.42295
0
LINE
8
Black
10
10.6156
20
2.42295
11
10.6153
21
2.42267
0
LINE
8
Black
10
10.6153
20
2.42267
11
10.6056
21
2.41815
0
LINE
8
Black
10
10.6056
20
2.41815
11
10.5961
21
2.41356
0
LINE
8
Black
10
10.5961
20
2.41356
11
10.5957
21
2.41352
0
LINE
8
Black
10
10.5957
20
2.41352
11
10.5953
21
2.41335
0
LINE
8
Black
10
10.5953
20
2.41335
11
10.5846
21
2.41241
0
LINE
8
Black
10
10.5846
20
2.41241
11
10.5741
21
2.41136
0
LINE
8
Black
10
10.5741
20
2.41136
11
10.5737
21
2.41146
0
LINE
8
Black
10
10.5737
20
2.41146
11
10.5733
21
2.41143
0
LINE
8
Black
10
10.5733
20
2.41143
11
10.563
21
2.41419
0
LINE
8
Black
10
10.563
20
2.41419
11
10.5527
21
2.41681
0
LINE
8
Black
10
10.5527
20
2.41681
11
10.5524
21
2.41703
0
LINE
8
Black
10
10.5524
20
2.41703
11
10.552
21
2.41714
0
LINE
8
Black
10
10.552
20
2.41714
11
10.5433
21
2.42322
0
LINE
8
Black
10
10.5433
20
2.42322
11
10.5345
21
2.42923
0
LINE
8
Black
10
10.5345
20
2.42923
11
10.5343
21
2.42956
0
LINE
8
Black
10
10.5343
20
2.42956
11
10.534
21
2.42978
0
LINE
8
Black
10
10.534
20
2.42978
11
10.5171
21
2.44669
0
LINE
8
Black
10
10.5171
20
2.44669
11
10.4913
21
2.45957
0
LINE
8
Black
10
10.4913
20
2.45957
11
10.4003
21
2.45957
0
LINE
8
Black
10
10.4003
20
2.45957
11
10.3746
21
2.44669
0
LINE
8
Black
10
10.3746
20
2.44669
11
10.365
21
2.43707
0
LINE
8
Black
10
10.365
20
2.43707
11
10.3521
21
2.41131
0
LINE
8
Black
10
10.3521
20
2.41131
11
10.3521
21
2.32034
0
LINE
8
Black
10
10.3521
20
2.32034
11
10.365
21
2.29459
0
LINE
8
Black
10
10.365
20
2.29459
11
10.3746
21
2.28497
0
LINE
8
Black
10
10.3746
20
2.28497
11
10.4003
21
2.27209
0
LINE
8
Black
10
10.4003
20
2.27209
11
10.4913
21
2.27209
0
LINE
8
Black
10
10.4913
20
2.27209
11
10.5171
21
2.28497
0
LINE
8
Black
10
10.5171
20
2.28497
11
10.534
21
2.30187
0
LINE
8
Black
10
10.534
20
2.30187
11
10.552
21
2.31452
0
LINE
8
Black
10
10.552
20
2.31452
11
10.5733
21
2.32023
0
LINE
8
Black
10
10.5733
20
2.32023
11
10.5953
21
2.31831
0
LINE
8
Black
10
10.5953
20
2.31831
11
10.6153
21
2.30899
0
LINE
8
Black
10
10.6153
20
2.30899
11
10.6309
21
2.29339
0
LINE
8
Black
10
10.6309
20
2.29339
11
10.6402
21
2.27341
0
LINE
8
Black
10
10.6402
20
2.27341
11
10.6421
21
2.25144
0
LINE
8
Black
10
10.6421
20
2.25144
11
10.6364
21
2.23013
0
LINE
8
Black
10
10.6364
20
2.23013
11
10.6238
21
2.21207
0
LINE
8
Black
10
10.6238
20
2.21207
11
10.5996
21
2.18788
0
LINE
8
Black
10
10.5996
20
2.18788
11
10.5912
21
2.18205
0
LINE
8
Black
10
10.5912
20
2.18205
11
10.5831
21
2.17598
0
LINE
8
Black
10
10.5831
20
2.17598
11
10.5347
21
2.15179
0
LINE
8
Black
10
10.5347
20
2.15179
11
10.5312
21
2.15075
0
LINE
8
Black
10
10.5312
20
2.15075
11
10.528
21
2.14892
0
LINE
8
Black
10
10.528
20
2.14892
11
10.5207
21
2.14763
0
LINE
8
Black
10
10.5207
20
2.14763
11
10.5135
21
2.14551
0
LINE
8
Black
10
10.5135
20
2.14551
11
10.5099
21
2.14573
0
LINE
8
Black
10
10.5099
20
2.14573
11
10.5063
21
2.14509
0
LINE
8
Black
10
10.5063
20
2.14509
11
10.3853
21
2.14509
0
LINE
8
Black
10
10.3853
20
2.14509
11
10.3817
21
2.14573
0
LINE
8
Black
10
10.3817
20
2.14573
11
10.3781
21
2.14551
0
LINE
8
Black
10
10.3781
20
2.14551
11
10.3709
21
2.14763
0
LINE
8
Black
10
10.3709
20
2.14763
11
10.3636
21
2.14892
0
LINE
8
Black
10
10.3636
20
2.14892
11
10.3604
21
2.15075
0
LINE
8
Black
10
10.3604
20
2.15075
11
10.3569
21
2.15179
0
LINE
8
Black
10
10.3569
20
2.15179
11
10.3086
21
2.17598
0
LINE
8
Black
10
10.3086
20
2.17598
11
10.3004
21
2.18206
0
LINE
8
Black
10
10.3004
20
2.18206
11
10.2921
21
2.18788
0
LINE
8
Black
10
10.2921
20
2.18788
11
10.2679
21
2.21207
0
LINE
8
Black
10
10.2679
20
2.21207
11
10.262
21
2.22039
0
LINE
8
Black
10
10.262
20
2.22039
11
10.256
21
2.22857
0
LINE
8
Black
10
10.256
20
2.22857
11
10.2318
21
2.27695
0
LINE
8
Black
10
10.2318
20
2.27695
11
10.2307
21
2.28046
0
LINE
8
Black
10
10.2307
20
2.28046
11
10.2289
21
2.28363
0
LINE
8
Black
10
10.2289
20
2.28363
11
10.2276
21
2.29096
0
LINE
8
Black
10
10.2276
20
2.29096
11
10.2255
21
2.29809
0
LINE
8
Black
10
10.2255
20
2.29809
11
10.2257
21
2.30174
0
LINE
8
Black
10
10.2257
20
2.30174
11
10.2251
21
2.30535
0
LINE
8
Black
10
10.2251
20
2.30535
11
10.2251
21
2.4263
0
LINE
8
Black
10
10.2251
20
2.4263
11
10.2257
21
2.42991
0
LINE
8
Black
10
10.2257
20
2.42991
11
10.2255
21
2.43357
0
LINE
8
Black
10
10.2255
20
2.43357
11
10.2276
21
2.4407
0
LINE
8
Black
10
10.2276
20
2.4407
11
10.2289
21
2.44802
0
LINE
8
Black
10
10.2289
20
2.44802
11
10.2307
21
2.45119
0
LINE
8
Black
10
10.2307
20
2.45119
11
10.2318
21
2.4547
0
LINE
8
Black
10
10.2318
20
2.4547
11
10.256
21
2.50309
0
LINE
8
Black
10
10.256
20
2.50309
11
10.262
21
2.51126
0
LINE
8
Black
10
10.262
20
2.51126
11
10.2679
21
2.51959
0
LINE
8
Black
10
10.2679
20
2.51959
11
10.2921
21
2.54378
0
LINE
8
Black
10
10.2921
20
2.54378
11
10.3004
21
2.5496
0
LINE
8
Black
10
10.3004
20
2.5496
11
10.3086
21
2.55567
0
LINE
8
Black
10
10.3086
20
2.55567
11
10.3569
21
2.57986
0
LINE
8
Black
10
10.3569
20
2.57986
11
10.3604
21
2.58091
0
LINE
8
Black
10
10.3604
20
2.58091
11
10.3636
21
2.58274
0
LINE
8
Black
10
10.3636
20
2.58274
11
10.3709
21
2.58403
0
LINE
8
Black
10
10.3709
20
2.58403
11
10.3781
21
2.58615
0
LINE
8
Black
10
10.3781
20
2.58615
11
10.3817
21
2.58593
0
LINE
8
Black
10
10.3817
20
2.58593
11
10.3853
21
2.58657
0
LINE
8
Black
10
10.3853
20
2.58657
11
10.5039
21
2.58657
0
LINE
8
Black
10
10.5039
20
2.58657
11
10.4972
21
2.65309
0
LINE
8
Black
10
10.4972
20
2.65309
11
10.3128
21
2.65309
0
LINE
8
Black
10
10.3128
20
2.65309
11
10.291
21
2.65692
0
LINE
8
Black
10
10.291
20
2.65692
11
10.2719
21
2.66795
0
LINE
8
Black
10
10.2719
20
2.66795
11
10.2578
21
2.68484
0
LINE
8
Black
10
10.2578
20
2.68484
11
10.2502
21
2.70556
0
LINE
8
Black
10
10.2502
20
2.70556
11
10.2502
21
2.72762
0
LINE
8
Black
10
10.2502
20
2.72762
11
10.2578
21
2.74834
0
LINE
8
Black
10
10.2578
20
2.74834
11
10.2719
21
2.76523
0
LINE
8
Black
10
10.2719
20
2.76523
11
10.291
21
2.77626
0
LINE
8
Black
10
10.291
20
2.77626
11
10.3128
21
2.78009
0
LINE
8
Black
10
10.3128
20
2.78009
11
10.5547
21
2.78009
0
LINE
8
Black
10
10.5547
20
2.78009
11
10.557
21
2.77967
0
LINE
8
Black
10
0.818932
20
2.99836
11
0.812268
21
2.99836
0
LINE
8
Black
10
0.812268
20
2.99836
11
0.806007
21
3.00064
0
LINE
8
Black
10
0.806007
20
3.00064
11
0.799438
21
3.00179
0
LINE
8
Black
10
0.799438
20
3.00179
11
0.793662
21
3.00513
0
LINE
8
Black
10
0.793662
20
3.00513
11
0.7874
21
3.00741
0
LINE
8
Black
10
0.7874
20
3.00741
11
0.782294
21
3.01169
0
LINE
8
Black
10
0.782294
20
3.01169
11
0.77652
21
3.01503
0
LINE
8
Black
10
0.77652
20
3.01503
11
0.772234
21
3.02013
0
LINE
8
Black
10
0.772234
20
3.02013
11
0.767127
21
3.02442
0
LINE
8
Black
10
0.767127
20
3.02442
11
0.763793
21
3.03019
0
LINE
8
Black
10
0.763793
20
3.03019
11
0.759509
21
3.0353
0
LINE
8
Black
10
0.759509
20
3.0353
11
0.75723
21
3.04156
0
LINE
8
Black
10
0.75723
20
3.04156
11
0.753895
21
3.04734
0
LINE
8
Black
10
0.753895
20
3.04734
11
0.752737
21
3.05391
0
LINE
8
Black
10
0.752737
20
3.05391
11
0.750458
21
3.06017
0
LINE
8
Black
10
0.750458
20
3.06017
11
0.750458
21
3.06683
0
LINE
8
Black
10
0.750458
20
3.06683
11
0.7493
21
3.0734
0
LINE
8
Black
10
0.7493
20
3.0734
11
0.7493
21
25.4254
0
LINE
8
Black
10
0.7493
20
25.4254
11
0.750458
21
25.432
0
LINE
8
Black
10
0.750458
20
25.432
11
0.750458
21
25.4386
0
LINE
8
Black
10
0.750458
20
25.4386
11
0.752737
21
25.4449
0
LINE
8
Black
10
0.752737
20
25.4449
11
0.753895
21
25.4515
0
LINE
8
Black
10
0.753895
20
25.4515
11
0.75723
21
25.4572
0
LINE
8
Black
10
0.75723
20
25.4572
11
0.759509
21
25.4635
0
LINE
8
Black
10
0.759509
20
25.4635
11
0.763793
21
25.4686
0
LINE
8
Black
10
0.763793
20
25.4686
11
0.767127
21
25.4744
0
LINE
8
Black
10
0.767127
20
25.4744
11
0.772234
21
25.4787
0
LINE
8
Black
10
0.772234
20
25.4787
11
0.77652
21
25.4838
0
LINE
8
Black
10
0.77652
20
25.4838
11
0.782294
21
25.4871
0
LINE
8
Black
10
0.782294
20
25.4871
11
0.7874
21
25.4914
0
LINE
8
Black
10
0.7874
20
25.4914
11
0.793662
21
25.4937
0
LINE
8
Black
10
0.793662
20
25.4937
11
0.799438
21
25.497
0
LINE
8
Black
10
0.799438
20
25.497
11
0.806007
21
25.4982
0
LINE
8
Black
10
0.806007
20
25.4982
11
0.812268
21
25.5004
0
LINE
8
Black
10
0.812268
20
25.5004
11
0.818932
21
25.5004
0
LINE
8
Black
10
0.818932
20
25.5004
11
0.8255
21
25.5016
0
LINE
8
Black
10
0.8255
20
25.5016
11
3.9243
21
25.5016
0
LINE
8
Black
10
3.9243
20
25.5016
11
12.9667
21
25.5016
0
LINE
8
Black
10
12.9667
20
25.5016
11
12.97
21
25.501
0
LINE
8
Black
10
12.97
20
25.501
11
12.9733
21
25.5013
0
LINE
8
Black
10
12.9733
20
25.5013
11
12.983
21
25.4987
0
LINE
8
Black
10
12.983
20
25.4987
11
12.9928
21
25.497
0
LINE
8
Black
10
12.9928
20
25.497
11
12.9957
21
25.4953
0
LINE
8
Black
10
12.9957
20
25.4953
11
12.9989
21
25.4945
0
LINE
8
Black
10
12.9989
20
25.4945
11
13.0071
21
25.4887
0
LINE
8
Black
10
13.0071
20
25.4887
11
13.0157
21
25.4838
0
LINE
8
Black
10
13.0157
20
25.4838
11
13.0178
21
25.4812
0
LINE
8
Black
10
13.0178
20
25.4812
11
13.0206
21
25.4793
0
LINE
8
Black
10
13.0206
20
25.4793
11
15.84
21
22.6599
0
LINE
8
Black
10
15.84
20
22.6599
11
15.8419
21
22.6571
0
LINE
8
Black
10
15.8419
20
22.6571
11
15.8445
21
22.655
0
LINE
8
Black
10
15.8445
20
22.655
11
15.8494
21
22.6464
0
LINE
8
Black
10
15.8494
20
22.6464
11
15.8552
21
22.6382
0
LINE
8
Black
10
15.8552
20
22.6382
11
15.856
21
22.635
0
LINE
8
Black
10
15.856
20
22.635
11
15.8577
21
22.6321
0
LINE
8
Black
10
15.8577
20
22.6321
11
15.8594
21
22.6223
0
LINE
8
Black
10
15.8594
20
22.6223
11
15.862
21
22.6126
0
LINE
8
Black
10
15.862
20
22.6126
11
15.8617
21
22.6093
0
LINE
8
Black
10
15.8617
20
22.6093
11
15.8623
21
22.606
0
LINE
8
Black
10
15.8623
20
22.606
11
15.8623
21
5.8928
0
LINE
8
Black
10
15.8623
20
5.8928
11
15.8617
21
5.8895
0
LINE
8
Black
10
15.8617
20
5.8895
11
15.862
21
5.88616
0
LINE
8
Black
10
15.862
20
5.88616
11
15.8594
21
5.87654
0
LINE
8
Black
10
15.8594
20
5.87654
11
15.8577
21
5.86674
0
LINE
8
Black
10
15.8577
20
5.86674
11
15.856
21
5.86383
0
LINE
8
Black
10
15.856
20
5.86383
11
15.8552
21
5.8606
0
LINE
8
Black
10
15.8552
20
5.8606
11
15.8494
21
5.85244
0
LINE
8
Black
10
15.8494
20
5.85244
11
15.8445
21
5.84382
0
LINE
8
Black
10
15.8445
20
5.84382
11
15.8419
21
5.84166
0
LINE
8
Black
10
15.8419
20
5.84166
11
15.84
21
5.83892
0
LINE
8
Black
10
15.84
20
5.83892
11
13.0206
21
3.01952
0
LINE
8
Black
10
13.0206
20
3.01952
11
13.0178
21
3.01759
0
LINE
8
Black
10
13.0178
20
3.01759
11
13.0157
21
3.01503
0
LINE
8
Black
10
13.0157
20
3.01503
11
13.0071
21
3.01005
0
LINE
8
Black
10
13.0071
20
3.01005
11
12.9989
21
3.00434
0
LINE
8
Black
10
12.9989
20
3.00434
11
12.9957
21
3.00347
0
LINE
8
Black
10
12.9957
20
3.00347
11
12.9928
21
3.00179
0
LINE
8
Black
10
12.9928
20
3.00179
11
12.983
21
3.00007
0
LINE
8
Black
10
12.983
20
3.00007
11
12.9733
21
2.99749
0
LINE
8
Black
10
12.9733
20
2.99749
11
12.97
21
2.99778
0
LINE
8
Black
10
12.97
20
2.99778
11
12.9667
21
2.9972
0
LINE
8
Black
10
12.9667
20
2.9972
11
3.9243
21
2.9972
0
LINE
8
Black
10
3.9243
20
2.9972
11
0.8255
21
2.9972
0
LINE
8
Black
10
0.8255
20
2.9972
11
0.818932
21
2.99836
0
LINE
8
Black
10
15.7099
20
5.92436
11
15.7099
21
22.5744
0
LINE
8
Black
10
15.7099
20
22.5744
11
12.9351
21
25.3492
0
LINE
8
Black
10
12.9351
20
25.3492
11
3.9243
21
25.3492
0
LINE
8
Black
10
3.9243
20
25.3492
11
3.8989
21
25.3492
0
LINE
8
Black
10
3.8989
20
25.3492
11
0.9017
21
25.3492
0
LINE
8
Black
10
0.9017
20
25.3492
11
0.9017
21
3.1496
0
LINE
8
Black
10
0.9017
20
3.1496
11
3.9243
21
3.1496
0
LINE
8
Black
10
3.9243
20
3.1496
11
12.9351
21
3.1496
0
LINE
8
Black
10
12.9351
20
3.1496
11
15.7099
21
5.92436
0
LINE
8
Black
10
1.9612
20
5.3769
11
1.97015
21
5.3769
0
LINE
8
Black
10
1.97015
20
5.3769
11
1.97406
21
5.37547
0
LINE
8
Black
10
1.97406
20
5.37547
11
1.97819
21
5.37502
0
LINE
8
Black
10
1.97819
20
5.37502
11
1.98621
21
5.37105
0
LINE
8
Black
10
1.98621
20
5.37105
11
1.99463
21
5.36799
0
LINE
8
Black
10
1.99463
20
5.36799
11
1.99781
21
5.36531
0
LINE
8
Black
10
1.99781
20
5.36531
11
2.00154
21
5.36347
0
LINE
8
Black
10
2.00154
20
5.36347
11
2.00773
21
5.357
0
LINE
8
Black
10
2.00773
20
5.357
11
2.01458
21
5.35124
0
LINE
8
Black
10
2.01458
20
5.35124
11
2.01666
21
5.34765
0
LINE
8
Black
10
2.01666
20
5.34765
11
2.01953
21
5.34464
0
LINE
8
Black
10
2.01953
20
5.34464
11
2.13637
21
5.16939
0
LINE
8
Black
10
2.13637
20
5.16939
11
2.24346
21
5.06229
0
LINE
8
Black
10
2.24346
20
5.06229
11
2.35353
21
5.00726
0
LINE
8
Black
10
2.35353
20
5.00726
11
2.37445
21
4.99174
0
LINE
8
Black
10
2.37445
20
4.99174
11
2.3888
21
4.97001
0
LINE
8
Black
10
2.3888
20
4.97001
11
2.39485
21
4.94467
0
LINE
8
Black
10
2.39485
20
4.94467
11
2.39187
21
4.9188
0
LINE
8
Black
10
2.39187
20
4.9188
11
2.38022
21
4.8955
0
LINE
8
Black
10
2.38022
20
4.8955
11
2.36131
21
4.87759
0
LINE
8
Black
10
2.36131
20
4.87759
11
2.33741
21
4.86723
0
LINE
8
Black
10
2.33741
20
4.86723
11
2.31141
21
4.86567
0
LINE
8
Black
10
2.31141
20
4.86567
11
2.28645
21
4.8731
0
LINE
8
Black
10
2.28645
20
4.8731
11
2.16549
21
4.93357
0
LINE
8
Black
10
2.16549
20
4.93357
11
2.15584
21
4.94074
0
LINE
8
Black
10
2.15584
20
4.94074
11
2.146
21
4.94762
0
LINE
8
Black
10
2.146
20
4.94762
11
2.03213
21
5.06149
0
LINE
8
Black
10
2.03213
20
5.06149
11
2.03213
21
4.10804
0
LINE
8
Black
10
2.03213
20
4.10804
11
2.31999
21
4.10804
0
LINE
8
Black
10
2.31999
20
4.10804
11
2.34564
21
4.10351
0
LINE
8
Black
10
2.34564
20
4.10351
11
2.3682
21
4.09049
0
LINE
8
Black
10
2.3682
20
4.09049
11
2.38494
21
4.07054
0
LINE
8
Black
10
2.38494
20
4.07054
11
2.39385
21
4.04606
0
LINE
8
Black
10
2.39385
20
4.04606
11
2.39385
21
4.02001
0
LINE
8
Black
10
2.39385
20
4.02001
11
2.38494
21
3.99554
0
LINE
8
Black
10
2.38494
20
3.99554
11
2.3682
21
3.97558
0
LINE
8
Black
10
2.3682
20
3.97558
11
2.34564
21
3.96256
0
LINE
8
Black
10
2.34564
20
3.96256
11
2.31999
21
3.95804
0
LINE
8
Black
10
2.31999
20
3.95804
11
1.59427
21
3.95804
0
LINE
8
Black
10
1.59427
20
3.95804
11
1.56862
21
3.96256
0
LINE
8
Black
10
1.56862
20
3.96256
11
1.54606
21
3.97558
0
LINE
8
Black
10
1.54606
20
3.97558
11
1.52932
21
3.99554
0
LINE
8
Black
10
1.52932
20
3.99554
11
1.52041
21
4.02001
0
LINE
8
Black
10
1.52041
20
4.02001
11
1.52041
21
4.04606
0
LINE
8
Black
10
1.52041
20
4.04606
11
1.52932
21
4.07054
0
LINE
8
Black
10
1.52932
20
4.07054
11
1.54606
21
4.09049
0
LINE
8
Black
10
1.54606
20
4.09049
11
1.56862
21
4.10351
0
LINE
8
Black
10
1.56862
20
4.10351
11
1.59427
21
4.10804
0
LINE
8
Black
10
1.59427
20
4.10804
11
1.88213
21
4.10804
0
LINE
8
Black
10
1.88213
20
4.10804
11
1.88213
21
5.30304
0
LINE
8
Black
10
1.88213
20
5.30304
11
1.88285
21
5.30713
0
LINE
8
Black
10
1.88285
20
5.30713
11
1.88258
21
5.31128
0
LINE
8
Black
10
1.88258
20
5.31128
11
1.8851
21
5.31987
0
LINE
8
Black
10
1.8851
20
5.31987
11
1.88665
21
5.32869
0
LINE
8
Black
10
1.88665
20
5.32869
11
1.88873
21
5.33229
0
LINE
8
Black
10
1.88873
20
5.33229
11
1.8899
21
5.33628
0
LINE
8
Black
10
1.8899
20
5.33628
11
1.8952
21
5.34349
0
LINE
8
Black
10
1.8952
20
5.34349
11
1.89968
21
5.35124
0
LINE
8
Black
10
1.89968
20
5.35124
11
1.90286
21
5.35392
0
LINE
8
Black
10
1.90286
20
5.35392
11
1.90532
21
5.35727
0
LINE
8
Black
10
1.90532
20
5.35727
11
1.91277
21
5.36224
0
LINE
8
Black
10
1.91277
20
5.36224
11
1.91963
21
5.36799
0
LINE
8
Black
10
1.91963
20
5.36799
11
1.92354
21
5.36941
0
LINE
8
Black
10
1.92354
20
5.36941
11
1.927
21
5.37172
0
LINE
8
Black
10
1.927
20
5.37172
11
1.93569
21
5.37383
0
LINE
8
Black
10
1.93569
20
5.37383
11
1.94411
21
5.3769
0
LINE
8
Black
10
1.94411
20
5.3769
11
1.94826
21
5.3769
0
LINE
8
Black
10
1.94826
20
5.3769
11
1.9523
21
5.37788
0
LINE
8
Black
10
1.9523
20
5.37788
11
1.9612
21
5.3769
0
LINE
8
Black
10
4.50359
20
5.3769
11
4.51015
21
5.3769
0
LINE
8
Black
10
4.51015
20
5.3769
11
4.51632
21
5.37465
0
LINE
8
Black
10
4.51632
20
5.37465
11
4.52278
21
5.37351
0
LINE
8
Black
10
4.52278
20
5.37351
11
4.52846
21
5.37023
0
LINE
8
Black
10
4.52846
20
5.37023
11
4.53463
21
5.36799
0
LINE
8
Black
10
4.53463
20
5.36799
11
4.53966
21
5.36377
0
LINE
8
Black
10
4.53966
20
5.36377
11
4.54534
21
5.36049
0
LINE
8
Black
10
4.54534
20
5.36049
11
4.54956
21
5.35546
0
LINE
8
Black
10
4.54956
20
5.35546
11
4.55458
21
5.35124
0
LINE
8
Black
10
4.55458
20
5.35124
11
4.55786
21
5.34556
0
LINE
8
Black
10
4.55786
20
5.34556
11
4.56208
21
5.34054
0
LINE
8
Black
10
4.56208
20
5.34054
11
4.56433
21
5.33437
0
LINE
8
Black
10
4.56433
20
5.33437
11
4.56761
21
5.32869
0
LINE
8
Black
10
4.56761
20
5.32869
11
4.56875
21
5.32223
0
LINE
8
Black
10
4.56875
20
5.32223
11
4.57099
21
5.31606
0
LINE
8
Black
10
4.57099
20
5.31606
11
4.57099
21
5.3095
0
LINE
8
Black
10
4.57099
20
5.3095
11
4.57213
21
5.30304
0
LINE
8
Black
10
4.57213
20
5.30304
11
4.57213
21
4.03304
0
LINE
8
Black
10
4.57213
20
4.03304
11
4.57099
21
4.02658
0
LINE
8
Black
10
4.57099
20
4.02658
11
4.57099
21
4.02001
0
LINE
8
Black
10
4.57099
20
4.02001
11
4.56875
21
4.01384
0
LINE
8
Black
10
4.56875
20
4.01384
11
4.56761
21
4.00738
0
LINE
8
Black
10
4.56761
20
4.00738
11
4.56433
21
4.0017
0
LINE
8
Black
10
4.56433
20
4.0017
11
4.56208
21
3.99554
0
LINE
8
Black
10
4.56208
20
3.99554
11
4.55786
21
3.99051
0
LINE
8
Black
10
4.55786
20
3.99051
11
4.55458
21
3.98483
0
LINE
8
Black
10
4.55458
20
3.98483
11
4.54956
21
3.98061
0
LINE
8
Black
10
4.54956
20
3.98061
11
4.54534
21
3.97558
0
LINE
8
Black
10
4.54534
20
3.97558
11
4.53966
21
3.9723
0
LINE
8
Black
10
4.53966
20
3.9723
11
4.53463
21
3.96808
0
LINE
8
Black
10
4.53463
20
3.96808
11
4.52846
21
3.96584
0
LINE
8
Black
10
4.52846
20
3.96584
11
4.52278
21
3.96256
0
LINE
8
Black
10
4.52278
20
3.96256
11
4.51632
21
3.96142
0
LINE
8
Black
10
4.51632
20
3.96142
11
4.51015
21
3.95917
0
LINE
8
Black
10
4.51015
20
3.95917
11
4.50359
21
3.95917
0
LINE
8
Black
10
4.50359
20
3.95917
11
4.49713
21
3.95804
0
LINE
8
Black
10
4.49713
20
3.95804
11
4.01332
21
3.95804
0
LINE
8
Black
10
4.01332
20
3.95804
11
4.00906
21
3.95879
0
LINE
8
Black
10
4.00906
20
3.95879
11
4.00475
21
3.95853
0
LINE
8
Black
10
4.00475
20
3.95853
11
3.99633
21
3.96103
0
LINE
8
Black
10
3.99633
20
3.96103
11
3.98767
21
3.96256
0
LINE
8
Black
10
3.98767
20
3.96256
11
3.98392
21
3.96472
0
LINE
8
Black
10
3.98392
20
3.96472
11
3.97978
21
3.96595
0
LINE
8
Black
10
3.97978
20
3.96595
11
3.85883
21
4.02643
0
LINE
8
Black
10
3.85883
20
4.02643
11
3.84917
21
4.03359
0
LINE
8
Black
10
3.84917
20
4.03359
11
3.83933
21
4.04048
0
LINE
8
Black
10
3.83933
20
4.04048
11
3.77886
21
4.10096
0
LINE
8
Black
10
3.77886
20
4.10096
11
3.77197
21
4.11079
0
LINE
8
Black
10
3.77197
20
4.11079
11
3.76481
21
4.12045
0
LINE
8
Black
10
3.76481
20
4.12045
11
3.70433
21
4.2414
0
LINE
8
Black
10
3.70433
20
4.2414
11
3.7031
21
4.24554
0
LINE
8
Black
10
3.7031
20
4.24554
11
3.70094
21
4.24929
0
LINE
8
Black
10
3.70094
20
4.24929
11
3.69941
21
4.25795
0
LINE
8
Black
10
3.69941
20
4.25795
11
3.69691
21
4.26637
0
LINE
8
Black
10
3.69691
20
4.26637
11
3.69717
21
4.27068
0
LINE
8
Black
10
3.69717
20
4.27068
11
3.69642
21
4.27494
0
LINE
8
Black
10
3.69642
20
4.27494
11
3.69642
21
4.45637
0
LINE
8
Black
10
3.69642
20
4.45637
11
3.69717
21
4.46063
0
LINE
8
Black
10
3.69717
20
4.46063
11
3.69691
21
4.46494
0
LINE
8
Black
10
3.69691
20
4.46494
11
3.69941
21
4.47336
0
LINE
8
Black
10
3.69941
20
4.47336
11
3.70094
21
4.48202
0
LINE
8
Black
10
3.70094
20
4.48202
11
3.7031
21
4.48577
0
LINE
8
Black
10
3.7031
20
4.48577
11
3.70433
21
4.48991
0
LINE
8
Black
10
3.70433
20
4.48991
11
3.76481
21
4.61086
0
LINE
8
Black
10
3.76481
20
4.61086
11
3.77197
21
4.62052
0
LINE
8
Black
10
3.77197
20
4.62052
11
3.77886
21
4.63035
0
LINE
8
Black
10
3.77886
20
4.63035
11
3.83933
21
4.69083
0
LINE
8
Black
10
3.83933
20
4.69083
11
3.84288
21
4.69331
0
LINE
8
Black
10
3.84288
20
4.69331
11
3.84575
21
4.69655
0
LINE
8
Black
10
3.84575
20
4.69655
11
3.85348
21
4.70073
0
LINE
8
Black
10
3.85348
20
4.70073
11
3.86067
21
4.70577
0
LINE
8
Black
10
3.86067
20
4.70577
11
3.86485
21
4.70689
0
LINE
8
Black
10
3.86485
20
4.70689
11
3.86865
21
4.70895
0
LINE
8
Black
10
3.86865
20
4.70895
11
3.8896
21
4.71593
0
LINE
8
Black
10
3.8896
20
4.71593
11
3.83933
21
4.76619
0
LINE
8
Black
10
3.83933
20
4.76619
11
3.83245
21
4.77603
0
LINE
8
Black
10
3.83245
20
4.77603
11
3.82529
21
4.78569
0
LINE
8
Black
10
3.82529
20
4.78569
11
3.76481
21
4.90664
0
LINE
8
Black
10
3.76481
20
4.90664
11
3.76358
21
4.91078
0
LINE
8
Black
10
3.76358
20
4.91078
11
3.76141
21
4.91453
0
LINE
8
Black
10
3.76141
20
4.91453
11
3.75989
21
4.92319
0
LINE
8
Black
10
3.75989
20
4.92319
11
3.75738
21
4.9316
0
LINE
8
Black
10
3.75738
20
4.9316
11
3.75764
21
4.93592
0
LINE
8
Black
10
3.75764
20
4.93592
11
3.75689
21
4.94018
0
LINE
8
Black
10
3.75689
20
4.94018
11
3.75689
21
5.06113
0
LINE
8
Black
10
3.75689
20
5.06113
11
3.75764
21
5.06539
0
LINE
8
Black
10
3.75764
20
5.06539
11
3.75738
21
5.0697
0
LINE
8
Black
10
3.75738
20
5.0697
11
3.75989
21
5.07812
0
LINE
8
Black
10
3.75989
20
5.07812
11
3.76141
21
5.08678
0
LINE
8
Black
10
3.76141
20
5.08678
11
3.76358
21
5.09053
0
LINE
8
Black
10
3.76358
20
5.09053
11
3.76481
21
5.09467
0
LINE
8
Black
10
3.76481
20
5.09467
11
3.82529
21
5.21562
0
LINE
8
Black
10
3.82529
20
5.21562
11
3.83244
21
5.22527
0
LINE
8
Black
10
3.83244
20
5.22527
11
3.83933
21
5.23512
0
LINE
8
Black
10
3.83933
20
5.23512
11
3.89981
21
5.29559
0
LINE
8
Black
10
3.89981
20
5.29559
11
3.90964
21
5.30248
0
LINE
8
Black
10
3.90964
20
5.30248
11
3.9193
21
5.30964
0
LINE
8
Black
10
3.9193
20
5.30964
11
4.04026
21
5.37012
0
LINE
8
Black
10
4.04026
20
5.37012
11
4.0444
21
5.37135
0
LINE
8
Black
10
4.0444
20
5.37135
11
4.04814
21
5.37351
0
LINE
8
Black
10
4.04814
20
5.37351
11
4.0568
21
5.37504
0
LINE
8
Black
10
4.0568
20
5.37504
11
4.06522
21
5.37754
0
LINE
8
Black
10
4.06522
20
5.37754
11
4.06954
21
5.37728
0
LINE
8
Black
10
4.06954
20
5.37728
11
4.0738
21
5.37804
0
LINE
8
Black
10
4.0738
20
5.37804
11
4.49713
21
5.37804
0
LINE
8
Black
10
4.49713
20
5.37804
11
4.50359
21
5.3769
0
LINE
8
Black
10
4.08597
20
4.62327
11
3.93288
21
4.57225
0
LINE
8
Black
10
3.93288
20
4.57225
11
3.89353
21
4.53289
0
LINE
8
Black
10
3.89353
20
4.53289
11
3.84642
21
4.43866
0
LINE
8
Black
10
3.84642
20
4.43866
11
3.84642
21
4.29265
0
LINE
8
Black
10
3.84642
20
4.29265
11
3.89353
21
4.19842
0
LINE
8
Black
10
3.89353
20
4.19842
11
3.93679
21
4.15515
0
LINE
8
Black
10
3.93679
20
4.15515
11
4.03102
21
4.10804
0
LINE
8
Black
10
4.03102
20
4.10804
11
4.42213
21
4.10804
0
LINE
8
Black
10
4.42213
20
4.10804
11
4.42213
21
4.62327
0
LINE
8
Black
10
4.42213
20
4.62327
11
4.08597
21
4.62327
0
LINE
8
Black
10
4.0915
20
5.22804
11
3.99727
21
5.18092
0
LINE
8
Black
10
3.99727
20
5.18092
11
3.95401
21
5.13766
0
LINE
8
Black
10
3.95401
20
5.13766
11
3.90689
21
5.04343
0
LINE
8
Black
10
3.90689
20
5.04343
11
3.90689
21
4.95788
0
LINE
8
Black
10
3.90689
20
4.95788
11
3.95401
21
4.86365
0
LINE
8
Black
10
3.95401
20
4.86365
11
3.99727
21
4.82039
0
LINE
8
Black
10
3.99727
20
4.82039
11
4.0915
21
4.77327
0
LINE
8
Black
10
4.0915
20
4.77327
11
4.42213
21
4.77327
0
LINE
8
Black
10
4.42213
20
4.77327
11
4.42213
21
5.22804
0
LINE
8
Black
10
4.42213
20
5.22804
11
4.0915
21
5.22804
0
LINE
8
Black
10
3.43421
20
5.37351
11
3.45677
21
5.36049
0
LINE
8
Black
10
3.45677
20
5.36049
11
3.47351
21
5.34054
0
LINE
8
Black
10
3.47351
20
5.34054
11
3.48242
21
5.31606
0
LINE
8
Black
10
3.48242
20
5.31606
11
3.48242
21
5.29001
0
LINE
8
Black
10
3.48242
20
5.29001
11
3.47351
21
5.26554
0
LINE
8
Black
10
3.47351
20
5.26554
11
3.45677
21
5.24558
0
LINE
8
Black
10
3.45677
20
5.24558
11
3.43421
21
5.23256
0
LINE
8
Black
10
3.43421
20
5.23256
11
3.40856
21
5.22804
0
LINE
8
Black
10
3.40856
20
5.22804
11
3.1207
21
5.22804
0
LINE
8
Black
10
3.1207
20
5.22804
11
3.1207
21
4.03304
0
LINE
8
Black
10
3.1207
20
4.03304
11
3.11618
21
4.00738
0
LINE
8
Black
10
3.11618
20
4.00738
11
3.10315
21
3.98483
0
LINE
8
Black
10
3.10315
20
3.98483
11
3.0832
21
3.96808
0
LINE
8
Black
10
3.0832
20
3.96808
11
3.05872
21
3.95917
0
LINE
8
Black
10
3.05872
20
3.95917
11
3.03268
21
3.95917
0
LINE
8
Black
10
3.03268
20
3.95917
11
3.0082
21
3.96808
0
LINE
8
Black
10
3.0082
20
3.96808
11
2.98825
21
3.98483
0
LINE
8
Black
10
2.98825
20
3.98483
11
2.97522
21
4.00738
0
LINE
8
Black
10
2.97522
20
4.00738
11
2.9707
21
4.03304
0
LINE
8
Black
10
2.9707
20
4.03304
11
2.9707
21
5.22804
0
LINE
8
Black
10
2.9707
20
5.22804
11
2.68284
21
5.22804
0
LINE
8
Black
10
2.68284
20
5.22804
11
2.65719
21
5.23256
0
LINE
8
Black
10
2.65719
20
5.23256
11
2.63463
21
5.24558
0
LINE
8
Black
10
2.63463
20
5.24558
11
2.61789
21
5.26554
0
LINE
8
Black
10
2.61789
20
5.26554
11
2.60898
21
5.29001
0
LINE
8
Black
10
2.60898
20
5.29001
11
2.60898
21
5.31606
0
LINE
8
Black
10
2.60898
20
5.31606
11
2.61789
21
5.34054
0
LINE
8
Black
10
2.61789
20
5.34054
11
2.63463
21
5.36049
0
LINE
8
Black
10
2.63463
20
5.36049
11
2.65719
21
5.37351
0
LINE
8
Black
10
2.65719
20
5.37351
11
2.68284
21
5.37804
0
LINE
8
Black
10
2.68284
20
5.37804
11
3.40856
21
5.37804
0
LINE
8
Black
10
3.40856
20
5.37804
11
3.43421
21
5.37351
0
LINE
8
Black
10
21.543
20
4.84768
11
21.5611
21
4.83726
0
LINE
8
Black
10
21.5611
20
4.83726
11
21.5745
21
4.8213
0
LINE
8
Black
10
21.5745
20
4.8213
11
21.5816
21
4.80172
0
LINE
8
Black
10
21.5816
20
4.80172
11
21.5816
21
4.78088
0
LINE
8
Black
10
21.5816
20
4.78088
11
21.5745
21
4.7613
0
LINE
8
Black
10
21.5745
20
4.7613
11
21.5611
21
4.74534
0
LINE
8
Black
10
21.5611
20
4.74534
11
21.543
21
4.73492
0
LINE
8
Black
10
21.543
20
4.73492
11
21.5225
21
4.7313
0
LINE
8
Black
10
21.5225
20
4.7313
11
21.0225
21
4.7313
0
LINE
8
Black
10
21.0225
20
4.7313
11
21.002
21
4.73492
0
LINE
8
Black
10
21.002
20
4.73492
11
20.9839
21
4.74534
0
LINE
8
Black
10
20.9839
20
4.74534
11
20.9705
21
4.7613
0
LINE
8
Black
10
20.9705
20
4.7613
11
20.9634
21
4.78088
0
LINE
8
Black
10
20.9634
20
4.78088
11
20.9634
21
4.80172
0
LINE
8
Black
10
20.9634
20
4.80172
11
20.9705
21
4.8213
0
LINE
8
Black
10
20.9705
20
4.8213
11
20.9839
21
4.83726
0
LINE
8
Black
10
20.9839
20
4.83726
11
21.002
21
4.84768
0
LINE
8
Black
10
21.002
20
4.84768
11
21.0225
21
4.8513
0
LINE
8
Black
10
21.0225
20
4.8513
11
21.5225
21
4.8513
0
LINE
8
Black
10
21.5225
20
4.8513
11
21.543
21
4.84768
0
LINE
8
Black
10
22.6398
20
5.71337
11
22.6422
21
5.71361
0
LINE
8
Black
10
22.6422
20
5.71361
11
22.6506
21
5.71147
0
LINE
8
Black
10
22.6506
20
5.71147
11
22.6592
21
5.70996
0
LINE
8
Black
10
22.6592
20
5.70996
11
22.6612
21
5.70876
0
LINE
8
Black
10
22.6612
20
5.70876
11
22.6636
21
5.70817
0
LINE
8
Black
10
22.6636
20
5.70817
11
22.6707
21
5.70327
0
LINE
8
Black
10
22.6707
20
5.70327
11
22.6783
21
5.69893
0
LINE
8
Black
10
22.6783
20
5.69893
11
22.6798
21
5.6971
0
LINE
8
Black
10
22.6798
20
5.6971
11
22.6818
21
5.69574
0
LINE
8
Black
10
22.6818
20
5.69574
11
22.6869
21
5.6887
0
LINE
8
Black
10
22.6869
20
5.6887
11
22.6924
21
5.68204
0
LINE
8
Black
10
22.6924
20
5.68204
11
22.6933
21
5.67978
0
LINE
8
Black
10
22.6933
20
5.67978
11
22.6947
21
5.67784
0
LINE
8
Black
10
22.6947
20
5.67784
11
22.697
21
5.66948
0
LINE
8
Black
10
22.697
20
5.66948
11
22.7
21
5.66132
0
LINE
8
Black
10
22.7
20
5.66132
11
22.7
21
5.65892
0
LINE
8
Black
10
22.7
20
5.65892
11
22.7006
21
5.65661
0
LINE
8
Black
10
22.7006
20
5.65661
11
22.7248
21
5.4147
0
LINE
8
Black
10
22.7248
20
5.4147
11
22.7248
21
5.41431
0
LINE
8
Black
10
22.7248
20
5.41431
11
22.7249
21
5.41392
0
LINE
8
Black
10
22.7249
20
5.41392
11
22.724
21
5.40325
0
LINE
8
Black
10
22.724
20
5.40325
11
22.7232
21
5.39271
0
LINE
8
Black
10
22.7232
20
5.39271
11
22.723
21
5.39235
0
LINE
8
Black
10
22.723
20
5.39235
11
22.723
21
5.39195
0
LINE
8
Black
10
22.723
20
5.39195
11
22.7185
21
5.38226
0
LINE
8
Black
10
22.7185
20
5.38226
11
22.7141
21
5.37261
0
LINE
8
Black
10
22.7141
20
5.37261
11
22.7138
21
5.37233
0
LINE
8
Black
10
22.7138
20
5.37233
11
22.7137
21
5.37196
0
LINE
8
Black
10
22.7137
20
5.37196
11
22.7061
21
5.36443
0
LINE
8
Black
10
22.7061
20
5.36443
11
22.6987
21
5.35683
0
LINE
8
Black
10
22.6987
20
5.35683
11
22.6983
21
5.35665
0
LINE
8
Black
10
22.6983
20
5.35665
11
22.6981
21
5.35637
0
LINE
8
Black
10
22.6981
20
5.35637
11
22.6884
21
5.35185
0
LINE
8
Black
10
22.6884
20
5.35185
11
22.6788
21
5.34726
0
LINE
8
Black
10
22.6788
20
5.34726
11
22.6784
21
5.34722
0
LINE
8
Black
10
22.6784
20
5.34722
11
22.6781
21
5.34705
0
LINE
8
Black
10
22.6781
20
5.34705
11
22.6673
21
5.34611
0
LINE
8
Black
10
22.6673
20
5.34611
11
22.6569
21
5.34506
0
LINE
8
Black
10
22.6569
20
5.34506
11
22.6565
21
5.34516
0
LINE
8
Black
10
22.6565
20
5.34516
11
22.6561
21
5.34513
0
LINE
8
Black
10
22.6561
20
5.34513
11
22.6458
21
5.34789
0
LINE
8
Black
10
22.6458
20
5.34789
11
22.6355
21
5.35051
0
LINE
8
Black
10
22.6355
20
5.35051
11
22.6352
21
5.35073
0
LINE
8
Black
10
22.6352
20
5.35073
11
22.6348
21
5.35084
0
LINE
8
Black
10
22.6348
20
5.35084
11
22.6261
21
5.35692
0
LINE
8
Black
10
22.6261
20
5.35692
11
22.6173
21
5.36293
0
LINE
8
Black
10
22.6173
20
5.36293
11
22.6171
21
5.36326
0
LINE
8
Black
10
22.6171
20
5.36326
11
22.6167
21
5.36348
0
LINE
8
Black
10
22.6167
20
5.36348
11
22.5998
21
5.38039
0
LINE
8
Black
10
22.5998
20
5.38039
11
22.5741
21
5.39327
0
LINE
8
Black
10
22.5741
20
5.39327
11
22.4831
21
5.39327
0
LINE
8
Black
10
22.4831
20
5.39327
11
22.4573
21
5.38039
0
LINE
8
Black
10
22.4573
20
5.38039
11
22.4477
21
5.37077
0
LINE
8
Black
10
22.4477
20
5.37077
11
22.4349
21
5.34501
0
LINE
8
Black
10
22.4349
20
5.34501
11
22.4349
21
5.25404
0
LINE
8
Black
10
22.4349
20
5.25404
11
22.4477
21
5.22828
0
LINE
8
Black
10
22.4477
20
5.22828
11
22.4573
21
5.21867
0
LINE
8
Black
10
22.4573
20
5.21867
11
22.4831
21
5.20579
0
LINE
8
Black
10
22.4831
20
5.20579
11
22.5741
21
5.20579
0
LINE
8
Black
10
22.5741
20
5.20579
11
22.5998
21
5.21867
0
LINE
8
Black
10
22.5998
20
5.21867
11
22.6167
21
5.23557
0
LINE
8
Black
10
22.6167
20
5.23557
11
22.6348
21
5.24822
0
LINE
8
Black
10
22.6348
20
5.24822
11
22.6561
21
5.25393
0
LINE
8
Black
10
22.6561
20
5.25393
11
22.6781
21
5.25201
0
LINE
8
Black
10
22.6781
20
5.25201
11
22.6981
21
5.24269
0
LINE
8
Black
10
22.6981
20
5.24269
11
22.7137
21
5.22709
0
LINE
8
Black
10
22.7137
20
5.22709
11
22.723
21
5.20711
0
LINE
8
Black
10
22.723
20
5.20711
11
22.7249
21
5.18514
0
LINE
8
Black
10
22.7249
20
5.18514
11
22.7192
21
5.16383
0
LINE
8
Black
10
22.7192
20
5.16383
11
22.7065
21
5.14577
0
LINE
8
Black
10
22.7065
20
5.14577
11
22.6823
21
5.12158
0
LINE
8
Black
10
22.6823
20
5.12158
11
22.674
21
5.11575
0
LINE
8
Black
10
22.674
20
5.11575
11
22.6658
21
5.10968
0
LINE
8
Black
10
22.6658
20
5.10968
11
22.6175
21
5.08549
0
LINE
8
Black
10
22.6175
20
5.08549
11
22.614
21
5.08445
0
LINE
8
Black
10
22.614
20
5.08445
11
22.6108
21
5.08262
0
LINE
8
Black
10
22.6108
20
5.08262
11
22.6035
21
5.08133
0
LINE
8
Black
10
22.6035
20
5.08133
11
22.5963
21
5.07921
0
LINE
8
Black
10
22.5963
20
5.07921
11
22.5927
21
5.07943
0
LINE
8
Black
10
22.5927
20
5.07943
11
22.5891
21
5.07879
0
LINE
8
Black
10
22.5891
20
5.07879
11
22.4681
21
5.07879
0
LINE
8
Black
10
22.4681
20
5.07879
11
22.4645
21
5.07943
0
LINE
8
Black
10
22.4645
20
5.07943
11
22.4609
21
5.07921
0
LINE
8
Black
10
22.4609
20
5.07921
11
22.4537
21
5.08133
0
LINE
8
Black
10
22.4537
20
5.08133
11
22.4464
21
5.08262
0
LINE
8
Black
10
22.4464
20
5.08262
11
22.4432
21
5.08445
0
LINE
8
Black
10
22.4432
20
5.08445
11
22.4397
21
5.08549
0
LINE
8
Black
10
22.4397
20
5.08549
11
22.3913
21
5.10968
0
LINE
8
Black
10
22.3913
20
5.10968
11
22.3831
21
5.11576
0
LINE
8
Black
10
22.3831
20
5.11576
11
22.3748
21
5.12158
0
LINE
8
Black
10
22.3748
20
5.12158
11
22.3506
21
5.14577
0
LINE
8
Black
10
22.3506
20
5.14577
11
22.3448
21
5.15409
0
LINE
8
Black
10
22.3448
20
5.15409
11
22.3387
21
5.16227
0
LINE
8
Black
10
22.3387
20
5.16227
11
22.3146
21
5.21065
0
LINE
8
Black
10
22.3146
20
5.21065
11
22.3135
21
5.21416
0
LINE
8
Black
10
22.3135
20
5.21416
11
22.3117
21
5.21733
0
LINE
8
Black
10
22.3117
20
5.21733
11
22.3104
21
5.22466
0
LINE
8
Black
10
22.3104
20
5.22466
11
22.3083
21
5.23179
0
LINE
8
Black
10
22.3083
20
5.23179
11
22.3085
21
5.23544
0
LINE
8
Black
10
22.3085
20
5.23544
11
22.3079
21
5.23905
0
LINE
8
Black
10
22.3079
20
5.23905
11
22.3079
21
5.36001
0
LINE
8
Black
10
22.3079
20
5.36001
11
22.3085
21
5.36361
0
LINE
8
Black
10
22.3085
20
5.36361
11
22.3083
21
5.36727
0
LINE
8
Black
10
22.3083
20
5.36727
11
22.3104
21
5.3744
0
LINE
8
Black
10
22.3104
20
5.3744
11
22.3117
21
5.38172
0
LINE
8
Black
10
22.3117
20
5.38172
11
22.3135
21
5.38489
0
LINE
8
Black
10
22.3135
20
5.38489
11
22.3146
21
5.3884
0
LINE
8
Black
10
22.3146
20
5.3884
11
22.3387
21
5.43678
0
LINE
8
Black
10
22.3387
20
5.43678
11
22.3448
21
5.44496
0
LINE
8
Black
10
22.3448
20
5.44496
11
22.3506
21
5.45329
0
LINE
8
Black
10
22.3506
20
5.45329
11
22.3748
21
5.47748
0
LINE
8
Black
10
22.3748
20
5.47748
11
22.3831
21
5.4833
0
LINE
8
Black
10
22.3831
20
5.4833
11
22.3913
21
5.48937
0
LINE
8
Black
10
22.3913
20
5.48937
11
22.4397
21
5.51356
0
LINE
8
Black
10
22.4397
20
5.51356
11
22.4432
21
5.51461
0
LINE
8
Black
10
22.4432
20
5.51461
11
22.4464
21
5.51644
0
LINE
8
Black
10
22.4464
20
5.51644
11
22.4537
21
5.51773
0
LINE
8
Black
10
22.4537
20
5.51773
11
22.4609
21
5.51985
0
LINE
8
Black
10
22.4609
20
5.51985
11
22.4645
21
5.51963
0
LINE
8
Black
10
22.4645
20
5.51963
11
22.4681
21
5.52027
0
LINE
8
Black
10
22.4681
20
5.52027
11
22.5866
21
5.52027
0
LINE
8
Black
10
22.5866
20
5.52027
11
22.58
21
5.58679
0
LINE
8
Black
10
22.58
20
5.58679
11
22.3955
21
5.58679
0
LINE
8
Black
10
22.3955
20
5.58679
11
22.3738
21
5.59062
0
LINE
8
Black
10
22.3738
20
5.59062
11
22.3547
21
5.60165
0
LINE
8
Black
10
22.3547
20
5.60165
11
22.3406
21
5.61854
0
LINE
8
Black
10
22.3406
20
5.61854
11
22.333
21
5.63926
0
LINE
8
Black
10
22.333
20
5.63926
11
22.333
21
5.66132
0
LINE
8
Black
10
22.333
20
5.66132
11
22.3406
21
5.68204
0
LINE
8
Black
10
22.3406
20
5.68204
11
22.3547
21
5.69893
0
LINE
8
Black
10
22.3547
20
5.69893
11
22.3738
21
5.70996
0
LINE
8
Black
10
22.3738
20
5.70996
11
22.3955
21
5.71379
0
LINE
8
Black
10
22.3955
20
5.71379
11
22.6374
21
5.71379
0
LINE
8
Black
10
22.6374
20
5.71379
11
22.6398
21
5.71337
0
LINE
8
Black
10
23.0038
20
5.71282
11
23.0113
21
5.71282
0
LINE
8
Black
10
23.0113
20
5.71282
11
23.0146
21
5.71162
0
LINE
8
Black
10
23.0146
20
5.71162
11
23.0181
21
5.71123
0
LINE
8
Black
10
23.0181
20
5.71123
11
23.0249
21
5.70787
0
LINE
8
Black
10
23.0249
20
5.70787
11
23.0321
21
5.70528
0
LINE
8
Black
10
23.0321
20
5.70528
11
23.0348
21
5.70302
0
LINE
8
Black
10
23.0348
20
5.70302
11
23.0379
21
5.70146
0
LINE
8
Black
10
23.0379
20
5.70146
11
23.0431
21
5.69598
0
LINE
8
Black
10
23.0431
20
5.69598
11
23.0489
21
5.69111
0
LINE
8
Black
10
23.0489
20
5.69111
11
23.0507
21
5.68806
0
LINE
8
Black
10
23.0507
20
5.68806
11
23.0531
21
5.68551
0
LINE
8
Black
10
23.0531
20
5.68551
11
23.098
21
5.61817
0
LINE
8
Black
10
23.098
20
5.61817
11
23.1347
21
5.58153
0
LINE
8
Black
10
23.1347
20
5.58153
11
23.1738
21
5.56194
0
LINE
8
Black
10
23.1738
20
5.56194
11
23.1916
21
5.54881
0
LINE
8
Black
10
23.1916
20
5.54881
11
23.2037
21
5.5304
0
LINE
8
Black
10
23.2037
20
5.5304
11
23.2088
21
5.50895
0
LINE
8
Black
10
23.2088
20
5.50895
11
23.2063
21
5.48705
0
LINE
8
Black
10
23.2063
20
5.48705
11
23.1964
21
5.46732
0
LINE
8
Black
10
23.1964
20
5.46732
11
23.1804
21
5.45216
0
LINE
8
Black
10
23.1804
20
5.45216
11
23.1602
21
5.44339
0
LINE
8
Black
10
23.1602
20
5.44339
11
23.1382
21
5.44206
0
LINE
8
Black
10
23.1382
20
5.44206
11
23.117
21
5.44835
0
LINE
8
Black
10
23.117
20
5.44835
11
23.0687
21
5.47254
0
LINE
8
Black
10
23.0687
20
5.47254
11
23.0638
21
5.47615
0
LINE
8
Black
10
23.0638
20
5.47615
11
23.0638
21
5.20579
0
LINE
8
Black
10
23.0638
20
5.20579
11
23.1454
21
5.20579
0
LINE
8
Black
10
23.1454
20
5.20579
11
23.1672
21
5.20196
0
LINE
8
Black
10
23.1672
20
5.20196
11
23.1863
21
5.19093
0
LINE
8
Black
10
23.1863
20
5.19093
11
23.2004
21
5.17404
0
LINE
8
Black
10
23.2004
20
5.17404
11
23.208
21
5.15332
0
LINE
8
Black
10
23.208
20
5.15332
11
23.208
21
5.13126
0
LINE
8
Black
10
23.208
20
5.13126
11
23.2004
21
5.11054
0
LINE
8
Black
10
23.2004
20
5.11054
11
23.1863
21
5.09365
0
LINE
8
Black
10
23.1863
20
5.09365
11
23.1672
21
5.08262
0
LINE
8
Black
10
23.1672
20
5.08262
11
23.1454
21
5.07879
0
LINE
8
Black
10
23.1454
20
5.07879
11
22.8552
21
5.07879
0
LINE
8
Black
10
22.8552
20
5.07879
11
22.8334
21
5.08262
0
LINE
8
Black
10
22.8334
20
5.08262
11
22.8143
21
5.09365
0
LINE
8
Black
10
22.8143
20
5.09365
11
22.8002
21
5.11054
0
LINE
8
Black
10
22.8002
20
5.11054
11
22.7926
21
5.13126
0
LINE
8
Black
10
22.7926
20
5.13126
11
22.7926
21
5.15332
0
LINE
8
Black
10
22.7926
20
5.15332
11
22.8002
21
5.17404
0
LINE
8
Black
10
22.8002
20
5.17404
11
22.8143
21
5.19093
0
LINE
8
Black
10
22.8143
20
5.19093
11
22.8334
21
5.20196
0
LINE
8
Black
10
22.8334
20
5.20196
11
22.8552
21
5.20579
0
LINE
8
Black
10
22.8552
20
5.20579
11
22.9368
21
5.20579
0
LINE
8
Black
10
22.9368
20
5.20579
11
22.9368
21
5.65029
0
LINE
8
Black
10
22.9368
20
5.65029
11
22.9374
21
5.65376
0
LINE
8
Black
10
22.9374
20
5.65376
11
22.9372
21
5.65727
0
LINE
8
Black
10
22.9372
20
5.65727
11
22.9393
21
5.66454
0
LINE
8
Black
10
22.9393
20
5.66454
11
22.9406
21
5.67201
0
LINE
8
Black
10
22.9406
20
5.67201
11
22.9424
21
5.67505
0
LINE
8
Black
10
22.9424
20
5.67505
11
22.9434
21
5.67843
0
LINE
8
Black
10
22.9434
20
5.67843
11
22.9479
21
5.68454
0
LINE
8
Black
10
22.9479
20
5.68454
11
22.9517
21
5.69111
0
LINE
8
Black
10
22.9517
20
5.69111
11
22.9544
21
5.69337
0
LINE
8
Black
10
22.9544
20
5.69337
11
22.9564
21
5.6962
0
LINE
8
Black
10
22.9564
20
5.6962
11
22.9627
21
5.7004
0
LINE
8
Black
10
22.9627
20
5.7004
11
22.9686
21
5.70528
0
LINE
8
Black
10
22.9686
20
5.70528
11
22.9719
21
5.70649
0
LINE
8
Black
10
22.9719
20
5.70649
11
22.9748
21
5.70844
0
LINE
8
Black
10
22.9748
20
5.70844
11
22.9822
21
5.71023
0
LINE
8
Black
10
22.9822
20
5.71023
11
22.9893
21
5.71282
0
LINE
8
Black
10
22.9893
20
5.71282
11
22.9928
21
5.71282
0
LINE
8
Black
10
22.9928
20
5.71282
11
22.9962
21
5.71366
0
LINE
8
Black
10
22.9962
20
5.71366
11
23.0038
21
5.71282
0
LINE
8
Black
10
23.6347
20
5.71282
11
23.6403
21
5.71282
0
LINE
8
Black
10
23.6403
20
5.71282
11
23.6455
21
5.71092
0
LINE
8
Black
10
23.6455
20
5.71092
11
23.651
21
5.70996
0
LINE
8
Black
10
23.651
20
5.70996
11
23.6558
21
5.70718
0
LINE
8
Black
10
23.6558
20
5.70718
11
23.661
21
5.70528
0
LINE
8
Black
10
23.661
20
5.70528
11
23.6653
21
5.70171
0
LINE
8
Black
10
23.6653
20
5.70171
11
23.6701
21
5.69893
0
LINE
8
Black
10
23.6701
20
5.69893
11
23.6736
21
5.69468
0
LINE
8
Black
10
23.6736
20
5.69468
11
23.6779
21
5.69111
0
LINE
8
Black
10
23.6779
20
5.69111
11
23.6807
21
5.6863
0
LINE
8
Black
10
23.6807
20
5.6863
11
23.6843
21
5.68204
0
LINE
8
Black
10
23.6843
20
5.68204
11
23.6862
21
5.67682
0
LINE
8
Black
10
23.6862
20
5.67682
11
23.6889
21
5.67201
0
LINE
8
Black
10
23.6889
20
5.67201
11
23.6899
21
5.66654
0
LINE
8
Black
10
23.6899
20
5.66654
11
23.6918
21
5.66132
0
LINE
8
Black
10
23.6918
20
5.66132
11
23.6918
21
5.65576
0
LINE
8
Black
10
23.6918
20
5.65576
11
23.6928
21
5.65029
0
LINE
8
Black
10
23.6928
20
5.65029
11
23.6928
21
5.14229
0
LINE
8
Black
10
23.6928
20
5.14229
11
23.6889
21
5.12057
0
LINE
8
Black
10
23.6889
20
5.12057
11
23.6779
21
5.10147
0
LINE
8
Black
10
23.6779
20
5.10147
11
23.661
21
5.0873
0
LINE
8
Black
10
23.661
20
5.0873
11
23.6403
21
5.07975
0
LINE
8
Black
10
23.6403
20
5.07975
11
23.6182
21
5.07975
0
LINE
8
Black
10
23.6182
20
5.07975
11
23.5975
21
5.0873
0
LINE
8
Black
10
23.5975
20
5.0873
11
23.5806
21
5.10147
0
LINE
8
Black
10
23.5806
20
5.10147
11
23.5696
21
5.12057
0
LINE
8
Black
10
23.5696
20
5.12057
11
23.5658
21
5.14229
0
LINE
8
Black
10
23.5658
20
5.14229
11
23.5658
21
5.32069
0
LINE
8
Black
10
23.5658
20
5.32069
11
23.5414
21
5.32069
0
LINE
8
Black
10
23.5414
20
5.32069
11
23.391
21
5.10588
0
LINE
8
Black
10
23.391
20
5.10588
11
23.3754
21
5.09028
0
LINE
8
Black
10
23.3754
20
5.09028
11
23.3554
21
5.08096
0
LINE
8
Black
10
23.3554
20
5.08096
11
23.3334
21
5.07903
0
LINE
8
Black
10
23.3334
20
5.07903
11
23.3121
21
5.08474
0
LINE
8
Black
10
23.3121
20
5.08474
11
23.2941
21
5.09738
0
LINE
8
Black
10
23.2941
20
5.09738
11
23.2814
21
5.11544
0
LINE
8
Black
10
23.2814
20
5.11544
11
23.2757
21
5.13675
0
LINE
8
Black
10
23.2757
20
5.13675
11
23.2776
21
5.15872
0
LINE
8
Black
10
23.2776
20
5.15872
11
23.287
21
5.1787
0
LINE
8
Black
10
23.287
20
5.1787
11
23.3953
21
5.33344
0
LINE
8
Black
10
23.3953
20
5.33344
11
23.359
21
5.35159
0
LINE
8
Black
10
23.359
20
5.35159
11
23.3508
21
5.35765
0
LINE
8
Black
10
23.3508
20
5.35765
11
23.3425
21
5.36348
0
LINE
8
Black
10
23.3425
20
5.36348
11
23.3183
21
5.38767
0
LINE
8
Black
10
23.3183
20
5.38767
11
23.3124
21
5.39599
0
LINE
8
Black
10
23.3124
20
5.39599
11
23.3064
21
5.40418
0
LINE
8
Black
10
23.3064
20
5.40418
11
23.2822
21
5.45256
0
LINE
8
Black
10
23.2822
20
5.45256
11
23.2811
21
5.45607
0
LINE
8
Black
10
23.2811
20
5.45607
11
23.2793
21
5.45924
0
LINE
8
Black
10
23.2793
20
5.45924
11
23.278
21
5.46657
0
LINE
8
Black
10
23.278
20
5.46657
11
23.2759
21
5.4737
0
LINE
8
Black
10
23.2759
20
5.4737
11
23.2761
21
5.47735
0
LINE
8
Black
10
23.2761
20
5.47735
11
23.2755
21
5.48096
0
LINE
8
Black
10
23.2755
20
5.48096
11
23.2755
21
5.55353
0
LINE
8
Black
10
23.2755
20
5.55353
11
23.2761
21
5.55714
0
LINE
8
Black
10
23.2761
20
5.55714
11
23.2759
21
5.56079
0
LINE
8
Black
10
23.2759
20
5.56079
11
23.278
21
5.56792
0
LINE
8
Black
10
23.278
20
5.56792
11
23.2793
21
5.57525
0
LINE
8
Black
10
23.2793
20
5.57525
11
23.2811
21
5.57842
0
LINE
8
Black
10
23.2811
20
5.57842
11
23.2822
21
5.58193
0
LINE
8
Black
10
23.2822
20
5.58193
11
23.3064
21
5.63031
0
LINE
8
Black
10
23.3064
20
5.63031
11
23.3124
21
5.63849
0
LINE
8
Black
10
23.3124
20
5.63849
11
23.3183
21
5.64681
0
LINE
8
Black
10
23.3183
20
5.64681
11
23.3425
21
5.671
0
LINE
8
Black
10
23.3425
20
5.671
11
23.3508
21
5.67685
0
LINE
8
Black
10
23.3508
20
5.67685
11
23.359
21
5.6829
0
LINE
8
Black
10
23.359
20
5.6829
11
23.4073
21
5.70709
0
LINE
8
Black
10
23.4073
20
5.70709
11
23.4108
21
5.70813
0
LINE
8
Black
10
23.4108
20
5.70813
11
23.414
21
5.70996
0
LINE
8
Black
10
23.414
20
5.70996
11
23.4213
21
5.71125
0
LINE
8
Black
10
23.4213
20
5.71125
11
23.4285
21
5.71337
0
LINE
8
Black
10
23.4285
20
5.71337
11
23.4321
21
5.71315
0
LINE
8
Black
10
23.4321
20
5.71315
11
23.4357
21
5.71379
0
LINE
8
Black
10
23.4357
20
5.71379
11
23.6293
21
5.71379
0
LINE
8
Black
10
23.6293
20
5.71379
11
23.6347
21
5.71282
0
LINE
8
Black
10
23.4507
20
5.58679
11
23.425
21
5.57391
0
LINE
8
Black
10
23.425
20
5.57391
11
23.4154
21
5.56429
0
LINE
8
Black
10
23.4154
20
5.56429
11
23.4025
21
5.53854
0
LINE
8
Black
10
23.4025
20
5.53854
11
23.4025
21
5.49595
0
LINE
8
Black
10
23.4025
20
5.49595
11
23.4154
21
5.47019
0
LINE
8
Black
10
23.4154
20
5.47019
11
23.425
21
5.46057
0
LINE
8
Black
10
23.425
20
5.46057
11
23.4507
21
5.44769
0
LINE
8
Black
10
23.4507
20
5.44769
11
23.5658
21
5.44769
0
LINE
8
Black
10
23.5658
20
5.44769
11
23.5658
21
5.58679
0
LINE
8
Black
10
23.5658
20
5.58679
11
23.4507
21
5.58679
0
LINE
8
Black
10
21.543
20
5.90768
11
21.5611
21
5.89726
0
LINE
8
Black
10
21.5611
20
5.89726
11
21.5745
21
5.8813
0
LINE
8
Black
10
21.5745
20
5.8813
11
21.5816
21
5.86172
0
LINE
8
Black
10
21.5816
20
5.86172
11
21.5816
21
5.84088
0
LINE
8
Black
10
21.5816
20
5.84088
11
21.5745
21
5.8213
0
LINE
8
Black
10
21.5745
20
5.8213
11
21.5611
21
5.80534
0
LINE
8
Black
10
21.5611
20
5.80534
11
21.543
21
5.79492
0
LINE
8
Black
10
21.543
20
5.79492
11
21.5225
21
5.7913
0
LINE
8
Black
10
21.5225
20
5.7913
11
21.0225
21
5.7913
0
LINE
8
Black
10
21.0225
20
5.7913
11
21.002
21
5.79492
0
LINE
8
Black
10
21.002
20
5.79492
11
20.9839
21
5.80534
0
LINE
8
Black
10
20.9839
20
5.80534
11
20.9705
21
5.8213
0
LINE
8
Black
10
20.9705
20
5.8213
11
20.9634
21
5.84088
0
LINE
8
Black
10
20.9634
20
5.84088
11
20.9634
21
5.86172
0
LINE
8
Black
10
20.9634
20
5.86172
11
20.9705
21
5.8813
0
LINE
8
Black
10
20.9705
20
5.8813
11
20.9839
21
5.89726
0
LINE
8
Black
10
20.9839
20
5.89726
11
21.002
21
5.90768
0
LINE
8
Black
10
21.002
20
5.90768
11
21.0225
21
5.9113
0
LINE
8
Black
10
21.0225
20
5.9113
11
21.5225
21
5.9113
0
LINE
8
Black
10
21.5225
20
5.9113
11
21.543
21
5.90768
0
LINE
8
Black
10
22.1134
20
6.96069
11
22.1186
21
6.96069
0
LINE
8
Black
10
22.1186
20
6.96069
11
22.1235
21
6.95889
0
LINE
8
Black
10
22.1235
20
6.95889
11
22.1287
21
6.95798
0
LINE
8
Black
10
22.1287
20
6.95798
11
22.1333
21
6.95536
0
LINE
8
Black
10
22.1333
20
6.95536
11
22.1382
21
6.95356
0
LINE
8
Black
10
22.1382
20
6.95356
11
22.1422
21
6.95019
0
LINE
8
Black
10
22.1422
20
6.95019
11
22.1468
21
6.94756
0
LINE
8
Black
10
22.1468
20
6.94756
11
22.1501
21
6.94354
0
LINE
8
Black
10
22.1501
20
6.94354
11
22.1542
21
6.94017
0
LINE
8
Black
10
22.1542
20
6.94017
11
22.1568
21
6.93562
0
LINE
8
Black
10
22.1568
20
6.93562
11
22.1602
21
6.9316
0
LINE
8
Black
10
22.1602
20
6.9316
11
22.162
21
6.92667
0
LINE
8
Black
10
22.162
20
6.92667
11
22.1646
21
6.92212
0
LINE
8
Black
10
22.1646
20
6.92212
11
22.1655
21
6.91695
0
LINE
8
Black
10
22.1655
20
6.91695
11
22.1673
21
6.91202
0
LINE
8
Black
10
22.1673
20
6.91202
11
22.1673
21
6.90677
0
LINE
8
Black
10
22.1673
20
6.90677
11
22.1682
21
6.9016
0
LINE
8
Black
10
22.1682
20
6.9016
11
22.1682
21
6.0016
0
LINE
8
Black
10
22.1682
20
6.0016
11
22.1673
21
5.99643
0
LINE
8
Black
10
22.1673
20
5.99643
11
22.1673
21
5.99118
0
LINE
8
Black
10
22.1673
20
5.99118
11
22.1655
21
5.98625
0
LINE
8
Black
10
22.1655
20
5.98625
11
22.1646
21
5.98108
0
LINE
8
Black
10
22.1646
20
5.98108
11
22.162
21
5.97653
0
LINE
8
Black
10
22.162
20
5.97653
11
22.1602
21
5.9716
0
LINE
8
Black
10
22.1602
20
5.9716
11
22.1568
21
5.96758
0
LINE
8
Black
10
22.1568
20
5.96758
11
22.1542
21
5.96303
0
LINE
8
Black
10
22.1542
20
5.96303
11
22.1501
21
5.95966
0
LINE
8
Black
10
22.1501
20
5.95966
11
22.1468
21
5.95564
0
LINE
8
Black
10
22.1468
20
5.95564
11
22.1422
21
5.95301
0
LINE
8
Black
10
22.1422
20
5.95301
11
22.1382
21
5.94964
0
LINE
8
Black
10
22.1382
20
5.94964
11
22.1333
21
5.94784
0
LINE
8
Black
10
22.1333
20
5.94784
11
22.1287
21
5.94522
0
LINE
8
Black
10
22.1287
20
5.94522
11
22.1235
21
5.94431
0
LINE
8
Black
10
22.1235
20
5.94431
11
22.1186
21
5.94251
0
LINE
8
Black
10
22.1186
20
5.94251
11
22.1134
21
5.94251
0
LINE
8
Black
10
22.1134
20
5.94251
11
22.1082
21
5.9416
0
LINE
8
Black
10
22.1082
20
5.9416
11
20.6582
21
5.9416
0
LINE
8
Black
10
20.6582
20
5.9416
11
20.6377
21
5.94522
0
LINE
8
Black
10
20.6377
20
5.94522
11
20.6196
21
5.95564
0
LINE
8
Black
10
20.6196
20
5.95564
11
20.6062
21
5.9716
0
LINE
8
Black
10
20.6062
20
5.9716
11
20.5991
21
5.99118
0
LINE
8
Black
10
20.5991
20
5.99118
11
20.5991
21
6.01202
0
LINE
8
Black
10
20.5991
20
6.01202
11
20.6062
21
6.0316
0
LINE
8
Black
10
20.6062
20
6.0316
11
20.6196
21
6.04756
0
LINE
8
Black
10
20.6196
20
6.04756
11
20.6377
21
6.05798
0
LINE
8
Black
10
20.6377
20
6.05798
11
20.6582
21
6.0616
0
LINE
8
Black
10
20.6582
20
6.0616
11
22.0482
21
6.0616
0
LINE
8
Black
10
22.0482
20
6.0616
11
22.0482
21
6.8416
0
LINE
8
Black
10
22.0482
20
6.8416
11
20.6582
21
6.8416
0
LINE
8
Black
10
20.6582
20
6.8416
11
20.6377
21
6.84522
0
LINE
8
Black
10
20.6377
20
6.84522
11
20.6196
21
6.85564
0
LINE
8
Black
10
20.6196
20
6.85564
11
20.6062
21
6.8716
0
LINE
8
Black
10
20.6062
20
6.8716
11
20.5991
21
6.89118
0
LINE
8
Black
10
20.5991
20
6.89118
11
20.5991
21
6.91202
0
LINE
8
Black
10
20.5991
20
6.91202
11
20.6062
21
6.9316
0
LINE
8
Black
10
20.6062
20
6.9316
11
20.6196
21
6.94756
0
LINE
8
Black
10
20.6196
20
6.94756
11
20.6377
21
6.95798
0
LINE
8
Black
10
20.6377
20
6.95798
11
20.6582
21
6.9616
0
LINE
8
Black
10
20.6582
20
6.9616
11
22.1082
21
6.9616
0
LINE
8
Black
10
22.1082
20
6.9616
11
22.1134
21
6.96069
0
LINE
8
Black
10
23.6722
20
6.75422
11
23.6778
21
6.75422
0
LINE
8
Black
10
23.6778
20
6.75422
11
23.683
21
6.75232
0
LINE
8
Black
10
23.683
20
6.75232
11
23.6885
21
6.75136
0
LINE
8
Black
10
23.6885
20
6.75136
11
23.6933
21
6.74858
0
LINE
8
Black
10
23.6933
20
6.74858
11
23.6985
21
6.74668
0
LINE
8
Black
10
23.6985
20
6.74668
11
23.7028
21
6.74311
0
LINE
8
Black
10
23.7028
20
6.74311
11
23.7076
21
6.74033
0
LINE
8
Black
10
23.7076
20
6.74033
11
23.7111
21
6.73608
0
LINE
8
Black
10
23.7111
20
6.73608
11
23.7154
21
6.73251
0
LINE
8
Black
10
23.7154
20
6.73251
11
23.7182
21
6.7277
0
LINE
8
Black
10
23.7182
20
6.7277
11
23.7217
21
6.72344
0
LINE
8
Black
10
23.7217
20
6.72344
11
23.7236
21
6.71822
0
LINE
8
Black
10
23.7236
20
6.71822
11
23.7264
21
6.71341
0
LINE
8
Black
10
23.7264
20
6.71341
11
23.7274
21
6.70794
0
LINE
8
Black
10
23.7274
20
6.70794
11
23.7293
21
6.70272
0
LINE
8
Black
10
23.7293
20
6.70272
11
23.7293
21
6.69716
0
LINE
8
Black
10
23.7293
20
6.69716
11
23.7303
21
6.69169
0
LINE
8
Black
10
23.7303
20
6.69169
11
23.7303
21
6.18369
0
LINE
8
Black
10
23.7303
20
6.18369
11
23.7293
21
6.17822
0
LINE
8
Black
10
23.7293
20
6.17822
11
23.7293
21
6.17266
0
LINE
8
Black
10
23.7293
20
6.17266
11
23.7274
21
6.16744
0
LINE
8
Black
10
23.7274
20
6.16744
11
23.7264
21
6.16197
0
LINE
8
Black
10
23.7264
20
6.16197
11
23.7236
21
6.15716
0
LINE
8
Black
10
23.7236
20
6.15716
11
23.7217
21
6.15194
0
LINE
8
Black
10
23.7217
20
6.15194
11
23.7182
21
6.14768
0
LINE
8
Black
10
23.7182
20
6.14768
11
23.7154
21
6.14287
0
LINE
8
Black
10
23.7154
20
6.14287
11
23.7111
21
6.1393
0
LINE
8
Black
10
23.7111
20
6.1393
11
23.7076
21
6.13505
0
LINE
8
Black
10
23.7076
20
6.13505
11
23.7028
21
6.13227
0
LINE
8
Black
10
23.7028
20
6.13227
11
23.6985
21
6.1287
0
LINE
8
Black
10
23.6985
20
6.1287
11
23.6933
21
6.1268
0
LINE
8
Black
10
23.6933
20
6.1268
11
23.6885
21
6.12402
0
LINE
8
Black
10
23.6885
20
6.12402
11
23.683
21
6.12306
0
LINE
8
Black
10
23.683
20
6.12306
11
23.6778
21
6.12115
0
LINE
8
Black
10
23.6778
20
6.12115
11
23.6722
21
6.12115
0
LINE
8
Black
10
23.6722
20
6.12115
11
23.6668
21
6.12019
0
LINE
8
Black
10
23.6668
20
6.12019
11
23.5458
21
6.12019
0
LINE
8
Black
10
23.5458
20
6.12019
11
23.5358
21
6.12196
0
LINE
8
Black
10
23.5358
20
6.12196
11
23.5257
21
6.12345
0
LINE
8
Black
10
23.5257
20
6.12345
11
23.4531
21
6.14764
0
LINE
8
Black
10
23.4531
20
6.14764
11
23.4499
21
6.14938
0
LINE
8
Black
10
23.4499
20
6.14938
11
23.4464
21
6.15033
0
LINE
8
Black
10
23.4464
20
6.15033
11
23.4403
21
6.1546
0
LINE
8
Black
10
23.4403
20
6.1546
11
23.4338
21
6.15814
0
LINE
8
Black
10
23.4338
20
6.15814
11
23.4313
21
6.16088
0
LINE
8
Black
10
23.4313
20
6.16088
11
23.4283
21
6.16298
0
LINE
8
Black
10
23.4283
20
6.16298
11
23.3799
21
6.21136
0
LINE
8
Black
10
23.3799
20
6.21136
11
23.3741
21
6.21968
0
LINE
8
Black
10
23.3741
20
6.21968
11
23.3681
21
6.22786
0
LINE
8
Black
10
23.3681
20
6.22786
11
23.3439
21
6.27624
0
LINE
8
Black
10
23.3439
20
6.27624
11
23.3419
21
6.2829
0
LINE
8
Black
10
23.3419
20
6.2829
11
23.3391
21
6.28924
0
LINE
8
Black
10
23.3391
20
6.28924
11
23.3149
21
6.386
0
LINE
8
Black
10
23.3149
20
6.386
11
23.3143
21
6.39375
0
LINE
8
Black
10
23.3143
20
6.39375
11
23.313
21
6.4014
0
LINE
8
Black
10
23.313
20
6.4014
11
23.313
21
6.47398
0
LINE
8
Black
10
23.313
20
6.47398
11
23.3143
21
6.48163
0
LINE
8
Black
10
23.3143
20
6.48163
11
23.3149
21
6.48938
0
LINE
8
Black
10
23.3149
20
6.48938
11
23.3391
21
6.58614
0
LINE
8
Black
10
23.3391
20
6.58614
11
23.3419
21
6.59248
0
LINE
8
Black
10
23.3419
20
6.59248
11
23.3439
21
6.59914
0
LINE
8
Black
10
23.3439
20
6.59914
11
23.3681
21
6.64752
0
LINE
8
Black
10
23.3681
20
6.64752
11
23.3741
21
6.6557
0
LINE
8
Black
10
23.3741
20
6.6557
11
23.3799
21
6.66402
0
LINE
8
Black
10
23.3799
20
6.66402
11
23.4283
21
6.7124
0
LINE
8
Black
10
23.4283
20
6.7124
11
23.4313
21
6.7145
0
LINE
8
Black
10
23.4313
20
6.7145
11
23.4338
21
6.71724
0
LINE
8
Black
10
23.4338
20
6.71724
11
23.4403
21
6.72078
0
LINE
8
Black
10
23.4403
20
6.72078
11
23.4464
21
6.72505
0
LINE
8
Black
10
23.4464
20
6.72505
11
23.4499
21
6.726
0
LINE
8
Black
10
23.4499
20
6.726
11
23.4531
21
6.72774
0
LINE
8
Black
10
23.4531
20
6.72774
11
23.5257
21
6.75193
0
LINE
8
Black
10
23.5257
20
6.75193
11
23.5358
21
6.75342
0
LINE
8
Black
10
23.5358
20
6.75342
11
23.5458
21
6.75519
0
LINE
8
Black
10
23.5458
20
6.75519
11
23.6668
21
6.75519
0
LINE
8
Black
10
23.6668
20
6.75519
11
23.6722
21
6.75422
0
LINE
8
Black
10
23.5561
20
6.62819
11
23.5075
21
6.612
0
LINE
8
Black
10
23.5075
20
6.612
11
23.477
21
6.5815
0
LINE
8
Black
10
23.477
20
6.5815
11
23.4606
21
6.54857
0
LINE
8
Black
10
23.4606
20
6.54857
11
23.44
21
6.46616
0
LINE
8
Black
10
23.44
20
6.46616
11
23.44
21
6.40922
0
LINE
8
Black
10
23.44
20
6.40922
11
23.4606
21
6.32681
0
LINE
8
Black
10
23.4606
20
6.32681
11
23.477
21
6.29388
0
LINE
8
Black
10
23.477
20
6.29388
11
23.5075
21
6.26338
0
LINE
8
Black
10
23.5075
20
6.26338
11
23.5561
21
6.24719
0
LINE
8
Black
10
23.5561
20
6.24719
11
23.6033
21
6.24719
0
LINE
8
Black
10
23.6033
20
6.24719
11
23.6033
21
6.62819
0
LINE
8
Black
10
23.6033
20
6.62819
11
23.5561
21
6.62819
0
LINE
8
Black
10
23.114
20
6.75455
11
23.1176
21
6.75477
0
LINE
8
Black
10
23.1176
20
6.75477
11
23.1248
21
6.75265
0
LINE
8
Black
10
23.1248
20
6.75265
11
23.1321
21
6.75136
0
LINE
8
Black
10
23.1321
20
6.75136
11
23.1353
21
6.74953
0
LINE
8
Black
10
23.1353
20
6.74953
11
23.1388
21
6.74849
0
LINE
8
Black
10
23.1388
20
6.74849
11
23.1871
21
6.7243
0
LINE
8
Black
10
23.1871
20
6.7243
11
23.1953
21
6.71823
0
LINE
8
Black
10
23.1953
20
6.71823
11
23.2037
21
6.7124
0
LINE
8
Black
10
23.2037
20
6.7124
11
23.2278
21
6.68821
0
LINE
8
Black
10
23.2278
20
6.68821
11
23.2405
21
6.67015
0
LINE
8
Black
10
23.2405
20
6.67015
11
23.2462
21
6.64884
0
LINE
8
Black
10
23.2462
20
6.64884
11
23.2443
21
6.62688
0
LINE
8
Black
10
23.2443
20
6.62688
11
23.235
21
6.60689
0
LINE
8
Black
10
23.235
20
6.60689
11
23.2194
21
6.59129
0
LINE
8
Black
10
23.2194
20
6.59129
11
23.1994
21
6.58197
0
LINE
8
Black
10
23.1994
20
6.58197
11
23.1774
21
6.58005
0
LINE
8
Black
10
23.1774
20
6.58005
11
23.1561
21
6.58576
0
LINE
8
Black
10
23.1561
20
6.58576
11
23.138
21
6.59841
0
LINE
8
Black
10
23.138
20
6.59841
11
23.1211
21
6.61531
0
LINE
8
Black
10
23.1211
20
6.61531
11
23.0954
21
6.62819
0
LINE
8
Black
10
23.0954
20
6.62819
11
23.0044
21
6.62819
0
LINE
8
Black
10
23.0044
20
6.62819
11
22.9787
21
6.61531
0
LINE
8
Black
10
22.9787
20
6.61531
11
22.969
21
6.6057
0
LINE
8
Black
10
22.969
20
6.6057
11
22.9562
21
6.57994
0
LINE
8
Black
10
22.9562
20
6.57994
11
22.9562
21
6.55685
0
LINE
8
Black
10
22.9562
20
6.55685
11
22.9723
21
6.50828
0
LINE
8
Black
10
22.9723
20
6.50828
11
23.252
21
6.22859
0
LINE
8
Black
10
23.252
20
6.22859
11
23.2568
21
6.2218
0
LINE
8
Black
10
23.2568
20
6.2218
11
23.2621
21
6.21544
0
LINE
8
Black
10
23.2621
20
6.21544
11
23.2631
21
6.21281
0
LINE
8
Black
10
23.2631
20
6.21281
11
23.2647
21
6.21053
0
LINE
8
Black
10
23.2647
20
6.21053
11
23.2668
21
6.20252
0
LINE
8
Black
10
23.2668
20
6.20252
11
23.2697
21
6.19472
0
LINE
8
Black
10
23.2697
20
6.19472
11
23.2697
21
6.19192
0
LINE
8
Black
10
23.2697
20
6.19192
11
23.2704
21
6.18922
0
LINE
8
Black
10
23.2704
20
6.18922
11
23.2697
21
6.18096
0
LINE
8
Black
10
23.2697
20
6.18096
11
23.2697
21
6.17266
0
LINE
8
Black
10
23.2697
20
6.17266
11
23.2687
21
6.17004
0
LINE
8
Black
10
23.2687
20
6.17004
11
23.2685
21
6.16725
0
LINE
8
Black
10
23.2685
20
6.16725
11
23.265
21
6.15974
0
LINE
8
Black
10
23.265
20
6.15974
11
23.2621
21
6.15194
0
LINE
8
Black
10
23.2621
20
6.15194
11
23.2603
21
6.1498
0
LINE
8
Black
10
23.2603
20
6.1498
11
23.2591
21
6.14727
0
LINE
8
Black
10
23.2591
20
6.14727
11
23.2533
21
6.14141
0
LINE
8
Black
10
23.2533
20
6.14141
11
23.248
21
6.13505
0
LINE
8
Black
10
23.248
20
6.13505
11
23.2455
21
6.13365
0
LINE
8
Black
10
23.2455
20
6.13365
11
23.2436
21
6.13167
0
LINE
8
Black
10
23.2436
20
6.13167
11
23.236
21
6.12817
0
LINE
8
Black
10
23.236
20
6.12817
11
23.2289
21
6.12402
0
LINE
8
Black
10
23.2289
20
6.12402
11
23.2261
21
6.12353
0
LINE
8
Black
10
23.2261
20
6.12353
11
23.2236
21
6.12235
0
LINE
8
Black
10
23.2236
20
6.12235
11
23.2153
21
6.12163
0
LINE
8
Black
10
23.2153
20
6.12163
11
23.2071
21
6.12019
0
LINE
8
Black
10
23.2071
20
6.12019
11
22.8927
21
6.12019
0
LINE
8
Black
10
22.8927
20
6.12019
11
22.8709
21
6.12402
0
LINE
8
Black
10
22.8709
20
6.12402
11
22.8518
21
6.13505
0
LINE
8
Black
10
22.8518
20
6.13505
11
22.8377
21
6.15194
0
LINE
8
Black
10
22.8377
20
6.15194
11
22.8301
21
6.17266
0
LINE
8
Black
10
22.8301
20
6.17266
11
22.8301
21
6.19472
0
LINE
8
Black
10
22.8301
20
6.19472
11
22.8377
21
6.21544
0
LINE
8
Black
10
22.8377
20
6.21544
11
22.8518
21
6.23233
0
LINE
8
Black
10
22.8518
20
6.23233
11
22.8709
21
6.24336
0
LINE
8
Black
10
22.8709
20
6.24336
11
22.8927
21
6.24719
0
LINE
8
Black
10
22.8927
20
6.24719
11
23.0538
21
6.24719
0
LINE
8
Black
10
23.0538
20
6.24719
11
22.8719
21
6.42908
0
LINE
8
Black
10
22.8719
20
6.42908
11
22.8698
21
6.43207
0
LINE
8
Black
10
22.8698
20
6.43207
11
22.8671
21
6.4345
0
LINE
8
Black
10
22.8671
20
6.4345
11
22.8636
21
6.44105
0
LINE
8
Black
10
22.8636
20
6.44105
11
22.8593
21
6.44714
0
LINE
8
Black
10
22.8593
20
6.44714
11
22.8584
21
6.45067
0
LINE
8
Black
10
22.8584
20
6.45067
11
22.8566
21
6.45389
0
LINE
8
Black
10
22.8566
20
6.45389
11
22.8324
21
6.52647
0
LINE
8
Black
10
22.8324
20
6.52647
11
22.8309
21
6.53653
0
LINE
8
Black
10
22.8309
20
6.53653
11
22.8292
21
6.54655
0
LINE
8
Black
10
22.8292
20
6.54655
11
22.8292
21
6.59493
0
LINE
8
Black
10
22.8292
20
6.59493
11
22.8298
21
6.59854
0
LINE
8
Black
10
22.8298
20
6.59854
11
22.8296
21
6.60219
0
LINE
8
Black
10
22.8296
20
6.60219
11
22.8317
21
6.60932
0
LINE
8
Black
10
22.8317
20
6.60932
11
22.833
21
6.61665
0
LINE
8
Black
10
22.833
20
6.61665
11
22.8348
21
6.61982
0
LINE
8
Black
10
22.8348
20
6.61982
11
22.8359
21
6.62333
0
LINE
8
Black
10
22.8359
20
6.62333
11
22.8601
21
6.67171
0
LINE
8
Black
10
22.8601
20
6.67171
11
22.8661
21
6.67989
0
LINE
8
Black
10
22.8661
20
6.67989
11
22.8719
21
6.68821
0
LINE
8
Black
10
22.8719
20
6.68821
11
22.8961
21
6.7124
0
LINE
8
Black
10
22.8961
20
6.7124
11
22.9045
21
6.71823
0
LINE
8
Black
10
22.9045
20
6.71823
11
22.9126
21
6.7243
0
LINE
8
Black
10
22.9126
20
6.7243
11
22.961
21
6.74849
0
LINE
8
Black
10
22.961
20
6.74849
11
22.9645
21
6.74953
0
LINE
8
Black
10
22.9645
20
6.74953
11
22.9677
21
6.75136
0
LINE
8
Black
10
22.9677
20
6.75136
11
22.975
21
6.75265
0
LINE
8
Black
10
22.975
20
6.75265
11
22.9822
21
6.75477
0
LINE
8
Black
10
22.9822
20
6.75477
11
22.9858
21
6.75455
0
LINE
8
Black
10
22.9858
20
6.75455
11
22.9894
21
6.75519
0
LINE
8
Black
10
22.9894
20
6.75519
11
23.1104
21
6.75519
0
LINE
8
Black
10
23.1104
20
6.75519
11
23.114
21
6.75455
0
LINE
8
Black
10
20.3241
20
9.52085
11
20.333
21
9.52085
0
LINE
8
Black
10
20.333
20
9.52085
11
20.3369
21
9.51942
0
LINE
8
Black
10
20.3369
20
9.51942
11
20.3411
21
9.51897
0
LINE
8
Black
10
20.3411
20
9.51897
11
20.3491
21
9.515
0
LINE
8
Black
10
20.3491
20
9.515
11
20.3575
21
9.51194
0
LINE
8
Black
10
20.3575
20
9.51194
11
20.3607
21
9.50926
0
LINE
8
Black
10
20.3607
20
9.50926
11
20.3644
21
9.50742
0
LINE
8
Black
10
20.3644
20
9.50742
11
20.3706
21
9.50095
0
LINE
8
Black
10
20.3706
20
9.50095
11
20.3775
21
9.49519
0
LINE
8
Black
10
20.3775
20
9.49519
11
20.3795
21
9.4916
0
LINE
8
Black
10
20.3795
20
9.4916
11
20.3824
21
9.48859
0
LINE
8
Black
10
20.3824
20
9.48859
11
20.4509
21
9.38591
0
LINE
8
Black
10
20.4509
20
9.38591
11
20.5096
21
9.3272
0
LINE
8
Black
10
20.5096
20
9.3272
11
20.5713
21
9.29635
0
LINE
8
Black
10
20.5713
20
9.29635
11
20.5922
21
9.28083
0
LINE
8
Black
10
20.5922
20
9.28083
11
20.6065
21
9.2591
0
LINE
8
Black
10
20.6065
20
9.2591
11
20.6126
21
9.23376
0
LINE
8
Black
10
20.6126
20
9.23376
11
20.6096
21
9.20789
0
LINE
8
Black
10
20.6096
20
9.20789
11
20.598
21
9.18459
0
LINE
8
Black
10
20.598
20
9.18459
11
20.579
21
9.16668
0
LINE
8
Black
10
20.579
20
9.16668
11
20.5551
21
9.15632
0
LINE
8
Black
10
20.5551
20
9.15632
11
20.5291
21
9.15476
0
LINE
8
Black
10
20.5291
20
9.15476
11
20.5042
21
9.16219
0
LINE
8
Black
10
20.5042
20
9.16219
11
20.4316
21
9.19848
0
LINE
8
Black
10
20.4316
20
9.19848
11
20.422
21
9.20563
0
LINE
8
Black
10
20.422
20
9.20563
11
20.4121
21
9.21252
0
LINE
8
Black
10
20.4121
20
9.21252
11
20.395
21
9.22963
0
LINE
8
Black
10
20.395
20
9.22963
11
20.395
21
8.75999
0
LINE
8
Black
10
20.395
20
8.75999
11
20.5377
21
8.75999
0
LINE
8
Black
10
20.5377
20
8.75999
11
20.5634
21
8.75546
0
LINE
8
Black
10
20.5634
20
8.75546
11
20.5859
21
8.74244
0
LINE
8
Black
10
20.5859
20
8.74244
11
20.6027
21
8.72249
0
LINE
8
Black
10
20.6027
20
8.72249
11
20.6116
21
8.69801
0
LINE
8
Black
10
20.6116
20
8.69801
11
20.6116
21
8.67196
0
LINE
8
Black
10
20.6116
20
8.67196
11
20.6027
21
8.64749
0
LINE
8
Black
10
20.6027
20
8.64749
11
20.5859
21
8.62753
0
LINE
8
Black
10
20.5859
20
8.62753
11
20.5634
21
8.61451
0
LINE
8
Black
10
20.5634
20
8.61451
11
20.5377
21
8.60999
0
LINE
8
Black
10
20.5377
20
8.60999
11
20.1023
21
8.60999
0
LINE
8
Black
10
20.1023
20
8.60999
11
20.0766
21
8.61451
0
LINE
8
Black
10
20.0766
20
8.61451
11
20.0541
21
8.62753
0
LINE
8
Black
10
20.0541
20
8.62753
11
20.0373
21
8.64749
0
LINE
8
Black
10
20.0373
20
8.64749
11
20.0284
21
8.67196
0
LINE
8
Black
10
20.0284
20
8.67196
11
20.0284
21
8.69801
0
LINE
8
Black
10
20.0284
20
8.69801
11
20.0373
21
8.72249
0
LINE
8
Black
10
20.0373
20
8.72249
11
20.0541
21
8.74244
0
LINE
8
Black
10
20.0541
20
8.74244
11
20.0766
21
8.75546
0
LINE
8
Black
10
20.0766
20
8.75546
11
20.1023
21
8.75999
0
LINE
8
Black
10
20.1023
20
8.75999
11
20.245
21
8.75999
0
LINE
8
Black
10
20.245
20
8.75999
11
20.245
21
9.44699
0
LINE
8
Black
10
20.245
20
9.44699
11
20.2457
21
9.45108
0
LINE
8
Black
10
20.2457
20
9.45108
11
20.2455
21
9.45523
0
LINE
8
Black
10
20.2455
20
9.45523
11
20.248
21
9.46382
0
LINE
8
Black
10
20.248
20
9.46382
11
20.2495
21
9.47264
0
LINE
8
Black
10
20.2495
20
9.47264
11
20.2516
21
9.47624
0
LINE
8
Black
10
20.2516
20
9.47624
11
20.2528
21
9.48023
0
LINE
8
Black
10
20.2528
20
9.48023
11
20.2581
21
9.48744
0
LINE
8
Black
10
20.2581
20
9.48744
11
20.2625
21
9.49519
0
LINE
8
Black
10
20.2625
20
9.49519
11
20.2657
21
9.49787
0
LINE
8
Black
10
20.2657
20
9.49787
11
20.2682
21
9.50122
0
LINE
8
Black
10
20.2682
20
9.50122
11
20.2756
21
9.50619
0
LINE
8
Black
10
20.2756
20
9.50619
11
20.2825
21
9.51194
0
LINE
8
Black
10
20.2825
20
9.51194
11
20.2864
21
9.51336
0
LINE
8
Black
10
20.2864
20
9.51336
11
20.2899
21
9.51567
0
LINE
8
Black
10
20.2899
20
9.51567
11
20.2986
21
9.51779
0
LINE
8
Black
10
20.2986
20
9.51779
11
20.307
21
9.52085
0
LINE
8
Black
10
20.307
20
9.52085
11
20.3111
21
9.52085
0
LINE
8
Black
10
20.3111
20
9.52085
11
20.3152
21
9.52183
0
LINE
8
Black
10
20.3152
20
9.52183
11
20.3241
21
9.52085
0
LINE
8
Black
10
21.2699
20
9.52085
11
21.2765
21
9.52085
0
LINE
8
Black
10
21.2765
20
9.52085
11
21.2826
21
9.5186
0
LINE
8
Black
10
21.2826
20
9.5186
11
21.2891
21
9.51746
0
LINE
8
Black
10
21.2891
20
9.51746
11
21.2948
21
9.51418
0
LINE
8
Black
10
21.2948
20
9.51418
11
21.3009
21
9.51194
0
LINE
8
Black
10
21.3009
20
9.51194
11
21.306
21
9.50772
0
LINE
8
Black
10
21.306
20
9.50772
11
21.3116
21
9.50444
0
LINE
8
Black
10
21.3116
20
9.50444
11
21.3159
21
9.49941
0
LINE
8
Black
10
21.3159
20
9.49941
11
21.3209
21
9.49519
0
LINE
8
Black
10
21.3209
20
9.49519
11
21.3242
21
9.48951
0
LINE
8
Black
10
21.3242
20
9.48951
11
21.3284
21
9.48449
0
LINE
8
Black
10
21.3284
20
9.48449
11
21.3306
21
9.47832
0
LINE
8
Black
10
21.3306
20
9.47832
11
21.3339
21
9.47264
0
LINE
8
Black
10
21.3339
20
9.47264
11
21.335
21
9.46618
0
LINE
8
Black
10
21.335
20
9.46618
11
21.3373
21
9.46001
0
LINE
8
Black
10
21.3373
20
9.46001
11
21.3373
21
9.45345
0
LINE
8
Black
10
21.3373
20
9.45345
11
21.3384
21
9.44699
0
LINE
8
Black
10
21.3384
20
9.44699
11
21.3384
21
8.68499
0
LINE
8
Black
10
21.3384
20
8.68499
11
21.3373
21
8.67853
0
LINE
8
Black
10
21.3373
20
8.67853
11
21.3373
21
8.67196
0
LINE
8
Black
10
21.3373
20
8.67196
11
21.335
21
8.66579
0
LINE
8
Black
10
21.335
20
8.66579
11
21.3339
21
8.65933
0
LINE
8
Black
10
21.3339
20
8.65933
11
21.3306
21
8.65365
0
LINE
8
Black
10
21.3306
20
8.65365
11
21.3284
21
8.64749
0
LINE
8
Black
10
21.3284
20
8.64749
11
21.3242
21
8.64246
0
LINE
8
Black
10
21.3242
20
8.64246
11
21.3209
21
8.63678
0
LINE
8
Black
10
21.3209
20
8.63678
11
21.3159
21
8.63256
0
LINE
8
Black
10
21.3159
20
8.63256
11
21.3116
21
8.62753
0
LINE
8
Black
10
21.3116
20
8.62753
11
21.306
21
8.62425
0
LINE
8
Black
10
21.306
20
8.62425
11
21.3009
21
8.62003
0
LINE
8
Black
10
21.3009
20
8.62003
11
21.2948
21
8.61779
0
LINE
8
Black
10
21.2948
20
8.61779
11
21.2891
21
8.61451
0
LINE
8
Black
10
21.2891
20
8.61451
11
21.2826
21
8.61337
0
LINE
8
Black
10
21.2826
20
8.61337
11
21.2765
21
8.61112
0
LINE
8
Black
10
21.2765
20
8.61112
11
21.2699
21
8.61112
0
LINE
8
Black
10
21.2699
20
8.61112
11
21.2634
21
8.60999
0
LINE
8
Black
10
21.2634
20
8.60999
11
20.9731
21
8.60999
0
LINE
8
Black
10
20.9731
20
8.60999
11
20.9689
21
8.61074
0
LINE
8
Black
10
20.9689
20
8.61074
11
20.9646
21
8.61048
0
LINE
8
Black
10
20.9646
20
8.61048
11
20.9561
21
8.61298
0
LINE
8
Black
10
20.9561
20
8.61298
11
20.9475
21
8.61451
0
LINE
8
Black
10
20.9475
20
8.61451
11
20.9437
21
8.61667
0
LINE
8
Black
10
20.9437
20
8.61667
11
20.9396
21
8.6179
0
LINE
8
Black
10
20.9396
20
8.6179
11
20.867
21
8.65419
0
LINE
8
Black
10
20.867
20
8.65419
11
20.8574
21
8.66134
0
LINE
8
Black
10
20.8574
20
8.66134
11
20.8475
21
8.66824
0
LINE
8
Black
10
20.8475
20
8.66824
11
20.8113
21
8.70453
0
LINE
8
Black
10
20.8113
20
8.70453
11
20.8044
21
8.71436
0
LINE
8
Black
10
20.8044
20
8.71436
11
20.7972
21
8.72402
0
LINE
8
Black
10
20.7972
20
8.72402
11
20.7609
21
8.79659
0
LINE
8
Black
10
20.7609
20
8.79659
11
20.7597
21
8.80073
0
LINE
8
Black
10
20.7597
20
8.80073
11
20.7575
21
8.80448
0
LINE
8
Black
10
20.7575
20
8.80448
11
20.756
21
8.81313
0
LINE
8
Black
10
20.756
20
8.81313
11
20.7535
21
8.82156
0
LINE
8
Black
10
20.7535
20
8.82156
11
20.7538
21
8.82587
0
LINE
8
Black
10
20.7538
20
8.82587
11
20.753
21
8.83013
0
LINE
8
Black
10
20.753
20
8.83013
11
20.753
21
8.93899
0
LINE
8
Black
10
20.753
20
8.93899
11
20.7538
21
8.94325
0
LINE
8
Black
10
20.7538
20
8.94325
11
20.7535
21
8.94756
0
LINE
8
Black
10
20.7535
20
8.94756
11
20.756
21
8.95598
0
LINE
8
Black
10
20.756
20
8.95598
11
20.7575
21
8.96464
0
LINE
8
Black
10
20.7575
20
8.96464
11
20.7597
21
8.96838
0
LINE
8
Black
10
20.7597
20
8.96838
11
20.7609
21
8.97253
0
LINE
8
Black
10
20.7609
20
8.97253
11
20.7972
21
9.0451
0
LINE
8
Black
10
20.7972
20
9.0451
11
20.8044
21
9.05474
0
LINE
8
Black
10
20.8044
20
9.05474
11
20.8113
21
9.06459
0
LINE
8
Black
10
20.8113
20
9.06459
11
20.8475
21
9.10088
0
LINE
8
Black
10
20.8475
20
9.10088
11
20.8492
21
9.10202
0
LINE
8
Black
10
20.8492
20
9.10202
11
20.8475
21
9.10367
0
LINE
8
Black
10
20.8475
20
9.10367
11
20.8407
21
9.1135
0
LINE
8
Black
10
20.8407
20
9.1135
11
20.8335
21
9.12316
0
LINE
8
Black
10
20.8335
20
9.12316
11
20.7972
21
9.19573
0
LINE
8
Black
10
20.7972
20
9.19573
11
20.796
21
9.19987
0
LINE
8
Black
10
20.796
20
9.19987
11
20.7938
21
9.20362
0
LINE
8
Black
10
20.7938
20
9.20362
11
20.7923
21
9.21227
0
LINE
8
Black
10
20.7923
20
9.21227
11
20.7898
21
9.2207
0
LINE
8
Black
10
20.7898
20
9.2207
11
20.79
21
9.22501
0
LINE
8
Black
10
20.79
20
9.22501
11
20.7893
21
9.22927
0
LINE
8
Black
10
20.7893
20
9.22927
11
20.7893
21
9.30184
0
LINE
8
Black
10
20.7893
20
9.30184
11
20.79
21
9.3061
0
LINE
8
Black
10
20.79
20
9.3061
11
20.7898
21
9.31042
0
LINE
8
Black
10
20.7898
20
9.31042
11
20.7923
21
9.31884
0
LINE
8
Black
10
20.7923
20
9.31884
11
20.7938
21
9.32749
0
LINE
8
Black
10
20.7938
20
9.32749
11
20.796
21
9.33124
0
LINE
8
Black
10
20.796
20
9.33124
11
20.7972
21
9.33538
0
LINE
8
Black
10
20.7972
20
9.33538
11
20.8335
21
9.40795
0
LINE
8
Black
10
20.8335
20
9.40795
11
20.8407
21
9.41761
0
LINE
8
Black
10
20.8407
20
9.41761
11
20.8475
21
9.42745
0
LINE
8
Black
10
20.8475
20
9.42745
11
20.8838
21
9.46373
0
LINE
8
Black
10
20.8838
20
9.46373
11
20.8937
21
9.47063
0
LINE
8
Black
10
20.8937
20
9.47063
11
20.9033
21
9.47778
0
LINE
8
Black
10
20.9033
20
9.47778
11
20.9759
21
9.51407
0
LINE
8
Black
10
20.9759
20
9.51407
11
20.98
21
9.5153
0
LINE
8
Black
10
20.98
20
9.5153
11
20.9838
21
9.51746
0
LINE
8
Black
10
20.9838
20
9.51746
11
20.9924
21
9.51899
0
LINE
8
Black
10
20.9924
20
9.51899
11
21.0009
21
9.52149
0
LINE
8
Black
10
21.0009
20
9.52149
11
21.0052
21
9.52123
0
LINE
8
Black
10
21.0052
20
9.52123
11
21.0094
21
9.52199
0
LINE
8
Black
10
21.0094
20
9.52199
11
21.2634
21
9.52199
0
LINE
8
Black
10
21.2634
20
9.52199
11
21.2699
21
9.52085
0
LINE
8
Black
10
21.0216
20
9.00913
11
20.9411
21
8.98229
0
LINE
8
Black
10
20.9411
20
8.98229
11
20.9259
21
8.96713
0
LINE
8
Black
10
20.9259
20
8.96713
11
20.903
21
8.92128
0
LINE
8
Black
10
20.903
20
8.92128
11
20.903
21
8.84783
0
LINE
8
Black
10
20.903
20
8.84783
11
20.9259
21
8.80198
0
LINE
8
Black
10
20.9259
20
8.80198
11
20.945
21
8.78291
0
LINE
8
Black
10
20.945
20
8.78291
11
20.9908
21
8.75999
0
LINE
8
Black
10
20.9908
20
8.75999
11
21.1884
21
8.75999
0
LINE
8
Black
10
21.1884
20
8.75999
11
21.1884
21
9.00913
0
LINE
8
Black
10
21.1884
20
9.00913
11
21.0216
21
9.00913
0
LINE
8
Black
10
21.0271
20
9.37199
11
20.9813
21
9.34906
0
LINE
8
Black
10
20.9813
20
9.34906
11
20.9622
21
9.32999
0
LINE
8
Black
10
20.9622
20
9.32999
11
20.9393
21
9.28414
0
LINE
8
Black
10
20.9393
20
9.28414
11
20.9393
21
9.24698
0
LINE
8
Black
10
20.9393
20
9.24698
11
20.9622
21
9.20113
0
LINE
8
Black
10
20.9622
20
9.20113
11
20.9813
21
9.18205
0
LINE
8
Black
10
20.9813
20
9.18205
11
21.0271
21
9.15913
0
LINE
8
Black
10
21.0271
20
9.15913
11
21.1884
21
9.15913
0
LINE
8
Black
10
21.1884
20
9.15913
11
21.1884
21
9.37199
0
LINE
8
Black
10
21.1884
20
9.37199
11
21.0271
21
9.37199
0
LINE
8
Black
10
22.0319
20
9.52085
11
22.0385
21
9.52085
0
LINE
8
Black
10
22.0385
20
9.52085
11
22.0446
21
9.5186
0
LINE
8
Black
10
22.0446
20
9.5186
11
22.0511
21
9.51746
0
LINE
8
Black
10
22.0511
20
9.51746
11
22.0568
21
9.51418
0
LINE
8
Black
10
22.0568
20
9.51418
11
22.0629
21
9.51194
0
LINE
8
Black
10
22.0629
20
9.51194
11
22.068
21
9.50772
0
LINE
8
Black
10
22.068
20
9.50772
11
22.0736
21
9.50444
0
LINE
8
Black
10
22.0736
20
9.50444
11
22.0779
21
9.49941
0
LINE
8
Black
10
22.0779
20
9.49941
11
22.0829
21
9.49519
0
LINE
8
Black
10
22.0829
20
9.49519
11
22.0862
21
9.48951
0
LINE
8
Black
10
22.0862
20
9.48951
11
22.0904
21
9.48449
0
LINE
8
Black
10
22.0904
20
9.48449
11
22.0926
21
9.47832
0
LINE
8
Black
10
22.0926
20
9.47832
11
22.0959
21
9.47264
0
LINE
8
Black
10
22.0959
20
9.47264
11
22.097
21
9.46618
0
LINE
8
Black
10
22.097
20
9.46618
11
22.0993
21
9.46001
0
LINE
8
Black
10
22.0993
20
9.46001
11
22.0993
21
9.45345
0
LINE
8
Black
10
22.0993
20
9.45345
11
22.1004
21
9.44699
0
LINE
8
Black
10
22.1004
20
9.44699
11
22.1004
21
8.68499
0
LINE
8
Black
10
22.1004
20
8.68499
11
22.0959
21
8.65933
0
LINE
8
Black
10
22.0959
20
8.65933
11
22.0829
21
8.63678
0
LINE
8
Black
10
22.0829
20
8.63678
11
22.0629
21
8.62003
0
LINE
8
Black
10
22.0629
20
8.62003
11
22.0385
21
8.61112
0
LINE
8
Black
10
22.0385
20
8.61112
11
22.0124
21
8.61112
0
LINE
8
Black
10
22.0124
20
8.61112
11
21.9879
21
8.62003
0
LINE
8
Black
10
21.9879
20
8.62003
11
21.968
21
8.63678
0
LINE
8
Black
10
21.968
20
8.63678
11
21.955
21
8.65933
0
LINE
8
Black
10
21.955
20
8.65933
11
21.9504
21
8.68499
0
LINE
8
Black
10
21.9504
20
8.68499
11
21.9504
21
8.97284
0
LINE
8
Black
10
21.9504
20
8.97284
11
21.7351
21
8.97284
0
LINE
8
Black
10
21.7351
20
8.97284
11
21.7309
21
8.97359
0
LINE
8
Black
10
21.7309
20
8.97359
11
21.7266
21
8.97333
0
LINE
8
Black
10
21.7266
20
8.97333
11
21.7181
21
8.97584
0
LINE
8
Black
10
21.7181
20
8.97584
11
21.7095
21
8.97737
0
LINE
8
Black
10
21.7095
20
8.97737
11
21.7057
21
8.97953
0
LINE
8
Black
10
21.7057
20
8.97953
11
21.7016
21
8.98076
0
LINE
8
Black
10
21.7016
20
8.98076
11
21.629
21
9.01705
0
LINE
8
Black
10
21.629
20
9.01705
11
21.6194
21
9.0242
0
LINE
8
Black
10
21.6194
20
9.0242
11
21.6095
21
9.0311
0
LINE
8
Black
10
21.6095
20
9.0311
11
21.5733
21
9.06738
0
LINE
8
Black
10
21.5733
20
9.06738
11
21.5664
21
9.07721
0
LINE
8
Black
10
21.5664
20
9.07721
11
21.5592
21
9.08687
0
LINE
8
Black
10
21.5592
20
9.08687
11
21.5229
21
9.15944
0
LINE
8
Black
10
21.5229
20
9.15944
11
21.5217
21
9.16359
0
LINE
8
Black
10
21.5217
20
9.16359
11
21.5195
21
9.16733
0
LINE
8
Black
10
21.5195
20
9.16733
11
21.518
21
9.17599
0
LINE
8
Black
10
21.518
20
9.17599
11
21.5155
21
9.18441
0
LINE
8
Black
10
21.5155
20
9.18441
11
21.5158
21
9.18873
0
LINE
8
Black
10
21.5158
20
9.18873
11
21.515
21
9.19299
0
LINE
8
Black
10
21.515
20
9.19299
11
21.515
21
9.30184
0
LINE
8
Black
10
21.515
20
9.30184
11
21.5158
21
9.3061
0
LINE
8
Black
10
21.5158
20
9.3061
11
21.5155
21
9.31042
0
LINE
8
Black
10
21.5155
20
9.31042
11
21.518
21
9.31884
0
LINE
8
Black
10
21.518
20
9.31884
11
21.5195
21
9.32749
0
LINE
8
Black
10
21.5195
20
9.32749
11
21.5217
21
9.33124
0
LINE
8
Black
10
21.5217
20
9.33124
11
21.5229
21
9.33538
0
LINE
8
Black
10
21.5229
20
9.33538
11
21.5592
21
9.40795
0
LINE
8
Black
10
21.5592
20
9.40795
11
21.5664
21
9.4176
0
LINE
8
Black
10
21.5664
20
9.4176
11
21.5733
21
9.42745
0
LINE
8
Black
10
21.5733
20
9.42745
11
21.6095
21
9.46373
0
LINE
8
Black
10
21.6095
20
9.46373
11
21.6194
21
9.47062
0
LINE
8
Black
10
21.6194
20
9.47062
11
21.629
21
9.47778
0
LINE
8
Black
10
21.629
20
9.47778
11
21.7016
21
9.51407
0
LINE
8
Black
10
21.7016
20
9.51407
11
21.7057
21
9.5153
0
LINE
8
Black
10
21.7057
20
9.5153
11
21.7095
21
9.51746
0
LINE
8
Black
10
21.7095
20
9.51746
11
21.7181
21
9.51899
0
LINE
8
Black
10
21.7181
20
9.51899
11
21.7266
21
9.52149
0
LINE
8
Black
10
21.7266
20
9.52149
11
21.7309
21
9.52123
0
LINE
8
Black
10
21.7309
20
9.52123
11
21.7351
21
9.52199
0
LINE
8
Black
10
21.7351
20
9.52199
11
22.0254
21
9.52199
0
LINE
8
Black
10
22.0254
20
9.52199
11
22.0319
21
9.52085
0
LINE
8
Black
10
21.7528
20
9.37199
11
21.707
21
9.34906
0
LINE
8
Black
10
21.707
20
9.34906
11
21.6879
21
9.32999
0
LINE
8
Black
10
21.6879
20
9.32999
11
21.665
21
9.28414
0
LINE
8
Black
10
21.665
20
9.28414
11
21.665
21
9.21069
0
LINE
8
Black
10
21.665
20
9.21069
11
21.6879
21
9.16484
0
LINE
8
Black
10
21.6879
20
9.16484
11
21.707
21
9.14577
0
LINE
8
Black
10
21.707
20
9.14577
11
21.7528
21
9.12284
0
LINE
8
Black
10
21.7528
20
9.12284
11
21.9504
21
9.12284
0
LINE
8
Black
10
21.9504
20
9.12284
11
21.9504
21
9.37199
0
LINE
8
Black
10
21.9504
20
9.37199
11
21.7528
21
9.37199
0
LINE
8
Black
10
21.8758
20
10.957
11
21.8939
21
10.9466
0
LINE
8
Black
10
21.8939
20
10.9466
11
21.9073
21
10.9306
0
LINE
8
Black
10
21.9073
20
10.9306
11
21.9144
21
10.911
0
LINE
8
Black
10
21.9144
20
10.911
11
21.9144
21
10.8902
0
LINE
8
Black
10
21.9144
20
10.8902
11
21.9073
21
10.8706
0
LINE
8
Black
10
21.9073
20
10.8706
11
21.8939
21
10.8546
0
LINE
8
Black
10
21.8939
20
10.8546
11
21.8758
21
10.8442
0
LINE
8
Black
10
21.8758
20
10.8442
11
21.8553
21
10.8406
0
LINE
8
Black
10
21.8553
20
10.8406
11
20.3553
21
10.8406
0
LINE
8
Black
10
20.3553
20
10.8406
11
20.3348
21
10.8442
0
LINE
8
Black
10
20.3348
20
10.8442
11
20.3167
21
10.8546
0
LINE
8
Black
10
20.3167
20
10.8546
11
20.3033
21
10.8706
0
LINE
8
Black
10
20.3033
20
10.8706
11
20.2962
21
10.8902
0
LINE
8
Black
10
20.2962
20
10.8902
11
20.2962
21
10.911
0
LINE
8
Black
10
20.2962
20
10.911
11
20.3033
21
10.9306
0
LINE
8
Black
10
20.3033
20
10.9306
11
20.3167
21
10.9466
0
LINE
8
Black
10
20.3167
20
10.9466
11
20.3348
21
10.957
0
LINE
8
Black
10
20.3348
20
10.957
11
20.3553
21
10.9606
0
LINE
8
Black
10
20.3553
20
10.9606
11
21.8553
21
10.9606
0
LINE
8
Black
10
21.8553
20
10.9606
11
21.8758
21
10.957
0
LINE
8
Black
10
17.8853
20
16.7026
11
17.9013
21
16.6892
0
LINE
8
Black
10
17.9013
20
16.6892
11
17.9117
21
16.6711
0
LINE
8
Black
10
17.9117
20
16.6711
11
17.9153
21
16.6506
0
LINE
8
Black
10
17.9153
20
16.6506
11
17.9153
21
12.1506
0
LINE
8
Black
10
17.9153
20
12.1506
11
17.9117
21
12.1301
0
LINE
8
Black
10
17.9117
20
12.1301
11
17.9013
21
12.112
0
LINE
8
Black
10
17.9013
20
12.112
11
17.8853
21
12.0986
0
LINE
8
Black
10
17.8853
20
12.0986
11
17.8657
21
12.0915
0
LINE
8
Black
10
17.8657
20
12.0915
11
17.8449
21
12.0915
0
LINE
8
Black
10
17.8449
20
12.0915
11
17.8253
21
12.0986
0
LINE
8
Black
10
17.8253
20
12.0986
11
17.8093
21
12.112
0
LINE
8
Black
10
17.8093
20
12.112
11
17.7989
21
12.1301
0
LINE
8
Black
10
17.7989
20
12.1301
11
17.7953
21
12.1506
0
LINE
8
Black
10
17.7953
20
12.1506
11
17.7953
21
16.6506
0
LINE
8
Black
10
17.7953
20
16.6506
11
17.7989
21
16.6711
0
LINE
8
Black
10
17.7989
20
16.6711
11
17.8093
21
16.6892
0
LINE
8
Black
10
17.8093
20
16.6892
11
17.8253
21
16.7026
0
LINE
8
Black
10
17.8253
20
16.7026
11
17.8449
21
16.7097
0
LINE
8
Black
10
17.8449
20
16.7097
11
17.8657
21
16.7097
0
LINE
8
Black
10
17.8657
20
16.7097
11
17.8853
21
16.7026
0
LINE
8
Black
10
24.3853
20
16.7026
11
24.4013
21
16.6892
0
LINE
8
Black
10
24.4013
20
16.6892
11
24.4117
21
16.6711
0
LINE
8
Black
10
24.4117
20
16.6711
11
24.4153
21
16.6506
0
LINE
8
Black
10
24.4153
20
16.6506
11
24.4153
21
12.1506
0
LINE
8
Black
10
24.4153
20
12.1506
11
24.4117
21
12.1301
0
LINE
8
Black
10
24.4117
20
12.1301
11
24.4013
21
12.112
0
LINE
8
Black
10
24.4013
20
12.112
11
24.3853
21
12.0986
0
LINE
8
Black
10
24.3853
20
12.0986
11
24.3657
21
12.0915
0
LINE
8
Black
10
24.3657
20
12.0915
11
24.3449
21
12.0915
0
LINE
8
Black
10
24.3449
20
12.0915
11
24.3253
21
12.0986
0
LINE
8
Black
10
24.3253
20
12.0986
11
24.3093
21
12.112
0
LINE
8
Black
10
24.3093
20
12.112
11
24.2989
21
12.1301
0
LINE
8
Black
10
24.2989
20
12.1301
11
24.2953
21
12.1506
0
LINE
8
Black
10
24.2953
20
12.1506
11
24.2953
21
16.6506
0
LINE
8
Black
10
24.2953
20
16.6506
11
24.2989
21
16.6711
0
LINE
8
Black
10
24.2989
20
16.6711
11
24.3093
21
16.6892
0
LINE
8
Black
10
24.3093
20
16.6892
11
24.3253
21
16.7026
0
LINE
8
Black
10
24.3253
20
16.7026
11
24.3449
21
16.7097
0
LINE
8
Black
10
24.3449
20
16.7097
11
24.3657
21
16.7097
0
LINE
8
Black
10
24.3657
20
16.7097
11
24.3853
21
16.7026
0
LINE
8
Black
10
21.8758
20
17.957
11
21.8939
21
17.9466
0
LINE
8
Black
10
21.8939
20
17.9466
11
21.9073
21
17.9306
0
LINE
8
Black
10
21.9073
20
17.9306
11
21.9144
21
17.911
0
LINE
8
Black
10
21.9144
20
17.911
11
21.9144
21
17.8902
0
LINE
8
Black
10
21.9144
20
17.8902
11
21.9073
21
17.8706
0
LINE
8
Black
10
21.9073
20
17.8706
11
21.8939
21
17.8546
0
LINE
8
Black
10
21.8939
20
17.8546
11
21.8758
21
17.8442
0
LINE
8
Black
10
21.8758
20
17.8442
11
21.8553
21
17.8406
0
LINE
8
Black
10
21.8553
20
17.8406
11
20.3553
21
17.8406
0
LINE
8
Black
10
20.3553
20
17.8406
11
20.3348
21
17.8442
0
LINE
8
Black
10
20.3348
20
17.8442
11
20.3167
21
17.8546
0
LINE
8
Black
10
20.3167
20
17.8546
11
20.3033
21
17.8706
0
LINE
8
Black
10
20.3033
20
17.8706
11
20.2962
21
17.8902
0
LINE
8
Black
10
20.2962
20
17.8902
11
20.2962
21
17.911
0
LINE
8
Black
10
20.2962
20
17.911
11
20.3033
21
17.9306
0
LINE
8
Black
10
20.3033
20
17.9306
11
20.3167
21
17.9466
0
LINE
8
Black
10
20.3167
20
17.9466
11
20.3348
21
17.957
0
LINE
8
Black
10
20.3348
20
17.957
11
20.3553
21
17.9606
0
LINE
8
Black
10
20.3553
20
17.9606
11
21.8553
21
17.9606
0
LINE
8
Black
10
21.8553
20
17.9606
11
21.8758
21
17.957
0
LINE
8
Black
10
16.4535
20
25.3267
11
16.4591
21
25.3267
0
LINE
8
Black
10
16.4591
20
25.3267
11
16.4643
21
25.3248
0
LINE
8
Black
10
16.4643
20
25.3248
11
16.4698
21
25.3238
0
LINE
8
Black
10
16.4698
20
25.3238
11
16.4746
21
25.3211
0
LINE
8
Black
10
16.4746
20
25.3211
11
16.4798
21
25.3192
0
LINE
8
Black
10
16.4798
20
25.3192
11
16.4841
21
25.3156
0
LINE
8
Black
10
16.4841
20
25.3156
11
16.4889
21
25.3128
0
LINE
8
Black
10
16.4889
20
25.3128
11
16.4925
21
25.3086
0
LINE
8
Black
10
16.4925
20
25.3086
11
16.4967
21
25.305
0
LINE
8
Black
10
16.4967
20
25.305
11
16.4995
21
25.3002
0
LINE
8
Black
10
16.4995
20
25.3002
11
16.5031
21
25.2959
0
LINE
8
Black
10
16.5031
20
25.2959
11
16.505
21
25.2907
0
LINE
8
Black
10
16.505
20
25.2907
11
16.5077
21
25.2859
0
LINE
8
Black
10
16.5077
20
25.2859
11
16.5087
21
25.2804
0
LINE
8
Black
10
16.5087
20
25.2804
11
16.5106
21
25.2752
0
LINE
8
Black
10
16.5106
20
25.2752
11
16.5106
21
25.2696
0
LINE
8
Black
10
16.5106
20
25.2696
11
16.5116
21
25.2642
0
LINE
8
Black
10
16.5116
20
25.2642
11
16.5116
21
24.7562
0
LINE
8
Black
10
16.5116
20
24.7562
11
16.5077
21
24.7345
0
LINE
8
Black
10
16.5077
20
24.7345
11
16.4967
21
24.7154
0
LINE
8
Black
10
16.4967
20
24.7154
11
16.4798
21
24.7012
0
LINE
8
Black
10
16.4798
20
24.7012
11
16.4591
21
24.6936
0
LINE
8
Black
10
16.4591
20
24.6936
11
16.437
21
24.6936
0
LINE
8
Black
10
16.437
20
24.6936
11
16.4163
21
24.7012
0
LINE
8
Black
10
16.4163
20
24.7012
11
16.3994
21
24.7154
0
LINE
8
Black
10
16.3994
20
24.7154
11
16.3884
21
24.7345
0
LINE
8
Black
10
16.3884
20
24.7345
11
16.3846
21
24.7562
0
LINE
8
Black
10
16.3846
20
24.7562
11
16.3846
21
24.9346
0
LINE
8
Black
10
16.3846
20
24.9346
11
16.3602
21
24.9346
0
LINE
8
Black
10
16.3602
20
24.9346
11
16.2098
21
24.7198
0
LINE
8
Black
10
16.2098
20
24.7198
11
16.1942
21
24.7042
0
LINE
8
Black
10
16.1942
20
24.7042
11
16.1742
21
24.6948
0
LINE
8
Black
10
16.1742
20
24.6948
11
16.1523
21
24.6929
0
LINE
8
Black
10
16.1523
20
24.6929
11
16.131
21
24.6986
0
LINE
8
Black
10
16.131
20
24.6986
11
16.1129
21
24.7113
0
LINE
8
Black
10
16.1129
20
24.7113
11
16.1002
21
24.7293
0
LINE
8
Black
10
16.1002
20
24.7293
11
16.0945
21
24.7506
0
LINE
8
Black
10
16.0945
20
24.7506
11
16.0964
21
24.7726
0
LINE
8
Black
10
16.0964
20
24.7726
11
16.1058
21
24.7926
0
LINE
8
Black
10
16.1058
20
24.7926
11
16.2141
21
24.9473
0
LINE
8
Black
10
16.2141
20
24.9473
11
16.1778
21
24.9655
0
LINE
8
Black
10
16.1778
20
24.9655
11
16.1696
21
24.9715
0
LINE
8
Black
10
16.1696
20
24.9715
11
16.1613
21
24.9774
0
LINE
8
Black
10
16.1613
20
24.9774
11
16.1371
21
25.0016
0
LINE
8
Black
10
16.1371
20
25.0016
11
16.1313
21
25.0099
0
LINE
8
Black
10
16.1313
20
25.0099
11
16.1252
21
25.0181
0
LINE
8
Black
10
16.1252
20
25.0181
11
16.101
21
25.0664
0
LINE
8
Black
10
16.101
20
25.0664
11
16.0999
21
25.0699
0
LINE
8
Black
10
16.0999
20
25.0699
11
16.0981
21
25.0731
0
LINE
8
Black
10
16.0981
20
25.0731
11
16.0968
21
25.0804
0
LINE
8
Black
10
16.0968
20
25.0804
11
16.0947
21
25.0876
0
LINE
8
Black
10
16.0947
20
25.0876
11
16.0949
21
25.0912
0
LINE
8
Black
10
16.0949
20
25.0912
11
16.0943
21
25.0948
0
LINE
8
Black
10
16.0943
20
25.0948
11
16.0943
21
25.1674
0
LINE
8
Black
10
16.0943
20
25.1674
11
16.0949
21
25.171
0
LINE
8
Black
10
16.0949
20
25.171
11
16.0947
21
25.1747
0
LINE
8
Black
10
16.0947
20
25.1747
11
16.0968
21
25.1818
0
LINE
8
Black
10
16.0968
20
25.1818
11
16.0981
21
25.1891
0
LINE
8
Black
10
16.0981
20
25.1891
11
16.0999
21
25.1923
0
LINE
8
Black
10
16.0999
20
25.1923
11
16.101
21
25.1958
0
LINE
8
Black
10
16.101
20
25.1958
11
16.1252
21
25.2442
0
LINE
8
Black
10
16.1252
20
25.2442
11
16.1313
21
25.2524
0
LINE
8
Black
10
16.1313
20
25.2524
11
16.1371
21
25.2607
0
LINE
8
Black
10
16.1371
20
25.2607
11
16.1613
21
25.2849
0
LINE
8
Black
10
16.1613
20
25.2849
11
16.1696
21
25.2907
0
LINE
8
Black
10
16.1696
20
25.2907
11
16.1778
21
25.2968
0
LINE
8
Black
10
16.1778
20
25.2968
11
16.2262
21
25.321
0
LINE
8
Black
10
16.2262
20
25.321
11
16.2297
21
25.322
0
LINE
8
Black
10
16.2297
20
25.322
11
16.2328
21
25.3238
0
LINE
8
Black
10
16.2328
20
25.3238
11
16.2402
21
25.3251
0
LINE
8
Black
10
16.2402
20
25.3251
11
16.2473
21
25.3273
0
LINE
8
Black
10
16.2473
20
25.3273
11
16.2509
21
25.327
0
LINE
8
Black
10
16.2509
20
25.327
11
16.2545
21
25.3277
0
LINE
8
Black
10
16.2545
20
25.3277
11
16.4481
21
25.3277
0
LINE
8
Black
10
16.4481
20
25.3277
11
16.4535
21
25.3267
0
LINE
8
Black
10
16.2695
20
25.2007
11
16.2438
21
25.1878
0
LINE
8
Black
10
16.2438
20
25.1878
11
16.2342
21
25.1782
0
LINE
8
Black
10
16.2342
20
25.1782
11
16.2213
21
25.1524
0
LINE
8
Black
10
16.2213
20
25.1524
11
16.2213
21
25.1098
0
LINE
8
Black
10
16.2213
20
25.1098
11
16.2342
21
25.0841
0
LINE
8
Black
10
16.2342
20
25.0841
11
16.2438
21
25.0745
0
LINE
8
Black
10
16.2438
20
25.0745
11
16.2695
21
25.0616
0
LINE
8
Black
10
16.2695
20
25.0616
11
16.3846
21
25.0616
0
LINE
8
Black
10
16.3846
20
25.0616
11
16.3846
21
25.2007
0
LINE
8
Black
10
16.3846
20
25.2007
11
16.2695
21
25.2007
0
LINE
8
Black
10
16.0102
20
25.3238
11
16.0293
21
25.3128
0
LINE
8
Black
10
16.0293
20
25.3128
11
16.0434
21
25.2959
0
LINE
8
Black
10
16.0434
20
25.2959
11
16.051
21
25.2752
0
LINE
8
Black
10
16.051
20
25.2752
11
16.051
21
25.2531
0
LINE
8
Black
10
16.051
20
25.2531
11
16.0434
21
25.2324
0
LINE
8
Black
10
16.0434
20
25.2324
11
16.0293
21
25.2155
0
LINE
8
Black
10
16.0293
20
25.2155
11
16.0102
21
25.2045
0
LINE
8
Black
10
16.0102
20
25.2045
11
15.9885
21
25.2007
0
LINE
8
Black
10
15.9885
20
25.2007
11
15.7461
21
25.2007
0
LINE
8
Black
10
15.7461
20
25.2007
11
15.9259
21
24.7812
0
LINE
8
Black
10
15.9259
20
24.7812
11
15.9309
21
24.7597
0
LINE
8
Black
10
15.9309
20
24.7597
11
15.9283
21
24.7378
0
LINE
8
Black
10
15.9283
20
24.7378
11
15.9183
21
24.7181
0
LINE
8
Black
10
15.9183
20
24.7181
11
15.9023
21
24.703
0
LINE
8
Black
10
15.9023
20
24.703
11
15.882
21
24.6943
0
LINE
8
Black
10
15.882
20
24.6943
11
15.86
21
24.6931
0
LINE
8
Black
10
15.86
20
24.6931
11
15.8389
21
24.6995
0
LINE
8
Black
10
15.8389
20
24.6995
11
15.8212
21
24.7127
0
LINE
8
Black
10
15.8212
20
24.7127
11
15.8091
21
24.7312
0
LINE
8
Black
10
15.8091
20
24.7312
11
15.5914
21
25.2392
0
LINE
8
Black
10
15.5914
20
25.2392
11
15.5898
21
25.2463
0
LINE
8
Black
10
15.5898
20
25.2463
11
15.5873
21
25.2531
0
LINE
8
Black
10
15.5873
20
25.2531
11
15.5873
21
25.2569
0
LINE
8
Black
10
15.5873
20
25.2569
11
15.5864
21
25.2606
0
LINE
8
Black
10
15.5864
20
25.2606
11
15.5873
21
25.2679
0
LINE
8
Black
10
15.5873
20
25.2679
11
15.5873
21
25.2752
0
LINE
8
Black
10
15.5873
20
25.2752
11
15.5885
21
25.2788
0
LINE
8
Black
10
15.5885
20
25.2788
11
15.589
21
25.2825
0
LINE
8
Black
10
15.589
20
25.2825
11
15.5923
21
25.289
0
LINE
8
Black
10
15.5923
20
25.289
11
15.5948
21
25.2959
0
LINE
8
Black
10
15.5948
20
25.2959
11
15.5972
21
25.2988
0
LINE
8
Black
10
15.5972
20
25.2988
11
15.5989
21
25.3022
0
LINE
8
Black
10
15.5989
20
25.3022
11
15.6043
21
25.3072
0
LINE
8
Black
10
15.6043
20
25.3072
11
15.609
21
25.3128
0
LINE
8
Black
10
15.609
20
25.3128
11
15.6123
21
25.3147
0
LINE
8
Black
10
15.6123
20
25.3147
11
15.615
21
25.3173
0
LINE
8
Black
10
15.615
20
25.3173
11
15.6217
21
25.3202
0
LINE
8
Black
10
15.6217
20
25.3202
11
15.6281
21
25.3238
0
LINE
8
Black
10
15.6281
20
25.3238
11
15.6318
21
25.3245
0
LINE
8
Black
10
15.6318
20
25.3245
11
15.6353
21
25.326
0
LINE
8
Black
10
15.6353
20
25.326
11
15.6426
21
25.3264
0
LINE
8
Black
10
15.6426
20
25.3264
11
15.6498
21
25.3277
0
LINE
8
Black
10
15.6498
20
25.3277
11
15.9885
21
25.3277
0
LINE
8
Black
10
15.9885
20
25.3277
11
16.0102
21
25.3238
0
LINE
8
Black
10
14.7351
20
25.3347
11
14.7388
21
25.3349
0
LINE
8
Black
10
14.7388
20
25.3349
11
14.7459
21
25.3328
0
LINE
8
Black
10
14.7459
20
25.3328
11
14.7532
21
25.3315
0
LINE
8
Black
10
14.7532
20
25.3315
11
14.7564
21
25.3296
0
LINE
8
Black
10
14.7564
20
25.3296
11
14.7599
21
25.3286
0
LINE
8
Black
10
14.7599
20
25.3286
11
14.8083
21
25.3044
0
LINE
8
Black
10
14.8083
20
25.3044
11
14.8165
21
25.2983
0
LINE
8
Black
10
14.8165
20
25.2983
11
14.8248
21
25.2925
0
LINE
8
Black
10
14.8248
20
25.2925
11
14.849
21
25.2683
0
LINE
8
Black
10
14.849
20
25.2683
11
14.8616
21
25.2502
0
LINE
8
Black
10
14.8616
20
25.2502
11
14.8673
21
25.2289
0
LINE
8
Black
10
14.8673
20
25.2289
11
14.8654
21
25.207
0
LINE
8
Black
10
14.8654
20
25.207
11
14.8561
21
25.187
0
LINE
8
Black
10
14.8561
20
25.187
11
14.8405
21
25.1714
0
LINE
8
Black
10
14.8405
20
25.1714
11
14.8205
21
25.1621
0
LINE
8
Black
10
14.8205
20
25.1621
11
14.7986
21
25.1602
0
LINE
8
Black
10
14.7986
20
25.1602
11
14.7773
21
25.1659
0
LINE
8
Black
10
14.7773
20
25.1659
11
14.7592
21
25.1785
0
LINE
8
Black
10
14.7592
20
25.1785
11
14.7423
21
25.1954
0
LINE
8
Black
10
14.7423
20
25.1954
11
14.7165
21
25.2083
0
LINE
8
Black
10
14.7165
20
25.2083
11
14.6256
21
25.2083
0
LINE
8
Black
10
14.6256
20
25.2083
11
14.5998
21
25.1954
0
LINE
8
Black
10
14.5998
20
25.1954
11
14.5902
21
25.1858
0
LINE
8
Black
10
14.5902
20
25.1858
11
14.5773
21
25.16
0
LINE
8
Black
10
14.5773
20
25.16
11
14.5773
21
25.137
0
LINE
8
Black
10
14.5773
20
25.137
11
14.5935
21
25.0884
0
LINE
8
Black
10
14.5935
20
25.0884
11
14.8732
21
24.8087
0
LINE
8
Black
10
14.8732
20
24.8087
11
14.8779
21
24.8019
0
LINE
8
Black
10
14.8779
20
24.8019
11
14.8833
21
24.7955
0
LINE
8
Black
10
14.8833
20
24.7955
11
14.8842
21
24.7929
0
LINE
8
Black
10
14.8842
20
24.7929
11
14.8858
21
24.7906
0
LINE
8
Black
10
14.8858
20
24.7906
11
14.888
21
24.7826
0
LINE
8
Black
10
14.888
20
24.7826
11
14.8908
21
24.7748
0
LINE
8
Black
10
14.8908
20
24.7748
11
14.8908
21
24.772
0
LINE
8
Black
10
14.8908
20
24.772
11
14.8915
21
24.7693
0
LINE
8
Black
10
14.8915
20
24.7693
11
14.8908
21
24.7611
0
LINE
8
Black
10
14.8908
20
24.7611
11
14.8908
21
24.7528
0
LINE
8
Black
10
14.8908
20
24.7528
11
14.8899
21
24.7501
0
LINE
8
Black
10
14.8899
20
24.7501
11
14.8896
21
24.7474
0
LINE
8
Black
10
14.8896
20
24.7474
11
14.8861
21
24.7398
0
LINE
8
Black
10
14.8861
20
24.7398
11
14.8833
21
24.732
0
LINE
8
Black
10
14.8833
20
24.732
11
14.8815
21
24.7299
0
LINE
8
Black
10
14.8815
20
24.7299
11
14.8803
21
24.7274
0
LINE
8
Black
10
14.8803
20
24.7274
11
14.8744
21
24.7215
0
LINE
8
Black
10
14.8744
20
24.7215
11
14.8691
21
24.7151
0
LINE
8
Black
10
14.8691
20
24.7151
11
14.8667
21
24.7137
0
LINE
8
Black
10
14.8667
20
24.7137
11
14.8647
21
24.7118
0
LINE
8
Black
10
14.8647
20
24.7118
11
14.8572
21
24.7083
0
LINE
8
Black
10
14.8572
20
24.7083
11
14.85
21
24.7041
0
LINE
8
Black
10
14.85
20
24.7041
11
14.8472
21
24.7036
0
LINE
8
Black
10
14.8472
20
24.7036
11
14.8447
21
24.7025
0
LINE
8
Black
10
14.8447
20
24.7025
11
14.8365
21
24.7017
0
LINE
8
Black
10
14.8365
20
24.7017
11
14.8283
21
24.7003
0
LINE
8
Black
10
14.8283
20
24.7003
11
14.5138
21
24.7003
0
LINE
8
Black
10
14.5138
20
24.7003
11
14.4921
21
24.7041
0
LINE
8
Black
10
14.4921
20
24.7041
11
14.473
21
24.7151
0
LINE
8
Black
10
14.473
20
24.7151
11
14.4588
21
24.732
0
LINE
8
Black
10
14.4588
20
24.732
11
14.4513
21
24.7528
0
LINE
8
Black
10
14.4513
20
24.7528
11
14.4513
21
24.7748
0
LINE
8
Black
10
14.4513
20
24.7748
11
14.4588
21
24.7955
0
LINE
8
Black
10
14.4588
20
24.7955
11
14.473
21
24.8124
0
LINE
8
Black
10
14.473
20
24.8124
11
14.4921
21
24.8235
0
LINE
8
Black
10
14.4921
20
24.8235
11
14.5138
21
24.8273
0
LINE
8
Black
10
14.5138
20
24.8273
11
14.675
21
24.8273
0
LINE
8
Black
10
14.675
20
24.8273
11
14.4931
21
25.0092
0
LINE
8
Black
10
14.4931
20
25.0092
11
14.491
21
25.0122
0
LINE
8
Black
10
14.491
20
25.0122
11
14.4883
21
25.0146
0
LINE
8
Black
10
14.4883
20
25.0146
11
14.4847
21
25.0211
0
LINE
8
Black
10
14.4847
20
25.0211
11
14.4804
21
25.0272
0
LINE
8
Black
10
14.4804
20
25.0272
11
14.4795
21
25.0308
0
LINE
8
Black
10
14.4795
20
25.0308
11
14.4778
21
25.034
0
LINE
8
Black
10
14.4778
20
25.034
11
14.4536
21
25.1066
0
LINE
8
Black
10
14.4536
20
25.1066
11
14.4521
21
25.1166
0
LINE
8
Black
10
14.4521
20
25.1166
11
14.4503
21
25.1266
0
LINE
8
Black
10
14.4503
20
25.1266
11
14.4503
21
25.175
0
LINE
8
Black
10
14.4503
20
25.175
11
14.4509
21
25.1786
0
LINE
8
Black
10
14.4509
20
25.1786
11
14.4507
21
25.1823
0
LINE
8
Black
10
14.4507
20
25.1823
11
14.4528
21
25.1894
0
LINE
8
Black
10
14.4528
20
25.1894
11
14.4541
21
25.1967
0
LINE
8
Black
10
14.4541
20
25.1967
11
14.456
21
25.1999
0
LINE
8
Black
10
14.456
20
25.1999
11
14.457
21
25.2034
0
LINE
8
Black
10
14.457
20
25.2034
11
14.4812
21
25.2518
0
LINE
8
Black
10
14.4812
20
25.2518
11
14.4873
21
25.26
0
LINE
8
Black
10
14.4873
20
25.26
11
14.4931
21
25.2683
0
LINE
8
Black
10
14.4931
20
25.2683
11
14.5173
21
25.2925
0
LINE
8
Black
10
14.5173
20
25.2925
11
14.5256
21
25.2983
0
LINE
8
Black
10
14.5256
20
25.2983
11
14.5338
21
25.3044
0
LINE
8
Black
10
14.5338
20
25.3044
11
14.5822
21
25.3286
0
LINE
8
Black
10
14.5822
20
25.3286
11
14.5857
21
25.3296
0
LINE
8
Black
10
14.5857
20
25.3296
11
14.5888
21
25.3315
0
LINE
8
Black
10
14.5888
20
25.3315
11
14.5962
21
25.3328
0
LINE
8
Black
10
14.5962
20
25.3328
11
14.6033
21
25.3349
0
LINE
8
Black
10
14.6033
20
25.3349
11
14.607
21
25.3347
0
LINE
8
Black
10
14.607
20
25.3347
11
14.6106
21
25.3353
0
LINE
8
Black
10
14.6106
20
25.3353
11
14.7315
21
25.3353
0
LINE
8
Black
10
14.7315
20
25.3353
11
14.7351
21
25.3347
0
LINE
8
Black
10
14.2271
20
25.3347
11
14.2308
21
25.3349
0
LINE
8
Black
10
14.2308
20
25.3349
11
14.2379
21
25.3328
0
LINE
8
Black
10
14.2379
20
25.3328
11
14.2452
21
25.3315
0
LINE
8
Black
10
14.2452
20
25.3315
11
14.2484
21
25.3296
0
LINE
8
Black
10
14.2484
20
25.3296
11
14.2519
21
25.3286
0
LINE
8
Black
10
14.2519
20
25.3286
11
14.3003
21
25.3044
0
LINE
8
Black
10
14.3003
20
25.3044
11
14.3085
21
25.2983
0
LINE
8
Black
10
14.3085
20
25.2983
11
14.3168
21
25.2925
0
LINE
8
Black
10
14.3168
20
25.2925
11
14.341
21
25.2683
0
LINE
8
Black
10
14.341
20
25.2683
11
14.3468
21
25.26
0
LINE
8
Black
10
14.3468
20
25.26
11
14.3529
21
25.2518
0
LINE
8
Black
10
14.3529
20
25.2518
11
14.3771
21
25.2034
0
LINE
8
Black
10
14.3771
20
25.2034
11
14.3781
21
25.1999
0
LINE
8
Black
10
14.3781
20
25.1999
11
14.3799
21
25.1967
0
LINE
8
Black
10
14.3799
20
25.1967
11
14.3812
21
25.1894
0
LINE
8
Black
10
14.3812
20
25.1894
11
14.3834
21
25.1823
0
LINE
8
Black
10
14.3834
20
25.1823
11
14.3831
21
25.1786
0
LINE
8
Black
10
14.3831
20
25.1786
11
14.3838
21
25.175
0
LINE
8
Black
10
14.3838
20
25.175
11
14.3838
21
25.1508
0
LINE
8
Black
10
14.3838
20
25.1508
11
14.3831
21
25.1472
0
LINE
8
Black
10
14.3831
20
25.1472
11
14.3834
21
25.1436
0
LINE
8
Black
10
14.3834
20
25.1436
11
14.3812
21
25.1364
0
LINE
8
Black
10
14.3812
20
25.1364
11
14.3799
21
25.1291
0
LINE
8
Black
10
14.3799
20
25.1291
11
14.3781
21
25.1259
0
LINE
8
Black
10
14.3781
20
25.1259
11
14.3771
21
25.1224
0
LINE
8
Black
10
14.3771
20
25.1224
11
14.3529
21
25.0741
0
LINE
8
Black
10
14.3529
20
25.0741
11
14.3468
21
25.0659
0
LINE
8
Black
10
14.3468
20
25.0659
11
14.341
21
25.0576
0
LINE
8
Black
10
14.341
20
25.0576
11
14.3375
21
25.0541
0
LINE
8
Black
10
14.3375
20
25.0541
11
14.341
21
25.0506
0
LINE
8
Black
10
14.341
20
25.0506
11
14.3468
21
25.0423
0
LINE
8
Black
10
14.3468
20
25.0423
11
14.3529
21
25.0341
0
LINE
8
Black
10
14.3529
20
25.0341
11
14.3771
21
24.9857
0
LINE
8
Black
10
14.3771
20
24.9857
11
14.3781
21
24.9822
0
LINE
8
Black
10
14.3781
20
24.9822
11
14.3799
21
24.979
0
LINE
8
Black
10
14.3799
20
24.979
11
14.3812
21
24.9717
0
LINE
8
Black
10
14.3812
20
24.9717
11
14.3834
21
24.9646
0
LINE
8
Black
10
14.3834
20
24.9646
11
14.3831
21
24.9609
0
LINE
8
Black
10
14.3831
20
24.9609
11
14.3838
21
24.9573
0
LINE
8
Black
10
14.3838
20
24.9573
11
14.3838
21
24.8606
0
LINE
8
Black
10
14.3838
20
24.8606
11
14.3831
21
24.8569
0
LINE
8
Black
10
14.3831
20
24.8569
11
14.3834
21
24.8533
0
LINE
8
Black
10
14.3834
20
24.8533
11
14.3812
21
24.8462
0
LINE
8
Black
10
14.3812
20
24.8462
11
14.3799
21
24.8388
0
LINE
8
Black
10
14.3799
20
24.8388
11
14.3781
21
24.8357
0
LINE
8
Black
10
14.3781
20
24.8357
11
14.3771
21
24.8322
0
LINE
8
Black
10
14.3771
20
24.8322
11
14.3529
21
24.7838
0
LINE
8
Black
10
14.3529
20
24.7838
11
14.3468
21
24.7756
0
LINE
8
Black
10
14.3468
20
24.7756
11
14.341
21
24.7673
0
LINE
8
Black
10
14.341
20
24.7673
11
14.3168
21
24.7431
0
LINE
8
Black
10
14.3168
20
24.7431
11
14.3085
21
24.7372
0
LINE
8
Black
10
14.3085
20
24.7372
11
14.3003
21
24.7312
0
LINE
8
Black
10
14.3003
20
24.7312
11
14.2519
21
24.707
0
LINE
8
Black
10
14.2519
20
24.707
11
14.2484
21
24.7059
0
LINE
8
Black
10
14.2484
20
24.7059
11
14.2452
21
24.7041
0
LINE
8
Black
10
14.2452
20
24.7041
11
14.2379
21
24.7028
0
LINE
8
Black
10
14.2379
20
24.7028
11
14.2308
21
24.7007
0
LINE
8
Black
10
14.2308
20
24.7007
11
14.2271
21
24.7009
0
LINE
8
Black
10
14.2271
20
24.7009
11
14.2235
21
24.7003
0
LINE
8
Black
10
14.2235
20
24.7003
11
14.1268
21
24.7003
0
LINE
8
Black
10
14.1268
20
24.7003
11
14.1231
21
24.7009
0
LINE
8
Black
10
14.1231
20
24.7009
11
14.1195
21
24.7007
0
LINE
8
Black
10
14.1195
20
24.7007
11
14.1124
21
24.7028
0
LINE
8
Black
10
14.1124
20
24.7028
11
14.105
21
24.7041
0
LINE
8
Black
10
14.105
20
24.7041
11
14.1019
21
24.7059
0
LINE
8
Black
10
14.1019
20
24.7059
11
14.0984
21
24.707
0
LINE
8
Black
10
14.0984
20
24.707
11
14.05
21
24.7312
0
LINE
8
Black
10
14.05
20
24.7312
11
14.0418
21
24.7373
0
LINE
8
Black
10
14.0418
20
24.7373
11
14.0335
21
24.7431
0
LINE
8
Black
10
14.0335
20
24.7431
11
14.0093
21
24.7673
0
LINE
8
Black
10
14.0093
20
24.7673
11
14.0035
21
24.7756
0
LINE
8
Black
10
14.0035
20
24.7756
11
13.9974
21
24.7838
0
LINE
8
Black
10
13.9974
20
24.7838
11
13.9732
21
24.8322
0
LINE
8
Black
10
13.9732
20
24.8322
11
13.9722
21
24.8357
0
LINE
8
Black
10
13.9722
20
24.8357
11
13.9703
21
24.8388
0
LINE
8
Black
10
13.9703
20
24.8388
11
13.969
21
24.8462
0
LINE
8
Black
10
13.969
20
24.8462
11
13.9669
21
24.8533
0
LINE
8
Black
10
13.9669
20
24.8533
11
13.9671
21
24.8569
0
LINE
8
Black
10
13.9671
20
24.8569
11
13.9665
21
24.8606
0
LINE
8
Black
10
13.9665
20
24.8606
11
13.9665
21
24.9573
0
LINE
8
Black
10
13.9665
20
24.9573
11
13.9671
21
24.9609
0
LINE
8
Black
10
13.9671
20
24.9609
11
13.9669
21
24.9646
0
LINE
8
Black
10
13.9669
20
24.9646
11
13.969
21
24.9717
0
LINE
8
Black
10
13.969
20
24.9717
11
13.9703
21
24.979
0
LINE
8
Black
10
13.9703
20
24.979
11
13.9722
21
24.9822
0
LINE
8
Black
10
13.9722
20
24.9822
11
13.9732
21
24.9857
0
LINE
8
Black
10
13.9732
20
24.9857
11
13.9974
21
25.0341
0
LINE
8
Black
10
13.9974
20
25.0341
11
14.0034
21
25.0423
0
LINE
8
Black
10
14.0034
20
25.0423
11
14.0093
21
25.0506
0
LINE
8
Black
10
14.0093
20
25.0506
11
14.0128
21
25.0541
0
LINE
8
Black
10
14.0128
20
25.0541
11
14.0093
21
25.0576
0
LINE
8
Black
10
14.0093
20
25.0576
11
14.0035
21
25.0659
0
LINE
8
Black
10
14.0035
20
25.0659
11
13.9974
21
25.0741
0
LINE
8
Black
10
13.9974
20
25.0741
11
13.9732
21
25.1224
0
LINE
8
Black
10
13.9732
20
25.1224
11
13.9722
21
25.126
0
LINE
8
Black
10
13.9722
20
25.126
11
13.9703
21
25.1291
0
LINE
8
Black
10
13.9703
20
25.1291
11
13.969
21
25.1364
0
LINE
8
Black
10
13.969
20
25.1364
11
13.9669
21
25.1436
0
LINE
8
Black
10
13.9669
20
25.1436
11
13.9671
21
25.1472
0
LINE
8
Black
10
13.9671
20
25.1472
11
13.9665
21
25.1508
0
LINE
8
Black
10
13.9665
20
25.1508
11
13.9665
21
25.175
0
LINE
8
Black
10
13.9665
20
25.175
11
13.9671
21
25.1786
0
LINE
8
Black
10
13.9671
20
25.1786
11
13.9669
21
25.1823
0
LINE
8
Black
10
13.9669
20
25.1823
11
13.969
21
25.1894
0
LINE
8
Black
10
13.969
20
25.1894
11
13.9703
21
25.1967
0
LINE
8
Black
10
13.9703
20
25.1967
11
13.9722
21
25.1999
0
LINE
8
Black
10
13.9722
20
25.1999
11
13.9732
21
25.2034
0
LINE
8
Black
10
13.9732
20
25.2034
11
13.9974
21
25.2518
0
LINE
8
Black
10
13.9974
20
25.2518
11
14.0035
21
25.26
0
LINE
8
Black
10
14.0035
20
25.26
11
14.0093
21
25.2683
0
LINE
8
Black
10
14.0093
20
25.2683
11
14.0335
21
25.2925
0
LINE
8
Black
10
14.0335
20
25.2925
11
14.0418
21
25.2983
0
LINE
8
Black
10
14.0418
20
25.2983
11
14.05
21
25.3044
0
LINE
8
Black
10
14.05
20
25.3044
11
14.0984
21
25.3286
0
LINE
8
Black
10
14.0984
20
25.3286
11
14.1019
21
25.3296
0
LINE
8
Black
10
14.1019
20
25.3296
11
14.105
21
25.3315
0
LINE
8
Black
10
14.105
20
25.3315
11
14.1124
21
25.3328
0
LINE
8
Black
10
14.1124
20
25.3328
11
14.1195
21
25.3349
0
LINE
8
Black
10
14.1195
20
25.3349
11
14.1231
21
25.3347
0
LINE
8
Black
10
14.1231
20
25.3347
11
14.1268
21
25.3353
0
LINE
8
Black
10
14.1268
20
25.3353
11
14.2235
21
25.3353
0
LINE
8
Black
10
14.2235
20
25.3353
11
14.2271
21
25.3347
0
LINE
8
Black
10
14.1417
20
24.9906
11
14.116
21
24.9777
0
LINE
8
Black
10
14.116
20
24.9777
11
14.1064
21
24.9681
0
LINE
8
Black
10
14.1064
20
24.9681
11
14.0935
21
24.9423
0
LINE
8
Black
10
14.0935
20
24.9423
11
14.0935
21
24.8755
0
LINE
8
Black
10
14.0935
20
24.8755
11
14.1064
21
24.8498
0
LINE
8
Black
10
14.1064
20
24.8498
11
14.116
21
24.8402
0
LINE
8
Black
10
14.116
20
24.8402
11
14.1417
21
24.8273
0
LINE
8
Black
10
14.1417
20
24.8273
11
14.2085
21
24.8273
0
LINE
8
Black
10
14.2085
20
24.8273
11
14.2343
21
24.8402
0
LINE
8
Black
10
14.2343
20
24.8402
11
14.2439
21
24.8498
0
LINE
8
Black
10
14.2439
20
24.8498
11
14.2568
21
24.8755
0
LINE
8
Black
10
14.2568
20
24.8755
11
14.2568
21
24.9423
0
LINE
8
Black
10
14.2568
20
24.9423
11
14.2439
21
24.9681
0
LINE
8
Black
10
14.2439
20
24.9681
11
14.2343
21
24.9777
0
LINE
8
Black
10
14.2343
20
24.9777
11
14.2085
21
24.9906
0
LINE
8
Black
10
14.2085
20
24.9906
11
14.1417
21
24.9906
0
LINE
8
Black
10
14.1417
20
25.2083
11
14.116
21
25.1954
0
LINE
8
Black
10
14.116
20
25.1954
11
14.1064
21
25.1858
0
LINE
8
Black
10
14.1064
20
25.1858
11
14.0949
21
25.1629
0
LINE
8
Black
10
14.0949
20
25.1629
11
14.1064
21
25.1401
0
LINE
8
Black
10
14.1064
20
25.1401
11
14.116
21
25.1305
0
LINE
8
Black
10
14.116
20
25.1305
11
14.1417
21
25.1176
0
LINE
8
Black
10
14.1417
20
25.1176
11
14.2085
21
25.1176
0
LINE
8
Black
10
14.2085
20
25.1176
11
14.2343
21
25.1305
0
LINE
8
Black
10
14.2343
20
25.1305
11
14.2439
21
25.1401
0
LINE
8
Black
10
14.2439
20
25.1401
11
14.2553
21
25.1629
0
LINE
8
Black
10
14.2553
20
25.1629
11
14.2439
21
25.1858
0
LINE
8
Black
10
14.2439
20
25.1858
11
14.2343
21
25.1954
0
LINE
8
Black
10
14.2343
20
25.1954
11
14.2085
21
25.2083
0
LINE
8
Black
10
14.2085
20
25.2083
11
14.1417
21
25.2083
0
LINE
8
Black
10
15.1528
20
25.3335
11
15.1628
21
25.332
0
LINE
8
Black
10
15.1628
20
25.332
11
15.2354
21
25.3078
0
LINE
8
Black
10
15.2354
20
25.3078
11
15.2386
21
25.3061
0
LINE
8
Black
10
15.2386
20
25.3061
11
15.2422
21
25.3051
0
LINE
8
Black
10
15.2422
20
25.3051
11
15.2483
21
25.3009
0
LINE
8
Black
10
15.2483
20
25.3009
11
15.2548
21
25.2973
0
LINE
8
Black
10
15.2548
20
25.2973
11
15.2572
21
25.2946
0
LINE
8
Black
10
15.2572
20
25.2946
11
15.2602
21
25.2925
0
LINE
8
Black
10
15.2602
20
25.2925
11
15.3086
21
25.2441
0
LINE
8
Black
10
15.3086
20
25.2441
11
15.3144
21
25.2358
0
LINE
8
Black
10
15.3144
20
25.2358
11
15.3205
21
25.2276
0
LINE
8
Black
10
15.3205
20
25.2276
11
15.3447
21
25.1792
0
LINE
8
Black
10
15.3447
20
25.1792
11
15.3467
21
25.1726
0
LINE
8
Black
10
15.3467
20
25.1726
11
15.3495
21
25.1662
0
LINE
8
Black
10
15.3495
20
25.1662
11
15.3737
21
25.0695
0
LINE
8
Black
10
15.3737
20
25.0695
11
15.3742
21
25.0617
0
LINE
8
Black
10
15.3742
20
25.0617
11
15.3756
21
25.0541
0
LINE
8
Black
10
15.3756
20
25.0541
11
15.3756
21
24.9815
0
LINE
8
Black
10
15.3756
20
24.9815
11
15.3742
21
24.9739
0
LINE
8
Black
10
15.3742
20
24.9739
11
15.3737
21
24.9661
0
LINE
8
Black
10
15.3737
20
24.9661
11
15.3495
21
24.8693
0
LINE
8
Black
10
15.3495
20
24.8693
11
15.3467
21
24.863
0
LINE
8
Black
10
15.3467
20
24.863
11
15.3447
21
24.8563
0
LINE
8
Black
10
15.3447
20
24.8563
11
15.3205
21
24.808
0
LINE
8
Black
10
15.3205
20
24.808
11
15.3144
21
24.7998
0
LINE
8
Black
10
15.3144
20
24.7998
11
15.3086
21
24.7915
0
LINE
8
Black
10
15.3086
20
24.7915
11
15.2602
21
24.7431
0
LINE
8
Black
10
15.2602
20
24.7431
11
15.2572
21
24.741
0
LINE
8
Black
10
15.2572
20
24.741
11
15.2548
21
24.7382
0
LINE
8
Black
10
15.2548
20
24.7382
11
15.2483
21
24.7347
0
LINE
8
Black
10
15.2483
20
24.7347
11
15.2422
21
24.7304
0
LINE
8
Black
10
15.2422
20
24.7304
11
15.2386
21
24.7295
0
LINE
8
Black
10
15.2386
20
24.7295
11
15.2354
21
24.7277
0
LINE
8
Black
10
15.2354
20
24.7277
11
15.1628
21
24.7035
0
LINE
8
Black
10
15.1628
20
24.7035
11
15.1528
21
24.7021
0
LINE
8
Black
10
15.1528
20
24.7021
11
15.1428
21
24.7003
0
LINE
8
Black
10
15.1428
20
24.7003
11
15.0944
21
24.7003
0
LINE
8
Black
10
15.0944
20
24.7003
11
15.0844
21
24.7021
0
LINE
8
Black
10
15.0844
20
24.7021
11
15.0743
21
24.7035
0
LINE
8
Black
10
15.0743
20
24.7035
11
15.0017
21
24.7277
0
LINE
8
Black
10
15.0017
20
24.7277
11
14.9985
21
24.7295
0
LINE
8
Black
10
14.9985
20
24.7295
11
14.995
21
24.7304
0
LINE
8
Black
10
14.995
20
24.7304
11
14.9889
21
24.7347
0
LINE
8
Black
10
14.9889
20
24.7347
11
14.9823
21
24.7382
0
LINE
8
Black
10
14.9823
20
24.7382
11
14.9799
21
24.741
0
LINE
8
Black
10
14.9799
20
24.741
11
14.9769
21
24.7431
0
LINE
8
Black
10
14.9769
20
24.7431
11
14.9527
21
24.7673
0
LINE
8
Black
10
14.9527
20
24.7673
11
14.9401
21
24.7853
0
LINE
8
Black
10
14.9401
20
24.7853
11
14.9344
21
24.8066
0
LINE
8
Black
10
14.9344
20
24.8066
11
14.9363
21
24.8286
0
LINE
8
Black
10
14.9363
20
24.8286
11
14.9456
21
24.8486
0
LINE
8
Black
10
14.9456
20
24.8486
11
14.9612
21
24.8642
0
LINE
8
Black
10
14.9612
20
24.8642
11
14.9812
21
24.8735
0
LINE
8
Black
10
14.9812
20
24.8735
11
15.0031
21
24.8754
0
LINE
8
Black
10
15.0031
20
24.8754
11
15.0244
21
24.8697
0
LINE
8
Black
10
15.0244
20
24.8697
11
15.0425
21
24.8571
0
LINE
8
Black
10
15.0425
20
24.8571
11
15.0561
21
24.8435
0
LINE
8
Black
10
15.0561
20
24.8435
11
15.1047
21
24.8273
0
LINE
8
Black
10
15.1047
20
24.8273
11
15.1325
21
24.8273
0
LINE
8
Black
10
15.1325
20
24.8273
11
15.181
21
24.8435
0
LINE
8
Black
10
15.181
20
24.8435
11
15.2115
21
24.874
0
LINE
8
Black
10
15.2115
20
24.874
11
15.228
21
24.9069
0
LINE
8
Black
10
15.228
20
24.9069
11
15.2486
21
24.9893
0
LINE
8
Black
10
15.2486
20
24.9893
11
15.2486
21
25.0463
0
LINE
8
Black
10
15.2486
20
25.0463
11
15.228
21
25.1287
0
LINE
8
Black
10
15.228
20
25.1287
11
15.2115
21
25.1616
0
LINE
8
Black
10
15.2115
20
25.1616
11
15.181
21
25.1921
0
LINE
8
Black
10
15.181
20
25.1921
11
15.1325
21
25.2083
0
LINE
8
Black
10
15.1325
20
25.2083
11
15.1047
21
25.2083
0
LINE
8
Black
10
15.1047
20
25.2083
11
15.0561
21
25.1921
0
LINE
8
Black
10
15.0561
20
25.1921
11
15.0425
21
25.1785
0
LINE
8
Black
10
15.0425
20
25.1785
11
15.0244
21
25.1659
0
LINE
8
Black
10
15.0244
20
25.1659
11
15.0031
21
25.1602
0
LINE
8
Black
10
15.0031
20
25.1602
11
14.9812
21
25.1621
0
LINE
8
Black
10
14.9812
20
25.1621
11
14.9612
21
25.1714
0
LINE
8
Black
10
14.9612
20
25.1714
11
14.9456
21
25.187
0
LINE
8
Black
10
14.9456
20
25.187
11
14.9363
21
25.207
0
LINE
8
Black
10
14.9363
20
25.207
11
14.9344
21
25.2289
0
LINE
8
Black
10
14.9344
20
25.2289
11
14.9401
21
25.2502
0
LINE
8
Black
10
14.9401
20
25.2502
11
14.9527
21
25.2683
0
LINE
8
Black
10
14.9527
20
25.2683
11
14.9769
21
25.2925
0
LINE
8
Black
10
14.9769
20
25.2925
11
14.9799
21
25.2946
0
LINE
8
Black
10
14.9799
20
25.2946
11
14.9823
21
25.2973
0
LINE
8
Black
10
14.9823
20
25.2973
11
14.9889
21
25.3009
0
LINE
8
Black
10
14.9889
20
25.3009
11
14.995
21
25.3051
0
LINE
8
Black
10
14.995
20
25.3051
11
14.9985
21
25.3061
0
LINE
8
Black
10
14.9985
20
25.3061
11
15.0017
21
25.3078
0
LINE
8
Black
10
15.0017
20
25.3078
11
15.0743
21
25.332
0
LINE
8
Black
10
15.0743
20
25.332
11
15.0844
21
25.3335
0
LINE
8
Black
10
15.0844
20
25.3335
11
15.0944
21
25.3353
0
LINE
8
Black
10
15.0944
20
25.3353
11
15.1428
21
25.3353
0
LINE
8
Black
10
15.1428
20
25.3353
11
15.1528
21
25.3335
0
LINE
8
Black
10
14.3301
20
26.9466
11
14.3461
21
26.9332
0
LINE
8
Black
10
14.3461
20
26.9332
11
14.3565
21
26.9151
0
LINE
8
Black
10
14.3565
20
26.9151
11
14.3601
21
26.8946
0
LINE
8
Black
10
14.3601
20
26.8946
11
14.3601
21
26.3946
0
LINE
8
Black
10
14.3601
20
26.3946
11
14.3565
21
26.3741
0
LINE
8
Black
10
14.3565
20
26.3741
11
14.3461
21
26.356
0
LINE
8
Black
10
14.3461
20
26.356
11
14.3301
21
26.3426
0
LINE
8
Black
10
14.3301
20
26.3426
11
14.3105
21
26.3355
0
LINE
8
Black
10
14.3105
20
26.3355
11
14.2897
21
26.3355
0
LINE
8
Black
10
14.2897
20
26.3355
11
14.2701
21
26.3426
0
LINE
8
Black
10
14.2701
20
26.3426
11
14.2541
21
26.356
0
LINE
8
Black
10
14.2541
20
26.356
11
14.2437
21
26.3741
0
LINE
8
Black
10
14.2437
20
26.3741
11
14.2401
21
26.3946
0
LINE
8
Black
10
14.2401
20
26.3946
11
14.2401
21
26.8946
0
LINE
8
Black
10
14.2401
20
26.8946
11
14.2437
21
26.9151
0
LINE
8
Black
10
14.2437
20
26.9151
11
14.2541
21
26.9332
0
LINE
8
Black
10
14.2541
20
26.9332
11
14.2701
21
26.9466
0
LINE
8
Black
10
14.2701
20
26.9466
11
14.2897
21
26.9537
0
LINE
8
Black
10
14.2897
20
26.9537
11
14.3105
21
26.9537
0
LINE
8
Black
10
14.3105
20
26.9537
11
14.3301
21
26.9466
0
LINE
8
Black
10
15.2701
20
26.9466
11
15.2861
21
26.9332
0
LINE
8
Black
10
15.2861
20
26.9332
11
15.2965
21
26.9151
0
LINE
8
Black
10
15.2965
20
26.9151
11
15.3001
21
26.8946
0
LINE
8
Black
10
15.3001
20
26.8946
11
15.3001
21
26.3946
0
LINE
8
Black
10
15.3001
20
26.3946
11
15.2965
21
26.3741
0
LINE
8
Black
10
15.2965
20
26.3741
11
15.2861
21
26.356
0
LINE
8
Black
10
15.2861
20
26.356
11
15.2701
21
26.3426
0
LINE
8
Black
10
15.2701
20
26.3426
11
15.2505
21
26.3355
0
LINE
8
Black
10
15.2505
20
26.3355
11
15.2297
21
26.3355
0
LINE
8
Black
10
15.2297
20
26.3355
11
15.2101
21
26.3426
0
LINE
8
Black
10
15.2101
20
26.3426
11
15.1941
21
26.356
0
LINE
8
Black
10
15.1941
20
26.356
11
15.1837
21
26.3741
0
LINE
8
Black
10
15.1837
20
26.3741
11
15.1801
21
26.3946
0
LINE
8
Black
10
15.1801
20
26.3946
11
15.1801
21
26.8946
0
LINE
8
Black
10
15.1801
20
26.8946
11
15.1837
21
26.9151
0
LINE
8
Black
10
15.1837
20
26.9151
11
15.1941
21
26.9332
0
LINE
8
Black
10
15.1941
20
26.9332
11
15.2101
21
26.9466
0
LINE
8
Black
10
15.2101
20
26.9466
11
15.2297
21
26.9537
0
LINE
8
Black
10
15.2297
20
26.9537
11
15.2505
21
26.9537
0
LINE
8
Black
10
15.2505
20
26.9537
11
15.2701
21
26.9466
0
LINE
8
Black
10
16.562
20
27.0863
11
16.578
21
27.0729
0
LINE
8
Black
10
16.578
20
27.0729
11
16.5884
21
27.0548
0
LINE
8
Black
10
16.5884
20
27.0548
11
16.592
21
27.0343
0
LINE
8
Black
10
16.592
20
27.0343
11
16.592
21
26.5343
0
LINE
8
Black
10
16.592
20
26.5343
11
16.5884
21
26.5138
0
LINE
8
Black
10
16.5884
20
26.5138
11
16.578
21
26.4957
0
LINE
8
Black
10
16.578
20
26.4957
11
16.562
21
26.4823
0
LINE
8
Black
10
16.562
20
26.4823
11
16.5424
21
26.4752
0
LINE
8
Black
10
16.5424
20
26.4752
11
16.5216
21
26.4752
0
LINE
8
Black
10
16.5216
20
26.4752
11
16.502
21
26.4823
0
LINE
8
Black
10
16.502
20
26.4823
11
16.486
21
26.4957
0
LINE
8
Black
10
16.486
20
26.4957
11
16.4756
21
26.5138
0
LINE
8
Black
10
16.4756
20
26.5138
11
16.472
21
26.5343
0
LINE
8
Black
10
16.472
20
26.5343
11
16.472
21
27.0343
0
LINE
8
Black
10
16.472
20
27.0343
11
16.4756
21
27.0548
0
LINE
8
Black
10
16.4756
20
27.0548
11
16.486
21
27.0729
0
LINE
8
Black
10
16.486
20
27.0729
11
16.502
21
27.0863
0
LINE
8
Black
10
16.502
20
27.0863
11
16.5216
21
27.0934
0
LINE
8
Black
10
16.5216
20
27.0934
11
16.5424
21
27.0934
0
LINE
8
Black
10
16.5424
20
27.0934
11
16.562
21
27.0863
0
LINE
8
Black
10
15.502
20
27.0863
11
15.518
21
27.0729
0
LINE
8
Black
10
15.518
20
27.0729
11
15.5284
21
27.0548
0
LINE
8
Black
10
15.5284
20
27.0548
11
15.532
21
27.0343
0
LINE
8
Black
10
15.532
20
27.0343
11
15.532
21
26.5343
0
LINE
8
Black
10
15.532
20
26.5343
11
15.5284
21
26.5138
0
LINE
8
Black
10
15.5284
20
26.5138
11
15.518
21
26.4957
0
LINE
8
Black
10
15.518
20
26.4957
11
15.502
21
26.4823
0
LINE
8
Black
10
15.502
20
26.4823
11
15.4824
21
26.4752
0
LINE
8
Black
10
15.4824
20
26.4752
11
15.4616
21
26.4752
0
LINE
8
Black
10
15.4616
20
26.4752
11
15.442
21
26.4823
0
LINE
8
Black
10
15.442
20
26.4823
11
15.426
21
26.4957
0
LINE
8
Black
10
15.426
20
26.4957
11
15.4156
21
26.5138
0
LINE
8
Black
10
15.4156
20
26.5138
11
15.412
21
26.5343
0
LINE
8
Black
10
15.412
20
26.5343
11
15.412
21
27.0343
0
LINE
8
Black
10
15.412
20
27.0343
11
15.4156
21
27.0548
0
LINE
8
Black
10
15.4156
20
27.0548
11
15.426
21
27.0729
0
LINE
8
Black
10
15.426
20
27.0729
11
15.442
21
27.0863
0
LINE
8
Black
10
15.442
20
27.0863
11
15.4616
21
27.0934
0
LINE
8
Black
10
15.4616
20
27.0934
11
15.4824
21
27.0934
0
LINE
8
Black
10
15.4824
20
27.0934
11
15.502
21
27.0863
0
LINE
8
Black
10
10.49
20
26.6511
11
10.5081
21
26.6407
0
LINE
8
Black
10
10.5081
20
26.6407
11
10.5215
21
26.6247
0
LINE
8
Black
10
10.5215
20
26.6247
11
10.5286
21
26.6051
0
LINE
8
Black
10
10.5286
20
26.6051
11
10.5286
21
26.5843
0
LINE
8
Black
10
10.5286
20
26.5843
11
10.5215
21
26.5647
0
LINE
8
Black
10
10.5215
20
26.5647
11
10.5081
21
26.5487
0
LINE
8
Black
10
10.5081
20
26.5487
11
10.49
21
26.5383
0
LINE
8
Black
10
10.49
20
26.5383
11
10.4695
21
26.5347
0
LINE
8
Black
10
10.4695
20
26.5347
11
9.4695
21
26.5347
0
LINE
8
Black
10
9.4695
20
26.5347
11
9.44898
21
26.5383
0
LINE
8
Black
10
9.44898
20
26.5383
11
9.43093
21
26.5487
0
LINE
8
Black
10
9.43093
20
26.5487
11
9.41754
21
26.5647
0
LINE
8
Black
10
9.41754
20
26.5647
11
9.41041
21
26.5843
0
LINE
8
Black
10
9.41041
20
26.5843
11
9.41041
21
26.6051
0
LINE
8
Black
10
9.41041
20
26.6051
11
9.41754
21
26.6247
0
LINE
8
Black
10
9.41754
20
26.6247
11
9.43093
21
26.6407
0
LINE
8
Black
10
9.43093
20
26.6407
11
9.44898
21
26.6511
0
LINE
8
Black
10
9.44898
20
26.6511
11
9.4695
21
26.6547
0
LINE
8
Black
10
9.4695
20
26.6547
11
10.4695
21
26.6547
0
LINE
8
Black
10
10.4695
20
26.6547
11
10.49
21
26.6511
0
LINE
8
Black
10
7.33562
20
27.8552
11
7.35367
21
27.8448
0
LINE
8
Black
10
7.35367
20
27.8448
11
7.36706
21
27.8288
0
LINE
8
Black
10
7.36706
20
27.8288
11
7.37419
21
27.8092
0
LINE
8
Black
10
7.37419
20
27.8092
11
7.37419
21
27.7884
0
LINE
8
Black
10
7.37419
20
27.7884
11
7.36706
21
27.7688
0
LINE
8
Black
10
7.36706
20
27.7688
11
7.35367
21
27.7528
0
LINE
8
Black
10
7.35367
20
27.7528
11
7.33562
21
27.7424
0
LINE
8
Black
10
7.33562
20
27.7424
11
7.3151
21
27.7388
0
LINE
8
Black
10
7.3151
20
27.7388
11
5.2751
21
27.7388
0
LINE
8
Black
10
5.2751
20
27.7388
11
5.2751
21
26.7188
0
LINE
8
Black
10
5.2751
20
26.7188
11
7.3151
21
26.7188
0
LINE
8
Black
10
7.3151
20
26.7188
11
7.33562
21
26.7152
0
LINE
8
Black
10
7.33562
20
26.7152
11
7.35367
21
26.7048
0
LINE
8
Black
10
7.35367
20
26.7048
11
7.36706
21
26.6888
0
LINE
8
Black
10
7.36706
20
26.6888
11
7.37419
21
26.6692
0
LINE
8
Black
10
7.37419
20
26.6692
11
7.37419
21
26.6484
0
LINE
8
Black
10
7.37419
20
26.6484
11
7.36706
21
26.6288
0
LINE
8
Black
10
7.36706
20
26.6288
11
7.35367
21
26.6128
0
LINE
8
Black
10
7.35367
20
26.6128
11
7.33562
21
26.6024
0
LINE
8
Black
10
7.33562
20
26.6024
11
7.3151
21
26.5988
0
LINE
8
Black
10
7.3151
20
26.5988
11
5.2151
21
26.5988
0
LINE
8
Black
10
5.2151
20
26.5988
11
5.20993
21
26.5997
0
LINE
8
Black
10
5.20993
20
26.5997
11
5.20468
21
26.5997
0
LINE
8
Black
10
5.20468
20
26.5997
11
5.19975
21
26.6015
0
LINE
8
Black
10
5.19975
20
26.6015
11
5.19458
21
26.6024
0
LINE
8
Black
10
5.19458
20
26.6024
11
5.19003
21
26.605
0
LINE
8
Black
10
5.19003
20
26.605
11
5.1851
21
26.6068
0
LINE
8
Black
10
5.1851
20
26.6068
11
5.18108
21
26.6102
0
LINE
8
Black
10
5.18108
20
26.6102
11
5.17653
21
26.6128
0
LINE
8
Black
10
5.17653
20
26.6128
11
5.17316
21
26.6169
0
LINE
8
Black
10
5.17316
20
26.6169
11
5.16914
21
26.6202
0
LINE
8
Black
10
5.16914
20
26.6202
11
5.16651
21
26.6248
0
LINE
8
Black
10
5.16651
20
26.6248
11
5.16314
21
26.6288
0
LINE
8
Black
10
5.16314
20
26.6288
11
5.16134
21
26.6337
0
LINE
8
Black
10
5.16134
20
26.6337
11
5.15872
21
26.6383
0
LINE
8
Black
10
5.15872
20
26.6383
11
5.15781
21
26.6435
0
LINE
8
Black
10
5.15781
20
26.6435
11
5.15601
21
26.6484
0
LINE
8
Black
10
5.15601
20
26.6484
11
5.15601
21
26.6536
0
LINE
8
Black
10
5.15601
20
26.6536
11
5.1551
21
26.6588
0
LINE
8
Black
10
5.1551
20
26.6588
11
5.1551
21
27.7988
0
LINE
8
Black
10
5.1551
20
27.7988
11
5.15601
21
27.804
0
LINE
8
Black
10
5.15601
20
27.804
11
5.15601
21
27.8092
0
LINE
8
Black
10
5.15601
20
27.8092
11
5.15781
21
27.8141
0
LINE
8
Black
10
5.15781
20
27.8141
11
5.15872
21
27.8193
0
LINE
8
Black
10
5.15872
20
27.8193
11
5.16134
21
27.8239
0
LINE
8
Black
10
5.16134
20
27.8239
11
5.16314
21
27.8288
0
LINE
8
Black
10
5.16314
20
27.8288
11
5.16651
21
27.8328
0
LINE
8
Black
10
5.16651
20
27.8328
11
5.16914
21
27.8374
0
LINE
8
Black
10
5.16914
20
27.8374
11
5.17316
21
27.8407
0
LINE
8
Black
10
5.17316
20
27.8407
11
5.17653
21
27.8448
0
LINE
8
Black
10
5.17653
20
27.8448
11
5.18108
21
27.8474
0
LINE
8
Black
10
5.18108
20
27.8474
11
5.1851
21
27.8508
0
LINE
8
Black
10
5.1851
20
27.8508
11
5.19003
21
27.8526
0
LINE
8
Black
10
5.19003
20
27.8526
11
5.19458
21
27.8552
0
LINE
8
Black
10
5.19458
20
27.8552
11
5.19975
21
27.8561
0
LINE
8
Black
10
5.19975
20
27.8561
11
5.20468
21
27.8579
0
LINE
8
Black
10
5.20468
20
27.8579
11
5.20993
21
27.8579
0
LINE
8
Black
10
5.20993
20
27.8579
11
5.2151
21
27.8588
0
LINE
8
Black
10
5.2151
20
27.8588
11
7.3151
21
27.8588
0
LINE
8
Black
10
7.3151
20
27.8588
11
7.33562
21
27.8552
0
LINE
8
Black
10
6.48362
20
28.3121
11
6.49317
21
28.3066
0
LINE
8
Black
10
6.49317
20
28.3066
11
6.50026
21
28.2982
0
LINE
8
Black
10
6.50026
20
28.2982
11
6.50403
21
28.2878
0
LINE
8
Black
10
6.50403
20
28.2878
11
6.50403
21
28.2768
0
LINE
8
Black
10
6.50403
20
28.2768
11
6.50026
21
28.2664
0
LINE
8
Black
10
6.50026
20
28.2664
11
6.49317
21
28.258
0
LINE
8
Black
10
6.49317
20
28.258
11
6.48362
21
28.2525
0
LINE
8
Black
10
6.48362
20
28.2525
11
6.47277
21
28.2505
0
LINE
8
Black
10
6.47277
20
28.2505
11
6.3855
21
28.2505
0
LINE
8
Black
10
6.3855
20
28.2505
11
6.42409
21
28.2064
0
LINE
8
Black
10
6.42409
20
28.2064
11
6.4257
21
28.2038
0
LINE
8
Black
10
6.4257
20
28.2038
11
6.42769
21
28.2014
0
LINE
8
Black
10
6.42769
20
28.2014
11
6.42853
21
28.1991
0
LINE
8
Black
10
6.42853
20
28.1991
11
6.4298
21
28.197
0
LINE
8
Black
10
6.4298
20
28.197
11
6.4304
21
28.194
0
LINE
8
Black
10
6.4304
20
28.194
11
6.43146
21
28.191
0
LINE
8
Black
10
6.43146
20
28.191
11
6.43146
21
28.1886
0
LINE
8
Black
10
6.43146
20
28.1886
11
6.43194
21
28.1862
0
LINE
8
Black
10
6.43194
20
28.1862
11
6.43146
21
28.1831
0
LINE
8
Black
10
6.43146
20
28.1831
11
6.43146
21
28.18
0
LINE
8
Black
10
6.43146
20
28.18
11
6.43062
21
28.1777
0
LINE
8
Black
10
6.43062
20
28.1777
11
6.43025
21
28.1753
0
LINE
8
Black
10
6.43025
20
28.1753
11
6.42875
21
28.1726
0
LINE
8
Black
10
6.42875
20
28.1726
11
6.42769
21
28.1697
0
LINE
8
Black
10
6.42769
20
28.1697
11
6.42611
21
28.1678
0
LINE
8
Black
10
6.42611
20
28.1678
11
6.42493
21
28.1656
0
LINE
8
Black
10
6.42493
20
28.1656
11
6.4226
21
28.1636
0
LINE
8
Black
10
6.4226
20
28.1636
11
6.4206
21
28.1612
0
LINE
8
Black
10
6.4206
20
28.1612
11
6.41848
21
28.16
0
LINE
8
Black
10
6.41848
20
28.16
11
6.41664
21
28.1584
0
LINE
8
Black
10
6.41664
20
28.1584
11
6.41374
21
28.1572
0
LINE
8
Black
10
6.41374
20
28.1572
11
6.41105
21
28.1557
0
LINE
8
Black
10
6.41105
20
28.1557
11
6.40864
21
28.1553
0
LINE
8
Black
10
6.40864
20
28.1553
11
6.40635
21
28.1544
0
LINE
8
Black
10
6.40635
20
28.1544
11
6.40325
21
28.1543
0
LINE
8
Black
10
6.40325
20
28.1543
11
6.4002
21
28.1538
0
LINE
8
Black
10
6.4002
20
28.1538
11
6.3714
21
28.1538
0
LINE
8
Black
10
6.3714
20
28.1538
11
6.35853
21
28.1473
0
LINE
8
Black
10
6.35853
20
28.1473
11
6.35372
21
28.1425
0
LINE
8
Black
10
6.35372
20
28.1425
11
6.34728
21
28.1297
0
LINE
8
Black
10
6.34728
20
28.1297
11
6.34728
21
28.0842
0
LINE
8
Black
10
6.34728
20
28.0842
11
6.35372
21
28.0713
0
LINE
8
Black
10
6.35372
20
28.0713
11
6.35853
21
28.0665
0
LINE
8
Black
10
6.35853
20
28.0665
11
6.3714
21
28.06
0
LINE
8
Black
10
6.3714
20
28.06
11
6.42899
21
28.06
0
LINE
8
Black
10
6.42899
20
28.06
11
6.44186
21
28.0665
0
LINE
8
Black
10
6.44186
20
28.0665
11
6.45031
21
28.0749
0
LINE
8
Black
10
6.45031
20
28.0749
11
6.45935
21
28.0813
0
LINE
8
Black
10
6.45935
20
28.0813
11
6.47
21
28.0841
0
LINE
8
Black
10
6.47
20
28.0841
11
6.48098
21
28.0832
0
LINE
8
Black
10
6.48098
20
28.0832
11
6.49098
21
28.0785
0
LINE
8
Black
10
6.49098
20
28.0785
11
6.49877
21
28.0707
0
LINE
8
Black
10
6.49877
20
28.0707
11
6.50343
21
28.0607
0
LINE
8
Black
10
6.50343
20
28.0607
11
6.5044
21
28.0497
0
LINE
8
Black
10
6.5044
20
28.0497
11
6.50154
21
28.0391
0
LINE
8
Black
10
6.50154
20
28.0391
11
6.49522
21
28.03
0
LINE
8
Black
10
6.49522
20
28.03
11
6.48312
21
28.0179
0
LINE
8
Black
10
6.48312
20
28.0179
11
6.47895
21
28.015
0
LINE
8
Black
10
6.47895
20
28.015
11
6.47487
21
28.012
0
LINE
8
Black
10
6.47487
20
28.012
11
6.45068
21
27.9999
0
LINE
8
Black
10
6.45068
20
27.9999
11
6.44893
21
27.9994
0
LINE
8
Black
10
6.44893
20
27.9994
11
6.44734
21
27.9985
0
LINE
8
Black
10
6.44734
20
27.9985
11
6.44368
21
27.9978
0
LINE
8
Black
10
6.44368
20
27.9978
11
6.44011
21
27.9968
0
LINE
8
Black
10
6.44011
20
27.9968
11
6.43828
21
27.9969
0
LINE
8
Black
10
6.43828
20
27.9969
11
6.43648
21
27.9965
0
LINE
8
Black
10
6.43648
20
27.9965
11
6.36391
21
27.9965
0
LINE
8
Black
10
6.36391
20
27.9965
11
6.3621
21
27.9969
0
LINE
8
Black
10
6.3621
20
27.9969
11
6.36028
21
27.9968
0
LINE
8
Black
10
6.36028
20
27.9968
11
6.35672
21
27.9978
0
LINE
8
Black
10
6.35672
20
27.9978
11
6.35305
21
27.9985
0
LINE
8
Black
10
6.35305
20
27.9985
11
6.35147
21
27.9994
0
LINE
8
Black
10
6.35147
20
27.9994
11
6.34971
21
27.9999
0
LINE
8
Black
10
6.34971
20
27.9999
11
6.32552
21
28.012
0
LINE
8
Black
10
6.32552
20
28.012
11
6.32143
21
28.015
0
LINE
8
Black
10
6.32143
20
28.015
11
6.31727
21
28.0179
0
LINE
8
Black
10
6.31727
20
28.0179
11
6.30517
21
28.03
0
LINE
8
Black
10
6.30517
20
28.03
11
6.30225
21
28.0342
0
LINE
8
Black
10
6.30225
20
28.0342
11
6.29922
21
28.0383
0
LINE
8
Black
10
6.29922
20
28.0383
11
6.28713
21
28.0625
0
LINE
8
Black
10
6.28713
20
28.0625
11
6.28661
21
28.0642
0
LINE
8
Black
10
6.28661
20
28.0642
11
6.28569
21
28.0658
0
LINE
8
Black
10
6.28569
20
28.0658
11
6.28505
21
28.0695
0
LINE
8
Black
10
6.28505
20
28.0695
11
6.28399
21
28.073
0
LINE
8
Black
10
6.28399
20
28.073
11
6.2841
21
28.0749
0
LINE
8
Black
10
6.2841
20
28.0749
11
6.28378
21
28.0767
0
LINE
8
Black
10
6.28378
20
28.0767
11
6.28378
21
28.1372
0
LINE
8
Black
10
6.28378
20
28.1372
11
6.2841
21
28.139
0
LINE
8
Black
10
6.2841
20
28.139
11
6.28399
21
28.1408
0
LINE
8
Black
10
6.28399
20
28.1408
11
6.28505
21
28.1443
0
LINE
8
Black
10
6.28505
20
28.1443
11
6.28569
21
28.148
0
LINE
8
Black
10
6.28569
20
28.148
11
6.28661
21
28.1496
0
LINE
8
Black
10
6.28661
20
28.1496
11
6.28713
21
28.1514
0
LINE
8
Black
10
6.28713
20
28.1514
11
6.29922
21
28.1755
0
LINE
8
Black
10
6.29922
20
28.1755
11
6.30225
21
28.1796
0
LINE
8
Black
10
6.30225
20
28.1796
11
6.30517
21
28.1838
0
LINE
8
Black
10
6.30517
20
28.1838
11
6.31727
21
28.1959
0
LINE
8
Black
10
6.31727
20
28.1959
11
6.32144
21
28.1988
0
LINE
8
Black
10
6.32144
20
28.1988
11
6.32552
21
28.2018
0
LINE
8
Black
10
6.32552
20
28.2018
11
6.3382
21
28.2082
0
LINE
8
Black
10
6.3382
20
28.2082
11
6.29163
21
28.2614
0
LINE
8
Black
10
6.29163
20
28.2614
11
6.29003
21
28.264
0
LINE
8
Black
10
6.29003
20
28.264
11
6.28803
21
28.2664
0
LINE
8
Black
10
6.28803
20
28.2664
11
6.28719
21
28.2687
0
LINE
8
Black
10
6.28719
20
28.2687
11
6.28592
21
28.2708
0
LINE
8
Black
10
6.28592
20
28.2708
11
6.28532
21
28.2739
0
LINE
8
Black
10
6.28532
20
28.2739
11
6.28426
21
28.2768
0
LINE
8
Black
10
6.28426
20
28.2768
11
6.28426
21
28.2792
0
LINE
8
Black
10
6.28426
20
28.2792
11
6.28378
21
28.2816
0
LINE
8
Black
10
6.28378
20
28.2816
11
6.28426
21
28.2847
0
LINE
8
Black
10
6.28426
20
28.2847
11
6.28426
21
28.2878
0
LINE
8
Black
10
6.28426
20
28.2878
11
6.2851
21
28.2901
0
LINE
8
Black
10
6.2851
20
28.2901
11
6.28547
21
28.2925
0
LINE
8
Black
10
6.28547
20
28.2925
11
6.28697
21
28.2953
0
LINE
8
Black
10
6.28697
20
28.2953
11
6.28803
21
28.2982
0
LINE
8
Black
10
6.28803
20
28.2982
11
6.28961
21
28.3
0
LINE
8
Black
10
6.28961
20
28.3
11
6.29079
21
28.3022
0
LINE
8
Black
10
6.29079
20
28.3022
11
6.29312
21
28.3042
0
LINE
8
Black
10
6.29312
20
28.3042
11
6.29512
21
28.3066
0
LINE
8
Black
10
6.29512
20
28.3066
11
6.29724
21
28.3078
0
LINE
8
Black
10
6.29724
20
28.3078
11
6.29909
21
28.3095
0
LINE
8
Black
10
6.29909
20
28.3095
11
6.30198
21
28.3106
0
LINE
8
Black
10
6.30198
20
28.3106
11
6.30467
21
28.3121
0
LINE
8
Black
10
6.30467
20
28.3121
11
6.30708
21
28.3126
0
LINE
8
Black
10
6.30708
20
28.3126
11
6.30937
21
28.3134
0
LINE
8
Black
10
6.30937
20
28.3134
11
6.31247
21
28.3135
0
LINE
8
Black
10
6.31247
20
28.3135
11
6.31553
21
28.314
0
LINE
8
Black
10
6.31553
20
28.314
11
6.47277
21
28.314
0
LINE
8
Black
10
6.47277
20
28.314
11
6.48362
21
28.3121
0
LINE
8
Black
10
6.70531
20
28.3136
11
6.70809
21
28.3136
0
LINE
8
Black
10
6.70809
20
28.3136
11
6.7107
21
28.3126
0
LINE
8
Black
10
6.7107
20
28.3126
11
6.71343
21
28.3121
0
LINE
8
Black
10
6.71343
20
28.3121
11
6.71584
21
28.3107
0
LINE
8
Black
10
6.71584
20
28.3107
11
6.71845
21
28.3098
0
LINE
8
Black
10
6.71845
20
28.3098
11
6.72058
21
28.308
0
LINE
8
Black
10
6.72058
20
28.308
11
6.72298
21
28.3066
0
LINE
8
Black
10
6.72298
20
28.3066
11
6.72477
21
28.3045
0
LINE
8
Black
10
6.72477
20
28.3045
11
6.7269
21
28.3027
0
LINE
8
Black
10
6.7269
20
28.3027
11
6.72829
21
28.3003
0
LINE
8
Black
10
6.72829
20
28.3003
11
6.73007
21
28.2982
0
LINE
8
Black
10
6.73007
20
28.2982
11
6.73102
21
28.2956
0
LINE
8
Black
10
6.73102
20
28.2956
11
6.73241
21
28.2932
0
LINE
8
Black
10
6.73241
20
28.2932
11
6.73289
21
28.2904
0
LINE
8
Black
10
6.73289
20
28.2904
11
6.73384
21
28.2878
0
LINE
8
Black
10
6.73384
20
28.2878
11
6.73384
21
28.285
0
LINE
8
Black
10
6.73384
20
28.285
11
6.73433
21
28.2823
0
LINE
8
Black
10
6.73433
20
28.2823
11
6.73433
21
28.0283
0
LINE
8
Black
10
6.73433
20
28.0283
11
6.73384
21
28.0256
0
LINE
8
Black
10
6.73384
20
28.0256
11
6.73384
21
28.0228
0
LINE
8
Black
10
6.73384
20
28.0228
11
6.73289
21
28.0202
0
LINE
8
Black
10
6.73289
20
28.0202
11
6.73241
21
28.0174
0
LINE
8
Black
10
6.73241
20
28.0174
11
6.73102
21
28.015
0
LINE
8
Black
10
6.73102
20
28.015
11
6.73007
21
28.0124
0
LINE
8
Black
10
6.73007
20
28.0124
11
6.72829
21
28.0103
0
LINE
8
Black
10
6.72829
20
28.0103
11
6.7269
21
28.0079
0
LINE
8
Black
10
6.7269
20
28.0079
11
6.72477
21
28.0061
0
LINE
8
Black
10
6.72477
20
28.0061
11
6.72298
21
28.004
0
LINE
8
Black
10
6.72298
20
28.004
11
6.72058
21
28.0026
0
LINE
8
Black
10
6.72058
20
28.0026
11
6.71845
21
28.0008
0
LINE
8
Black
10
6.71845
20
28.0008
11
6.71584
21
27.9998
0
LINE
8
Black
10
6.71584
20
27.9998
11
6.71343
21
27.9985
0
LINE
8
Black
10
6.71343
20
27.9985
11
6.7107
21
27.998
0
LINE
8
Black
10
6.7107
20
27.998
11
6.70809
21
27.997
0
LINE
8
Black
10
6.70809
20
27.997
11
6.70531
21
27.997
0
LINE
8
Black
10
6.70531
20
27.997
11
6.70258
21
27.9965
0
LINE
8
Black
10
6.70258
20
27.9965
11
6.6421
21
27.9965
0
LINE
8
Black
10
6.6421
20
27.9965
11
6.6371
21
27.9974
0
LINE
8
Black
10
6.6371
20
27.9974
11
6.63206
21
27.9982
0
LINE
8
Black
10
6.63206
20
27.9982
11
6.59577
21
28.0103
0
LINE
8
Black
10
6.59577
20
28.0103
11
6.59416
21
28.0111
0
LINE
8
Black
10
6.59416
20
28.0111
11
6.5924
21
28.0116
0
LINE
8
Black
10
6.5924
20
28.0116
11
6.58935
21
28.0137
0
LINE
8
Black
10
6.58935
20
28.0137
11
6.58608
21
28.0155
0
LINE
8
Black
10
6.58608
20
28.0155
11
6.58486
21
28.0169
0
LINE
8
Black
10
6.58486
20
28.0169
11
6.58336
21
28.0179
0
LINE
8
Black
10
6.58336
20
28.0179
11
6.55917
21
28.0421
0
LINE
8
Black
10
6.55917
20
28.0421
11
6.55625
21
28.0463
0
LINE
8
Black
10
6.55625
20
28.0463
11
6.55322
21
28.0504
0
LINE
8
Black
10
6.55322
20
28.0504
11
6.54113
21
28.0746
0
LINE
8
Black
10
6.54113
20
28.0746
11
6.54014
21
28.0779
0
LINE
8
Black
10
6.54014
20
28.0779
11
6.53873
21
28.0811
0
LINE
8
Black
10
6.53873
20
28.0811
11
6.52663
21
28.1295
0
LINE
8
Black
10
6.52663
20
28.1295
11
6.52636
21
28.1333
0
LINE
8
Black
10
6.52636
20
28.1333
11
6.52568
21
28.1372
0
LINE
8
Black
10
6.52568
20
28.1372
11
6.52568
21
28.1734
0
LINE
8
Black
10
6.52568
20
28.1734
11
6.52636
21
28.1773
0
LINE
8
Black
10
6.52636
20
28.1773
11
6.52663
21
28.1811
0
LINE
8
Black
10
6.52663
20
28.1811
11
6.53873
21
28.2295
0
LINE
8
Black
10
6.53873
20
28.2295
11
6.54014
21
28.2327
0
LINE
8
Black
10
6.54014
20
28.2327
11
6.54113
21
28.236
0
LINE
8
Black
10
6.54113
20
28.236
11
6.55322
21
28.2602
0
LINE
8
Black
10
6.55322
20
28.2602
11
6.55624
21
28.2643
0
LINE
8
Black
10
6.55624
20
28.2643
11
6.55917
21
28.2685
0
LINE
8
Black
10
6.55917
20
28.2685
11
6.58336
21
28.2927
0
LINE
8
Black
10
6.58336
20
28.2927
11
6.58486
21
28.2937
0
LINE
8
Black
10
6.58486
20
28.2937
11
6.58608
21
28.2951
0
LINE
8
Black
10
6.58608
20
28.2951
11
6.58935
21
28.2968
0
LINE
8
Black
10
6.58935
20
28.2968
11
6.5924
21
28.299
0
LINE
8
Black
10
6.5924
20
28.299
11
6.59416
21
28.2995
0
LINE
8
Black
10
6.59416
20
28.2995
11
6.59577
21
28.3003
0
LINE
8
Black
10
6.59577
20
28.3003
11
6.63206
21
28.3124
0
LINE
8
Black
10
6.63206
20
28.3124
11
6.6371
21
28.3132
0
LINE
8
Black
10
6.6371
20
28.3132
11
6.6421
21
28.314
0
LINE
8
Black
10
6.6421
20
28.314
11
6.70258
21
28.314
0
LINE
8
Black
10
6.70258
20
28.314
11
6.70531
21
28.3136
0
LINE
8
Black
10
6.64725
20
28.2505
11
6.62296
21
28.2424
0
LINE
8
Black
10
6.62296
20
28.2424
11
6.60772
21
28.2272
0
LINE
8
Black
10
6.60772
20
28.2272
11
6.59948
21
28.2107
0
LINE
8
Black
10
6.59948
20
28.2107
11
6.58918
21
28.1695
0
LINE
8
Black
10
6.58918
20
28.1695
11
6.58918
21
28.1411
0
LINE
8
Black
10
6.58918
20
28.1411
11
6.59948
21
28.0999
0
LINE
8
Black
10
6.59948
20
28.0999
11
6.60772
21
28.0834
0
LINE
8
Black
10
6.60772
20
28.0834
11
6.62296
21
28.0681
0
LINE
8
Black
10
6.62296
20
28.0681
11
6.64725
21
28.06
0
LINE
8
Black
10
6.64725
20
28.06
11
6.67083
21
28.06
0
LINE
8
Black
10
6.67083
20
28.06
11
6.67083
21
28.2505
0
LINE
8
Black
10
6.67083
20
28.2505
11
6.64725
21
28.2505
0
LINE
8
Black
10
10.49
20
28.3511
11
10.5081
21
28.3407
0
LINE
8
Black
10
10.5081
20
28.3407
11
10.5215
21
28.3247
0
LINE
8
Black
10
10.5215
20
28.3247
11
10.5286
21
28.3051
0
LINE
8
Black
10
10.5286
20
28.3051
11
10.5286
21
28.2843
0
LINE
8
Black
10
10.5286
20
28.2843
11
10.5215
21
28.2647
0
LINE
8
Black
10
10.5215
20
28.2647
11
10.5081
21
28.2487
0
LINE
8
Black
10
10.5081
20
28.2487
11
10.49
21
28.2383
0
LINE
8
Black
10
10.49
20
28.2383
11
10.4695
21
28.2347
0
LINE
8
Black
10
10.4695
20
28.2347
11
9.4695
21
28.2347
0
LINE
8
Black
10
9.4695
20
28.2347
11
9.44898
21
28.2383
0
LINE
8
Black
10
9.44898
20
28.2383
11
9.43093
21
28.2487
0
LINE
8
Black
10
9.43093
20
28.2487
11
9.41754
21
28.2647
0
LINE
8
Black
10
9.41754
20
28.2647
11
9.41041
21
28.2843
0
LINE
8
Black
10
9.41041
20
28.2843
11
9.41041
21
28.3051
0
LINE
8
Black
10
9.41041
20
28.3051
11
9.41754
21
28.3247
0
LINE
8
Black
10
9.41754
20
28.3247
11
9.43093
21
28.3407
0
LINE
8
Black
10
9.43093
20
28.3407
11
9.44898
21
28.3511
0
LINE
8
Black
10
9.44898
20
28.3511
11
9.4695
21
28.3547
0
LINE
8
Black
10
9.4695
20
28.3547
11
10.4695
21
28.3547
0
LINE
8
Black
10
10.4695
20
28.3547
11
10.49
21
28.3511
0
LINE
8
Black
10
10.4512
20
29.1994
11
10.4613
21
29.1979
0
LINE
8
Black
10
10.4613
20
29.1979
11
10.5339
21
29.1737
0
LINE
8
Black
10
10.5339
20
29.1737
11
10.5371
21
29.172
0
LINE
8
Black
10
10.5371
20
29.172
11
10.5406
21
29.171
0
LINE
8
Black
10
10.5406
20
29.171
11
10.5467
21
29.1668
0
LINE
8
Black
10
10.5467
20
29.1668
11
10.5533
21
29.1632
0
LINE
8
Black
10
10.5533
20
29.1632
11
10.5557
21
29.1605
0
LINE
8
Black
10
10.5557
20
29.1605
11
10.5587
21
29.1584
0
LINE
8
Black
10
10.5587
20
29.1584
11
10.6071
21
29.11
0
LINE
8
Black
10
10.6071
20
29.11
11
10.6129
21
29.1017
0
LINE
8
Black
10
10.6129
20
29.1017
11
10.619
21
29.0935
0
LINE
8
Black
10
10.619
20
29.0935
11
10.6432
21
29.0451
0
LINE
8
Black
10
10.6432
20
29.0451
11
10.6451
21
29.0385
0
LINE
8
Black
10
10.6451
20
29.0385
11
10.648
21
29.0321
0
LINE
8
Black
10
10.648
20
29.0321
11
10.6722
21
28.9354
0
LINE
8
Black
10
10.6722
20
28.9354
11
10.6727
21
28.9276
0
LINE
8
Black
10
10.6727
20
28.9276
11
10.674
21
28.92
0
LINE
8
Black
10
10.674
20
28.92
11
10.674
21
28.8474
0
LINE
8
Black
10
10.674
20
28.8474
11
10.6727
21
28.8397
0
LINE
8
Black
10
10.6727
20
28.8397
11
10.6722
21
28.832
0
LINE
8
Black
10
10.6722
20
28.832
11
10.648
21
28.7352
0
LINE
8
Black
10
10.648
20
28.7352
11
10.6451
21
28.7289
0
LINE
8
Black
10
10.6451
20
28.7289
11
10.6432
21
28.7222
0
LINE
8
Black
10
10.6432
20
28.7222
11
10.619
21
28.6738
0
LINE
8
Black
10
10.619
20
28.6738
11
10.6129
21
28.6657
0
LINE
8
Black
10
10.6129
20
28.6657
11
10.6071
21
28.6573
0
LINE
8
Black
10
10.6071
20
28.6573
11
10.5587
21
28.609
0
LINE
8
Black
10
10.5587
20
28.609
11
10.5557
21
28.6069
0
LINE
8
Black
10
10.5557
20
28.6069
11
10.5533
21
28.6041
0
LINE
8
Black
10
10.5533
20
28.6041
11
10.5467
21
28.6006
0
LINE
8
Black
10
10.5467
20
28.6006
11
10.5406
21
28.5963
0
LINE
8
Black
10
10.5406
20
28.5963
11
10.5371
21
28.5954
0
LINE
8
Black
10
10.5371
20
28.5954
11
10.5339
21
28.5936
0
LINE
8
Black
10
10.5339
20
28.5936
11
10.4613
21
28.5694
0
LINE
8
Black
10
10.4613
20
28.5694
11
10.4512
21
28.5679
0
LINE
8
Black
10
10.4512
20
28.5679
11
10.4412
21
28.5662
0
LINE
8
Black
10
10.4412
20
28.5662
11
10.3928
21
28.5662
0
LINE
8
Black
10
10.3928
20
28.5662
11
10.3828
21
28.5679
0
LINE
8
Black
10
10.3828
20
28.5679
11
10.3728
21
28.5694
0
LINE
8
Black
10
10.3728
20
28.5694
11
10.3002
21
28.5936
0
LINE
8
Black
10
10.3002
20
28.5936
11
10.297
21
28.5954
0
LINE
8
Black
10
10.297
20
28.5954
11
10.2934
21
28.5963
0
LINE
8
Black
10
10.2934
20
28.5963
11
10.2873
21
28.6006
0
LINE
8
Black
10
10.2873
20
28.6006
11
10.2808
21
28.6041
0
LINE
8
Black
10
10.2808
20
28.6041
11
10.2784
21
28.6069
0
LINE
8
Black
10
10.2784
20
28.6069
11
10.2754
21
28.609
0
LINE
8
Black
10
10.2754
20
28.609
11
10.2512
21
28.6331
0
LINE
8
Black
10
10.2512
20
28.6331
11
10.2385
21
28.6512
0
LINE
8
Black
10
10.2385
20
28.6512
11
10.2328
21
28.6725
0
LINE
8
Black
10
10.2328
20
28.6725
11
10.2347
21
28.6945
0
LINE
8
Black
10
10.2347
20
28.6945
11
10.2441
21
28.7145
0
LINE
8
Black
10
10.2441
20
28.7145
11
10.2596
21
28.7301
0
LINE
8
Black
10
10.2596
20
28.7301
11
10.2796
21
28.7394
0
LINE
8
Black
10
10.2796
20
28.7394
11
10.3016
21
28.7413
0
LINE
8
Black
10
10.3016
20
28.7413
11
10.3229
21
28.7356
0
LINE
8
Black
10
10.3229
20
28.7356
11
10.341
21
28.723
0
LINE
8
Black
10
10.341
20
28.723
11
10.3546
21
28.7094
0
LINE
8
Black
10
10.3546
20
28.7094
11
10.4031
21
28.6932
0
LINE
8
Black
10
10.4031
20
28.6932
11
10.4309
21
28.6932
0
LINE
8
Black
10
10.4309
20
28.6932
11
10.4795
21
28.7094
0
LINE
8
Black
10
10.4795
20
28.7094
11
10.51
21
28.7399
0
LINE
8
Black
10
10.51
20
28.7399
11
10.5264
21
28.7728
0
LINE
8
Black
10
10.5264
20
28.7728
11
10.547
21
28.8552
0
LINE
8
Black
10
10.547
20
28.8552
11
10.547
21
28.9121
0
LINE
8
Black
10
10.547
20
28.9121
11
10.5264
21
28.9946
0
LINE
8
Black
10
10.5264
20
28.9946
11
10.51
21
29.0275
0
LINE
8
Black
10
10.51
20
29.0275
11
10.4795
21
29.058
0
LINE
8
Black
10
10.4795
20
29.058
11
10.4309
21
29.0742
0
LINE
8
Black
10
10.4309
20
29.0742
11
10.4031
21
29.0742
0
LINE
8
Black
10
10.4031
20
29.0742
11
10.3546
21
29.058
0
LINE
8
Black
10
10.3546
20
29.058
11
10.341
21
29.0444
0
LINE
8
Black
10
10.341
20
29.0444
11
10.3229
21
29.0317
0
LINE
8
Black
10
10.3229
20
29.0317
11
10.3016
21
29.026
0
LINE
8
Black
10
10.3016
20
29.026
11
10.2796
21
29.028
0
LINE
8
Black
10
10.2796
20
29.028
11
10.2596
21
29.0373
0
LINE
8
Black
10
10.2596
20
29.0373
11
10.2441
21
29.0529
0
LINE
8
Black
10
10.2441
20
29.0529
11
10.2347
21
29.0729
0
LINE
8
Black
10
10.2347
20
29.0729
11
10.2328
21
29.0948
0
LINE
8
Black
10
10.2328
20
29.0948
11
10.2385
21
29.1161
0
LINE
8
Black
10
10.2385
20
29.1161
11
10.2512
21
29.1342
0
LINE
8
Black
10
10.2512
20
29.1342
11
10.2754
21
29.1584
0
LINE
8
Black
10
10.2754
20
29.1584
11
10.2784
21
29.1605
0
LINE
8
Black
10
10.2784
20
29.1605
11
10.2808
21
29.1632
0
LINE
8
Black
10
10.2808
20
29.1632
11
10.2873
21
29.1668
0
LINE
8
Black
10
10.2873
20
29.1668
11
10.2934
21
29.171
0
LINE
8
Black
10
10.2934
20
29.171
11
10.297
21
29.172
0
LINE
8
Black
10
10.297
20
29.172
11
10.3002
21
29.1737
0
LINE
8
Black
10
10.3002
20
29.1737
11
10.3728
21
29.1979
0
LINE
8
Black
10
10.3728
20
29.1979
11
10.3828
21
29.1994
0
LINE
8
Black
10
10.3828
20
29.1994
11
10.3928
21
29.2012
0
LINE
8
Black
10
10.3928
20
29.2012
11
10.4412
21
29.2012
0
LINE
8
Black
10
10.4412
20
29.2012
11
10.4512
21
29.1994
0
LINE
8
Black
10
9.52558
20
29.2005
11
9.52924
21
29.2008
0
LINE
8
Black
10
9.52924
20
29.2008
11
9.53637
21
29.1986
0
LINE
8
Black
10
9.53637
20
29.1986
11
9.54369
21
29.1973
0
LINE
8
Black
10
9.54369
20
29.1973
11
9.54686
21
29.1955
0
LINE
8
Black
10
9.54686
20
29.1955
11
9.55037
21
29.1945
0
LINE
8
Black
10
9.55037
20
29.1945
11
9.59875
21
29.1703
0
LINE
8
Black
10
9.59875
20
29.1703
11
9.60692
21
29.1642
0
LINE
8
Black
10
9.60692
20
29.1642
11
9.61526
21
29.1584
0
LINE
8
Black
10
9.61526
20
29.1584
11
9.63945
21
29.1342
0
LINE
8
Black
10
9.63945
20
29.1342
11
9.64529
21
29.1258
0
LINE
8
Black
10
9.64529
20
29.1258
11
9.65134
21
29.1177
0
LINE
8
Black
10
9.65134
20
29.1177
11
9.67553
21
29.0693
0
LINE
8
Black
10
9.67553
20
29.0693
11
9.67658
21
29.0658
0
LINE
8
Black
10
9.67658
20
29.0658
11
9.67841
21
29.0626
0
LINE
8
Black
10
9.67841
20
29.0626
11
9.6797
21
29.0553
0
LINE
8
Black
10
9.6797
20
29.0553
11
9.68182
21
29.0482
0
LINE
8
Black
10
9.68182
20
29.0482
11
9.6816
21
29.0445
0
LINE
8
Black
10
9.6816
20
29.0445
11
9.68224
21
29.0409
0
LINE
8
Black
10
9.68224
20
29.0409
11
9.68224
21
28.92
0
LINE
8
Black
10
9.68224
20
28.92
11
9.6816
21
28.9163
0
LINE
8
Black
10
9.6816
20
28.9163
11
9.68182
21
28.9127
0
LINE
8
Black
10
9.68182
20
28.9127
11
9.6797
21
28.9056
0
LINE
8
Black
10
9.6797
20
28.9056
11
9.67841
21
28.8982
0
LINE
8
Black
10
9.67841
20
28.8982
11
9.67658
21
28.8951
0
LINE
8
Black
10
9.67658
20
28.8951
11
9.67553
21
28.8916
0
LINE
8
Black
10
9.67553
20
28.8916
11
9.65134
21
28.8432
0
LINE
8
Black
10
9.65134
20
28.8432
11
9.64529
21
28.835
0
LINE
8
Black
10
9.64529
20
28.835
11
9.63945
21
28.8267
0
LINE
8
Black
10
9.63945
20
28.8267
11
9.61526
21
28.8025
0
LINE
8
Black
10
9.61526
20
28.8025
11
9.60693
21
28.7967
0
LINE
8
Black
10
9.60693
20
28.7967
11
9.59876
21
28.7906
0
LINE
8
Black
10
9.59876
20
28.7906
11
9.55037
21
28.7664
0
LINE
8
Black
10
9.55037
20
28.7664
11
9.54686
21
28.7654
0
LINE
8
Black
10
9.54686
20
28.7654
11
9.54369
21
28.7635
0
LINE
8
Black
10
9.54369
20
28.7635
11
9.53637
21
28.7622
0
LINE
8
Black
10
9.53637
20
28.7622
11
9.52924
21
28.7601
0
LINE
8
Black
10
9.52924
20
28.7601
11
9.52558
21
28.7603
0
LINE
8
Black
10
9.52558
20
28.7603
11
9.52198
21
28.7597
0
LINE
8
Black
10
9.52198
20
28.7597
11
9.42521
21
28.7597
0
LINE
8
Black
10
9.42521
20
28.7597
11
9.42261
21
28.7602
0
LINE
8
Black
10
9.42261
20
28.7602
11
9.45037
21
28.7185
0
LINE
8
Black
10
9.45037
20
28.7185
11
9.46283
21
28.706
0
LINE
8
Black
10
9.46283
20
28.706
11
9.48859
21
28.6932
0
LINE
8
Black
10
9.48859
20
28.6932
11
9.57036
21
28.6932
0
LINE
8
Black
10
9.57036
20
28.6932
11
9.59207
21
28.6893
0
LINE
8
Black
10
9.59207
20
28.6893
11
9.61117
21
28.6783
0
LINE
8
Black
10
9.61117
20
28.6783
11
9.62535
21
28.6614
0
LINE
8
Black
10
9.62535
20
28.6614
11
9.63289
21
28.6407
0
LINE
8
Black
10
9.63289
20
28.6407
11
9.63289
21
28.6186
0
LINE
8
Black
10
9.63289
20
28.6186
11
9.62535
21
28.5979
0
LINE
8
Black
10
9.62535
20
28.5979
11
9.61117
21
28.581
0
LINE
8
Black
10
9.61117
20
28.581
11
9.59207
21
28.57
0
LINE
8
Black
10
9.59207
20
28.57
11
9.57036
21
28.5662
0
LINE
8
Black
10
9.57036
20
28.5662
11
9.47359
21
28.5662
0
LINE
8
Black
10
9.47359
20
28.5662
11
9.46999
21
28.5668
0
LINE
8
Black
10
9.46999
20
28.5668
11
9.46633
21
28.5666
0
LINE
8
Black
10
9.46633
20
28.5666
11
9.4592
21
28.5687
0
LINE
8
Black
10
9.4592
20
28.5687
11
9.45188
21
28.57
0
LINE
8
Black
10
9.45188
20
28.57
11
9.44871
21
28.5718
0
LINE
8
Black
10
9.44871
20
28.5718
11
9.4452
21
28.5729
0
LINE
8
Black
10
9.4452
20
28.5729
11
9.39682
21
28.5971
0
LINE
8
Black
10
9.39682
20
28.5971
11
9.38862
21
28.6031
0
LINE
8
Black
10
9.38862
20
28.6031
11
9.38031
21
28.609
0
LINE
8
Black
10
9.38031
20
28.609
11
9.35612
21
28.6331
0
LINE
8
Black
10
9.35612
20
28.6331
11
9.35253
21
28.6383
0
LINE
8
Black
10
9.35253
20
28.6383
11
9.34819
21
28.6428
0
LINE
8
Black
10
9.34819
20
28.6428
11
9.29981
21
28.7154
0
LINE
8
Black
10
9.29981
20
28.7154
11
9.29549
21
28.7252
0
LINE
8
Black
10
9.29549
20
28.7252
11
9.29104
21
28.7352
0
LINE
8
Black
10
9.29104
20
28.7352
11
9.26685
21
28.832
0
LINE
8
Black
10
9.26685
20
28.832
11
9.2663
21
28.8397
0
LINE
8
Black
10
9.2663
20
28.8397
11
9.26495
21
28.8474
0
LINE
8
Black
10
9.26495
20
28.8474
11
9.26495
21
29.0409
0
LINE
8
Black
10
9.26495
20
29.0409
11
9.26559
21
29.0445
0
LINE
8
Black
10
9.26559
20
29.0445
11
9.26537
21
29.0482
0
LINE
8
Black
10
9.26537
20
29.0482
11
9.26749
21
29.0553
0
LINE
8
Black
10
9.26749
20
29.0553
11
9.26878
21
29.0626
0
LINE
8
Black
10
9.26878
20
29.0626
11
9.27061
21
29.0658
0
LINE
8
Black
10
9.27061
20
29.0658
11
9.27166
21
29.0693
0
LINE
8
Black
10
9.27166
20
29.0693
11
9.29585
21
29.1177
0
LINE
8
Black
10
9.29585
20
29.1177
11
9.30191
21
29.1259
0
LINE
8
Black
10
9.30191
20
29.1259
11
9.30774
21
29.1342
0
LINE
8
Black
10
9.30774
20
29.1342
11
9.33193
21
29.1584
0
LINE
8
Black
10
9.33193
20
29.1584
11
9.34026
21
29.1642
0
LINE
8
Black
10
9.34026
20
29.1642
11
9.34844
21
29.1703
0
LINE
8
Black
10
9.34844
20
29.1703
11
9.39682
21
29.1945
0
LINE
8
Black
10
9.39682
20
29.1945
11
9.40033
21
29.1955
0
LINE
8
Black
10
9.40033
20
29.1955
11
9.4035
21
29.1973
0
LINE
8
Black
10
9.4035
20
29.1973
11
9.41082
21
29.1986
0
LINE
8
Black
10
9.41082
20
29.1986
11
9.41795
21
29.2008
0
LINE
8
Black
10
9.41795
20
29.2008
11
9.42161
21
29.2005
0
LINE
8
Black
10
9.42161
20
29.2005
11
9.42521
21
29.2012
0
LINE
8
Black
10
9.42521
20
29.2012
11
9.52198
21
29.2012
0
LINE
8
Black
10
9.52198
20
29.2012
11
9.52558
21
29.2005
0
LINE
8
Black
10
9.4402
20
29.0742
11
9.41445
21
29.0613
0
LINE
8
Black
10
9.41445
20
29.0613
11
9.40483
21
29.0517
0
LINE
8
Black
10
9.40483
20
29.0517
11
9.39195
21
29.0259
0
LINE
8
Black
10
9.39195
20
29.0259
11
9.39195
21
28.9349
0
LINE
8
Black
10
9.39195
20
28.9349
11
9.40483
21
28.9092
0
LINE
8
Black
10
9.40483
20
28.9092
11
9.41445
21
28.8996
0
LINE
8
Black
10
9.41445
20
28.8996
11
9.4402
21
28.8867
0
LINE
8
Black
10
9.4402
20
28.8867
11
9.50699
21
28.8867
0
LINE
8
Black
10
9.50699
20
28.8867
11
9.53274
21
28.8996
0
LINE
8
Black
10
9.53274
20
28.8996
11
9.54236
21
28.9092
0
LINE
8
Black
10
9.54236
20
28.9092
11
9.55524
21
28.9349
0
LINE
8
Black
10
9.55524
20
28.9349
11
9.55524
21
29.0259
0
LINE
8
Black
10
9.55524
20
29.0259
11
9.54236
21
29.0517
0
LINE
8
Black
10
9.54236
20
29.0517
11
9.53274
21
29.0613
0
LINE
8
Black
10
9.53274
20
29.0613
11
9.50699
21
29.0742
0
LINE
8
Black
10
9.50699
20
29.0742
11
9.4402
21
29.0742
0
LINE
8
Black
10
9.96086
20
29.2002
11
9.96843
21
29.2002
0
LINE
8
Black
10
9.96843
20
29.2002
11
9.97174
21
29.199
0
LINE
8
Black
10
9.97174
20
29.199
11
9.97524
21
29.1986
0
LINE
8
Black
10
9.97524
20
29.1986
11
9.98203
21
29.1953
0
LINE
8
Black
10
9.98203
20
29.1953
11
9.98916
21
29.1927
0
LINE
8
Black
10
9.98916
20
29.1927
11
9.99185
21
29.1904
0
LINE
8
Black
10
9.99185
20
29.1904
11
9.99501
21
29.1888
0
LINE
8
Black
10
9.99501
20
29.1888
11
10.0002
21
29.1834
0
LINE
8
Black
10
10.0002
20
29.1834
11
10.006
21
29.1785
0
LINE
8
Black
10
10.006
20
29.1785
11
10.0078
21
29.1754
0
LINE
8
Black
10
10.0078
20
29.1754
11
10.0102
21
29.1729
0
LINE
8
Black
10
10.0102
20
29.1729
11
10.0551
21
29.1056
0
LINE
8
Black
10
10.0551
20
29.1056
11
10.0918
21
29.0689
0
LINE
8
Black
10
10.0918
20
29.0689
11
10.1309
21
29.0493
0
LINE
8
Black
10
10.1309
20
29.0493
11
10.1487
21
29.0362
0
LINE
8
Black
10
10.1487
20
29.0362
11
10.1608
21
29.0178
0
LINE
8
Black
10
10.1608
20
29.0178
11
10.1659
21
28.9963
0
LINE
8
Black
10
10.1659
20
28.9963
11
10.1634
21
28.9744
0
LINE
8
Black
10
10.1634
20
28.9744
11
10.1535
21
28.9547
0
LINE
8
Black
10
10.1535
20
28.9547
11
10.1375
21
28.9395
0
LINE
8
Black
10
10.1375
20
28.9395
11
10.1173
21
28.9308
0
LINE
8
Black
10
10.1173
20
28.9308
11
10.0953
21
28.9294
0
LINE
8
Black
10
10.0953
20
28.9294
11
10.0741
21
28.9357
0
LINE
8
Black
10
10.0741
20
28.9357
11
10.0258
21
28.9599
0
LINE
8
Black
10
10.0258
20
28.9599
11
10.0209
21
28.9635
0
LINE
8
Black
10
10.0209
20
28.9635
11
10.0209
21
28.6932
0
LINE
8
Black
10
10.0209
20
28.6932
11
10.1025
21
28.6932
0
LINE
8
Black
10
10.1025
20
28.6932
11
10.1243
21
28.6893
0
LINE
8
Black
10
10.1243
20
28.6893
11
10.1434
21
28.6783
0
LINE
8
Black
10
10.1434
20
28.6783
11
10.1575
21
28.6614
0
LINE
8
Black
10
10.1575
20
28.6614
11
10.1651
21
28.6407
0
LINE
8
Black
10
10.1651
20
28.6407
11
10.1651
21
28.6186
0
LINE
8
Black
10
10.1651
20
28.6186
11
10.1575
21
28.5979
0
LINE
8
Black
10
10.1575
20
28.5979
11
10.1434
21
28.581
0
LINE
8
Black
10
10.1434
20
28.581
11
10.1243
21
28.57
0
LINE
8
Black
10
10.1243
20
28.57
11
10.1025
21
28.5662
0
LINE
8
Black
10
10.1025
20
28.5662
11
9.81226
21
28.5662
0
LINE
8
Black
10
9.81226
20
28.5662
11
9.79054
21
28.57
0
LINE
8
Black
10
9.79054
20
28.57
11
9.77144
21
28.581
0
LINE
8
Black
10
9.77144
20
28.581
11
9.75727
21
28.5979
0
LINE
8
Black
10
9.75727
20
28.5979
11
9.74973
21
28.6186
0
LINE
8
Black
10
9.74973
20
28.6186
11
9.74973
21
28.6407
0
LINE
8
Black
10
9.74973
20
28.6407
11
9.75727
21
28.6614
0
LINE
8
Black
10
9.75727
20
28.6614
11
9.77144
21
28.6783
0
LINE
8
Black
10
9.77144
20
28.6783
11
9.79054
21
28.6893
0
LINE
8
Black
10
9.79054
20
28.6893
11
9.81226
21
28.6932
0
LINE
8
Black
10
9.81226
20
28.6932
11
9.89391
21
28.6932
0
LINE
8
Black
10
9.89391
20
28.6932
11
9.89391
21
29.1377
0
LINE
8
Black
10
9.89391
20
29.1377
11
9.89452
21
29.1411
0
LINE
8
Black
10
9.89452
20
29.1411
11
9.89429
21
29.1446
0
LINE
8
Black
10
9.89429
20
29.1446
11
9.89642
21
29.1519
0
LINE
8
Black
10
9.89642
20
29.1519
11
9.89773
21
29.1594
0
LINE
8
Black
10
9.89773
20
29.1594
11
9.89949
21
29.1624
0
LINE
8
Black
10
9.89949
20
29.1624
11
9.90048
21
29.1658
0
LINE
8
Black
10
9.90048
20
29.1658
11
9.90497
21
29.1719
0
LINE
8
Black
10
9.90497
20
29.1719
11
9.90876
21
29.1785
0
LINE
8
Black
10
9.90876
20
29.1785
11
9.91146
21
29.1808
0
LINE
8
Black
10
9.91146
20
29.1808
11
9.91354
21
29.1836
0
LINE
8
Black
10
9.91354
20
29.1836
11
9.91984
21
29.1878
0
LINE
8
Black
10
9.91984
20
29.1878
11
9.92565
21
29.1927
0
LINE
8
Black
10
9.92565
20
29.1927
11
9.92896
21
29.1939
0
LINE
8
Black
10
9.92896
20
29.1939
11
9.93189
21
29.1958
0
LINE
8
Black
10
9.93189
20
29.1958
11
9.93926
21
29.1976
0
LINE
8
Black
10
9.93926
20
29.1976
11
9.94638
21
29.2002
0
LINE
8
Black
10
9.94638
20
29.2002
11
9.94989
21
29.2002
0
LINE
8
Black
10
9.94989
20
29.2002
11
9.95332
21
29.201
0
LINE
8
Black
10
9.95332
20
29.201
11
9.96086
21
29.2002
  0
ENDSEC
  0
EOF
