M48
INCH,TZ
FMAT,2
ICI,OFF
T01C.018
T02C.025
%
T01
G05
X9496Y2528
X12945Y2528
T02
X364Y6725
X1454Y6700
X2564Y6725
X3664Y6725
X4864Y6725
X6064Y6725
X7264Y6725
X8364Y6725
X10564Y2725
X10434Y3785
X10529Y4880
X10564Y6725
X9564Y6725
X11964Y2725
X12059Y3770
X11959Y4905
X11964Y6725
X13064Y6725
X14164Y6725
X15264Y6725
X16464Y6725
X17664Y6725
X18864Y6725
X19964Y6725
X22164Y6725
X21164Y6725
X23064Y6725
M30
