*
%LPD*%
%LN915 PCB Antenna 01-F.SilkS*%
%FSLAX25Y25*%
%MOIN*%
%AD*%
%AD*%
%ADD32C,0.011811024*%
%ADD33C,0.005905512*%
%ADD34C,0.004724409*%
G54D32*
%SRX1Y1I0.0J0.0*%
G1X4188Y39380D2*
G1X5312Y39380D1*
G1X5875Y39662D1*
G1X6156Y39943D1*
G1X6719Y40786D1*
G1X7000Y41911D1*
G1X7000Y44161D1*
G1X6719Y44724D1*
G1X6437Y45005D1*
G1X5875Y45286D1*
G1X4750Y45286D1*
G1X4188Y45005D1*
G1X3906Y44724D1*
G1X3625Y44161D1*
G1X3625Y42755D1*
G1X3906Y42193D1*
G1X4188Y41911D1*
G1X4750Y41630D1*
G1X5875Y41630D1*
G1X6437Y41911D1*
G1X6719Y42193D1*
G1X7000Y42755D1*
G1X10656Y45286D2*
G1X11218Y45286D1*
G1X11780Y45005D1*
G1X12062Y44724D1*
G1X12343Y44161D1*
G1X12624Y43036D1*
G1X12624Y41630D1*
G1X12343Y40505D1*
G1X12062Y39943D1*
G1X11780Y39662D1*
G1X11218Y39380D1*
G1X10656Y39380D1*
G1X10093Y39662D1*
G1X9812Y39943D1*
G1X9531Y40505D1*
G1X9249Y41630D1*
G1X9249Y43036D1*
G1X9531Y44161D1*
G1X9812Y44724D1*
G1X10093Y45005D1*
G1X10656Y45286D1*
G1X16280Y45286D2*
G1X16842Y45286D1*
G1X17405Y45005D1*
G1X17686Y44724D1*
G1X17967Y44161D1*
G1X18248Y43036D1*
G1X18248Y41630D1*
G1X17967Y40505D1*
G1X17686Y39943D1*
G1X17405Y39662D1*
G1X16842Y39380D1*
G1X16280Y39380D1*
G1X15717Y39662D1*
G1X15436Y39943D1*
G1X15155Y40505D1*
G1X14874Y41630D1*
G1X14874Y43036D1*
G1X15155Y44161D1*
G1X15436Y44724D1*
G1X15717Y45005D1*
G1X16280Y45286D1*
G1X25279Y39380D2*
G1X25279Y45286D1*
G1X27247Y41068D1*
G1X29216Y45286D1*
G1X29216Y39380D1*
G1X32028Y39380D2*
G1X32028Y45286D1*
G1X32028Y42474D2*
G1X35402Y42474D1*
G1X35402Y39380D2*
G1X35402Y45286D1*
G1X37652Y43317D2*
G1X40746Y43317D1*
G1X37652Y39380D1*
G1X40746Y39380D1*
G1X47495Y39380D2*
G1X47495Y45286D1*
G1X49744Y45286D1*
G1X50307Y45005D1*
G1X50588Y44724D1*
G1X50869Y44161D1*
G1X50869Y43317D1*
G1X50588Y42755D1*
G1X50307Y42474D1*
G1X49744Y42193D1*
G1X47495Y42193D1*
G1X56775Y39943D2*
G1X56494Y39662D1*
G1X55650Y39380D1*
G1X55088Y39380D1*
G1X54244Y39662D1*
G1X53681Y40224D1*
G1X53400Y40786D1*
G1X53119Y41911D1*
G1X53119Y42755D1*
G1X53400Y43880D1*
G1X53681Y44442D1*
G1X54244Y45005D1*
G1X55088Y45286D1*
G1X55650Y45286D1*
G1X56494Y45005D1*
G1X56775Y44724D1*
G1X61274Y42474D2*
G1X62118Y42193D1*
G1X62399Y41911D1*
G1X62680Y41349D1*
G1X62680Y40505D1*
G1X62399Y39943D1*
G1X62118Y39662D1*
G1X61555Y39380D1*
G1X59306Y39380D1*
G1X59306Y45286D1*
G1X61274Y45286D1*
G1X61837Y45005D1*
G1X62118Y44724D1*
G1X62399Y44161D1*
G1X62399Y43599D1*
G1X62118Y43036D1*
G1X61837Y42755D1*
G1X61274Y42474D1*
G1X59306Y42474D1*
G1X69429Y41068D2*
G1X72242Y41068D1*
G1X68867Y39380D2*
G1X70836Y45286D1*
G1X72804Y39380D1*
G1X74773Y43317D2*
G1X74773Y39380D1*
G1X74773Y42755D2*
G1X75054Y43036D1*
G1X75616Y43317D1*
G1X76460Y43317D1*
G1X77022Y43036D1*
G1X77304Y42474D1*
G1X77304Y39380D1*
G1X79272Y43317D2*
G1X81522Y43317D1*
G1X80116Y45286D2*
G1X80116Y40224D1*
G1X80397Y39662D1*
G1X80959Y39380D1*
G1X81522Y39380D1*
G1X85740Y39662D2*
G1X85178Y39380D1*
G1X84053Y39380D1*
G1X83490Y39662D1*
G1X83209Y40224D1*
G1X83209Y42474D1*
G1X83490Y43036D1*
G1X84053Y43317D1*
G1X85178Y43317D1*
G1X85740Y43036D1*
G1X86021Y42474D1*
G1X86021Y41911D1*
G1X83209Y41349D1*
G1X88552Y43317D2*
G1X88552Y39380D1*
G1X88552Y42755D2*
G1X88833Y43036D1*
G1X89396Y43317D1*
G1X90239Y43317D1*
G1X90802Y43036D1*
G1X91083Y42474D1*
G1X91083Y39380D1*
G1X93895Y43317D2*
G1X93895Y39380D1*
G1X93895Y42755D2*
G1X94176Y43036D1*
G1X94739Y43317D1*
G1X95582Y43317D1*
G1X96145Y43036D1*
G1X96426Y42474D1*
G1X96426Y39380D1*
G1X101769Y39380D2*
G1X101769Y42474D1*
G1X101488Y43036D1*
G1X100926Y43317D1*
G1X99801Y43317D1*
G1X99238Y43036D1*
G1X101769Y39662D2*
G1X101207Y39380D1*
G1X99801Y39380D1*
G1X99238Y39662D1*
G1X98957Y40224D1*
G1X98957Y40786D1*
G1X99238Y41349D1*
G1X99801Y41630D1*
G1X101207Y41630D1*
G1X101769Y41911D1*
G1X113629Y84631D2*
G75*
G54D33*
G3X113629Y84631I-1420J0D1*
G74*
G1X2760Y74789D2*
G1X2760Y73214D1*
G1X231894Y74789D2*
G1X231894Y71246D1*
G1X2760Y74395D2*
G1X2760Y71246D1*
G1X81894Y71246D1*
G1X81500Y100773D2*
G1X2760Y100773D1*
G1X2760Y74789D1*
G1X81500Y71246D2*
G1X231894Y71246D1*
G1X231894Y74789D2*
G1X231894Y100773D1*
G1X81500Y100773D1*
G1X118906Y62398D2*
G54D34*
G1X114969Y62398D1*
G1X114969Y55706D2*
G1X118906Y55706D1*
G1X115584Y35683D2*
G1X115584Y39620D1*
G1X108891Y39620D2*
G1X108891Y35683D1*
G1X109299Y-31309D2*
G54D33*
G1X109299Y-27372D1*
G1X110799Y-27372D1*
G1X111174Y-27559D1*
G1X111361Y-27747D1*
G1X111549Y-28121D1*
G1X111549Y-28684D1*
G1X111361Y-29059D1*
G1X111174Y-29246D1*
G1X110799Y-29434D1*
G1X109299Y-29434D1*
G1X115298Y-31309D2*
G1X113048Y-31309D1*
G1X114173Y-31309D2*
G1X114173Y-27372D1*
G1X113798Y-27934D1*
G1X113423Y-28309D1*
G1X113048Y-28496D1*
G1X127015Y73022D2*
G1X127015Y76959D1*
G1X128515Y76959D1*
G1X128890Y76772D1*
G1X129078Y76584D1*
G1X129265Y76209D1*
G1X129265Y75647D1*
G1X129078Y75272D1*
G1X128890Y75084D1*
G1X128515Y74897D1*
G1X127015Y74897D1*
G1X130765Y76584D2*
G1X130952Y76772D1*
G1X131327Y76959D1*
G1X132265Y76959D1*
G1X132640Y76772D1*
G1X132827Y76584D1*
G1X133015Y76209D1*
G1X133015Y75834D1*
G1X132827Y75272D1*
G1X130577Y73022D1*
G1X133015Y73022D1*
G1X101282Y57646D2*
G1X101094Y57458D1*
G1X100532Y57271D1*
G1X100157Y57271D1*
G1X99594Y57458D1*
G1X99219Y57833D1*
G1X99032Y58208D1*
G1X98844Y58958D1*
G1X98844Y59521D1*
G1X99032Y60271D1*
G1X99219Y60646D1*
G1X99594Y61020D1*
G1X100157Y61208D1*
G1X100532Y61208D1*
G1X101094Y61020D1*
G1X101282Y60833D1*
G1X105031Y57271D2*
G1X102781Y57271D1*
G1X103906Y57271D2*
G1X103906Y61208D1*
G1X103531Y60646D1*
G1X103156Y60271D1*
G1X102781Y60083D1*
G1X119682Y39671D2*
G1X117807Y39671D1*
G1X117807Y43608D1*
G1X123056Y39671D2*
G1X120806Y39671D1*
G1X121931Y39671D2*
G1X121931Y43608D1*
G1X121556Y43046D1*
G1X121181Y42671D1*
G1X120806Y42483D1*
M2*
