%TF.GenerationSoftware,KiCad,Pcbnew,4.0.5*%
%TF.CreationDate,2017-03-15T23:01:03-07:00*%
%TF.ProjectId,millfa,6D696C6C66612E6B696361645F706362,rev?*%
%TF.FileFunction,Copper,L2,Bot,Signal*%
%FSLAX46Y46*%
G04 Gerber Fmt 4.6, Leading zero omitted, Abs format (unit mm)*
G04 Created by KiCad (PCBNEW 4.0.5) date 03/15/17 23:01:03*
%MOMM*%
%LPD*%
G01*
G04 APERTURE LIST*
%ADD10C,0.025400*%
%ADD11C,0.150000*%
%ADD12C,0.300000*%
%ADD13C,0.400000*%
%ADD14C,0.500380*%
%ADD15R,2.420000X5.080000*%
%ADD16C,0.970000*%
%ADD17R,0.460000X0.890000*%
%ADD18C,0.127000*%
G04 APERTURE END LIST*
D10*
D11*
X32984200Y-52075500D02*
X32984200Y-84075500D01*
X140984200Y-84075500D01*
X140984200Y-52075500D01*
X32984200Y-52075500D01*
D10*
D11*
X-134018000Y103931700D02*
X-134018000Y-86075500D01*
X142984200Y-86075500D01*
X142984200Y103931700D01*
X-134018000Y103931700D01*
D10*
D11*
X-132018000Y101931700D02*
X-132018000Y-84075500D01*
X140984200Y-84075500D01*
X140984200Y101931700D01*
X-132018000Y101931700D01*
D10*
D11*
X-84018000Y101931700D02*
X-84018000Y103931700D01*
D10*
D11*
X-34018000Y101931700D02*
X-34018000Y103931700D01*
D10*
D11*
X15982000Y101931700D02*
X15982000Y103931700D01*
D10*
D11*
X65982000Y101931700D02*
X65982000Y103931700D01*
D10*
D11*
X115982000Y101931700D02*
X115982000Y103931700D01*
D10*
D11*
X-108027524Y102343605D02*
X-108770381Y102343605D01*
X-108398952Y102343605D02*
X-108398952Y103643605D01*
X-108522762Y103457890D01*
X-108646571Y103334081D01*
X-108770381Y103272176D01*
D10*
D11*
X-58770381Y103519795D02*
X-58708476Y103581700D01*
X-58584667Y103643605D01*
X-58275143Y103643605D01*
X-58151333Y103581700D01*
X-58089429Y103519795D01*
X-58027524Y103395986D01*
X-58027524Y103272176D01*
X-58089429Y103086462D01*
X-58832286Y102343605D01*
X-58027524Y102343605D01*
D10*
D11*
X-8832286Y103643605D02*
X-8027524Y103643605D01*
X-8460857Y103148367D01*
X-8275143Y103148367D01*
X-8151333Y103086462D01*
X-8089429Y103024557D01*
X-8027524Y102900748D01*
X-8027524Y102591224D01*
X-8089429Y102467414D01*
X-8151333Y102405510D01*
X-8275143Y102343605D01*
X-8646571Y102343605D01*
X-8770381Y102405510D01*
X-8832286Y102467414D01*
D10*
D11*
X41848667Y103210271D02*
X41848667Y102343605D01*
X41539143Y103705510D02*
X41229619Y102776938D01*
X42034381Y102776938D01*
D10*
D11*
X91910571Y103643605D02*
X91291524Y103643605D01*
X91229619Y103024557D01*
X91291524Y103086462D01*
X91415333Y103148367D01*
X91724857Y103148367D01*
X91848667Y103086462D01*
X91910571Y103024557D01*
X91972476Y102900748D01*
X91972476Y102591224D01*
X91910571Y102467414D01*
X91848667Y102405510D01*
X91724857Y102343605D01*
X91415333Y102343605D01*
X91291524Y102405510D01*
X91229619Y102467414D01*
D10*
D11*
X141848667Y103643605D02*
X141601048Y103643605D01*
X141477238Y103581700D01*
X141415333Y103519795D01*
X141291524Y103334081D01*
X141229619Y103086462D01*
X141229619Y102591224D01*
X141291524Y102467414D01*
X141353429Y102405510D01*
X141477238Y102343605D01*
X141724857Y102343605D01*
X141848667Y102405510D01*
X141910571Y102467414D01*
X141972476Y102591224D01*
X141972476Y102900748D01*
X141910571Y103024557D01*
X141848667Y103086462D01*
X141724857Y103148367D01*
X141477238Y103148367D01*
X141353429Y103086462D01*
X141291524Y103024557D01*
X141229619Y102900748D01*
D10*
D11*
X-84018000Y-84075500D02*
X-84018000Y-86075500D01*
D10*
D11*
X-34018000Y-84075500D02*
X-34018000Y-86075500D01*
D10*
D11*
X15982000Y-84075500D02*
X15982000Y-86075500D01*
D10*
D11*
X65982000Y-84075500D02*
X65982000Y-86075500D01*
D10*
D11*
X115982000Y-84075500D02*
X115982000Y-86075500D01*
D10*
D11*
X-108027524Y-85663595D02*
X-108770381Y-85663595D01*
X-108398952Y-85663595D02*
X-108398952Y-84363595D01*
X-108522762Y-84549310D01*
X-108646571Y-84673119D01*
X-108770381Y-84735024D01*
D10*
D11*
X-58770381Y-84487405D02*
X-58708476Y-84425500D01*
X-58584667Y-84363595D01*
X-58275143Y-84363595D01*
X-58151333Y-84425500D01*
X-58089429Y-84487405D01*
X-58027524Y-84611214D01*
X-58027524Y-84735024D01*
X-58089429Y-84920738D01*
X-58832286Y-85663595D01*
X-58027524Y-85663595D01*
D10*
D11*
X-8832286Y-84363595D02*
X-8027524Y-84363595D01*
X-8460857Y-84858833D01*
X-8275143Y-84858833D01*
X-8151333Y-84920738D01*
X-8089429Y-84982643D01*
X-8027524Y-85106452D01*
X-8027524Y-85415976D01*
X-8089429Y-85539786D01*
X-8151333Y-85601690D01*
X-8275143Y-85663595D01*
X-8646571Y-85663595D01*
X-8770381Y-85601690D01*
X-8832286Y-85539786D01*
D10*
D11*
X41848667Y-84796929D02*
X41848667Y-85663595D01*
X41539143Y-84301690D02*
X41229619Y-85230262D01*
X42034381Y-85230262D01*
D10*
D11*
X91910571Y-84363595D02*
X91291524Y-84363595D01*
X91229619Y-84982643D01*
X91291524Y-84920738D01*
X91415333Y-84858833D01*
X91724857Y-84858833D01*
X91848667Y-84920738D01*
X91910571Y-84982643D01*
X91972476Y-85106452D01*
X91972476Y-85415976D01*
X91910571Y-85539786D01*
X91848667Y-85601690D01*
X91724857Y-85663595D01*
X91415333Y-85663595D01*
X91291524Y-85601690D01*
X91229619Y-85539786D01*
D10*
D11*
X141848667Y-84363595D02*
X141601048Y-84363595D01*
X141477238Y-84425500D01*
X141415333Y-84487405D01*
X141291524Y-84673119D01*
X141229619Y-84920738D01*
X141229619Y-85415976D01*
X141291524Y-85539786D01*
X141353429Y-85601690D01*
X141477238Y-85663595D01*
X141724857Y-85663595D01*
X141848667Y-85601690D01*
X141910571Y-85539786D01*
X141972476Y-85415976D01*
X141972476Y-85106452D01*
X141910571Y-84982643D01*
X141848667Y-84920738D01*
X141724857Y-84858833D01*
X141477238Y-84858833D01*
X141353429Y-84920738D01*
X141291524Y-84982643D01*
X141229619Y-85106452D01*
D10*
D11*
X-134018000Y53931700D02*
X-132018000Y53931700D01*
D10*
D11*
X-134018000Y3931700D02*
X-132018000Y3931700D01*
D10*
D11*
X-134018000Y-46068300D02*
X-132018000Y-46068300D01*
D10*
D11*
X-133327524Y78715033D02*
X-132708476Y78715033D01*
X-133451333Y78343605D02*
X-133018000Y79643605D01*
X-132584667Y78343605D01*
D10*
D11*
X-132925143Y29024557D02*
X-132739429Y28962652D01*
X-132677524Y28900748D01*
X-132615619Y28776938D01*
X-132615619Y28591224D01*
X-132677524Y28467414D01*
X-132739429Y28405510D01*
X-132863238Y28343605D01*
X-133358476Y28343605D01*
X-133358476Y29643605D01*
X-132925143Y29643605D01*
X-132801333Y29581700D01*
X-132739429Y29519795D01*
X-132677524Y29395986D01*
X-132677524Y29272176D01*
X-132739429Y29148367D01*
X-132801333Y29086462D01*
X-132925143Y29024557D01*
X-133358476Y29024557D01*
D10*
D11*
X-132615619Y-21532586D02*
X-132677524Y-21594490D01*
X-132863238Y-21656395D01*
X-132987048Y-21656395D01*
X-133172762Y-21594490D01*
X-133296571Y-21470681D01*
X-133358476Y-21346871D01*
X-133420381Y-21099252D01*
X-133420381Y-20913538D01*
X-133358476Y-20665919D01*
X-133296571Y-20542110D01*
X-133172762Y-20418300D01*
X-132987048Y-20356395D01*
X-132863238Y-20356395D01*
X-132677524Y-20418300D01*
X-132615619Y-20480205D01*
D10*
D11*
X-133358476Y-71656395D02*
X-133358476Y-70356395D01*
X-133048952Y-70356395D01*
X-132863238Y-70418300D01*
X-132739429Y-70542110D01*
X-132677524Y-70665919D01*
X-132615619Y-70913538D01*
X-132615619Y-71099252D01*
X-132677524Y-71346871D01*
X-132739429Y-71470681D01*
X-132863238Y-71594490D01*
X-133048952Y-71656395D01*
X-133358476Y-71656395D01*
D10*
D11*
X142984200Y53931700D02*
X140984200Y53931700D01*
D10*
D11*
X142984200Y3931700D02*
X140984200Y3931700D01*
D10*
D11*
X142984200Y-46068300D02*
X140984200Y-46068300D01*
D10*
D11*
X141674676Y78715033D02*
X142293724Y78715033D01*
X141550867Y78343605D02*
X141984200Y79643605D01*
X142417533Y78343605D01*
D10*
D11*
X142077057Y29024557D02*
X142262771Y28962652D01*
X142324676Y28900748D01*
X142386581Y28776938D01*
X142386581Y28591224D01*
X142324676Y28467414D01*
X142262771Y28405510D01*
X142138962Y28343605D01*
X141643724Y28343605D01*
X141643724Y29643605D01*
X142077057Y29643605D01*
X142200867Y29581700D01*
X142262771Y29519795D01*
X142324676Y29395986D01*
X142324676Y29272176D01*
X142262771Y29148367D01*
X142200867Y29086462D01*
X142077057Y29024557D01*
X141643724Y29024557D01*
D10*
D11*
X142386581Y-21532586D02*
X142324676Y-21594490D01*
X142138962Y-21656395D01*
X142015152Y-21656395D01*
X141829438Y-21594490D01*
X141705629Y-21470681D01*
X141643724Y-21346871D01*
X141581819Y-21099252D01*
X141581819Y-20913538D01*
X141643724Y-20665919D01*
X141705629Y-20542110D01*
X141829438Y-20418300D01*
X142015152Y-20356395D01*
X142138962Y-20356395D01*
X142324676Y-20418300D01*
X142386581Y-20480205D01*
D10*
D11*
X141643724Y-71656395D02*
X141643724Y-70356395D01*
X141953248Y-70356395D01*
X142138962Y-70418300D01*
X142262771Y-70542110D01*
X142324676Y-70665919D01*
X142386581Y-70913538D01*
X142386581Y-71099252D01*
X142324676Y-71346871D01*
X142262771Y-71470681D01*
X142138962Y-71594490D01*
X141953248Y-71656395D01*
X141643724Y-71656395D01*
D10*
D11*
X56341343Y-79854071D02*
X56341343Y-78354071D01*
X56698486Y-78354071D01*
X56912771Y-78425500D01*
X57055629Y-78568357D01*
X57127057Y-78711214D01*
X57198486Y-78996929D01*
X57198486Y-79211214D01*
X57127057Y-79496929D01*
X57055629Y-79639786D01*
X56912771Y-79782643D01*
X56698486Y-79854071D01*
X56341343Y-79854071D01*
X58484200Y-79854071D02*
X58484200Y-79068357D01*
X58412771Y-78925500D01*
X58269914Y-78854071D01*
X57984200Y-78854071D01*
X57841343Y-78925500D01*
X58484200Y-79782643D02*
X58341343Y-79854071D01*
X57984200Y-79854071D01*
X57841343Y-79782643D01*
X57769914Y-79639786D01*
X57769914Y-79496929D01*
X57841343Y-79354071D01*
X57984200Y-79282643D01*
X58341343Y-79282643D01*
X58484200Y-79211214D01*
X58984200Y-78854071D02*
X59555629Y-78854071D01*
X59198486Y-78354071D02*
X59198486Y-79639786D01*
X59269914Y-79782643D01*
X59412772Y-79854071D01*
X59555629Y-79854071D01*
X60627057Y-79782643D02*
X60484200Y-79854071D01*
X60198486Y-79854071D01*
X60055629Y-79782643D01*
X59984200Y-79639786D01*
X59984200Y-79068357D01*
X60055629Y-78925500D01*
X60198486Y-78854071D01*
X60484200Y-78854071D01*
X60627057Y-78925500D01*
X60698486Y-79068357D01*
X60698486Y-79211214D01*
X59984200Y-79354071D01*
X61341343Y-79711214D02*
X61412771Y-79782643D01*
X61341343Y-79854071D01*
X61269914Y-79782643D01*
X61341343Y-79711214D01*
X61341343Y-79854071D01*
X61341343Y-78925500D02*
X61412771Y-78996929D01*
X61341343Y-79068357D01*
X61269914Y-78996929D01*
X61341343Y-78925500D01*
X61341343Y-79068357D01*
D10*
D11*
X32984200Y-80575500D02*
X140984200Y-80575500D01*
D10*
D11*
X34341343Y-82654071D02*
X34341343Y-81154071D01*
X35198486Y-82654071D02*
X34555629Y-81796929D01*
X35198486Y-81154071D02*
X34341343Y-82011214D01*
X35841343Y-82654071D02*
X35841343Y-81654071D01*
X35841343Y-81154071D02*
X35769914Y-81225500D01*
X35841343Y-81296929D01*
X35912771Y-81225500D01*
X35841343Y-81154071D01*
X35841343Y-81296929D01*
X37412772Y-82511214D02*
X37341343Y-82582643D01*
X37127057Y-82654071D01*
X36984200Y-82654071D01*
X36769915Y-82582643D01*
X36627057Y-82439786D01*
X36555629Y-82296929D01*
X36484200Y-82011214D01*
X36484200Y-81796929D01*
X36555629Y-81511214D01*
X36627057Y-81368357D01*
X36769915Y-81225500D01*
X36984200Y-81154071D01*
X37127057Y-81154071D01*
X37341343Y-81225500D01*
X37412772Y-81296929D01*
X38698486Y-82654071D02*
X38698486Y-81868357D01*
X38627057Y-81725500D01*
X38484200Y-81654071D01*
X38198486Y-81654071D01*
X38055629Y-81725500D01*
X38698486Y-82582643D02*
X38555629Y-82654071D01*
X38198486Y-82654071D01*
X38055629Y-82582643D01*
X37984200Y-82439786D01*
X37984200Y-82296929D01*
X38055629Y-82154071D01*
X38198486Y-82082643D01*
X38555629Y-82082643D01*
X38698486Y-82011214D01*
X40055629Y-82654071D02*
X40055629Y-81154071D01*
X40055629Y-82582643D02*
X39912772Y-82654071D01*
X39627058Y-82654071D01*
X39484200Y-82582643D01*
X39412772Y-82511214D01*
X39341343Y-82368357D01*
X39341343Y-81939786D01*
X39412772Y-81796929D01*
X39484200Y-81725500D01*
X39627058Y-81654071D01*
X39912772Y-81654071D01*
X40055629Y-81725500D01*
X41912772Y-81868357D02*
X42412772Y-81868357D01*
X42627058Y-82654071D02*
X41912772Y-82654071D01*
X41912772Y-81154071D01*
X42627058Y-81154071D01*
X43269915Y-82511214D02*
X43341343Y-82582643D01*
X43269915Y-82654071D01*
X43198486Y-82582643D01*
X43269915Y-82511214D01*
X43269915Y-82654071D01*
X43984201Y-82654071D02*
X43984201Y-81154071D01*
X44341344Y-81154071D01*
X44555629Y-81225500D01*
X44698487Y-81368357D01*
X44769915Y-81511214D01*
X44841344Y-81796929D01*
X44841344Y-82011214D01*
X44769915Y-82296929D01*
X44698487Y-82439786D01*
X44555629Y-82582643D01*
X44341344Y-82654071D01*
X43984201Y-82654071D01*
X45484201Y-82511214D02*
X45555629Y-82582643D01*
X45484201Y-82654071D01*
X45412772Y-82582643D01*
X45484201Y-82511214D01*
X45484201Y-82654071D01*
X46127058Y-82225500D02*
X46841344Y-82225500D01*
X45984201Y-82654071D02*
X46484201Y-81154071D01*
X46984201Y-82654071D01*
X47484201Y-82511214D02*
X47555629Y-82582643D01*
X47484201Y-82654071D01*
X47412772Y-82582643D01*
X47484201Y-82511214D01*
X47484201Y-82654071D01*
X50484201Y-81654071D02*
X50484201Y-83154071D01*
X50484201Y-81725500D02*
X50627058Y-81654071D01*
X50912772Y-81654071D01*
X51055629Y-81725500D01*
X51127058Y-81796929D01*
X51198487Y-81939786D01*
X51198487Y-82368357D01*
X51127058Y-82511214D01*
X51055629Y-82582643D01*
X50912772Y-82654071D01*
X50627058Y-82654071D01*
X50484201Y-82582643D01*
X52484201Y-82582643D02*
X52341344Y-82654071D01*
X52055630Y-82654071D01*
X51912772Y-82582643D01*
X51841344Y-82511214D01*
X51769915Y-82368357D01*
X51769915Y-81939786D01*
X51841344Y-81796929D01*
X51912772Y-81725500D01*
X52055630Y-81654071D01*
X52341344Y-81654071D01*
X52484201Y-81725500D01*
X53127058Y-82654071D02*
X53127058Y-81154071D01*
X53127058Y-81725500D02*
X53269915Y-81654071D01*
X53555629Y-81654071D01*
X53698486Y-81725500D01*
X53769915Y-81796929D01*
X53841344Y-81939786D01*
X53841344Y-82368357D01*
X53769915Y-82511214D01*
X53698486Y-82582643D01*
X53555629Y-82654071D01*
X53269915Y-82654071D01*
X53127058Y-82582643D01*
X54484201Y-81654071D02*
X54484201Y-82654071D01*
X54484201Y-81796929D02*
X54555629Y-81725500D01*
X54698487Y-81654071D01*
X54912772Y-81654071D01*
X55055629Y-81725500D01*
X55127058Y-81868357D01*
X55127058Y-82654071D01*
X56412772Y-82582643D02*
X56269915Y-82654071D01*
X55984201Y-82654071D01*
X55841344Y-82582643D01*
X55769915Y-82439786D01*
X55769915Y-81868357D01*
X55841344Y-81725500D01*
X55984201Y-81654071D01*
X56269915Y-81654071D01*
X56412772Y-81725500D01*
X56484201Y-81868357D01*
X56484201Y-82011214D01*
X55769915Y-82154071D01*
X56984201Y-81654071D02*
X57269915Y-82654071D01*
X57555629Y-81939786D01*
X57841344Y-82654071D01*
X58127058Y-81654071D01*
X60484201Y-81654071D02*
X60484201Y-82654071D01*
X60127058Y-81082643D02*
X59769915Y-82154071D01*
X60698487Y-82154071D01*
X61269915Y-82511214D02*
X61341343Y-82582643D01*
X61269915Y-82654071D01*
X61198486Y-82582643D01*
X61269915Y-82511214D01*
X61269915Y-82654071D01*
X62269915Y-81154071D02*
X62412772Y-81154071D01*
X62555629Y-81225500D01*
X62627058Y-81296929D01*
X62698487Y-81439786D01*
X62769915Y-81725500D01*
X62769915Y-82082643D01*
X62698487Y-82368357D01*
X62627058Y-82511214D01*
X62555629Y-82582643D01*
X62412772Y-82654071D01*
X62269915Y-82654071D01*
X62127058Y-82582643D01*
X62055629Y-82511214D01*
X61984201Y-82368357D01*
X61912772Y-82082643D01*
X61912772Y-81725500D01*
X61984201Y-81439786D01*
X62055629Y-81296929D01*
X62127058Y-81225500D01*
X62269915Y-81154071D01*
X63412772Y-82511214D02*
X63484200Y-82582643D01*
X63412772Y-82654071D01*
X63341343Y-82582643D01*
X63412772Y-82511214D01*
X63412772Y-82654071D01*
X64841344Y-81154071D02*
X64127058Y-81154071D01*
X64055629Y-81868357D01*
X64127058Y-81796929D01*
X64269915Y-81725500D01*
X64627058Y-81725500D01*
X64769915Y-81796929D01*
X64841344Y-81868357D01*
X64912772Y-82011214D01*
X64912772Y-82368357D01*
X64841344Y-82511214D01*
X64769915Y-82582643D01*
X64627058Y-82654071D01*
X64269915Y-82654071D01*
X64127058Y-82582643D01*
X64055629Y-82511214D01*
D10*
D11*
X32984200Y-77575500D02*
X140984200Y-77575500D01*
D10*
D12*
X120198486Y-79854071D02*
X119698486Y-79139786D01*
X119341343Y-79854071D02*
X119341343Y-78354071D01*
X119912771Y-78354071D01*
X120055629Y-78425500D01*
X120127057Y-78496929D01*
X120198486Y-78639786D01*
X120198486Y-78854071D01*
X120127057Y-78996929D01*
X120055629Y-79068357D01*
X119912771Y-79139786D01*
X119341343Y-79139786D01*
X121412771Y-79782643D02*
X121269914Y-79854071D01*
X120984200Y-79854071D01*
X120841343Y-79782643D01*
X120769914Y-79639786D01*
X120769914Y-79068357D01*
X120841343Y-78925500D01*
X120984200Y-78854071D01*
X121269914Y-78854071D01*
X121412771Y-78925500D01*
X121484200Y-79068357D01*
X121484200Y-79211214D01*
X120769914Y-79354071D01*
X121984200Y-78854071D02*
X122341343Y-79854071D01*
X122698485Y-78854071D01*
X123269914Y-79711214D02*
X123341342Y-79782643D01*
X123269914Y-79854071D01*
X123198485Y-79782643D01*
X123269914Y-79711214D01*
X123269914Y-79854071D01*
X123269914Y-78925500D02*
X123341342Y-78996929D01*
X123269914Y-79068357D01*
X123198485Y-78996929D01*
X123269914Y-78925500D01*
X123269914Y-79068357D01*
D10*
D11*
X34269914Y-79782643D02*
X34484200Y-79854071D01*
X34841343Y-79854071D01*
X34984200Y-79782643D01*
X35055629Y-79711214D01*
X35127057Y-79568357D01*
X35127057Y-79425500D01*
X35055629Y-79282643D01*
X34984200Y-79211214D01*
X34841343Y-79139786D01*
X34555629Y-79068357D01*
X34412771Y-78996929D01*
X34341343Y-78925500D01*
X34269914Y-78782643D01*
X34269914Y-78639786D01*
X34341343Y-78496929D01*
X34412771Y-78425500D01*
X34555629Y-78354071D01*
X34912771Y-78354071D01*
X35127057Y-78425500D01*
X35769914Y-79854071D02*
X35769914Y-78854071D01*
X35769914Y-78354071D02*
X35698485Y-78425500D01*
X35769914Y-78496929D01*
X35841342Y-78425500D01*
X35769914Y-78354071D01*
X35769914Y-78496929D01*
X36341343Y-78854071D02*
X37127057Y-78854071D01*
X36341343Y-79854071D01*
X37127057Y-79854071D01*
X38269914Y-79782643D02*
X38127057Y-79854071D01*
X37841343Y-79854071D01*
X37698486Y-79782643D01*
X37627057Y-79639786D01*
X37627057Y-79068357D01*
X37698486Y-78925500D01*
X37841343Y-78854071D01*
X38127057Y-78854071D01*
X38269914Y-78925500D01*
X38341343Y-79068357D01*
X38341343Y-79211214D01*
X37627057Y-79354071D01*
X38984200Y-79711214D02*
X39055628Y-79782643D01*
X38984200Y-79854071D01*
X38912771Y-79782643D01*
X38984200Y-79711214D01*
X38984200Y-79854071D01*
X38984200Y-78925500D02*
X39055628Y-78996929D01*
X38984200Y-79068357D01*
X38912771Y-78996929D01*
X38984200Y-78925500D01*
X38984200Y-79068357D01*
X40769914Y-79425500D02*
X41484200Y-79425500D01*
X40627057Y-79854071D02*
X41127057Y-78354071D01*
X41627057Y-79854071D01*
X42769914Y-78854071D02*
X42769914Y-79854071D01*
X42412771Y-78282643D02*
X42055628Y-79354071D01*
X42984200Y-79354071D01*
D10*
D11*
X119341343Y-82654071D02*
X119341343Y-81154071D01*
X120698486Y-82654071D02*
X120698486Y-81154071D01*
X120698486Y-82582643D02*
X120555629Y-82654071D01*
X120269915Y-82654071D01*
X120127057Y-82582643D01*
X120055629Y-82511214D01*
X119984200Y-82368357D01*
X119984200Y-81939786D01*
X120055629Y-81796929D01*
X120127057Y-81725500D01*
X120269915Y-81654071D01*
X120555629Y-81654071D01*
X120698486Y-81725500D01*
X121412772Y-82511214D02*
X121484200Y-82582643D01*
X121412772Y-82654071D01*
X121341343Y-82582643D01*
X121412772Y-82511214D01*
X121412772Y-82654071D01*
X121412772Y-81725500D02*
X121484200Y-81796929D01*
X121412772Y-81868357D01*
X121341343Y-81796929D01*
X121412772Y-81725500D01*
X121412772Y-81868357D01*
X124055629Y-82654071D02*
X123198486Y-82654071D01*
X123627058Y-82654071D02*
X123627058Y-81154071D01*
X123484201Y-81368357D01*
X123341343Y-81511214D01*
X123198486Y-81582643D01*
X125769914Y-81082643D02*
X124484200Y-83011214D01*
X127055629Y-82654071D02*
X126198486Y-82654071D01*
X126627058Y-82654071D02*
X126627058Y-81154071D01*
X126484201Y-81368357D01*
X126341343Y-81511214D01*
X126198486Y-81582643D01*
D10*
D11*
X32984200Y-73575500D02*
X140984200Y-73575500D01*
D10*
D13*
X34436581Y-74280262D02*
X35579438Y-74280262D01*
X34758010Y-76280262D02*
X35008010Y-74280262D01*
X35996105Y-76280262D02*
X36162771Y-74946929D01*
X36246105Y-74280262D02*
X36138962Y-74375500D01*
X36222295Y-74470738D01*
X36329439Y-74375500D01*
X36246105Y-74280262D01*
X36222295Y-74470738D01*
X36829438Y-74946929D02*
X37591343Y-74946929D01*
X37198486Y-74280262D02*
X36984200Y-75994548D01*
X37055630Y-76185024D01*
X37234201Y-76280262D01*
X37424677Y-76280262D01*
X38377058Y-76280262D02*
X38198487Y-76185024D01*
X38127057Y-75994548D01*
X38341343Y-74280262D01*
X39912772Y-76185024D02*
X39710391Y-76280262D01*
X39329439Y-76280262D01*
X39150867Y-76185024D01*
X39079438Y-75994548D01*
X39174676Y-75232643D01*
X39293724Y-75042167D01*
X39496105Y-74946929D01*
X39877057Y-74946929D01*
X40055629Y-75042167D01*
X40127057Y-75232643D01*
X40103248Y-75423119D01*
X39127057Y-75613595D01*
X40877057Y-76089786D02*
X40960392Y-76185024D01*
X40853248Y-76280262D01*
X40769915Y-76185024D01*
X40877057Y-76089786D01*
X40853248Y-76280262D01*
X41008010Y-75042167D02*
X41091344Y-75137405D01*
X40984200Y-75232643D01*
X40900867Y-75137405D01*
X41008010Y-75042167D01*
X40984200Y-75232643D01*
D10*
D11*
X34841343Y-71668357D02*
X34341343Y-71668357D01*
X34341343Y-72454071D02*
X34341343Y-70954071D01*
X35055629Y-70954071D01*
X35627057Y-72454071D02*
X35627057Y-71454071D01*
X35627057Y-70954071D02*
X35555628Y-71025500D01*
X35627057Y-71096929D01*
X35698485Y-71025500D01*
X35627057Y-70954071D01*
X35627057Y-71096929D01*
X36555629Y-72454071D02*
X36412771Y-72382643D01*
X36341343Y-72239786D01*
X36341343Y-70954071D01*
X37698485Y-72382643D02*
X37555628Y-72454071D01*
X37269914Y-72454071D01*
X37127057Y-72382643D01*
X37055628Y-72239786D01*
X37055628Y-71668357D01*
X37127057Y-71525500D01*
X37269914Y-71454071D01*
X37555628Y-71454071D01*
X37698485Y-71525500D01*
X37769914Y-71668357D01*
X37769914Y-71811214D01*
X37055628Y-71954071D01*
X38412771Y-72311214D02*
X38484199Y-72382643D01*
X38412771Y-72454071D01*
X38341342Y-72382643D01*
X38412771Y-72311214D01*
X38412771Y-72454071D01*
X38412771Y-71525500D02*
X38484199Y-71596929D01*
X38412771Y-71668357D01*
X38341342Y-71596929D01*
X38412771Y-71525500D01*
X38412771Y-71668357D01*
X40269914Y-72454071D02*
X40269914Y-71454071D01*
X40269914Y-71596929D02*
X40341342Y-71525500D01*
X40484200Y-71454071D01*
X40698485Y-71454071D01*
X40841342Y-71525500D01*
X40912771Y-71668357D01*
X40912771Y-72454071D01*
X40912771Y-71668357D02*
X40984200Y-71525500D01*
X41127057Y-71454071D01*
X41341342Y-71454071D01*
X41484200Y-71525500D01*
X41555628Y-71668357D01*
X41555628Y-72454071D01*
X42269914Y-72454071D02*
X42269914Y-71454071D01*
X42269914Y-70954071D02*
X42198485Y-71025500D01*
X42269914Y-71096929D01*
X42341342Y-71025500D01*
X42269914Y-70954071D01*
X42269914Y-71096929D01*
X43198486Y-72454071D02*
X43055628Y-72382643D01*
X42984200Y-72239786D01*
X42984200Y-70954071D01*
X43984200Y-72454071D02*
X43841342Y-72382643D01*
X43769914Y-72239786D01*
X43769914Y-70954071D01*
X44341342Y-71454071D02*
X44912771Y-71454071D01*
X44555628Y-72454071D02*
X44555628Y-71168357D01*
X44627056Y-71025500D01*
X44769914Y-70954071D01*
X44912771Y-70954071D01*
X46055628Y-72454071D02*
X46055628Y-71668357D01*
X45984199Y-71525500D01*
X45841342Y-71454071D01*
X45555628Y-71454071D01*
X45412771Y-71525500D01*
X46055628Y-72382643D02*
X45912771Y-72454071D01*
X45555628Y-72454071D01*
X45412771Y-72382643D01*
X45341342Y-72239786D01*
X45341342Y-72096929D01*
X45412771Y-71954071D01*
X45555628Y-71882643D01*
X45912771Y-71882643D01*
X46055628Y-71811214D01*
X46769914Y-72311214D02*
X46841342Y-72382643D01*
X46769914Y-72454071D01*
X46698485Y-72382643D01*
X46769914Y-72311214D01*
X46769914Y-72454071D01*
X47484200Y-72454071D02*
X47484200Y-70954071D01*
X47627057Y-71882643D02*
X48055628Y-72454071D01*
X48055628Y-71454071D02*
X47484200Y-72025500D01*
X48698486Y-72454071D02*
X48698486Y-71454071D01*
X48698486Y-70954071D02*
X48627057Y-71025500D01*
X48698486Y-71096929D01*
X48769914Y-71025500D01*
X48698486Y-70954071D01*
X48698486Y-71096929D01*
X50055629Y-72382643D02*
X49912772Y-72454071D01*
X49627058Y-72454071D01*
X49484200Y-72382643D01*
X49412772Y-72311214D01*
X49341343Y-72168357D01*
X49341343Y-71739786D01*
X49412772Y-71596929D01*
X49484200Y-71525500D01*
X49627058Y-71454071D01*
X49912772Y-71454071D01*
X50055629Y-71525500D01*
X51341343Y-72454071D02*
X51341343Y-71668357D01*
X51269914Y-71525500D01*
X51127057Y-71454071D01*
X50841343Y-71454071D01*
X50698486Y-71525500D01*
X51341343Y-72382643D02*
X51198486Y-72454071D01*
X50841343Y-72454071D01*
X50698486Y-72382643D01*
X50627057Y-72239786D01*
X50627057Y-72096929D01*
X50698486Y-71954071D01*
X50841343Y-71882643D01*
X51198486Y-71882643D01*
X51341343Y-71811214D01*
X52698486Y-72454071D02*
X52698486Y-70954071D01*
X52698486Y-72382643D02*
X52555629Y-72454071D01*
X52269915Y-72454071D01*
X52127057Y-72382643D01*
X52055629Y-72311214D01*
X51984200Y-72168357D01*
X51984200Y-71739786D01*
X52055629Y-71596929D01*
X52127057Y-71525500D01*
X52269915Y-71454071D01*
X52555629Y-71454071D01*
X52698486Y-71525500D01*
X53055629Y-72596929D02*
X54198486Y-72596929D01*
X54555629Y-71454071D02*
X54555629Y-72954071D01*
X54555629Y-71525500D02*
X54698486Y-71454071D01*
X54984200Y-71454071D01*
X55127057Y-71525500D01*
X55198486Y-71596929D01*
X55269915Y-71739786D01*
X55269915Y-72168357D01*
X55198486Y-72311214D01*
X55127057Y-72382643D01*
X54984200Y-72454071D01*
X54698486Y-72454071D01*
X54555629Y-72382643D01*
X56555629Y-72382643D02*
X56412772Y-72454071D01*
X56127058Y-72454071D01*
X55984200Y-72382643D01*
X55912772Y-72311214D01*
X55841343Y-72168357D01*
X55841343Y-71739786D01*
X55912772Y-71596929D01*
X55984200Y-71525500D01*
X56127058Y-71454071D01*
X56412772Y-71454071D01*
X56555629Y-71525500D01*
X57198486Y-72454071D02*
X57198486Y-70954071D01*
X57198486Y-71525500D02*
X57341343Y-71454071D01*
X57627057Y-71454071D01*
X57769914Y-71525500D01*
X57841343Y-71596929D01*
X57912772Y-71739786D01*
X57912772Y-72168357D01*
X57841343Y-72311214D01*
X57769914Y-72382643D01*
X57627057Y-72454071D01*
X57341343Y-72454071D01*
X57198486Y-72382643D01*
D10*
D11*
X32984200Y-67575500D02*
X140984200Y-67575500D01*
D10*
D11*
X34269914Y-69682643D02*
X34484200Y-69754071D01*
X34841343Y-69754071D01*
X34984200Y-69682643D01*
X35055629Y-69611214D01*
X35127057Y-69468357D01*
X35127057Y-69325500D01*
X35055629Y-69182643D01*
X34984200Y-69111214D01*
X34841343Y-69039786D01*
X34555629Y-68968357D01*
X34412771Y-68896929D01*
X34341343Y-68825500D01*
X34269914Y-68682643D01*
X34269914Y-68539786D01*
X34341343Y-68396929D01*
X34412771Y-68325500D01*
X34555629Y-68254071D01*
X34912771Y-68254071D01*
X35127057Y-68325500D01*
X35769914Y-69754071D02*
X35769914Y-68254071D01*
X36412771Y-69754071D02*
X36412771Y-68968357D01*
X36341342Y-68825500D01*
X36198485Y-68754071D01*
X35984200Y-68754071D01*
X35841342Y-68825500D01*
X35769914Y-68896929D01*
X37698485Y-69682643D02*
X37555628Y-69754071D01*
X37269914Y-69754071D01*
X37127057Y-69682643D01*
X37055628Y-69539786D01*
X37055628Y-68968357D01*
X37127057Y-68825500D01*
X37269914Y-68754071D01*
X37555628Y-68754071D01*
X37698485Y-68825500D01*
X37769914Y-68968357D01*
X37769914Y-69111214D01*
X37055628Y-69254071D01*
X38984199Y-69682643D02*
X38841342Y-69754071D01*
X38555628Y-69754071D01*
X38412771Y-69682643D01*
X38341342Y-69539786D01*
X38341342Y-68968357D01*
X38412771Y-68825500D01*
X38555628Y-68754071D01*
X38841342Y-68754071D01*
X38984199Y-68825500D01*
X39055628Y-68968357D01*
X39055628Y-69111214D01*
X38341342Y-69254071D01*
X39484199Y-68754071D02*
X40055628Y-68754071D01*
X39698485Y-68254071D02*
X39698485Y-69539786D01*
X39769913Y-69682643D01*
X39912771Y-69754071D01*
X40055628Y-69754071D01*
X40555628Y-69611214D02*
X40627056Y-69682643D01*
X40555628Y-69754071D01*
X40484199Y-69682643D01*
X40555628Y-69611214D01*
X40555628Y-69754071D01*
X40555628Y-68825500D02*
X40627056Y-68896929D01*
X40555628Y-68968357D01*
X40484199Y-68896929D01*
X40555628Y-68825500D01*
X40555628Y-68968357D01*
D10*
D11*
X52984200Y-77575500D02*
X52984200Y-80575500D01*
D10*
D11*
X116984200Y-77575500D02*
X116984200Y-84075500D01*
D14*
X4762500Y14160500D03*
X8699500Y12890500D03*
X8699500Y13779500D03*
X9588500Y13779500D03*
X10477500Y13779500D03*
X11366500Y13779500D03*
X12255500Y13779500D03*
X13144500Y13779500D03*
X14033500Y13779500D03*
X14922500Y13779500D03*
X15811500Y13779500D03*
D15*
X2478000Y3017100D03*
X11238000Y3017100D03*
D16*
X2478000Y6457100D03*
X11238000Y6457100D03*
D17*
X2478000Y6007100D03*
X11238000Y6007100D03*
D14*
X16700500Y13779500D03*
X17589500Y13779500D03*
X18478500Y13779500D03*
D18*
X63500Y14160500D02*
X4448809Y14160500D01*
X5076191Y14160500D02*
X18910357Y14160500D01*
X63500Y14084300D02*
X4454571Y14084300D01*
X5070518Y14084300D02*
X8615729Y14084300D01*
X8783451Y14084300D02*
X9504729Y14084300D01*
X9672451Y14084300D02*
X10393729Y14084300D01*
X10561451Y14084300D02*
X11282729Y14084300D01*
X11450451Y14084300D02*
X12171729Y14084300D01*
X12339451Y14084300D02*
X13060729Y14084300D01*
X13228451Y14084300D02*
X13949729Y14084300D01*
X14117451Y14084300D02*
X14838729Y14084300D01*
X15006451Y14084300D02*
X15727729Y14084300D01*
X15895451Y14084300D02*
X16616729Y14084300D01*
X16784451Y14084300D02*
X17505729Y14084300D01*
X17673451Y14084300D02*
X18394729Y14084300D01*
X18562451Y14084300D02*
X18910425Y14084300D01*
X63500Y14008100D02*
X4486056Y14008100D01*
X5038877Y14008100D02*
X8484487Y14008100D01*
X8914538Y14008100D02*
X9373487Y14008100D01*
X9803538Y14008100D02*
X10262487Y14008100D01*
X10692538Y14008100D02*
X11151487Y14008100D01*
X11581538Y14008100D02*
X12040487Y14008100D01*
X12470538Y14008100D02*
X12929487Y14008100D01*
X13359538Y14008100D02*
X13818487Y14008100D01*
X14248538Y14008100D02*
X14707487Y14008100D01*
X15137538Y14008100D02*
X15596487Y14008100D01*
X16026538Y14008100D02*
X16485487Y14008100D01*
X16915538Y14008100D02*
X17374487Y14008100D01*
X17804538Y14008100D02*
X18263487Y14008100D01*
X18693538Y14008100D02*
X18910493Y14008100D01*
X63500Y13931900D02*
X4547462Y13931900D01*
X4977513Y13931900D02*
X8423123Y13931900D01*
X8975944Y13931900D02*
X9312123Y13931900D01*
X9864944Y13931900D02*
X10201123Y13931900D01*
X10753944Y13931900D02*
X11090123Y13931900D01*
X11642944Y13931900D02*
X11979123Y13931900D01*
X12531944Y13931900D02*
X12868123Y13931900D01*
X13420944Y13931900D02*
X13757123Y13931900D01*
X14309944Y13931900D02*
X14646123Y13931900D01*
X15198944Y13931900D02*
X15535123Y13931900D01*
X16087944Y13931900D02*
X16424123Y13931900D01*
X16976944Y13931900D02*
X17313123Y13931900D01*
X17865944Y13931900D02*
X18202123Y13931900D01*
X18754944Y13931900D02*
X18910561Y13931900D01*
X63500Y13855700D02*
X4678549Y13855700D01*
X4846271Y13855700D02*
X8391482Y13855700D01*
X9007429Y13855700D02*
X9280482Y13855700D01*
X9896429Y13855700D02*
X10169482Y13855700D01*
X10785429Y13855700D02*
X11058482Y13855700D01*
X11674429Y13855700D02*
X11947482Y13855700D01*
X12563429Y13855700D02*
X12836482Y13855700D01*
X13452429Y13855700D02*
X13725482Y13855700D01*
X14341429Y13855700D02*
X14614482Y13855700D01*
X15230429Y13855700D02*
X15503482Y13855700D01*
X16119429Y13855700D02*
X16392482Y13855700D01*
X17008429Y13855700D02*
X17281482Y13855700D01*
X17897429Y13855700D02*
X18170482Y13855700D01*
X18786429Y13855700D02*
X18910629Y13855700D01*
X63500Y13779500D02*
X8385810Y13779500D01*
X9013190Y13779500D02*
X9274810Y13779500D01*
X9902190Y13779500D02*
X10163810Y13779500D01*
X10791190Y13779500D02*
X11052810Y13779500D01*
X11680190Y13779500D02*
X11941810Y13779500D01*
X12569190Y13779500D02*
X12830810Y13779500D01*
X13458190Y13779500D02*
X13719810Y13779500D01*
X14347190Y13779500D02*
X14608810Y13779500D01*
X15236190Y13779500D02*
X15497810Y13779500D01*
X16125190Y13779500D02*
X16386810Y13779500D01*
X17014190Y13779500D02*
X17275810Y13779500D01*
X17903190Y13779500D02*
X18164810Y13779500D01*
X18792190Y13779500D02*
X18910697Y13779500D01*
X63500Y13703300D02*
X8391571Y13703300D01*
X9007518Y13703300D02*
X9280571Y13703300D01*
X9896518Y13703300D02*
X10169571Y13703300D01*
X10785518Y13703300D02*
X11058571Y13703300D01*
X11674518Y13703300D02*
X11947571Y13703300D01*
X12563518Y13703300D02*
X12836571Y13703300D01*
X13452518Y13703300D02*
X13725571Y13703300D01*
X14341518Y13703300D02*
X14614571Y13703300D01*
X15230518Y13703300D02*
X15503571Y13703300D01*
X16119518Y13703300D02*
X16392571Y13703300D01*
X17008518Y13703300D02*
X17281571Y13703300D01*
X17897518Y13703300D02*
X18170571Y13703300D01*
X18786518Y13703300D02*
X18910765Y13703300D01*
X63500Y13627100D02*
X8423056Y13627100D01*
X8975877Y13627100D02*
X9312056Y13627100D01*
X9864877Y13627100D02*
X10201056Y13627100D01*
X10753877Y13627100D02*
X11090056Y13627100D01*
X11642877Y13627100D02*
X11979056Y13627100D01*
X12531877Y13627100D02*
X12868056Y13627100D01*
X13420877Y13627100D02*
X13757056Y13627100D01*
X14309877Y13627100D02*
X14646056Y13627100D01*
X15198877Y13627100D02*
X15535056Y13627100D01*
X16087877Y13627100D02*
X16424056Y13627100D01*
X16976877Y13627100D02*
X17313056Y13627100D01*
X17865877Y13627100D02*
X18202056Y13627100D01*
X18754877Y13627100D02*
X18910833Y13627100D01*
X63500Y13550900D02*
X8484462Y13550900D01*
X8914513Y13550900D02*
X9373462Y13550900D01*
X9803513Y13550900D02*
X10262462Y13550900D01*
X10692513Y13550900D02*
X11151462Y13550900D01*
X11581513Y13550900D02*
X12040462Y13550900D01*
X12470513Y13550900D02*
X12929462Y13550900D01*
X13359513Y13550900D02*
X13818462Y13550900D01*
X14248513Y13550900D02*
X14707462Y13550900D01*
X15137513Y13550900D02*
X15596462Y13550900D01*
X16026513Y13550900D02*
X16485462Y13550900D01*
X16915513Y13550900D02*
X17374462Y13550900D01*
X17804513Y13550900D02*
X18263462Y13550900D01*
X18693513Y13550900D02*
X18910901Y13550900D01*
X63500Y13474700D02*
X8615549Y13474700D01*
X8783271Y13474700D02*
X9504549Y13474700D01*
X9672271Y13474700D02*
X10393549Y13474700D01*
X10561271Y13474700D02*
X11282549Y13474700D01*
X11450271Y13474700D02*
X12171549Y13474700D01*
X12339271Y13474700D02*
X13060549Y13474700D01*
X13228271Y13474700D02*
X13949549Y13474700D01*
X14117271Y13474700D02*
X14838549Y13474700D01*
X15006271Y13474700D02*
X15727549Y13474700D01*
X15895271Y13474700D02*
X16616549Y13474700D01*
X16784271Y13474700D02*
X17505549Y13474700D01*
X17673271Y13474700D02*
X18394549Y13474700D01*
X18562271Y13474700D02*
X18910969Y13474700D01*
X63500Y13398500D02*
X18911037Y13398500D01*
X63500Y13322300D02*
X18911105Y13322300D01*
X63500Y13246100D02*
X18911173Y13246100D01*
X63500Y13169900D02*
X8554256Y13169900D01*
X8844621Y13169900D02*
X18911241Y13169900D01*
X63500Y13093700D02*
X8459043Y13093700D01*
X8939893Y13093700D02*
X18911309Y13093700D01*
X63500Y13017500D02*
X8412576Y13017500D01*
X8986439Y13017500D02*
X18911377Y13017500D01*
X63500Y12941300D02*
X8385854Y12941300D01*
X9013235Y12941300D02*
X18911445Y12941300D01*
X63500Y12865100D02*
X8385788Y12865100D01*
X9013168Y12865100D02*
X18911513Y12865100D01*
X63500Y12788900D02*
X8402066Y12788900D01*
X8996971Y12788900D02*
X18911581Y12788900D01*
X63500Y12712700D02*
X8433751Y12712700D01*
X8965330Y12712700D02*
X18911649Y12712700D01*
X63500Y12636500D02*
X8509818Y12636500D01*
X8889069Y12636500D02*
X18911717Y12636500D01*
X63500Y12560300D02*
X18911785Y12560300D01*
X63500Y12484100D02*
X18911853Y12484100D01*
X63500Y12407900D02*
X18911921Y12407900D01*
X63500Y12331700D02*
X18911989Y12331700D01*
X63500Y12255500D02*
X18912057Y12255500D01*
X63500Y12179300D02*
X18912125Y12179300D01*
X63500Y12103100D02*
X18912193Y12103100D01*
X63500Y12026900D02*
X18912261Y12026900D01*
X63500Y11950700D02*
X18912329Y11950700D01*
X63500Y11874500D02*
X18912397Y11874500D01*
X63500Y11798300D02*
X18912466Y11798300D01*
X63500Y11722100D02*
X18912534Y11722100D01*
X63500Y11645900D02*
X18912602Y11645900D01*
X63500Y11569700D02*
X18912670Y11569700D01*
X63500Y11493500D02*
X18912738Y11493500D01*
X63500Y11417300D02*
X18912806Y11417300D01*
X63500Y11341100D02*
X18912874Y11341100D01*
X63500Y11264900D02*
X18912942Y11264900D01*
X63500Y11188700D02*
X18913010Y11188700D01*
X63500Y11112500D02*
X18913078Y11112500D01*
X63500Y11036300D02*
X18913146Y11036300D01*
X63500Y10960100D02*
X18913214Y10960100D01*
X63500Y10883900D02*
X18913282Y10883900D01*
X63500Y10807700D02*
X18913350Y10807700D01*
X63500Y10731500D02*
X18913418Y10731500D01*
X63500Y10655300D02*
X18913486Y10655300D01*
X63500Y10579100D02*
X18913554Y10579100D01*
X63500Y10502900D02*
X18913622Y10502900D01*
X63500Y10426700D02*
X18913690Y10426700D01*
X63500Y10350500D02*
X18913758Y10350500D01*
X63500Y10274300D02*
X18913826Y10274300D01*
X63500Y10198100D02*
X18913894Y10198100D01*
X63500Y10121900D02*
X18913962Y10121900D01*
X63500Y10045700D02*
X18914030Y10045700D01*
X63500Y9969500D02*
X18914098Y9969500D01*
X63500Y9893300D02*
X18914166Y9893300D01*
X63500Y9817100D02*
X18914234Y9817100D01*
X63500Y9740900D02*
X18914302Y9740900D01*
X63500Y9664700D02*
X18914370Y9664700D01*
X63500Y9588500D02*
X18914438Y9588500D01*
X63500Y9512300D02*
X18914506Y9512300D01*
X63500Y9436100D02*
X18914575Y9436100D01*
X63500Y9359900D02*
X18914643Y9359900D01*
X63500Y9283700D02*
X18914711Y9283700D01*
X63500Y9207500D02*
X18914779Y9207500D01*
X63500Y9131300D02*
X18914847Y9131300D01*
X63500Y9055100D02*
X18914915Y9055100D01*
X63500Y8978900D02*
X18914983Y8978900D01*
X63500Y8902700D02*
X18915051Y8902700D01*
X63500Y8826500D02*
X18915119Y8826500D01*
X63500Y8750300D02*
X18915187Y8750300D01*
X63500Y8674100D02*
X18915255Y8674100D01*
X63500Y8597900D02*
X18915323Y8597900D01*
X63500Y8521700D02*
X18915391Y8521700D01*
X63500Y8445500D02*
X18915459Y8445500D01*
X63500Y8369300D02*
X18915527Y8369300D01*
X63500Y8293100D02*
X18915595Y8293100D01*
X63500Y8216900D02*
X18915663Y8216900D01*
X63500Y8140700D02*
X18915731Y8140700D01*
X63500Y8064500D02*
X18915799Y8064500D01*
X63500Y7988300D02*
X18915867Y7988300D01*
X63500Y7912100D02*
X18915935Y7912100D01*
X63500Y7835900D02*
X18916003Y7835900D01*
X63500Y7759700D02*
X18916071Y7759700D01*
X63500Y7683500D02*
X18916139Y7683500D01*
X63500Y7607300D02*
X18916207Y7607300D01*
X63500Y7531100D02*
X18916275Y7531100D01*
X63500Y7454900D02*
X18916343Y7454900D01*
X63500Y7378700D02*
X18916411Y7378700D01*
X63500Y7302500D02*
X18916479Y7302500D01*
X63500Y7226300D02*
X18916547Y7226300D01*
X63500Y7150100D02*
X18916615Y7150100D01*
X63500Y7073900D02*
X18916684Y7073900D01*
X63500Y6997700D02*
X18916752Y6997700D01*
X63500Y6921500D02*
X18916820Y6921500D01*
X63500Y6845300D02*
X18916888Y6845300D01*
X63500Y6769100D02*
X18916956Y6769100D01*
X63500Y6692900D02*
X18917024Y6692900D01*
X63500Y6616700D02*
X18917092Y6616700D01*
X63500Y6540500D02*
X18917160Y6540500D01*
X63500Y6464300D02*
X18917228Y6464300D01*
X63500Y6388100D02*
X18917296Y6388100D01*
X63500Y6311900D02*
X18917364Y6311900D01*
X63500Y6235700D02*
X18917432Y6235700D01*
X63500Y6159500D02*
X18917500Y6159500D01*
X63500Y6083300D02*
X18917568Y6083300D01*
X63500Y6007100D02*
X18917636Y6007100D01*
X63500Y5930900D02*
X18917704Y5930900D01*
X63500Y5854700D02*
X18917772Y5854700D01*
X63500Y5778500D02*
X18917840Y5778500D01*
X63500Y5702300D02*
X18917908Y5702300D01*
X63500Y5626100D02*
X18917976Y5626100D01*
X63500Y5549900D02*
X18918044Y5549900D01*
X63500Y5473700D02*
X18918112Y5473700D01*
X63500Y5397500D02*
X18918180Y5397500D01*
X63500Y5321300D02*
X18918248Y5321300D01*
X63500Y5245100D02*
X18918316Y5245100D01*
X63500Y5168900D02*
X18918384Y5168900D01*
X63500Y5092700D02*
X18918452Y5092700D01*
X63500Y5016500D02*
X18918520Y5016500D01*
X63500Y4940300D02*
X18918588Y4940300D01*
X63500Y4864100D02*
X18918656Y4864100D01*
X63500Y4787900D02*
X18918724Y4787900D01*
X63500Y4711700D02*
X18918793Y4711700D01*
X63500Y4635500D02*
X18918861Y4635500D01*
X63500Y4559300D02*
X18918929Y4559300D01*
X63500Y4483100D02*
X18918997Y4483100D01*
X63500Y4406900D02*
X18919065Y4406900D01*
X63500Y4330700D02*
X18919133Y4330700D01*
X63500Y4254500D02*
X18919201Y4254500D01*
X63500Y4178300D02*
X18919269Y4178300D01*
X63500Y4102100D02*
X18919337Y4102100D01*
X63500Y4025900D02*
X18919405Y4025900D01*
X63500Y3949700D02*
X18919473Y3949700D01*
X63500Y3873500D02*
X18919541Y3873500D01*
X63500Y3797300D02*
X18919609Y3797300D01*
X63500Y3721100D02*
X18919677Y3721100D01*
X63500Y3644900D02*
X18919745Y3644900D01*
X63500Y3568700D02*
X18919813Y3568700D01*
X63500Y3492500D02*
X18919881Y3492500D01*
X63500Y3416300D02*
X18919949Y3416300D01*
X63500Y3340100D02*
X18920017Y3340100D01*
X63500Y3263900D02*
X18920085Y3263900D01*
X63500Y3187700D02*
X18920153Y3187700D01*
X63500Y3111500D02*
X18920221Y3111500D01*
X63500Y3035300D02*
X18920289Y3035300D01*
X63500Y2959100D02*
X18920357Y2959100D01*
X63500Y2882900D02*
X18920425Y2882900D01*
X63500Y2806700D02*
X18920493Y2806700D01*
X63500Y2730500D02*
X18920561Y2730500D01*
X63500Y2654300D02*
X18920629Y2654300D01*
X63500Y2578100D02*
X18920697Y2578100D01*
X63500Y2501900D02*
X18920765Y2501900D01*
X63500Y2425700D02*
X18920833Y2425700D01*
X63500Y2349500D02*
X18920902Y2349500D01*
X63500Y2273300D02*
X18920970Y2273300D01*
X63500Y2197100D02*
X18921038Y2197100D01*
X63500Y2120900D02*
X18921106Y2120900D01*
X63500Y2044700D02*
X18921174Y2044700D01*
X63500Y1968500D02*
X18921242Y1968500D01*
X63500Y1892300D02*
X18921310Y1892300D01*
X63500Y1816100D02*
X18921378Y1816100D01*
X63500Y1739900D02*
X18921446Y1739900D01*
X63500Y1663700D02*
X18921514Y1663700D01*
X63500Y1587500D02*
X18921582Y1587500D01*
X63500Y1511300D02*
X18921650Y1511300D01*
X63500Y1435100D02*
X18921718Y1435100D01*
X63500Y1358900D02*
X18921786Y1358900D01*
X63500Y1282700D02*
X18921854Y1282700D01*
X63500Y1206500D02*
X18921922Y1206500D01*
X63500Y1130300D02*
X18921990Y1130300D01*
X63500Y1054100D02*
X18922058Y1054100D01*
X63500Y977900D02*
X18922126Y977900D01*
X63500Y901700D02*
X18922194Y901700D01*
X63500Y825500D02*
X18922262Y825500D01*
X63500Y749300D02*
X18922330Y749300D01*
X63500Y673100D02*
X18922398Y673100D01*
X63500Y596900D02*
X18922466Y596900D01*
X63500Y520700D02*
X18922534Y520700D01*
X63500Y444500D02*
X18922602Y444500D01*
X63500Y368300D02*
X18922670Y368300D01*
X63500Y292100D02*
X18922738Y292100D01*
X63500Y215900D02*
X18922806Y215900D01*
X63500Y139700D02*
X18922874Y139700D01*
X4448755Y14098377D02*
X4496411Y13983041D01*
X4584577Y13894721D01*
X4699829Y13846864D01*
X4824623Y13846755D01*
X4939959Y13894411D01*
X5028279Y13982577D01*
X5076136Y14097829D01*
X5076191Y14160500D01*
X18910357Y14160500D01*
X18922943Y63500D01*
X63500Y63500D01*
X63500Y12828377D01*
X8385755Y12828377D01*
X8433411Y12713041D01*
X8521577Y12624721D01*
X8636829Y12576864D01*
X8761623Y12576755D01*
X8876959Y12624411D01*
X8965279Y12712577D01*
X9013136Y12827829D01*
X9013245Y12952623D01*
X8965589Y13067959D01*
X8877423Y13156279D01*
X8762171Y13204136D01*
X8637377Y13204245D01*
X8522041Y13156589D01*
X8433721Y13068423D01*
X8385864Y12953171D01*
X8385755Y12828377D01*
X63500Y12828377D01*
X63500Y13717377D01*
X8385755Y13717377D01*
X8433411Y13602041D01*
X8521577Y13513721D01*
X8636829Y13465864D01*
X8761623Y13465755D01*
X8876959Y13513411D01*
X8965279Y13601577D01*
X9013136Y13716829D01*
X9013136Y13717377D01*
X9274755Y13717377D01*
X9322411Y13602041D01*
X9410577Y13513721D01*
X9525829Y13465864D01*
X9650623Y13465755D01*
X9765959Y13513411D01*
X9854279Y13601577D01*
X9902136Y13716829D01*
X9902136Y13717377D01*
X10163755Y13717377D01*
X10211411Y13602041D01*
X10299577Y13513721D01*
X10414829Y13465864D01*
X10539623Y13465755D01*
X10654959Y13513411D01*
X10743279Y13601577D01*
X10791136Y13716829D01*
X10791136Y13717377D01*
X11052755Y13717377D01*
X11100411Y13602041D01*
X11188577Y13513721D01*
X11303829Y13465864D01*
X11428623Y13465755D01*
X11543959Y13513411D01*
X11632279Y13601577D01*
X11680136Y13716829D01*
X11680136Y13717377D01*
X11941755Y13717377D01*
X11989411Y13602041D01*
X12077577Y13513721D01*
X12192829Y13465864D01*
X12317623Y13465755D01*
X12432959Y13513411D01*
X12521279Y13601577D01*
X12569136Y13716829D01*
X12569136Y13717377D01*
X12830755Y13717377D01*
X12878411Y13602041D01*
X12966577Y13513721D01*
X13081829Y13465864D01*
X13206623Y13465755D01*
X13321959Y13513411D01*
X13410279Y13601577D01*
X13458136Y13716829D01*
X13458136Y13717377D01*
X13719755Y13717377D01*
X13767411Y13602041D01*
X13855577Y13513721D01*
X13970829Y13465864D01*
X14095623Y13465755D01*
X14210959Y13513411D01*
X14299279Y13601577D01*
X14347136Y13716829D01*
X14347136Y13717377D01*
X14608755Y13717377D01*
X14656411Y13602041D01*
X14744577Y13513721D01*
X14859829Y13465864D01*
X14984623Y13465755D01*
X15099959Y13513411D01*
X15188279Y13601577D01*
X15236136Y13716829D01*
X15236136Y13717377D01*
X15497755Y13717377D01*
X15545411Y13602041D01*
X15633577Y13513721D01*
X15748829Y13465864D01*
X15873623Y13465755D01*
X15988959Y13513411D01*
X16077279Y13601577D01*
X16125136Y13716829D01*
X16125136Y13717377D01*
X16386755Y13717377D01*
X16434411Y13602041D01*
X16522577Y13513721D01*
X16637829Y13465864D01*
X16762623Y13465755D01*
X16877959Y13513411D01*
X16966279Y13601577D01*
X17014136Y13716829D01*
X17014136Y13717377D01*
X17275755Y13717377D01*
X17323411Y13602041D01*
X17411577Y13513721D01*
X17526829Y13465864D01*
X17651623Y13465755D01*
X17766959Y13513411D01*
X17855279Y13601577D01*
X17903136Y13716829D01*
X17903136Y13717377D01*
X18164755Y13717377D01*
X18212411Y13602041D01*
X18300577Y13513721D01*
X18415829Y13465864D01*
X18540623Y13465755D01*
X18655959Y13513411D01*
X18744279Y13601577D01*
X18792136Y13716829D01*
X18792245Y13841623D01*
X18744589Y13956959D01*
X18656423Y14045279D01*
X18541171Y14093136D01*
X18416377Y14093245D01*
X18301041Y14045589D01*
X18212721Y13957423D01*
X18164864Y13842171D01*
X18164755Y13717377D01*
X17903136Y13717377D01*
X17903245Y13841623D01*
X17855589Y13956959D01*
X17767423Y14045279D01*
X17652171Y14093136D01*
X17527377Y14093245D01*
X17412041Y14045589D01*
X17323721Y13957423D01*
X17275864Y13842171D01*
X17275755Y13717377D01*
X17014136Y13717377D01*
X17014245Y13841623D01*
X16966589Y13956959D01*
X16878423Y14045279D01*
X16763171Y14093136D01*
X16638377Y14093245D01*
X16523041Y14045589D01*
X16434721Y13957423D01*
X16386864Y13842171D01*
X16386755Y13717377D01*
X16125136Y13717377D01*
X16125245Y13841623D01*
X16077589Y13956959D01*
X15989423Y14045279D01*
X15874171Y14093136D01*
X15749377Y14093245D01*
X15634041Y14045589D01*
X15545721Y13957423D01*
X15497864Y13842171D01*
X15497755Y13717377D01*
X15236136Y13717377D01*
X15236245Y13841623D01*
X15188589Y13956959D01*
X15100423Y14045279D01*
X14985171Y14093136D01*
X14860377Y14093245D01*
X14745041Y14045589D01*
X14656721Y13957423D01*
X14608864Y13842171D01*
X14608755Y13717377D01*
X14347136Y13717377D01*
X14347245Y13841623D01*
X14299589Y13956959D01*
X14211423Y14045279D01*
X14096171Y14093136D01*
X13971377Y14093245D01*
X13856041Y14045589D01*
X13767721Y13957423D01*
X13719864Y13842171D01*
X13719755Y13717377D01*
X13458136Y13717377D01*
X13458245Y13841623D01*
X13410589Y13956959D01*
X13322423Y14045279D01*
X13207171Y14093136D01*
X13082377Y14093245D01*
X12967041Y14045589D01*
X12878721Y13957423D01*
X12830864Y13842171D01*
X12830755Y13717377D01*
X12569136Y13717377D01*
X12569245Y13841623D01*
X12521589Y13956959D01*
X12433423Y14045279D01*
X12318171Y14093136D01*
X12193377Y14093245D01*
X12078041Y14045589D01*
X11989721Y13957423D01*
X11941864Y13842171D01*
X11941755Y13717377D01*
X11680136Y13717377D01*
X11680245Y13841623D01*
X11632589Y13956959D01*
X11544423Y14045279D01*
X11429171Y14093136D01*
X11304377Y14093245D01*
X11189041Y14045589D01*
X11100721Y13957423D01*
X11052864Y13842171D01*
X11052755Y13717377D01*
X10791136Y13717377D01*
X10791245Y13841623D01*
X10743589Y13956959D01*
X10655423Y14045279D01*
X10540171Y14093136D01*
X10415377Y14093245D01*
X10300041Y14045589D01*
X10211721Y13957423D01*
X10163864Y13842171D01*
X10163755Y13717377D01*
X9902136Y13717377D01*
X9902245Y13841623D01*
X9854589Y13956959D01*
X9766423Y14045279D01*
X9651171Y14093136D01*
X9526377Y14093245D01*
X9411041Y14045589D01*
X9322721Y13957423D01*
X9274864Y13842171D01*
X9274755Y13717377D01*
X9013136Y13717377D01*
X9013245Y13841623D01*
X8965589Y13956959D01*
X8877423Y14045279D01*
X8762171Y14093136D01*
X8637377Y14093245D01*
X8522041Y14045589D01*
X8433721Y13957423D01*
X8385864Y13842171D01*
X8385755Y13717377D01*
X63500Y13717377D01*
X63500Y14160500D01*
X4448809Y14160500D01*
X4448755Y14098377D01*
M02*
