%TF.GenerationSoftware,KiCad,Pcbnew,4.0.5*%
%TF.CreationDate,2017-03-15T23:01:03-07:00*%
%TF.ProjectId,millfa,6D696C6C66612E6B696361645F706362,rev?*%
%TF.FileFunction,Copper,L1,Top,Signal*%
%FSLAX46Y46*%
G04 Gerber Fmt 4.6, Leading zero omitted, Abs format (unit mm)*
G04 Created by KiCad (PCBNEW 4.0.5) date 03/15/17 23:01:03*
%MOMM*%
%LPD*%
G01*
G04 APERTURE LIST*
%ADD10C,0.025400*%
%ADD11C,0.150000*%
%ADD12C,0.300000*%
%ADD13C,0.400000*%
%ADD14C,0.500380*%
%ADD15R,2.290000X5.080000*%
%ADD16R,2.420000X5.080000*%
%ADD17C,0.970000*%
%ADD18R,0.460000X0.890000*%
%ADD19C,0.152400*%
G04 APERTURE END LIST*
D10*
D11*
X32984200Y-52075500D02*
X32984200Y-84075500D01*
X140984200Y-84075500D01*
X140984200Y-52075500D01*
X32984200Y-52075500D01*
D10*
D11*
X-134018000Y103931700D02*
X-134018000Y-86075500D01*
X142984200Y-86075500D01*
X142984200Y103931700D01*
X-134018000Y103931700D01*
D10*
D11*
X-132018000Y101931700D02*
X-132018000Y-84075500D01*
X140984200Y-84075500D01*
X140984200Y101931700D01*
X-132018000Y101931700D01*
D10*
D11*
X-84018000Y101931700D02*
X-84018000Y103931700D01*
D10*
D11*
X-34018000Y101931700D02*
X-34018000Y103931700D01*
D10*
D11*
X15982000Y101931700D02*
X15982000Y103931700D01*
D10*
D11*
X65982000Y101931700D02*
X65982000Y103931700D01*
D10*
D11*
X115982000Y101931700D02*
X115982000Y103931700D01*
D10*
D11*
X-108027524Y102343605D02*
X-108770381Y102343605D01*
X-108398952Y102343605D02*
X-108398952Y103643605D01*
X-108522762Y103457890D01*
X-108646571Y103334081D01*
X-108770381Y103272176D01*
D10*
D11*
X-58770381Y103519795D02*
X-58708476Y103581700D01*
X-58584667Y103643605D01*
X-58275143Y103643605D01*
X-58151333Y103581700D01*
X-58089429Y103519795D01*
X-58027524Y103395986D01*
X-58027524Y103272176D01*
X-58089429Y103086462D01*
X-58832286Y102343605D01*
X-58027524Y102343605D01*
D10*
D11*
X-8832286Y103643605D02*
X-8027524Y103643605D01*
X-8460857Y103148367D01*
X-8275143Y103148367D01*
X-8151333Y103086462D01*
X-8089429Y103024557D01*
X-8027524Y102900748D01*
X-8027524Y102591224D01*
X-8089429Y102467414D01*
X-8151333Y102405510D01*
X-8275143Y102343605D01*
X-8646571Y102343605D01*
X-8770381Y102405510D01*
X-8832286Y102467414D01*
D10*
D11*
X41848667Y103210271D02*
X41848667Y102343605D01*
X41539143Y103705510D02*
X41229619Y102776938D01*
X42034381Y102776938D01*
D10*
D11*
X91910571Y103643605D02*
X91291524Y103643605D01*
X91229619Y103024557D01*
X91291524Y103086462D01*
X91415333Y103148367D01*
X91724857Y103148367D01*
X91848667Y103086462D01*
X91910571Y103024557D01*
X91972476Y102900748D01*
X91972476Y102591224D01*
X91910571Y102467414D01*
X91848667Y102405510D01*
X91724857Y102343605D01*
X91415333Y102343605D01*
X91291524Y102405510D01*
X91229619Y102467414D01*
D10*
D11*
X141848667Y103643605D02*
X141601048Y103643605D01*
X141477238Y103581700D01*
X141415333Y103519795D01*
X141291524Y103334081D01*
X141229619Y103086462D01*
X141229619Y102591224D01*
X141291524Y102467414D01*
X141353429Y102405510D01*
X141477238Y102343605D01*
X141724857Y102343605D01*
X141848667Y102405510D01*
X141910571Y102467414D01*
X141972476Y102591224D01*
X141972476Y102900748D01*
X141910571Y103024557D01*
X141848667Y103086462D01*
X141724857Y103148367D01*
X141477238Y103148367D01*
X141353429Y103086462D01*
X141291524Y103024557D01*
X141229619Y102900748D01*
D10*
D11*
X-84018000Y-84075500D02*
X-84018000Y-86075500D01*
D10*
D11*
X-34018000Y-84075500D02*
X-34018000Y-86075500D01*
D10*
D11*
X15982000Y-84075500D02*
X15982000Y-86075500D01*
D10*
D11*
X65982000Y-84075500D02*
X65982000Y-86075500D01*
D10*
D11*
X115982000Y-84075500D02*
X115982000Y-86075500D01*
D10*
D11*
X-108027524Y-85663595D02*
X-108770381Y-85663595D01*
X-108398952Y-85663595D02*
X-108398952Y-84363595D01*
X-108522762Y-84549310D01*
X-108646571Y-84673119D01*
X-108770381Y-84735024D01*
D10*
D11*
X-58770381Y-84487405D02*
X-58708476Y-84425500D01*
X-58584667Y-84363595D01*
X-58275143Y-84363595D01*
X-58151333Y-84425500D01*
X-58089429Y-84487405D01*
X-58027524Y-84611214D01*
X-58027524Y-84735024D01*
X-58089429Y-84920738D01*
X-58832286Y-85663595D01*
X-58027524Y-85663595D01*
D10*
D11*
X-8832286Y-84363595D02*
X-8027524Y-84363595D01*
X-8460857Y-84858833D01*
X-8275143Y-84858833D01*
X-8151333Y-84920738D01*
X-8089429Y-84982643D01*
X-8027524Y-85106452D01*
X-8027524Y-85415976D01*
X-8089429Y-85539786D01*
X-8151333Y-85601690D01*
X-8275143Y-85663595D01*
X-8646571Y-85663595D01*
X-8770381Y-85601690D01*
X-8832286Y-85539786D01*
D10*
D11*
X41848667Y-84796929D02*
X41848667Y-85663595D01*
X41539143Y-84301690D02*
X41229619Y-85230262D01*
X42034381Y-85230262D01*
D10*
D11*
X91910571Y-84363595D02*
X91291524Y-84363595D01*
X91229619Y-84982643D01*
X91291524Y-84920738D01*
X91415333Y-84858833D01*
X91724857Y-84858833D01*
X91848667Y-84920738D01*
X91910571Y-84982643D01*
X91972476Y-85106452D01*
X91972476Y-85415976D01*
X91910571Y-85539786D01*
X91848667Y-85601690D01*
X91724857Y-85663595D01*
X91415333Y-85663595D01*
X91291524Y-85601690D01*
X91229619Y-85539786D01*
D10*
D11*
X141848667Y-84363595D02*
X141601048Y-84363595D01*
X141477238Y-84425500D01*
X141415333Y-84487405D01*
X141291524Y-84673119D01*
X141229619Y-84920738D01*
X141229619Y-85415976D01*
X141291524Y-85539786D01*
X141353429Y-85601690D01*
X141477238Y-85663595D01*
X141724857Y-85663595D01*
X141848667Y-85601690D01*
X141910571Y-85539786D01*
X141972476Y-85415976D01*
X141972476Y-85106452D01*
X141910571Y-84982643D01*
X141848667Y-84920738D01*
X141724857Y-84858833D01*
X141477238Y-84858833D01*
X141353429Y-84920738D01*
X141291524Y-84982643D01*
X141229619Y-85106452D01*
D10*
D11*
X-134018000Y53931700D02*
X-132018000Y53931700D01*
D10*
D11*
X-134018000Y3931700D02*
X-132018000Y3931700D01*
D10*
D11*
X-134018000Y-46068300D02*
X-132018000Y-46068300D01*
D10*
D11*
X-133327524Y78715033D02*
X-132708476Y78715033D01*
X-133451333Y78343605D02*
X-133018000Y79643605D01*
X-132584667Y78343605D01*
D10*
D11*
X-132925143Y29024557D02*
X-132739429Y28962652D01*
X-132677524Y28900748D01*
X-132615619Y28776938D01*
X-132615619Y28591224D01*
X-132677524Y28467414D01*
X-132739429Y28405510D01*
X-132863238Y28343605D01*
X-133358476Y28343605D01*
X-133358476Y29643605D01*
X-132925143Y29643605D01*
X-132801333Y29581700D01*
X-132739429Y29519795D01*
X-132677524Y29395986D01*
X-132677524Y29272176D01*
X-132739429Y29148367D01*
X-132801333Y29086462D01*
X-132925143Y29024557D01*
X-133358476Y29024557D01*
D10*
D11*
X-132615619Y-21532586D02*
X-132677524Y-21594490D01*
X-132863238Y-21656395D01*
X-132987048Y-21656395D01*
X-133172762Y-21594490D01*
X-133296571Y-21470681D01*
X-133358476Y-21346871D01*
X-133420381Y-21099252D01*
X-133420381Y-20913538D01*
X-133358476Y-20665919D01*
X-133296571Y-20542110D01*
X-133172762Y-20418300D01*
X-132987048Y-20356395D01*
X-132863238Y-20356395D01*
X-132677524Y-20418300D01*
X-132615619Y-20480205D01*
D10*
D11*
X-133358476Y-71656395D02*
X-133358476Y-70356395D01*
X-133048952Y-70356395D01*
X-132863238Y-70418300D01*
X-132739429Y-70542110D01*
X-132677524Y-70665919D01*
X-132615619Y-70913538D01*
X-132615619Y-71099252D01*
X-132677524Y-71346871D01*
X-132739429Y-71470681D01*
X-132863238Y-71594490D01*
X-133048952Y-71656395D01*
X-133358476Y-71656395D01*
D10*
D11*
X142984200Y53931700D02*
X140984200Y53931700D01*
D10*
D11*
X142984200Y3931700D02*
X140984200Y3931700D01*
D10*
D11*
X142984200Y-46068300D02*
X140984200Y-46068300D01*
D10*
D11*
X141674676Y78715033D02*
X142293724Y78715033D01*
X141550867Y78343605D02*
X141984200Y79643605D01*
X142417533Y78343605D01*
D10*
D11*
X142077057Y29024557D02*
X142262771Y28962652D01*
X142324676Y28900748D01*
X142386581Y28776938D01*
X142386581Y28591224D01*
X142324676Y28467414D01*
X142262771Y28405510D01*
X142138962Y28343605D01*
X141643724Y28343605D01*
X141643724Y29643605D01*
X142077057Y29643605D01*
X142200867Y29581700D01*
X142262771Y29519795D01*
X142324676Y29395986D01*
X142324676Y29272176D01*
X142262771Y29148367D01*
X142200867Y29086462D01*
X142077057Y29024557D01*
X141643724Y29024557D01*
D10*
D11*
X142386581Y-21532586D02*
X142324676Y-21594490D01*
X142138962Y-21656395D01*
X142015152Y-21656395D01*
X141829438Y-21594490D01*
X141705629Y-21470681D01*
X141643724Y-21346871D01*
X141581819Y-21099252D01*
X141581819Y-20913538D01*
X141643724Y-20665919D01*
X141705629Y-20542110D01*
X141829438Y-20418300D01*
X142015152Y-20356395D01*
X142138962Y-20356395D01*
X142324676Y-20418300D01*
X142386581Y-20480205D01*
D10*
D11*
X141643724Y-71656395D02*
X141643724Y-70356395D01*
X141953248Y-70356395D01*
X142138962Y-70418300D01*
X142262771Y-70542110D01*
X142324676Y-70665919D01*
X142386581Y-70913538D01*
X142386581Y-71099252D01*
X142324676Y-71346871D01*
X142262771Y-71470681D01*
X142138962Y-71594490D01*
X141953248Y-71656395D01*
X141643724Y-71656395D01*
D10*
D11*
X56341343Y-79854071D02*
X56341343Y-78354071D01*
X56698486Y-78354071D01*
X56912771Y-78425500D01*
X57055629Y-78568357D01*
X57127057Y-78711214D01*
X57198486Y-78996929D01*
X57198486Y-79211214D01*
X57127057Y-79496929D01*
X57055629Y-79639786D01*
X56912771Y-79782643D01*
X56698486Y-79854071D01*
X56341343Y-79854071D01*
X58484200Y-79854071D02*
X58484200Y-79068357D01*
X58412771Y-78925500D01*
X58269914Y-78854071D01*
X57984200Y-78854071D01*
X57841343Y-78925500D01*
X58484200Y-79782643D02*
X58341343Y-79854071D01*
X57984200Y-79854071D01*
X57841343Y-79782643D01*
X57769914Y-79639786D01*
X57769914Y-79496929D01*
X57841343Y-79354071D01*
X57984200Y-79282643D01*
X58341343Y-79282643D01*
X58484200Y-79211214D01*
X58984200Y-78854071D02*
X59555629Y-78854071D01*
X59198486Y-78354071D02*
X59198486Y-79639786D01*
X59269914Y-79782643D01*
X59412772Y-79854071D01*
X59555629Y-79854071D01*
X60627057Y-79782643D02*
X60484200Y-79854071D01*
X60198486Y-79854071D01*
X60055629Y-79782643D01*
X59984200Y-79639786D01*
X59984200Y-79068357D01*
X60055629Y-78925500D01*
X60198486Y-78854071D01*
X60484200Y-78854071D01*
X60627057Y-78925500D01*
X60698486Y-79068357D01*
X60698486Y-79211214D01*
X59984200Y-79354071D01*
X61341343Y-79711214D02*
X61412771Y-79782643D01*
X61341343Y-79854071D01*
X61269914Y-79782643D01*
X61341343Y-79711214D01*
X61341343Y-79854071D01*
X61341343Y-78925500D02*
X61412771Y-78996929D01*
X61341343Y-79068357D01*
X61269914Y-78996929D01*
X61341343Y-78925500D01*
X61341343Y-79068357D01*
D10*
D11*
X32984200Y-80575500D02*
X140984200Y-80575500D01*
D10*
D11*
X34341343Y-82654071D02*
X34341343Y-81154071D01*
X35198486Y-82654071D02*
X34555629Y-81796929D01*
X35198486Y-81154071D02*
X34341343Y-82011214D01*
X35841343Y-82654071D02*
X35841343Y-81654071D01*
X35841343Y-81154071D02*
X35769914Y-81225500D01*
X35841343Y-81296929D01*
X35912771Y-81225500D01*
X35841343Y-81154071D01*
X35841343Y-81296929D01*
X37412772Y-82511214D02*
X37341343Y-82582643D01*
X37127057Y-82654071D01*
X36984200Y-82654071D01*
X36769915Y-82582643D01*
X36627057Y-82439786D01*
X36555629Y-82296929D01*
X36484200Y-82011214D01*
X36484200Y-81796929D01*
X36555629Y-81511214D01*
X36627057Y-81368357D01*
X36769915Y-81225500D01*
X36984200Y-81154071D01*
X37127057Y-81154071D01*
X37341343Y-81225500D01*
X37412772Y-81296929D01*
X38698486Y-82654071D02*
X38698486Y-81868357D01*
X38627057Y-81725500D01*
X38484200Y-81654071D01*
X38198486Y-81654071D01*
X38055629Y-81725500D01*
X38698486Y-82582643D02*
X38555629Y-82654071D01*
X38198486Y-82654071D01*
X38055629Y-82582643D01*
X37984200Y-82439786D01*
X37984200Y-82296929D01*
X38055629Y-82154071D01*
X38198486Y-82082643D01*
X38555629Y-82082643D01*
X38698486Y-82011214D01*
X40055629Y-82654071D02*
X40055629Y-81154071D01*
X40055629Y-82582643D02*
X39912772Y-82654071D01*
X39627058Y-82654071D01*
X39484200Y-82582643D01*
X39412772Y-82511214D01*
X39341343Y-82368357D01*
X39341343Y-81939786D01*
X39412772Y-81796929D01*
X39484200Y-81725500D01*
X39627058Y-81654071D01*
X39912772Y-81654071D01*
X40055629Y-81725500D01*
X41912772Y-81868357D02*
X42412772Y-81868357D01*
X42627058Y-82654071D02*
X41912772Y-82654071D01*
X41912772Y-81154071D01*
X42627058Y-81154071D01*
X43269915Y-82511214D02*
X43341343Y-82582643D01*
X43269915Y-82654071D01*
X43198486Y-82582643D01*
X43269915Y-82511214D01*
X43269915Y-82654071D01*
X43984201Y-82654071D02*
X43984201Y-81154071D01*
X44341344Y-81154071D01*
X44555629Y-81225500D01*
X44698487Y-81368357D01*
X44769915Y-81511214D01*
X44841344Y-81796929D01*
X44841344Y-82011214D01*
X44769915Y-82296929D01*
X44698487Y-82439786D01*
X44555629Y-82582643D01*
X44341344Y-82654071D01*
X43984201Y-82654071D01*
X45484201Y-82511214D02*
X45555629Y-82582643D01*
X45484201Y-82654071D01*
X45412772Y-82582643D01*
X45484201Y-82511214D01*
X45484201Y-82654071D01*
X46127058Y-82225500D02*
X46841344Y-82225500D01*
X45984201Y-82654071D02*
X46484201Y-81154071D01*
X46984201Y-82654071D01*
X47484201Y-82511214D02*
X47555629Y-82582643D01*
X47484201Y-82654071D01*
X47412772Y-82582643D01*
X47484201Y-82511214D01*
X47484201Y-82654071D01*
X50484201Y-81654071D02*
X50484201Y-83154071D01*
X50484201Y-81725500D02*
X50627058Y-81654071D01*
X50912772Y-81654071D01*
X51055629Y-81725500D01*
X51127058Y-81796929D01*
X51198487Y-81939786D01*
X51198487Y-82368357D01*
X51127058Y-82511214D01*
X51055629Y-82582643D01*
X50912772Y-82654071D01*
X50627058Y-82654071D01*
X50484201Y-82582643D01*
X52484201Y-82582643D02*
X52341344Y-82654071D01*
X52055630Y-82654071D01*
X51912772Y-82582643D01*
X51841344Y-82511214D01*
X51769915Y-82368357D01*
X51769915Y-81939786D01*
X51841344Y-81796929D01*
X51912772Y-81725500D01*
X52055630Y-81654071D01*
X52341344Y-81654071D01*
X52484201Y-81725500D01*
X53127058Y-82654071D02*
X53127058Y-81154071D01*
X53127058Y-81725500D02*
X53269915Y-81654071D01*
X53555629Y-81654071D01*
X53698486Y-81725500D01*
X53769915Y-81796929D01*
X53841344Y-81939786D01*
X53841344Y-82368357D01*
X53769915Y-82511214D01*
X53698486Y-82582643D01*
X53555629Y-82654071D01*
X53269915Y-82654071D01*
X53127058Y-82582643D01*
X54484201Y-81654071D02*
X54484201Y-82654071D01*
X54484201Y-81796929D02*
X54555629Y-81725500D01*
X54698487Y-81654071D01*
X54912772Y-81654071D01*
X55055629Y-81725500D01*
X55127058Y-81868357D01*
X55127058Y-82654071D01*
X56412772Y-82582643D02*
X56269915Y-82654071D01*
X55984201Y-82654071D01*
X55841344Y-82582643D01*
X55769915Y-82439786D01*
X55769915Y-81868357D01*
X55841344Y-81725500D01*
X55984201Y-81654071D01*
X56269915Y-81654071D01*
X56412772Y-81725500D01*
X56484201Y-81868357D01*
X56484201Y-82011214D01*
X55769915Y-82154071D01*
X56984201Y-81654071D02*
X57269915Y-82654071D01*
X57555629Y-81939786D01*
X57841344Y-82654071D01*
X58127058Y-81654071D01*
X60484201Y-81654071D02*
X60484201Y-82654071D01*
X60127058Y-81082643D02*
X59769915Y-82154071D01*
X60698487Y-82154071D01*
X61269915Y-82511214D02*
X61341343Y-82582643D01*
X61269915Y-82654071D01*
X61198486Y-82582643D01*
X61269915Y-82511214D01*
X61269915Y-82654071D01*
X62269915Y-81154071D02*
X62412772Y-81154071D01*
X62555629Y-81225500D01*
X62627058Y-81296929D01*
X62698487Y-81439786D01*
X62769915Y-81725500D01*
X62769915Y-82082643D01*
X62698487Y-82368357D01*
X62627058Y-82511214D01*
X62555629Y-82582643D01*
X62412772Y-82654071D01*
X62269915Y-82654071D01*
X62127058Y-82582643D01*
X62055629Y-82511214D01*
X61984201Y-82368357D01*
X61912772Y-82082643D01*
X61912772Y-81725500D01*
X61984201Y-81439786D01*
X62055629Y-81296929D01*
X62127058Y-81225500D01*
X62269915Y-81154071D01*
X63412772Y-82511214D02*
X63484200Y-82582643D01*
X63412772Y-82654071D01*
X63341343Y-82582643D01*
X63412772Y-82511214D01*
X63412772Y-82654071D01*
X64841344Y-81154071D02*
X64127058Y-81154071D01*
X64055629Y-81868357D01*
X64127058Y-81796929D01*
X64269915Y-81725500D01*
X64627058Y-81725500D01*
X64769915Y-81796929D01*
X64841344Y-81868357D01*
X64912772Y-82011214D01*
X64912772Y-82368357D01*
X64841344Y-82511214D01*
X64769915Y-82582643D01*
X64627058Y-82654071D01*
X64269915Y-82654071D01*
X64127058Y-82582643D01*
X64055629Y-82511214D01*
D10*
D11*
X32984200Y-77575500D02*
X140984200Y-77575500D01*
D10*
D12*
X120198486Y-79854071D02*
X119698486Y-79139786D01*
X119341343Y-79854071D02*
X119341343Y-78354071D01*
X119912771Y-78354071D01*
X120055629Y-78425500D01*
X120127057Y-78496929D01*
X120198486Y-78639786D01*
X120198486Y-78854071D01*
X120127057Y-78996929D01*
X120055629Y-79068357D01*
X119912771Y-79139786D01*
X119341343Y-79139786D01*
X121412771Y-79782643D02*
X121269914Y-79854071D01*
X120984200Y-79854071D01*
X120841343Y-79782643D01*
X120769914Y-79639786D01*
X120769914Y-79068357D01*
X120841343Y-78925500D01*
X120984200Y-78854071D01*
X121269914Y-78854071D01*
X121412771Y-78925500D01*
X121484200Y-79068357D01*
X121484200Y-79211214D01*
X120769914Y-79354071D01*
X121984200Y-78854071D02*
X122341343Y-79854071D01*
X122698485Y-78854071D01*
X123269914Y-79711214D02*
X123341342Y-79782643D01*
X123269914Y-79854071D01*
X123198485Y-79782643D01*
X123269914Y-79711214D01*
X123269914Y-79854071D01*
X123269914Y-78925500D02*
X123341342Y-78996929D01*
X123269914Y-79068357D01*
X123198485Y-78996929D01*
X123269914Y-78925500D01*
X123269914Y-79068357D01*
D10*
D11*
X34269914Y-79782643D02*
X34484200Y-79854071D01*
X34841343Y-79854071D01*
X34984200Y-79782643D01*
X35055629Y-79711214D01*
X35127057Y-79568357D01*
X35127057Y-79425500D01*
X35055629Y-79282643D01*
X34984200Y-79211214D01*
X34841343Y-79139786D01*
X34555629Y-79068357D01*
X34412771Y-78996929D01*
X34341343Y-78925500D01*
X34269914Y-78782643D01*
X34269914Y-78639786D01*
X34341343Y-78496929D01*
X34412771Y-78425500D01*
X34555629Y-78354071D01*
X34912771Y-78354071D01*
X35127057Y-78425500D01*
X35769914Y-79854071D02*
X35769914Y-78854071D01*
X35769914Y-78354071D02*
X35698485Y-78425500D01*
X35769914Y-78496929D01*
X35841342Y-78425500D01*
X35769914Y-78354071D01*
X35769914Y-78496929D01*
X36341343Y-78854071D02*
X37127057Y-78854071D01*
X36341343Y-79854071D01*
X37127057Y-79854071D01*
X38269914Y-79782643D02*
X38127057Y-79854071D01*
X37841343Y-79854071D01*
X37698486Y-79782643D01*
X37627057Y-79639786D01*
X37627057Y-79068357D01*
X37698486Y-78925500D01*
X37841343Y-78854071D01*
X38127057Y-78854071D01*
X38269914Y-78925500D01*
X38341343Y-79068357D01*
X38341343Y-79211214D01*
X37627057Y-79354071D01*
X38984200Y-79711214D02*
X39055628Y-79782643D01*
X38984200Y-79854071D01*
X38912771Y-79782643D01*
X38984200Y-79711214D01*
X38984200Y-79854071D01*
X38984200Y-78925500D02*
X39055628Y-78996929D01*
X38984200Y-79068357D01*
X38912771Y-78996929D01*
X38984200Y-78925500D01*
X38984200Y-79068357D01*
X40769914Y-79425500D02*
X41484200Y-79425500D01*
X40627057Y-79854071D02*
X41127057Y-78354071D01*
X41627057Y-79854071D01*
X42769914Y-78854071D02*
X42769914Y-79854071D01*
X42412771Y-78282643D02*
X42055628Y-79354071D01*
X42984200Y-79354071D01*
D10*
D11*
X119341343Y-82654071D02*
X119341343Y-81154071D01*
X120698486Y-82654071D02*
X120698486Y-81154071D01*
X120698486Y-82582643D02*
X120555629Y-82654071D01*
X120269915Y-82654071D01*
X120127057Y-82582643D01*
X120055629Y-82511214D01*
X119984200Y-82368357D01*
X119984200Y-81939786D01*
X120055629Y-81796929D01*
X120127057Y-81725500D01*
X120269915Y-81654071D01*
X120555629Y-81654071D01*
X120698486Y-81725500D01*
X121412772Y-82511214D02*
X121484200Y-82582643D01*
X121412772Y-82654071D01*
X121341343Y-82582643D01*
X121412772Y-82511214D01*
X121412772Y-82654071D01*
X121412772Y-81725500D02*
X121484200Y-81796929D01*
X121412772Y-81868357D01*
X121341343Y-81796929D01*
X121412772Y-81725500D01*
X121412772Y-81868357D01*
X124055629Y-82654071D02*
X123198486Y-82654071D01*
X123627058Y-82654071D02*
X123627058Y-81154071D01*
X123484201Y-81368357D01*
X123341343Y-81511214D01*
X123198486Y-81582643D01*
X125769914Y-81082643D02*
X124484200Y-83011214D01*
X127055629Y-82654071D02*
X126198486Y-82654071D01*
X126627058Y-82654071D02*
X126627058Y-81154071D01*
X126484201Y-81368357D01*
X126341343Y-81511214D01*
X126198486Y-81582643D01*
D10*
D11*
X32984200Y-73575500D02*
X140984200Y-73575500D01*
D10*
D13*
X34436581Y-74280262D02*
X35579438Y-74280262D01*
X34758010Y-76280262D02*
X35008010Y-74280262D01*
X35996105Y-76280262D02*
X36162771Y-74946929D01*
X36246105Y-74280262D02*
X36138962Y-74375500D01*
X36222295Y-74470738D01*
X36329439Y-74375500D01*
X36246105Y-74280262D01*
X36222295Y-74470738D01*
X36829438Y-74946929D02*
X37591343Y-74946929D01*
X37198486Y-74280262D02*
X36984200Y-75994548D01*
X37055630Y-76185024D01*
X37234201Y-76280262D01*
X37424677Y-76280262D01*
X38377058Y-76280262D02*
X38198487Y-76185024D01*
X38127057Y-75994548D01*
X38341343Y-74280262D01*
X39912772Y-76185024D02*
X39710391Y-76280262D01*
X39329439Y-76280262D01*
X39150867Y-76185024D01*
X39079438Y-75994548D01*
X39174676Y-75232643D01*
X39293724Y-75042167D01*
X39496105Y-74946929D01*
X39877057Y-74946929D01*
X40055629Y-75042167D01*
X40127057Y-75232643D01*
X40103248Y-75423119D01*
X39127057Y-75613595D01*
X40877057Y-76089786D02*
X40960392Y-76185024D01*
X40853248Y-76280262D01*
X40769915Y-76185024D01*
X40877057Y-76089786D01*
X40853248Y-76280262D01*
X41008010Y-75042167D02*
X41091344Y-75137405D01*
X40984200Y-75232643D01*
X40900867Y-75137405D01*
X41008010Y-75042167D01*
X40984200Y-75232643D01*
D10*
D11*
X34841343Y-71668357D02*
X34341343Y-71668357D01*
X34341343Y-72454071D02*
X34341343Y-70954071D01*
X35055629Y-70954071D01*
X35627057Y-72454071D02*
X35627057Y-71454071D01*
X35627057Y-70954071D02*
X35555628Y-71025500D01*
X35627057Y-71096929D01*
X35698485Y-71025500D01*
X35627057Y-70954071D01*
X35627057Y-71096929D01*
X36555629Y-72454071D02*
X36412771Y-72382643D01*
X36341343Y-72239786D01*
X36341343Y-70954071D01*
X37698485Y-72382643D02*
X37555628Y-72454071D01*
X37269914Y-72454071D01*
X37127057Y-72382643D01*
X37055628Y-72239786D01*
X37055628Y-71668357D01*
X37127057Y-71525500D01*
X37269914Y-71454071D01*
X37555628Y-71454071D01*
X37698485Y-71525500D01*
X37769914Y-71668357D01*
X37769914Y-71811214D01*
X37055628Y-71954071D01*
X38412771Y-72311214D02*
X38484199Y-72382643D01*
X38412771Y-72454071D01*
X38341342Y-72382643D01*
X38412771Y-72311214D01*
X38412771Y-72454071D01*
X38412771Y-71525500D02*
X38484199Y-71596929D01*
X38412771Y-71668357D01*
X38341342Y-71596929D01*
X38412771Y-71525500D01*
X38412771Y-71668357D01*
X40269914Y-72454071D02*
X40269914Y-71454071D01*
X40269914Y-71596929D02*
X40341342Y-71525500D01*
X40484200Y-71454071D01*
X40698485Y-71454071D01*
X40841342Y-71525500D01*
X40912771Y-71668357D01*
X40912771Y-72454071D01*
X40912771Y-71668357D02*
X40984200Y-71525500D01*
X41127057Y-71454071D01*
X41341342Y-71454071D01*
X41484200Y-71525500D01*
X41555628Y-71668357D01*
X41555628Y-72454071D01*
X42269914Y-72454071D02*
X42269914Y-71454071D01*
X42269914Y-70954071D02*
X42198485Y-71025500D01*
X42269914Y-71096929D01*
X42341342Y-71025500D01*
X42269914Y-70954071D01*
X42269914Y-71096929D01*
X43198486Y-72454071D02*
X43055628Y-72382643D01*
X42984200Y-72239786D01*
X42984200Y-70954071D01*
X43984200Y-72454071D02*
X43841342Y-72382643D01*
X43769914Y-72239786D01*
X43769914Y-70954071D01*
X44341342Y-71454071D02*
X44912771Y-71454071D01*
X44555628Y-72454071D02*
X44555628Y-71168357D01*
X44627056Y-71025500D01*
X44769914Y-70954071D01*
X44912771Y-70954071D01*
X46055628Y-72454071D02*
X46055628Y-71668357D01*
X45984199Y-71525500D01*
X45841342Y-71454071D01*
X45555628Y-71454071D01*
X45412771Y-71525500D01*
X46055628Y-72382643D02*
X45912771Y-72454071D01*
X45555628Y-72454071D01*
X45412771Y-72382643D01*
X45341342Y-72239786D01*
X45341342Y-72096929D01*
X45412771Y-71954071D01*
X45555628Y-71882643D01*
X45912771Y-71882643D01*
X46055628Y-71811214D01*
X46769914Y-72311214D02*
X46841342Y-72382643D01*
X46769914Y-72454071D01*
X46698485Y-72382643D01*
X46769914Y-72311214D01*
X46769914Y-72454071D01*
X47484200Y-72454071D02*
X47484200Y-70954071D01*
X47627057Y-71882643D02*
X48055628Y-72454071D01*
X48055628Y-71454071D02*
X47484200Y-72025500D01*
X48698486Y-72454071D02*
X48698486Y-71454071D01*
X48698486Y-70954071D02*
X48627057Y-71025500D01*
X48698486Y-71096929D01*
X48769914Y-71025500D01*
X48698486Y-70954071D01*
X48698486Y-71096929D01*
X50055629Y-72382643D02*
X49912772Y-72454071D01*
X49627058Y-72454071D01*
X49484200Y-72382643D01*
X49412772Y-72311214D01*
X49341343Y-72168357D01*
X49341343Y-71739786D01*
X49412772Y-71596929D01*
X49484200Y-71525500D01*
X49627058Y-71454071D01*
X49912772Y-71454071D01*
X50055629Y-71525500D01*
X51341343Y-72454071D02*
X51341343Y-71668357D01*
X51269914Y-71525500D01*
X51127057Y-71454071D01*
X50841343Y-71454071D01*
X50698486Y-71525500D01*
X51341343Y-72382643D02*
X51198486Y-72454071D01*
X50841343Y-72454071D01*
X50698486Y-72382643D01*
X50627057Y-72239786D01*
X50627057Y-72096929D01*
X50698486Y-71954071D01*
X50841343Y-71882643D01*
X51198486Y-71882643D01*
X51341343Y-71811214D01*
X52698486Y-72454071D02*
X52698486Y-70954071D01*
X52698486Y-72382643D02*
X52555629Y-72454071D01*
X52269915Y-72454071D01*
X52127057Y-72382643D01*
X52055629Y-72311214D01*
X51984200Y-72168357D01*
X51984200Y-71739786D01*
X52055629Y-71596929D01*
X52127057Y-71525500D01*
X52269915Y-71454071D01*
X52555629Y-71454071D01*
X52698486Y-71525500D01*
X53055629Y-72596929D02*
X54198486Y-72596929D01*
X54555629Y-71454071D02*
X54555629Y-72954071D01*
X54555629Y-71525500D02*
X54698486Y-71454071D01*
X54984200Y-71454071D01*
X55127057Y-71525500D01*
X55198486Y-71596929D01*
X55269915Y-71739786D01*
X55269915Y-72168357D01*
X55198486Y-72311214D01*
X55127057Y-72382643D01*
X54984200Y-72454071D01*
X54698486Y-72454071D01*
X54555629Y-72382643D01*
X56555629Y-72382643D02*
X56412772Y-72454071D01*
X56127058Y-72454071D01*
X55984200Y-72382643D01*
X55912772Y-72311214D01*
X55841343Y-72168357D01*
X55841343Y-71739786D01*
X55912772Y-71596929D01*
X55984200Y-71525500D01*
X56127058Y-71454071D01*
X56412772Y-71454071D01*
X56555629Y-71525500D01*
X57198486Y-72454071D02*
X57198486Y-70954071D01*
X57198486Y-71525500D02*
X57341343Y-71454071D01*
X57627057Y-71454071D01*
X57769914Y-71525500D01*
X57841343Y-71596929D01*
X57912772Y-71739786D01*
X57912772Y-72168357D01*
X57841343Y-72311214D01*
X57769914Y-72382643D01*
X57627057Y-72454071D01*
X57341343Y-72454071D01*
X57198486Y-72382643D01*
D10*
D11*
X32984200Y-67575500D02*
X140984200Y-67575500D01*
D10*
D11*
X34269914Y-69682643D02*
X34484200Y-69754071D01*
X34841343Y-69754071D01*
X34984200Y-69682643D01*
X35055629Y-69611214D01*
X35127057Y-69468357D01*
X35127057Y-69325500D01*
X35055629Y-69182643D01*
X34984200Y-69111214D01*
X34841343Y-69039786D01*
X34555629Y-68968357D01*
X34412771Y-68896929D01*
X34341343Y-68825500D01*
X34269914Y-68682643D01*
X34269914Y-68539786D01*
X34341343Y-68396929D01*
X34412771Y-68325500D01*
X34555629Y-68254071D01*
X34912771Y-68254071D01*
X35127057Y-68325500D01*
X35769914Y-69754071D02*
X35769914Y-68254071D01*
X36412771Y-69754071D02*
X36412771Y-68968357D01*
X36341342Y-68825500D01*
X36198485Y-68754071D01*
X35984200Y-68754071D01*
X35841342Y-68825500D01*
X35769914Y-68896929D01*
X37698485Y-69682643D02*
X37555628Y-69754071D01*
X37269914Y-69754071D01*
X37127057Y-69682643D01*
X37055628Y-69539786D01*
X37055628Y-68968357D01*
X37127057Y-68825500D01*
X37269914Y-68754071D01*
X37555628Y-68754071D01*
X37698485Y-68825500D01*
X37769914Y-68968357D01*
X37769914Y-69111214D01*
X37055628Y-69254071D01*
X38984199Y-69682643D02*
X38841342Y-69754071D01*
X38555628Y-69754071D01*
X38412771Y-69682643D01*
X38341342Y-69539786D01*
X38341342Y-68968357D01*
X38412771Y-68825500D01*
X38555628Y-68754071D01*
X38841342Y-68754071D01*
X38984199Y-68825500D01*
X39055628Y-68968357D01*
X39055628Y-69111214D01*
X38341342Y-69254071D01*
X39484199Y-68754071D02*
X40055628Y-68754071D01*
X39698485Y-68254071D02*
X39698485Y-69539786D01*
X39769913Y-69682643D01*
X39912771Y-69754071D01*
X40055628Y-69754071D01*
X40555628Y-69611214D02*
X40627056Y-69682643D01*
X40555628Y-69754071D01*
X40484199Y-69682643D01*
X40555628Y-69611214D01*
X40555628Y-69754071D01*
X40555628Y-68825500D02*
X40627056Y-68896929D01*
X40555628Y-68968357D01*
X40484199Y-68896929D01*
X40555628Y-68825500D01*
X40555628Y-68968357D01*
D10*
D11*
X52984200Y-77575500D02*
X52984200Y-80575500D01*
D10*
D11*
X116984200Y-77575500D02*
X116984200Y-84075500D01*
D14*
X4762500Y14160500D03*
X8699500Y12890500D03*
X8699500Y13779500D03*
X9588500Y13779500D03*
X10477500Y13779500D03*
X11366500Y13779500D03*
X12255500Y13779500D03*
X13144500Y13779500D03*
X14033500Y13779500D03*
X14922500Y13779500D03*
X15811500Y13779500D03*
D15*
X6858000Y3017100D03*
D16*
X2478000Y3017100D03*
X11238000Y3017100D03*
D17*
X2478000Y6457100D03*
X11238000Y6457100D03*
D18*
X2478000Y6007100D03*
X11238000Y6007100D03*
D14*
X16700500Y13779500D03*
X17589500Y13779500D03*
X18478500Y13779500D03*
D19*
X76200Y14147800D02*
X3975100Y14147800D01*
X8356600Y14147800D02*
X18910300Y14147800D01*
X76200Y14046200D02*
X3975100Y14046200D01*
X8356600Y14046200D02*
X8504679Y14046200D01*
X8894447Y14046200D02*
X9393679Y14046200D01*
X9783447Y14046200D02*
X10282679Y14046200D01*
X10672447Y14046200D02*
X11171679Y14046200D01*
X11561447Y14046200D02*
X12060679Y14046200D01*
X12450447Y14046200D02*
X12949679Y14046200D01*
X13339447Y14046200D02*
X13838679Y14046200D01*
X14228447Y14046200D02*
X14727679Y14046200D01*
X15117447Y14046200D02*
X15616679Y14046200D01*
X16006447Y14046200D02*
X16505679Y14046200D01*
X16895447Y14046200D02*
X17394679Y14046200D01*
X17784447Y14046200D02*
X18283679Y14046200D01*
X18673447Y14046200D02*
X18910300Y14046200D01*
X76200Y13944600D02*
X3975100Y13944600D01*
X8356600Y13944600D02*
X8414647Y13944600D01*
X8984436Y13944600D02*
X9303647Y13944600D01*
X9873436Y13944600D02*
X10192647Y13944600D01*
X10762436Y13944600D02*
X11081647Y13944600D01*
X11651436Y13944600D02*
X11970647Y13944600D01*
X12540436Y13944600D02*
X12859647Y13944600D01*
X13429436Y13944600D02*
X13748647Y13944600D01*
X14318436Y13944600D02*
X14637647Y13944600D01*
X15207436Y13944600D02*
X15526647Y13944600D01*
X16096436Y13944600D02*
X16415647Y13944600D01*
X16985436Y13944600D02*
X17304647Y13944600D01*
X17874436Y13944600D02*
X18193647Y13944600D01*
X18763436Y13944600D02*
X18910300Y13944600D01*
X76200Y13843000D02*
X3975100Y13843000D01*
X8356600Y13843000D02*
X8373166Y13843000D01*
X9025945Y13843000D02*
X9262166Y13843000D01*
X9914945Y13843000D02*
X10151166Y13843000D01*
X10803945Y13843000D02*
X11040166Y13843000D01*
X11692945Y13843000D02*
X11929166Y13843000D01*
X12581945Y13843000D02*
X12818166Y13843000D01*
X13470945Y13843000D02*
X13707166Y13843000D01*
X14359945Y13843000D02*
X14596166Y13843000D01*
X15248945Y13843000D02*
X15485166Y13843000D01*
X16137945Y13843000D02*
X16374166Y13843000D01*
X17026945Y13843000D02*
X17263166Y13843000D01*
X17915945Y13843000D02*
X18152166Y13843000D01*
X18804945Y13843000D02*
X18910300Y13843000D01*
X76200Y13741400D02*
X3975100Y13741400D01*
X8356600Y13741400D02*
X8373078Y13741400D01*
X9025856Y13741400D02*
X9262078Y13741400D01*
X9914856Y13741400D02*
X10151078Y13741400D01*
X10803856Y13741400D02*
X11040078Y13741400D01*
X11692856Y13741400D02*
X11929078Y13741400D01*
X12581856Y13741400D02*
X12818078Y13741400D01*
X13470856Y13741400D02*
X13707078Y13741400D01*
X14359856Y13741400D02*
X14596078Y13741400D01*
X15248856Y13741400D02*
X15485078Y13741400D01*
X16137856Y13741400D02*
X16374078Y13741400D01*
X17026856Y13741400D02*
X17263078Y13741400D01*
X17915856Y13741400D02*
X18152078Y13741400D01*
X18804856Y13741400D02*
X18910300Y13741400D01*
X76200Y13639800D02*
X3975100Y13639800D01*
X8356600Y13639800D02*
X8404068Y13639800D01*
X8994900Y13639800D02*
X9293068Y13639800D01*
X9883900Y13639800D02*
X10182068Y13639800D01*
X10772900Y13639800D02*
X11071068Y13639800D01*
X11661900Y13639800D02*
X11960068Y13639800D01*
X12550900Y13639800D02*
X12849068Y13639800D01*
X13439900Y13639800D02*
X13738068Y13639800D01*
X14328900Y13639800D02*
X14627068Y13639800D01*
X15217900Y13639800D02*
X15516068Y13639800D01*
X16106900Y13639800D02*
X16405068Y13639800D01*
X16995900Y13639800D02*
X17294068Y13639800D01*
X17884900Y13639800D02*
X18183068Y13639800D01*
X18773900Y13639800D02*
X18910300Y13639800D01*
X76200Y13538200D02*
X3975100Y13538200D01*
X8356600Y13538200D02*
X8479197Y13538200D01*
X8919766Y13538200D02*
X9368197Y13538200D01*
X9808766Y13538200D02*
X10257197Y13538200D01*
X10697766Y13538200D02*
X11146197Y13538200D01*
X11586766Y13538200D02*
X12035197Y13538200D01*
X12475766Y13538200D02*
X12924197Y13538200D01*
X13364766Y13538200D02*
X13813197Y13538200D01*
X14253766Y13538200D02*
X14702197Y13538200D01*
X15142766Y13538200D02*
X15591197Y13538200D01*
X16031766Y13538200D02*
X16480197Y13538200D01*
X16920766Y13538200D02*
X17369197Y13538200D01*
X17809766Y13538200D02*
X18258197Y13538200D01*
X18698766Y13538200D02*
X18910300Y13538200D01*
X76200Y13436600D02*
X3977671Y13436600D01*
X8356600Y13436600D02*
X18910300Y13436600D01*
X76200Y13335000D02*
X5359400Y13335000D01*
X8356600Y13335000D02*
X18910300Y13335000D01*
X76200Y13233400D02*
X5359400Y13233400D01*
X8356600Y13233400D02*
X18910300Y13233400D01*
X76200Y13131800D02*
X5359400Y13131800D01*
X8356600Y13131800D02*
X8479234Y13131800D01*
X8919803Y13131800D02*
X18910300Y13131800D01*
X76200Y13030200D02*
X5359400Y13030200D01*
X8356600Y13030200D02*
X8404100Y13030200D01*
X8994932Y13030200D02*
X18910300Y13030200D01*
X76200Y12928600D02*
X5359400Y12928600D01*
X8356600Y12928600D02*
X8373144Y12928600D01*
X9025922Y12928600D02*
X18910300Y12928600D01*
X76200Y12827000D02*
X5359400Y12827000D01*
X8356600Y12827000D02*
X8373055Y12827000D01*
X9025834Y12827000D02*
X18910300Y12827000D01*
X76200Y12725400D02*
X5359400Y12725400D01*
X8356600Y12725400D02*
X8414564Y12725400D01*
X8984353Y12725400D02*
X18910300Y12725400D01*
X76200Y12623800D02*
X5359400Y12623800D01*
X8356600Y12623800D02*
X8504553Y12623800D01*
X8894321Y12623800D02*
X18910300Y12623800D01*
X76200Y12522200D02*
X5359400Y12522200D01*
X8356600Y12522200D02*
X18910300Y12522200D01*
X76200Y12420600D02*
X5359400Y12420600D01*
X8356600Y12420600D02*
X18910300Y12420600D01*
X76200Y12319000D02*
X5359400Y12319000D01*
X8356600Y12319000D02*
X18910300Y12319000D01*
X76200Y12217400D02*
X5359400Y12217400D01*
X8356600Y12217400D02*
X18910300Y12217400D01*
X76200Y12115800D02*
X5359400Y12115800D01*
X8356600Y12115800D02*
X18910300Y12115800D01*
X76200Y12014200D02*
X5359400Y12014200D01*
X8356600Y12014200D02*
X18910300Y12014200D01*
X76200Y11912600D02*
X5359400Y11912600D01*
X8356600Y11912600D02*
X18910300Y11912600D01*
X76200Y11811000D02*
X5359400Y11811000D01*
X8356600Y11811000D02*
X18910300Y11811000D01*
X76200Y11709400D02*
X5359400Y11709400D01*
X8356600Y11709400D02*
X18910300Y11709400D01*
X76200Y11607800D02*
X5359400Y11607800D01*
X8356600Y11607800D02*
X18910300Y11607800D01*
X76200Y11506200D02*
X5359400Y11506200D01*
X8356600Y11506200D02*
X18910300Y11506200D01*
X76200Y11404600D02*
X5359400Y11404600D01*
X8356600Y11404600D02*
X18910300Y11404600D01*
X76200Y11303000D02*
X5359400Y11303000D01*
X8356600Y11303000D02*
X18910300Y11303000D01*
X76200Y11201400D02*
X5359400Y11201400D01*
X8356600Y11201400D02*
X18910300Y11201400D01*
X76200Y11099800D02*
X5359400Y11099800D01*
X8356600Y11099800D02*
X18910300Y11099800D01*
X76200Y10998200D02*
X5359400Y10998200D01*
X8356600Y10998200D02*
X18910300Y10998200D01*
X76200Y10896600D02*
X5359400Y10896600D01*
X8356600Y10896600D02*
X18910300Y10896600D01*
X76200Y10795000D02*
X5359400Y10795000D01*
X8356600Y10795000D02*
X18910300Y10795000D01*
X76200Y10693400D02*
X5359400Y10693400D01*
X8356600Y10693400D02*
X18910300Y10693400D01*
X76200Y10591800D02*
X5359400Y10591800D01*
X8356600Y10591800D02*
X18910300Y10591800D01*
X76200Y10490200D02*
X5359400Y10490200D01*
X8356600Y10490200D02*
X18910300Y10490200D01*
X76200Y10388600D02*
X5359400Y10388600D01*
X8356600Y10388600D02*
X18910300Y10388600D01*
X76200Y10287000D02*
X5359400Y10287000D01*
X8356600Y10287000D02*
X18910300Y10287000D01*
X76200Y10185400D02*
X5359400Y10185400D01*
X8356600Y10185400D02*
X18910300Y10185400D01*
X76200Y10083800D02*
X5359400Y10083800D01*
X8356600Y10083800D02*
X18910300Y10083800D01*
X76200Y9982200D02*
X5359400Y9982200D01*
X8356600Y9982200D02*
X18910300Y9982200D01*
X76200Y9880600D02*
X5359400Y9880600D01*
X8356600Y9880600D02*
X18910300Y9880600D01*
X76200Y9779000D02*
X5359400Y9779000D01*
X8356600Y9779000D02*
X18910300Y9779000D01*
X76200Y9677400D02*
X5359400Y9677400D01*
X8356600Y9677400D02*
X18910300Y9677400D01*
X76200Y9575800D02*
X5359400Y9575800D01*
X8356600Y9575800D02*
X18910300Y9575800D01*
X76200Y9474200D02*
X5359400Y9474200D01*
X8356600Y9474200D02*
X18910300Y9474200D01*
X76200Y9372600D02*
X5359400Y9372600D01*
X8356600Y9372600D02*
X18910300Y9372600D01*
X76200Y9271000D02*
X5359400Y9271000D01*
X8356600Y9271000D02*
X18910300Y9271000D01*
X76200Y9169400D02*
X5359400Y9169400D01*
X8356600Y9169400D02*
X18910300Y9169400D01*
X76200Y9067800D02*
X5359400Y9067800D01*
X8356600Y9067800D02*
X18910300Y9067800D01*
X76200Y8966200D02*
X5359400Y8966200D01*
X8356600Y8966200D02*
X18910300Y8966200D01*
X76200Y8864600D02*
X5359400Y8864600D01*
X8356600Y8864600D02*
X18910300Y8864600D01*
X76200Y8763000D02*
X5359400Y8763000D01*
X8356600Y8763000D02*
X18910300Y8763000D01*
X76200Y8661400D02*
X5359400Y8661400D01*
X8356600Y8661400D02*
X18910300Y8661400D01*
X76200Y8559800D02*
X5359400Y8559800D01*
X8356600Y8559800D02*
X18910300Y8559800D01*
X76200Y8458200D02*
X5359400Y8458200D01*
X8356600Y8458200D02*
X18910300Y8458200D01*
X76200Y8356600D02*
X5359400Y8356600D01*
X8356600Y8356600D02*
X18910300Y8356600D01*
X76200Y8255000D02*
X5359400Y8255000D01*
X8356600Y8255000D02*
X18910300Y8255000D01*
X76200Y8153400D02*
X5359400Y8153400D01*
X8356600Y8153400D02*
X18910300Y8153400D01*
X76200Y8051800D02*
X5359400Y8051800D01*
X8356600Y8051800D02*
X18910300Y8051800D01*
X76200Y7950200D02*
X5359400Y7950200D01*
X8356600Y7950200D02*
X18910300Y7950200D01*
X76200Y7848600D02*
X5359400Y7848600D01*
X8356600Y7848600D02*
X18910300Y7848600D01*
X76200Y7747000D02*
X5359400Y7747000D01*
X8356600Y7747000D02*
X18910300Y7747000D01*
X76200Y7645400D02*
X5359400Y7645400D01*
X8356600Y7645400D02*
X18910300Y7645400D01*
X76200Y7543800D02*
X5359400Y7543800D01*
X8356600Y7543800D02*
X18910300Y7543800D01*
X76200Y7442200D02*
X5359400Y7442200D01*
X8356600Y7442200D02*
X18910300Y7442200D01*
X76200Y7340600D02*
X5359400Y7340600D01*
X8356600Y7340600D02*
X18910300Y7340600D01*
X76200Y7239000D02*
X5359400Y7239000D01*
X8356600Y7239000D02*
X18910300Y7239000D01*
X76200Y7137400D02*
X5359400Y7137400D01*
X8356600Y7137400D02*
X18910300Y7137400D01*
X76200Y7035800D02*
X5359400Y7035800D01*
X8356600Y7035800D02*
X18910300Y7035800D01*
X76200Y6934200D02*
X5359400Y6934200D01*
X8356600Y6934200D02*
X18910300Y6934200D01*
X76200Y6832600D02*
X5359400Y6832600D01*
X8356600Y6832600D02*
X18910300Y6832600D01*
X76200Y6731000D02*
X5359400Y6731000D01*
X8356600Y6731000D02*
X18910300Y6731000D01*
X76200Y6629400D02*
X5359400Y6629400D01*
X8356600Y6629400D02*
X18910300Y6629400D01*
X76200Y6527800D02*
X5359400Y6527800D01*
X8356600Y6527800D02*
X18910300Y6527800D01*
X76200Y6426200D02*
X5359400Y6426200D01*
X8356600Y6426200D02*
X18910300Y6426200D01*
X76200Y6324600D02*
X5359400Y6324600D01*
X8356600Y6324600D02*
X18910300Y6324600D01*
X76200Y6223000D02*
X5359400Y6223000D01*
X8356600Y6223000D02*
X18910300Y6223000D01*
X76200Y6121400D02*
X5359400Y6121400D01*
X8356600Y6121400D02*
X18910300Y6121400D01*
X76200Y6019800D02*
X5359400Y6019800D01*
X8356600Y6019800D02*
X18910300Y6019800D01*
X76200Y5918200D02*
X5359400Y5918200D01*
X8356600Y5918200D02*
X18910300Y5918200D01*
X76200Y5816600D02*
X5359400Y5816600D01*
X8356600Y5816600D02*
X18910300Y5816600D01*
X76200Y5715000D02*
X5359400Y5715000D01*
X8356600Y5715000D02*
X18910300Y5715000D01*
X76200Y5613400D02*
X5359400Y5613400D01*
X8356600Y5613400D02*
X18910300Y5613400D01*
X76200Y5511800D02*
X5359400Y5511800D01*
X8356600Y5511800D02*
X18910300Y5511800D01*
X76200Y5410200D02*
X5359400Y5410200D01*
X8356600Y5410200D02*
X18910300Y5410200D01*
X76200Y5308600D02*
X5359400Y5308600D01*
X8356600Y5308600D02*
X18910300Y5308600D01*
X76200Y5207000D02*
X5359400Y5207000D01*
X8356600Y5207000D02*
X18910300Y5207000D01*
X76200Y5105400D02*
X5359400Y5105400D01*
X8356600Y5105400D02*
X18910300Y5105400D01*
X76200Y5003800D02*
X5359400Y5003800D01*
X8356600Y5003800D02*
X18910300Y5003800D01*
X76200Y4902200D02*
X5359400Y4902200D01*
X8356600Y4902200D02*
X18910300Y4902200D01*
X76200Y4800600D02*
X5359400Y4800600D01*
X8356600Y4800600D02*
X18910300Y4800600D01*
X76200Y4699000D02*
X5359400Y4699000D01*
X8356600Y4699000D02*
X18910300Y4699000D01*
X76200Y4597400D02*
X5359400Y4597400D01*
X8356600Y4597400D02*
X18910300Y4597400D01*
X76200Y4495800D02*
X5359400Y4495800D01*
X8356600Y4495800D02*
X18910300Y4495800D01*
X76200Y4394200D02*
X5359400Y4394200D01*
X8356600Y4394200D02*
X18910300Y4394200D01*
X76200Y4292600D02*
X5359400Y4292600D01*
X8356600Y4292600D02*
X18910300Y4292600D01*
X76200Y4191000D02*
X5359400Y4191000D01*
X8356600Y4191000D02*
X18910300Y4191000D01*
X76200Y4089400D02*
X5359400Y4089400D01*
X8356600Y4089400D02*
X18910300Y4089400D01*
X76200Y3987800D02*
X5359400Y3987800D01*
X8356600Y3987800D02*
X18910300Y3987800D01*
X76200Y3886200D02*
X5359400Y3886200D01*
X8356600Y3886200D02*
X18910300Y3886200D01*
X76200Y3784600D02*
X5359400Y3784600D01*
X8356600Y3784600D02*
X18910300Y3784600D01*
X76200Y3683000D02*
X5359400Y3683000D01*
X8356600Y3683000D02*
X18910300Y3683000D01*
X76200Y3581400D02*
X5359400Y3581400D01*
X8356600Y3581400D02*
X18910300Y3581400D01*
X76200Y3479800D02*
X5359400Y3479800D01*
X8356600Y3479800D02*
X18910300Y3479800D01*
X76200Y3378200D02*
X5359400Y3378200D01*
X8356600Y3378200D02*
X18910300Y3378200D01*
X76200Y3276600D02*
X5359400Y3276600D01*
X8356600Y3276600D02*
X18910300Y3276600D01*
X76200Y3175000D02*
X5359400Y3175000D01*
X8356600Y3175000D02*
X18910300Y3175000D01*
X76200Y3073400D02*
X5359400Y3073400D01*
X8356600Y3073400D02*
X18910300Y3073400D01*
X76200Y2971800D02*
X5359400Y2971800D01*
X8356600Y2971800D02*
X18910300Y2971800D01*
X76200Y2870200D02*
X5359400Y2870200D01*
X8356600Y2870200D02*
X18910300Y2870200D01*
X76200Y2768600D02*
X5359400Y2768600D01*
X8356600Y2768600D02*
X18910300Y2768600D01*
X76200Y2667000D02*
X5359400Y2667000D01*
X8356600Y2667000D02*
X18910300Y2667000D01*
X76200Y2565400D02*
X5359400Y2565400D01*
X8356600Y2565400D02*
X18910300Y2565400D01*
X76200Y2463800D02*
X5359400Y2463800D01*
X8356600Y2463800D02*
X18910300Y2463800D01*
X76200Y2362200D02*
X5359400Y2362200D01*
X8356600Y2362200D02*
X18910300Y2362200D01*
X76200Y2260600D02*
X5359400Y2260600D01*
X8356600Y2260600D02*
X18910300Y2260600D01*
X76200Y2159000D02*
X5359400Y2159000D01*
X8356600Y2159000D02*
X18910300Y2159000D01*
X76200Y2057400D02*
X5359400Y2057400D01*
X8356600Y2057400D02*
X18910300Y2057400D01*
X76200Y1955800D02*
X5359400Y1955800D01*
X8356600Y1955800D02*
X18910300Y1955800D01*
X76200Y1854200D02*
X5359400Y1854200D01*
X8356600Y1854200D02*
X18910300Y1854200D01*
X76200Y1752600D02*
X5359400Y1752600D01*
X8356600Y1752600D02*
X18910300Y1752600D01*
X76200Y1651000D02*
X5359400Y1651000D01*
X8356600Y1651000D02*
X18910300Y1651000D01*
X76200Y1549400D02*
X5359400Y1549400D01*
X8356600Y1549400D02*
X18910300Y1549400D01*
X76200Y1447800D02*
X5359400Y1447800D01*
X8356600Y1447800D02*
X18910300Y1447800D01*
X76200Y1346200D02*
X5359400Y1346200D01*
X8356600Y1346200D02*
X18910300Y1346200D01*
X76200Y1244600D02*
X5359400Y1244600D01*
X8356600Y1244600D02*
X18910300Y1244600D01*
X76200Y1143000D02*
X5359400Y1143000D01*
X8356600Y1143000D02*
X18910300Y1143000D01*
X76200Y1041400D02*
X5359400Y1041400D01*
X8356600Y1041400D02*
X18910300Y1041400D01*
X76200Y939800D02*
X5359400Y939800D01*
X8356600Y939800D02*
X18910300Y939800D01*
X76200Y838200D02*
X5359400Y838200D01*
X8356600Y838200D02*
X18910300Y838200D01*
X76200Y736600D02*
X5359400Y736600D01*
X8356600Y736600D02*
X18910300Y736600D01*
X76200Y635000D02*
X5359400Y635000D01*
X8356600Y635000D02*
X18910300Y635000D01*
X76200Y533400D02*
X5359400Y533400D01*
X8356600Y533400D02*
X18910300Y533400D01*
X76200Y431800D02*
X5359400Y431800D01*
X8356600Y431800D02*
X18910300Y431800D01*
X76200Y330200D02*
X5359400Y330200D01*
X8356600Y330200D02*
X18910300Y330200D01*
X76200Y228600D02*
X5359400Y228600D01*
X8356600Y228600D02*
X18910300Y228600D01*
X76200Y127000D02*
X18910300Y127000D01*
X3975100Y13449300D02*
X3981103Y13419654D01*
X3998168Y13394679D01*
X4023605Y13378311D01*
X4051300Y13373100D01*
X5359400Y13373100D01*
X5359400Y203200D01*
X5365403Y173554D01*
X5382468Y148579D01*
X5407905Y132211D01*
X5435600Y127000D01*
X8280400Y127000D01*
X8310046Y133003D01*
X8335021Y150068D01*
X8351389Y175505D01*
X8356600Y203200D01*
X8356600Y12825862D01*
X8373054Y12825862D01*
X8422639Y12705857D01*
X8514374Y12613962D01*
X8634292Y12564167D01*
X8764138Y12564054D01*
X8884143Y12613639D01*
X8976038Y12705374D01*
X9025833Y12825292D01*
X9025946Y12955138D01*
X8976361Y13075143D01*
X8884626Y13167038D01*
X8764708Y13216833D01*
X8634862Y13216946D01*
X8514857Y13167361D01*
X8422962Y13075626D01*
X8373167Y12955708D01*
X8373054Y12825862D01*
X8356600Y12825862D01*
X8356600Y13714862D01*
X8373054Y13714862D01*
X8422639Y13594857D01*
X8514374Y13502962D01*
X8634292Y13453167D01*
X8764138Y13453054D01*
X8884143Y13502639D01*
X8976038Y13594374D01*
X9025833Y13714292D01*
X9025833Y13714862D01*
X9262054Y13714862D01*
X9311639Y13594857D01*
X9403374Y13502962D01*
X9523292Y13453167D01*
X9653138Y13453054D01*
X9773143Y13502639D01*
X9865038Y13594374D01*
X9914833Y13714292D01*
X9914833Y13714862D01*
X10151054Y13714862D01*
X10200639Y13594857D01*
X10292374Y13502962D01*
X10412292Y13453167D01*
X10542138Y13453054D01*
X10662143Y13502639D01*
X10754038Y13594374D01*
X10803833Y13714292D01*
X10803833Y13714862D01*
X11040054Y13714862D01*
X11089639Y13594857D01*
X11181374Y13502962D01*
X11301292Y13453167D01*
X11431138Y13453054D01*
X11551143Y13502639D01*
X11643038Y13594374D01*
X11692833Y13714292D01*
X11692833Y13714862D01*
X11929054Y13714862D01*
X11978639Y13594857D01*
X12070374Y13502962D01*
X12190292Y13453167D01*
X12320138Y13453054D01*
X12440143Y13502639D01*
X12532038Y13594374D01*
X12581833Y13714292D01*
X12581833Y13714862D01*
X12818054Y13714862D01*
X12867639Y13594857D01*
X12959374Y13502962D01*
X13079292Y13453167D01*
X13209138Y13453054D01*
X13329143Y13502639D01*
X13421038Y13594374D01*
X13470833Y13714292D01*
X13470833Y13714862D01*
X13707054Y13714862D01*
X13756639Y13594857D01*
X13848374Y13502962D01*
X13968292Y13453167D01*
X14098138Y13453054D01*
X14218143Y13502639D01*
X14310038Y13594374D01*
X14359833Y13714292D01*
X14359833Y13714862D01*
X14596054Y13714862D01*
X14645639Y13594857D01*
X14737374Y13502962D01*
X14857292Y13453167D01*
X14987138Y13453054D01*
X15107143Y13502639D01*
X15199038Y13594374D01*
X15248833Y13714292D01*
X15248833Y13714862D01*
X15485054Y13714862D01*
X15534639Y13594857D01*
X15626374Y13502962D01*
X15746292Y13453167D01*
X15876138Y13453054D01*
X15996143Y13502639D01*
X16088038Y13594374D01*
X16137833Y13714292D01*
X16137833Y13714862D01*
X16374054Y13714862D01*
X16423639Y13594857D01*
X16515374Y13502962D01*
X16635292Y13453167D01*
X16765138Y13453054D01*
X16885143Y13502639D01*
X16977038Y13594374D01*
X17026833Y13714292D01*
X17026833Y13714862D01*
X17263054Y13714862D01*
X17312639Y13594857D01*
X17404374Y13502962D01*
X17524292Y13453167D01*
X17654138Y13453054D01*
X17774143Y13502639D01*
X17866038Y13594374D01*
X17915833Y13714292D01*
X17915833Y13714862D01*
X18152054Y13714862D01*
X18201639Y13594857D01*
X18293374Y13502962D01*
X18413292Y13453167D01*
X18543138Y13453054D01*
X18663143Y13502639D01*
X18755038Y13594374D01*
X18804833Y13714292D01*
X18804946Y13844138D01*
X18755361Y13964143D01*
X18663626Y14056038D01*
X18543708Y14105833D01*
X18413862Y14105946D01*
X18293857Y14056361D01*
X18201962Y13964626D01*
X18152167Y13844708D01*
X18152054Y13714862D01*
X17915833Y13714862D01*
X17915946Y13844138D01*
X17866361Y13964143D01*
X17774626Y14056038D01*
X17654708Y14105833D01*
X17524862Y14105946D01*
X17404857Y14056361D01*
X17312962Y13964626D01*
X17263167Y13844708D01*
X17263054Y13714862D01*
X17026833Y13714862D01*
X17026946Y13844138D01*
X16977361Y13964143D01*
X16885626Y14056038D01*
X16765708Y14105833D01*
X16635862Y14105946D01*
X16515857Y14056361D01*
X16423962Y13964626D01*
X16374167Y13844708D01*
X16374054Y13714862D01*
X16137833Y13714862D01*
X16137946Y13844138D01*
X16088361Y13964143D01*
X15996626Y14056038D01*
X15876708Y14105833D01*
X15746862Y14105946D01*
X15626857Y14056361D01*
X15534962Y13964626D01*
X15485167Y13844708D01*
X15485054Y13714862D01*
X15248833Y13714862D01*
X15248946Y13844138D01*
X15199361Y13964143D01*
X15107626Y14056038D01*
X14987708Y14105833D01*
X14857862Y14105946D01*
X14737857Y14056361D01*
X14645962Y13964626D01*
X14596167Y13844708D01*
X14596054Y13714862D01*
X14359833Y13714862D01*
X14359946Y13844138D01*
X14310361Y13964143D01*
X14218626Y14056038D01*
X14098708Y14105833D01*
X13968862Y14105946D01*
X13848857Y14056361D01*
X13756962Y13964626D01*
X13707167Y13844708D01*
X13707054Y13714862D01*
X13470833Y13714862D01*
X13470946Y13844138D01*
X13421361Y13964143D01*
X13329626Y14056038D01*
X13209708Y14105833D01*
X13079862Y14105946D01*
X12959857Y14056361D01*
X12867962Y13964626D01*
X12818167Y13844708D01*
X12818054Y13714862D01*
X12581833Y13714862D01*
X12581946Y13844138D01*
X12532361Y13964143D01*
X12440626Y14056038D01*
X12320708Y14105833D01*
X12190862Y14105946D01*
X12070857Y14056361D01*
X11978962Y13964626D01*
X11929167Y13844708D01*
X11929054Y13714862D01*
X11692833Y13714862D01*
X11692946Y13844138D01*
X11643361Y13964143D01*
X11551626Y14056038D01*
X11431708Y14105833D01*
X11301862Y14105946D01*
X11181857Y14056361D01*
X11089962Y13964626D01*
X11040167Y13844708D01*
X11040054Y13714862D01*
X10803833Y13714862D01*
X10803946Y13844138D01*
X10754361Y13964143D01*
X10662626Y14056038D01*
X10542708Y14105833D01*
X10412862Y14105946D01*
X10292857Y14056361D01*
X10200962Y13964626D01*
X10151167Y13844708D01*
X10151054Y13714862D01*
X9914833Y13714862D01*
X9914946Y13844138D01*
X9865361Y13964143D01*
X9773626Y14056038D01*
X9653708Y14105833D01*
X9523862Y14105946D01*
X9403857Y14056361D01*
X9311962Y13964626D01*
X9262167Y13844708D01*
X9262054Y13714862D01*
X9025833Y13714862D01*
X9025946Y13844138D01*
X8976361Y13964143D01*
X8884626Y14056038D01*
X8764708Y14105833D01*
X8634862Y14105946D01*
X8514857Y14056361D01*
X8422962Y13964626D01*
X8373167Y13844708D01*
X8373054Y13714862D01*
X8356600Y13714862D01*
X8356600Y14147800D01*
X18910300Y14147800D01*
X18910300Y76200D01*
X76200Y76200D01*
X76200Y14147800D01*
X3975100Y14147800D01*
X3975100Y13449300D01*
X5778500Y10198100D02*
X7937500Y10198100D01*
X5778500Y10096500D02*
X7937500Y10096500D01*
X5778500Y9994900D02*
X7937500Y9994900D01*
X5778500Y9893300D02*
X7937500Y9893300D01*
X5778500Y9791700D02*
X7937500Y9791700D01*
X5778500Y9690100D02*
X7937500Y9690100D01*
X5778500Y9588500D02*
X7937500Y9588500D01*
X5778500Y9486900D02*
X7937500Y9486900D01*
X5778500Y9385300D02*
X7937500Y9385300D01*
X5778500Y9283700D02*
X7937500Y9283700D01*
X5778500Y9182100D02*
X7937500Y9182100D01*
X5778500Y9080500D02*
X7937500Y9080500D01*
X5778500Y8978900D02*
X7937500Y8978900D01*
X5778500Y8877300D02*
X7937500Y8877300D01*
X5778500Y8775700D02*
X7937500Y8775700D01*
X5778500Y8674100D02*
X7937500Y8674100D01*
X5778500Y8572500D02*
X7937500Y8572500D01*
X5778500Y8470900D02*
X7937500Y8470900D01*
X5778500Y8369300D02*
X7937500Y8369300D01*
X5778500Y8267700D02*
X7937500Y8267700D01*
X5778500Y8166100D02*
X7937500Y8166100D01*
X5778500Y8064500D02*
X7937500Y8064500D01*
X5778500Y7962900D02*
X7937500Y7962900D01*
X5778500Y7861300D02*
X7937500Y7861300D01*
X5778500Y7759700D02*
X7937500Y7759700D01*
X5778500Y7658100D02*
X7937500Y7658100D01*
X5778500Y7556500D02*
X7937500Y7556500D01*
X5778500Y7454900D02*
X7937500Y7454900D01*
X5778500Y7353300D02*
X7937500Y7353300D01*
X5778500Y7251700D02*
X7937500Y7251700D01*
X5778500Y7150100D02*
X7937500Y7150100D01*
X5778500Y7048500D02*
X7937500Y7048500D01*
X5778500Y6946900D02*
X7937500Y6946900D01*
X5778500Y6845300D02*
X7937500Y6845300D01*
X5778500Y6743700D02*
X7937500Y6743700D01*
X5778500Y6642100D02*
X7937500Y6642100D01*
X5778500Y6540500D02*
X7937500Y6540500D01*
X5778500Y6438900D02*
X7937500Y6438900D01*
X5778500Y6337300D02*
X7937500Y6337300D01*
X5778500Y6235700D02*
X7937500Y6235700D01*
X5778500Y6134100D02*
X7937500Y6134100D01*
X5778500Y6032500D02*
X7937500Y6032500D01*
X5778500Y5930900D02*
X7937500Y5930900D01*
X5778500Y5829300D02*
X7937500Y5829300D01*
X5778500Y5727700D02*
X7937500Y5727700D01*
X5778500Y5626100D02*
X7937500Y5626100D01*
X5778500Y5524500D02*
X7937500Y5524500D01*
X5778500Y5422900D02*
X7937500Y5422900D01*
X5778500Y5321300D02*
X7937500Y5321300D01*
X5778500Y5219700D02*
X7937500Y5219700D01*
X5778500Y5118100D02*
X7937500Y5118100D01*
X5778500Y5016500D02*
X7937500Y5016500D01*
X5778500Y4914900D02*
X7937500Y4914900D01*
X5778500Y4813300D02*
X7937500Y4813300D01*
X5778500Y4711700D02*
X7937500Y4711700D01*
X5778500Y4610100D02*
X7937500Y4610100D01*
X5778500Y4508500D02*
X7937500Y4508500D01*
X5778500Y4406900D02*
X7937500Y4406900D01*
X5778500Y4305300D02*
X7937500Y4305300D01*
X5778500Y4203700D02*
X7937500Y4203700D01*
X5778500Y4102100D02*
X7937500Y4102100D01*
X5778500Y4000500D02*
X7937500Y4000500D01*
X5778500Y3898900D02*
X7937500Y3898900D01*
X5778500Y3797300D02*
X7937500Y3797300D01*
X5778500Y3695700D02*
X7937500Y3695700D01*
X5778500Y3594100D02*
X7937500Y3594100D01*
X5778500Y3492500D02*
X7937500Y3492500D01*
X5778500Y3390900D02*
X7937500Y3390900D01*
X5778500Y3289300D02*
X7937500Y3289300D01*
X5778500Y3187700D02*
X7937500Y3187700D01*
X5778500Y3086100D02*
X7937500Y3086100D01*
X5778500Y2984500D02*
X7937500Y2984500D01*
X5778500Y2882900D02*
X7937500Y2882900D01*
X5778500Y2781300D02*
X7937500Y2781300D01*
X5778500Y2679700D02*
X7937500Y2679700D01*
X5778500Y2578100D02*
X7937500Y2578100D01*
X5778500Y2476500D02*
X7937500Y2476500D01*
X5778500Y2374900D02*
X7937500Y2374900D01*
X5778500Y2273300D02*
X7937500Y2273300D01*
X5778500Y2171700D02*
X7937500Y2171700D01*
X5778500Y2070100D02*
X7937500Y2070100D01*
X5778500Y1968500D02*
X7937500Y1968500D01*
X5778500Y1866900D02*
X7937500Y1866900D01*
X5778500Y1765300D02*
X7937500Y1765300D01*
X5778500Y1663700D02*
X7937500Y1663700D01*
X5778500Y1562100D02*
X7937500Y1562100D01*
X5778500Y1460500D02*
X7937500Y1460500D01*
X5778500Y1358900D02*
X7937500Y1358900D01*
X5778500Y1257300D02*
X7937500Y1257300D01*
X5778500Y1155700D02*
X7937500Y1155700D01*
X5778500Y1054100D02*
X7937500Y1054100D01*
X5778500Y952500D02*
X7937500Y952500D01*
X5778500Y850900D02*
X7937500Y850900D01*
X5778500Y749300D02*
X7937500Y749300D01*
X5778500Y647700D02*
X7937500Y647700D01*
X7937500Y546100D02*
X5778500Y546100D01*
X5778500Y10198100D01*
X7937500Y10198100D01*
X7937500Y546100D01*
M02*
