%TF.GenerationSoftware,KiCad,Pcbnew,4.0.5*%
%TF.CreationDate,2017-03-15T23:01:03-07:00*%
%TF.ProjectId,millfa,6D696C6C66612E6B696361645F706362,rev?*%
%TF.FileFunction,Other,User*%
%FSLAX46Y46*%
G04 Gerber Fmt 4.6, Leading zero omitted, Abs format (unit mm)*
G04 Created by KiCad (PCBNEW 4.0.5) date 03/15/17 23:01:03*
%MOMM*%
%LPD*%
G01*
G04 APERTURE LIST*
%ADD10C,0.025400*%
%ADD11C,0.150000*%
%ADD12C,0.300000*%
%ADD13C,0.400000*%
%ADD14C,0.200000*%
G04 APERTURE END LIST*
D10*
D11*
X32984200Y-52075500D02*
X32984200Y-84075500D01*
X140984200Y-84075500D01*
X140984200Y-52075500D01*
X32984200Y-52075500D01*
D10*
D11*
X-134018000Y103931700D02*
X-134018000Y-86075500D01*
X142984200Y-86075500D01*
X142984200Y103931700D01*
X-134018000Y103931700D01*
D10*
D11*
X-132018000Y101931700D02*
X-132018000Y-84075500D01*
X140984200Y-84075500D01*
X140984200Y101931700D01*
X-132018000Y101931700D01*
D10*
D11*
X-84018000Y101931700D02*
X-84018000Y103931700D01*
D10*
D11*
X-34018000Y101931700D02*
X-34018000Y103931700D01*
D10*
D11*
X15982000Y101931700D02*
X15982000Y103931700D01*
D10*
D11*
X65982000Y101931700D02*
X65982000Y103931700D01*
D10*
D11*
X115982000Y101931700D02*
X115982000Y103931700D01*
D10*
D11*
X-108027524Y102343605D02*
X-108770381Y102343605D01*
X-108398952Y102343605D02*
X-108398952Y103643605D01*
X-108522762Y103457890D01*
X-108646571Y103334081D01*
X-108770381Y103272176D01*
D10*
D11*
X-58770381Y103519795D02*
X-58708476Y103581700D01*
X-58584667Y103643605D01*
X-58275143Y103643605D01*
X-58151333Y103581700D01*
X-58089429Y103519795D01*
X-58027524Y103395986D01*
X-58027524Y103272176D01*
X-58089429Y103086462D01*
X-58832286Y102343605D01*
X-58027524Y102343605D01*
D10*
D11*
X-8832286Y103643605D02*
X-8027524Y103643605D01*
X-8460857Y103148367D01*
X-8275143Y103148367D01*
X-8151333Y103086462D01*
X-8089429Y103024557D01*
X-8027524Y102900748D01*
X-8027524Y102591224D01*
X-8089429Y102467414D01*
X-8151333Y102405510D01*
X-8275143Y102343605D01*
X-8646571Y102343605D01*
X-8770381Y102405510D01*
X-8832286Y102467414D01*
D10*
D11*
X41848667Y103210271D02*
X41848667Y102343605D01*
X41539143Y103705510D02*
X41229619Y102776938D01*
X42034381Y102776938D01*
D10*
D11*
X91910571Y103643605D02*
X91291524Y103643605D01*
X91229619Y103024557D01*
X91291524Y103086462D01*
X91415333Y103148367D01*
X91724857Y103148367D01*
X91848667Y103086462D01*
X91910571Y103024557D01*
X91972476Y102900748D01*
X91972476Y102591224D01*
X91910571Y102467414D01*
X91848667Y102405510D01*
X91724857Y102343605D01*
X91415333Y102343605D01*
X91291524Y102405510D01*
X91229619Y102467414D01*
D10*
D11*
X141848667Y103643605D02*
X141601048Y103643605D01*
X141477238Y103581700D01*
X141415333Y103519795D01*
X141291524Y103334081D01*
X141229619Y103086462D01*
X141229619Y102591224D01*
X141291524Y102467414D01*
X141353429Y102405510D01*
X141477238Y102343605D01*
X141724857Y102343605D01*
X141848667Y102405510D01*
X141910571Y102467414D01*
X141972476Y102591224D01*
X141972476Y102900748D01*
X141910571Y103024557D01*
X141848667Y103086462D01*
X141724857Y103148367D01*
X141477238Y103148367D01*
X141353429Y103086462D01*
X141291524Y103024557D01*
X141229619Y102900748D01*
D10*
D11*
X-84018000Y-84075500D02*
X-84018000Y-86075500D01*
D10*
D11*
X-34018000Y-84075500D02*
X-34018000Y-86075500D01*
D10*
D11*
X15982000Y-84075500D02*
X15982000Y-86075500D01*
D10*
D11*
X65982000Y-84075500D02*
X65982000Y-86075500D01*
D10*
D11*
X115982000Y-84075500D02*
X115982000Y-86075500D01*
D10*
D11*
X-108027524Y-85663595D02*
X-108770381Y-85663595D01*
X-108398952Y-85663595D02*
X-108398952Y-84363595D01*
X-108522762Y-84549310D01*
X-108646571Y-84673119D01*
X-108770381Y-84735024D01*
D10*
D11*
X-58770381Y-84487405D02*
X-58708476Y-84425500D01*
X-58584667Y-84363595D01*
X-58275143Y-84363595D01*
X-58151333Y-84425500D01*
X-58089429Y-84487405D01*
X-58027524Y-84611214D01*
X-58027524Y-84735024D01*
X-58089429Y-84920738D01*
X-58832286Y-85663595D01*
X-58027524Y-85663595D01*
D10*
D11*
X-8832286Y-84363595D02*
X-8027524Y-84363595D01*
X-8460857Y-84858833D01*
X-8275143Y-84858833D01*
X-8151333Y-84920738D01*
X-8089429Y-84982643D01*
X-8027524Y-85106452D01*
X-8027524Y-85415976D01*
X-8089429Y-85539786D01*
X-8151333Y-85601690D01*
X-8275143Y-85663595D01*
X-8646571Y-85663595D01*
X-8770381Y-85601690D01*
X-8832286Y-85539786D01*
D10*
D11*
X41848667Y-84796929D02*
X41848667Y-85663595D01*
X41539143Y-84301690D02*
X41229619Y-85230262D01*
X42034381Y-85230262D01*
D10*
D11*
X91910571Y-84363595D02*
X91291524Y-84363595D01*
X91229619Y-84982643D01*
X91291524Y-84920738D01*
X91415333Y-84858833D01*
X91724857Y-84858833D01*
X91848667Y-84920738D01*
X91910571Y-84982643D01*
X91972476Y-85106452D01*
X91972476Y-85415976D01*
X91910571Y-85539786D01*
X91848667Y-85601690D01*
X91724857Y-85663595D01*
X91415333Y-85663595D01*
X91291524Y-85601690D01*
X91229619Y-85539786D01*
D10*
D11*
X141848667Y-84363595D02*
X141601048Y-84363595D01*
X141477238Y-84425500D01*
X141415333Y-84487405D01*
X141291524Y-84673119D01*
X141229619Y-84920738D01*
X141229619Y-85415976D01*
X141291524Y-85539786D01*
X141353429Y-85601690D01*
X141477238Y-85663595D01*
X141724857Y-85663595D01*
X141848667Y-85601690D01*
X141910571Y-85539786D01*
X141972476Y-85415976D01*
X141972476Y-85106452D01*
X141910571Y-84982643D01*
X141848667Y-84920738D01*
X141724857Y-84858833D01*
X141477238Y-84858833D01*
X141353429Y-84920738D01*
X141291524Y-84982643D01*
X141229619Y-85106452D01*
D10*
D11*
X-134018000Y53931700D02*
X-132018000Y53931700D01*
D10*
D11*
X-134018000Y3931700D02*
X-132018000Y3931700D01*
D10*
D11*
X-134018000Y-46068300D02*
X-132018000Y-46068300D01*
D10*
D11*
X-133327524Y78715033D02*
X-132708476Y78715033D01*
X-133451333Y78343605D02*
X-133018000Y79643605D01*
X-132584667Y78343605D01*
D10*
D11*
X-132925143Y29024557D02*
X-132739429Y28962652D01*
X-132677524Y28900748D01*
X-132615619Y28776938D01*
X-132615619Y28591224D01*
X-132677524Y28467414D01*
X-132739429Y28405510D01*
X-132863238Y28343605D01*
X-133358476Y28343605D01*
X-133358476Y29643605D01*
X-132925143Y29643605D01*
X-132801333Y29581700D01*
X-132739429Y29519795D01*
X-132677524Y29395986D01*
X-132677524Y29272176D01*
X-132739429Y29148367D01*
X-132801333Y29086462D01*
X-132925143Y29024557D01*
X-133358476Y29024557D01*
D10*
D11*
X-132615619Y-21532586D02*
X-132677524Y-21594490D01*
X-132863238Y-21656395D01*
X-132987048Y-21656395D01*
X-133172762Y-21594490D01*
X-133296571Y-21470681D01*
X-133358476Y-21346871D01*
X-133420381Y-21099252D01*
X-133420381Y-20913538D01*
X-133358476Y-20665919D01*
X-133296571Y-20542110D01*
X-133172762Y-20418300D01*
X-132987048Y-20356395D01*
X-132863238Y-20356395D01*
X-132677524Y-20418300D01*
X-132615619Y-20480205D01*
D10*
D11*
X-133358476Y-71656395D02*
X-133358476Y-70356395D01*
X-133048952Y-70356395D01*
X-132863238Y-70418300D01*
X-132739429Y-70542110D01*
X-132677524Y-70665919D01*
X-132615619Y-70913538D01*
X-132615619Y-71099252D01*
X-132677524Y-71346871D01*
X-132739429Y-71470681D01*
X-132863238Y-71594490D01*
X-133048952Y-71656395D01*
X-133358476Y-71656395D01*
D10*
D11*
X142984200Y53931700D02*
X140984200Y53931700D01*
D10*
D11*
X142984200Y3931700D02*
X140984200Y3931700D01*
D10*
D11*
X142984200Y-46068300D02*
X140984200Y-46068300D01*
D10*
D11*
X141674676Y78715033D02*
X142293724Y78715033D01*
X141550867Y78343605D02*
X141984200Y79643605D01*
X142417533Y78343605D01*
D10*
D11*
X142077057Y29024557D02*
X142262771Y28962652D01*
X142324676Y28900748D01*
X142386581Y28776938D01*
X142386581Y28591224D01*
X142324676Y28467414D01*
X142262771Y28405510D01*
X142138962Y28343605D01*
X141643724Y28343605D01*
X141643724Y29643605D01*
X142077057Y29643605D01*
X142200867Y29581700D01*
X142262771Y29519795D01*
X142324676Y29395986D01*
X142324676Y29272176D01*
X142262771Y29148367D01*
X142200867Y29086462D01*
X142077057Y29024557D01*
X141643724Y29024557D01*
D10*
D11*
X142386581Y-21532586D02*
X142324676Y-21594490D01*
X142138962Y-21656395D01*
X142015152Y-21656395D01*
X141829438Y-21594490D01*
X141705629Y-21470681D01*
X141643724Y-21346871D01*
X141581819Y-21099252D01*
X141581819Y-20913538D01*
X141643724Y-20665919D01*
X141705629Y-20542110D01*
X141829438Y-20418300D01*
X142015152Y-20356395D01*
X142138962Y-20356395D01*
X142324676Y-20418300D01*
X142386581Y-20480205D01*
D10*
D11*
X141643724Y-71656395D02*
X141643724Y-70356395D01*
X141953248Y-70356395D01*
X142138962Y-70418300D01*
X142262771Y-70542110D01*
X142324676Y-70665919D01*
X142386581Y-70913538D01*
X142386581Y-71099252D01*
X142324676Y-71346871D01*
X142262771Y-71470681D01*
X142138962Y-71594490D01*
X141953248Y-71656395D01*
X141643724Y-71656395D01*
D10*
D11*
X56341343Y-79854071D02*
X56341343Y-78354071D01*
X56698486Y-78354071D01*
X56912771Y-78425500D01*
X57055629Y-78568357D01*
X57127057Y-78711214D01*
X57198486Y-78996929D01*
X57198486Y-79211214D01*
X57127057Y-79496929D01*
X57055629Y-79639786D01*
X56912771Y-79782643D01*
X56698486Y-79854071D01*
X56341343Y-79854071D01*
X58484200Y-79854071D02*
X58484200Y-79068357D01*
X58412771Y-78925500D01*
X58269914Y-78854071D01*
X57984200Y-78854071D01*
X57841343Y-78925500D01*
X58484200Y-79782643D02*
X58341343Y-79854071D01*
X57984200Y-79854071D01*
X57841343Y-79782643D01*
X57769914Y-79639786D01*
X57769914Y-79496929D01*
X57841343Y-79354071D01*
X57984200Y-79282643D01*
X58341343Y-79282643D01*
X58484200Y-79211214D01*
X58984200Y-78854071D02*
X59555629Y-78854071D01*
X59198486Y-78354071D02*
X59198486Y-79639786D01*
X59269914Y-79782643D01*
X59412772Y-79854071D01*
X59555629Y-79854071D01*
X60627057Y-79782643D02*
X60484200Y-79854071D01*
X60198486Y-79854071D01*
X60055629Y-79782643D01*
X59984200Y-79639786D01*
X59984200Y-79068357D01*
X60055629Y-78925500D01*
X60198486Y-78854071D01*
X60484200Y-78854071D01*
X60627057Y-78925500D01*
X60698486Y-79068357D01*
X60698486Y-79211214D01*
X59984200Y-79354071D01*
X61341343Y-79711214D02*
X61412771Y-79782643D01*
X61341343Y-79854071D01*
X61269914Y-79782643D01*
X61341343Y-79711214D01*
X61341343Y-79854071D01*
X61341343Y-78925500D02*
X61412771Y-78996929D01*
X61341343Y-79068357D01*
X61269914Y-78996929D01*
X61341343Y-78925500D01*
X61341343Y-79068357D01*
D10*
D11*
X32984200Y-80575500D02*
X140984200Y-80575500D01*
D10*
D11*
X34341343Y-82654071D02*
X34341343Y-81154071D01*
X35198486Y-82654071D02*
X34555629Y-81796929D01*
X35198486Y-81154071D02*
X34341343Y-82011214D01*
X35841343Y-82654071D02*
X35841343Y-81654071D01*
X35841343Y-81154071D02*
X35769914Y-81225500D01*
X35841343Y-81296929D01*
X35912771Y-81225500D01*
X35841343Y-81154071D01*
X35841343Y-81296929D01*
X37412772Y-82511214D02*
X37341343Y-82582643D01*
X37127057Y-82654071D01*
X36984200Y-82654071D01*
X36769915Y-82582643D01*
X36627057Y-82439786D01*
X36555629Y-82296929D01*
X36484200Y-82011214D01*
X36484200Y-81796929D01*
X36555629Y-81511214D01*
X36627057Y-81368357D01*
X36769915Y-81225500D01*
X36984200Y-81154071D01*
X37127057Y-81154071D01*
X37341343Y-81225500D01*
X37412772Y-81296929D01*
X38698486Y-82654071D02*
X38698486Y-81868357D01*
X38627057Y-81725500D01*
X38484200Y-81654071D01*
X38198486Y-81654071D01*
X38055629Y-81725500D01*
X38698486Y-82582643D02*
X38555629Y-82654071D01*
X38198486Y-82654071D01*
X38055629Y-82582643D01*
X37984200Y-82439786D01*
X37984200Y-82296929D01*
X38055629Y-82154071D01*
X38198486Y-82082643D01*
X38555629Y-82082643D01*
X38698486Y-82011214D01*
X40055629Y-82654071D02*
X40055629Y-81154071D01*
X40055629Y-82582643D02*
X39912772Y-82654071D01*
X39627058Y-82654071D01*
X39484200Y-82582643D01*
X39412772Y-82511214D01*
X39341343Y-82368357D01*
X39341343Y-81939786D01*
X39412772Y-81796929D01*
X39484200Y-81725500D01*
X39627058Y-81654071D01*
X39912772Y-81654071D01*
X40055629Y-81725500D01*
X41912772Y-81868357D02*
X42412772Y-81868357D01*
X42627058Y-82654071D02*
X41912772Y-82654071D01*
X41912772Y-81154071D01*
X42627058Y-81154071D01*
X43269915Y-82511214D02*
X43341343Y-82582643D01*
X43269915Y-82654071D01*
X43198486Y-82582643D01*
X43269915Y-82511214D01*
X43269915Y-82654071D01*
X43984201Y-82654071D02*
X43984201Y-81154071D01*
X44341344Y-81154071D01*
X44555629Y-81225500D01*
X44698487Y-81368357D01*
X44769915Y-81511214D01*
X44841344Y-81796929D01*
X44841344Y-82011214D01*
X44769915Y-82296929D01*
X44698487Y-82439786D01*
X44555629Y-82582643D01*
X44341344Y-82654071D01*
X43984201Y-82654071D01*
X45484201Y-82511214D02*
X45555629Y-82582643D01*
X45484201Y-82654071D01*
X45412772Y-82582643D01*
X45484201Y-82511214D01*
X45484201Y-82654071D01*
X46127058Y-82225500D02*
X46841344Y-82225500D01*
X45984201Y-82654071D02*
X46484201Y-81154071D01*
X46984201Y-82654071D01*
X47484201Y-82511214D02*
X47555629Y-82582643D01*
X47484201Y-82654071D01*
X47412772Y-82582643D01*
X47484201Y-82511214D01*
X47484201Y-82654071D01*
X50484201Y-81654071D02*
X50484201Y-83154071D01*
X50484201Y-81725500D02*
X50627058Y-81654071D01*
X50912772Y-81654071D01*
X51055629Y-81725500D01*
X51127058Y-81796929D01*
X51198487Y-81939786D01*
X51198487Y-82368357D01*
X51127058Y-82511214D01*
X51055629Y-82582643D01*
X50912772Y-82654071D01*
X50627058Y-82654071D01*
X50484201Y-82582643D01*
X52484201Y-82582643D02*
X52341344Y-82654071D01*
X52055630Y-82654071D01*
X51912772Y-82582643D01*
X51841344Y-82511214D01*
X51769915Y-82368357D01*
X51769915Y-81939786D01*
X51841344Y-81796929D01*
X51912772Y-81725500D01*
X52055630Y-81654071D01*
X52341344Y-81654071D01*
X52484201Y-81725500D01*
X53127058Y-82654071D02*
X53127058Y-81154071D01*
X53127058Y-81725500D02*
X53269915Y-81654071D01*
X53555629Y-81654071D01*
X53698486Y-81725500D01*
X53769915Y-81796929D01*
X53841344Y-81939786D01*
X53841344Y-82368357D01*
X53769915Y-82511214D01*
X53698486Y-82582643D01*
X53555629Y-82654071D01*
X53269915Y-82654071D01*
X53127058Y-82582643D01*
X54484201Y-81654071D02*
X54484201Y-82654071D01*
X54484201Y-81796929D02*
X54555629Y-81725500D01*
X54698487Y-81654071D01*
X54912772Y-81654071D01*
X55055629Y-81725500D01*
X55127058Y-81868357D01*
X55127058Y-82654071D01*
X56412772Y-82582643D02*
X56269915Y-82654071D01*
X55984201Y-82654071D01*
X55841344Y-82582643D01*
X55769915Y-82439786D01*
X55769915Y-81868357D01*
X55841344Y-81725500D01*
X55984201Y-81654071D01*
X56269915Y-81654071D01*
X56412772Y-81725500D01*
X56484201Y-81868357D01*
X56484201Y-82011214D01*
X55769915Y-82154071D01*
X56984201Y-81654071D02*
X57269915Y-82654071D01*
X57555629Y-81939786D01*
X57841344Y-82654071D01*
X58127058Y-81654071D01*
X60484201Y-81654071D02*
X60484201Y-82654071D01*
X60127058Y-81082643D02*
X59769915Y-82154071D01*
X60698487Y-82154071D01*
X61269915Y-82511214D02*
X61341343Y-82582643D01*
X61269915Y-82654071D01*
X61198486Y-82582643D01*
X61269915Y-82511214D01*
X61269915Y-82654071D01*
X62269915Y-81154071D02*
X62412772Y-81154071D01*
X62555629Y-81225500D01*
X62627058Y-81296929D01*
X62698487Y-81439786D01*
X62769915Y-81725500D01*
X62769915Y-82082643D01*
X62698487Y-82368357D01*
X62627058Y-82511214D01*
X62555629Y-82582643D01*
X62412772Y-82654071D01*
X62269915Y-82654071D01*
X62127058Y-82582643D01*
X62055629Y-82511214D01*
X61984201Y-82368357D01*
X61912772Y-82082643D01*
X61912772Y-81725500D01*
X61984201Y-81439786D01*
X62055629Y-81296929D01*
X62127058Y-81225500D01*
X62269915Y-81154071D01*
X63412772Y-82511214D02*
X63484200Y-82582643D01*
X63412772Y-82654071D01*
X63341343Y-82582643D01*
X63412772Y-82511214D01*
X63412772Y-82654071D01*
X64841344Y-81154071D02*
X64127058Y-81154071D01*
X64055629Y-81868357D01*
X64127058Y-81796929D01*
X64269915Y-81725500D01*
X64627058Y-81725500D01*
X64769915Y-81796929D01*
X64841344Y-81868357D01*
X64912772Y-82011214D01*
X64912772Y-82368357D01*
X64841344Y-82511214D01*
X64769915Y-82582643D01*
X64627058Y-82654071D01*
X64269915Y-82654071D01*
X64127058Y-82582643D01*
X64055629Y-82511214D01*
D10*
D11*
X32984200Y-77575500D02*
X140984200Y-77575500D01*
D10*
D12*
X120198486Y-79854071D02*
X119698486Y-79139786D01*
X119341343Y-79854071D02*
X119341343Y-78354071D01*
X119912771Y-78354071D01*
X120055629Y-78425500D01*
X120127057Y-78496929D01*
X120198486Y-78639786D01*
X120198486Y-78854071D01*
X120127057Y-78996929D01*
X120055629Y-79068357D01*
X119912771Y-79139786D01*
X119341343Y-79139786D01*
X121412771Y-79782643D02*
X121269914Y-79854071D01*
X120984200Y-79854071D01*
X120841343Y-79782643D01*
X120769914Y-79639786D01*
X120769914Y-79068357D01*
X120841343Y-78925500D01*
X120984200Y-78854071D01*
X121269914Y-78854071D01*
X121412771Y-78925500D01*
X121484200Y-79068357D01*
X121484200Y-79211214D01*
X120769914Y-79354071D01*
X121984200Y-78854071D02*
X122341343Y-79854071D01*
X122698485Y-78854071D01*
X123269914Y-79711214D02*
X123341342Y-79782643D01*
X123269914Y-79854071D01*
X123198485Y-79782643D01*
X123269914Y-79711214D01*
X123269914Y-79854071D01*
X123269914Y-78925500D02*
X123341342Y-78996929D01*
X123269914Y-79068357D01*
X123198485Y-78996929D01*
X123269914Y-78925500D01*
X123269914Y-79068357D01*
D10*
D11*
X34269914Y-79782643D02*
X34484200Y-79854071D01*
X34841343Y-79854071D01*
X34984200Y-79782643D01*
X35055629Y-79711214D01*
X35127057Y-79568357D01*
X35127057Y-79425500D01*
X35055629Y-79282643D01*
X34984200Y-79211214D01*
X34841343Y-79139786D01*
X34555629Y-79068357D01*
X34412771Y-78996929D01*
X34341343Y-78925500D01*
X34269914Y-78782643D01*
X34269914Y-78639786D01*
X34341343Y-78496929D01*
X34412771Y-78425500D01*
X34555629Y-78354071D01*
X34912771Y-78354071D01*
X35127057Y-78425500D01*
X35769914Y-79854071D02*
X35769914Y-78854071D01*
X35769914Y-78354071D02*
X35698485Y-78425500D01*
X35769914Y-78496929D01*
X35841342Y-78425500D01*
X35769914Y-78354071D01*
X35769914Y-78496929D01*
X36341343Y-78854071D02*
X37127057Y-78854071D01*
X36341343Y-79854071D01*
X37127057Y-79854071D01*
X38269914Y-79782643D02*
X38127057Y-79854071D01*
X37841343Y-79854071D01*
X37698486Y-79782643D01*
X37627057Y-79639786D01*
X37627057Y-79068357D01*
X37698486Y-78925500D01*
X37841343Y-78854071D01*
X38127057Y-78854071D01*
X38269914Y-78925500D01*
X38341343Y-79068357D01*
X38341343Y-79211214D01*
X37627057Y-79354071D01*
X38984200Y-79711214D02*
X39055628Y-79782643D01*
X38984200Y-79854071D01*
X38912771Y-79782643D01*
X38984200Y-79711214D01*
X38984200Y-79854071D01*
X38984200Y-78925500D02*
X39055628Y-78996929D01*
X38984200Y-79068357D01*
X38912771Y-78996929D01*
X38984200Y-78925500D01*
X38984200Y-79068357D01*
X40769914Y-79425500D02*
X41484200Y-79425500D01*
X40627057Y-79854071D02*
X41127057Y-78354071D01*
X41627057Y-79854071D01*
X42769914Y-78854071D02*
X42769914Y-79854071D01*
X42412771Y-78282643D02*
X42055628Y-79354071D01*
X42984200Y-79354071D01*
D10*
D11*
X119341343Y-82654071D02*
X119341343Y-81154071D01*
X120698486Y-82654071D02*
X120698486Y-81154071D01*
X120698486Y-82582643D02*
X120555629Y-82654071D01*
X120269915Y-82654071D01*
X120127057Y-82582643D01*
X120055629Y-82511214D01*
X119984200Y-82368357D01*
X119984200Y-81939786D01*
X120055629Y-81796929D01*
X120127057Y-81725500D01*
X120269915Y-81654071D01*
X120555629Y-81654071D01*
X120698486Y-81725500D01*
X121412772Y-82511214D02*
X121484200Y-82582643D01*
X121412772Y-82654071D01*
X121341343Y-82582643D01*
X121412772Y-82511214D01*
X121412772Y-82654071D01*
X121412772Y-81725500D02*
X121484200Y-81796929D01*
X121412772Y-81868357D01*
X121341343Y-81796929D01*
X121412772Y-81725500D01*
X121412772Y-81868357D01*
X124055629Y-82654071D02*
X123198486Y-82654071D01*
X123627058Y-82654071D02*
X123627058Y-81154071D01*
X123484201Y-81368357D01*
X123341343Y-81511214D01*
X123198486Y-81582643D01*
X125769914Y-81082643D02*
X124484200Y-83011214D01*
X127055629Y-82654071D02*
X126198486Y-82654071D01*
X126627058Y-82654071D02*
X126627058Y-81154071D01*
X126484201Y-81368357D01*
X126341343Y-81511214D01*
X126198486Y-81582643D01*
D10*
D11*
X32984200Y-73575500D02*
X140984200Y-73575500D01*
D10*
D13*
X34436581Y-74280262D02*
X35579438Y-74280262D01*
X34758010Y-76280262D02*
X35008010Y-74280262D01*
X35996105Y-76280262D02*
X36162771Y-74946929D01*
X36246105Y-74280262D02*
X36138962Y-74375500D01*
X36222295Y-74470738D01*
X36329439Y-74375500D01*
X36246105Y-74280262D01*
X36222295Y-74470738D01*
X36829438Y-74946929D02*
X37591343Y-74946929D01*
X37198486Y-74280262D02*
X36984200Y-75994548D01*
X37055630Y-76185024D01*
X37234201Y-76280262D01*
X37424677Y-76280262D01*
X38377058Y-76280262D02*
X38198487Y-76185024D01*
X38127057Y-75994548D01*
X38341343Y-74280262D01*
X39912772Y-76185024D02*
X39710391Y-76280262D01*
X39329439Y-76280262D01*
X39150867Y-76185024D01*
X39079438Y-75994548D01*
X39174676Y-75232643D01*
X39293724Y-75042167D01*
X39496105Y-74946929D01*
X39877057Y-74946929D01*
X40055629Y-75042167D01*
X40127057Y-75232643D01*
X40103248Y-75423119D01*
X39127057Y-75613595D01*
X40877057Y-76089786D02*
X40960392Y-76185024D01*
X40853248Y-76280262D01*
X40769915Y-76185024D01*
X40877057Y-76089786D01*
X40853248Y-76280262D01*
X41008010Y-75042167D02*
X41091344Y-75137405D01*
X40984200Y-75232643D01*
X40900867Y-75137405D01*
X41008010Y-75042167D01*
X40984200Y-75232643D01*
D10*
D11*
X34841343Y-71668357D02*
X34341343Y-71668357D01*
X34341343Y-72454071D02*
X34341343Y-70954071D01*
X35055629Y-70954071D01*
X35627057Y-72454071D02*
X35627057Y-71454071D01*
X35627057Y-70954071D02*
X35555628Y-71025500D01*
X35627057Y-71096929D01*
X35698485Y-71025500D01*
X35627057Y-70954071D01*
X35627057Y-71096929D01*
X36555629Y-72454071D02*
X36412771Y-72382643D01*
X36341343Y-72239786D01*
X36341343Y-70954071D01*
X37698485Y-72382643D02*
X37555628Y-72454071D01*
X37269914Y-72454071D01*
X37127057Y-72382643D01*
X37055628Y-72239786D01*
X37055628Y-71668357D01*
X37127057Y-71525500D01*
X37269914Y-71454071D01*
X37555628Y-71454071D01*
X37698485Y-71525500D01*
X37769914Y-71668357D01*
X37769914Y-71811214D01*
X37055628Y-71954071D01*
X38412771Y-72311214D02*
X38484199Y-72382643D01*
X38412771Y-72454071D01*
X38341342Y-72382643D01*
X38412771Y-72311214D01*
X38412771Y-72454071D01*
X38412771Y-71525500D02*
X38484199Y-71596929D01*
X38412771Y-71668357D01*
X38341342Y-71596929D01*
X38412771Y-71525500D01*
X38412771Y-71668357D01*
X40269914Y-72454071D02*
X40269914Y-71454071D01*
X40269914Y-71596929D02*
X40341342Y-71525500D01*
X40484200Y-71454071D01*
X40698485Y-71454071D01*
X40841342Y-71525500D01*
X40912771Y-71668357D01*
X40912771Y-72454071D01*
X40912771Y-71668357D02*
X40984200Y-71525500D01*
X41127057Y-71454071D01*
X41341342Y-71454071D01*
X41484200Y-71525500D01*
X41555628Y-71668357D01*
X41555628Y-72454071D01*
X42269914Y-72454071D02*
X42269914Y-71454071D01*
X42269914Y-70954071D02*
X42198485Y-71025500D01*
X42269914Y-71096929D01*
X42341342Y-71025500D01*
X42269914Y-70954071D01*
X42269914Y-71096929D01*
X43198486Y-72454071D02*
X43055628Y-72382643D01*
X42984200Y-72239786D01*
X42984200Y-70954071D01*
X43984200Y-72454071D02*
X43841342Y-72382643D01*
X43769914Y-72239786D01*
X43769914Y-70954071D01*
X44341342Y-71454071D02*
X44912771Y-71454071D01*
X44555628Y-72454071D02*
X44555628Y-71168357D01*
X44627056Y-71025500D01*
X44769914Y-70954071D01*
X44912771Y-70954071D01*
X46055628Y-72454071D02*
X46055628Y-71668357D01*
X45984199Y-71525500D01*
X45841342Y-71454071D01*
X45555628Y-71454071D01*
X45412771Y-71525500D01*
X46055628Y-72382643D02*
X45912771Y-72454071D01*
X45555628Y-72454071D01*
X45412771Y-72382643D01*
X45341342Y-72239786D01*
X45341342Y-72096929D01*
X45412771Y-71954071D01*
X45555628Y-71882643D01*
X45912771Y-71882643D01*
X46055628Y-71811214D01*
X46769914Y-72311214D02*
X46841342Y-72382643D01*
X46769914Y-72454071D01*
X46698485Y-72382643D01*
X46769914Y-72311214D01*
X46769914Y-72454071D01*
X47484200Y-72454071D02*
X47484200Y-70954071D01*
X47627057Y-71882643D02*
X48055628Y-72454071D01*
X48055628Y-71454071D02*
X47484200Y-72025500D01*
X48698486Y-72454071D02*
X48698486Y-71454071D01*
X48698486Y-70954071D02*
X48627057Y-71025500D01*
X48698486Y-71096929D01*
X48769914Y-71025500D01*
X48698486Y-70954071D01*
X48698486Y-71096929D01*
X50055629Y-72382643D02*
X49912772Y-72454071D01*
X49627058Y-72454071D01*
X49484200Y-72382643D01*
X49412772Y-72311214D01*
X49341343Y-72168357D01*
X49341343Y-71739786D01*
X49412772Y-71596929D01*
X49484200Y-71525500D01*
X49627058Y-71454071D01*
X49912772Y-71454071D01*
X50055629Y-71525500D01*
X51341343Y-72454071D02*
X51341343Y-71668357D01*
X51269914Y-71525500D01*
X51127057Y-71454071D01*
X50841343Y-71454071D01*
X50698486Y-71525500D01*
X51341343Y-72382643D02*
X51198486Y-72454071D01*
X50841343Y-72454071D01*
X50698486Y-72382643D01*
X50627057Y-72239786D01*
X50627057Y-72096929D01*
X50698486Y-71954071D01*
X50841343Y-71882643D01*
X51198486Y-71882643D01*
X51341343Y-71811214D01*
X52698486Y-72454071D02*
X52698486Y-70954071D01*
X52698486Y-72382643D02*
X52555629Y-72454071D01*
X52269915Y-72454071D01*
X52127057Y-72382643D01*
X52055629Y-72311214D01*
X51984200Y-72168357D01*
X51984200Y-71739786D01*
X52055629Y-71596929D01*
X52127057Y-71525500D01*
X52269915Y-71454071D01*
X52555629Y-71454071D01*
X52698486Y-71525500D01*
X53055629Y-72596929D02*
X54198486Y-72596929D01*
X54555629Y-71454071D02*
X54555629Y-72954071D01*
X54555629Y-71525500D02*
X54698486Y-71454071D01*
X54984200Y-71454071D01*
X55127057Y-71525500D01*
X55198486Y-71596929D01*
X55269915Y-71739786D01*
X55269915Y-72168357D01*
X55198486Y-72311214D01*
X55127057Y-72382643D01*
X54984200Y-72454071D01*
X54698486Y-72454071D01*
X54555629Y-72382643D01*
X56555629Y-72382643D02*
X56412772Y-72454071D01*
X56127058Y-72454071D01*
X55984200Y-72382643D01*
X55912772Y-72311214D01*
X55841343Y-72168357D01*
X55841343Y-71739786D01*
X55912772Y-71596929D01*
X55984200Y-71525500D01*
X56127058Y-71454071D01*
X56412772Y-71454071D01*
X56555629Y-71525500D01*
X57198486Y-72454071D02*
X57198486Y-70954071D01*
X57198486Y-71525500D02*
X57341343Y-71454071D01*
X57627057Y-71454071D01*
X57769914Y-71525500D01*
X57841343Y-71596929D01*
X57912772Y-71739786D01*
X57912772Y-72168357D01*
X57841343Y-72311214D01*
X57769914Y-72382643D01*
X57627057Y-72454071D01*
X57341343Y-72454071D01*
X57198486Y-72382643D01*
D10*
D11*
X32984200Y-67575500D02*
X140984200Y-67575500D01*
D10*
D11*
X34269914Y-69682643D02*
X34484200Y-69754071D01*
X34841343Y-69754071D01*
X34984200Y-69682643D01*
X35055629Y-69611214D01*
X35127057Y-69468357D01*
X35127057Y-69325500D01*
X35055629Y-69182643D01*
X34984200Y-69111214D01*
X34841343Y-69039786D01*
X34555629Y-68968357D01*
X34412771Y-68896929D01*
X34341343Y-68825500D01*
X34269914Y-68682643D01*
X34269914Y-68539786D01*
X34341343Y-68396929D01*
X34412771Y-68325500D01*
X34555629Y-68254071D01*
X34912771Y-68254071D01*
X35127057Y-68325500D01*
X35769914Y-69754071D02*
X35769914Y-68254071D01*
X36412771Y-69754071D02*
X36412771Y-68968357D01*
X36341342Y-68825500D01*
X36198485Y-68754071D01*
X35984200Y-68754071D01*
X35841342Y-68825500D01*
X35769914Y-68896929D01*
X37698485Y-69682643D02*
X37555628Y-69754071D01*
X37269914Y-69754071D01*
X37127057Y-69682643D01*
X37055628Y-69539786D01*
X37055628Y-68968357D01*
X37127057Y-68825500D01*
X37269914Y-68754071D01*
X37555628Y-68754071D01*
X37698485Y-68825500D01*
X37769914Y-68968357D01*
X37769914Y-69111214D01*
X37055628Y-69254071D01*
X38984199Y-69682643D02*
X38841342Y-69754071D01*
X38555628Y-69754071D01*
X38412771Y-69682643D01*
X38341342Y-69539786D01*
X38341342Y-68968357D01*
X38412771Y-68825500D01*
X38555628Y-68754071D01*
X38841342Y-68754071D01*
X38984199Y-68825500D01*
X39055628Y-68968357D01*
X39055628Y-69111214D01*
X38341342Y-69254071D01*
X39484199Y-68754071D02*
X40055628Y-68754071D01*
X39698485Y-68254071D02*
X39698485Y-69539786D01*
X39769913Y-69682643D01*
X39912771Y-69754071D01*
X40055628Y-69754071D01*
X40555628Y-69611214D02*
X40627056Y-69682643D01*
X40555628Y-69754071D01*
X40484199Y-69682643D01*
X40555628Y-69611214D01*
X40555628Y-69754071D01*
X40555628Y-68825500D02*
X40627056Y-68896929D01*
X40555628Y-68968357D01*
X40484199Y-68896929D01*
X40555628Y-68825500D01*
X40555628Y-68968357D01*
D10*
D11*
X52984200Y-77575500D02*
X52984200Y-80575500D01*
D10*
D11*
X116984200Y-77575500D02*
X116984200Y-84075500D01*
D14*
X18986500Y0D02*
X18986500Y19431000D01*
X12700Y0D02*
X18986500Y0D01*
X0Y6400800D02*
X0Y0D01*
X3810000Y14224000D02*
X3810000Y19431000D01*
X0Y14224000D02*
X3810000Y14224000D01*
X0Y6400800D02*
X0Y14224000D01*
X18973800Y19431000D02*
X18973800Y6400800D01*
X3810000Y19431000D02*
X18973800Y19431000D01*
M02*
