%FSLAX45Y45*%
G04 Gerber Fmt 4.5, Leading zero omitted, Abs format (unit mm)*
G04 Created by KiCad (PCBNEW 4.0.5) date 02/23/17 12:59:38*
%MOMM*%
%LPD*%
G01*
G04 APERTURE LIST*
%ADD10C,0.127000*%
%ADD11C,0.200000*%
%ADD12C,0.300000*%
G04 APERTURE END LIST*
D10*
D11*
X127000Y1739900D02*
X152400Y1714500D01*
X152400Y1739900D02*
X127000Y1714500D01*
X426720Y1739900D02*
X452120Y1714500D01*
X452120Y1739900D02*
X426720Y1714500D01*
X726440Y1739900D02*
X751840Y1714500D01*
X751840Y1739900D02*
X726440Y1714500D01*
X1026160Y1739900D02*
X1051560Y1714500D01*
X1051560Y1739900D02*
X1026160Y1714500D01*
X1325880Y1739900D02*
X1351280Y1714500D01*
X1351280Y1739900D02*
X1325880Y1714500D01*
X1917700Y1739900D02*
X1943100Y1714500D01*
X1943100Y1739900D02*
X1917700Y1714500D01*
X2217420Y1739900D02*
X2242820Y1714500D01*
X2242820Y1739900D02*
X2217420Y1714500D01*
X2517140Y1739900D02*
X2542540Y1714500D01*
X2542540Y1739900D02*
X2517140Y1714500D01*
X2816860Y1739900D02*
X2842260Y1714500D01*
X2842260Y1739900D02*
X2816860Y1714500D01*
X1219490Y704130D02*
G75*
G03X1219490Y704130I-23000J0D01*
G01*
X2095490Y704130D02*
G75*
G03X2095490Y704130I-23000J0D01*
G01*
D12*
X-12578431Y9554586D02*
X-12578431Y9854586D01*
X-12507003Y9854586D01*
X-12464146Y9840300D01*
X-12435574Y9811729D01*
X-12421289Y9783157D01*
X-12407003Y9726014D01*
X-12407003Y9683157D01*
X-12421289Y9626014D01*
X-12435574Y9597443D01*
X-12464146Y9568871D01*
X-12507003Y9554586D01*
X-12578431Y9554586D01*
X-12278431Y9554586D02*
X-12278431Y9754586D01*
X-12278431Y9697443D02*
X-12264146Y9726014D01*
X-12249860Y9740300D01*
X-12221289Y9754586D01*
X-12192717Y9754586D01*
X-12092717Y9554586D02*
X-12092717Y9754586D01*
X-12092717Y9854586D02*
X-12107003Y9840300D01*
X-12092717Y9826014D01*
X-12078431Y9840300D01*
X-12092717Y9854586D01*
X-12092717Y9826014D01*
X-11907003Y9554586D02*
X-11935574Y9568871D01*
X-11949860Y9597443D01*
X-11949860Y9854586D01*
X-11749860Y9554586D02*
X-11778431Y9568871D01*
X-11792717Y9597443D01*
X-11792717Y9854586D01*
X-11407003Y9554586D02*
X-11407003Y9854586D01*
X-11307003Y9640300D01*
X-11207003Y9854586D01*
X-11207003Y9554586D01*
X-10935574Y9554586D02*
X-10935574Y9711729D01*
X-10949860Y9740300D01*
X-10978431Y9754586D01*
X-11035574Y9754586D01*
X-11064146Y9740300D01*
X-10935574Y9568871D02*
X-10964146Y9554586D01*
X-11035574Y9554586D01*
X-11064146Y9568871D01*
X-11078431Y9597443D01*
X-11078431Y9626014D01*
X-11064146Y9654586D01*
X-11035574Y9668871D01*
X-10964146Y9668871D01*
X-10935574Y9683157D01*
X-10792717Y9754586D02*
X-10792717Y9454586D01*
X-10792717Y9740300D02*
X-10764146Y9754586D01*
X-10707003Y9754586D01*
X-10678431Y9740300D01*
X-10664146Y9726014D01*
X-10649860Y9697443D01*
X-10649860Y9611729D01*
X-10664146Y9583157D01*
X-10678431Y9568871D01*
X-10707003Y9554586D01*
X-10764146Y9554586D01*
X-10792717Y9568871D01*
X-10521289Y9583157D02*
X-10507003Y9568871D01*
X-10521289Y9554586D01*
X-10535574Y9568871D01*
X-10521289Y9583157D01*
X-10521289Y9554586D01*
X-10521289Y9740300D02*
X-10507003Y9726014D01*
X-10521289Y9711729D01*
X-10535574Y9726014D01*
X-10521289Y9740300D01*
X-10521289Y9711729D01*
X-12875260Y9073000D02*
X-12849860Y9047600D01*
X-12849860Y9073000D02*
X-12875260Y9047600D01*
X-12521289Y9224586D02*
X-12492717Y9224586D01*
X-12464146Y9210300D01*
X-12449860Y9196014D01*
X-12435574Y9167443D01*
X-12421289Y9110300D01*
X-12421289Y9038871D01*
X-12435574Y8981729D01*
X-12449860Y8953157D01*
X-12464146Y8938871D01*
X-12492717Y8924586D01*
X-12521289Y8924586D01*
X-12549860Y8938871D01*
X-12564146Y8953157D01*
X-12578431Y8981729D01*
X-12592717Y9038871D01*
X-12592717Y9110300D01*
X-12578431Y9167443D01*
X-12564146Y9196014D01*
X-12549860Y9210300D01*
X-12521289Y9224586D01*
X-12292717Y8953157D02*
X-12278431Y8938871D01*
X-12292717Y8924586D01*
X-12307003Y8938871D01*
X-12292717Y8953157D01*
X-12292717Y8924586D01*
X-12164146Y9196014D02*
X-12149860Y9210300D01*
X-12121289Y9224586D01*
X-12049860Y9224586D01*
X-12021289Y9210300D01*
X-12007003Y9196014D01*
X-11992717Y9167443D01*
X-11992717Y9138871D01*
X-12007003Y9096014D01*
X-12178431Y8924586D01*
X-11992717Y8924586D01*
X-11721289Y9224586D02*
X-11864146Y9224586D01*
X-11878431Y9081729D01*
X-11864146Y9096014D01*
X-11835574Y9110300D01*
X-11764146Y9110300D01*
X-11735574Y9096014D01*
X-11721289Y9081729D01*
X-11707003Y9053157D01*
X-11707003Y8981729D01*
X-11721289Y8953157D01*
X-11735574Y8938871D01*
X-11764146Y8924586D01*
X-11835574Y8924586D01*
X-11864146Y8938871D01*
X-11878431Y8953157D01*
X-11578431Y8924586D02*
X-11578431Y9124586D01*
X-11578431Y9096014D02*
X-11564146Y9110300D01*
X-11535574Y9124586D01*
X-11492717Y9124586D01*
X-11464146Y9110300D01*
X-11449860Y9081729D01*
X-11449860Y8924586D01*
X-11449860Y9081729D02*
X-11435574Y9110300D01*
X-11407003Y9124586D01*
X-11364146Y9124586D01*
X-11335574Y9110300D01*
X-11321289Y9081729D01*
X-11321289Y8924586D01*
X-11178431Y8924586D02*
X-11178431Y9124586D01*
X-11178431Y9096014D02*
X-11164146Y9110300D01*
X-11135574Y9124586D01*
X-11092717Y9124586D01*
X-11064146Y9110300D01*
X-11049860Y9081729D01*
X-11049860Y8924586D01*
X-11049860Y9081729D02*
X-11035574Y9110300D01*
X-11007003Y9124586D01*
X-10964146Y9124586D01*
X-10935574Y9110300D01*
X-10921289Y9081729D01*
X-10921289Y8924586D01*
X-10335574Y9238871D02*
X-10592717Y8853157D01*
X-9949860Y9224586D02*
X-9921289Y9224586D01*
X-9892717Y9210300D01*
X-9878432Y9196014D01*
X-9864146Y9167443D01*
X-9849860Y9110300D01*
X-9849860Y9038871D01*
X-9864146Y8981729D01*
X-9878432Y8953157D01*
X-9892717Y8938871D01*
X-9921289Y8924586D01*
X-9949860Y8924586D01*
X-9978432Y8938871D01*
X-9992717Y8953157D01*
X-10007003Y8981729D01*
X-10021289Y9038871D01*
X-10021289Y9110300D01*
X-10007003Y9167443D01*
X-9992717Y9196014D01*
X-9978432Y9210300D01*
X-9949860Y9224586D01*
X-9721289Y8953157D02*
X-9707003Y8938871D01*
X-9721289Y8924586D01*
X-9735574Y8938871D01*
X-9721289Y8953157D01*
X-9721289Y8924586D01*
X-9521289Y9224586D02*
X-9492717Y9224586D01*
X-9464146Y9210300D01*
X-9449860Y9196014D01*
X-9435574Y9167443D01*
X-9421289Y9110300D01*
X-9421289Y9038871D01*
X-9435574Y8981729D01*
X-9449860Y8953157D01*
X-9464146Y8938871D01*
X-9492717Y8924586D01*
X-9521289Y8924586D01*
X-9549860Y8938871D01*
X-9564146Y8953157D01*
X-9578432Y8981729D01*
X-9592717Y9038871D01*
X-9592717Y9110300D01*
X-9578432Y9167443D01*
X-9564146Y9196014D01*
X-9549860Y9210300D01*
X-9521289Y9224586D01*
X-9135574Y8924586D02*
X-9307003Y8924586D01*
X-9221289Y8924586D02*
X-9221289Y9224586D01*
X-9249860Y9181729D01*
X-9278432Y9153157D01*
X-9307003Y9138871D01*
X-8949860Y9224586D02*
X-8921289Y9224586D01*
X-8892717Y9210300D01*
X-8878432Y9196014D01*
X-8864146Y9167443D01*
X-8849860Y9110300D01*
X-8849860Y9038871D01*
X-8864146Y8981729D01*
X-8878432Y8953157D01*
X-8892717Y8938871D01*
X-8921289Y8924586D01*
X-8949860Y8924586D01*
X-8978432Y8938871D01*
X-8992717Y8953157D01*
X-9007003Y8981729D01*
X-9021289Y9038871D01*
X-9021289Y9110300D01*
X-9007003Y9167443D01*
X-8992717Y9196014D01*
X-8978432Y9210300D01*
X-8949860Y9224586D01*
X-8735574Y9224586D02*
X-8735574Y9167443D01*
X-8621289Y9224586D02*
X-8621289Y9167443D01*
X-8178431Y8810300D02*
X-8192717Y8824586D01*
X-8221289Y8867443D01*
X-8235574Y8896014D01*
X-8249860Y8938871D01*
X-8264146Y9010300D01*
X-8264146Y9067443D01*
X-8249860Y9138871D01*
X-8235574Y9181729D01*
X-8221289Y9210300D01*
X-8192717Y9253157D01*
X-8178431Y9267443D01*
X-8049860Y8924586D02*
X-7992717Y8924586D01*
X-7964146Y8938871D01*
X-7949860Y8953157D01*
X-7921289Y8996014D01*
X-7907003Y9053157D01*
X-7907003Y9167443D01*
X-7921289Y9196014D01*
X-7935574Y9210300D01*
X-7964146Y9224586D01*
X-8021289Y9224586D01*
X-8049860Y9210300D01*
X-8064146Y9196014D01*
X-8078431Y9167443D01*
X-8078431Y9096014D01*
X-8064146Y9067443D01*
X-8049860Y9053157D01*
X-8021289Y9038871D01*
X-7964146Y9038871D01*
X-7935574Y9053157D01*
X-7921289Y9067443D01*
X-7907003Y9096014D01*
X-7549860Y8924586D02*
X-7549860Y9224586D01*
X-7421289Y8924586D02*
X-7421289Y9081729D01*
X-7435574Y9110300D01*
X-7464146Y9124586D01*
X-7507003Y9124586D01*
X-7535574Y9110300D01*
X-7549860Y9096014D01*
X-7235574Y8924586D02*
X-7264146Y8938871D01*
X-7278431Y8953157D01*
X-7292717Y8981729D01*
X-7292717Y9067443D01*
X-7278431Y9096014D01*
X-7264146Y9110300D01*
X-7235574Y9124586D01*
X-7192717Y9124586D01*
X-7164146Y9110300D01*
X-7149860Y9096014D01*
X-7135574Y9067443D01*
X-7135574Y8981729D01*
X-7149860Y8953157D01*
X-7164146Y8938871D01*
X-7192717Y8924586D01*
X-7235574Y8924586D01*
X-6964146Y8924586D02*
X-6992717Y8938871D01*
X-7007003Y8967443D01*
X-7007003Y9224586D01*
X-6735574Y8938871D02*
X-6764146Y8924586D01*
X-6821289Y8924586D01*
X-6849860Y8938871D01*
X-6864146Y8967443D01*
X-6864146Y9081729D01*
X-6849860Y9110300D01*
X-6821289Y9124586D01*
X-6764146Y9124586D01*
X-6735574Y9110300D01*
X-6721289Y9081729D01*
X-6721289Y9053157D01*
X-6864146Y9024586D01*
X-6607003Y8938871D02*
X-6578431Y8924586D01*
X-6521289Y8924586D01*
X-6492717Y8938871D01*
X-6478431Y8967443D01*
X-6478431Y8981729D01*
X-6492717Y9010300D01*
X-6521289Y9024586D01*
X-6564146Y9024586D01*
X-6592717Y9038871D01*
X-6607003Y9067443D01*
X-6607003Y9081729D01*
X-6592717Y9110300D01*
X-6564146Y9124586D01*
X-6521289Y9124586D01*
X-6492717Y9110300D01*
X-6378431Y8810300D02*
X-6364146Y8824586D01*
X-6335574Y8867443D01*
X-6321289Y8896014D01*
X-6307003Y8938871D01*
X-6292717Y9010300D01*
X-6292717Y9067443D01*
X-6307003Y9138871D01*
X-6321289Y9181729D01*
X-6335574Y9210300D01*
X-6364146Y9253157D01*
X-6378431Y9267443D01*
X-12849860Y8664300D02*
G75*
G03X-12849860Y8664300I-23000J0D01*
G01*
X-12521289Y8828586D02*
X-12492717Y8828586D01*
X-12464146Y8814300D01*
X-12449860Y8800014D01*
X-12435574Y8771443D01*
X-12421289Y8714300D01*
X-12421289Y8642871D01*
X-12435574Y8585729D01*
X-12449860Y8557157D01*
X-12464146Y8542871D01*
X-12492717Y8528586D01*
X-12521289Y8528586D01*
X-12549860Y8542871D01*
X-12564146Y8557157D01*
X-12578431Y8585729D01*
X-12592717Y8642871D01*
X-12592717Y8714300D01*
X-12578431Y8771443D01*
X-12564146Y8800014D01*
X-12549860Y8814300D01*
X-12521289Y8828586D01*
X-12292717Y8557157D02*
X-12278431Y8542871D01*
X-12292717Y8528586D01*
X-12307003Y8542871D01*
X-12292717Y8557157D01*
X-12292717Y8528586D01*
X-12021289Y8728586D02*
X-12021289Y8528586D01*
X-12092717Y8842871D02*
X-12164146Y8628586D01*
X-11978431Y8628586D01*
X-11735574Y8828586D02*
X-11792717Y8828586D01*
X-11821289Y8814300D01*
X-11835574Y8800014D01*
X-11864146Y8757157D01*
X-11878431Y8700014D01*
X-11878431Y8585729D01*
X-11864146Y8557157D01*
X-11849860Y8542871D01*
X-11821289Y8528586D01*
X-11764146Y8528586D01*
X-11735574Y8542871D01*
X-11721289Y8557157D01*
X-11707003Y8585729D01*
X-11707003Y8657157D01*
X-11721289Y8685729D01*
X-11735574Y8700014D01*
X-11764146Y8714300D01*
X-11821289Y8714300D01*
X-11849860Y8700014D01*
X-11864146Y8685729D01*
X-11878431Y8657157D01*
X-11578431Y8528586D02*
X-11578431Y8728586D01*
X-11578431Y8700014D02*
X-11564146Y8714300D01*
X-11535574Y8728586D01*
X-11492717Y8728586D01*
X-11464146Y8714300D01*
X-11449860Y8685729D01*
X-11449860Y8528586D01*
X-11449860Y8685729D02*
X-11435574Y8714300D01*
X-11407003Y8728586D01*
X-11364146Y8728586D01*
X-11335574Y8714300D01*
X-11321289Y8685729D01*
X-11321289Y8528586D01*
X-11178431Y8528586D02*
X-11178431Y8728586D01*
X-11178431Y8700014D02*
X-11164146Y8714300D01*
X-11135574Y8728586D01*
X-11092717Y8728586D01*
X-11064146Y8714300D01*
X-11049860Y8685729D01*
X-11049860Y8528586D01*
X-11049860Y8685729D02*
X-11035574Y8714300D01*
X-11007003Y8728586D01*
X-10964146Y8728586D01*
X-10935574Y8714300D01*
X-10921289Y8685729D01*
X-10921289Y8528586D01*
X-10335574Y8842871D02*
X-10592717Y8457157D01*
X-9949860Y8828586D02*
X-9921289Y8828586D01*
X-9892717Y8814300D01*
X-9878432Y8800014D01*
X-9864146Y8771443D01*
X-9849860Y8714300D01*
X-9849860Y8642871D01*
X-9864146Y8585729D01*
X-9878432Y8557157D01*
X-9892717Y8542871D01*
X-9921289Y8528586D01*
X-9949860Y8528586D01*
X-9978432Y8542871D01*
X-9992717Y8557157D01*
X-10007003Y8585729D01*
X-10021289Y8642871D01*
X-10021289Y8714300D01*
X-10007003Y8771443D01*
X-9992717Y8800014D01*
X-9978432Y8814300D01*
X-9949860Y8828586D01*
X-9721289Y8557157D02*
X-9707003Y8542871D01*
X-9721289Y8528586D01*
X-9735574Y8542871D01*
X-9721289Y8557157D01*
X-9721289Y8528586D01*
X-9521289Y8828586D02*
X-9492717Y8828586D01*
X-9464146Y8814300D01*
X-9449860Y8800014D01*
X-9435574Y8771443D01*
X-9421289Y8714300D01*
X-9421289Y8642871D01*
X-9435574Y8585729D01*
X-9449860Y8557157D01*
X-9464146Y8542871D01*
X-9492717Y8528586D01*
X-9521289Y8528586D01*
X-9549860Y8542871D01*
X-9564146Y8557157D01*
X-9578432Y8585729D01*
X-9592717Y8642871D01*
X-9592717Y8714300D01*
X-9578432Y8771443D01*
X-9564146Y8800014D01*
X-9549860Y8814300D01*
X-9521289Y8828586D01*
X-9135574Y8528586D02*
X-9307003Y8528586D01*
X-9221289Y8528586D02*
X-9221289Y8828586D01*
X-9249860Y8785729D01*
X-9278432Y8757157D01*
X-9307003Y8742871D01*
X-8964146Y8700014D02*
X-8992717Y8714300D01*
X-9007003Y8728586D01*
X-9021289Y8757157D01*
X-9021289Y8771443D01*
X-9007003Y8800014D01*
X-8992717Y8814300D01*
X-8964146Y8828586D01*
X-8907003Y8828586D01*
X-8878432Y8814300D01*
X-8864146Y8800014D01*
X-8849860Y8771443D01*
X-8849860Y8757157D01*
X-8864146Y8728586D01*
X-8878432Y8714300D01*
X-8907003Y8700014D01*
X-8964146Y8700014D01*
X-8992717Y8685729D01*
X-9007003Y8671443D01*
X-9021289Y8642871D01*
X-9021289Y8585729D01*
X-9007003Y8557157D01*
X-8992717Y8542871D01*
X-8964146Y8528586D01*
X-8907003Y8528586D01*
X-8878432Y8542871D01*
X-8864146Y8557157D01*
X-8849860Y8585729D01*
X-8849860Y8642871D01*
X-8864146Y8671443D01*
X-8878432Y8685729D01*
X-8907003Y8700014D01*
X-8735574Y8828586D02*
X-8735574Y8771443D01*
X-8621289Y8828586D02*
X-8621289Y8771443D01*
X-8178431Y8414300D02*
X-8192717Y8428586D01*
X-8221289Y8471443D01*
X-8235574Y8500014D01*
X-8249860Y8542871D01*
X-8264146Y8614300D01*
X-8264146Y8671443D01*
X-8249860Y8742871D01*
X-8235574Y8785729D01*
X-8221289Y8814300D01*
X-8192717Y8857157D01*
X-8178431Y8871443D01*
X-8078431Y8800014D02*
X-8064146Y8814300D01*
X-8035574Y8828586D01*
X-7964146Y8828586D01*
X-7935574Y8814300D01*
X-7921289Y8800014D01*
X-7907003Y8771443D01*
X-7907003Y8742871D01*
X-7921289Y8700014D01*
X-8092717Y8528586D01*
X-7907003Y8528586D01*
X-7549860Y8528586D02*
X-7549860Y8828586D01*
X-7421289Y8528586D02*
X-7421289Y8685729D01*
X-7435574Y8714300D01*
X-7464146Y8728586D01*
X-7507003Y8728586D01*
X-7535574Y8714300D01*
X-7549860Y8700014D01*
X-7235574Y8528586D02*
X-7264146Y8542871D01*
X-7278431Y8557157D01*
X-7292717Y8585729D01*
X-7292717Y8671443D01*
X-7278431Y8700014D01*
X-7264146Y8714300D01*
X-7235574Y8728586D01*
X-7192717Y8728586D01*
X-7164146Y8714300D01*
X-7149860Y8700014D01*
X-7135574Y8671443D01*
X-7135574Y8585729D01*
X-7149860Y8557157D01*
X-7164146Y8542871D01*
X-7192717Y8528586D01*
X-7235574Y8528586D01*
X-6964146Y8528586D02*
X-6992717Y8542871D01*
X-7007003Y8571443D01*
X-7007003Y8828586D01*
X-6735574Y8542871D02*
X-6764146Y8528586D01*
X-6821289Y8528586D01*
X-6849860Y8542871D01*
X-6864146Y8571443D01*
X-6864146Y8685729D01*
X-6849860Y8714300D01*
X-6821289Y8728586D01*
X-6764146Y8728586D01*
X-6735574Y8714300D01*
X-6721289Y8685729D01*
X-6721289Y8657157D01*
X-6864146Y8628586D01*
X-6607003Y8542871D02*
X-6578431Y8528586D01*
X-6521289Y8528586D01*
X-6492717Y8542871D01*
X-6478431Y8571443D01*
X-6478431Y8585729D01*
X-6492717Y8614300D01*
X-6521289Y8628586D01*
X-6564146Y8628586D01*
X-6592717Y8642871D01*
X-6607003Y8671443D01*
X-6607003Y8685729D01*
X-6592717Y8714300D01*
X-6564146Y8728586D01*
X-6521289Y8728586D01*
X-6492717Y8714300D01*
X-6378431Y8414300D02*
X-6364146Y8428586D01*
X-6335574Y8471443D01*
X-6321289Y8500014D01*
X-6307003Y8542871D01*
X-6292717Y8614300D01*
X-6292717Y8671443D01*
X-6307003Y8742871D01*
X-6321289Y8785729D01*
X-6335574Y8814300D01*
X-6364146Y8857157D01*
X-6378431Y8871443D01*
M02*
