G04 #@! TF.FileFunction,Copper,L1,Top,Signal*
%FSLAX46Y46*%
G04 Gerber Fmt 4.6, Leading zero omitted, Abs format (unit mm)*
G04 Created by KiCad (PCBNEW 4.0.5) date 02/23/17 12:59:15*
%MOMM*%
%LPD*%
G01*
G04 APERTURE LIST*
%ADD10C,0.127000*%
%ADD11R,2.290000X5.080000*%
%ADD12R,2.420000X5.080000*%
%ADD13C,0.970000*%
%ADD14R,0.460000X0.890000*%
%ADD15C,0.355600*%
%ADD16C,0.254000*%
G04 APERTURE END LIST*
D10*
D11*
X16344900Y3601300D03*
D12*
X11964900Y3601300D03*
X20724900Y3601300D03*
D13*
X11964900Y7041300D03*
X20724900Y7041300D03*
D14*
X11964900Y6591300D03*
X20724900Y6591300D03*
D15*
X28295600Y17272000D03*
X25298400Y17272000D03*
X22301200Y17272000D03*
X19304000Y17272000D03*
X13385800Y17272000D03*
X10388600Y17272000D03*
X7391400Y17272000D03*
X4394200Y17272000D03*
X1397000Y17272000D03*
D16*
G36*
X23672800Y17780000D02*
X23682806Y17730590D01*
X23711247Y17688965D01*
X23753641Y17661685D01*
X23799800Y17653000D01*
X31292800Y17653000D01*
X31292800Y127000D01*
X127000Y127000D01*
X127000Y3315550D01*
X10119900Y3315550D01*
X10119900Y934991D01*
X10216573Y701602D01*
X10395201Y522973D01*
X10628590Y426300D01*
X11679150Y426300D01*
X11837900Y585050D01*
X11837900Y3474300D01*
X12091900Y3474300D01*
X12091900Y585050D01*
X12250650Y426300D01*
X13301210Y426300D01*
X13534599Y522973D01*
X13713227Y701602D01*
X13809900Y934991D01*
X13809900Y3315550D01*
X13651150Y3474300D01*
X12091900Y3474300D01*
X11837900Y3474300D01*
X10278650Y3474300D01*
X10119900Y3315550D01*
X127000Y3315550D01*
X127000Y6267609D01*
X10119900Y6267609D01*
X10119900Y3887050D01*
X10278650Y3728300D01*
X11837900Y3728300D01*
X11837900Y3748300D01*
X12091900Y3748300D01*
X12091900Y3728300D01*
X13651150Y3728300D01*
X13809900Y3887050D01*
X13809900Y6267609D01*
X13713227Y6500998D01*
X13534599Y6679627D01*
X13301210Y6776300D01*
X13057029Y6776300D01*
X13098049Y6899864D01*
X13065918Y7344268D01*
X12957668Y7605608D01*
X12744100Y7640895D01*
X12616215Y7513010D01*
X12554599Y7574627D01*
X12387738Y7643743D01*
X12564495Y7820500D01*
X12529208Y8034068D01*
X12106336Y8174449D01*
X11661932Y8142318D01*
X11400592Y8034068D01*
X11365305Y7820500D01*
X11542062Y7643743D01*
X11375201Y7574627D01*
X11313585Y7513010D01*
X11185700Y7640895D01*
X10972132Y7605608D01*
X10831751Y7182736D01*
X10861137Y6776300D01*
X10628590Y6776300D01*
X10395201Y6679627D01*
X10216573Y6500998D01*
X10119900Y6267609D01*
X127000Y6267609D01*
X127000Y17653000D01*
X14808200Y17653000D01*
X14808200Y6647626D01*
X14661573Y6500998D01*
X14564900Y6267609D01*
X14564900Y3887050D01*
X14566900Y3885050D01*
X14566900Y3317550D01*
X14564900Y3315550D01*
X14564900Y934991D01*
X14661573Y701602D01*
X14840201Y522973D01*
X15073590Y426300D01*
X16059150Y426300D01*
X16064650Y431800D01*
X16625150Y431800D01*
X16630650Y426300D01*
X17616210Y426300D01*
X17849599Y522973D01*
X18028227Y701602D01*
X18124900Y934991D01*
X18124900Y3315550D01*
X18879900Y3315550D01*
X18879900Y934991D01*
X18976573Y701602D01*
X19155201Y522973D01*
X19388590Y426300D01*
X20439150Y426300D01*
X20597900Y585050D01*
X20597900Y3474300D01*
X20851900Y3474300D01*
X20851900Y585050D01*
X21010650Y426300D01*
X22061210Y426300D01*
X22294599Y522973D01*
X22473227Y701602D01*
X22569900Y934991D01*
X22569900Y3315550D01*
X22411150Y3474300D01*
X20851900Y3474300D01*
X20597900Y3474300D01*
X19038650Y3474300D01*
X18879900Y3315550D01*
X18124900Y3315550D01*
X18122900Y3317550D01*
X18122900Y3885050D01*
X18124900Y3887050D01*
X18124900Y6267609D01*
X18879900Y6267609D01*
X18879900Y3887050D01*
X19038650Y3728300D01*
X20597900Y3728300D01*
X20597900Y3748300D01*
X20851900Y3748300D01*
X20851900Y3728300D01*
X22411150Y3728300D01*
X22569900Y3887050D01*
X22569900Y6267609D01*
X22473227Y6500998D01*
X22294599Y6679627D01*
X22061210Y6776300D01*
X21817029Y6776300D01*
X21858049Y6899864D01*
X21825918Y7344268D01*
X21717668Y7605608D01*
X21504100Y7640895D01*
X21376215Y7513010D01*
X21314599Y7574627D01*
X21147738Y7643743D01*
X21324495Y7820500D01*
X21289208Y8034068D01*
X20866336Y8174449D01*
X20421932Y8142318D01*
X20160592Y8034068D01*
X20125305Y7820500D01*
X20302062Y7643743D01*
X20135201Y7574627D01*
X20073585Y7513010D01*
X19945700Y7640895D01*
X19732132Y7605608D01*
X19591751Y7182736D01*
X19621137Y6776300D01*
X19388590Y6776300D01*
X19155201Y6679627D01*
X18976573Y6500998D01*
X18879900Y6267609D01*
X18124900Y6267609D01*
X18028227Y6500998D01*
X17881600Y6647626D01*
X17881600Y17653000D01*
X20802600Y17653000D01*
X20852010Y17663006D01*
X20893635Y17691447D01*
X20920915Y17733841D01*
X20929600Y17780000D01*
X20929600Y23088600D01*
X20919594Y23138010D01*
X20891153Y23179635D01*
X20848759Y23206915D01*
X20802600Y23215600D01*
X16764000Y23215600D01*
X16714590Y23205594D01*
X16672965Y23177153D01*
X16645685Y23134759D01*
X16637000Y23088600D01*
X16637000Y17780000D01*
X16647006Y17730590D01*
X16675447Y17688965D01*
X16717841Y17661685D01*
X16764000Y17653000D01*
X17373600Y17653000D01*
X17373600Y6776300D01*
X16630650Y6776300D01*
X16471900Y6617550D01*
X16471900Y3378200D01*
X16217900Y3378200D01*
X16217900Y6617550D01*
X16059150Y6776300D01*
X15316200Y6776300D01*
X15316200Y17653000D01*
X15925800Y17653000D01*
X15975210Y17663006D01*
X16016835Y17691447D01*
X16044115Y17733841D01*
X16052800Y17780000D01*
X16052800Y23088600D01*
X16042794Y23138010D01*
X16014353Y23179635D01*
X15971959Y23206915D01*
X15925800Y23215600D01*
X7747000Y23215600D01*
X7747000Y25450800D01*
X23672800Y25450800D01*
X23672800Y17780000D01*
X23672800Y17780000D01*
G37*
X23672800Y17780000D02*
X23682806Y17730590D01*
X23711247Y17688965D01*
X23753641Y17661685D01*
X23799800Y17653000D01*
X31292800Y17653000D01*
X31292800Y127000D01*
X127000Y127000D01*
X127000Y3315550D01*
X10119900Y3315550D01*
X10119900Y934991D01*
X10216573Y701602D01*
X10395201Y522973D01*
X10628590Y426300D01*
X11679150Y426300D01*
X11837900Y585050D01*
X11837900Y3474300D01*
X12091900Y3474300D01*
X12091900Y585050D01*
X12250650Y426300D01*
X13301210Y426300D01*
X13534599Y522973D01*
X13713227Y701602D01*
X13809900Y934991D01*
X13809900Y3315550D01*
X13651150Y3474300D01*
X12091900Y3474300D01*
X11837900Y3474300D01*
X10278650Y3474300D01*
X10119900Y3315550D01*
X127000Y3315550D01*
X127000Y6267609D01*
X10119900Y6267609D01*
X10119900Y3887050D01*
X10278650Y3728300D01*
X11837900Y3728300D01*
X11837900Y3748300D01*
X12091900Y3748300D01*
X12091900Y3728300D01*
X13651150Y3728300D01*
X13809900Y3887050D01*
X13809900Y6267609D01*
X13713227Y6500998D01*
X13534599Y6679627D01*
X13301210Y6776300D01*
X13057029Y6776300D01*
X13098049Y6899864D01*
X13065918Y7344268D01*
X12957668Y7605608D01*
X12744100Y7640895D01*
X12616215Y7513010D01*
X12554599Y7574627D01*
X12387738Y7643743D01*
X12564495Y7820500D01*
X12529208Y8034068D01*
X12106336Y8174449D01*
X11661932Y8142318D01*
X11400592Y8034068D01*
X11365305Y7820500D01*
X11542062Y7643743D01*
X11375201Y7574627D01*
X11313585Y7513010D01*
X11185700Y7640895D01*
X10972132Y7605608D01*
X10831751Y7182736D01*
X10861137Y6776300D01*
X10628590Y6776300D01*
X10395201Y6679627D01*
X10216573Y6500998D01*
X10119900Y6267609D01*
X127000Y6267609D01*
X127000Y17653000D01*
X14808200Y17653000D01*
X14808200Y6647626D01*
X14661573Y6500998D01*
X14564900Y6267609D01*
X14564900Y3887050D01*
X14566900Y3885050D01*
X14566900Y3317550D01*
X14564900Y3315550D01*
X14564900Y934991D01*
X14661573Y701602D01*
X14840201Y522973D01*
X15073590Y426300D01*
X16059150Y426300D01*
X16064650Y431800D01*
X16625150Y431800D01*
X16630650Y426300D01*
X17616210Y426300D01*
X17849599Y522973D01*
X18028227Y701602D01*
X18124900Y934991D01*
X18124900Y3315550D01*
X18879900Y3315550D01*
X18879900Y934991D01*
X18976573Y701602D01*
X19155201Y522973D01*
X19388590Y426300D01*
X20439150Y426300D01*
X20597900Y585050D01*
X20597900Y3474300D01*
X20851900Y3474300D01*
X20851900Y585050D01*
X21010650Y426300D01*
X22061210Y426300D01*
X22294599Y522973D01*
X22473227Y701602D01*
X22569900Y934991D01*
X22569900Y3315550D01*
X22411150Y3474300D01*
X20851900Y3474300D01*
X20597900Y3474300D01*
X19038650Y3474300D01*
X18879900Y3315550D01*
X18124900Y3315550D01*
X18122900Y3317550D01*
X18122900Y3885050D01*
X18124900Y3887050D01*
X18124900Y6267609D01*
X18879900Y6267609D01*
X18879900Y3887050D01*
X19038650Y3728300D01*
X20597900Y3728300D01*
X20597900Y3748300D01*
X20851900Y3748300D01*
X20851900Y3728300D01*
X22411150Y3728300D01*
X22569900Y3887050D01*
X22569900Y6267609D01*
X22473227Y6500998D01*
X22294599Y6679627D01*
X22061210Y6776300D01*
X21817029Y6776300D01*
X21858049Y6899864D01*
X21825918Y7344268D01*
X21717668Y7605608D01*
X21504100Y7640895D01*
X21376215Y7513010D01*
X21314599Y7574627D01*
X21147738Y7643743D01*
X21324495Y7820500D01*
X21289208Y8034068D01*
X20866336Y8174449D01*
X20421932Y8142318D01*
X20160592Y8034068D01*
X20125305Y7820500D01*
X20302062Y7643743D01*
X20135201Y7574627D01*
X20073585Y7513010D01*
X19945700Y7640895D01*
X19732132Y7605608D01*
X19591751Y7182736D01*
X19621137Y6776300D01*
X19388590Y6776300D01*
X19155201Y6679627D01*
X18976573Y6500998D01*
X18879900Y6267609D01*
X18124900Y6267609D01*
X18028227Y6500998D01*
X17881600Y6647626D01*
X17881600Y17653000D01*
X20802600Y17653000D01*
X20852010Y17663006D01*
X20893635Y17691447D01*
X20920915Y17733841D01*
X20929600Y17780000D01*
X20929600Y23088600D01*
X20919594Y23138010D01*
X20891153Y23179635D01*
X20848759Y23206915D01*
X20802600Y23215600D01*
X16764000Y23215600D01*
X16714590Y23205594D01*
X16672965Y23177153D01*
X16645685Y23134759D01*
X16637000Y23088600D01*
X16637000Y17780000D01*
X16647006Y17730590D01*
X16675447Y17688965D01*
X16717841Y17661685D01*
X16764000Y17653000D01*
X17373600Y17653000D01*
X17373600Y6776300D01*
X16630650Y6776300D01*
X16471900Y6617550D01*
X16471900Y3378200D01*
X16217900Y3378200D01*
X16217900Y6617550D01*
X16059150Y6776300D01*
X15316200Y6776300D01*
X15316200Y17653000D01*
X15925800Y17653000D01*
X15975210Y17663006D01*
X16016835Y17691447D01*
X16044115Y17733841D01*
X16052800Y17780000D01*
X16052800Y23088600D01*
X16042794Y23138010D01*
X16014353Y23179635D01*
X15971959Y23206915D01*
X15925800Y23215600D01*
X7747000Y23215600D01*
X7747000Y25450800D01*
X23672800Y25450800D01*
X23672800Y17780000D01*
M02*
