%FSLAX45Y45*%
G04 Gerber Fmt 4.5, Leading zero omitted, Abs format (unit mm)*
G04 Created by KiCad (PCBNEW 4.0.5) date 02/22/17 12:57:28*
%MOMM*%
%LPD*%
G01*
G04 APERTURE LIST*
%ADD10C,0.127000*%
%ADD11C,0.150000*%
%ADD12C,0.200000*%
%ADD13C,0.300000*%
G04 APERTURE END LIST*
D10*
D11*
X14712950Y-12184380D02*
X16592550Y-12184380D01*
X14712950Y-10908030D02*
X14712950Y-12184380D01*
X15032990Y-10587990D02*
X14712950Y-10908030D01*
X15032990Y-9723120D02*
X15032990Y-10586720D01*
X16592550Y-9723120D02*
X15032990Y-9723120D01*
X16592550Y-12184380D02*
X16592550Y-9723120D01*
D12*
X15055850Y-10610850D02*
X15083790Y-10638790D01*
X15083790Y-10610850D02*
X15055850Y-10638790D01*
X15132050Y-10610850D02*
X15159990Y-10638790D01*
X15159990Y-10610850D02*
X15132050Y-10638790D01*
X15132050Y-10687050D02*
X15159990Y-10714990D01*
X15159990Y-10687050D02*
X15132050Y-10714990D01*
X15561310Y-10610850D02*
X15589250Y-10638790D01*
X15589250Y-10610850D02*
X15561310Y-10638790D01*
X15561310Y-10687050D02*
X15589250Y-10714990D01*
X15589250Y-10687050D02*
X15561310Y-10714990D01*
X15637510Y-10610850D02*
X15665450Y-10638790D01*
X15665450Y-10610850D02*
X15637510Y-10638790D01*
X15713710Y-10610850D02*
X15741650Y-10638790D01*
X15741650Y-10610850D02*
X15713710Y-10638790D01*
X15789910Y-10610850D02*
X15817850Y-10638790D01*
X15817850Y-10610850D02*
X15789910Y-10638790D01*
X15866110Y-10610850D02*
X15894050Y-10638790D01*
X15894050Y-10610850D02*
X15866110Y-10638790D01*
X15942310Y-10610850D02*
X15970250Y-10638790D01*
X15970250Y-10610850D02*
X15942310Y-10638790D01*
X16018510Y-10610850D02*
X16046450Y-10638790D01*
X16046450Y-10610850D02*
X16018510Y-10638790D01*
X16040100Y-10471150D02*
X16068040Y-10499090D01*
X16068040Y-10471150D02*
X16040100Y-10499090D01*
X16094710Y-10610850D02*
X16122650Y-10638790D01*
X16122650Y-10610850D02*
X16094710Y-10638790D01*
X16170910Y-10610850D02*
X16198850Y-10638790D01*
X16198850Y-10610850D02*
X16170910Y-10638790D01*
X16247110Y-10610850D02*
X16275050Y-10638790D01*
X16275050Y-10610850D02*
X16247110Y-10638790D01*
X16323310Y-10610850D02*
X16351250Y-10638790D01*
X16351250Y-10610850D02*
X16323310Y-10638790D01*
X16399510Y-10610850D02*
X16427450Y-10638790D01*
X16427450Y-10610850D02*
X16399510Y-10638790D01*
X16475710Y-10610850D02*
X16503650Y-10638790D01*
X16503650Y-10610850D02*
X16475710Y-10638790D01*
X16551910Y-10610850D02*
X16579850Y-10638790D01*
X16579850Y-10610850D02*
X16551910Y-10638790D01*
X14952000Y-11512000D02*
G75*
G03X14952000Y-11512000I-23000J0D01*
G01*
X15828000Y-11512000D02*
G75*
G03X15828000Y-11512000I-23000J0D01*
G01*
D13*
X14976878Y-12657594D02*
X14976878Y-12357594D01*
X15048307Y-12357594D01*
X15091164Y-12371880D01*
X15119736Y-12400451D01*
X15134021Y-12429023D01*
X15148307Y-12486166D01*
X15148307Y-12529023D01*
X15134021Y-12586166D01*
X15119736Y-12614737D01*
X15091164Y-12643309D01*
X15048307Y-12657594D01*
X14976878Y-12657594D01*
X15276878Y-12657594D02*
X15276878Y-12457594D01*
X15276878Y-12514737D02*
X15291164Y-12486166D01*
X15305450Y-12471880D01*
X15334021Y-12457594D01*
X15362593Y-12457594D01*
X15462593Y-12657594D02*
X15462593Y-12457594D01*
X15462593Y-12357594D02*
X15448307Y-12371880D01*
X15462593Y-12386166D01*
X15476878Y-12371880D01*
X15462593Y-12357594D01*
X15462593Y-12386166D01*
X15648307Y-12657594D02*
X15619736Y-12643309D01*
X15605450Y-12614737D01*
X15605450Y-12357594D01*
X15805450Y-12657594D02*
X15776878Y-12643309D01*
X15762593Y-12614737D01*
X15762593Y-12357594D01*
X16148307Y-12657594D02*
X16148307Y-12357594D01*
X16248307Y-12571880D01*
X16348307Y-12357594D01*
X16348307Y-12657594D01*
X16619736Y-12657594D02*
X16619736Y-12500451D01*
X16605450Y-12471880D01*
X16576878Y-12457594D01*
X16519736Y-12457594D01*
X16491164Y-12471880D01*
X16619736Y-12643309D02*
X16591164Y-12657594D01*
X16519736Y-12657594D01*
X16491164Y-12643309D01*
X16476878Y-12614737D01*
X16476878Y-12586166D01*
X16491164Y-12557594D01*
X16519736Y-12543309D01*
X16591164Y-12543309D01*
X16619736Y-12529023D01*
X16762593Y-12457594D02*
X16762593Y-12757594D01*
X16762593Y-12471880D02*
X16791164Y-12457594D01*
X16848307Y-12457594D01*
X16876879Y-12471880D01*
X16891164Y-12486166D01*
X16905450Y-12514737D01*
X16905450Y-12600451D01*
X16891164Y-12629023D01*
X16876879Y-12643309D01*
X16848307Y-12657594D01*
X16791164Y-12657594D01*
X16762593Y-12643309D01*
X17034021Y-12629023D02*
X17048307Y-12643309D01*
X17034021Y-12657594D01*
X17019736Y-12643309D01*
X17034021Y-12629023D01*
X17034021Y-12657594D01*
X17034021Y-12471880D02*
X17048307Y-12486166D01*
X17034021Y-12500451D01*
X17019736Y-12486166D01*
X17034021Y-12471880D01*
X17034021Y-12500451D01*
X14677510Y-13137910D02*
X14705450Y-13165850D01*
X14705450Y-13137910D02*
X14677510Y-13165850D01*
X15034021Y-12987594D02*
X15062593Y-12987594D01*
X15091164Y-13001880D01*
X15105450Y-13016166D01*
X15119736Y-13044737D01*
X15134021Y-13101880D01*
X15134021Y-13173309D01*
X15119736Y-13230451D01*
X15105450Y-13259023D01*
X15091164Y-13273309D01*
X15062593Y-13287594D01*
X15034021Y-13287594D01*
X15005450Y-13273309D01*
X14991164Y-13259023D01*
X14976878Y-13230451D01*
X14962593Y-13173309D01*
X14962593Y-13101880D01*
X14976878Y-13044737D01*
X14991164Y-13016166D01*
X15005450Y-13001880D01*
X15034021Y-12987594D01*
X15262593Y-13259023D02*
X15276878Y-13273309D01*
X15262593Y-13287594D01*
X15248307Y-13273309D01*
X15262593Y-13259023D01*
X15262593Y-13287594D01*
X15391164Y-13016166D02*
X15405450Y-13001880D01*
X15434021Y-12987594D01*
X15505450Y-12987594D01*
X15534021Y-13001880D01*
X15548307Y-13016166D01*
X15562593Y-13044737D01*
X15562593Y-13073309D01*
X15548307Y-13116166D01*
X15376878Y-13287594D01*
X15562593Y-13287594D01*
X15734021Y-13116166D02*
X15705450Y-13101880D01*
X15691164Y-13087594D01*
X15676878Y-13059023D01*
X15676878Y-13044737D01*
X15691164Y-13016166D01*
X15705450Y-13001880D01*
X15734021Y-12987594D01*
X15791164Y-12987594D01*
X15819736Y-13001880D01*
X15834021Y-13016166D01*
X15848307Y-13044737D01*
X15848307Y-13059023D01*
X15834021Y-13087594D01*
X15819736Y-13101880D01*
X15791164Y-13116166D01*
X15734021Y-13116166D01*
X15705450Y-13130451D01*
X15691164Y-13144737D01*
X15676878Y-13173309D01*
X15676878Y-13230451D01*
X15691164Y-13259023D01*
X15705450Y-13273309D01*
X15734021Y-13287594D01*
X15791164Y-13287594D01*
X15819736Y-13273309D01*
X15834021Y-13259023D01*
X15848307Y-13230451D01*
X15848307Y-13173309D01*
X15834021Y-13144737D01*
X15819736Y-13130451D01*
X15791164Y-13116166D01*
X15976878Y-13287594D02*
X15976878Y-13087594D01*
X15976878Y-13116166D02*
X15991164Y-13101880D01*
X16019736Y-13087594D01*
X16062593Y-13087594D01*
X16091164Y-13101880D01*
X16105450Y-13130451D01*
X16105450Y-13287594D01*
X16105450Y-13130451D02*
X16119736Y-13101880D01*
X16148307Y-13087594D01*
X16191164Y-13087594D01*
X16219736Y-13101880D01*
X16234021Y-13130451D01*
X16234021Y-13287594D01*
X16376878Y-13287594D02*
X16376878Y-13087594D01*
X16376878Y-13116166D02*
X16391164Y-13101880D01*
X16419736Y-13087594D01*
X16462593Y-13087594D01*
X16491164Y-13101880D01*
X16505450Y-13130451D01*
X16505450Y-13287594D01*
X16505450Y-13130451D02*
X16519736Y-13101880D01*
X16548307Y-13087594D01*
X16591164Y-13087594D01*
X16619736Y-13101880D01*
X16634021Y-13130451D01*
X16634021Y-13287594D01*
X17219736Y-12973309D02*
X16962593Y-13359023D01*
X17605450Y-12987594D02*
X17634021Y-12987594D01*
X17662593Y-13001880D01*
X17676878Y-13016166D01*
X17691164Y-13044737D01*
X17705450Y-13101880D01*
X17705450Y-13173309D01*
X17691164Y-13230451D01*
X17676878Y-13259023D01*
X17662593Y-13273309D01*
X17634021Y-13287594D01*
X17605450Y-13287594D01*
X17576878Y-13273309D01*
X17562593Y-13259023D01*
X17548307Y-13230451D01*
X17534021Y-13173309D01*
X17534021Y-13101880D01*
X17548307Y-13044737D01*
X17562593Y-13016166D01*
X17576878Y-13001880D01*
X17605450Y-12987594D01*
X17834021Y-13259023D02*
X17848307Y-13273309D01*
X17834021Y-13287594D01*
X17819736Y-13273309D01*
X17834021Y-13259023D01*
X17834021Y-13287594D01*
X18034021Y-12987594D02*
X18062593Y-12987594D01*
X18091164Y-13001880D01*
X18105450Y-13016166D01*
X18119736Y-13044737D01*
X18134021Y-13101880D01*
X18134021Y-13173309D01*
X18119736Y-13230451D01*
X18105450Y-13259023D01*
X18091164Y-13273309D01*
X18062593Y-13287594D01*
X18034021Y-13287594D01*
X18005450Y-13273309D01*
X17991164Y-13259023D01*
X17976878Y-13230451D01*
X17962593Y-13173309D01*
X17962593Y-13101880D01*
X17976878Y-13044737D01*
X17991164Y-13016166D01*
X18005450Y-13001880D01*
X18034021Y-12987594D01*
X18419736Y-13287594D02*
X18248307Y-13287594D01*
X18334021Y-13287594D02*
X18334021Y-12987594D01*
X18305450Y-13030451D01*
X18276878Y-13059023D01*
X18248307Y-13073309D01*
X18705450Y-13287594D02*
X18534021Y-13287594D01*
X18619736Y-13287594D02*
X18619736Y-12987594D01*
X18591164Y-13030451D01*
X18562593Y-13059023D01*
X18534021Y-13073309D01*
X18819736Y-12987594D02*
X18819736Y-13044737D01*
X18934021Y-12987594D02*
X18934021Y-13044737D01*
X19376878Y-13401880D02*
X19362593Y-13387594D01*
X19334021Y-13344737D01*
X19319736Y-13316166D01*
X19305450Y-13273309D01*
X19291164Y-13201880D01*
X19291164Y-13144737D01*
X19305450Y-13073309D01*
X19319736Y-13030451D01*
X19334021Y-13001880D01*
X19362593Y-12959023D01*
X19376878Y-12944737D01*
X19648307Y-13287594D02*
X19476878Y-13287594D01*
X19562593Y-13287594D02*
X19562593Y-12987594D01*
X19534021Y-13030451D01*
X19505450Y-13059023D01*
X19476878Y-13073309D01*
X19791164Y-13287594D02*
X19848307Y-13287594D01*
X19876878Y-13273309D01*
X19891164Y-13259023D01*
X19919736Y-13216166D01*
X19934021Y-13159023D01*
X19934021Y-13044737D01*
X19919736Y-13016166D01*
X19905450Y-13001880D01*
X19876878Y-12987594D01*
X19819736Y-12987594D01*
X19791164Y-13001880D01*
X19776878Y-13016166D01*
X19762593Y-13044737D01*
X19762593Y-13116166D01*
X19776878Y-13144737D01*
X19791164Y-13159023D01*
X19819736Y-13173309D01*
X19876878Y-13173309D01*
X19905450Y-13159023D01*
X19919736Y-13144737D01*
X19934021Y-13116166D01*
X20291164Y-13287594D02*
X20291164Y-12987594D01*
X20419736Y-13287594D02*
X20419736Y-13130451D01*
X20405450Y-13101880D01*
X20376878Y-13087594D01*
X20334021Y-13087594D01*
X20305450Y-13101880D01*
X20291164Y-13116166D01*
X20605450Y-13287594D02*
X20576878Y-13273309D01*
X20562593Y-13259023D01*
X20548307Y-13230451D01*
X20548307Y-13144737D01*
X20562593Y-13116166D01*
X20576878Y-13101880D01*
X20605450Y-13087594D01*
X20648307Y-13087594D01*
X20676878Y-13101880D01*
X20691164Y-13116166D01*
X20705450Y-13144737D01*
X20705450Y-13230451D01*
X20691164Y-13259023D01*
X20676878Y-13273309D01*
X20648307Y-13287594D01*
X20605450Y-13287594D01*
X20876878Y-13287594D02*
X20848307Y-13273309D01*
X20834021Y-13244737D01*
X20834021Y-12987594D01*
X21105450Y-13273309D02*
X21076879Y-13287594D01*
X21019736Y-13287594D01*
X20991164Y-13273309D01*
X20976879Y-13244737D01*
X20976879Y-13130451D01*
X20991164Y-13101880D01*
X21019736Y-13087594D01*
X21076879Y-13087594D01*
X21105450Y-13101880D01*
X21119736Y-13130451D01*
X21119736Y-13159023D01*
X20976879Y-13187594D01*
X21234021Y-13273309D02*
X21262593Y-13287594D01*
X21319736Y-13287594D01*
X21348307Y-13273309D01*
X21362593Y-13244737D01*
X21362593Y-13230451D01*
X21348307Y-13201880D01*
X21319736Y-13187594D01*
X21276879Y-13187594D01*
X21248307Y-13173309D01*
X21234021Y-13144737D01*
X21234021Y-13130451D01*
X21248307Y-13101880D01*
X21276879Y-13087594D01*
X21319736Y-13087594D01*
X21348307Y-13101880D01*
X21462593Y-13401880D02*
X21476879Y-13387594D01*
X21505450Y-13344737D01*
X21519736Y-13316166D01*
X21534021Y-13273309D01*
X21548307Y-13201880D01*
X21548307Y-13144737D01*
X21534021Y-13073309D01*
X21519736Y-13030451D01*
X21505450Y-13001880D01*
X21476879Y-12959023D01*
X21462593Y-12944737D01*
X14705450Y-13547880D02*
G75*
G03X14705450Y-13547880I-23000J0D01*
G01*
X15034021Y-13383594D02*
X15062593Y-13383594D01*
X15091164Y-13397880D01*
X15105450Y-13412166D01*
X15119736Y-13440737D01*
X15134021Y-13497880D01*
X15134021Y-13569309D01*
X15119736Y-13626451D01*
X15105450Y-13655023D01*
X15091164Y-13669309D01*
X15062593Y-13683594D01*
X15034021Y-13683594D01*
X15005450Y-13669309D01*
X14991164Y-13655023D01*
X14976878Y-13626451D01*
X14962593Y-13569309D01*
X14962593Y-13497880D01*
X14976878Y-13440737D01*
X14991164Y-13412166D01*
X15005450Y-13397880D01*
X15034021Y-13383594D01*
X15262593Y-13655023D02*
X15276878Y-13669309D01*
X15262593Y-13683594D01*
X15248307Y-13669309D01*
X15262593Y-13655023D01*
X15262593Y-13683594D01*
X15534021Y-13483594D02*
X15534021Y-13683594D01*
X15462593Y-13369309D02*
X15391164Y-13583594D01*
X15576878Y-13583594D01*
X15819736Y-13383594D02*
X15762593Y-13383594D01*
X15734021Y-13397880D01*
X15719736Y-13412166D01*
X15691164Y-13455023D01*
X15676878Y-13512166D01*
X15676878Y-13626451D01*
X15691164Y-13655023D01*
X15705450Y-13669309D01*
X15734021Y-13683594D01*
X15791164Y-13683594D01*
X15819736Y-13669309D01*
X15834021Y-13655023D01*
X15848307Y-13626451D01*
X15848307Y-13555023D01*
X15834021Y-13526451D01*
X15819736Y-13512166D01*
X15791164Y-13497880D01*
X15734021Y-13497880D01*
X15705450Y-13512166D01*
X15691164Y-13526451D01*
X15676878Y-13555023D01*
X15976878Y-13683594D02*
X15976878Y-13483594D01*
X15976878Y-13512166D02*
X15991164Y-13497880D01*
X16019736Y-13483594D01*
X16062593Y-13483594D01*
X16091164Y-13497880D01*
X16105450Y-13526451D01*
X16105450Y-13683594D01*
X16105450Y-13526451D02*
X16119736Y-13497880D01*
X16148307Y-13483594D01*
X16191164Y-13483594D01*
X16219736Y-13497880D01*
X16234021Y-13526451D01*
X16234021Y-13683594D01*
X16376878Y-13683594D02*
X16376878Y-13483594D01*
X16376878Y-13512166D02*
X16391164Y-13497880D01*
X16419736Y-13483594D01*
X16462593Y-13483594D01*
X16491164Y-13497880D01*
X16505450Y-13526451D01*
X16505450Y-13683594D01*
X16505450Y-13526451D02*
X16519736Y-13497880D01*
X16548307Y-13483594D01*
X16591164Y-13483594D01*
X16619736Y-13497880D01*
X16634021Y-13526451D01*
X16634021Y-13683594D01*
X17219736Y-13369309D02*
X16962593Y-13755023D01*
X17605450Y-13383594D02*
X17634021Y-13383594D01*
X17662593Y-13397880D01*
X17676878Y-13412166D01*
X17691164Y-13440737D01*
X17705450Y-13497880D01*
X17705450Y-13569309D01*
X17691164Y-13626451D01*
X17676878Y-13655023D01*
X17662593Y-13669309D01*
X17634021Y-13683594D01*
X17605450Y-13683594D01*
X17576878Y-13669309D01*
X17562593Y-13655023D01*
X17548307Y-13626451D01*
X17534021Y-13569309D01*
X17534021Y-13497880D01*
X17548307Y-13440737D01*
X17562593Y-13412166D01*
X17576878Y-13397880D01*
X17605450Y-13383594D01*
X17834021Y-13655023D02*
X17848307Y-13669309D01*
X17834021Y-13683594D01*
X17819736Y-13669309D01*
X17834021Y-13655023D01*
X17834021Y-13683594D01*
X18034021Y-13383594D02*
X18062593Y-13383594D01*
X18091164Y-13397880D01*
X18105450Y-13412166D01*
X18119736Y-13440737D01*
X18134021Y-13497880D01*
X18134021Y-13569309D01*
X18119736Y-13626451D01*
X18105450Y-13655023D01*
X18091164Y-13669309D01*
X18062593Y-13683594D01*
X18034021Y-13683594D01*
X18005450Y-13669309D01*
X17991164Y-13655023D01*
X17976878Y-13626451D01*
X17962593Y-13569309D01*
X17962593Y-13497880D01*
X17976878Y-13440737D01*
X17991164Y-13412166D01*
X18005450Y-13397880D01*
X18034021Y-13383594D01*
X18419736Y-13683594D02*
X18248307Y-13683594D01*
X18334021Y-13683594D02*
X18334021Y-13383594D01*
X18305450Y-13426451D01*
X18276878Y-13455023D01*
X18248307Y-13469309D01*
X18591164Y-13512166D02*
X18562593Y-13497880D01*
X18548307Y-13483594D01*
X18534021Y-13455023D01*
X18534021Y-13440737D01*
X18548307Y-13412166D01*
X18562593Y-13397880D01*
X18591164Y-13383594D01*
X18648307Y-13383594D01*
X18676878Y-13397880D01*
X18691164Y-13412166D01*
X18705450Y-13440737D01*
X18705450Y-13455023D01*
X18691164Y-13483594D01*
X18676878Y-13497880D01*
X18648307Y-13512166D01*
X18591164Y-13512166D01*
X18562593Y-13526451D01*
X18548307Y-13540737D01*
X18534021Y-13569309D01*
X18534021Y-13626451D01*
X18548307Y-13655023D01*
X18562593Y-13669309D01*
X18591164Y-13683594D01*
X18648307Y-13683594D01*
X18676878Y-13669309D01*
X18691164Y-13655023D01*
X18705450Y-13626451D01*
X18705450Y-13569309D01*
X18691164Y-13540737D01*
X18676878Y-13526451D01*
X18648307Y-13512166D01*
X18819736Y-13383594D02*
X18819736Y-13440737D01*
X18934021Y-13383594D02*
X18934021Y-13440737D01*
X19376878Y-13797880D02*
X19362593Y-13783594D01*
X19334021Y-13740737D01*
X19319736Y-13712166D01*
X19305450Y-13669309D01*
X19291164Y-13597880D01*
X19291164Y-13540737D01*
X19305450Y-13469309D01*
X19319736Y-13426451D01*
X19334021Y-13397880D01*
X19362593Y-13355023D01*
X19376878Y-13340737D01*
X19476878Y-13412166D02*
X19491164Y-13397880D01*
X19519736Y-13383594D01*
X19591164Y-13383594D01*
X19619736Y-13397880D01*
X19634021Y-13412166D01*
X19648307Y-13440737D01*
X19648307Y-13469309D01*
X19634021Y-13512166D01*
X19462593Y-13683594D01*
X19648307Y-13683594D01*
X20005450Y-13683594D02*
X20005450Y-13383594D01*
X20134021Y-13683594D02*
X20134021Y-13526451D01*
X20119736Y-13497880D01*
X20091164Y-13483594D01*
X20048307Y-13483594D01*
X20019736Y-13497880D01*
X20005450Y-13512166D01*
X20319736Y-13683594D02*
X20291164Y-13669309D01*
X20276878Y-13655023D01*
X20262593Y-13626451D01*
X20262593Y-13540737D01*
X20276878Y-13512166D01*
X20291164Y-13497880D01*
X20319736Y-13483594D01*
X20362593Y-13483594D01*
X20391164Y-13497880D01*
X20405450Y-13512166D01*
X20419736Y-13540737D01*
X20419736Y-13626451D01*
X20405450Y-13655023D01*
X20391164Y-13669309D01*
X20362593Y-13683594D01*
X20319736Y-13683594D01*
X20591164Y-13683594D02*
X20562593Y-13669309D01*
X20548307Y-13640737D01*
X20548307Y-13383594D01*
X20819736Y-13669309D02*
X20791164Y-13683594D01*
X20734021Y-13683594D01*
X20705450Y-13669309D01*
X20691164Y-13640737D01*
X20691164Y-13526451D01*
X20705450Y-13497880D01*
X20734021Y-13483594D01*
X20791164Y-13483594D01*
X20819736Y-13497880D01*
X20834021Y-13526451D01*
X20834021Y-13555023D01*
X20691164Y-13583594D01*
X20948307Y-13669309D02*
X20976879Y-13683594D01*
X21034021Y-13683594D01*
X21062593Y-13669309D01*
X21076879Y-13640737D01*
X21076879Y-13626451D01*
X21062593Y-13597880D01*
X21034021Y-13583594D01*
X20991164Y-13583594D01*
X20962593Y-13569309D01*
X20948307Y-13540737D01*
X20948307Y-13526451D01*
X20962593Y-13497880D01*
X20991164Y-13483594D01*
X21034021Y-13483594D01*
X21062593Y-13497880D01*
X21176878Y-13797880D02*
X21191164Y-13783594D01*
X21219736Y-13740737D01*
X21234021Y-13712166D01*
X21248307Y-13669309D01*
X21262593Y-13597880D01*
X21262593Y-13540737D01*
X21248307Y-13469309D01*
X21234021Y-13426451D01*
X21219736Y-13397880D01*
X21191164Y-13355023D01*
X21176878Y-13340737D01*
M02*
