M48
;DRILL file {KiCad 4.0.5} date 02/22/17 13:46:57
;FORMAT={-:-/ absolute / inch / decimal}
FMAT,2
INCH,TZ
T1C0.011
T2C0.018
%
G90
G05
M72
T1
X5.933Y-4.183
X5.963Y-4.183
X5.963Y-4.213
X6.132Y-4.183
X6.132Y-4.213
X6.162Y-4.183
X6.192Y-4.183
X6.222Y-4.183
X6.252Y-4.183
X6.282Y-4.183
X6.312Y-4.183
X6.3205Y-4.128
X6.342Y-4.183
X6.372Y-4.183
X6.402Y-4.183
X6.432Y-4.183
X6.462Y-4.183
X6.492Y-4.183
X6.522Y-4.183
T2
X5.8776Y-4.5323
X6.2224Y-4.5323
T0
M30
