G04 #@! TF.FileFunction,Copper,L2,Bot,Signal*
%FSLAX46Y46*%
G04 Gerber Fmt 4.6, Leading zero omitted, Abs format (unit mm)*
G04 Created by KiCad (PCBNEW 4.0.5) date 02/24/17 13:47:06*
%MOMM*%
%LPD*%
G01*
G04 APERTURE LIST*
%ADD10C,0.025400*%
%ADD11R,2.420000X5.080000*%
%ADD12C,0.970000*%
%ADD13R,0.460000X0.890000*%
%ADD14C,0.304800*%
%ADD15C,0.127000*%
G04 APERTURE END LIST*
D10*
D11*
X2478000Y3372700D03*
X11238000Y3372700D03*
D12*
X2478000Y6812700D03*
X11238000Y6812700D03*
D13*
X2478000Y6362700D03*
X11238000Y6362700D03*
D14*
X4762500Y26543000D03*
D15*
X18608040Y26733500D02*
X4177500Y26733500D01*
X18608040Y26657300D02*
X4177500Y26657300D01*
X18608040Y26581100D02*
X4177500Y26581100D01*
X18608040Y26504900D02*
X4177500Y26504900D01*
X18608040Y26428700D02*
X4177500Y26428700D01*
X18608040Y26352500D02*
X4177500Y26352500D01*
X18608040Y26276300D02*
X4177500Y26276300D01*
X18608040Y26200100D02*
X4177500Y26200100D01*
X18608040Y26123900D02*
X4177500Y26123900D01*
X18608040Y26047700D02*
X4177500Y26047700D01*
X18608040Y25971500D02*
X4177500Y25971500D01*
X18608040Y25895300D02*
X4177500Y25895300D01*
X18608040Y25819100D02*
X4177500Y25819100D01*
X18608040Y25742900D02*
X4177500Y25742900D01*
X18608040Y25666700D02*
X4177500Y25666700D01*
X18608040Y25590500D02*
X4177500Y25590500D01*
X18608040Y25514300D02*
X4177500Y25514300D01*
X18608040Y25438100D02*
X4177500Y25438100D01*
X18608040Y25361900D02*
X4177500Y25361900D01*
X18608040Y25285700D02*
X4177500Y25285700D01*
X18608040Y25209500D02*
X4177500Y25209500D01*
X18608040Y25133300D02*
X4177500Y25133300D01*
X18608040Y25057100D02*
X4177500Y25057100D01*
X18608040Y24980900D02*
X4177500Y24980900D01*
X18608040Y24904700D02*
X4177500Y24904700D01*
X18608040Y24828500D02*
X4177500Y24828500D01*
X18608040Y24752300D02*
X4177500Y24752300D01*
X18608040Y24676100D02*
X4177500Y24676100D01*
X18608040Y24599900D02*
X4177500Y24599900D01*
X18608040Y24523700D02*
X4177500Y24523700D01*
X18608040Y24447500D02*
X4177500Y24447500D01*
X18608040Y24371300D02*
X4177500Y24371300D01*
X18608040Y24295100D02*
X4177500Y24295100D01*
X18608040Y24218900D02*
X4177500Y24218900D01*
X18608040Y24142700D02*
X4177500Y24142700D01*
X18608040Y24066500D02*
X4177500Y24066500D01*
X18608040Y23990300D02*
X4177500Y23990300D01*
X18608040Y23914100D02*
X4177500Y23914100D01*
X18608040Y23837900D02*
X4177500Y23837900D01*
X18608040Y23761700D02*
X4177500Y23761700D01*
X18608040Y23685500D02*
X4177500Y23685500D01*
X18608040Y23609300D02*
X4177500Y23609300D01*
X18608040Y23533100D02*
X4177500Y23533100D01*
X18608040Y23456900D02*
X4177500Y23456900D01*
X18608040Y23380700D02*
X4177500Y23380700D01*
X18608040Y23304500D02*
X4177500Y23304500D01*
X18608040Y23228300D02*
X4177500Y23228300D01*
X18608040Y23152100D02*
X4177500Y23152100D01*
X18608040Y23075900D02*
X4177500Y23075900D01*
X18608040Y22999700D02*
X4177500Y22999700D01*
X18608040Y22923500D02*
X4177500Y22923500D01*
X18608040Y22847300D02*
X4177500Y22847300D01*
X18608040Y22771100D02*
X4177500Y22771100D01*
X18608040Y22694900D02*
X4177500Y22694900D01*
X18608040Y22618700D02*
X4177500Y22618700D01*
X18608040Y22542500D02*
X4177500Y22542500D01*
X18608040Y22466300D02*
X4177500Y22466300D01*
X18608040Y22390100D02*
X4177500Y22390100D01*
X18608040Y22313900D02*
X4177500Y22313900D01*
X18608040Y22237700D02*
X4177500Y22237700D01*
X18608040Y22161500D02*
X4177500Y22161500D01*
X18608040Y22085300D02*
X4177500Y22085300D01*
X18608040Y22009100D02*
X4177500Y22009100D01*
X18608040Y21932900D02*
X4177500Y21932900D01*
X18608040Y21856700D02*
X4177500Y21856700D01*
X18608040Y21780500D02*
X4177500Y21780500D01*
X18608040Y21704300D02*
X4177500Y21704300D01*
X18608040Y21628100D02*
X4177500Y21628100D01*
X18608040Y21551900D02*
X4177500Y21551900D01*
X18608040Y21475700D02*
X4177500Y21475700D01*
X18608040Y21399500D02*
X4177500Y21399500D01*
X18608040Y21323300D02*
X4177500Y21323300D01*
X18608040Y21247100D02*
X4177500Y21247100D01*
X18608040Y21170900D02*
X4177500Y21170900D01*
X18608040Y21094700D02*
X4177500Y21094700D01*
X18608040Y21018500D02*
X4177500Y21018500D01*
X18608040Y20942300D02*
X4177500Y20942300D01*
X18608040Y20866100D02*
X4177500Y20866100D01*
X18608040Y20789900D02*
X4177500Y20789900D01*
X18608040Y20713700D02*
X4177500Y20713700D01*
X18608040Y20637500D02*
X4177500Y20637500D01*
X18608040Y20561300D02*
X4177500Y20561300D01*
X18608040Y20485100D02*
X4177500Y20485100D01*
X18608040Y20408900D02*
X4177500Y20408900D01*
X18608040Y20332700D02*
X4177500Y20332700D01*
X18608040Y20256500D02*
X4177500Y20256500D01*
X18608040Y20180300D02*
X4177500Y20180300D01*
X18608040Y20104100D02*
X4177500Y20104100D01*
X18608040Y20027900D02*
X4177500Y20027900D01*
X18608040Y19951700D02*
X4177500Y19951700D01*
X18608040Y19875500D02*
X4177500Y19875500D01*
X18608040Y19799300D02*
X4177500Y19799300D01*
X18608040Y19723100D02*
X4177500Y19723100D01*
X18608040Y19646900D02*
X4177500Y19646900D01*
X18608040Y19570700D02*
X4177500Y19570700D01*
X18608040Y19494500D02*
X4177500Y19494500D01*
X18608040Y19418300D02*
X4177500Y19418300D01*
X18608040Y19342100D02*
X4177500Y19342100D01*
X18608040Y19265900D02*
X4177500Y19265900D01*
X18608040Y19189700D02*
X4177500Y19189700D01*
X18608040Y19113500D02*
X4177500Y19113500D01*
X18608040Y19037300D02*
X4177500Y19037300D01*
X18608040Y18961100D02*
X4177500Y18961100D01*
X18608040Y18884900D02*
X4177500Y18884900D01*
X18608040Y18808700D02*
X4177500Y18808700D01*
X18608040Y18732500D02*
X4177500Y18732500D01*
X18608040Y18656300D02*
X4177500Y18656300D01*
X18608040Y18580100D02*
X4177500Y18580100D01*
X18608040Y18503900D02*
X4177500Y18503900D01*
X18608040Y18427700D02*
X4177500Y18427700D01*
X18608040Y18351500D02*
X4177500Y18351500D01*
X18608040Y18275300D02*
X4177500Y18275300D01*
X18608040Y18199100D02*
X4177500Y18199100D01*
X18608040Y18122900D02*
X4177500Y18122900D01*
X18608040Y18046700D02*
X4177500Y18046700D01*
X18608040Y17970500D02*
X4177500Y17970500D01*
X18608040Y17894300D02*
X4177500Y17894300D01*
X18608040Y17818100D02*
X4177500Y17818100D01*
X18608040Y17741900D02*
X4177500Y17741900D01*
X18608040Y17665700D02*
X4177500Y17665700D01*
X18608040Y17589500D02*
X4177500Y17589500D01*
X18608040Y17513300D02*
X4177500Y17513300D01*
X18608040Y17437100D02*
X4177500Y17437100D01*
X18608040Y17360900D02*
X4177500Y17360900D01*
X18608040Y17284700D02*
X4177500Y17284700D01*
X18608040Y17208500D02*
X4177500Y17208500D01*
X18608040Y17132300D02*
X4177500Y17132300D01*
X18608040Y17056100D02*
X4177500Y17056100D01*
X18608040Y16979900D02*
X4177500Y16979900D01*
X18608040Y16903700D02*
X4177500Y16903700D01*
X18608040Y16827500D02*
X4177500Y16827500D01*
X18608040Y16751300D02*
X4177500Y16751300D01*
X18608040Y16675100D02*
X4177500Y16675100D01*
X18608040Y16598900D02*
X4177500Y16598900D01*
X18608040Y16522700D02*
X4177500Y16522700D01*
X18608040Y16446500D02*
X4177500Y16446500D01*
X18608040Y16370300D02*
X4177500Y16370300D01*
X18608040Y16294100D02*
X4177500Y16294100D01*
X18608040Y16217900D02*
X4177500Y16217900D01*
X18608040Y16141700D02*
X4177500Y16141700D01*
X18608040Y16065500D02*
X4177500Y16065500D01*
X18608040Y15989300D02*
X4177500Y15989300D01*
X18608040Y15913100D02*
X4177500Y15913100D01*
X18608040Y15836900D02*
X4177500Y15836900D01*
X18608040Y15760700D02*
X4177500Y15760700D01*
X18608040Y15684500D02*
X4177500Y15684500D01*
X18608040Y15608300D02*
X4177500Y15608300D01*
X18608040Y15532100D02*
X4177500Y15532100D01*
X18608040Y15455900D02*
X4177500Y15455900D01*
X18608040Y15379700D02*
X4177500Y15379700D01*
X18608040Y15303500D02*
X4177500Y15303500D01*
X18608040Y15227300D02*
X4177500Y15227300D01*
X18608040Y15151100D02*
X4177500Y15151100D01*
X18608040Y15074900D02*
X4177500Y15074900D01*
X18608040Y14998700D02*
X4177500Y14998700D01*
X18608040Y14922500D02*
X4177500Y14922500D01*
X18608040Y14846300D02*
X4177500Y14846300D01*
X18608040Y14770100D02*
X4177500Y14770100D01*
X18608040Y14693900D02*
X4177500Y14693900D01*
X18608040Y14617700D02*
X4177500Y14617700D01*
X18608040Y14541500D02*
X4177500Y14541500D01*
X18608040Y14465300D02*
X4177500Y14465300D01*
X18608040Y14389100D02*
X4177500Y14389100D01*
X18608040Y14312900D02*
X4177500Y14312900D01*
X18608040Y14236700D02*
X4177500Y14236700D01*
X18608040Y14160500D02*
X4177500Y14160500D01*
X18608040Y14084300D02*
X4177500Y14084300D01*
X18608040Y14008100D02*
X4177500Y14008100D01*
X18608040Y13931900D02*
X4177500Y13931900D01*
X18608040Y13855700D02*
X4177500Y13855700D01*
X18608040Y13779500D02*
X4177500Y13779500D01*
X18608040Y13703300D02*
X4177500Y13703300D01*
X18608040Y13627100D02*
X4177500Y13627100D01*
X18608040Y13550900D02*
X4177500Y13550900D01*
X18608040Y13474700D02*
X4177500Y13474700D01*
X18608040Y13398500D02*
X4177500Y13398500D01*
X18608040Y13322300D02*
X4177500Y13322300D01*
X18608040Y13246100D02*
X4177500Y13246100D01*
X18608040Y13169900D02*
X4177500Y13169900D01*
X18608040Y13093700D02*
X4177500Y13093700D01*
X18608040Y13017500D02*
X4164869Y13017500D01*
X18608040Y12941300D02*
X4149712Y12941300D01*
X18608040Y12865100D02*
X4099236Y12865100D01*
X18608040Y12788900D02*
X4037624Y12788900D01*
X18608040Y12712700D02*
X3961424Y12712700D01*
X18608040Y12636500D02*
X3885224Y12636500D01*
X18608040Y12560300D02*
X3809024Y12560300D01*
X18608040Y12484100D02*
X3732824Y12484100D01*
X18608040Y12407900D02*
X3656624Y12407900D01*
X18608040Y12331700D02*
X3580424Y12331700D01*
X18608040Y12255500D02*
X3504224Y12255500D01*
X18608040Y12179300D02*
X3428024Y12179300D01*
X18608040Y12103100D02*
X3351824Y12103100D01*
X18608040Y12026900D02*
X3275624Y12026900D01*
X18608040Y11950700D02*
X3199424Y11950700D01*
X18608040Y11874500D02*
X3123224Y11874500D01*
X18608040Y11798300D02*
X3047024Y11798300D01*
X18608040Y11722100D02*
X2970824Y11722100D01*
X18608040Y11645900D02*
X2894624Y11645900D01*
X18608040Y11569700D02*
X2818424Y11569700D01*
X18608040Y11493500D02*
X2742224Y11493500D01*
X18608040Y11417300D02*
X2666024Y11417300D01*
X18608040Y11341100D02*
X2589824Y11341100D01*
X18608040Y11264900D02*
X2513624Y11264900D01*
X18608040Y11188700D02*
X2437424Y11188700D01*
X18608040Y11112500D02*
X2361224Y11112500D01*
X18608040Y11036300D02*
X2285024Y11036300D01*
X18608040Y10960100D02*
X2208824Y10960100D01*
X18608040Y10883900D02*
X2132624Y10883900D01*
X18608040Y10807700D02*
X2056424Y10807700D01*
X18608040Y10731500D02*
X1980224Y10731500D01*
X18608040Y10655300D02*
X1904024Y10655300D01*
X18608040Y10579100D02*
X1827824Y10579100D01*
X18608040Y10502900D02*
X1751624Y10502900D01*
X18608040Y10426700D02*
X1675424Y10426700D01*
X18608040Y10350500D02*
X1599224Y10350500D01*
X18608040Y10274300D02*
X1523024Y10274300D01*
X18608040Y10198100D02*
X1446824Y10198100D01*
X18608040Y10121900D02*
X1370624Y10121900D01*
X18608040Y10045700D02*
X1294424Y10045700D01*
X18608040Y9969500D02*
X1218224Y9969500D01*
X18608040Y9893300D02*
X1142024Y9893300D01*
X18608040Y9817100D02*
X1065824Y9817100D01*
X18608040Y9740900D02*
X989624Y9740900D01*
X18608040Y9664700D02*
X913424Y9664700D01*
X18608040Y9588500D02*
X837224Y9588500D01*
X18608040Y9512300D02*
X761024Y9512300D01*
X18608040Y9436100D02*
X684824Y9436100D01*
X18608040Y9359900D02*
X608624Y9359900D01*
X18608040Y9283700D02*
X532424Y9283700D01*
X18608040Y9207500D02*
X456224Y9207500D01*
X18608040Y9131300D02*
X380024Y9131300D01*
X18608040Y9055100D02*
X367500Y9055100D01*
X18608040Y8978900D02*
X367500Y8978900D01*
X18608040Y8902700D02*
X367500Y8902700D01*
X18608040Y8826500D02*
X367500Y8826500D01*
X18608040Y8750300D02*
X367500Y8750300D01*
X18608040Y8674100D02*
X367500Y8674100D01*
X18608040Y8597900D02*
X367500Y8597900D01*
X18608040Y8521700D02*
X367500Y8521700D01*
X18608040Y8445500D02*
X367500Y8445500D01*
X18608040Y8369300D02*
X367500Y8369300D01*
X18608040Y8293100D02*
X367500Y8293100D01*
X18608040Y8216900D02*
X367500Y8216900D01*
X18608040Y8140700D02*
X367500Y8140700D01*
X18608040Y8064500D02*
X367500Y8064500D01*
X18608040Y7988300D02*
X367500Y7988300D01*
X18608040Y7912100D02*
X367500Y7912100D01*
X18608040Y7835900D02*
X367500Y7835900D01*
X18608040Y7759700D02*
X367500Y7759700D01*
X18608040Y7683500D02*
X367500Y7683500D01*
X18608040Y7607300D02*
X367500Y7607300D01*
X18608040Y7531100D02*
X367500Y7531100D01*
X18608040Y7454900D02*
X367500Y7454900D01*
X18608040Y7378700D02*
X367500Y7378700D01*
X18608040Y7302500D02*
X367500Y7302500D01*
X18608040Y7226300D02*
X367500Y7226300D01*
X18608040Y7150100D02*
X367500Y7150100D01*
X18608040Y7073900D02*
X367500Y7073900D01*
X18608040Y6997700D02*
X367500Y6997700D01*
X18608040Y6921500D02*
X367500Y6921500D01*
X18608040Y6845300D02*
X367500Y6845300D01*
X18608040Y6769100D02*
X367500Y6769100D01*
X18608040Y6692900D02*
X367500Y6692900D01*
X18608040Y6616700D02*
X367500Y6616700D01*
X18608040Y6540500D02*
X367500Y6540500D01*
X18608040Y6464300D02*
X367500Y6464300D01*
X18608040Y6388100D02*
X367500Y6388100D01*
X18608040Y6311900D02*
X367500Y6311900D01*
X18608040Y6235700D02*
X367500Y6235700D01*
X18608040Y6159500D02*
X367500Y6159500D01*
X18608040Y6083300D02*
X367500Y6083300D01*
X18608040Y6007100D02*
X367500Y6007100D01*
X18608040Y5930900D02*
X367500Y5930900D01*
X18608040Y5854700D02*
X367500Y5854700D01*
X18608040Y5778500D02*
X367500Y5778500D01*
X18608040Y5702300D02*
X367500Y5702300D01*
X18608040Y5626100D02*
X367500Y5626100D01*
X18608040Y5549900D02*
X367500Y5549900D01*
X18608040Y5473700D02*
X367500Y5473700D01*
X18608040Y5397500D02*
X367500Y5397500D01*
X18608040Y5321300D02*
X367500Y5321300D01*
X18608040Y5245100D02*
X367500Y5245100D01*
X18608040Y5168900D02*
X367500Y5168900D01*
X18608040Y5092700D02*
X367500Y5092700D01*
X18608040Y5016500D02*
X367500Y5016500D01*
X18608040Y4940300D02*
X367500Y4940300D01*
X18608040Y4864100D02*
X367500Y4864100D01*
X18608040Y4787900D02*
X367500Y4787900D01*
X18608040Y4711700D02*
X367500Y4711700D01*
X18608040Y4635500D02*
X367500Y4635500D01*
X18608040Y4559300D02*
X367500Y4559300D01*
X18608040Y4483100D02*
X367500Y4483100D01*
X18608040Y4406900D02*
X367500Y4406900D01*
X18608040Y4330700D02*
X367500Y4330700D01*
X18608040Y4254500D02*
X367500Y4254500D01*
X18608040Y4178300D02*
X367500Y4178300D01*
X18608040Y4102100D02*
X367500Y4102100D01*
X18608040Y4025900D02*
X367500Y4025900D01*
X18608040Y3949700D02*
X367500Y3949700D01*
X18608040Y3873500D02*
X367500Y3873500D01*
X18608040Y3797300D02*
X367500Y3797300D01*
X18608040Y3721100D02*
X367500Y3721100D01*
X18608040Y3644900D02*
X367500Y3644900D01*
X18608040Y3568700D02*
X367500Y3568700D01*
X18608040Y3492500D02*
X367500Y3492500D01*
X18608040Y3416300D02*
X367500Y3416300D01*
X18608040Y3340100D02*
X367500Y3340100D01*
X18608040Y3263900D02*
X367500Y3263900D01*
X18608040Y3187700D02*
X367500Y3187700D01*
X18608040Y3111500D02*
X367500Y3111500D01*
X18608040Y3035300D02*
X367500Y3035300D01*
X18608040Y2959100D02*
X367500Y2959100D01*
X18608040Y2882900D02*
X367500Y2882900D01*
X18608040Y2806700D02*
X367500Y2806700D01*
X18608040Y2730500D02*
X367500Y2730500D01*
X18608040Y2654300D02*
X367500Y2654300D01*
X18608040Y2578100D02*
X367500Y2578100D01*
X18608040Y2501900D02*
X367500Y2501900D01*
X18608040Y2425700D02*
X367500Y2425700D01*
X18608040Y2349500D02*
X367500Y2349500D01*
X18608040Y2273300D02*
X367500Y2273300D01*
X18608040Y2197100D02*
X367500Y2197100D01*
X18608040Y2120900D02*
X367500Y2120900D01*
X18608040Y2044700D02*
X367500Y2044700D01*
X18608040Y1968500D02*
X367500Y1968500D01*
X18608040Y1892300D02*
X367500Y1892300D01*
X18608040Y1816100D02*
X367500Y1816100D01*
X18608040Y1739900D02*
X367500Y1739900D01*
X18608040Y1663700D02*
X367500Y1663700D01*
X18608040Y1587500D02*
X367500Y1587500D01*
X18608040Y1511300D02*
X367500Y1511300D01*
X18608040Y1435100D02*
X367500Y1435100D01*
X18608040Y1358900D02*
X367500Y1358900D01*
X18608040Y1282700D02*
X367500Y1282700D01*
X18608040Y1206500D02*
X367500Y1206500D01*
X18608040Y1130300D02*
X367500Y1130300D01*
X18608040Y1054100D02*
X367500Y1054100D01*
X18608040Y977900D02*
X367500Y977900D01*
X18608040Y901700D02*
X367500Y901700D01*
X18608040Y825500D02*
X367500Y825500D01*
X18608040Y749300D02*
X367500Y749300D01*
X18608040Y673100D02*
X367500Y673100D01*
X18608040Y596900D02*
X367500Y596900D01*
X18608040Y520700D02*
X367500Y520700D01*
X18608040Y444500D02*
X367500Y444500D01*
X18608040Y368300D02*
X367500Y368300D01*
X18608040Y365760D02*
X367500Y365760D01*
X367500Y9118776D01*
X4069862Y12821138D01*
X4149526Y12940364D01*
X4177501Y13081000D01*
X4177500Y13081005D01*
X4177500Y26733500D01*
X18608040Y26733500D01*
X18608040Y365760D01*
M02*
