%FSLAX45Y45*%
G04 Gerber Fmt 4.5, Leading zero omitted, Abs format (unit mm)*
G04 Created by KiCad (PCBNEW 4.0.5) date 02/24/17 03:06:42*
%MOMM*%
%LPD*%
G01*
G04 APERTURE LIST*
%ADD10C,0.127000*%
%ADD11C,0.200000*%
%ADD12C,0.300000*%
G04 APERTURE END LIST*
D10*
D11*
X102870Y1503680D02*
X128270Y1478280D01*
X128270Y1503680D02*
X102870Y1478280D01*
X102870Y1181100D02*
X128270Y1155700D01*
X128270Y1181100D02*
X102870Y1155700D01*
X458470Y1503680D02*
X483870Y1478280D01*
X483870Y1503680D02*
X458470Y1478280D01*
X458470Y1181100D02*
X483870Y1155700D01*
X483870Y1181100D02*
X458470Y1155700D01*
X814070Y1503680D02*
X839470Y1478280D01*
X839470Y1503680D02*
X814070Y1478280D01*
X814070Y1181100D02*
X839470Y1155700D01*
X839470Y1181100D02*
X814070Y1155700D01*
X1169670Y1503680D02*
X1195070Y1478280D01*
X1195070Y1503680D02*
X1169670Y1478280D01*
X1169670Y1181100D02*
X1195070Y1155700D01*
X1195070Y1181100D02*
X1169670Y1155700D01*
X1718310Y1503680D02*
X1743710Y1478280D01*
X1743710Y1503680D02*
X1718310Y1478280D01*
X1718310Y1181100D02*
X1743710Y1155700D01*
X1743710Y1181100D02*
X1718310Y1155700D01*
X982000Y648250D02*
G75*
G03X982000Y648250I-23000J0D01*
G01*
X1858000Y648250D02*
G75*
G03X1858000Y648250I-23000J0D01*
G01*
D12*
X-12692731Y10982066D02*
X-12692731Y11282066D01*
X-12621303Y11282066D01*
X-12578446Y11267780D01*
X-12549874Y11239209D01*
X-12535589Y11210637D01*
X-12521303Y11153494D01*
X-12521303Y11110637D01*
X-12535589Y11053494D01*
X-12549874Y11024923D01*
X-12578446Y10996351D01*
X-12621303Y10982066D01*
X-12692731Y10982066D01*
X-12392731Y10982066D02*
X-12392731Y11182066D01*
X-12392731Y11124923D02*
X-12378446Y11153494D01*
X-12364160Y11167780D01*
X-12335589Y11182066D01*
X-12307017Y11182066D01*
X-12207017Y10982066D02*
X-12207017Y11182066D01*
X-12207017Y11282066D02*
X-12221303Y11267780D01*
X-12207017Y11253494D01*
X-12192731Y11267780D01*
X-12207017Y11282066D01*
X-12207017Y11253494D01*
X-12021303Y10982066D02*
X-12049874Y10996351D01*
X-12064160Y11024923D01*
X-12064160Y11282066D01*
X-11864160Y10982066D02*
X-11892731Y10996351D01*
X-11907017Y11024923D01*
X-11907017Y11282066D01*
X-11521303Y10982066D02*
X-11521303Y11282066D01*
X-11421303Y11067780D01*
X-11321303Y11282066D01*
X-11321303Y10982066D01*
X-11049874Y10982066D02*
X-11049874Y11139209D01*
X-11064160Y11167780D01*
X-11092731Y11182066D01*
X-11149874Y11182066D01*
X-11178446Y11167780D01*
X-11049874Y10996351D02*
X-11078446Y10982066D01*
X-11149874Y10982066D01*
X-11178446Y10996351D01*
X-11192731Y11024923D01*
X-11192731Y11053494D01*
X-11178446Y11082066D01*
X-11149874Y11096351D01*
X-11078446Y11096351D01*
X-11049874Y11110637D01*
X-10907017Y11182066D02*
X-10907017Y10882066D01*
X-10907017Y11167780D02*
X-10878446Y11182066D01*
X-10821303Y11182066D01*
X-10792731Y11167780D01*
X-10778446Y11153494D01*
X-10764160Y11124923D01*
X-10764160Y11039209D01*
X-10778446Y11010637D01*
X-10792731Y10996351D01*
X-10821303Y10982066D01*
X-10878446Y10982066D01*
X-10907017Y10996351D01*
X-10635589Y11010637D02*
X-10621303Y10996351D01*
X-10635589Y10982066D01*
X-10649874Y10996351D01*
X-10635589Y11010637D01*
X-10635589Y10982066D01*
X-10635589Y11167780D02*
X-10621303Y11153494D01*
X-10635589Y11139209D01*
X-10649874Y11153494D01*
X-10635589Y11167780D01*
X-10635589Y11139209D01*
X-12989560Y10500480D02*
X-12964160Y10475080D01*
X-12964160Y10500480D02*
X-12989560Y10475080D01*
X-12635589Y10652066D02*
X-12607017Y10652066D01*
X-12578446Y10637780D01*
X-12564160Y10623494D01*
X-12549874Y10594923D01*
X-12535589Y10537780D01*
X-12535589Y10466351D01*
X-12549874Y10409209D01*
X-12564160Y10380637D01*
X-12578446Y10366351D01*
X-12607017Y10352066D01*
X-12635589Y10352066D01*
X-12664160Y10366351D01*
X-12678446Y10380637D01*
X-12692731Y10409209D01*
X-12707017Y10466351D01*
X-12707017Y10537780D01*
X-12692731Y10594923D01*
X-12678446Y10623494D01*
X-12664160Y10637780D01*
X-12635589Y10652066D01*
X-12407017Y10380637D02*
X-12392731Y10366351D01*
X-12407017Y10352066D01*
X-12421303Y10366351D01*
X-12407017Y10380637D01*
X-12407017Y10352066D01*
X-12278446Y10623494D02*
X-12264160Y10637780D01*
X-12235589Y10652066D01*
X-12164160Y10652066D01*
X-12135589Y10637780D01*
X-12121303Y10623494D01*
X-12107017Y10594923D01*
X-12107017Y10566351D01*
X-12121303Y10523494D01*
X-12292731Y10352066D01*
X-12107017Y10352066D01*
X-11835589Y10652066D02*
X-11978446Y10652066D01*
X-11992731Y10509209D01*
X-11978446Y10523494D01*
X-11949874Y10537780D01*
X-11878446Y10537780D01*
X-11849874Y10523494D01*
X-11835589Y10509209D01*
X-11821303Y10480637D01*
X-11821303Y10409209D01*
X-11835589Y10380637D01*
X-11849874Y10366351D01*
X-11878446Y10352066D01*
X-11949874Y10352066D01*
X-11978446Y10366351D01*
X-11992731Y10380637D01*
X-11692731Y10352066D02*
X-11692731Y10552066D01*
X-11692731Y10523494D02*
X-11678446Y10537780D01*
X-11649874Y10552066D01*
X-11607017Y10552066D01*
X-11578446Y10537780D01*
X-11564160Y10509209D01*
X-11564160Y10352066D01*
X-11564160Y10509209D02*
X-11549874Y10537780D01*
X-11521303Y10552066D01*
X-11478446Y10552066D01*
X-11449874Y10537780D01*
X-11435589Y10509209D01*
X-11435589Y10352066D01*
X-11292731Y10352066D02*
X-11292731Y10552066D01*
X-11292731Y10523494D02*
X-11278446Y10537780D01*
X-11249874Y10552066D01*
X-11207017Y10552066D01*
X-11178446Y10537780D01*
X-11164160Y10509209D01*
X-11164160Y10352066D01*
X-11164160Y10509209D02*
X-11149874Y10537780D01*
X-11121303Y10552066D01*
X-11078446Y10552066D01*
X-11049874Y10537780D01*
X-11035589Y10509209D01*
X-11035589Y10352066D01*
X-10449874Y10666351D02*
X-10707017Y10280637D01*
X-10064160Y10652066D02*
X-10035589Y10652066D01*
X-10007017Y10637780D01*
X-9992732Y10623494D01*
X-9978446Y10594923D01*
X-9964160Y10537780D01*
X-9964160Y10466351D01*
X-9978446Y10409209D01*
X-9992732Y10380637D01*
X-10007017Y10366351D01*
X-10035589Y10352066D01*
X-10064160Y10352066D01*
X-10092732Y10366351D01*
X-10107017Y10380637D01*
X-10121303Y10409209D01*
X-10135589Y10466351D01*
X-10135589Y10537780D01*
X-10121303Y10594923D01*
X-10107017Y10623494D01*
X-10092732Y10637780D01*
X-10064160Y10652066D01*
X-9835589Y10380637D02*
X-9821303Y10366351D01*
X-9835589Y10352066D01*
X-9849874Y10366351D01*
X-9835589Y10380637D01*
X-9835589Y10352066D01*
X-9635589Y10652066D02*
X-9607017Y10652066D01*
X-9578446Y10637780D01*
X-9564160Y10623494D01*
X-9549874Y10594923D01*
X-9535589Y10537780D01*
X-9535589Y10466351D01*
X-9549874Y10409209D01*
X-9564160Y10380637D01*
X-9578446Y10366351D01*
X-9607017Y10352066D01*
X-9635589Y10352066D01*
X-9664160Y10366351D01*
X-9678446Y10380637D01*
X-9692732Y10409209D01*
X-9707017Y10466351D01*
X-9707017Y10537780D01*
X-9692732Y10594923D01*
X-9678446Y10623494D01*
X-9664160Y10637780D01*
X-9635589Y10652066D01*
X-9249874Y10352066D02*
X-9421303Y10352066D01*
X-9335589Y10352066D02*
X-9335589Y10652066D01*
X-9364160Y10609209D01*
X-9392732Y10580637D01*
X-9421303Y10566351D01*
X-9064160Y10652066D02*
X-9035589Y10652066D01*
X-9007017Y10637780D01*
X-8992732Y10623494D01*
X-8978446Y10594923D01*
X-8964160Y10537780D01*
X-8964160Y10466351D01*
X-8978446Y10409209D01*
X-8992732Y10380637D01*
X-9007017Y10366351D01*
X-9035589Y10352066D01*
X-9064160Y10352066D01*
X-9092732Y10366351D01*
X-9107017Y10380637D01*
X-9121303Y10409209D01*
X-9135589Y10466351D01*
X-9135589Y10537780D01*
X-9121303Y10594923D01*
X-9107017Y10623494D01*
X-9092732Y10637780D01*
X-9064160Y10652066D01*
X-8849874Y10652066D02*
X-8849874Y10594923D01*
X-8735589Y10652066D02*
X-8735589Y10594923D01*
X-8292731Y10237780D02*
X-8307017Y10252066D01*
X-8335589Y10294923D01*
X-8349874Y10323494D01*
X-8364160Y10366351D01*
X-8378446Y10437780D01*
X-8378446Y10494923D01*
X-8364160Y10566351D01*
X-8349874Y10609209D01*
X-8335589Y10637780D01*
X-8307017Y10680637D01*
X-8292731Y10694923D01*
X-8021303Y10352066D02*
X-8192731Y10352066D01*
X-8107017Y10352066D02*
X-8107017Y10652066D01*
X-8135589Y10609209D01*
X-8164160Y10580637D01*
X-8192731Y10566351D01*
X-7835589Y10652066D02*
X-7807017Y10652066D01*
X-7778446Y10637780D01*
X-7764160Y10623494D01*
X-7749874Y10594923D01*
X-7735589Y10537780D01*
X-7735589Y10466351D01*
X-7749874Y10409209D01*
X-7764160Y10380637D01*
X-7778446Y10366351D01*
X-7807017Y10352066D01*
X-7835589Y10352066D01*
X-7864160Y10366351D01*
X-7878446Y10380637D01*
X-7892731Y10409209D01*
X-7907017Y10466351D01*
X-7907017Y10537780D01*
X-7892731Y10594923D01*
X-7878446Y10623494D01*
X-7864160Y10637780D01*
X-7835589Y10652066D01*
X-7378446Y10352066D02*
X-7378446Y10652066D01*
X-7249874Y10352066D02*
X-7249874Y10509209D01*
X-7264160Y10537780D01*
X-7292731Y10552066D01*
X-7335589Y10552066D01*
X-7364160Y10537780D01*
X-7378446Y10523494D01*
X-7064160Y10352066D02*
X-7092731Y10366351D01*
X-7107017Y10380637D01*
X-7121303Y10409209D01*
X-7121303Y10494923D01*
X-7107017Y10523494D01*
X-7092731Y10537780D01*
X-7064160Y10552066D01*
X-7021303Y10552066D01*
X-6992731Y10537780D01*
X-6978446Y10523494D01*
X-6964160Y10494923D01*
X-6964160Y10409209D01*
X-6978446Y10380637D01*
X-6992731Y10366351D01*
X-7021303Y10352066D01*
X-7064160Y10352066D01*
X-6792731Y10352066D02*
X-6821303Y10366351D01*
X-6835589Y10394923D01*
X-6835589Y10652066D01*
X-6564160Y10366351D02*
X-6592731Y10352066D01*
X-6649874Y10352066D01*
X-6678446Y10366351D01*
X-6692731Y10394923D01*
X-6692731Y10509209D01*
X-6678446Y10537780D01*
X-6649874Y10552066D01*
X-6592731Y10552066D01*
X-6564160Y10537780D01*
X-6549874Y10509209D01*
X-6549874Y10480637D01*
X-6692731Y10452066D01*
X-6435588Y10366351D02*
X-6407017Y10352066D01*
X-6349874Y10352066D01*
X-6321303Y10366351D01*
X-6307017Y10394923D01*
X-6307017Y10409209D01*
X-6321303Y10437780D01*
X-6349874Y10452066D01*
X-6392731Y10452066D01*
X-6421303Y10466351D01*
X-6435588Y10494923D01*
X-6435588Y10509209D01*
X-6421303Y10537780D01*
X-6392731Y10552066D01*
X-6349874Y10552066D01*
X-6321303Y10537780D01*
X-6207017Y10237780D02*
X-6192731Y10252066D01*
X-6164160Y10294923D01*
X-6149874Y10323494D01*
X-6135589Y10366351D01*
X-6121303Y10437780D01*
X-6121303Y10494923D01*
X-6135589Y10566351D01*
X-6149874Y10609209D01*
X-6164160Y10637780D01*
X-6192731Y10680637D01*
X-6207017Y10694923D01*
X-12964160Y10091780D02*
G75*
G03X-12964160Y10091780I-23000J0D01*
G01*
X-12635589Y10256066D02*
X-12607017Y10256066D01*
X-12578446Y10241780D01*
X-12564160Y10227494D01*
X-12549874Y10198923D01*
X-12535589Y10141780D01*
X-12535589Y10070351D01*
X-12549874Y10013209D01*
X-12564160Y9984637D01*
X-12578446Y9970351D01*
X-12607017Y9956066D01*
X-12635589Y9956066D01*
X-12664160Y9970351D01*
X-12678446Y9984637D01*
X-12692731Y10013209D01*
X-12707017Y10070351D01*
X-12707017Y10141780D01*
X-12692731Y10198923D01*
X-12678446Y10227494D01*
X-12664160Y10241780D01*
X-12635589Y10256066D01*
X-12407017Y9984637D02*
X-12392731Y9970351D01*
X-12407017Y9956066D01*
X-12421303Y9970351D01*
X-12407017Y9984637D01*
X-12407017Y9956066D01*
X-12135589Y10156066D02*
X-12135589Y9956066D01*
X-12207017Y10270351D02*
X-12278446Y10056066D01*
X-12092731Y10056066D01*
X-11849874Y10256066D02*
X-11907017Y10256066D01*
X-11935589Y10241780D01*
X-11949874Y10227494D01*
X-11978446Y10184637D01*
X-11992731Y10127494D01*
X-11992731Y10013209D01*
X-11978446Y9984637D01*
X-11964160Y9970351D01*
X-11935589Y9956066D01*
X-11878446Y9956066D01*
X-11849874Y9970351D01*
X-11835589Y9984637D01*
X-11821303Y10013209D01*
X-11821303Y10084637D01*
X-11835589Y10113209D01*
X-11849874Y10127494D01*
X-11878446Y10141780D01*
X-11935589Y10141780D01*
X-11964160Y10127494D01*
X-11978446Y10113209D01*
X-11992731Y10084637D01*
X-11692731Y9956066D02*
X-11692731Y10156066D01*
X-11692731Y10127494D02*
X-11678446Y10141780D01*
X-11649874Y10156066D01*
X-11607017Y10156066D01*
X-11578446Y10141780D01*
X-11564160Y10113209D01*
X-11564160Y9956066D01*
X-11564160Y10113209D02*
X-11549874Y10141780D01*
X-11521303Y10156066D01*
X-11478446Y10156066D01*
X-11449874Y10141780D01*
X-11435589Y10113209D01*
X-11435589Y9956066D01*
X-11292731Y9956066D02*
X-11292731Y10156066D01*
X-11292731Y10127494D02*
X-11278446Y10141780D01*
X-11249874Y10156066D01*
X-11207017Y10156066D01*
X-11178446Y10141780D01*
X-11164160Y10113209D01*
X-11164160Y9956066D01*
X-11164160Y10113209D02*
X-11149874Y10141780D01*
X-11121303Y10156066D01*
X-11078446Y10156066D01*
X-11049874Y10141780D01*
X-11035589Y10113209D01*
X-11035589Y9956066D01*
X-10449874Y10270351D02*
X-10707017Y9884637D01*
X-10064160Y10256066D02*
X-10035589Y10256066D01*
X-10007017Y10241780D01*
X-9992732Y10227494D01*
X-9978446Y10198923D01*
X-9964160Y10141780D01*
X-9964160Y10070351D01*
X-9978446Y10013209D01*
X-9992732Y9984637D01*
X-10007017Y9970351D01*
X-10035589Y9956066D01*
X-10064160Y9956066D01*
X-10092732Y9970351D01*
X-10107017Y9984637D01*
X-10121303Y10013209D01*
X-10135589Y10070351D01*
X-10135589Y10141780D01*
X-10121303Y10198923D01*
X-10107017Y10227494D01*
X-10092732Y10241780D01*
X-10064160Y10256066D01*
X-9835589Y9984637D02*
X-9821303Y9970351D01*
X-9835589Y9956066D01*
X-9849874Y9970351D01*
X-9835589Y9984637D01*
X-9835589Y9956066D01*
X-9635589Y10256066D02*
X-9607017Y10256066D01*
X-9578446Y10241780D01*
X-9564160Y10227494D01*
X-9549874Y10198923D01*
X-9535589Y10141780D01*
X-9535589Y10070351D01*
X-9549874Y10013209D01*
X-9564160Y9984637D01*
X-9578446Y9970351D01*
X-9607017Y9956066D01*
X-9635589Y9956066D01*
X-9664160Y9970351D01*
X-9678446Y9984637D01*
X-9692732Y10013209D01*
X-9707017Y10070351D01*
X-9707017Y10141780D01*
X-9692732Y10198923D01*
X-9678446Y10227494D01*
X-9664160Y10241780D01*
X-9635589Y10256066D01*
X-9249874Y9956066D02*
X-9421303Y9956066D01*
X-9335589Y9956066D02*
X-9335589Y10256066D01*
X-9364160Y10213209D01*
X-9392732Y10184637D01*
X-9421303Y10170351D01*
X-9078446Y10127494D02*
X-9107017Y10141780D01*
X-9121303Y10156066D01*
X-9135589Y10184637D01*
X-9135589Y10198923D01*
X-9121303Y10227494D01*
X-9107017Y10241780D01*
X-9078446Y10256066D01*
X-9021303Y10256066D01*
X-8992732Y10241780D01*
X-8978446Y10227494D01*
X-8964160Y10198923D01*
X-8964160Y10184637D01*
X-8978446Y10156066D01*
X-8992732Y10141780D01*
X-9021303Y10127494D01*
X-9078446Y10127494D01*
X-9107017Y10113209D01*
X-9121303Y10098923D01*
X-9135589Y10070351D01*
X-9135589Y10013209D01*
X-9121303Y9984637D01*
X-9107017Y9970351D01*
X-9078446Y9956066D01*
X-9021303Y9956066D01*
X-8992732Y9970351D01*
X-8978446Y9984637D01*
X-8964160Y10013209D01*
X-8964160Y10070351D01*
X-8978446Y10098923D01*
X-8992732Y10113209D01*
X-9021303Y10127494D01*
X-8849874Y10256066D02*
X-8849874Y10198923D01*
X-8735589Y10256066D02*
X-8735589Y10198923D01*
X-8292731Y9841780D02*
X-8307017Y9856066D01*
X-8335589Y9898923D01*
X-8349874Y9927494D01*
X-8364160Y9970351D01*
X-8378446Y10041780D01*
X-8378446Y10098923D01*
X-8364160Y10170351D01*
X-8349874Y10213209D01*
X-8335589Y10241780D01*
X-8307017Y10284637D01*
X-8292731Y10298923D01*
X-8192731Y10227494D02*
X-8178446Y10241780D01*
X-8149874Y10256066D01*
X-8078446Y10256066D01*
X-8049874Y10241780D01*
X-8035589Y10227494D01*
X-8021303Y10198923D01*
X-8021303Y10170351D01*
X-8035589Y10127494D01*
X-8207017Y9956066D01*
X-8021303Y9956066D01*
X-7664160Y9956066D02*
X-7664160Y10256066D01*
X-7535589Y9956066D02*
X-7535589Y10113209D01*
X-7549874Y10141780D01*
X-7578446Y10156066D01*
X-7621303Y10156066D01*
X-7649874Y10141780D01*
X-7664160Y10127494D01*
X-7349874Y9956066D02*
X-7378446Y9970351D01*
X-7392731Y9984637D01*
X-7407017Y10013209D01*
X-7407017Y10098923D01*
X-7392731Y10127494D01*
X-7378446Y10141780D01*
X-7349874Y10156066D01*
X-7307017Y10156066D01*
X-7278446Y10141780D01*
X-7264160Y10127494D01*
X-7249874Y10098923D01*
X-7249874Y10013209D01*
X-7264160Y9984637D01*
X-7278446Y9970351D01*
X-7307017Y9956066D01*
X-7349874Y9956066D01*
X-7078446Y9956066D02*
X-7107017Y9970351D01*
X-7121303Y9998923D01*
X-7121303Y10256066D01*
X-6849874Y9970351D02*
X-6878446Y9956066D01*
X-6935589Y9956066D01*
X-6964160Y9970351D01*
X-6978446Y9998923D01*
X-6978446Y10113209D01*
X-6964160Y10141780D01*
X-6935589Y10156066D01*
X-6878446Y10156066D01*
X-6849874Y10141780D01*
X-6835589Y10113209D01*
X-6835589Y10084637D01*
X-6978446Y10056066D01*
X-6721303Y9970351D02*
X-6692731Y9956066D01*
X-6635589Y9956066D01*
X-6607017Y9970351D01*
X-6592731Y9998923D01*
X-6592731Y10013209D01*
X-6607017Y10041780D01*
X-6635589Y10056066D01*
X-6678446Y10056066D01*
X-6707017Y10070351D01*
X-6721303Y10098923D01*
X-6721303Y10113209D01*
X-6707017Y10141780D01*
X-6678446Y10156066D01*
X-6635589Y10156066D01*
X-6607017Y10141780D01*
X-6492731Y9841780D02*
X-6478446Y9856066D01*
X-6449874Y9898923D01*
X-6435589Y9927494D01*
X-6421303Y9970351D01*
X-6407017Y10041780D01*
X-6407017Y10098923D01*
X-6421303Y10170351D01*
X-6435589Y10213209D01*
X-6449874Y10241780D01*
X-6478446Y10284637D01*
X-6492731Y10298923D01*
M02*
