G04 #@! TF.FileFunction,Legend,Top*
%FSLAX46Y46*%
G04 Gerber Fmt 4.6, Leading zero omitted, Abs format (unit mm)*
G04 Created by KiCad (PCBNEW 4.0.5) date 02/24/17 03:06:36*
%MOMM*%
%LPD*%
G01*
G04 APERTURE LIST*
%ADD10C,0.127000*%
%ADD11C,0.120000*%
%ADD12C,0.150000*%
G04 APERTURE END LIST*
D10*
D11*
X13173900Y11214000D02*
X13673900Y11214000D01*
X13673900Y12154000D02*
X13173900Y12154000D01*
X13500000Y13546900D02*
X13500000Y13046900D01*
X14440000Y13046900D02*
X14440000Y13546900D01*
X13173900Y14439800D02*
X13673900Y14439800D01*
X13673900Y15379800D02*
X13173900Y15379800D01*
D12*
X13257234Y10056857D02*
X13209615Y10009238D01*
X13066758Y9961619D01*
X12971520Y9961619D01*
X12828662Y10009238D01*
X12733424Y10104476D01*
X12685805Y10199714D01*
X12638186Y10390190D01*
X12638186Y10533048D01*
X12685805Y10723524D01*
X12733424Y10818762D01*
X12828662Y10914000D01*
X12971520Y10961619D01*
X13066758Y10961619D01*
X13209615Y10914000D01*
X13257234Y10866381D01*
X14209615Y9961619D02*
X13638186Y9961619D01*
X13923900Y9961619D02*
X13923900Y10961619D01*
X13828662Y10818762D01*
X13733424Y10723524D01*
X13638186Y10675905D01*
X13057143Y13130234D02*
X13104762Y13082615D01*
X13152381Y12939758D01*
X13152381Y12844520D01*
X13104762Y12701662D01*
X13009524Y12606424D01*
X12914286Y12558805D01*
X12723810Y12511186D01*
X12580952Y12511186D01*
X12390476Y12558805D01*
X12295238Y12606424D01*
X12200000Y12701662D01*
X12152381Y12844520D01*
X12152381Y12939758D01*
X12200000Y13082615D01*
X12247619Y13130234D01*
X12247619Y13511186D02*
X12200000Y13558805D01*
X12152381Y13654043D01*
X12152381Y13892139D01*
X12200000Y13987377D01*
X12247619Y14034996D01*
X12342857Y14082615D01*
X12438095Y14082615D01*
X12580952Y14034996D01*
X13152381Y13463567D01*
X13152381Y14082615D01*
X13257234Y13282657D02*
X13209615Y13235038D01*
X13066758Y13187419D01*
X12971520Y13187419D01*
X12828662Y13235038D01*
X12733424Y13330276D01*
X12685805Y13425514D01*
X12638186Y13615990D01*
X12638186Y13758848D01*
X12685805Y13949324D01*
X12733424Y14044562D01*
X12828662Y14139800D01*
X12971520Y14187419D01*
X13066758Y14187419D01*
X13209615Y14139800D01*
X13257234Y14092181D01*
X13590567Y14187419D02*
X14209615Y14187419D01*
X13876281Y13806467D01*
X14019139Y13806467D01*
X14114377Y13758848D01*
X14161996Y13711229D01*
X14209615Y13615990D01*
X14209615Y13377895D01*
X14161996Y13282657D01*
X14114377Y13235038D01*
X14019139Y13187419D01*
X13733424Y13187419D01*
X13638186Y13235038D01*
X13590567Y13282657D01*
X21532381Y2304405D02*
X20532381Y2304405D01*
X20532381Y2685358D01*
X20580000Y2780596D01*
X20627619Y2828215D01*
X20722857Y2875834D01*
X20865714Y2875834D01*
X20960952Y2828215D01*
X21008571Y2780596D01*
X21056190Y2685358D01*
X21056190Y2304405D01*
X21532381Y3828215D02*
X21532381Y3256786D01*
X21532381Y3542500D02*
X20532381Y3542500D01*
X20675238Y3447262D01*
X20770476Y3352024D01*
X20818095Y3256786D01*
X8177305Y14962619D02*
X8177305Y15962619D01*
X8558258Y15962619D01*
X8653496Y15915000D01*
X8701115Y15867381D01*
X8748734Y15772143D01*
X8748734Y15629286D01*
X8701115Y15534048D01*
X8653496Y15486429D01*
X8558258Y15438810D01*
X8177305Y15438810D01*
X9129686Y15867381D02*
X9177305Y15915000D01*
X9272543Y15962619D01*
X9510639Y15962619D01*
X9605877Y15915000D01*
X9653496Y15867381D01*
X9701115Y15772143D01*
X9701115Y15676905D01*
X9653496Y15534048D01*
X9082067Y14962619D01*
X9701115Y14962619D01*
X6934367Y13568419D02*
X6601033Y14044610D01*
X6362938Y13568419D02*
X6362938Y14568419D01*
X6743891Y14568419D01*
X6839129Y14520800D01*
X6886748Y14473181D01*
X6934367Y14377943D01*
X6934367Y14235086D01*
X6886748Y14139848D01*
X6839129Y14092229D01*
X6743891Y14044610D01*
X6362938Y14044610D01*
X7362938Y14092229D02*
X7696272Y14092229D01*
X7839129Y13568419D02*
X7362938Y13568419D01*
X7362938Y14568419D01*
X7839129Y14568419D01*
X8601034Y14092229D02*
X8267700Y14092229D01*
X8267700Y13568419D02*
X8267700Y14568419D01*
X8743891Y14568419D01*
X9267700Y14568419D02*
X9267700Y14330324D01*
X9029605Y14425562D02*
X9267700Y14330324D01*
X9505796Y14425562D01*
X9124843Y14139848D02*
X9267700Y14330324D01*
X9410558Y14139848D01*
X10029605Y14568419D02*
X10029605Y14330324D01*
X9791510Y14425562D02*
X10029605Y14330324D01*
X10267701Y14425562D01*
X9886748Y14139848D02*
X10029605Y14330324D01*
X10172463Y14139848D01*
X-812633Y13568419D02*
X-1145967Y14044610D01*
X-1384062Y13568419D02*
X-1384062Y14568419D01*
X-1003109Y14568419D01*
X-907871Y14520800D01*
X-860252Y14473181D01*
X-812633Y14377943D01*
X-812633Y14235086D01*
X-860252Y14139848D01*
X-907871Y14092229D01*
X-1003109Y14044610D01*
X-1384062Y14044610D01*
X-384062Y14092229D02*
X-50728Y14092229D01*
X92129Y13568419D02*
X-384062Y13568419D01*
X-384062Y14568419D01*
X92129Y14568419D01*
X854034Y14092229D02*
X520700Y14092229D01*
X520700Y13568419D02*
X520700Y14568419D01*
X996891Y14568419D01*
X1520700Y14568419D02*
X1520700Y14330324D01*
X1282605Y14425562D02*
X1520700Y14330324D01*
X1758796Y14425562D01*
X1377843Y14139848D02*
X1520700Y14330324D01*
X1663558Y14139848D01*
X2282605Y14568419D02*
X2282605Y14330324D01*
X2044510Y14425562D02*
X2282605Y14330324D01*
X2520701Y14425562D01*
X2139748Y14139848D02*
X2282605Y14330324D01*
X2425463Y14139848D01*
X10490367Y13568419D02*
X10157033Y14044610D01*
X9918938Y13568419D02*
X9918938Y14568419D01*
X10299891Y14568419D01*
X10395129Y14520800D01*
X10442748Y14473181D01*
X10490367Y14377943D01*
X10490367Y14235086D01*
X10442748Y14139848D01*
X10395129Y14092229D01*
X10299891Y14044610D01*
X9918938Y14044610D01*
X10918938Y14092229D02*
X11252272Y14092229D01*
X11395129Y13568419D02*
X10918938Y13568419D01*
X10918938Y14568419D01*
X11395129Y14568419D01*
X12157034Y14092229D02*
X11823700Y14092229D01*
X11823700Y13568419D02*
X11823700Y14568419D01*
X12299891Y14568419D01*
X12823700Y14568419D02*
X12823700Y14330324D01*
X12585605Y14425562D02*
X12823700Y14330324D01*
X13061796Y14425562D01*
X12680843Y14139848D02*
X12823700Y14330324D01*
X12966558Y14139848D01*
X13585605Y14568419D02*
X13585605Y14330324D01*
X13347510Y14425562D02*
X13585605Y14330324D01*
X13823701Y14425562D01*
X13442748Y14139848D02*
X13585605Y14330324D01*
X13728463Y14139848D01*
X3378367Y13568419D02*
X3045033Y14044610D01*
X2806938Y13568419D02*
X2806938Y14568419D01*
X3187891Y14568419D01*
X3283129Y14520800D01*
X3330748Y14473181D01*
X3378367Y14377943D01*
X3378367Y14235086D01*
X3330748Y14139848D01*
X3283129Y14092229D01*
X3187891Y14044610D01*
X2806938Y14044610D01*
X3806938Y14092229D02*
X4140272Y14092229D01*
X4283129Y13568419D02*
X3806938Y13568419D01*
X3806938Y14568419D01*
X4283129Y14568419D01*
X5045034Y14092229D02*
X4711700Y14092229D01*
X4711700Y13568419D02*
X4711700Y14568419D01*
X5187891Y14568419D01*
X5711700Y14568419D02*
X5711700Y14330324D01*
X5473605Y14425562D02*
X5711700Y14330324D01*
X5949796Y14425562D01*
X5568843Y14139848D02*
X5711700Y14330324D01*
X5854558Y14139848D01*
X6473605Y14568419D02*
X6473605Y14330324D01*
X6235510Y14425562D02*
X6473605Y14330324D01*
X6711701Y14425562D01*
X6330748Y14139848D02*
X6473605Y14330324D01*
X6616463Y14139848D01*
X-177633Y13568419D02*
X-510967Y14044610D01*
X-749062Y13568419D02*
X-749062Y14568419D01*
X-368109Y14568419D01*
X-272871Y14520800D01*
X-225252Y14473181D01*
X-177633Y14377943D01*
X-177633Y14235086D01*
X-225252Y14139848D01*
X-272871Y14092229D01*
X-368109Y14044610D01*
X-749062Y14044610D01*
X250938Y14092229D02*
X584272Y14092229D01*
X727129Y13568419D02*
X250938Y13568419D01*
X250938Y14568419D01*
X727129Y14568419D01*
X1489034Y14092229D02*
X1155700Y14092229D01*
X1155700Y13568419D02*
X1155700Y14568419D01*
X1631891Y14568419D01*
X2155700Y14568419D02*
X2155700Y14330324D01*
X1917605Y14425562D02*
X2155700Y14330324D01*
X2393796Y14425562D01*
X2012843Y14139848D02*
X2155700Y14330324D01*
X2298558Y14139848D01*
X2917605Y14568419D02*
X2917605Y14330324D01*
X2679510Y14425562D02*
X2917605Y14330324D01*
X3155701Y14425562D01*
X2774748Y14139848D02*
X2917605Y14330324D01*
X3060463Y14139848D01*
X10490367Y10342619D02*
X10157033Y10818810D01*
X9918938Y10342619D02*
X9918938Y11342619D01*
X10299891Y11342619D01*
X10395129Y11295000D01*
X10442748Y11247381D01*
X10490367Y11152143D01*
X10490367Y11009286D01*
X10442748Y10914048D01*
X10395129Y10866429D01*
X10299891Y10818810D01*
X9918938Y10818810D01*
X10918938Y10866429D02*
X11252272Y10866429D01*
X11395129Y10342619D02*
X10918938Y10342619D01*
X10918938Y11342619D01*
X11395129Y11342619D01*
X12157034Y10866429D02*
X11823700Y10866429D01*
X11823700Y10342619D02*
X11823700Y11342619D01*
X12299891Y11342619D01*
X12823700Y11342619D02*
X12823700Y11104524D01*
X12585605Y11199762D02*
X12823700Y11104524D01*
X13061796Y11199762D01*
X12680843Y10914048D02*
X12823700Y11104524D01*
X12966558Y10914048D01*
X13585605Y11342619D02*
X13585605Y11104524D01*
X13347510Y11199762D02*
X13585605Y11104524D01*
X13823701Y11199762D01*
X13442748Y10914048D02*
X13585605Y11104524D01*
X13728463Y10914048D01*
X6934367Y10342619D02*
X6601033Y10818810D01*
X6362938Y10342619D02*
X6362938Y11342619D01*
X6743891Y11342619D01*
X6839129Y11295000D01*
X6886748Y11247381D01*
X6934367Y11152143D01*
X6934367Y11009286D01*
X6886748Y10914048D01*
X6839129Y10866429D01*
X6743891Y10818810D01*
X6362938Y10818810D01*
X7362938Y10866429D02*
X7696272Y10866429D01*
X7839129Y10342619D02*
X7362938Y10342619D01*
X7362938Y11342619D01*
X7839129Y11342619D01*
X8601034Y10866429D02*
X8267700Y10866429D01*
X8267700Y10342619D02*
X8267700Y11342619D01*
X8743891Y11342619D01*
X9267700Y11342619D02*
X9267700Y11104524D01*
X9029605Y11199762D02*
X9267700Y11104524D01*
X9505796Y11199762D01*
X9124843Y10914048D02*
X9267700Y11104524D01*
X9410558Y10914048D01*
X10029605Y11342619D02*
X10029605Y11104524D01*
X9791510Y11199762D02*
X10029605Y11104524D01*
X10267701Y11199762D01*
X9886748Y10914048D02*
X10029605Y11104524D01*
X10172463Y10914048D01*
X3378367Y10342619D02*
X3045033Y10818810D01*
X2806938Y10342619D02*
X2806938Y11342619D01*
X3187891Y11342619D01*
X3283129Y11295000D01*
X3330748Y11247381D01*
X3378367Y11152143D01*
X3378367Y11009286D01*
X3330748Y10914048D01*
X3283129Y10866429D01*
X3187891Y10818810D01*
X2806938Y10818810D01*
X3806938Y10866429D02*
X4140272Y10866429D01*
X4283129Y10342619D02*
X3806938Y10342619D01*
X3806938Y11342619D01*
X4283129Y11342619D01*
X5045034Y10866429D02*
X4711700Y10866429D01*
X4711700Y10342619D02*
X4711700Y11342619D01*
X5187891Y11342619D01*
X5711700Y11342619D02*
X5711700Y11104524D01*
X5473605Y11199762D02*
X5711700Y11104524D01*
X5949796Y11199762D01*
X5568843Y10914048D02*
X5711700Y11104524D01*
X5854558Y10914048D01*
X6473605Y11342619D02*
X6473605Y11104524D01*
X6235510Y11199762D02*
X6473605Y11104524D01*
X6711701Y11199762D01*
X6330748Y10914048D02*
X6473605Y11104524D01*
X6616463Y10914048D01*
X-177633Y10342619D02*
X-510967Y10818810D01*
X-749062Y10342619D02*
X-749062Y11342619D01*
X-368109Y11342619D01*
X-272871Y11295000D01*
X-225252Y11247381D01*
X-177633Y11152143D01*
X-177633Y11009286D01*
X-225252Y10914048D01*
X-272871Y10866429D01*
X-368109Y10818810D01*
X-749062Y10818810D01*
X250938Y10866429D02*
X584272Y10866429D01*
X727129Y10342619D02*
X250938Y10342619D01*
X250938Y11342619D01*
X727129Y11342619D01*
X1489034Y10866429D02*
X1155700Y10866429D01*
X1155700Y10342619D02*
X1155700Y11342619D01*
X1631891Y11342619D01*
X2155700Y11342619D02*
X2155700Y11104524D01*
X1917605Y11199762D02*
X2155700Y11104524D01*
X2393796Y11199762D01*
X2012843Y10914048D02*
X2155700Y11104524D01*
X2298558Y10914048D01*
X2917605Y11342619D02*
X2917605Y11104524D01*
X2679510Y11199762D02*
X2917605Y11104524D01*
X3155701Y11199762D01*
X2774748Y10914048D02*
X2917605Y11104524D01*
X3060463Y10914048D01*
X15976767Y13568419D02*
X15643433Y14044610D01*
X15405338Y13568419D02*
X15405338Y14568419D01*
X15786291Y14568419D01*
X15881529Y14520800D01*
X15929148Y14473181D01*
X15976767Y14377943D01*
X15976767Y14235086D01*
X15929148Y14139848D01*
X15881529Y14092229D01*
X15786291Y14044610D01*
X15405338Y14044610D01*
X16405338Y14092229D02*
X16738672Y14092229D01*
X16881529Y13568419D02*
X16405338Y13568419D01*
X16405338Y14568419D01*
X16881529Y14568419D01*
X17643434Y14092229D02*
X17310100Y14092229D01*
X17310100Y13568419D02*
X17310100Y14568419D01*
X17786291Y14568419D01*
X18310100Y14568419D02*
X18310100Y14330324D01*
X18072005Y14425562D02*
X18310100Y14330324D01*
X18548196Y14425562D01*
X18167243Y14139848D02*
X18310100Y14330324D01*
X18452958Y14139848D01*
X19072005Y14568419D02*
X19072005Y14330324D01*
X18833910Y14425562D02*
X19072005Y14330324D01*
X19310101Y14425562D01*
X18929148Y14139848D02*
X19072005Y14330324D01*
X19214863Y14139848D01*
X15976767Y10342619D02*
X15643433Y10818810D01*
X15405338Y10342619D02*
X15405338Y11342619D01*
X15786291Y11342619D01*
X15881529Y11295000D01*
X15929148Y11247381D01*
X15976767Y11152143D01*
X15976767Y11009286D01*
X15929148Y10914048D01*
X15881529Y10866429D01*
X15786291Y10818810D01*
X15405338Y10818810D01*
X16405338Y10866429D02*
X16738672Y10866429D01*
X16881529Y10342619D02*
X16405338Y10342619D01*
X16405338Y11342619D01*
X16881529Y11342619D01*
X17643434Y10866429D02*
X17310100Y10866429D01*
X17310100Y10342619D02*
X17310100Y11342619D01*
X17786291Y11342619D01*
X18310100Y11342619D02*
X18310100Y11104524D01*
X18072005Y11199762D02*
X18310100Y11104524D01*
X18548196Y11199762D01*
X18167243Y10914048D02*
X18310100Y11104524D01*
X18452958Y10914048D01*
X19072005Y11342619D02*
X19072005Y11104524D01*
X18833910Y11199762D02*
X19072005Y11104524D01*
X19310101Y11199762D01*
X18929148Y10914048D02*
X19072005Y11104524D01*
X19214863Y10914048D01*
M02*
