%TF.GenerationSoftware,KiCad,Pcbnew,4.0.5*%
%TF.CreationDate,2017-02-24T13:12:52-08:00*%
%TF.ProjectId,mifa_01,6D6966615F30312E6B696361645F7063,rev?*%
%TF.FileFunction,Copper,L2,Bot,Signal*%
%FSLAX46Y46*%
G04 Gerber Fmt 4.6, Leading zero omitted, Abs format (unit mm)*
G04 Created by KiCad (PCBNEW 4.0.5) date 02/24/17 13:12:52*
%MOMM*%
%LPD*%
G01*
G04 APERTURE LIST*
%ADD10C,0.020000*%
%ADD11R,2.420000X5.080000*%
%ADD12C,0.970000*%
%ADD13R,0.460000X0.890000*%
%ADD14C,0.304800*%
%ADD15C,0.127000*%
G04 APERTURE END LIST*
D10*
D11*
X146496000Y-123132000D03*
X155256000Y-123132000D03*
D12*
X146496000Y-119692000D03*
X155256000Y-119692000D03*
D13*
X146496000Y-120142000D03*
X155256000Y-120142000D03*
D14*
X148780500Y-99961700D03*
D15*
X162626040Y-99771200D02*
X148195500Y-99771200D01*
X162626040Y-99847400D02*
X148195500Y-99847400D01*
X162626040Y-99923600D02*
X148195500Y-99923600D01*
X162626040Y-99999800D02*
X148195500Y-99999800D01*
X162626040Y-100076000D02*
X148195500Y-100076000D01*
X162626040Y-100152200D02*
X148195500Y-100152200D01*
X162626040Y-100228400D02*
X148195500Y-100228400D01*
X162626040Y-100304600D02*
X148195500Y-100304600D01*
X162626040Y-100380800D02*
X148195500Y-100380800D01*
X162626040Y-100457000D02*
X148195500Y-100457000D01*
X162626040Y-100533200D02*
X148195500Y-100533200D01*
X162626040Y-100609400D02*
X148195500Y-100609400D01*
X162626040Y-100685600D02*
X148195500Y-100685600D01*
X162626040Y-100761800D02*
X148195500Y-100761800D01*
X162626040Y-100838000D02*
X148195500Y-100838000D01*
X162626040Y-100914200D02*
X148195500Y-100914200D01*
X162626040Y-100990400D02*
X148195500Y-100990400D01*
X162626040Y-101066600D02*
X148195500Y-101066600D01*
X162626040Y-101142800D02*
X148195500Y-101142800D01*
X162626040Y-101219000D02*
X148195500Y-101219000D01*
X162626040Y-101295200D02*
X148195500Y-101295200D01*
X162626040Y-101371400D02*
X148195500Y-101371400D01*
X162626040Y-101447600D02*
X148195500Y-101447600D01*
X162626040Y-101523800D02*
X148195500Y-101523800D01*
X162626040Y-101600000D02*
X148195500Y-101600000D01*
X162626040Y-101676200D02*
X148195500Y-101676200D01*
X162626040Y-101752400D02*
X148195500Y-101752400D01*
X162626040Y-101828600D02*
X148195500Y-101828600D01*
X162626040Y-101904800D02*
X148195500Y-101904800D01*
X162626040Y-101981000D02*
X148195500Y-101981000D01*
X162626040Y-102057200D02*
X148195500Y-102057200D01*
X162626040Y-102133400D02*
X148195500Y-102133400D01*
X162626040Y-102209600D02*
X148195500Y-102209600D01*
X162626040Y-102285800D02*
X148195500Y-102285800D01*
X162626040Y-102362000D02*
X148195500Y-102362000D01*
X162626040Y-102438200D02*
X148195500Y-102438200D01*
X162626040Y-102514400D02*
X148195500Y-102514400D01*
X162626040Y-102590600D02*
X148195500Y-102590600D01*
X162626040Y-102666800D02*
X148195500Y-102666800D01*
X162626040Y-102743000D02*
X148195500Y-102743000D01*
X162626040Y-102819200D02*
X148195500Y-102819200D01*
X162626040Y-102895400D02*
X148195500Y-102895400D01*
X162626040Y-102971600D02*
X148195500Y-102971600D01*
X162626040Y-103047800D02*
X148195500Y-103047800D01*
X162626040Y-103124000D02*
X148195500Y-103124000D01*
X162626040Y-103200200D02*
X148195500Y-103200200D01*
X162626040Y-103276400D02*
X148195500Y-103276400D01*
X162626040Y-103352600D02*
X148195500Y-103352600D01*
X162626040Y-103428800D02*
X148195500Y-103428800D01*
X162626040Y-103505000D02*
X148195500Y-103505000D01*
X162626040Y-103581200D02*
X148195500Y-103581200D01*
X162626040Y-103657400D02*
X148195500Y-103657400D01*
X162626040Y-103733600D02*
X148195500Y-103733600D01*
X162626040Y-103809800D02*
X148195500Y-103809800D01*
X162626040Y-103886000D02*
X148195500Y-103886000D01*
X162626040Y-103962200D02*
X148195500Y-103962200D01*
X162626040Y-104038400D02*
X148195500Y-104038400D01*
X162626040Y-104114600D02*
X148195500Y-104114600D01*
X162626040Y-104190800D02*
X148195500Y-104190800D01*
X162626040Y-104267000D02*
X148195500Y-104267000D01*
X162626040Y-104343200D02*
X148195500Y-104343200D01*
X162626040Y-104419400D02*
X148195500Y-104419400D01*
X162626040Y-104495600D02*
X148195500Y-104495600D01*
X162626040Y-104571800D02*
X148195500Y-104571800D01*
X162626040Y-104648000D02*
X148195500Y-104648000D01*
X162626040Y-104724200D02*
X148195500Y-104724200D01*
X162626040Y-104800400D02*
X148195500Y-104800400D01*
X162626040Y-104876600D02*
X148195500Y-104876600D01*
X162626040Y-104952800D02*
X148195500Y-104952800D01*
X162626040Y-105029000D02*
X148195500Y-105029000D01*
X162626040Y-105105200D02*
X148195500Y-105105200D01*
X162626040Y-105181400D02*
X148195500Y-105181400D01*
X162626040Y-105257600D02*
X148195500Y-105257600D01*
X162626040Y-105333800D02*
X148195500Y-105333800D01*
X162626040Y-105410000D02*
X148195500Y-105410000D01*
X162626040Y-105486200D02*
X148195500Y-105486200D01*
X162626040Y-105562400D02*
X148195500Y-105562400D01*
X162626040Y-105638600D02*
X148195500Y-105638600D01*
X162626040Y-105714800D02*
X148195500Y-105714800D01*
X162626040Y-105791000D02*
X148195500Y-105791000D01*
X162626040Y-105867200D02*
X148195500Y-105867200D01*
X162626040Y-105943400D02*
X148195500Y-105943400D01*
X162626040Y-106019600D02*
X148195500Y-106019600D01*
X162626040Y-106095800D02*
X148195500Y-106095800D01*
X162626040Y-106172000D02*
X148195500Y-106172000D01*
X162626040Y-106248200D02*
X148195500Y-106248200D01*
X162626040Y-106324400D02*
X148195500Y-106324400D01*
X162626040Y-106400600D02*
X148195500Y-106400600D01*
X162626040Y-106476800D02*
X148195500Y-106476800D01*
X162626040Y-106553000D02*
X148195500Y-106553000D01*
X162626040Y-106629200D02*
X148195500Y-106629200D01*
X162626040Y-106705400D02*
X148195500Y-106705400D01*
X162626040Y-106781600D02*
X148195500Y-106781600D01*
X162626040Y-106857800D02*
X148195500Y-106857800D01*
X162626040Y-106934000D02*
X148195500Y-106934000D01*
X162626040Y-107010200D02*
X148195500Y-107010200D01*
X162626040Y-107086400D02*
X148195500Y-107086400D01*
X162626040Y-107162600D02*
X148195500Y-107162600D01*
X162626040Y-107238800D02*
X148195500Y-107238800D01*
X162626040Y-107315000D02*
X148195500Y-107315000D01*
X162626040Y-107391200D02*
X148195500Y-107391200D01*
X162626040Y-107467400D02*
X148195500Y-107467400D01*
X162626040Y-107543600D02*
X148195500Y-107543600D01*
X162626040Y-107619800D02*
X148195500Y-107619800D01*
X162626040Y-107696000D02*
X148195500Y-107696000D01*
X162626040Y-107772200D02*
X148195500Y-107772200D01*
X162626040Y-107848400D02*
X148195500Y-107848400D01*
X162626040Y-107924600D02*
X148195500Y-107924600D01*
X162626040Y-108000800D02*
X148195500Y-108000800D01*
X162626040Y-108077000D02*
X148195500Y-108077000D01*
X162626040Y-108153200D02*
X148195500Y-108153200D01*
X162626040Y-108229400D02*
X148195500Y-108229400D01*
X162626040Y-108305600D02*
X148195500Y-108305600D01*
X162626040Y-108381800D02*
X148195500Y-108381800D01*
X162626040Y-108458000D02*
X148195500Y-108458000D01*
X162626040Y-108534200D02*
X148195500Y-108534200D01*
X162626040Y-108610400D02*
X148195500Y-108610400D01*
X162626040Y-108686600D02*
X148195500Y-108686600D01*
X162626040Y-108762800D02*
X148195500Y-108762800D01*
X162626040Y-108839000D02*
X148195500Y-108839000D01*
X162626040Y-108915200D02*
X148195500Y-108915200D01*
X162626040Y-108991400D02*
X148195500Y-108991400D01*
X162626040Y-109067600D02*
X148195500Y-109067600D01*
X162626040Y-109143800D02*
X148195500Y-109143800D01*
X162626040Y-109220000D02*
X148195500Y-109220000D01*
X162626040Y-109296200D02*
X148195500Y-109296200D01*
X162626040Y-109372400D02*
X148195500Y-109372400D01*
X162626040Y-109448600D02*
X148195500Y-109448600D01*
X162626040Y-109524800D02*
X148195500Y-109524800D01*
X162626040Y-109601000D02*
X148195500Y-109601000D01*
X162626040Y-109677200D02*
X148195500Y-109677200D01*
X162626040Y-109753400D02*
X148195500Y-109753400D01*
X162626040Y-109829600D02*
X148195500Y-109829600D01*
X162626040Y-109905800D02*
X148195500Y-109905800D01*
X162626040Y-109982000D02*
X148195500Y-109982000D01*
X162626040Y-110058200D02*
X148195500Y-110058200D01*
X162626040Y-110134400D02*
X148195500Y-110134400D01*
X162626040Y-110210600D02*
X148195500Y-110210600D01*
X162626040Y-110286800D02*
X148195500Y-110286800D01*
X162626040Y-110363000D02*
X148195500Y-110363000D01*
X162626040Y-110439200D02*
X148195500Y-110439200D01*
X162626040Y-110515400D02*
X148195500Y-110515400D01*
X162626040Y-110591600D02*
X148195500Y-110591600D01*
X162626040Y-110667800D02*
X148195500Y-110667800D01*
X162626040Y-110744000D02*
X148195500Y-110744000D01*
X162626040Y-110820200D02*
X148195500Y-110820200D01*
X162626040Y-110896400D02*
X148195500Y-110896400D01*
X162626040Y-110972600D02*
X148195500Y-110972600D01*
X162626040Y-111048800D02*
X148195500Y-111048800D01*
X162626040Y-111125000D02*
X148195500Y-111125000D01*
X162626040Y-111201200D02*
X148195500Y-111201200D01*
X162626040Y-111277400D02*
X148195500Y-111277400D01*
X162626040Y-111353600D02*
X148195500Y-111353600D01*
X162626040Y-111429800D02*
X148195500Y-111429800D01*
X162626040Y-111506000D02*
X148195500Y-111506000D01*
X162626040Y-111582200D02*
X148195500Y-111582200D01*
X162626040Y-111658400D02*
X148195500Y-111658400D01*
X162626040Y-111734600D02*
X148195500Y-111734600D01*
X162626040Y-111810800D02*
X148195500Y-111810800D01*
X162626040Y-111887000D02*
X148195500Y-111887000D01*
X162626040Y-111963200D02*
X148195500Y-111963200D01*
X162626040Y-112039400D02*
X148195500Y-112039400D01*
X162626040Y-112115600D02*
X148195500Y-112115600D01*
X162626040Y-112191800D02*
X148195500Y-112191800D01*
X162626040Y-112268000D02*
X148195500Y-112268000D01*
X162626040Y-112344200D02*
X148195500Y-112344200D01*
X162626040Y-112420400D02*
X148195500Y-112420400D01*
X162626040Y-112496600D02*
X148195500Y-112496600D01*
X162626040Y-112572800D02*
X148195500Y-112572800D01*
X162626040Y-112649000D02*
X148195500Y-112649000D01*
X162626040Y-112725200D02*
X148195500Y-112725200D01*
X162626040Y-112801400D02*
X148195500Y-112801400D01*
X162626040Y-112877600D02*
X148195500Y-112877600D01*
X162626040Y-112953800D02*
X148195500Y-112953800D01*
X162626040Y-113030000D02*
X148195500Y-113030000D01*
X162626040Y-113106200D02*
X148195500Y-113106200D01*
X162626040Y-113182400D02*
X148195500Y-113182400D01*
X162626040Y-113258600D02*
X148195500Y-113258600D01*
X162626040Y-113334800D02*
X148195500Y-113334800D01*
X162626040Y-113411000D02*
X148195500Y-113411000D01*
X162626040Y-113487200D02*
X148182869Y-113487200D01*
X162626040Y-113563400D02*
X148167712Y-113563400D01*
X162626040Y-113639600D02*
X148117236Y-113639600D01*
X162626040Y-113715800D02*
X148055624Y-113715800D01*
X162626040Y-113792000D02*
X147979424Y-113792000D01*
X162626040Y-113868200D02*
X147903224Y-113868200D01*
X162626040Y-113944400D02*
X147827024Y-113944400D01*
X162626040Y-114020600D02*
X147750824Y-114020600D01*
X162626040Y-114096800D02*
X147674624Y-114096800D01*
X162626040Y-114173000D02*
X147598424Y-114173000D01*
X162626040Y-114249200D02*
X147522224Y-114249200D01*
X162626040Y-114325400D02*
X147446024Y-114325400D01*
X162626040Y-114401600D02*
X147369824Y-114401600D01*
X162626040Y-114477800D02*
X147293624Y-114477800D01*
X162626040Y-114554000D02*
X147217424Y-114554000D01*
X162626040Y-114630200D02*
X147141224Y-114630200D01*
X162626040Y-114706400D02*
X147065024Y-114706400D01*
X162626040Y-114782600D02*
X146988824Y-114782600D01*
X162626040Y-114858800D02*
X146912624Y-114858800D01*
X162626040Y-114935000D02*
X146836424Y-114935000D01*
X162626040Y-115011200D02*
X146760224Y-115011200D01*
X162626040Y-115087400D02*
X146684024Y-115087400D01*
X162626040Y-115163600D02*
X146607824Y-115163600D01*
X162626040Y-115239800D02*
X146531624Y-115239800D01*
X162626040Y-115316000D02*
X146455424Y-115316000D01*
X162626040Y-115392200D02*
X146379224Y-115392200D01*
X162626040Y-115468400D02*
X146303024Y-115468400D01*
X162626040Y-115544600D02*
X146226824Y-115544600D01*
X162626040Y-115620800D02*
X146150624Y-115620800D01*
X162626040Y-115697000D02*
X146074424Y-115697000D01*
X162626040Y-115773200D02*
X145998224Y-115773200D01*
X162626040Y-115849400D02*
X145922024Y-115849400D01*
X162626040Y-115925600D02*
X145845824Y-115925600D01*
X162626040Y-116001800D02*
X145769624Y-116001800D01*
X162626040Y-116078000D02*
X145693424Y-116078000D01*
X162626040Y-116154200D02*
X145617224Y-116154200D01*
X162626040Y-116230400D02*
X145541024Y-116230400D01*
X162626040Y-116306600D02*
X145464824Y-116306600D01*
X162626040Y-116382800D02*
X145388624Y-116382800D01*
X162626040Y-116459000D02*
X145312424Y-116459000D01*
X162626040Y-116535200D02*
X145236224Y-116535200D01*
X162626040Y-116611400D02*
X145160024Y-116611400D01*
X162626040Y-116687600D02*
X145083824Y-116687600D01*
X162626040Y-116763800D02*
X145007624Y-116763800D01*
X162626040Y-116840000D02*
X144931424Y-116840000D01*
X162626040Y-116916200D02*
X144855224Y-116916200D01*
X162626040Y-116992400D02*
X144779024Y-116992400D01*
X162626040Y-117068600D02*
X144702824Y-117068600D01*
X162626040Y-117144800D02*
X144626624Y-117144800D01*
X162626040Y-117221000D02*
X144550424Y-117221000D01*
X162626040Y-117297200D02*
X144474224Y-117297200D01*
X162626040Y-117373400D02*
X144398024Y-117373400D01*
X162626040Y-117449600D02*
X144385500Y-117449600D01*
X162626040Y-117525800D02*
X144385500Y-117525800D01*
X162626040Y-117602000D02*
X144385500Y-117602000D01*
X162626040Y-117678200D02*
X144385500Y-117678200D01*
X162626040Y-117754400D02*
X144385500Y-117754400D01*
X162626040Y-117830600D02*
X144385500Y-117830600D01*
X162626040Y-117906800D02*
X144385500Y-117906800D01*
X162626040Y-117983000D02*
X144385500Y-117983000D01*
X162626040Y-118059200D02*
X144385500Y-118059200D01*
X162626040Y-118135400D02*
X144385500Y-118135400D01*
X162626040Y-118211600D02*
X144385500Y-118211600D01*
X162626040Y-118287800D02*
X144385500Y-118287800D01*
X162626040Y-118364000D02*
X144385500Y-118364000D01*
X162626040Y-118440200D02*
X144385500Y-118440200D01*
X162626040Y-118516400D02*
X144385500Y-118516400D01*
X162626040Y-118592600D02*
X144385500Y-118592600D01*
X162626040Y-118668800D02*
X144385500Y-118668800D01*
X162626040Y-118745000D02*
X144385500Y-118745000D01*
X162626040Y-118821200D02*
X144385500Y-118821200D01*
X162626040Y-118897400D02*
X144385500Y-118897400D01*
X162626040Y-118973600D02*
X144385500Y-118973600D01*
X162626040Y-119049800D02*
X144385500Y-119049800D01*
X162626040Y-119126000D02*
X144385500Y-119126000D01*
X162626040Y-119202200D02*
X144385500Y-119202200D01*
X162626040Y-119278400D02*
X144385500Y-119278400D01*
X162626040Y-119354600D02*
X144385500Y-119354600D01*
X162626040Y-119430800D02*
X144385500Y-119430800D01*
X162626040Y-119507000D02*
X144385500Y-119507000D01*
X162626040Y-119583200D02*
X144385500Y-119583200D01*
X162626040Y-119659400D02*
X144385500Y-119659400D01*
X162626040Y-119735600D02*
X144385500Y-119735600D01*
X162626040Y-119811800D02*
X144385500Y-119811800D01*
X162626040Y-119888000D02*
X144385500Y-119888000D01*
X162626040Y-119964200D02*
X144385500Y-119964200D01*
X162626040Y-120040400D02*
X144385500Y-120040400D01*
X162626040Y-120116600D02*
X144385500Y-120116600D01*
X162626040Y-120192800D02*
X144385500Y-120192800D01*
X162626040Y-120269000D02*
X144385500Y-120269000D01*
X162626040Y-120345200D02*
X144385500Y-120345200D01*
X162626040Y-120421400D02*
X144385500Y-120421400D01*
X162626040Y-120497600D02*
X144385500Y-120497600D01*
X162626040Y-120573800D02*
X144385500Y-120573800D01*
X162626040Y-120650000D02*
X144385500Y-120650000D01*
X162626040Y-120726200D02*
X144385500Y-120726200D01*
X162626040Y-120802400D02*
X144385500Y-120802400D01*
X162626040Y-120878600D02*
X144385500Y-120878600D01*
X162626040Y-120954800D02*
X144385500Y-120954800D01*
X162626040Y-121031000D02*
X144385500Y-121031000D01*
X162626040Y-121107200D02*
X144385500Y-121107200D01*
X162626040Y-121183400D02*
X144385500Y-121183400D01*
X162626040Y-121259600D02*
X144385500Y-121259600D01*
X162626040Y-121335800D02*
X144385500Y-121335800D01*
X162626040Y-121412000D02*
X144385500Y-121412000D01*
X162626040Y-121488200D02*
X144385500Y-121488200D01*
X162626040Y-121564400D02*
X144385500Y-121564400D01*
X162626040Y-121640600D02*
X144385500Y-121640600D01*
X162626040Y-121716800D02*
X144385500Y-121716800D01*
X162626040Y-121793000D02*
X144385500Y-121793000D01*
X162626040Y-121869200D02*
X144385500Y-121869200D01*
X162626040Y-121945400D02*
X144385500Y-121945400D01*
X162626040Y-122021600D02*
X144385500Y-122021600D01*
X162626040Y-122097800D02*
X144385500Y-122097800D01*
X162626040Y-122174000D02*
X144385500Y-122174000D01*
X162626040Y-122250200D02*
X144385500Y-122250200D01*
X162626040Y-122326400D02*
X144385500Y-122326400D01*
X162626040Y-122402600D02*
X144385500Y-122402600D01*
X162626040Y-122478800D02*
X144385500Y-122478800D01*
X162626040Y-122555000D02*
X144385500Y-122555000D01*
X162626040Y-122631200D02*
X144385500Y-122631200D01*
X162626040Y-122707400D02*
X144385500Y-122707400D01*
X162626040Y-122783600D02*
X144385500Y-122783600D01*
X162626040Y-122859800D02*
X144385500Y-122859800D01*
X162626040Y-122936000D02*
X144385500Y-122936000D01*
X162626040Y-123012200D02*
X144385500Y-123012200D01*
X162626040Y-123088400D02*
X144385500Y-123088400D01*
X162626040Y-123164600D02*
X144385500Y-123164600D01*
X162626040Y-123240800D02*
X144385500Y-123240800D01*
X162626040Y-123317000D02*
X144385500Y-123317000D01*
X162626040Y-123393200D02*
X144385500Y-123393200D01*
X162626040Y-123469400D02*
X144385500Y-123469400D01*
X162626040Y-123545600D02*
X144385500Y-123545600D01*
X162626040Y-123621800D02*
X144385500Y-123621800D01*
X162626040Y-123698000D02*
X144385500Y-123698000D01*
X162626040Y-123774200D02*
X144385500Y-123774200D01*
X162626040Y-123850400D02*
X144385500Y-123850400D01*
X162626040Y-123926600D02*
X144385500Y-123926600D01*
X162626040Y-124002800D02*
X144385500Y-124002800D01*
X162626040Y-124079000D02*
X144385500Y-124079000D01*
X162626040Y-124155200D02*
X144385500Y-124155200D01*
X162626040Y-124231400D02*
X144385500Y-124231400D01*
X162626040Y-124307600D02*
X144385500Y-124307600D01*
X162626040Y-124383800D02*
X144385500Y-124383800D01*
X162626040Y-124460000D02*
X144385500Y-124460000D01*
X162626040Y-124536200D02*
X144385500Y-124536200D01*
X162626040Y-124612400D02*
X144385500Y-124612400D01*
X162626040Y-124688600D02*
X144385500Y-124688600D01*
X162626040Y-124764800D02*
X144385500Y-124764800D01*
X162626040Y-124841000D02*
X144385500Y-124841000D01*
X162626040Y-124917200D02*
X144385500Y-124917200D01*
X162626040Y-124993400D02*
X144385500Y-124993400D01*
X162626040Y-125069600D02*
X144385500Y-125069600D01*
X162626040Y-125145800D02*
X144385500Y-125145800D01*
X162626040Y-125222000D02*
X144385500Y-125222000D01*
X162626040Y-125298200D02*
X144385500Y-125298200D01*
X162626040Y-125374400D02*
X144385500Y-125374400D01*
X162626040Y-125450600D02*
X144385500Y-125450600D01*
X162626040Y-125526800D02*
X144385500Y-125526800D01*
X162626040Y-125603000D02*
X144385500Y-125603000D01*
X162626040Y-125679200D02*
X144385500Y-125679200D01*
X162626040Y-125755400D02*
X144385500Y-125755400D01*
X162626040Y-125831600D02*
X144385500Y-125831600D01*
X162626040Y-125907800D02*
X144385500Y-125907800D01*
X162626040Y-125984000D02*
X144385500Y-125984000D01*
X162626040Y-126060200D02*
X144385500Y-126060200D01*
X162626040Y-126136400D02*
X144385500Y-126136400D01*
X162626040Y-126138940D02*
X144385500Y-126138940D01*
X144385500Y-117385924D01*
X148087862Y-113683562D01*
X148167526Y-113564336D01*
X148195501Y-113423700D01*
X148195500Y-113423695D01*
X148195500Y-99771200D01*
X162626040Y-99771200D01*
X162626040Y-126138940D01*
M02*
