%TF.GenerationSoftware,KiCad,Pcbnew,4.0.5*%
%TF.CreationDate,2017-02-24T13:12:52-08:00*%
%TF.ProjectId,mifa_01,6D6966615F30312E6B696361645F7063,rev?*%
%TF.FileFunction,Copper,L1,Top,Signal*%
%FSLAX46Y46*%
G04 Gerber Fmt 4.6, Leading zero omitted, Abs format (unit mm)*
G04 Created by KiCad (PCBNEW 4.0.5) date 02/24/17 13:12:52*
%MOMM*%
%LPD*%
G01*
G04 APERTURE LIST*
%ADD10C,0.020000*%
%ADD11R,2.290000X5.080000*%
%ADD12R,2.420000X5.080000*%
%ADD13C,0.970000*%
%ADD14R,0.460000X0.890000*%
%ADD15C,0.304800*%
%ADD16C,0.127000*%
G04 APERTURE END LIST*
D10*
D11*
X150876000Y-123132000D03*
D12*
X146496000Y-123132000D03*
X155256000Y-123132000D03*
D13*
X146496000Y-119692000D03*
X155256000Y-119692000D03*
D14*
X146496000Y-120142000D03*
X155256000Y-120142000D03*
D15*
X148780500Y-99961700D03*
D16*
X153276300Y-94869000D02*
X148399500Y-94869000D01*
X157949900Y-94869000D02*
X155384500Y-94869000D01*
X162623500Y-94869000D02*
X160058100Y-94869000D01*
X153276300Y-94945200D02*
X148399500Y-94945200D01*
X157949900Y-94945200D02*
X155384500Y-94945200D01*
X162623500Y-94945200D02*
X160058100Y-94945200D01*
X153276300Y-95021400D02*
X148399500Y-95021400D01*
X157949900Y-95021400D02*
X155384500Y-95021400D01*
X162623500Y-95021400D02*
X160058100Y-95021400D01*
X153276300Y-95097600D02*
X148399500Y-95097600D01*
X157949900Y-95097600D02*
X155384500Y-95097600D01*
X162623500Y-95097600D02*
X160058100Y-95097600D01*
X153276300Y-95173800D02*
X148399500Y-95173800D01*
X157949900Y-95173800D02*
X155384500Y-95173800D01*
X162623500Y-95173800D02*
X160058100Y-95173800D01*
X149225000Y-95250000D02*
X148399500Y-95250000D01*
X151130000Y-95250000D02*
X150622000Y-95250000D01*
X153276300Y-95250000D02*
X152831800Y-95250000D01*
X155829000Y-95250000D02*
X155384500Y-95250000D01*
X157949900Y-95250000D02*
X157505400Y-95250000D01*
X160502600Y-95250000D02*
X160058100Y-95250000D01*
X162623500Y-95250000D02*
X162179000Y-95250000D01*
X149161500Y-95326200D02*
X148399500Y-95326200D01*
X151066500Y-95326200D02*
X150685500Y-95326200D01*
X153276300Y-95326200D02*
X152895300Y-95326200D01*
X155765500Y-95326200D02*
X155384500Y-95326200D01*
X157949900Y-95326200D02*
X157568900Y-95326200D01*
X160439100Y-95326200D02*
X160058100Y-95326200D01*
X162623500Y-95326200D02*
X162242500Y-95326200D01*
X149161500Y-95402400D02*
X148399500Y-95402400D01*
X151066500Y-95402400D02*
X150685500Y-95402400D01*
X153276300Y-95402400D02*
X152895300Y-95402400D01*
X155765500Y-95402400D02*
X155384500Y-95402400D01*
X157949900Y-95402400D02*
X157568900Y-95402400D01*
X160439100Y-95402400D02*
X160058100Y-95402400D01*
X162623500Y-95402400D02*
X162242500Y-95402400D01*
X149161500Y-95478600D02*
X148399500Y-95478600D01*
X151066500Y-95478600D02*
X150685500Y-95478600D01*
X153276300Y-95478600D02*
X152895300Y-95478600D01*
X155765500Y-95478600D02*
X155384500Y-95478600D01*
X157949900Y-95478600D02*
X157568900Y-95478600D01*
X160439100Y-95478600D02*
X160058100Y-95478600D01*
X162623500Y-95478600D02*
X162242500Y-95478600D01*
X149161500Y-95554800D02*
X148399500Y-95554800D01*
X151066500Y-95554800D02*
X150685500Y-95554800D01*
X153276300Y-95554800D02*
X152895300Y-95554800D01*
X155765500Y-95554800D02*
X155384500Y-95554800D01*
X157949900Y-95554800D02*
X157568900Y-95554800D01*
X160439100Y-95554800D02*
X160058100Y-95554800D01*
X162623500Y-95554800D02*
X162242500Y-95554800D01*
X149161500Y-95631000D02*
X148399500Y-95631000D01*
X151066500Y-95631000D02*
X150685500Y-95631000D01*
X153276300Y-95631000D02*
X152895300Y-95631000D01*
X155765500Y-95631000D02*
X155384500Y-95631000D01*
X157949900Y-95631000D02*
X157568900Y-95631000D01*
X160439100Y-95631000D02*
X160058100Y-95631000D01*
X162623500Y-95631000D02*
X162242500Y-95631000D01*
X149161500Y-95707200D02*
X148399500Y-95707200D01*
X151066500Y-95707200D02*
X150685500Y-95707200D01*
X153276300Y-95707200D02*
X152895300Y-95707200D01*
X155765500Y-95707200D02*
X155384500Y-95707200D01*
X157949900Y-95707200D02*
X157568900Y-95707200D01*
X160439100Y-95707200D02*
X160058100Y-95707200D01*
X162623500Y-95707200D02*
X162242500Y-95707200D01*
X149161500Y-95783400D02*
X148399500Y-95783400D01*
X151066500Y-95783400D02*
X150685500Y-95783400D01*
X153276300Y-95783400D02*
X152895300Y-95783400D01*
X155765500Y-95783400D02*
X155384500Y-95783400D01*
X157949900Y-95783400D02*
X157568900Y-95783400D01*
X160439100Y-95783400D02*
X160058100Y-95783400D01*
X162623500Y-95783400D02*
X162242500Y-95783400D01*
X149161500Y-95859600D02*
X148399500Y-95859600D01*
X151066500Y-95859600D02*
X150685500Y-95859600D01*
X153276300Y-95859600D02*
X152895300Y-95859600D01*
X155765500Y-95859600D02*
X155384500Y-95859600D01*
X157949900Y-95859600D02*
X157568900Y-95859600D01*
X160439100Y-95859600D02*
X160058100Y-95859600D01*
X162623500Y-95859600D02*
X162242500Y-95859600D01*
X149161500Y-95935800D02*
X148399500Y-95935800D01*
X151066500Y-95935800D02*
X150685500Y-95935800D01*
X153276300Y-95935800D02*
X152895300Y-95935800D01*
X155765500Y-95935800D02*
X155384500Y-95935800D01*
X157949900Y-95935800D02*
X157568900Y-95935800D01*
X160439100Y-95935800D02*
X160058100Y-95935800D01*
X162623500Y-95935800D02*
X162242500Y-95935800D01*
X149161500Y-96012000D02*
X148399500Y-96012000D01*
X151066500Y-96012000D02*
X150685500Y-96012000D01*
X153276300Y-96012000D02*
X152895300Y-96012000D01*
X155765500Y-96012000D02*
X155384500Y-96012000D01*
X157949900Y-96012000D02*
X157568900Y-96012000D01*
X160439100Y-96012000D02*
X160058100Y-96012000D01*
X162623500Y-96012000D02*
X162242500Y-96012000D01*
X149161500Y-96088200D02*
X148399500Y-96088200D01*
X151066500Y-96088200D02*
X150685500Y-96088200D01*
X153276300Y-96088200D02*
X152895300Y-96088200D01*
X155765500Y-96088200D02*
X155384500Y-96088200D01*
X157949900Y-96088200D02*
X157568900Y-96088200D01*
X160439100Y-96088200D02*
X160058100Y-96088200D01*
X162623500Y-96088200D02*
X162242500Y-96088200D01*
X149161500Y-96164400D02*
X148399500Y-96164400D01*
X151066500Y-96164400D02*
X150685500Y-96164400D01*
X153276300Y-96164400D02*
X152895300Y-96164400D01*
X155765500Y-96164400D02*
X155384500Y-96164400D01*
X157949900Y-96164400D02*
X157568900Y-96164400D01*
X160439100Y-96164400D02*
X160058100Y-96164400D01*
X162623500Y-96164400D02*
X162242500Y-96164400D01*
X149161500Y-96240600D02*
X148399500Y-96240600D01*
X151066500Y-96240600D02*
X150685500Y-96240600D01*
X153276300Y-96240600D02*
X152895300Y-96240600D01*
X155765500Y-96240600D02*
X155384500Y-96240600D01*
X157949900Y-96240600D02*
X157568900Y-96240600D01*
X160439100Y-96240600D02*
X160058100Y-96240600D01*
X162623500Y-96240600D02*
X162242500Y-96240600D01*
X149161500Y-96316800D02*
X148399500Y-96316800D01*
X151066500Y-96316800D02*
X150685500Y-96316800D01*
X153276300Y-96316800D02*
X152895300Y-96316800D01*
X155765500Y-96316800D02*
X155384500Y-96316800D01*
X157949900Y-96316800D02*
X157568900Y-96316800D01*
X160439100Y-96316800D02*
X160058100Y-96316800D01*
X162623500Y-96316800D02*
X162242500Y-96316800D01*
X149161500Y-96393000D02*
X148399500Y-96393000D01*
X151066500Y-96393000D02*
X150685500Y-96393000D01*
X153276300Y-96393000D02*
X152895300Y-96393000D01*
X155765500Y-96393000D02*
X155384500Y-96393000D01*
X157949900Y-96393000D02*
X157568900Y-96393000D01*
X160439100Y-96393000D02*
X160058100Y-96393000D01*
X162623500Y-96393000D02*
X162242500Y-96393000D01*
X149161500Y-96469200D02*
X148399500Y-96469200D01*
X151066500Y-96469200D02*
X150685500Y-96469200D01*
X153276300Y-96469200D02*
X152895300Y-96469200D01*
X155765500Y-96469200D02*
X155384500Y-96469200D01*
X157949900Y-96469200D02*
X157568900Y-96469200D01*
X160439100Y-96469200D02*
X160058100Y-96469200D01*
X162623500Y-96469200D02*
X162242500Y-96469200D01*
X149161500Y-96545400D02*
X148399500Y-96545400D01*
X151066500Y-96545400D02*
X150685500Y-96545400D01*
X153276300Y-96545400D02*
X152895300Y-96545400D01*
X155765500Y-96545400D02*
X155384500Y-96545400D01*
X157949900Y-96545400D02*
X157568900Y-96545400D01*
X160439100Y-96545400D02*
X160058100Y-96545400D01*
X162623500Y-96545400D02*
X162242500Y-96545400D01*
X149161500Y-96621600D02*
X148399500Y-96621600D01*
X151066500Y-96621600D02*
X150685500Y-96621600D01*
X153276300Y-96621600D02*
X152895300Y-96621600D01*
X155765500Y-96621600D02*
X155384500Y-96621600D01*
X157949900Y-96621600D02*
X157568900Y-96621600D01*
X160439100Y-96621600D02*
X160058100Y-96621600D01*
X162623500Y-96621600D02*
X162242500Y-96621600D01*
X149161500Y-96697800D02*
X148399500Y-96697800D01*
X151066500Y-96697800D02*
X150685500Y-96697800D01*
X153276300Y-96697800D02*
X152895300Y-96697800D01*
X155765500Y-96697800D02*
X155384500Y-96697800D01*
X157949900Y-96697800D02*
X157568900Y-96697800D01*
X160439100Y-96697800D02*
X160058100Y-96697800D01*
X162623500Y-96697800D02*
X162242500Y-96697800D01*
X149161500Y-96774000D02*
X148399500Y-96774000D01*
X151066500Y-96774000D02*
X150685500Y-96774000D01*
X153276300Y-96774000D02*
X152895300Y-96774000D01*
X155765500Y-96774000D02*
X155384500Y-96774000D01*
X157949900Y-96774000D02*
X157568900Y-96774000D01*
X160439100Y-96774000D02*
X160058100Y-96774000D01*
X162623500Y-96774000D02*
X162242500Y-96774000D01*
X149161500Y-96850200D02*
X148399500Y-96850200D01*
X151066500Y-96850200D02*
X150685500Y-96850200D01*
X153276300Y-96850200D02*
X152895300Y-96850200D01*
X155765500Y-96850200D02*
X155384500Y-96850200D01*
X157949900Y-96850200D02*
X157568900Y-96850200D01*
X160439100Y-96850200D02*
X160058100Y-96850200D01*
X162623500Y-96850200D02*
X162242500Y-96850200D01*
X149161500Y-96926400D02*
X148399500Y-96926400D01*
X151066500Y-96926400D02*
X150685500Y-96926400D01*
X153276300Y-96926400D02*
X152895300Y-96926400D01*
X155765500Y-96926400D02*
X155384500Y-96926400D01*
X157949900Y-96926400D02*
X157568900Y-96926400D01*
X160439100Y-96926400D02*
X160058100Y-96926400D01*
X162623500Y-96926400D02*
X162242500Y-96926400D01*
X149161500Y-97002600D02*
X148399500Y-97002600D01*
X151066500Y-97002600D02*
X150685500Y-97002600D01*
X153276300Y-97002600D02*
X152895300Y-97002600D01*
X155765500Y-97002600D02*
X155384500Y-97002600D01*
X157949900Y-97002600D02*
X157568900Y-97002600D01*
X160439100Y-97002600D02*
X160058100Y-97002600D01*
X162623500Y-97002600D02*
X162242500Y-97002600D01*
X149161500Y-97078800D02*
X148399500Y-97078800D01*
X151066500Y-97078800D02*
X150685500Y-97078800D01*
X153276300Y-97078800D02*
X152895300Y-97078800D01*
X155765500Y-97078800D02*
X155384500Y-97078800D01*
X157949900Y-97078800D02*
X157568900Y-97078800D01*
X160439100Y-97078800D02*
X160058100Y-97078800D01*
X162623500Y-97078800D02*
X162242500Y-97078800D01*
X149161500Y-97155000D02*
X148399500Y-97155000D01*
X151066500Y-97155000D02*
X150685500Y-97155000D01*
X153276300Y-97155000D02*
X152895300Y-97155000D01*
X155765500Y-97155000D02*
X155384500Y-97155000D01*
X157949900Y-97155000D02*
X157568900Y-97155000D01*
X160439100Y-97155000D02*
X160058100Y-97155000D01*
X162623500Y-97155000D02*
X162242500Y-97155000D01*
X149161500Y-97231200D02*
X148399500Y-97231200D01*
X151066500Y-97231200D02*
X150685500Y-97231200D01*
X153276300Y-97231200D02*
X152895300Y-97231200D01*
X155765500Y-97231200D02*
X155384500Y-97231200D01*
X157949900Y-97231200D02*
X157568900Y-97231200D01*
X160439100Y-97231200D02*
X160058100Y-97231200D01*
X162623500Y-97231200D02*
X162242500Y-97231200D01*
X149161500Y-97307400D02*
X148399500Y-97307400D01*
X151066500Y-97307400D02*
X150685500Y-97307400D01*
X153276300Y-97307400D02*
X152895300Y-97307400D01*
X155765500Y-97307400D02*
X155384500Y-97307400D01*
X157949900Y-97307400D02*
X157568900Y-97307400D01*
X160439100Y-97307400D02*
X160058100Y-97307400D01*
X162623500Y-97307400D02*
X162242500Y-97307400D01*
X149161500Y-97383600D02*
X148399500Y-97383600D01*
X151066500Y-97383600D02*
X150685500Y-97383600D01*
X153276300Y-97383600D02*
X152895300Y-97383600D01*
X155765500Y-97383600D02*
X155384500Y-97383600D01*
X157949900Y-97383600D02*
X157568900Y-97383600D01*
X160439100Y-97383600D02*
X160058100Y-97383600D01*
X162623500Y-97383600D02*
X162242500Y-97383600D01*
X149161500Y-97459800D02*
X148399500Y-97459800D01*
X151066500Y-97459800D02*
X150685500Y-97459800D01*
X153278871Y-97459800D02*
X152895300Y-97459800D01*
X155765500Y-97459800D02*
X155382110Y-97459800D01*
X157952471Y-97459800D02*
X157568900Y-97459800D01*
X160439100Y-97459800D02*
X160055710Y-97459800D01*
X162623500Y-97459800D02*
X162242500Y-97459800D01*
X149161500Y-97536000D02*
X148399500Y-97536000D01*
X151066500Y-97536000D02*
X150685500Y-97536000D01*
X155765500Y-97536000D02*
X152895300Y-97536000D01*
X160439100Y-97536000D02*
X157568900Y-97536000D01*
X162623500Y-97536000D02*
X162242500Y-97536000D01*
X149161500Y-97612200D02*
X148399500Y-97612200D01*
X151066500Y-97612200D02*
X150685500Y-97612200D01*
X155765500Y-97612200D02*
X152895300Y-97612200D01*
X160439100Y-97612200D02*
X157568900Y-97612200D01*
X162623500Y-97612200D02*
X162242500Y-97612200D01*
X149161500Y-97688400D02*
X148399500Y-97688400D01*
X151066500Y-97688400D02*
X150685500Y-97688400D01*
X155765500Y-97688400D02*
X152895300Y-97688400D01*
X160439100Y-97688400D02*
X157568900Y-97688400D01*
X162623500Y-97688400D02*
X162242500Y-97688400D01*
X149161500Y-97764600D02*
X148399500Y-97764600D01*
X151066500Y-97764600D02*
X150685500Y-97764600D01*
X155765500Y-97764600D02*
X152895300Y-97764600D01*
X160439100Y-97764600D02*
X157568900Y-97764600D01*
X162623500Y-97764600D02*
X162242500Y-97764600D01*
X149161500Y-97840800D02*
X148399500Y-97840800D01*
X151066500Y-97840800D02*
X150685500Y-97840800D01*
X155765500Y-97840800D02*
X152895300Y-97840800D01*
X160439100Y-97840800D02*
X157568900Y-97840800D01*
X162623500Y-97840800D02*
X162242500Y-97840800D01*
X149161500Y-97917000D02*
X148399500Y-97917000D01*
X151066500Y-97917000D02*
X150685500Y-97917000D01*
X162623500Y-97917000D02*
X162242500Y-97917000D01*
X149161500Y-97993200D02*
X148399500Y-97993200D01*
X151066500Y-97993200D02*
X150685500Y-97993200D01*
X162623500Y-97993200D02*
X162242500Y-97993200D01*
X149161500Y-98069400D02*
X148399500Y-98069400D01*
X151066500Y-98069400D02*
X150685500Y-98069400D01*
X162623500Y-98069400D02*
X162242500Y-98069400D01*
X149161500Y-98145600D02*
X148399500Y-98145600D01*
X151066500Y-98145600D02*
X150685500Y-98145600D01*
X162623500Y-98145600D02*
X162242500Y-98145600D01*
X149161500Y-98221800D02*
X148399500Y-98221800D01*
X151066500Y-98221800D02*
X150685500Y-98221800D01*
X162623500Y-98221800D02*
X162242500Y-98221800D01*
X149161500Y-98298000D02*
X148399500Y-98298000D01*
X151066500Y-98298000D02*
X150685500Y-98298000D01*
X162623500Y-98298000D02*
X162242500Y-98298000D01*
X149161500Y-98374200D02*
X148399500Y-98374200D01*
X151066500Y-98374200D02*
X150685500Y-98374200D01*
X162623500Y-98374200D02*
X162242500Y-98374200D01*
X149161500Y-98450400D02*
X148399500Y-98450400D01*
X151066500Y-98450400D02*
X150685500Y-98450400D01*
X162623500Y-98450400D02*
X162242500Y-98450400D01*
X149161500Y-98526600D02*
X148399500Y-98526600D01*
X151066500Y-98526600D02*
X150685500Y-98526600D01*
X162623500Y-98526600D02*
X162242500Y-98526600D01*
X149161500Y-98602800D02*
X148399500Y-98602800D01*
X151066500Y-98602800D02*
X150685500Y-98602800D01*
X162623500Y-98602800D02*
X162242500Y-98602800D01*
X149161500Y-98679000D02*
X148399500Y-98679000D01*
X151066500Y-98679000D02*
X150685500Y-98679000D01*
X149161500Y-98755200D02*
X148399500Y-98755200D01*
X151066500Y-98755200D02*
X150685500Y-98755200D01*
X149161500Y-98831400D02*
X148399500Y-98831400D01*
X151066500Y-98831400D02*
X150685500Y-98831400D01*
X149161500Y-98907600D02*
X148399500Y-98907600D01*
X151066500Y-98907600D02*
X150685500Y-98907600D01*
X149161500Y-98983800D02*
X148399500Y-98983800D01*
X151066500Y-98983800D02*
X150685500Y-98983800D01*
X149161500Y-99060000D02*
X148399500Y-99060000D01*
X151066500Y-99060000D02*
X150685500Y-99060000D01*
X149161500Y-99136200D02*
X148399500Y-99136200D01*
X151066500Y-99136200D02*
X150685500Y-99136200D01*
X149161500Y-99212400D02*
X148399500Y-99212400D01*
X151066500Y-99212400D02*
X150685500Y-99212400D01*
X149161500Y-99288600D02*
X148399500Y-99288600D01*
X151066500Y-99288600D02*
X150685500Y-99288600D01*
X149161500Y-99364800D02*
X148399500Y-99364800D01*
X151066500Y-99364800D02*
X150685500Y-99364800D01*
X149161500Y-99441000D02*
X148399500Y-99441000D01*
X151066500Y-99441000D02*
X150685500Y-99441000D01*
X149161500Y-99517200D02*
X148399500Y-99517200D01*
X151066500Y-99517200D02*
X150685500Y-99517200D01*
X149161500Y-99593400D02*
X148399500Y-99593400D01*
X151066500Y-99593400D02*
X150685500Y-99593400D01*
X149161500Y-99669600D02*
X148399500Y-99669600D01*
X151066500Y-99669600D02*
X150685500Y-99669600D01*
X149161500Y-99745800D02*
X148399500Y-99745800D01*
X151079886Y-99745800D02*
X150671911Y-99745800D01*
X149161500Y-99822000D02*
X148399500Y-99822000D01*
X150183611Y-99822000D02*
X149415500Y-99822000D01*
X151145635Y-99822000D02*
X150606364Y-99822000D01*
X162626040Y-99822000D02*
X151568390Y-99822000D01*
X149161500Y-99898200D02*
X148399500Y-99898200D01*
X150116936Y-99898200D02*
X149415500Y-99898200D01*
X151212310Y-99898200D02*
X150539689Y-99898200D01*
X162626040Y-99898200D02*
X151635065Y-99898200D01*
X149161500Y-99974400D02*
X148399500Y-99974400D01*
X150050261Y-99974400D02*
X149415500Y-99974400D01*
X151278985Y-99974400D02*
X150473014Y-99974400D01*
X162626040Y-99974400D02*
X151701740Y-99974400D01*
X149161500Y-100050600D02*
X148399500Y-100050600D01*
X149983586Y-100050600D02*
X149415500Y-100050600D01*
X151345660Y-100050600D02*
X150406339Y-100050600D01*
X162626040Y-100050600D02*
X151768415Y-100050600D01*
X149161500Y-100126800D02*
X148399500Y-100126800D01*
X149916911Y-100126800D02*
X149415500Y-100126800D01*
X151412335Y-100126800D02*
X150339664Y-100126800D01*
X162626040Y-100126800D02*
X151835090Y-100126800D01*
X148795590Y-100203000D02*
X148765229Y-100203000D01*
X149850236Y-100203000D02*
X149415500Y-100203000D01*
X151479010Y-100203000D02*
X150272989Y-100203000D01*
X162626040Y-100203000D02*
X151901765Y-100203000D01*
X148793200Y-100279200D02*
X148767800Y-100279200D01*
X149783561Y-100279200D02*
X149415500Y-100279200D01*
X151545685Y-100279200D02*
X150206314Y-100279200D01*
X162626040Y-100279200D02*
X151968440Y-100279200D01*
X148795771Y-100355400D02*
X148765410Y-100355400D01*
X149716886Y-100355400D02*
X149413110Y-100355400D01*
X151612360Y-100355400D02*
X150139639Y-100355400D01*
X162626040Y-100355400D02*
X152035115Y-100355400D01*
X149650211Y-100431600D02*
X148195500Y-100431600D01*
X151679035Y-100431600D02*
X150072964Y-100431600D01*
X162626040Y-100431600D02*
X152101790Y-100431600D01*
X149583536Y-100507800D02*
X148195500Y-100507800D01*
X151745710Y-100507800D02*
X150006289Y-100507800D01*
X162626040Y-100507800D02*
X152168465Y-100507800D01*
X149516861Y-100584000D02*
X148195500Y-100584000D01*
X151812385Y-100584000D02*
X149939614Y-100584000D01*
X162626040Y-100584000D02*
X152235140Y-100584000D01*
X149450186Y-100660200D02*
X148195500Y-100660200D01*
X151879060Y-100660200D02*
X149872939Y-100660200D01*
X162626040Y-100660200D02*
X152301815Y-100660200D01*
X149415500Y-100736400D02*
X148195500Y-100736400D01*
X151945735Y-100736400D02*
X149806264Y-100736400D01*
X162626040Y-100736400D02*
X152336500Y-100736400D01*
X149415500Y-100812600D02*
X148195500Y-100812600D01*
X151955500Y-100812600D02*
X149796500Y-100812600D01*
X162626040Y-100812600D02*
X152336500Y-100812600D01*
X149415500Y-100888800D02*
X148195500Y-100888800D01*
X151955500Y-100888800D02*
X149796500Y-100888800D01*
X162626040Y-100888800D02*
X152336500Y-100888800D01*
X149415500Y-100965000D02*
X148195500Y-100965000D01*
X151955500Y-100965000D02*
X149796500Y-100965000D01*
X162626040Y-100965000D02*
X152336500Y-100965000D01*
X149415500Y-101041200D02*
X148195500Y-101041200D01*
X151955500Y-101041200D02*
X149796500Y-101041200D01*
X162626040Y-101041200D02*
X152336500Y-101041200D01*
X149415500Y-101117400D02*
X148195500Y-101117400D01*
X151955500Y-101117400D02*
X149796500Y-101117400D01*
X162626040Y-101117400D02*
X152336500Y-101117400D01*
X149415500Y-101193600D02*
X148195500Y-101193600D01*
X151955500Y-101193600D02*
X149796500Y-101193600D01*
X162626040Y-101193600D02*
X152336500Y-101193600D01*
X149415500Y-101269800D02*
X148195500Y-101269800D01*
X151955500Y-101269800D02*
X149796500Y-101269800D01*
X162626040Y-101269800D02*
X152336500Y-101269800D01*
X149415500Y-101346000D02*
X148195500Y-101346000D01*
X151955500Y-101346000D02*
X149796500Y-101346000D01*
X162626040Y-101346000D02*
X152336500Y-101346000D01*
X149415500Y-101422200D02*
X148195500Y-101422200D01*
X151955500Y-101422200D02*
X149796500Y-101422200D01*
X162626040Y-101422200D02*
X152336500Y-101422200D01*
X149415500Y-101498400D02*
X148195500Y-101498400D01*
X151955500Y-101498400D02*
X149796500Y-101498400D01*
X162626040Y-101498400D02*
X152336500Y-101498400D01*
X149415500Y-101574600D02*
X148195500Y-101574600D01*
X151955500Y-101574600D02*
X149796500Y-101574600D01*
X162626040Y-101574600D02*
X152336500Y-101574600D01*
X149415500Y-101650800D02*
X148195500Y-101650800D01*
X151955500Y-101650800D02*
X149796500Y-101650800D01*
X162626040Y-101650800D02*
X152336500Y-101650800D01*
X149415500Y-101727000D02*
X148195500Y-101727000D01*
X151955500Y-101727000D02*
X149796500Y-101727000D01*
X162626040Y-101727000D02*
X152336500Y-101727000D01*
X149415500Y-101803200D02*
X148195500Y-101803200D01*
X151955500Y-101803200D02*
X149796500Y-101803200D01*
X162626040Y-101803200D02*
X152336500Y-101803200D01*
X149415500Y-101879400D02*
X148195500Y-101879400D01*
X151955500Y-101879400D02*
X149796500Y-101879400D01*
X162626040Y-101879400D02*
X152336500Y-101879400D01*
X149415500Y-101955600D02*
X148195500Y-101955600D01*
X151955500Y-101955600D02*
X149796500Y-101955600D01*
X162626040Y-101955600D02*
X152336500Y-101955600D01*
X149415500Y-102031800D02*
X148195500Y-102031800D01*
X151955500Y-102031800D02*
X149796500Y-102031800D01*
X162626040Y-102031800D02*
X152336500Y-102031800D01*
X149415500Y-102108000D02*
X148195500Y-102108000D01*
X151955500Y-102108000D02*
X149796500Y-102108000D01*
X162626040Y-102108000D02*
X152336500Y-102108000D01*
X149415500Y-102184200D02*
X148195500Y-102184200D01*
X151955500Y-102184200D02*
X149796500Y-102184200D01*
X162626040Y-102184200D02*
X152336500Y-102184200D01*
X149415500Y-102260400D02*
X148195500Y-102260400D01*
X151955500Y-102260400D02*
X149796500Y-102260400D01*
X162626040Y-102260400D02*
X152336500Y-102260400D01*
X149415500Y-102336600D02*
X148195500Y-102336600D01*
X151955500Y-102336600D02*
X149796500Y-102336600D01*
X162626040Y-102336600D02*
X152336500Y-102336600D01*
X149415500Y-102412800D02*
X148195500Y-102412800D01*
X151955500Y-102412800D02*
X149796500Y-102412800D01*
X162626040Y-102412800D02*
X152336500Y-102412800D01*
X149415500Y-102489000D02*
X148195500Y-102489000D01*
X151955500Y-102489000D02*
X149796500Y-102489000D01*
X162626040Y-102489000D02*
X152336500Y-102489000D01*
X149415500Y-102565200D02*
X148195500Y-102565200D01*
X151955500Y-102565200D02*
X149796500Y-102565200D01*
X162626040Y-102565200D02*
X152336500Y-102565200D01*
X149415500Y-102641400D02*
X148195500Y-102641400D01*
X151955500Y-102641400D02*
X149796500Y-102641400D01*
X162626040Y-102641400D02*
X152336500Y-102641400D01*
X149415500Y-102717600D02*
X148195500Y-102717600D01*
X151955500Y-102717600D02*
X149796500Y-102717600D01*
X162626040Y-102717600D02*
X152336500Y-102717600D01*
X149415500Y-102793800D02*
X148195500Y-102793800D01*
X151955500Y-102793800D02*
X149796500Y-102793800D01*
X162626040Y-102793800D02*
X152336500Y-102793800D01*
X149415500Y-102870000D02*
X148195500Y-102870000D01*
X151955500Y-102870000D02*
X149796500Y-102870000D01*
X162626040Y-102870000D02*
X152336500Y-102870000D01*
X149415500Y-102946200D02*
X148195500Y-102946200D01*
X151955500Y-102946200D02*
X149796500Y-102946200D01*
X162626040Y-102946200D02*
X152336500Y-102946200D01*
X149415500Y-103022400D02*
X148195500Y-103022400D01*
X151955500Y-103022400D02*
X149796500Y-103022400D01*
X162626040Y-103022400D02*
X152336500Y-103022400D01*
X149415500Y-103098600D02*
X148195500Y-103098600D01*
X151955500Y-103098600D02*
X149796500Y-103098600D01*
X162626040Y-103098600D02*
X152336500Y-103098600D01*
X149415500Y-103174800D02*
X148195500Y-103174800D01*
X151955500Y-103174800D02*
X149796500Y-103174800D01*
X162626040Y-103174800D02*
X152336500Y-103174800D01*
X149415500Y-103251000D02*
X148195500Y-103251000D01*
X151955500Y-103251000D02*
X149796500Y-103251000D01*
X162626040Y-103251000D02*
X152336500Y-103251000D01*
X149415500Y-103327200D02*
X148195500Y-103327200D01*
X151955500Y-103327200D02*
X149796500Y-103327200D01*
X162626040Y-103327200D02*
X152336500Y-103327200D01*
X149415500Y-103403400D02*
X148195500Y-103403400D01*
X151955500Y-103403400D02*
X149796500Y-103403400D01*
X162626040Y-103403400D02*
X152336500Y-103403400D01*
X149415500Y-103479600D02*
X148195500Y-103479600D01*
X151955500Y-103479600D02*
X149796500Y-103479600D01*
X162626040Y-103479600D02*
X152336500Y-103479600D01*
X149415500Y-103555800D02*
X148195500Y-103555800D01*
X151955500Y-103555800D02*
X149796500Y-103555800D01*
X162626040Y-103555800D02*
X152336500Y-103555800D01*
X149415500Y-103632000D02*
X148195500Y-103632000D01*
X151955500Y-103632000D02*
X149796500Y-103632000D01*
X162626040Y-103632000D02*
X152336500Y-103632000D01*
X149415500Y-103708200D02*
X148195500Y-103708200D01*
X151955500Y-103708200D02*
X149796500Y-103708200D01*
X162626040Y-103708200D02*
X152336500Y-103708200D01*
X149415500Y-103784400D02*
X148195500Y-103784400D01*
X151955500Y-103784400D02*
X149796500Y-103784400D01*
X162626040Y-103784400D02*
X152336500Y-103784400D01*
X149415500Y-103860600D02*
X148195500Y-103860600D01*
X151955500Y-103860600D02*
X149796500Y-103860600D01*
X162626040Y-103860600D02*
X152336500Y-103860600D01*
X149415500Y-103936800D02*
X148195500Y-103936800D01*
X151955500Y-103936800D02*
X149796500Y-103936800D01*
X162626040Y-103936800D02*
X152336500Y-103936800D01*
X149415500Y-104013000D02*
X148195500Y-104013000D01*
X151955500Y-104013000D02*
X149796500Y-104013000D01*
X162626040Y-104013000D02*
X152336500Y-104013000D01*
X149415500Y-104089200D02*
X148195500Y-104089200D01*
X151955500Y-104089200D02*
X149796500Y-104089200D01*
X162626040Y-104089200D02*
X152336500Y-104089200D01*
X149415500Y-104165400D02*
X148195500Y-104165400D01*
X151955500Y-104165400D02*
X149796500Y-104165400D01*
X162626040Y-104165400D02*
X152336500Y-104165400D01*
X149415500Y-104241600D02*
X148195500Y-104241600D01*
X151955500Y-104241600D02*
X149796500Y-104241600D01*
X162626040Y-104241600D02*
X152336500Y-104241600D01*
X149415500Y-104317800D02*
X148195500Y-104317800D01*
X151955500Y-104317800D02*
X149796500Y-104317800D01*
X162626040Y-104317800D02*
X152336500Y-104317800D01*
X149415500Y-104394000D02*
X148195500Y-104394000D01*
X151955500Y-104394000D02*
X149796500Y-104394000D01*
X162626040Y-104394000D02*
X152336500Y-104394000D01*
X149415500Y-104470200D02*
X148195500Y-104470200D01*
X151955500Y-104470200D02*
X149796500Y-104470200D01*
X162626040Y-104470200D02*
X152336500Y-104470200D01*
X149415500Y-104546400D02*
X148195500Y-104546400D01*
X151955500Y-104546400D02*
X149796500Y-104546400D01*
X162626040Y-104546400D02*
X152336500Y-104546400D01*
X149415500Y-104622600D02*
X148195500Y-104622600D01*
X151955500Y-104622600D02*
X149796500Y-104622600D01*
X162626040Y-104622600D02*
X152336500Y-104622600D01*
X149415500Y-104698800D02*
X148195500Y-104698800D01*
X151955500Y-104698800D02*
X149796500Y-104698800D01*
X162626040Y-104698800D02*
X152336500Y-104698800D01*
X149415500Y-104775000D02*
X148195500Y-104775000D01*
X151955500Y-104775000D02*
X149796500Y-104775000D01*
X162626040Y-104775000D02*
X152336500Y-104775000D01*
X149415500Y-104851200D02*
X148195500Y-104851200D01*
X151955500Y-104851200D02*
X149796500Y-104851200D01*
X162626040Y-104851200D02*
X152336500Y-104851200D01*
X149415500Y-104927400D02*
X148195500Y-104927400D01*
X151955500Y-104927400D02*
X149796500Y-104927400D01*
X162626040Y-104927400D02*
X152336500Y-104927400D01*
X149415500Y-105003600D02*
X148195500Y-105003600D01*
X151955500Y-105003600D02*
X149796500Y-105003600D01*
X162626040Y-105003600D02*
X152336500Y-105003600D01*
X149415500Y-105079800D02*
X148195500Y-105079800D01*
X151955500Y-105079800D02*
X149796500Y-105079800D01*
X162626040Y-105079800D02*
X152336500Y-105079800D01*
X149415500Y-105156000D02*
X148195500Y-105156000D01*
X151955500Y-105156000D02*
X149796500Y-105156000D01*
X162626040Y-105156000D02*
X152336500Y-105156000D01*
X149415500Y-105232200D02*
X148195500Y-105232200D01*
X151955500Y-105232200D02*
X149796500Y-105232200D01*
X162626040Y-105232200D02*
X152336500Y-105232200D01*
X149415500Y-105308400D02*
X148195500Y-105308400D01*
X151955500Y-105308400D02*
X149796500Y-105308400D01*
X162626040Y-105308400D02*
X152336500Y-105308400D01*
X149415500Y-105384600D02*
X148195500Y-105384600D01*
X151955500Y-105384600D02*
X149796500Y-105384600D01*
X162626040Y-105384600D02*
X152336500Y-105384600D01*
X149415500Y-105460800D02*
X148195500Y-105460800D01*
X151955500Y-105460800D02*
X149796500Y-105460800D01*
X162626040Y-105460800D02*
X152336500Y-105460800D01*
X149415500Y-105537000D02*
X148195500Y-105537000D01*
X151955500Y-105537000D02*
X149796500Y-105537000D01*
X162626040Y-105537000D02*
X152336500Y-105537000D01*
X149415500Y-105613200D02*
X148195500Y-105613200D01*
X151955500Y-105613200D02*
X149796500Y-105613200D01*
X162626040Y-105613200D02*
X152336500Y-105613200D01*
X149415500Y-105689400D02*
X148195500Y-105689400D01*
X151955500Y-105689400D02*
X149796500Y-105689400D01*
X162626040Y-105689400D02*
X152336500Y-105689400D01*
X149415500Y-105765600D02*
X148195500Y-105765600D01*
X151955500Y-105765600D02*
X149796500Y-105765600D01*
X162626040Y-105765600D02*
X152336500Y-105765600D01*
X149415500Y-105841800D02*
X148195500Y-105841800D01*
X151955500Y-105841800D02*
X149796500Y-105841800D01*
X162626040Y-105841800D02*
X152336500Y-105841800D01*
X149415500Y-105918000D02*
X148195500Y-105918000D01*
X151955500Y-105918000D02*
X149796500Y-105918000D01*
X162626040Y-105918000D02*
X152336500Y-105918000D01*
X149415500Y-105994200D02*
X148195500Y-105994200D01*
X151955500Y-105994200D02*
X149796500Y-105994200D01*
X162626040Y-105994200D02*
X152336500Y-105994200D01*
X149415500Y-106070400D02*
X148195500Y-106070400D01*
X151955500Y-106070400D02*
X149796500Y-106070400D01*
X162626040Y-106070400D02*
X152336500Y-106070400D01*
X149415500Y-106146600D02*
X148195500Y-106146600D01*
X151955500Y-106146600D02*
X149796500Y-106146600D01*
X162626040Y-106146600D02*
X152336500Y-106146600D01*
X149415500Y-106222800D02*
X148195500Y-106222800D01*
X151955500Y-106222800D02*
X149796500Y-106222800D01*
X162626040Y-106222800D02*
X152336500Y-106222800D01*
X149415500Y-106299000D02*
X148195500Y-106299000D01*
X151955500Y-106299000D02*
X149796500Y-106299000D01*
X162626040Y-106299000D02*
X152336500Y-106299000D01*
X149415500Y-106375200D02*
X148195500Y-106375200D01*
X151955500Y-106375200D02*
X149796500Y-106375200D01*
X162626040Y-106375200D02*
X152336500Y-106375200D01*
X149415500Y-106451400D02*
X148195500Y-106451400D01*
X151955500Y-106451400D02*
X149796500Y-106451400D01*
X162626040Y-106451400D02*
X152336500Y-106451400D01*
X149415500Y-106527600D02*
X148195500Y-106527600D01*
X151955500Y-106527600D02*
X149796500Y-106527600D01*
X162626040Y-106527600D02*
X152336500Y-106527600D01*
X149415500Y-106603800D02*
X148195500Y-106603800D01*
X151955500Y-106603800D02*
X149796500Y-106603800D01*
X162626040Y-106603800D02*
X152336500Y-106603800D01*
X149415500Y-106680000D02*
X148195500Y-106680000D01*
X151955500Y-106680000D02*
X149796500Y-106680000D01*
X162626040Y-106680000D02*
X152336500Y-106680000D01*
X149415500Y-106756200D02*
X148195500Y-106756200D01*
X151955500Y-106756200D02*
X149796500Y-106756200D01*
X162626040Y-106756200D02*
X152336500Y-106756200D01*
X149415500Y-106832400D02*
X148195500Y-106832400D01*
X151955500Y-106832400D02*
X149796500Y-106832400D01*
X162626040Y-106832400D02*
X152336500Y-106832400D01*
X149415500Y-106908600D02*
X148195500Y-106908600D01*
X151955500Y-106908600D02*
X149796500Y-106908600D01*
X162626040Y-106908600D02*
X152336500Y-106908600D01*
X149415500Y-106984800D02*
X148195500Y-106984800D01*
X151955500Y-106984800D02*
X149796500Y-106984800D01*
X162626040Y-106984800D02*
X152336500Y-106984800D01*
X149415500Y-107061000D02*
X148195500Y-107061000D01*
X151955500Y-107061000D02*
X149796500Y-107061000D01*
X162626040Y-107061000D02*
X152336500Y-107061000D01*
X149415500Y-107137200D02*
X148195500Y-107137200D01*
X151955500Y-107137200D02*
X149796500Y-107137200D01*
X162626040Y-107137200D02*
X152336500Y-107137200D01*
X149415500Y-107213400D02*
X148195500Y-107213400D01*
X151955500Y-107213400D02*
X149796500Y-107213400D01*
X162626040Y-107213400D02*
X152336500Y-107213400D01*
X149415500Y-107289600D02*
X148195500Y-107289600D01*
X151955500Y-107289600D02*
X149796500Y-107289600D01*
X162626040Y-107289600D02*
X152336500Y-107289600D01*
X149415500Y-107365800D02*
X148195500Y-107365800D01*
X151955500Y-107365800D02*
X149796500Y-107365800D01*
X162626040Y-107365800D02*
X152336500Y-107365800D01*
X149415500Y-107442000D02*
X148195500Y-107442000D01*
X151955500Y-107442000D02*
X149796500Y-107442000D01*
X162626040Y-107442000D02*
X152336500Y-107442000D01*
X149415500Y-107518200D02*
X148195500Y-107518200D01*
X151955500Y-107518200D02*
X149796500Y-107518200D01*
X162626040Y-107518200D02*
X152336500Y-107518200D01*
X149415500Y-107594400D02*
X148195500Y-107594400D01*
X151955500Y-107594400D02*
X149796500Y-107594400D01*
X162626040Y-107594400D02*
X152336500Y-107594400D01*
X149415500Y-107670600D02*
X148195500Y-107670600D01*
X151955500Y-107670600D02*
X149796500Y-107670600D01*
X162626040Y-107670600D02*
X152336500Y-107670600D01*
X149415500Y-107746800D02*
X148195500Y-107746800D01*
X151955500Y-107746800D02*
X149796500Y-107746800D01*
X162626040Y-107746800D02*
X152336500Y-107746800D01*
X149415500Y-107823000D02*
X148195500Y-107823000D01*
X151955500Y-107823000D02*
X149796500Y-107823000D01*
X162626040Y-107823000D02*
X152336500Y-107823000D01*
X149415500Y-107899200D02*
X148195500Y-107899200D01*
X151955500Y-107899200D02*
X149796500Y-107899200D01*
X162626040Y-107899200D02*
X152336500Y-107899200D01*
X149415500Y-107975400D02*
X148195500Y-107975400D01*
X151955500Y-107975400D02*
X149796500Y-107975400D01*
X162626040Y-107975400D02*
X152336500Y-107975400D01*
X149415500Y-108051600D02*
X148195500Y-108051600D01*
X151955500Y-108051600D02*
X149796500Y-108051600D01*
X162626040Y-108051600D02*
X152336500Y-108051600D01*
X149415500Y-108127800D02*
X148195500Y-108127800D01*
X151955500Y-108127800D02*
X149796500Y-108127800D01*
X162626040Y-108127800D02*
X152336500Y-108127800D01*
X149415500Y-108204000D02*
X148195500Y-108204000D01*
X151955500Y-108204000D02*
X149796500Y-108204000D01*
X162626040Y-108204000D02*
X152336500Y-108204000D01*
X149415500Y-108280200D02*
X148195500Y-108280200D01*
X151955500Y-108280200D02*
X149796500Y-108280200D01*
X162626040Y-108280200D02*
X152336500Y-108280200D01*
X149415500Y-108356400D02*
X148195500Y-108356400D01*
X151955500Y-108356400D02*
X149796500Y-108356400D01*
X162626040Y-108356400D02*
X152336500Y-108356400D01*
X149415500Y-108432600D02*
X148195500Y-108432600D01*
X151955500Y-108432600D02*
X149796500Y-108432600D01*
X162626040Y-108432600D02*
X152336500Y-108432600D01*
X149415500Y-108508800D02*
X148195500Y-108508800D01*
X151955500Y-108508800D02*
X149796500Y-108508800D01*
X162626040Y-108508800D02*
X152336500Y-108508800D01*
X149415500Y-108585000D02*
X148195500Y-108585000D01*
X151955500Y-108585000D02*
X149796500Y-108585000D01*
X162626040Y-108585000D02*
X152336500Y-108585000D01*
X149415500Y-108661200D02*
X148195500Y-108661200D01*
X151955500Y-108661200D02*
X149796500Y-108661200D01*
X162626040Y-108661200D02*
X152336500Y-108661200D01*
X149415500Y-108737400D02*
X148195500Y-108737400D01*
X151955500Y-108737400D02*
X149796500Y-108737400D01*
X162626040Y-108737400D02*
X152336500Y-108737400D01*
X149415500Y-108813600D02*
X148195500Y-108813600D01*
X151955500Y-108813600D02*
X149796500Y-108813600D01*
X162626040Y-108813600D02*
X152336500Y-108813600D01*
X149415500Y-108889800D02*
X148195500Y-108889800D01*
X151955500Y-108889800D02*
X149796500Y-108889800D01*
X162626040Y-108889800D02*
X152336500Y-108889800D01*
X149415500Y-108966000D02*
X148195500Y-108966000D01*
X151955500Y-108966000D02*
X149796500Y-108966000D01*
X162626040Y-108966000D02*
X152336500Y-108966000D01*
X149415500Y-109042200D02*
X148195500Y-109042200D01*
X151955500Y-109042200D02*
X149796500Y-109042200D01*
X162626040Y-109042200D02*
X152336500Y-109042200D01*
X149415500Y-109118400D02*
X148195500Y-109118400D01*
X151955500Y-109118400D02*
X149796500Y-109118400D01*
X162626040Y-109118400D02*
X152336500Y-109118400D01*
X149415500Y-109194600D02*
X148195500Y-109194600D01*
X151955500Y-109194600D02*
X149796500Y-109194600D01*
X162626040Y-109194600D02*
X152336500Y-109194600D01*
X149415500Y-109270800D02*
X148195500Y-109270800D01*
X151955500Y-109270800D02*
X149796500Y-109270800D01*
X162626040Y-109270800D02*
X152336500Y-109270800D01*
X149415500Y-109347000D02*
X148195500Y-109347000D01*
X151955500Y-109347000D02*
X149796500Y-109347000D01*
X162626040Y-109347000D02*
X152336500Y-109347000D01*
X149415500Y-109423200D02*
X148195500Y-109423200D01*
X151955500Y-109423200D02*
X149796500Y-109423200D01*
X162626040Y-109423200D02*
X152336500Y-109423200D01*
X149415500Y-109499400D02*
X148195500Y-109499400D01*
X151955500Y-109499400D02*
X149796500Y-109499400D01*
X162626040Y-109499400D02*
X152336500Y-109499400D01*
X149415500Y-109575600D02*
X148195500Y-109575600D01*
X151955500Y-109575600D02*
X149796500Y-109575600D01*
X162626040Y-109575600D02*
X152336500Y-109575600D01*
X149415500Y-109651800D02*
X148195500Y-109651800D01*
X151955500Y-109651800D02*
X149796500Y-109651800D01*
X162626040Y-109651800D02*
X152336500Y-109651800D01*
X149415500Y-109728000D02*
X148195500Y-109728000D01*
X151955500Y-109728000D02*
X149796500Y-109728000D01*
X162626040Y-109728000D02*
X152336500Y-109728000D01*
X149415500Y-109804200D02*
X148195500Y-109804200D01*
X151955500Y-109804200D02*
X149796500Y-109804200D01*
X162626040Y-109804200D02*
X152336500Y-109804200D01*
X149415500Y-109880400D02*
X148195500Y-109880400D01*
X151955500Y-109880400D02*
X149796500Y-109880400D01*
X162626040Y-109880400D02*
X152336500Y-109880400D01*
X149415500Y-109956600D02*
X148195500Y-109956600D01*
X151955500Y-109956600D02*
X149796500Y-109956600D01*
X162626040Y-109956600D02*
X152336500Y-109956600D01*
X149415500Y-110032800D02*
X148195500Y-110032800D01*
X151955500Y-110032800D02*
X149796500Y-110032800D01*
X162626040Y-110032800D02*
X152336500Y-110032800D01*
X149415500Y-110109000D02*
X148195500Y-110109000D01*
X151955500Y-110109000D02*
X149796500Y-110109000D01*
X162626040Y-110109000D02*
X152336500Y-110109000D01*
X149415500Y-110185200D02*
X148195500Y-110185200D01*
X151955500Y-110185200D02*
X149796500Y-110185200D01*
X162626040Y-110185200D02*
X152336500Y-110185200D01*
X149415500Y-110261400D02*
X148195500Y-110261400D01*
X151955500Y-110261400D02*
X149796500Y-110261400D01*
X162626040Y-110261400D02*
X152336500Y-110261400D01*
X149415500Y-110337600D02*
X148195500Y-110337600D01*
X151955500Y-110337600D02*
X149796500Y-110337600D01*
X162626040Y-110337600D02*
X152336500Y-110337600D01*
X149415500Y-110413800D02*
X148195500Y-110413800D01*
X151955500Y-110413800D02*
X149796500Y-110413800D01*
X162626040Y-110413800D02*
X152336500Y-110413800D01*
X149415500Y-110490000D02*
X148195500Y-110490000D01*
X151955500Y-110490000D02*
X149796500Y-110490000D01*
X162626040Y-110490000D02*
X152336500Y-110490000D01*
X149415500Y-110566200D02*
X148195500Y-110566200D01*
X151955500Y-110566200D02*
X149796500Y-110566200D01*
X162626040Y-110566200D02*
X152336500Y-110566200D01*
X149415500Y-110642400D02*
X148195500Y-110642400D01*
X151955500Y-110642400D02*
X149796500Y-110642400D01*
X162626040Y-110642400D02*
X152336500Y-110642400D01*
X149415500Y-110718600D02*
X148195500Y-110718600D01*
X151955500Y-110718600D02*
X149796500Y-110718600D01*
X162626040Y-110718600D02*
X152336500Y-110718600D01*
X149415500Y-110794800D02*
X148195500Y-110794800D01*
X151955500Y-110794800D02*
X149796500Y-110794800D01*
X162626040Y-110794800D02*
X152336500Y-110794800D01*
X149415500Y-110871000D02*
X148195500Y-110871000D01*
X151955500Y-110871000D02*
X149796500Y-110871000D01*
X162626040Y-110871000D02*
X152336500Y-110871000D01*
X149415500Y-110947200D02*
X148195500Y-110947200D01*
X151955500Y-110947200D02*
X149796500Y-110947200D01*
X162626040Y-110947200D02*
X152336500Y-110947200D01*
X149415500Y-111023400D02*
X148195500Y-111023400D01*
X151955500Y-111023400D02*
X149796500Y-111023400D01*
X162626040Y-111023400D02*
X152336500Y-111023400D01*
X149415500Y-111099600D02*
X148195500Y-111099600D01*
X151955500Y-111099600D02*
X149796500Y-111099600D01*
X162626040Y-111099600D02*
X152336500Y-111099600D01*
X149415500Y-111175800D02*
X148195500Y-111175800D01*
X151955500Y-111175800D02*
X149796500Y-111175800D01*
X162626040Y-111175800D02*
X152336500Y-111175800D01*
X149415500Y-111252000D02*
X148195500Y-111252000D01*
X151955500Y-111252000D02*
X149796500Y-111252000D01*
X162626040Y-111252000D02*
X152336500Y-111252000D01*
X149415500Y-111328200D02*
X148195500Y-111328200D01*
X151955500Y-111328200D02*
X149796500Y-111328200D01*
X162626040Y-111328200D02*
X152336500Y-111328200D01*
X149415500Y-111404400D02*
X148195500Y-111404400D01*
X151955500Y-111404400D02*
X149796500Y-111404400D01*
X162626040Y-111404400D02*
X152336500Y-111404400D01*
X149415500Y-111480600D02*
X148195500Y-111480600D01*
X151955500Y-111480600D02*
X149796500Y-111480600D01*
X162626040Y-111480600D02*
X152336500Y-111480600D01*
X149415500Y-111556800D02*
X148195500Y-111556800D01*
X151955500Y-111556800D02*
X149796500Y-111556800D01*
X162626040Y-111556800D02*
X152336500Y-111556800D01*
X149415500Y-111633000D02*
X148195500Y-111633000D01*
X151955500Y-111633000D02*
X149796500Y-111633000D01*
X162626040Y-111633000D02*
X152336500Y-111633000D01*
X149415500Y-111709200D02*
X148195500Y-111709200D01*
X151955500Y-111709200D02*
X149796500Y-111709200D01*
X162626040Y-111709200D02*
X152336500Y-111709200D01*
X149415500Y-111785400D02*
X148195500Y-111785400D01*
X151955500Y-111785400D02*
X149796500Y-111785400D01*
X162626040Y-111785400D02*
X152336500Y-111785400D01*
X149415500Y-111861600D02*
X148195500Y-111861600D01*
X151955500Y-111861600D02*
X149796500Y-111861600D01*
X162626040Y-111861600D02*
X152336500Y-111861600D01*
X149415500Y-111937800D02*
X148195500Y-111937800D01*
X151955500Y-111937800D02*
X149796500Y-111937800D01*
X162626040Y-111937800D02*
X152336500Y-111937800D01*
X149415500Y-112014000D02*
X148195500Y-112014000D01*
X151955500Y-112014000D02*
X149796500Y-112014000D01*
X162626040Y-112014000D02*
X152336500Y-112014000D01*
X149415500Y-112090200D02*
X148195500Y-112090200D01*
X151955500Y-112090200D02*
X149796500Y-112090200D01*
X162626040Y-112090200D02*
X152336500Y-112090200D01*
X149415500Y-112166400D02*
X148195500Y-112166400D01*
X151955500Y-112166400D02*
X149796500Y-112166400D01*
X162626040Y-112166400D02*
X152336500Y-112166400D01*
X149415500Y-112242600D02*
X148195500Y-112242600D01*
X151955500Y-112242600D02*
X149796500Y-112242600D01*
X162626040Y-112242600D02*
X152336500Y-112242600D01*
X149415500Y-112318800D02*
X148195500Y-112318800D01*
X151955500Y-112318800D02*
X149796500Y-112318800D01*
X162626040Y-112318800D02*
X152336500Y-112318800D01*
X149415500Y-112395000D02*
X148195500Y-112395000D01*
X151955500Y-112395000D02*
X149796500Y-112395000D01*
X162626040Y-112395000D02*
X152336500Y-112395000D01*
X149415500Y-112471200D02*
X148195500Y-112471200D01*
X151955500Y-112471200D02*
X149796500Y-112471200D01*
X162626040Y-112471200D02*
X152336500Y-112471200D01*
X149415500Y-112547400D02*
X148195500Y-112547400D01*
X151955500Y-112547400D02*
X149796500Y-112547400D01*
X162626040Y-112547400D02*
X152336500Y-112547400D01*
X149415500Y-112623600D02*
X148195500Y-112623600D01*
X151955500Y-112623600D02*
X149796500Y-112623600D01*
X162626040Y-112623600D02*
X152336500Y-112623600D01*
X149415500Y-112699800D02*
X148195500Y-112699800D01*
X151955500Y-112699800D02*
X149796500Y-112699800D01*
X162626040Y-112699800D02*
X152336500Y-112699800D01*
X149415500Y-112776000D02*
X148195500Y-112776000D01*
X151955500Y-112776000D02*
X149796500Y-112776000D01*
X162626040Y-112776000D02*
X152336500Y-112776000D01*
X149415500Y-112852200D02*
X148195500Y-112852200D01*
X151955500Y-112852200D02*
X149796500Y-112852200D01*
X162626040Y-112852200D02*
X152336500Y-112852200D01*
X149415500Y-112928400D02*
X148195500Y-112928400D01*
X151955500Y-112928400D02*
X149796500Y-112928400D01*
X162626040Y-112928400D02*
X152336500Y-112928400D01*
X149415500Y-113004600D02*
X148195500Y-113004600D01*
X151955500Y-113004600D02*
X149796500Y-113004600D01*
X162626040Y-113004600D02*
X152336500Y-113004600D01*
X149415500Y-113080800D02*
X148195500Y-113080800D01*
X151955500Y-113080800D02*
X149796500Y-113080800D01*
X162626040Y-113080800D02*
X152336500Y-113080800D01*
X149415500Y-113157000D02*
X148195500Y-113157000D01*
X151955500Y-113157000D02*
X149796500Y-113157000D01*
X162626040Y-113157000D02*
X152336500Y-113157000D01*
X149415500Y-113233200D02*
X148195500Y-113233200D01*
X151955500Y-113233200D02*
X149796500Y-113233200D01*
X162626040Y-113233200D02*
X152336500Y-113233200D01*
X149415500Y-113309400D02*
X148195500Y-113309400D01*
X151955500Y-113309400D02*
X149796500Y-113309400D01*
X162626040Y-113309400D02*
X152336500Y-113309400D01*
X149415500Y-113385600D02*
X148195500Y-113385600D01*
X151955500Y-113385600D02*
X149796500Y-113385600D01*
X162626040Y-113385600D02*
X152336500Y-113385600D01*
X149415500Y-113461800D02*
X148187922Y-113461800D01*
X151955500Y-113461800D02*
X149796500Y-113461800D01*
X162626040Y-113461800D02*
X152336500Y-113461800D01*
X149415500Y-113538000D02*
X148172764Y-113538000D01*
X151955500Y-113538000D02*
X149796500Y-113538000D01*
X162626040Y-113538000D02*
X152336500Y-113538000D01*
X149415500Y-113614200D02*
X148134208Y-113614200D01*
X151955500Y-113614200D02*
X149796500Y-113614200D01*
X162626040Y-113614200D02*
X152336500Y-113614200D01*
X149415500Y-113690400D02*
X148081024Y-113690400D01*
X151955500Y-113690400D02*
X149796500Y-113690400D01*
X162626040Y-113690400D02*
X152336500Y-113690400D01*
X149415500Y-113766600D02*
X148004824Y-113766600D01*
X151955500Y-113766600D02*
X149796500Y-113766600D01*
X162626040Y-113766600D02*
X152336500Y-113766600D01*
X149415500Y-113842800D02*
X147928624Y-113842800D01*
X151955500Y-113842800D02*
X149796500Y-113842800D01*
X162626040Y-113842800D02*
X152336500Y-113842800D01*
X149415500Y-113919000D02*
X147852424Y-113919000D01*
X151955500Y-113919000D02*
X149796500Y-113919000D01*
X162626040Y-113919000D02*
X152336500Y-113919000D01*
X149415500Y-113995200D02*
X147776224Y-113995200D01*
X151955500Y-113995200D02*
X149796500Y-113995200D01*
X162626040Y-113995200D02*
X152336500Y-113995200D01*
X149415500Y-114071400D02*
X147700024Y-114071400D01*
X151955500Y-114071400D02*
X149796500Y-114071400D01*
X162626040Y-114071400D02*
X152336500Y-114071400D01*
X149415500Y-114147600D02*
X147623824Y-114147600D01*
X151955500Y-114147600D02*
X149796500Y-114147600D01*
X162626040Y-114147600D02*
X152336500Y-114147600D01*
X149415500Y-114223800D02*
X147547624Y-114223800D01*
X151955500Y-114223800D02*
X149796500Y-114223800D01*
X162626040Y-114223800D02*
X152336500Y-114223800D01*
X149415500Y-114300000D02*
X147471424Y-114300000D01*
X151955500Y-114300000D02*
X149796500Y-114300000D01*
X162626040Y-114300000D02*
X152336500Y-114300000D01*
X149415500Y-114376200D02*
X147395224Y-114376200D01*
X151955500Y-114376200D02*
X149796500Y-114376200D01*
X162626040Y-114376200D02*
X152336500Y-114376200D01*
X149415500Y-114452400D02*
X147319024Y-114452400D01*
X151955500Y-114452400D02*
X149796500Y-114452400D01*
X162626040Y-114452400D02*
X152336500Y-114452400D01*
X149415500Y-114528600D02*
X147242824Y-114528600D01*
X151955500Y-114528600D02*
X149796500Y-114528600D01*
X162626040Y-114528600D02*
X152336500Y-114528600D01*
X149415500Y-114604800D02*
X147166624Y-114604800D01*
X151955500Y-114604800D02*
X149796500Y-114604800D01*
X162626040Y-114604800D02*
X152336500Y-114604800D01*
X149415500Y-114681000D02*
X147090424Y-114681000D01*
X151955500Y-114681000D02*
X149796500Y-114681000D01*
X162626040Y-114681000D02*
X152336500Y-114681000D01*
X149415500Y-114757200D02*
X147014224Y-114757200D01*
X151955500Y-114757200D02*
X149796500Y-114757200D01*
X162626040Y-114757200D02*
X152336500Y-114757200D01*
X149415500Y-114833400D02*
X146938024Y-114833400D01*
X151955500Y-114833400D02*
X149796500Y-114833400D01*
X162626040Y-114833400D02*
X152336500Y-114833400D01*
X149415500Y-114909600D02*
X146861824Y-114909600D01*
X151955500Y-114909600D02*
X149796500Y-114909600D01*
X162626040Y-114909600D02*
X152336500Y-114909600D01*
X149415500Y-114985800D02*
X146785624Y-114985800D01*
X151955500Y-114985800D02*
X149796500Y-114985800D01*
X162626040Y-114985800D02*
X152336500Y-114985800D01*
X149415500Y-115062000D02*
X146709424Y-115062000D01*
X151955500Y-115062000D02*
X149796500Y-115062000D01*
X162626040Y-115062000D02*
X152336500Y-115062000D01*
X149415500Y-115138200D02*
X146633224Y-115138200D01*
X151955500Y-115138200D02*
X149796500Y-115138200D01*
X162626040Y-115138200D02*
X152336500Y-115138200D01*
X149415500Y-115214400D02*
X146557024Y-115214400D01*
X151955500Y-115214400D02*
X149796500Y-115214400D01*
X162626040Y-115214400D02*
X152336500Y-115214400D01*
X149415500Y-115290600D02*
X146480824Y-115290600D01*
X151955500Y-115290600D02*
X149796500Y-115290600D01*
X162626040Y-115290600D02*
X152336500Y-115290600D01*
X149415500Y-115366800D02*
X146404624Y-115366800D01*
X151955500Y-115366800D02*
X149796500Y-115366800D01*
X162626040Y-115366800D02*
X152336500Y-115366800D01*
X149415500Y-115443000D02*
X146328424Y-115443000D01*
X151955500Y-115443000D02*
X149796500Y-115443000D01*
X162626040Y-115443000D02*
X152336500Y-115443000D01*
X149415500Y-115519200D02*
X146252224Y-115519200D01*
X151955500Y-115519200D02*
X149796500Y-115519200D01*
X162626040Y-115519200D02*
X152336500Y-115519200D01*
X149415500Y-115595400D02*
X146176024Y-115595400D01*
X151955500Y-115595400D02*
X149796500Y-115595400D01*
X162626040Y-115595400D02*
X152336500Y-115595400D01*
X149415500Y-115671600D02*
X146099824Y-115671600D01*
X151955500Y-115671600D02*
X149796500Y-115671600D01*
X162626040Y-115671600D02*
X152336500Y-115671600D01*
X149415500Y-115747800D02*
X146023624Y-115747800D01*
X151955500Y-115747800D02*
X149796500Y-115747800D01*
X162626040Y-115747800D02*
X152336500Y-115747800D01*
X149415500Y-115824000D02*
X145947424Y-115824000D01*
X151955500Y-115824000D02*
X149796500Y-115824000D01*
X162626040Y-115824000D02*
X152336500Y-115824000D01*
X149415500Y-115900200D02*
X145871224Y-115900200D01*
X151955500Y-115900200D02*
X149796500Y-115900200D01*
X162626040Y-115900200D02*
X152336500Y-115900200D01*
X149415500Y-115976400D02*
X145795024Y-115976400D01*
X151955500Y-115976400D02*
X149796500Y-115976400D01*
X162626040Y-115976400D02*
X152336500Y-115976400D01*
X149415500Y-116052600D02*
X145718824Y-116052600D01*
X151955500Y-116052600D02*
X149796500Y-116052600D01*
X162626040Y-116052600D02*
X152336500Y-116052600D01*
X149415500Y-116128800D02*
X145642624Y-116128800D01*
X151955500Y-116128800D02*
X149796500Y-116128800D01*
X162626040Y-116128800D02*
X152336500Y-116128800D01*
X149415500Y-116205000D02*
X145566424Y-116205000D01*
X151955500Y-116205000D02*
X149796500Y-116205000D01*
X162626040Y-116205000D02*
X152336500Y-116205000D01*
X149415500Y-116281200D02*
X145490224Y-116281200D01*
X151955500Y-116281200D02*
X149796500Y-116281200D01*
X162626040Y-116281200D02*
X152336500Y-116281200D01*
X149415500Y-116357400D02*
X145414024Y-116357400D01*
X151955500Y-116357400D02*
X149796500Y-116357400D01*
X162626040Y-116357400D02*
X152336500Y-116357400D01*
X149415500Y-116433600D02*
X145337824Y-116433600D01*
X151955500Y-116433600D02*
X149796500Y-116433600D01*
X162626040Y-116433600D02*
X152336500Y-116433600D01*
X149415500Y-116509800D02*
X145261624Y-116509800D01*
X151955500Y-116509800D02*
X149796500Y-116509800D01*
X162626040Y-116509800D02*
X152336500Y-116509800D01*
X149415500Y-116586000D02*
X145185424Y-116586000D01*
X151955500Y-116586000D02*
X149796500Y-116586000D01*
X162626040Y-116586000D02*
X152336500Y-116586000D01*
X149415500Y-116662200D02*
X145109224Y-116662200D01*
X151955500Y-116662200D02*
X149796500Y-116662200D01*
X162626040Y-116662200D02*
X152336500Y-116662200D01*
X149415500Y-116738400D02*
X145033024Y-116738400D01*
X151955500Y-116738400D02*
X149796500Y-116738400D01*
X162626040Y-116738400D02*
X152336500Y-116738400D01*
X149415500Y-116814600D02*
X144956824Y-116814600D01*
X151955500Y-116814600D02*
X149796500Y-116814600D01*
X162626040Y-116814600D02*
X152336500Y-116814600D01*
X149415500Y-116890800D02*
X144880624Y-116890800D01*
X151955500Y-116890800D02*
X149796500Y-116890800D01*
X162626040Y-116890800D02*
X152336500Y-116890800D01*
X149415500Y-116967000D02*
X144804424Y-116967000D01*
X151955500Y-116967000D02*
X149796500Y-116967000D01*
X162626040Y-116967000D02*
X152336500Y-116967000D01*
X149415500Y-117043200D02*
X144728224Y-117043200D01*
X151955500Y-117043200D02*
X149796500Y-117043200D01*
X162626040Y-117043200D02*
X152336500Y-117043200D01*
X149415500Y-117119400D02*
X144652024Y-117119400D01*
X151955500Y-117119400D02*
X149796500Y-117119400D01*
X162626040Y-117119400D02*
X152336500Y-117119400D01*
X149415500Y-117195600D02*
X144575824Y-117195600D01*
X151955500Y-117195600D02*
X149796500Y-117195600D01*
X162626040Y-117195600D02*
X152336500Y-117195600D01*
X149415500Y-117271800D02*
X144499624Y-117271800D01*
X151955500Y-117271800D02*
X149796500Y-117271800D01*
X162626040Y-117271800D02*
X152336500Y-117271800D01*
X149415500Y-117348000D02*
X144423424Y-117348000D01*
X151955500Y-117348000D02*
X149796500Y-117348000D01*
X162626040Y-117348000D02*
X152336500Y-117348000D01*
X149415500Y-117424200D02*
X144385500Y-117424200D01*
X151955500Y-117424200D02*
X149796500Y-117424200D01*
X162626040Y-117424200D02*
X152336500Y-117424200D01*
X149415500Y-117500400D02*
X144385500Y-117500400D01*
X151955500Y-117500400D02*
X149796500Y-117500400D01*
X162626040Y-117500400D02*
X152336500Y-117500400D01*
X149415500Y-117576600D02*
X144385500Y-117576600D01*
X151955500Y-117576600D02*
X149796500Y-117576600D01*
X162626040Y-117576600D02*
X152336500Y-117576600D01*
X149415500Y-117652800D02*
X144385500Y-117652800D01*
X151955500Y-117652800D02*
X149796500Y-117652800D01*
X162626040Y-117652800D02*
X152336500Y-117652800D01*
X149415500Y-117729000D02*
X144385500Y-117729000D01*
X151955500Y-117729000D02*
X149796500Y-117729000D01*
X162626040Y-117729000D02*
X152336500Y-117729000D01*
X149415500Y-117805200D02*
X144385500Y-117805200D01*
X151955500Y-117805200D02*
X149796500Y-117805200D01*
X162626040Y-117805200D02*
X152336500Y-117805200D01*
X149415500Y-117881400D02*
X144385500Y-117881400D01*
X151955500Y-117881400D02*
X149796500Y-117881400D01*
X162626040Y-117881400D02*
X152336500Y-117881400D01*
X149415500Y-117957600D02*
X144385500Y-117957600D01*
X151955500Y-117957600D02*
X149796500Y-117957600D01*
X162626040Y-117957600D02*
X152336500Y-117957600D01*
X149415500Y-118033800D02*
X144385500Y-118033800D01*
X151955500Y-118033800D02*
X149796500Y-118033800D01*
X162626040Y-118033800D02*
X152336500Y-118033800D01*
X149415500Y-118110000D02*
X144385500Y-118110000D01*
X151955500Y-118110000D02*
X149796500Y-118110000D01*
X162626040Y-118110000D02*
X152336500Y-118110000D01*
X149415500Y-118186200D02*
X144385500Y-118186200D01*
X151955500Y-118186200D02*
X149796500Y-118186200D01*
X162626040Y-118186200D02*
X152336500Y-118186200D01*
X149415500Y-118262400D02*
X144385500Y-118262400D01*
X151955500Y-118262400D02*
X149796500Y-118262400D01*
X162626040Y-118262400D02*
X152336500Y-118262400D01*
X149415500Y-118338600D02*
X144385500Y-118338600D01*
X151955500Y-118338600D02*
X149796500Y-118338600D01*
X162626040Y-118338600D02*
X152336500Y-118338600D01*
X149415500Y-118414800D02*
X144385500Y-118414800D01*
X151955500Y-118414800D02*
X149796500Y-118414800D01*
X162626040Y-118414800D02*
X152336500Y-118414800D01*
X149415500Y-118491000D02*
X144385500Y-118491000D01*
X151955500Y-118491000D02*
X149796500Y-118491000D01*
X162626040Y-118491000D02*
X152336500Y-118491000D01*
X149415500Y-118567200D02*
X144385500Y-118567200D01*
X151955500Y-118567200D02*
X149796500Y-118567200D01*
X162626040Y-118567200D02*
X152336500Y-118567200D01*
X149415500Y-118643400D02*
X144385500Y-118643400D01*
X151955500Y-118643400D02*
X149796500Y-118643400D01*
X162626040Y-118643400D02*
X152336500Y-118643400D01*
X149415500Y-118719600D02*
X144385500Y-118719600D01*
X151955500Y-118719600D02*
X149796500Y-118719600D01*
X162626040Y-118719600D02*
X152336500Y-118719600D01*
X149415500Y-118795800D02*
X144385500Y-118795800D01*
X151955500Y-118795800D02*
X149796500Y-118795800D01*
X162626040Y-118795800D02*
X152336500Y-118795800D01*
X149415500Y-118872000D02*
X144385500Y-118872000D01*
X151955500Y-118872000D02*
X149796500Y-118872000D01*
X162626040Y-118872000D02*
X152336500Y-118872000D01*
X149415500Y-118948200D02*
X144385500Y-118948200D01*
X151955500Y-118948200D02*
X149796500Y-118948200D01*
X162626040Y-118948200D02*
X152336500Y-118948200D01*
X149415500Y-119024400D02*
X144385500Y-119024400D01*
X151955500Y-119024400D02*
X149796500Y-119024400D01*
X162626040Y-119024400D02*
X152336500Y-119024400D01*
X149415500Y-119100600D02*
X144385500Y-119100600D01*
X151955500Y-119100600D02*
X149796500Y-119100600D01*
X162626040Y-119100600D02*
X152336500Y-119100600D01*
X149415500Y-119176800D02*
X144385500Y-119176800D01*
X151955500Y-119176800D02*
X149796500Y-119176800D01*
X162626040Y-119176800D02*
X152336500Y-119176800D01*
X149415500Y-119253000D02*
X144385500Y-119253000D01*
X151955500Y-119253000D02*
X149796500Y-119253000D01*
X162626040Y-119253000D02*
X152336500Y-119253000D01*
X149415500Y-119329200D02*
X144385500Y-119329200D01*
X151955500Y-119329200D02*
X149796500Y-119329200D01*
X162626040Y-119329200D02*
X152336500Y-119329200D01*
X149415500Y-119405400D02*
X144385500Y-119405400D01*
X151955500Y-119405400D02*
X149796500Y-119405400D01*
X162626040Y-119405400D02*
X152336500Y-119405400D01*
X149415500Y-119481600D02*
X144385500Y-119481600D01*
X151955500Y-119481600D02*
X149796500Y-119481600D01*
X162626040Y-119481600D02*
X152336500Y-119481600D01*
X149415500Y-119557800D02*
X144385500Y-119557800D01*
X151955500Y-119557800D02*
X149796500Y-119557800D01*
X162626040Y-119557800D02*
X152336500Y-119557800D01*
X149415500Y-119634000D02*
X144385500Y-119634000D01*
X151955500Y-119634000D02*
X149796500Y-119634000D01*
X162626040Y-119634000D02*
X152336500Y-119634000D01*
X149415500Y-119710200D02*
X144385500Y-119710200D01*
X151955500Y-119710200D02*
X149796500Y-119710200D01*
X162626040Y-119710200D02*
X152336500Y-119710200D01*
X149415500Y-119786400D02*
X144385500Y-119786400D01*
X151955500Y-119786400D02*
X149796500Y-119786400D01*
X162626040Y-119786400D02*
X152336500Y-119786400D01*
X149415500Y-119862600D02*
X144385500Y-119862600D01*
X151955500Y-119862600D02*
X149796500Y-119862600D01*
X162626040Y-119862600D02*
X152336500Y-119862600D01*
X149415500Y-119938800D02*
X144385500Y-119938800D01*
X151955500Y-119938800D02*
X149796500Y-119938800D01*
X162626040Y-119938800D02*
X152336500Y-119938800D01*
X149415500Y-120015000D02*
X144385500Y-120015000D01*
X151955500Y-120015000D02*
X149796500Y-120015000D01*
X162626040Y-120015000D02*
X152336500Y-120015000D01*
X149415500Y-120091200D02*
X144385500Y-120091200D01*
X151955500Y-120091200D02*
X149796500Y-120091200D01*
X162626040Y-120091200D02*
X152336500Y-120091200D01*
X149415500Y-120167400D02*
X144385500Y-120167400D01*
X151955500Y-120167400D02*
X149796500Y-120167400D01*
X162626040Y-120167400D02*
X152336500Y-120167400D01*
X149415500Y-120243600D02*
X144385500Y-120243600D01*
X151955500Y-120243600D02*
X149796500Y-120243600D01*
X162626040Y-120243600D02*
X152336500Y-120243600D01*
X149415500Y-120319800D02*
X144385500Y-120319800D01*
X151955500Y-120319800D02*
X149796500Y-120319800D01*
X162626040Y-120319800D02*
X152336500Y-120319800D01*
X149415500Y-120396000D02*
X144385500Y-120396000D01*
X151955500Y-120396000D02*
X149796500Y-120396000D01*
X162626040Y-120396000D02*
X152336500Y-120396000D01*
X149415500Y-120472200D02*
X144385500Y-120472200D01*
X151955500Y-120472200D02*
X149796500Y-120472200D01*
X162626040Y-120472200D02*
X152336500Y-120472200D01*
X149415500Y-120548400D02*
X144385500Y-120548400D01*
X151955500Y-120548400D02*
X149796500Y-120548400D01*
X162626040Y-120548400D02*
X152336500Y-120548400D01*
X149415500Y-120624600D02*
X144385500Y-120624600D01*
X151955500Y-120624600D02*
X149796500Y-120624600D01*
X162626040Y-120624600D02*
X152336500Y-120624600D01*
X149415500Y-120700800D02*
X144385500Y-120700800D01*
X151955500Y-120700800D02*
X149796500Y-120700800D01*
X162626040Y-120700800D02*
X152336500Y-120700800D01*
X149415500Y-120777000D02*
X144385500Y-120777000D01*
X151955500Y-120777000D02*
X149796500Y-120777000D01*
X162626040Y-120777000D02*
X152336500Y-120777000D01*
X149415500Y-120853200D02*
X144385500Y-120853200D01*
X151955500Y-120853200D02*
X149796500Y-120853200D01*
X162626040Y-120853200D02*
X152336500Y-120853200D01*
X149415500Y-120929400D02*
X144385500Y-120929400D01*
X151955500Y-120929400D02*
X149796500Y-120929400D01*
X162626040Y-120929400D02*
X152336500Y-120929400D01*
X149415500Y-121005600D02*
X144385500Y-121005600D01*
X151955500Y-121005600D02*
X149796500Y-121005600D01*
X162626040Y-121005600D02*
X152336500Y-121005600D01*
X149415500Y-121081800D02*
X144385500Y-121081800D01*
X151955500Y-121081800D02*
X149796500Y-121081800D01*
X162626040Y-121081800D02*
X152336500Y-121081800D01*
X149415500Y-121158000D02*
X144385500Y-121158000D01*
X151955500Y-121158000D02*
X149796500Y-121158000D01*
X162626040Y-121158000D02*
X152336500Y-121158000D01*
X149415500Y-121234200D02*
X144385500Y-121234200D01*
X151955500Y-121234200D02*
X149796500Y-121234200D01*
X162626040Y-121234200D02*
X152336500Y-121234200D01*
X149415500Y-121310400D02*
X144385500Y-121310400D01*
X151955500Y-121310400D02*
X149796500Y-121310400D01*
X162626040Y-121310400D02*
X152336500Y-121310400D01*
X149415500Y-121386600D02*
X144385500Y-121386600D01*
X151955500Y-121386600D02*
X149796500Y-121386600D01*
X162626040Y-121386600D02*
X152336500Y-121386600D01*
X149415500Y-121462800D02*
X144385500Y-121462800D01*
X151955500Y-121462800D02*
X149796500Y-121462800D01*
X162626040Y-121462800D02*
X152336500Y-121462800D01*
X149415500Y-121539000D02*
X144385500Y-121539000D01*
X151955500Y-121539000D02*
X149796500Y-121539000D01*
X162626040Y-121539000D02*
X152336500Y-121539000D01*
X149415500Y-121615200D02*
X144385500Y-121615200D01*
X151955500Y-121615200D02*
X149796500Y-121615200D01*
X162626040Y-121615200D02*
X152336500Y-121615200D01*
X149415500Y-121691400D02*
X144385500Y-121691400D01*
X151955500Y-121691400D02*
X149796500Y-121691400D01*
X162626040Y-121691400D02*
X152336500Y-121691400D01*
X149415500Y-121767600D02*
X144385500Y-121767600D01*
X151955500Y-121767600D02*
X149796500Y-121767600D01*
X162626040Y-121767600D02*
X152336500Y-121767600D01*
X149415500Y-121843800D02*
X144385500Y-121843800D01*
X151955500Y-121843800D02*
X149796500Y-121843800D01*
X162626040Y-121843800D02*
X152336500Y-121843800D01*
X149415500Y-121920000D02*
X144385500Y-121920000D01*
X151955500Y-121920000D02*
X149796500Y-121920000D01*
X162626040Y-121920000D02*
X152336500Y-121920000D01*
X149415500Y-121996200D02*
X144385500Y-121996200D01*
X151955500Y-121996200D02*
X149796500Y-121996200D01*
X162626040Y-121996200D02*
X152336500Y-121996200D01*
X149415500Y-122072400D02*
X144385500Y-122072400D01*
X151955500Y-122072400D02*
X149796500Y-122072400D01*
X162626040Y-122072400D02*
X152336500Y-122072400D01*
X149415500Y-122148600D02*
X144385500Y-122148600D01*
X151955500Y-122148600D02*
X149796500Y-122148600D01*
X162626040Y-122148600D02*
X152336500Y-122148600D01*
X149415500Y-122224800D02*
X144385500Y-122224800D01*
X151955500Y-122224800D02*
X149796500Y-122224800D01*
X162626040Y-122224800D02*
X152336500Y-122224800D01*
X149415500Y-122301000D02*
X144385500Y-122301000D01*
X151955500Y-122301000D02*
X149796500Y-122301000D01*
X162626040Y-122301000D02*
X152336500Y-122301000D01*
X149415500Y-122377200D02*
X144385500Y-122377200D01*
X151955500Y-122377200D02*
X149796500Y-122377200D01*
X162626040Y-122377200D02*
X152336500Y-122377200D01*
X149415500Y-122453400D02*
X144385500Y-122453400D01*
X151955500Y-122453400D02*
X149796500Y-122453400D01*
X162626040Y-122453400D02*
X152336500Y-122453400D01*
X149415500Y-122529600D02*
X144385500Y-122529600D01*
X151955500Y-122529600D02*
X149796500Y-122529600D01*
X162626040Y-122529600D02*
X152336500Y-122529600D01*
X149415500Y-122605800D02*
X144385500Y-122605800D01*
X151955500Y-122605800D02*
X149796500Y-122605800D01*
X162626040Y-122605800D02*
X152336500Y-122605800D01*
X149415500Y-122682000D02*
X144385500Y-122682000D01*
X151955500Y-122682000D02*
X149796500Y-122682000D01*
X162626040Y-122682000D02*
X152336500Y-122682000D01*
X149415500Y-122758200D02*
X144385500Y-122758200D01*
X151955500Y-122758200D02*
X149796500Y-122758200D01*
X162626040Y-122758200D02*
X152336500Y-122758200D01*
X149415500Y-122834400D02*
X144385500Y-122834400D01*
X151955500Y-122834400D02*
X149796500Y-122834400D01*
X162626040Y-122834400D02*
X152336500Y-122834400D01*
X149415500Y-122910600D02*
X144385500Y-122910600D01*
X151955500Y-122910600D02*
X149796500Y-122910600D01*
X162626040Y-122910600D02*
X152336500Y-122910600D01*
X149415500Y-122986800D02*
X144385500Y-122986800D01*
X151955500Y-122986800D02*
X149796500Y-122986800D01*
X162626040Y-122986800D02*
X152336500Y-122986800D01*
X149415500Y-123063000D02*
X144385500Y-123063000D01*
X151955500Y-123063000D02*
X149796500Y-123063000D01*
X162626040Y-123063000D02*
X152336500Y-123063000D01*
X149415500Y-123139200D02*
X144385500Y-123139200D01*
X151955500Y-123139200D02*
X149796500Y-123139200D01*
X162626040Y-123139200D02*
X152336500Y-123139200D01*
X149415500Y-123215400D02*
X144385500Y-123215400D01*
X151955500Y-123215400D02*
X149796500Y-123215400D01*
X162626040Y-123215400D02*
X152336500Y-123215400D01*
X149415500Y-123291600D02*
X144385500Y-123291600D01*
X151955500Y-123291600D02*
X149796500Y-123291600D01*
X162626040Y-123291600D02*
X152336500Y-123291600D01*
X149415500Y-123367800D02*
X144385500Y-123367800D01*
X151955500Y-123367800D02*
X149796500Y-123367800D01*
X162626040Y-123367800D02*
X152336500Y-123367800D01*
X149415500Y-123444000D02*
X144385500Y-123444000D01*
X151955500Y-123444000D02*
X149796500Y-123444000D01*
X162626040Y-123444000D02*
X152336500Y-123444000D01*
X149415500Y-123520200D02*
X144385500Y-123520200D01*
X151955500Y-123520200D02*
X149796500Y-123520200D01*
X162626040Y-123520200D02*
X152336500Y-123520200D01*
X149415500Y-123596400D02*
X144385500Y-123596400D01*
X151955500Y-123596400D02*
X149796500Y-123596400D01*
X162626040Y-123596400D02*
X152336500Y-123596400D01*
X149415500Y-123672600D02*
X144385500Y-123672600D01*
X151955500Y-123672600D02*
X149796500Y-123672600D01*
X162626040Y-123672600D02*
X152336500Y-123672600D01*
X149415500Y-123748800D02*
X144385500Y-123748800D01*
X151955500Y-123748800D02*
X149796500Y-123748800D01*
X162626040Y-123748800D02*
X152336500Y-123748800D01*
X149415500Y-123825000D02*
X144385500Y-123825000D01*
X151955500Y-123825000D02*
X149796500Y-123825000D01*
X162626040Y-123825000D02*
X152336500Y-123825000D01*
X149415500Y-123901200D02*
X144385500Y-123901200D01*
X151955500Y-123901200D02*
X149796500Y-123901200D01*
X162626040Y-123901200D02*
X152336500Y-123901200D01*
X149415500Y-123977400D02*
X144385500Y-123977400D01*
X151955500Y-123977400D02*
X149796500Y-123977400D01*
X162626040Y-123977400D02*
X152336500Y-123977400D01*
X149415500Y-124053600D02*
X144385500Y-124053600D01*
X151955500Y-124053600D02*
X149796500Y-124053600D01*
X162626040Y-124053600D02*
X152336500Y-124053600D01*
X149415500Y-124129800D02*
X144385500Y-124129800D01*
X151955500Y-124129800D02*
X149796500Y-124129800D01*
X162626040Y-124129800D02*
X152336500Y-124129800D01*
X149415500Y-124206000D02*
X144385500Y-124206000D01*
X151955500Y-124206000D02*
X149796500Y-124206000D01*
X162626040Y-124206000D02*
X152336500Y-124206000D01*
X149415500Y-124282200D02*
X144385500Y-124282200D01*
X151955500Y-124282200D02*
X149796500Y-124282200D01*
X162626040Y-124282200D02*
X152336500Y-124282200D01*
X149415500Y-124358400D02*
X144385500Y-124358400D01*
X151955500Y-124358400D02*
X149796500Y-124358400D01*
X162626040Y-124358400D02*
X152336500Y-124358400D01*
X149415500Y-124434600D02*
X144385500Y-124434600D01*
X151955500Y-124434600D02*
X149796500Y-124434600D01*
X162626040Y-124434600D02*
X152336500Y-124434600D01*
X149415500Y-124510800D02*
X144385500Y-124510800D01*
X151955500Y-124510800D02*
X149796500Y-124510800D01*
X162626040Y-124510800D02*
X152336500Y-124510800D01*
X149415500Y-124587000D02*
X144385500Y-124587000D01*
X151955500Y-124587000D02*
X149796500Y-124587000D01*
X162626040Y-124587000D02*
X152336500Y-124587000D01*
X149415500Y-124663200D02*
X144385500Y-124663200D01*
X151955500Y-124663200D02*
X149796500Y-124663200D01*
X162626040Y-124663200D02*
X152336500Y-124663200D01*
X149415500Y-124739400D02*
X144385500Y-124739400D01*
X151955500Y-124739400D02*
X149796500Y-124739400D01*
X162626040Y-124739400D02*
X152336500Y-124739400D01*
X149415500Y-124815600D02*
X144385500Y-124815600D01*
X151955500Y-124815600D02*
X149796500Y-124815600D01*
X162626040Y-124815600D02*
X152336500Y-124815600D01*
X149415500Y-124891800D02*
X144385500Y-124891800D01*
X151955500Y-124891800D02*
X149796500Y-124891800D01*
X162626040Y-124891800D02*
X152336500Y-124891800D01*
X149415500Y-124968000D02*
X144385500Y-124968000D01*
X151955500Y-124968000D02*
X149796500Y-124968000D01*
X162626040Y-124968000D02*
X152336500Y-124968000D01*
X149415500Y-125044200D02*
X144385500Y-125044200D01*
X151955500Y-125044200D02*
X149796500Y-125044200D01*
X162626040Y-125044200D02*
X152336500Y-125044200D01*
X149415500Y-125120400D02*
X144385500Y-125120400D01*
X151955500Y-125120400D02*
X149796500Y-125120400D01*
X162626040Y-125120400D02*
X152336500Y-125120400D01*
X149415500Y-125196600D02*
X144385500Y-125196600D01*
X151955500Y-125196600D02*
X149796500Y-125196600D01*
X162626040Y-125196600D02*
X152336500Y-125196600D01*
X149415500Y-125272800D02*
X144385500Y-125272800D01*
X151955500Y-125272800D02*
X149796500Y-125272800D01*
X162626040Y-125272800D02*
X152336500Y-125272800D01*
X149415500Y-125349000D02*
X144385500Y-125349000D01*
X151955500Y-125349000D02*
X149796500Y-125349000D01*
X162626040Y-125349000D02*
X152336500Y-125349000D01*
X149415500Y-125425200D02*
X144385500Y-125425200D01*
X151955500Y-125425200D02*
X149796500Y-125425200D01*
X162626040Y-125425200D02*
X152336500Y-125425200D01*
X149415500Y-125501400D02*
X144385500Y-125501400D01*
X151955500Y-125501400D02*
X149796500Y-125501400D01*
X162626040Y-125501400D02*
X152336500Y-125501400D01*
X149415500Y-125577600D02*
X144385500Y-125577600D01*
X151955500Y-125577600D02*
X149796500Y-125577600D01*
X162626040Y-125577600D02*
X152336500Y-125577600D01*
X149415500Y-125653800D02*
X144385500Y-125653800D01*
X162626040Y-125653800D02*
X152336500Y-125653800D01*
X149415500Y-125730000D02*
X144385500Y-125730000D01*
X162626040Y-125730000D02*
X152336500Y-125730000D01*
X149415500Y-125806200D02*
X144385500Y-125806200D01*
X162626040Y-125806200D02*
X152336500Y-125806200D01*
X149415500Y-125882400D02*
X144385500Y-125882400D01*
X162626040Y-125882400D02*
X152336500Y-125882400D01*
X149429655Y-125958600D02*
X144385500Y-125958600D01*
X162626040Y-125958600D02*
X152322491Y-125958600D01*
X162626040Y-126034800D02*
X144385500Y-126034800D01*
X162626040Y-126111000D02*
X144385500Y-126111000D01*
X153276300Y-97447100D02*
X153281303Y-97471805D01*
X153295523Y-97492617D01*
X153316720Y-97506257D01*
X153339800Y-97510600D01*
X155321000Y-97510600D01*
X155345705Y-97505597D01*
X155366517Y-97491377D01*
X155380157Y-97470180D01*
X155384500Y-97447100D01*
X155384500Y-94869000D01*
X157949900Y-94869000D01*
X157949900Y-97447100D01*
X157954903Y-97471805D01*
X157969123Y-97492617D01*
X157990320Y-97506257D01*
X158013400Y-97510600D01*
X159994600Y-97510600D01*
X160019305Y-97505597D01*
X160040117Y-97491377D01*
X160053757Y-97470180D01*
X160058100Y-97447100D01*
X160058100Y-94869000D01*
X162623500Y-94869000D01*
X162623500Y-98679000D01*
X162242500Y-98679000D01*
X162242500Y-95313500D01*
X162237497Y-95288795D01*
X162223277Y-95267983D01*
X162202080Y-95254343D01*
X162179000Y-95250000D01*
X160502600Y-95250000D01*
X160477895Y-95255003D01*
X160457083Y-95269223D01*
X160443443Y-95290420D01*
X160439100Y-95313500D01*
X160439100Y-97891600D01*
X157568900Y-97891600D01*
X157568900Y-95313500D01*
X157563897Y-95288795D01*
X157549677Y-95267983D01*
X157528480Y-95254343D01*
X157505400Y-95250000D01*
X155829000Y-95250000D01*
X155804295Y-95255003D01*
X155783483Y-95269223D01*
X155769843Y-95290420D01*
X155765500Y-95313500D01*
X155765500Y-97891600D01*
X152895300Y-97891600D01*
X152895300Y-95313500D01*
X152890297Y-95288795D01*
X152876077Y-95267983D01*
X152854880Y-95254343D01*
X152831800Y-95250000D01*
X151130000Y-95250000D01*
X151105295Y-95255003D01*
X151084483Y-95269223D01*
X151070843Y-95290420D01*
X151066500Y-95313500D01*
X151066500Y-99707700D01*
X151071503Y-99732405D01*
X151082211Y-99749515D01*
X151955500Y-100747560D01*
X151955500Y-125603000D01*
X149796500Y-125603000D01*
X149796500Y-100747560D01*
X150669789Y-99749515D01*
X150682292Y-99727628D01*
X150685500Y-99707700D01*
X150685500Y-95313500D01*
X150680497Y-95288795D01*
X150666277Y-95267983D01*
X150645080Y-95254343D01*
X150622000Y-95250000D01*
X149225000Y-95250000D01*
X149200295Y-95255003D01*
X149179483Y-95269223D01*
X149165843Y-95290420D01*
X149161500Y-95313500D01*
X149161500Y-100152200D01*
X148856700Y-100152200D01*
X148831995Y-100157203D01*
X148811183Y-100171423D01*
X148797543Y-100192620D01*
X148793200Y-100215700D01*
X148793200Y-100342700D01*
X148798203Y-100367405D01*
X148812423Y-100388217D01*
X148833620Y-100401857D01*
X148856700Y-100406200D01*
X149352000Y-100406200D01*
X149376705Y-100401197D01*
X149397517Y-100386977D01*
X149411157Y-100365780D01*
X149415500Y-100342700D01*
X149415500Y-99771200D01*
X150228060Y-99771200D01*
X149431211Y-100681885D01*
X149418708Y-100703772D01*
X149415500Y-100723700D01*
X149415500Y-125920500D01*
X149420503Y-125945205D01*
X149434723Y-125966017D01*
X149455920Y-125979657D01*
X149479000Y-125984000D01*
X152273000Y-125984000D01*
X152297705Y-125978997D01*
X152318517Y-125964777D01*
X152332157Y-125943580D01*
X152336500Y-125920500D01*
X152336500Y-100723700D01*
X152331497Y-100698995D01*
X152320789Y-100681885D01*
X151523940Y-99771200D01*
X162626040Y-99771200D01*
X162626040Y-126138940D01*
X144385500Y-126138940D01*
X144385500Y-117385924D01*
X148087862Y-113683562D01*
X148167526Y-113564336D01*
X148195501Y-113423700D01*
X148195500Y-113423695D01*
X148195500Y-100403660D01*
X148209000Y-100406200D01*
X148704300Y-100406200D01*
X148729005Y-100401197D01*
X148749817Y-100386977D01*
X148763457Y-100365780D01*
X148767800Y-100342700D01*
X148767800Y-100215700D01*
X148762797Y-100190995D01*
X148748577Y-100170183D01*
X148727380Y-100156543D01*
X148704300Y-100152200D01*
X148399500Y-100152200D01*
X148399500Y-94869000D01*
X153276300Y-94869000D01*
X153276300Y-97447100D01*
M02*
