%TF.GenerationSoftware,KiCad,Pcbnew,4.0.5*%
%TF.CreationDate,2017-02-24T13:42:54-08:00*%
%TF.ProjectId,mifa_04,6D6966615F30342E6B696361645F7063,rev?*%
%TF.FileFunction,Copper,L2,Bot,Signal*%
%FSLAX46Y46*%
G04 Gerber Fmt 4.6, Leading zero omitted, Abs format (unit mm)*
G04 Created by KiCad (PCBNEW 4.0.5) date 02/24/17 13:42:54*
%MOMM*%
%LPD*%
G01*
G04 APERTURE LIST*
%ADD10C,0.025400*%
%ADD11R,2.420000X5.080000*%
%ADD12C,0.970000*%
%ADD13R,0.460000X0.890000*%
%ADD14C,0.304800*%
%ADD15C,0.127000*%
G04 APERTURE END LIST*
D10*
D11*
X146496000Y-104488400D03*
X155256000Y-104488400D03*
D12*
X146496000Y-101048400D03*
X155256000Y-101048400D03*
D13*
X146496000Y-101498400D03*
X155256000Y-101498400D03*
D14*
X162496500Y-100152200D03*
X161607500Y-100152200D03*
X160718500Y-100152200D03*
X159829500Y-100152200D03*
X158940500Y-100152200D03*
X158051500Y-100152200D03*
X157162500Y-100152200D03*
X156273500Y-100152200D03*
X155384500Y-100152200D03*
X154495500Y-100152200D03*
X153606500Y-100152200D03*
X152717500Y-101041200D03*
X152717500Y-100152200D03*
X148780500Y-99961700D03*
D15*
X144081500Y-99771200D02*
X162928300Y-99771200D01*
X144081500Y-99847400D02*
X162928300Y-99847400D01*
X144081500Y-99923600D02*
X162928300Y-99923600D01*
X144081500Y-99999800D02*
X162928300Y-99999800D01*
X144081500Y-100076000D02*
X162928300Y-100076000D01*
X144081500Y-100152200D02*
X162928300Y-100152200D01*
X144081500Y-100228400D02*
X162928300Y-100228400D01*
X144081500Y-100304600D02*
X162928300Y-100304600D01*
X144081500Y-100380800D02*
X162928300Y-100380800D01*
X144081500Y-100457000D02*
X162928300Y-100457000D01*
X144081500Y-100533200D02*
X162928300Y-100533200D01*
X144081500Y-100609400D02*
X162928300Y-100609400D01*
X144081500Y-100685600D02*
X162928300Y-100685600D01*
X144081500Y-100761800D02*
X162928300Y-100761800D01*
X144081500Y-100838000D02*
X162928300Y-100838000D01*
X144081500Y-100914200D02*
X162928300Y-100914200D01*
X144081500Y-100990400D02*
X162928300Y-100990400D01*
X144081500Y-101066600D02*
X162928300Y-101066600D01*
X144081500Y-101142800D02*
X162928300Y-101142800D01*
X144081500Y-101219000D02*
X162928300Y-101219000D01*
X144081500Y-101295200D02*
X162928300Y-101295200D01*
X144081500Y-101371400D02*
X162928300Y-101371400D01*
X144081500Y-101447600D02*
X162928300Y-101447600D01*
X144081500Y-101523800D02*
X162928300Y-101523800D01*
X144081500Y-101600000D02*
X162928300Y-101600000D01*
X144081500Y-101676200D02*
X162928300Y-101676200D01*
X144081500Y-101752400D02*
X162928300Y-101752400D01*
X144081500Y-101828600D02*
X162928300Y-101828600D01*
X144081500Y-101904800D02*
X162928300Y-101904800D01*
X144081500Y-101981000D02*
X162928300Y-101981000D01*
X144081500Y-102057200D02*
X162928300Y-102057200D01*
X144081500Y-102133400D02*
X162928300Y-102133400D01*
X144081500Y-102209600D02*
X162928300Y-102209600D01*
X144081500Y-102285800D02*
X162928300Y-102285800D01*
X144081500Y-102362000D02*
X162928300Y-102362000D01*
X144081500Y-102438200D02*
X162928300Y-102438200D01*
X144081500Y-102514400D02*
X162928300Y-102514400D01*
X144081500Y-102590600D02*
X162928300Y-102590600D01*
X144081500Y-102666800D02*
X162928300Y-102666800D01*
X144081500Y-102743000D02*
X162928300Y-102743000D01*
X144081500Y-102819200D02*
X162928300Y-102819200D01*
X144081500Y-102895400D02*
X162928300Y-102895400D01*
X144081500Y-102971600D02*
X162928300Y-102971600D01*
X144081500Y-103047800D02*
X162928300Y-103047800D01*
X144081500Y-103124000D02*
X162928300Y-103124000D01*
X144081500Y-103200200D02*
X162928300Y-103200200D01*
X144081500Y-103276400D02*
X162928300Y-103276400D01*
X144081500Y-103352600D02*
X162928300Y-103352600D01*
X144081500Y-103428800D02*
X162928300Y-103428800D01*
X144081500Y-103505000D02*
X162928300Y-103505000D01*
X144081500Y-103581200D02*
X162928300Y-103581200D01*
X144081500Y-103657400D02*
X162928300Y-103657400D01*
X144081500Y-103733600D02*
X162928300Y-103733600D01*
X144081500Y-103809800D02*
X162928300Y-103809800D01*
X144081500Y-103886000D02*
X162928300Y-103886000D01*
X144081500Y-103962200D02*
X162928300Y-103962200D01*
X144081500Y-104038400D02*
X162928300Y-104038400D01*
X144081500Y-104114600D02*
X162928300Y-104114600D01*
X144081500Y-104190800D02*
X162928300Y-104190800D01*
X144081500Y-104267000D02*
X162928300Y-104267000D01*
X144081500Y-104343200D02*
X162928300Y-104343200D01*
X144081500Y-104419400D02*
X162928300Y-104419400D01*
X144081500Y-104495600D02*
X162928300Y-104495600D01*
X144081500Y-104571800D02*
X162928300Y-104571800D01*
X144081500Y-104648000D02*
X162928300Y-104648000D01*
X144081500Y-104724200D02*
X162928300Y-104724200D01*
X144081500Y-104800400D02*
X162928300Y-104800400D01*
X144081500Y-104876600D02*
X162928300Y-104876600D01*
X144081500Y-104952800D02*
X162928300Y-104952800D01*
X144081500Y-105029000D02*
X162928300Y-105029000D01*
X144081500Y-105105200D02*
X162928300Y-105105200D01*
X144081500Y-105181400D02*
X162928300Y-105181400D01*
X144081500Y-105257600D02*
X162928300Y-105257600D01*
X144081500Y-105333800D02*
X162928300Y-105333800D01*
X144081500Y-105410000D02*
X162928300Y-105410000D01*
X144081500Y-105486200D02*
X162928300Y-105486200D01*
X144081500Y-105562400D02*
X162928300Y-105562400D01*
X144081500Y-105638600D02*
X162928300Y-105638600D01*
X144081500Y-105714800D02*
X162928300Y-105714800D01*
X144081500Y-105791000D02*
X162928300Y-105791000D01*
X144081500Y-105867200D02*
X162928300Y-105867200D01*
X144081500Y-105943400D02*
X162928300Y-105943400D01*
X144081500Y-106019600D02*
X162928300Y-106019600D01*
X144081500Y-106095800D02*
X162928300Y-106095800D01*
X144081500Y-106172000D02*
X162928300Y-106172000D01*
X144081500Y-106248200D02*
X162928300Y-106248200D01*
X144081500Y-106324400D02*
X162928300Y-106324400D01*
X144081500Y-106400600D02*
X162928300Y-106400600D01*
X144081500Y-106476800D02*
X162928300Y-106476800D01*
X144081500Y-106553000D02*
X162928300Y-106553000D01*
X144081500Y-106629200D02*
X162928300Y-106629200D01*
X144081500Y-106705400D02*
X162928300Y-106705400D01*
X144081500Y-106781600D02*
X162928300Y-106781600D01*
X144081500Y-106857800D02*
X162928300Y-106857800D01*
X144081500Y-106934000D02*
X162928300Y-106934000D01*
X144081500Y-107010200D02*
X162928300Y-107010200D01*
X144081500Y-107086400D02*
X162928300Y-107086400D01*
X144081500Y-107162600D02*
X162928300Y-107162600D01*
X144081500Y-107238800D02*
X162928300Y-107238800D01*
X144081500Y-107315000D02*
X162928300Y-107315000D01*
X144081500Y-107391200D02*
X162928300Y-107391200D01*
X162928300Y-107467400D02*
X144081500Y-107467400D01*
X144081500Y-99771200D01*
X162928300Y-99771200D01*
X162928300Y-107467400D01*
M02*
