%TF.GenerationSoftware,KiCad,Pcbnew,4.0.5*%
%TF.CreationDate,2017-02-24T13:42:54-08:00*%
%TF.ProjectId,mifa_04,6D6966615F30342E6B696361645F7063,rev?*%
%TF.FileFunction,Copper,L1,Top,Signal*%
%FSLAX46Y46*%
G04 Gerber Fmt 4.6, Leading zero omitted, Abs format (unit mm)*
G04 Created by KiCad (PCBNEW 4.0.5) date 02/24/17 13:42:54*
%MOMM*%
%LPD*%
G01*
G04 APERTURE LIST*
%ADD10C,0.025400*%
%ADD11R,2.290000X5.080000*%
%ADD12R,2.420000X5.080000*%
%ADD13C,0.970000*%
%ADD14R,0.460000X0.890000*%
%ADD15C,0.304800*%
%ADD16C,0.127000*%
G04 APERTURE END LIST*
D10*
D11*
X150876000Y-104488400D03*
D12*
X146496000Y-104488400D03*
X155256000Y-104488400D03*
D13*
X146496000Y-101048400D03*
X155256000Y-101048400D03*
D14*
X146496000Y-101498400D03*
X155256000Y-101498400D03*
D15*
X162496500Y-100152200D03*
X161607500Y-100152200D03*
X160718500Y-100152200D03*
X159829500Y-100152200D03*
X158940500Y-100152200D03*
X158051500Y-100152200D03*
X157162500Y-100152200D03*
X156273500Y-100152200D03*
X155384500Y-100152200D03*
X154495500Y-100152200D03*
X153606500Y-100152200D03*
X152717500Y-101041200D03*
X152717500Y-100152200D03*
X148780500Y-99961700D03*
D16*
X148399500Y-94869000D02*
X153276300Y-94869000D01*
X155384500Y-94869000D02*
X157949900Y-94869000D01*
X160058100Y-94869000D02*
X162623500Y-94869000D01*
X148399500Y-94945200D02*
X153276300Y-94945200D01*
X155384500Y-94945200D02*
X157949900Y-94945200D01*
X160058100Y-94945200D02*
X162623500Y-94945200D01*
X148399500Y-95021400D02*
X153276300Y-95021400D01*
X155384500Y-95021400D02*
X157949900Y-95021400D01*
X160058100Y-95021400D02*
X162623500Y-95021400D01*
X148399500Y-95097600D02*
X153276300Y-95097600D01*
X155384500Y-95097600D02*
X157949900Y-95097600D01*
X160058100Y-95097600D02*
X162623500Y-95097600D01*
X148399500Y-95173800D02*
X153276300Y-95173800D01*
X155384500Y-95173800D02*
X157949900Y-95173800D01*
X160058100Y-95173800D02*
X162623500Y-95173800D01*
X148399500Y-95250000D02*
X149225000Y-95250000D01*
X150622000Y-95250000D02*
X151130000Y-95250000D01*
X152831800Y-95250000D02*
X153276300Y-95250000D01*
X155384500Y-95250000D02*
X155829000Y-95250000D01*
X157505400Y-95250000D02*
X157949900Y-95250000D01*
X160058100Y-95250000D02*
X160502600Y-95250000D01*
X162179000Y-95250000D02*
X162623500Y-95250000D01*
X148399500Y-95326200D02*
X149161500Y-95326200D01*
X150685500Y-95326200D02*
X151066500Y-95326200D01*
X152895300Y-95326200D02*
X153276300Y-95326200D01*
X155384500Y-95326200D02*
X155765500Y-95326200D01*
X157568900Y-95326200D02*
X157949900Y-95326200D01*
X160058100Y-95326200D02*
X160439100Y-95326200D01*
X162242500Y-95326200D02*
X162623500Y-95326200D01*
X148399500Y-95402400D02*
X149161500Y-95402400D01*
X150685500Y-95402400D02*
X151066500Y-95402400D01*
X152895300Y-95402400D02*
X153276300Y-95402400D01*
X155384500Y-95402400D02*
X155765500Y-95402400D01*
X157568900Y-95402400D02*
X157949900Y-95402400D01*
X160058100Y-95402400D02*
X160439100Y-95402400D01*
X162242500Y-95402400D02*
X162623500Y-95402400D01*
X148399500Y-95478600D02*
X149161500Y-95478600D01*
X150685500Y-95478600D02*
X151066500Y-95478600D01*
X152895300Y-95478600D02*
X153276300Y-95478600D01*
X155384500Y-95478600D02*
X155765500Y-95478600D01*
X157568900Y-95478600D02*
X157949900Y-95478600D01*
X160058100Y-95478600D02*
X160439100Y-95478600D01*
X162242500Y-95478600D02*
X162623500Y-95478600D01*
X148399500Y-95554800D02*
X149161500Y-95554800D01*
X150685500Y-95554800D02*
X151066500Y-95554800D01*
X152895300Y-95554800D02*
X153276300Y-95554800D01*
X155384500Y-95554800D02*
X155765500Y-95554800D01*
X157568900Y-95554800D02*
X157949900Y-95554800D01*
X160058100Y-95554800D02*
X160439100Y-95554800D01*
X162242500Y-95554800D02*
X162623500Y-95554800D01*
X148399500Y-95631000D02*
X149161500Y-95631000D01*
X150685500Y-95631000D02*
X151066500Y-95631000D01*
X152895300Y-95631000D02*
X153276300Y-95631000D01*
X155384500Y-95631000D02*
X155765500Y-95631000D01*
X157568900Y-95631000D02*
X157949900Y-95631000D01*
X160058100Y-95631000D02*
X160439100Y-95631000D01*
X162242500Y-95631000D02*
X162623500Y-95631000D01*
X148399500Y-95707200D02*
X149161500Y-95707200D01*
X150685500Y-95707200D02*
X151066500Y-95707200D01*
X152895300Y-95707200D02*
X153276300Y-95707200D01*
X155384500Y-95707200D02*
X155765500Y-95707200D01*
X157568900Y-95707200D02*
X157949900Y-95707200D01*
X160058100Y-95707200D02*
X160439100Y-95707200D01*
X162242500Y-95707200D02*
X162623500Y-95707200D01*
X148399500Y-95783400D02*
X149161500Y-95783400D01*
X150685500Y-95783400D02*
X151066500Y-95783400D01*
X152895300Y-95783400D02*
X153276300Y-95783400D01*
X155384500Y-95783400D02*
X155765500Y-95783400D01*
X157568900Y-95783400D02*
X157949900Y-95783400D01*
X160058100Y-95783400D02*
X160439100Y-95783400D01*
X162242500Y-95783400D02*
X162623500Y-95783400D01*
X148399500Y-95859600D02*
X149161500Y-95859600D01*
X150685500Y-95859600D02*
X151066500Y-95859600D01*
X152895300Y-95859600D02*
X153276300Y-95859600D01*
X155384500Y-95859600D02*
X155765500Y-95859600D01*
X157568900Y-95859600D02*
X157949900Y-95859600D01*
X160058100Y-95859600D02*
X160439100Y-95859600D01*
X162242500Y-95859600D02*
X162623500Y-95859600D01*
X148399500Y-95935800D02*
X149161500Y-95935800D01*
X150685500Y-95935800D02*
X151066500Y-95935800D01*
X152895300Y-95935800D02*
X153276300Y-95935800D01*
X155384500Y-95935800D02*
X155765500Y-95935800D01*
X157568900Y-95935800D02*
X157949900Y-95935800D01*
X160058100Y-95935800D02*
X160439100Y-95935800D01*
X162242500Y-95935800D02*
X162623500Y-95935800D01*
X148399500Y-96012000D02*
X149161500Y-96012000D01*
X150685500Y-96012000D02*
X151066500Y-96012000D01*
X152895300Y-96012000D02*
X153276300Y-96012000D01*
X155384500Y-96012000D02*
X155765500Y-96012000D01*
X157568900Y-96012000D02*
X157949900Y-96012000D01*
X160058100Y-96012000D02*
X160439100Y-96012000D01*
X162242500Y-96012000D02*
X162623500Y-96012000D01*
X148399500Y-96088200D02*
X149161500Y-96088200D01*
X150685500Y-96088200D02*
X151066500Y-96088200D01*
X152895300Y-96088200D02*
X153276300Y-96088200D01*
X155384500Y-96088200D02*
X155765500Y-96088200D01*
X157568900Y-96088200D02*
X157949900Y-96088200D01*
X160058100Y-96088200D02*
X160439100Y-96088200D01*
X162242500Y-96088200D02*
X162623500Y-96088200D01*
X148399500Y-96164400D02*
X149161500Y-96164400D01*
X150685500Y-96164400D02*
X151066500Y-96164400D01*
X152895300Y-96164400D02*
X153276300Y-96164400D01*
X155384500Y-96164400D02*
X155765500Y-96164400D01*
X157568900Y-96164400D02*
X157949900Y-96164400D01*
X160058100Y-96164400D02*
X160439100Y-96164400D01*
X162242500Y-96164400D02*
X162623500Y-96164400D01*
X148399500Y-96240600D02*
X149161500Y-96240600D01*
X150685500Y-96240600D02*
X151066500Y-96240600D01*
X152895300Y-96240600D02*
X153276300Y-96240600D01*
X155384500Y-96240600D02*
X155765500Y-96240600D01*
X157568900Y-96240600D02*
X157949900Y-96240600D01*
X160058100Y-96240600D02*
X160439100Y-96240600D01*
X162242500Y-96240600D02*
X162623500Y-96240600D01*
X148399500Y-96316800D02*
X149161500Y-96316800D01*
X150685500Y-96316800D02*
X151066500Y-96316800D01*
X152895300Y-96316800D02*
X153276300Y-96316800D01*
X155384500Y-96316800D02*
X155765500Y-96316800D01*
X157568900Y-96316800D02*
X157949900Y-96316800D01*
X160058100Y-96316800D02*
X160439100Y-96316800D01*
X162242500Y-96316800D02*
X162623500Y-96316800D01*
X148399500Y-96393000D02*
X149161500Y-96393000D01*
X150685500Y-96393000D02*
X151066500Y-96393000D01*
X152895300Y-96393000D02*
X153276300Y-96393000D01*
X155384500Y-96393000D02*
X155765500Y-96393000D01*
X157568900Y-96393000D02*
X157949900Y-96393000D01*
X160058100Y-96393000D02*
X160439100Y-96393000D01*
X162242500Y-96393000D02*
X162623500Y-96393000D01*
X148399500Y-96469200D02*
X149161500Y-96469200D01*
X150685500Y-96469200D02*
X151066500Y-96469200D01*
X152895300Y-96469200D02*
X153276300Y-96469200D01*
X155384500Y-96469200D02*
X155765500Y-96469200D01*
X157568900Y-96469200D02*
X157949900Y-96469200D01*
X160058100Y-96469200D02*
X160439100Y-96469200D01*
X162242500Y-96469200D02*
X162623500Y-96469200D01*
X148399500Y-96545400D02*
X149161500Y-96545400D01*
X150685500Y-96545400D02*
X151066500Y-96545400D01*
X152895300Y-96545400D02*
X153276300Y-96545400D01*
X155384500Y-96545400D02*
X155765500Y-96545400D01*
X157568900Y-96545400D02*
X157949900Y-96545400D01*
X160058100Y-96545400D02*
X160439100Y-96545400D01*
X162242500Y-96545400D02*
X162623500Y-96545400D01*
X148399500Y-96621600D02*
X149161500Y-96621600D01*
X150685500Y-96621600D02*
X151066500Y-96621600D01*
X152895300Y-96621600D02*
X153276300Y-96621600D01*
X155384500Y-96621600D02*
X155765500Y-96621600D01*
X157568900Y-96621600D02*
X157949900Y-96621600D01*
X160058100Y-96621600D02*
X160439100Y-96621600D01*
X162242500Y-96621600D02*
X162623500Y-96621600D01*
X148399500Y-96697800D02*
X149161500Y-96697800D01*
X150685500Y-96697800D02*
X151066500Y-96697800D01*
X152895300Y-96697800D02*
X153276300Y-96697800D01*
X155384500Y-96697800D02*
X155765500Y-96697800D01*
X157568900Y-96697800D02*
X157949900Y-96697800D01*
X160058100Y-96697800D02*
X160439100Y-96697800D01*
X162242500Y-96697800D02*
X162623500Y-96697800D01*
X148399500Y-96774000D02*
X149161500Y-96774000D01*
X150685500Y-96774000D02*
X151066500Y-96774000D01*
X152895300Y-96774000D02*
X153276300Y-96774000D01*
X155384500Y-96774000D02*
X155765500Y-96774000D01*
X157568900Y-96774000D02*
X157949900Y-96774000D01*
X160058100Y-96774000D02*
X160439100Y-96774000D01*
X162242500Y-96774000D02*
X162623500Y-96774000D01*
X148399500Y-96850200D02*
X149161500Y-96850200D01*
X150685500Y-96850200D02*
X151066500Y-96850200D01*
X152895300Y-96850200D02*
X153276300Y-96850200D01*
X155384500Y-96850200D02*
X155765500Y-96850200D01*
X157568900Y-96850200D02*
X157949900Y-96850200D01*
X160058100Y-96850200D02*
X160439100Y-96850200D01*
X162242500Y-96850200D02*
X162623500Y-96850200D01*
X148399500Y-96926400D02*
X149161500Y-96926400D01*
X150685500Y-96926400D02*
X151066500Y-96926400D01*
X152895300Y-96926400D02*
X153276300Y-96926400D01*
X155384500Y-96926400D02*
X155765500Y-96926400D01*
X157568900Y-96926400D02*
X157949900Y-96926400D01*
X160058100Y-96926400D02*
X160439100Y-96926400D01*
X162242500Y-96926400D02*
X162623500Y-96926400D01*
X148399500Y-97002600D02*
X149161500Y-97002600D01*
X150685500Y-97002600D02*
X151066500Y-97002600D01*
X152895300Y-97002600D02*
X153276300Y-97002600D01*
X155384500Y-97002600D02*
X155765500Y-97002600D01*
X157568900Y-97002600D02*
X157949900Y-97002600D01*
X160058100Y-97002600D02*
X160439100Y-97002600D01*
X162242500Y-97002600D02*
X162623500Y-97002600D01*
X148399500Y-97078800D02*
X149161500Y-97078800D01*
X150685500Y-97078800D02*
X151066500Y-97078800D01*
X152895300Y-97078800D02*
X153276300Y-97078800D01*
X155384500Y-97078800D02*
X155765500Y-97078800D01*
X157568900Y-97078800D02*
X157949900Y-97078800D01*
X160058100Y-97078800D02*
X160439100Y-97078800D01*
X162242500Y-97078800D02*
X162623500Y-97078800D01*
X148399500Y-97155000D02*
X149161500Y-97155000D01*
X150685500Y-97155000D02*
X151066500Y-97155000D01*
X152895300Y-97155000D02*
X153276300Y-97155000D01*
X155384500Y-97155000D02*
X155765500Y-97155000D01*
X157568900Y-97155000D02*
X157949900Y-97155000D01*
X160058100Y-97155000D02*
X160439100Y-97155000D01*
X162242500Y-97155000D02*
X162623500Y-97155000D01*
X148399500Y-97231200D02*
X149161500Y-97231200D01*
X150685500Y-97231200D02*
X151066500Y-97231200D01*
X152895300Y-97231200D02*
X153276300Y-97231200D01*
X155384500Y-97231200D02*
X155765500Y-97231200D01*
X157568900Y-97231200D02*
X157949900Y-97231200D01*
X160058100Y-97231200D02*
X160439100Y-97231200D01*
X162242500Y-97231200D02*
X162623500Y-97231200D01*
X148399500Y-97307400D02*
X149161500Y-97307400D01*
X150685500Y-97307400D02*
X151066500Y-97307400D01*
X152895300Y-97307400D02*
X153276300Y-97307400D01*
X155384500Y-97307400D02*
X155765500Y-97307400D01*
X157568900Y-97307400D02*
X157949900Y-97307400D01*
X160058100Y-97307400D02*
X160439100Y-97307400D01*
X162242500Y-97307400D02*
X162623500Y-97307400D01*
X148399500Y-97383600D02*
X149161500Y-97383600D01*
X150685500Y-97383600D02*
X151066500Y-97383600D01*
X152895300Y-97383600D02*
X153276300Y-97383600D01*
X155384500Y-97383600D02*
X155765500Y-97383600D01*
X157568900Y-97383600D02*
X157949900Y-97383600D01*
X160058100Y-97383600D02*
X160439100Y-97383600D01*
X162242500Y-97383600D02*
X162623500Y-97383600D01*
X148399500Y-97459800D02*
X149161500Y-97459800D01*
X150685500Y-97459800D02*
X151066500Y-97459800D01*
X152895300Y-97459800D02*
X153278871Y-97459800D01*
X155382110Y-97459800D02*
X155765500Y-97459800D01*
X157568900Y-97459800D02*
X157952471Y-97459800D01*
X160055710Y-97459800D02*
X160439100Y-97459800D01*
X162242500Y-97459800D02*
X162623500Y-97459800D01*
X148399500Y-97536000D02*
X149161500Y-97536000D01*
X150685500Y-97536000D02*
X151066500Y-97536000D01*
X152895300Y-97536000D02*
X155765500Y-97536000D01*
X157568900Y-97536000D02*
X160439100Y-97536000D01*
X162242500Y-97536000D02*
X162623500Y-97536000D01*
X148399500Y-97612200D02*
X149161500Y-97612200D01*
X150685500Y-97612200D02*
X151066500Y-97612200D01*
X152895300Y-97612200D02*
X155765500Y-97612200D01*
X157568900Y-97612200D02*
X160439100Y-97612200D01*
X162242500Y-97612200D02*
X162623500Y-97612200D01*
X148399500Y-97688400D02*
X149161500Y-97688400D01*
X150685500Y-97688400D02*
X151066500Y-97688400D01*
X152895300Y-97688400D02*
X155765500Y-97688400D01*
X157568900Y-97688400D02*
X160439100Y-97688400D01*
X162242500Y-97688400D02*
X162623500Y-97688400D01*
X148399500Y-97764600D02*
X149161500Y-97764600D01*
X150685500Y-97764600D02*
X151066500Y-97764600D01*
X152895300Y-97764600D02*
X155765500Y-97764600D01*
X157568900Y-97764600D02*
X160439100Y-97764600D01*
X162242500Y-97764600D02*
X162623500Y-97764600D01*
X148399500Y-97840800D02*
X149161500Y-97840800D01*
X150685500Y-97840800D02*
X151066500Y-97840800D01*
X152895300Y-97840800D02*
X155765500Y-97840800D01*
X157568900Y-97840800D02*
X160439100Y-97840800D01*
X162242500Y-97840800D02*
X162623500Y-97840800D01*
X148399500Y-97917000D02*
X149161500Y-97917000D01*
X150685500Y-97917000D02*
X151066500Y-97917000D01*
X162242500Y-97917000D02*
X162623500Y-97917000D01*
X148399500Y-97993200D02*
X149161500Y-97993200D01*
X150685500Y-97993200D02*
X151066500Y-97993200D01*
X162242500Y-97993200D02*
X162623500Y-97993200D01*
X148399500Y-98069400D02*
X149161500Y-98069400D01*
X150685500Y-98069400D02*
X151066500Y-98069400D01*
X162242500Y-98069400D02*
X162623500Y-98069400D01*
X148399500Y-98145600D02*
X149161500Y-98145600D01*
X150685500Y-98145600D02*
X151066500Y-98145600D01*
X162242500Y-98145600D02*
X162623500Y-98145600D01*
X148399500Y-98221800D02*
X149161500Y-98221800D01*
X150685500Y-98221800D02*
X151066500Y-98221800D01*
X162242500Y-98221800D02*
X162623500Y-98221800D01*
X148399500Y-98298000D02*
X149161500Y-98298000D01*
X150685500Y-98298000D02*
X151066500Y-98298000D01*
X162242500Y-98298000D02*
X162623500Y-98298000D01*
X148399500Y-98374200D02*
X149161500Y-98374200D01*
X150685500Y-98374200D02*
X151066500Y-98374200D01*
X162242500Y-98374200D02*
X162623500Y-98374200D01*
X148399500Y-98450400D02*
X149161500Y-98450400D01*
X150685500Y-98450400D02*
X151066500Y-98450400D01*
X162242500Y-98450400D02*
X162623500Y-98450400D01*
X148399500Y-98526600D02*
X149161500Y-98526600D01*
X150685500Y-98526600D02*
X151066500Y-98526600D01*
X162242500Y-98526600D02*
X162623500Y-98526600D01*
X148399500Y-98602800D02*
X149161500Y-98602800D01*
X150685500Y-98602800D02*
X151066500Y-98602800D01*
X162242500Y-98602800D02*
X162623500Y-98602800D01*
X148399500Y-98679000D02*
X149161500Y-98679000D01*
X150685500Y-98679000D02*
X151066500Y-98679000D01*
X148399500Y-98755200D02*
X149161500Y-98755200D01*
X150685500Y-98755200D02*
X151066500Y-98755200D01*
X148399500Y-98831400D02*
X149161500Y-98831400D01*
X150685500Y-98831400D02*
X151066500Y-98831400D01*
X148399500Y-98907600D02*
X149161500Y-98907600D01*
X150685500Y-98907600D02*
X151066500Y-98907600D01*
X148399500Y-98983800D02*
X149161500Y-98983800D01*
X150685500Y-98983800D02*
X151066500Y-98983800D01*
X148399500Y-99060000D02*
X149161500Y-99060000D01*
X150685500Y-99060000D02*
X151066500Y-99060000D01*
X148399500Y-99136200D02*
X149161500Y-99136200D01*
X150685500Y-99136200D02*
X151066500Y-99136200D01*
X148399500Y-99212400D02*
X149161500Y-99212400D01*
X150685500Y-99212400D02*
X151066500Y-99212400D01*
X148399500Y-99288600D02*
X149161500Y-99288600D01*
X150685500Y-99288600D02*
X151066500Y-99288600D01*
X148399500Y-99364800D02*
X149161500Y-99364800D01*
X150685500Y-99364800D02*
X151066500Y-99364800D01*
X148399500Y-99441000D02*
X149161500Y-99441000D01*
X150685500Y-99441000D02*
X151066500Y-99441000D01*
X148399500Y-99517200D02*
X149161500Y-99517200D01*
X150685500Y-99517200D02*
X151066500Y-99517200D01*
X148399500Y-99593400D02*
X149161500Y-99593400D01*
X150685500Y-99593400D02*
X151066500Y-99593400D01*
X148399500Y-99669600D02*
X149161500Y-99669600D01*
X150685500Y-99669600D02*
X151066500Y-99669600D01*
X148399500Y-99745800D02*
X149161500Y-99745800D01*
X150685500Y-99745800D02*
X151066500Y-99745800D01*
X144081500Y-99822000D02*
X148145500Y-99822000D01*
X148399500Y-99822000D02*
X149161500Y-99822000D01*
X150685500Y-99822000D02*
X151066500Y-99822000D01*
X152336500Y-99822000D02*
X162928300Y-99822000D01*
X144081500Y-99898200D02*
X148145500Y-99898200D01*
X148399500Y-99898200D02*
X149161500Y-99898200D01*
X150685500Y-99898200D02*
X151066500Y-99898200D01*
X152336500Y-99898200D02*
X162928300Y-99898200D01*
X144081500Y-99974400D02*
X148145500Y-99974400D01*
X148399500Y-99974400D02*
X149161500Y-99974400D01*
X150685500Y-99974400D02*
X151066500Y-99974400D01*
X152336500Y-99974400D02*
X162928300Y-99974400D01*
X144081500Y-100050600D02*
X148145500Y-100050600D01*
X148399500Y-100050600D02*
X149161500Y-100050600D01*
X150685500Y-100050600D02*
X151066500Y-100050600D01*
X152336500Y-100050600D02*
X162928300Y-100050600D01*
X144081500Y-100126800D02*
X148145500Y-100126800D01*
X148399500Y-100126800D02*
X149161500Y-100126800D01*
X150685500Y-100126800D02*
X151066500Y-100126800D01*
X152336500Y-100126800D02*
X162928300Y-100126800D01*
X144081500Y-100203000D02*
X148145500Y-100203000D01*
X148765229Y-100203000D02*
X148795590Y-100203000D01*
X150685500Y-100203000D02*
X151066500Y-100203000D01*
X152336500Y-100203000D02*
X162928300Y-100203000D01*
X144081500Y-100279200D02*
X148145500Y-100279200D01*
X148767800Y-100279200D02*
X148793200Y-100279200D01*
X149796500Y-100279200D02*
X151955500Y-100279200D01*
X152336500Y-100279200D02*
X162928300Y-100279200D01*
X144081500Y-100355400D02*
X148148071Y-100355400D01*
X148765410Y-100355400D02*
X148795771Y-100355400D01*
X149413110Y-100355400D02*
X149415500Y-100355400D01*
X149796500Y-100355400D02*
X151955500Y-100355400D01*
X152336500Y-100355400D02*
X162928300Y-100355400D01*
X144081500Y-100431600D02*
X149415500Y-100431600D01*
X149796500Y-100431600D02*
X151955500Y-100431600D01*
X152336500Y-100431600D02*
X162928300Y-100431600D01*
X144081500Y-100507800D02*
X149415500Y-100507800D01*
X149796500Y-100507800D02*
X151955500Y-100507800D01*
X152336500Y-100507800D02*
X162928300Y-100507800D01*
X144081500Y-100584000D02*
X149415500Y-100584000D01*
X149796500Y-100584000D02*
X151955500Y-100584000D01*
X152336500Y-100584000D02*
X162928300Y-100584000D01*
X144081500Y-100660200D02*
X149415500Y-100660200D01*
X149796500Y-100660200D02*
X151955500Y-100660200D01*
X152336500Y-100660200D02*
X162928300Y-100660200D01*
X144081500Y-100736400D02*
X149415500Y-100736400D01*
X149796500Y-100736400D02*
X151955500Y-100736400D01*
X152336500Y-100736400D02*
X162928300Y-100736400D01*
X144081500Y-100812600D02*
X149415500Y-100812600D01*
X149796500Y-100812600D02*
X151955500Y-100812600D01*
X152336500Y-100812600D02*
X162928300Y-100812600D01*
X144081500Y-100888800D02*
X149415500Y-100888800D01*
X149796500Y-100888800D02*
X151955500Y-100888800D01*
X152336500Y-100888800D02*
X162928300Y-100888800D01*
X144081500Y-100965000D02*
X149415500Y-100965000D01*
X149796500Y-100965000D02*
X151955500Y-100965000D01*
X152336500Y-100965000D02*
X162928300Y-100965000D01*
X144081500Y-101041200D02*
X149415500Y-101041200D01*
X149796500Y-101041200D02*
X151955500Y-101041200D01*
X152336500Y-101041200D02*
X162928300Y-101041200D01*
X144081500Y-101117400D02*
X149415500Y-101117400D01*
X149796500Y-101117400D02*
X151955500Y-101117400D01*
X152336500Y-101117400D02*
X162928300Y-101117400D01*
X144081500Y-101193600D02*
X149415500Y-101193600D01*
X149796500Y-101193600D02*
X151955500Y-101193600D01*
X152336500Y-101193600D02*
X162928300Y-101193600D01*
X144081500Y-101269800D02*
X149415500Y-101269800D01*
X149796500Y-101269800D02*
X151955500Y-101269800D01*
X152336500Y-101269800D02*
X162928300Y-101269800D01*
X144081500Y-101346000D02*
X149415500Y-101346000D01*
X149796500Y-101346000D02*
X151955500Y-101346000D01*
X152336500Y-101346000D02*
X162928300Y-101346000D01*
X144081500Y-101422200D02*
X149415500Y-101422200D01*
X149796500Y-101422200D02*
X151955500Y-101422200D01*
X152336500Y-101422200D02*
X162928300Y-101422200D01*
X144081500Y-101498400D02*
X149415500Y-101498400D01*
X149796500Y-101498400D02*
X151955500Y-101498400D01*
X152336500Y-101498400D02*
X162928300Y-101498400D01*
X144081500Y-101574600D02*
X149415500Y-101574600D01*
X149796500Y-101574600D02*
X151955500Y-101574600D01*
X152336500Y-101574600D02*
X162928300Y-101574600D01*
X144081500Y-101650800D02*
X149415500Y-101650800D01*
X149796500Y-101650800D02*
X151955500Y-101650800D01*
X152336500Y-101650800D02*
X162928300Y-101650800D01*
X144081500Y-101727000D02*
X149415500Y-101727000D01*
X149796500Y-101727000D02*
X151955500Y-101727000D01*
X152336500Y-101727000D02*
X162928300Y-101727000D01*
X144081500Y-101803200D02*
X149415500Y-101803200D01*
X149796500Y-101803200D02*
X151955500Y-101803200D01*
X152336500Y-101803200D02*
X162928300Y-101803200D01*
X144081500Y-101879400D02*
X149415500Y-101879400D01*
X149796500Y-101879400D02*
X151955500Y-101879400D01*
X152336500Y-101879400D02*
X162928300Y-101879400D01*
X144081500Y-101955600D02*
X149415500Y-101955600D01*
X149796500Y-101955600D02*
X151955500Y-101955600D01*
X152336500Y-101955600D02*
X162928300Y-101955600D01*
X144081500Y-102031800D02*
X149415500Y-102031800D01*
X149796500Y-102031800D02*
X151955500Y-102031800D01*
X152336500Y-102031800D02*
X162928300Y-102031800D01*
X144081500Y-102108000D02*
X149415500Y-102108000D01*
X149796500Y-102108000D02*
X151955500Y-102108000D01*
X152336500Y-102108000D02*
X162928300Y-102108000D01*
X144081500Y-102184200D02*
X149415500Y-102184200D01*
X149796500Y-102184200D02*
X151955500Y-102184200D01*
X152336500Y-102184200D02*
X162928300Y-102184200D01*
X144081500Y-102260400D02*
X149415500Y-102260400D01*
X149796500Y-102260400D02*
X151955500Y-102260400D01*
X152336500Y-102260400D02*
X162928300Y-102260400D01*
X144081500Y-102336600D02*
X149415500Y-102336600D01*
X149796500Y-102336600D02*
X151955500Y-102336600D01*
X152336500Y-102336600D02*
X162928300Y-102336600D01*
X144081500Y-102412800D02*
X149415500Y-102412800D01*
X149796500Y-102412800D02*
X151955500Y-102412800D01*
X152336500Y-102412800D02*
X162928300Y-102412800D01*
X144081500Y-102489000D02*
X149415500Y-102489000D01*
X149796500Y-102489000D02*
X151955500Y-102489000D01*
X152336500Y-102489000D02*
X162928300Y-102489000D01*
X144081500Y-102565200D02*
X149415500Y-102565200D01*
X149796500Y-102565200D02*
X151955500Y-102565200D01*
X152336500Y-102565200D02*
X162928300Y-102565200D01*
X144081500Y-102641400D02*
X149415500Y-102641400D01*
X149796500Y-102641400D02*
X151955500Y-102641400D01*
X152336500Y-102641400D02*
X162928300Y-102641400D01*
X144081500Y-102717600D02*
X149415500Y-102717600D01*
X149796500Y-102717600D02*
X151955500Y-102717600D01*
X152336500Y-102717600D02*
X162928300Y-102717600D01*
X144081500Y-102793800D02*
X149415500Y-102793800D01*
X149796500Y-102793800D02*
X151955500Y-102793800D01*
X152336500Y-102793800D02*
X162928300Y-102793800D01*
X144081500Y-102870000D02*
X149415500Y-102870000D01*
X149796500Y-102870000D02*
X151955500Y-102870000D01*
X152336500Y-102870000D02*
X162928300Y-102870000D01*
X144081500Y-102946200D02*
X149415500Y-102946200D01*
X149796500Y-102946200D02*
X151955500Y-102946200D01*
X152336500Y-102946200D02*
X162928300Y-102946200D01*
X144081500Y-103022400D02*
X149415500Y-103022400D01*
X149796500Y-103022400D02*
X151955500Y-103022400D01*
X152336500Y-103022400D02*
X162928300Y-103022400D01*
X144081500Y-103098600D02*
X149415500Y-103098600D01*
X149796500Y-103098600D02*
X151955500Y-103098600D01*
X152336500Y-103098600D02*
X162928300Y-103098600D01*
X144081500Y-103174800D02*
X149415500Y-103174800D01*
X149796500Y-103174800D02*
X151955500Y-103174800D01*
X152336500Y-103174800D02*
X162928300Y-103174800D01*
X144081500Y-103251000D02*
X149415500Y-103251000D01*
X149796500Y-103251000D02*
X151955500Y-103251000D01*
X152336500Y-103251000D02*
X162928300Y-103251000D01*
X144081500Y-103327200D02*
X149415500Y-103327200D01*
X149796500Y-103327200D02*
X151955500Y-103327200D01*
X152336500Y-103327200D02*
X162928300Y-103327200D01*
X144081500Y-103403400D02*
X149415500Y-103403400D01*
X149796500Y-103403400D02*
X151955500Y-103403400D01*
X152336500Y-103403400D02*
X162928300Y-103403400D01*
X144081500Y-103479600D02*
X149415500Y-103479600D01*
X149796500Y-103479600D02*
X151955500Y-103479600D01*
X152336500Y-103479600D02*
X162928300Y-103479600D01*
X144081500Y-103555800D02*
X149415500Y-103555800D01*
X149796500Y-103555800D02*
X151955500Y-103555800D01*
X152336500Y-103555800D02*
X162928300Y-103555800D01*
X144081500Y-103632000D02*
X149415500Y-103632000D01*
X149796500Y-103632000D02*
X151955500Y-103632000D01*
X152336500Y-103632000D02*
X162928300Y-103632000D01*
X144081500Y-103708200D02*
X149415500Y-103708200D01*
X149796500Y-103708200D02*
X151955500Y-103708200D01*
X152336500Y-103708200D02*
X162928300Y-103708200D01*
X144081500Y-103784400D02*
X149415500Y-103784400D01*
X149796500Y-103784400D02*
X151955500Y-103784400D01*
X152336500Y-103784400D02*
X162928300Y-103784400D01*
X144081500Y-103860600D02*
X149415500Y-103860600D01*
X149796500Y-103860600D02*
X151955500Y-103860600D01*
X152336500Y-103860600D02*
X162928300Y-103860600D01*
X144081500Y-103936800D02*
X149415500Y-103936800D01*
X149796500Y-103936800D02*
X151955500Y-103936800D01*
X152336500Y-103936800D02*
X162928300Y-103936800D01*
X144081500Y-104013000D02*
X149415500Y-104013000D01*
X149796500Y-104013000D02*
X151955500Y-104013000D01*
X152336500Y-104013000D02*
X162928300Y-104013000D01*
X144081500Y-104089200D02*
X149415500Y-104089200D01*
X149796500Y-104089200D02*
X151955500Y-104089200D01*
X152336500Y-104089200D02*
X162928300Y-104089200D01*
X144081500Y-104165400D02*
X149415500Y-104165400D01*
X149796500Y-104165400D02*
X151955500Y-104165400D01*
X152336500Y-104165400D02*
X162928300Y-104165400D01*
X144081500Y-104241600D02*
X149415500Y-104241600D01*
X149796500Y-104241600D02*
X151955500Y-104241600D01*
X152336500Y-104241600D02*
X162928300Y-104241600D01*
X144081500Y-104317800D02*
X149415500Y-104317800D01*
X149796500Y-104317800D02*
X151955500Y-104317800D01*
X152336500Y-104317800D02*
X162928300Y-104317800D01*
X144081500Y-104394000D02*
X149415500Y-104394000D01*
X149796500Y-104394000D02*
X151955500Y-104394000D01*
X152336500Y-104394000D02*
X162928300Y-104394000D01*
X144081500Y-104470200D02*
X149415500Y-104470200D01*
X149796500Y-104470200D02*
X151955500Y-104470200D01*
X152336500Y-104470200D02*
X162928300Y-104470200D01*
X144081500Y-104546400D02*
X149415500Y-104546400D01*
X149796500Y-104546400D02*
X151955500Y-104546400D01*
X152336500Y-104546400D02*
X162928300Y-104546400D01*
X144081500Y-104622600D02*
X149415500Y-104622600D01*
X149796500Y-104622600D02*
X151955500Y-104622600D01*
X152336500Y-104622600D02*
X162928300Y-104622600D01*
X144081500Y-104698800D02*
X149415500Y-104698800D01*
X149796500Y-104698800D02*
X151955500Y-104698800D01*
X152336500Y-104698800D02*
X162928300Y-104698800D01*
X144081500Y-104775000D02*
X149415500Y-104775000D01*
X149796500Y-104775000D02*
X151955500Y-104775000D01*
X152336500Y-104775000D02*
X162928300Y-104775000D01*
X144081500Y-104851200D02*
X149415500Y-104851200D01*
X149796500Y-104851200D02*
X151955500Y-104851200D01*
X152336500Y-104851200D02*
X162928300Y-104851200D01*
X144081500Y-104927400D02*
X149415500Y-104927400D01*
X149796500Y-104927400D02*
X151955500Y-104927400D01*
X152336500Y-104927400D02*
X162928300Y-104927400D01*
X144081500Y-105003600D02*
X149415500Y-105003600D01*
X149796500Y-105003600D02*
X151955500Y-105003600D01*
X152336500Y-105003600D02*
X162928300Y-105003600D01*
X144081500Y-105079800D02*
X149415500Y-105079800D01*
X149796500Y-105079800D02*
X151955500Y-105079800D01*
X152336500Y-105079800D02*
X162928300Y-105079800D01*
X144081500Y-105156000D02*
X149415500Y-105156000D01*
X149796500Y-105156000D02*
X151955500Y-105156000D01*
X152336500Y-105156000D02*
X162928300Y-105156000D01*
X144081500Y-105232200D02*
X149415500Y-105232200D01*
X149796500Y-105232200D02*
X151955500Y-105232200D01*
X152336500Y-105232200D02*
X162928300Y-105232200D01*
X144081500Y-105308400D02*
X149415500Y-105308400D01*
X149796500Y-105308400D02*
X151955500Y-105308400D01*
X152336500Y-105308400D02*
X162928300Y-105308400D01*
X144081500Y-105384600D02*
X149415500Y-105384600D01*
X149796500Y-105384600D02*
X151955500Y-105384600D01*
X152336500Y-105384600D02*
X162928300Y-105384600D01*
X144081500Y-105460800D02*
X149415500Y-105460800D01*
X149796500Y-105460800D02*
X151955500Y-105460800D01*
X152336500Y-105460800D02*
X162928300Y-105460800D01*
X144081500Y-105537000D02*
X149415500Y-105537000D01*
X149796500Y-105537000D02*
X151955500Y-105537000D01*
X152336500Y-105537000D02*
X162928300Y-105537000D01*
X144081500Y-105613200D02*
X149415500Y-105613200D01*
X149796500Y-105613200D02*
X151955500Y-105613200D01*
X152336500Y-105613200D02*
X162928300Y-105613200D01*
X144081500Y-105689400D02*
X149415500Y-105689400D01*
X149796500Y-105689400D02*
X151955500Y-105689400D01*
X152336500Y-105689400D02*
X162928300Y-105689400D01*
X144081500Y-105765600D02*
X149415500Y-105765600D01*
X149796500Y-105765600D02*
X151955500Y-105765600D01*
X152336500Y-105765600D02*
X162928300Y-105765600D01*
X144081500Y-105841800D02*
X149415500Y-105841800D01*
X149796500Y-105841800D02*
X151955500Y-105841800D01*
X152336500Y-105841800D02*
X162928300Y-105841800D01*
X144081500Y-105918000D02*
X149415500Y-105918000D01*
X149796500Y-105918000D02*
X151955500Y-105918000D01*
X152336500Y-105918000D02*
X162928300Y-105918000D01*
X144081500Y-105994200D02*
X149415500Y-105994200D01*
X149796500Y-105994200D02*
X151955500Y-105994200D01*
X152336500Y-105994200D02*
X162928300Y-105994200D01*
X144081500Y-106070400D02*
X149415500Y-106070400D01*
X149796500Y-106070400D02*
X151955500Y-106070400D01*
X152336500Y-106070400D02*
X162928300Y-106070400D01*
X144081500Y-106146600D02*
X149415500Y-106146600D01*
X149796500Y-106146600D02*
X151955500Y-106146600D01*
X152336500Y-106146600D02*
X162928300Y-106146600D01*
X144081500Y-106222800D02*
X149415500Y-106222800D01*
X149796500Y-106222800D02*
X151955500Y-106222800D01*
X152336500Y-106222800D02*
X162928300Y-106222800D01*
X144081500Y-106299000D02*
X149415500Y-106299000D01*
X149796500Y-106299000D02*
X151955500Y-106299000D01*
X152336500Y-106299000D02*
X162928300Y-106299000D01*
X144081500Y-106375200D02*
X149415500Y-106375200D01*
X149796500Y-106375200D02*
X151955500Y-106375200D01*
X152336500Y-106375200D02*
X162928300Y-106375200D01*
X144081500Y-106451400D02*
X149415500Y-106451400D01*
X149796500Y-106451400D02*
X151955500Y-106451400D01*
X152336500Y-106451400D02*
X162928300Y-106451400D01*
X144081500Y-106527600D02*
X149415500Y-106527600D01*
X149796500Y-106527600D02*
X151955500Y-106527600D01*
X152336500Y-106527600D02*
X162928300Y-106527600D01*
X144081500Y-106603800D02*
X149415500Y-106603800D01*
X149796500Y-106603800D02*
X151955500Y-106603800D01*
X152336500Y-106603800D02*
X162928300Y-106603800D01*
X144081500Y-106680000D02*
X149415500Y-106680000D01*
X149796500Y-106680000D02*
X151955500Y-106680000D01*
X152336500Y-106680000D02*
X162928300Y-106680000D01*
X144081500Y-106756200D02*
X149415500Y-106756200D01*
X149796500Y-106756200D02*
X151955500Y-106756200D01*
X152336500Y-106756200D02*
X162928300Y-106756200D01*
X144081500Y-106832400D02*
X149415500Y-106832400D01*
X149796500Y-106832400D02*
X151955500Y-106832400D01*
X152336500Y-106832400D02*
X162928300Y-106832400D01*
X144081500Y-106908600D02*
X149415500Y-106908600D01*
X149796500Y-106908600D02*
X151955500Y-106908600D01*
X152336500Y-106908600D02*
X162928300Y-106908600D01*
X144081500Y-106984800D02*
X149415500Y-106984800D01*
X152336500Y-106984800D02*
X162928300Y-106984800D01*
X144081500Y-107061000D02*
X149415500Y-107061000D01*
X152336500Y-107061000D02*
X162928300Y-107061000D01*
X144081500Y-107137200D02*
X149415500Y-107137200D01*
X152336500Y-107137200D02*
X162928300Y-107137200D01*
X144081500Y-107213400D02*
X149415500Y-107213400D01*
X152336500Y-107213400D02*
X162928300Y-107213400D01*
X144081500Y-107289600D02*
X149418071Y-107289600D01*
X152334110Y-107289600D02*
X162928300Y-107289600D01*
X144081500Y-107365800D02*
X162928300Y-107365800D01*
X144081500Y-107442000D02*
X162928300Y-107442000D01*
X153276300Y-97447100D02*
X153281303Y-97471805D01*
X153295523Y-97492617D01*
X153316720Y-97506257D01*
X153339800Y-97510600D01*
X155321000Y-97510600D01*
X155345705Y-97505597D01*
X155366517Y-97491377D01*
X155380157Y-97470180D01*
X155384500Y-97447100D01*
X155384500Y-94869000D01*
X157949900Y-94869000D01*
X157949900Y-97447100D01*
X157954903Y-97471805D01*
X157969123Y-97492617D01*
X157990320Y-97506257D01*
X158013400Y-97510600D01*
X159994600Y-97510600D01*
X160019305Y-97505597D01*
X160040117Y-97491377D01*
X160053757Y-97470180D01*
X160058100Y-97447100D01*
X160058100Y-94869000D01*
X162623500Y-94869000D01*
X162623500Y-98679000D01*
X162242500Y-98679000D01*
X162242500Y-95313500D01*
X162237497Y-95288795D01*
X162223277Y-95267983D01*
X162202080Y-95254343D01*
X162179000Y-95250000D01*
X160502600Y-95250000D01*
X160477895Y-95255003D01*
X160457083Y-95269223D01*
X160443443Y-95290420D01*
X160439100Y-95313500D01*
X160439100Y-97891600D01*
X157568900Y-97891600D01*
X157568900Y-95313500D01*
X157563897Y-95288795D01*
X157549677Y-95267983D01*
X157528480Y-95254343D01*
X157505400Y-95250000D01*
X155829000Y-95250000D01*
X155804295Y-95255003D01*
X155783483Y-95269223D01*
X155769843Y-95290420D01*
X155765500Y-95313500D01*
X155765500Y-97891600D01*
X152895300Y-97891600D01*
X152895300Y-95313500D01*
X152890297Y-95288795D01*
X152876077Y-95267983D01*
X152854880Y-95254343D01*
X152831800Y-95250000D01*
X151130000Y-95250000D01*
X151105295Y-95255003D01*
X151084483Y-95269223D01*
X151070843Y-95290420D01*
X151066500Y-95313500D01*
X151066500Y-100215700D01*
X151071503Y-100240405D01*
X151085723Y-100261217D01*
X151106920Y-100274857D01*
X151130000Y-100279200D01*
X151955500Y-100279200D01*
X151955500Y-106959400D01*
X149796500Y-106959400D01*
X149796500Y-100279200D01*
X150622000Y-100279200D01*
X150646705Y-100274197D01*
X150667517Y-100259977D01*
X150681157Y-100238780D01*
X150685500Y-100215700D01*
X150685500Y-95313500D01*
X150680497Y-95288795D01*
X150666277Y-95267983D01*
X150645080Y-95254343D01*
X150622000Y-95250000D01*
X149225000Y-95250000D01*
X149200295Y-95255003D01*
X149179483Y-95269223D01*
X149165843Y-95290420D01*
X149161500Y-95313500D01*
X149161500Y-100152200D01*
X148856700Y-100152200D01*
X148831995Y-100157203D01*
X148811183Y-100171423D01*
X148797543Y-100192620D01*
X148793200Y-100215700D01*
X148793200Y-100342700D01*
X148798203Y-100367405D01*
X148812423Y-100388217D01*
X148833620Y-100401857D01*
X148856700Y-100406200D01*
X149352000Y-100406200D01*
X149376705Y-100401197D01*
X149397517Y-100386977D01*
X149411157Y-100365780D01*
X149415500Y-100342700D01*
X149415500Y-107276900D01*
X149420503Y-107301605D01*
X149434723Y-107322417D01*
X149455920Y-107336057D01*
X149479000Y-107340400D01*
X152273000Y-107340400D01*
X152297705Y-107335397D01*
X152318517Y-107321177D01*
X152332157Y-107299980D01*
X152336500Y-107276900D01*
X152336500Y-99771200D01*
X162928300Y-99771200D01*
X162928300Y-107467400D01*
X144081500Y-107467400D01*
X144081500Y-99771200D01*
X148145500Y-99771200D01*
X148145500Y-100342700D01*
X148150503Y-100367405D01*
X148164723Y-100388217D01*
X148185920Y-100401857D01*
X148209000Y-100406200D01*
X148704300Y-100406200D01*
X148729005Y-100401197D01*
X148749817Y-100386977D01*
X148763457Y-100365780D01*
X148767800Y-100342700D01*
X148767800Y-100215700D01*
X148762797Y-100190995D01*
X148748577Y-100170183D01*
X148727380Y-100156543D01*
X148704300Y-100152200D01*
X148399500Y-100152200D01*
X148399500Y-94869000D01*
X153276300Y-94869000D01*
X153276300Y-97447100D01*
M02*
