G04 #@! TF.FileFunction,Copper,L1,Top,Signal*
%FSLAX46Y46*%
G04 Gerber Fmt 4.6, Leading zero omitted, Abs format (unit mm)*
G04 Created by KiCad (PCBNEW 4.0.5) date Friday, May 26, 2017 'AMt' 10:19:46 AM*
%MOMM*%
%LPD*%
G01*
G04 APERTURE LIST*
%ADD10C,0.100000*%
%ADD11R,1.600000X1.600000*%
%ADD12C,1.600000*%
%ADD13C,1.905000*%
%ADD14R,1.800000X1.800000*%
%ADD15C,1.800000*%
%ADD16C,1.400000*%
%ADD17O,1.400000X1.400000*%
%ADD18O,1.600000X1.600000*%
%ADD19R,1.500000X1.250000*%
%ADD20O,1.800000X1.800000*%
%ADD21R,0.900000X0.800000*%
%ADD22C,4.600000*%
%ADD23R,3.500000X3.500000*%
%ADD24R,1.000000X1.000000*%
%ADD25R,2.400000X2.400000*%
%ADD26O,2.400000X2.400000*%
%ADD27R,2.900680X5.400040*%
%ADD28C,2.000000*%
%ADD29C,1.724000*%
%ADD30R,1.500000X1.300000*%
%ADD31C,1.624000*%
%ADD32C,1.524000*%
%ADD33C,2.500000*%
%ADD34C,6.000000*%
%ADD35C,3.300000*%
%ADD36C,5.000000*%
%ADD37C,0.600000*%
%ADD38C,1.016000*%
%ADD39C,1.270000*%
%ADD40C,0.254000*%
G04 APERTURE END LIST*
D10*
D11*
X37296800Y35199200D03*
D12*
X34796800Y35199200D03*
D13*
X41356800Y54139200D03*
X41356800Y56679200D03*
X41356800Y59219200D03*
X41356800Y61759200D03*
X33736800Y61759200D03*
X33736800Y59219200D03*
X33736800Y56679200D03*
X33736800Y54139200D03*
D14*
X7546800Y90949200D03*
D15*
X7546800Y88409200D03*
D16*
X19546800Y44199200D03*
D17*
X19546800Y51819200D03*
D16*
X47796800Y15699200D03*
D17*
X55416800Y15699200D03*
D16*
X16796800Y44199200D03*
D17*
X16796800Y51819200D03*
D16*
X47796800Y11949200D03*
D17*
X55416800Y11949200D03*
D16*
X36546800Y13949200D03*
D17*
X28926800Y13949200D03*
D16*
X36546800Y9949200D03*
D17*
X28926800Y9949200D03*
D12*
X39296800Y91949200D03*
D18*
X36756800Y91949200D03*
D12*
X33546800Y91949200D03*
D18*
X31006800Y91949200D03*
D11*
X9046800Y62449200D03*
D12*
X11546800Y62449200D03*
D16*
X16546800Y61949200D03*
D17*
X16546800Y54329200D03*
D19*
X14296800Y46199200D03*
X11796800Y46199200D03*
D11*
X14296800Y37449200D03*
D12*
X16796800Y37449200D03*
D14*
X90196800Y51549200D03*
D20*
X87656800Y51549200D03*
X85116800Y51549200D03*
D21*
X49796800Y20499200D03*
X49796800Y22399200D03*
X47796800Y21449200D03*
D15*
X16546800Y76949200D03*
X16546800Y79449200D03*
X16546800Y81949200D03*
D22*
X19846800Y74449200D03*
X19846800Y84449200D03*
D11*
X6546800Y56949200D03*
D18*
X14166800Y49329200D03*
X6546800Y54409200D03*
X14166800Y51869200D03*
X6546800Y51869200D03*
X14166800Y54409200D03*
X6546800Y49329200D03*
X14166800Y56949200D03*
D11*
X33296800Y66949200D03*
D12*
X30796800Y66949200D03*
D23*
X96546800Y12449200D03*
X96546800Y6449200D03*
X101246800Y9449200D03*
D24*
X19296800Y60949200D03*
X21796800Y60949200D03*
X36546800Y20199200D03*
X34046800Y20199200D03*
D11*
X57546800Y76699200D03*
D12*
X55046800Y76699200D03*
D11*
X65546800Y76949200D03*
D12*
X65546800Y79449200D03*
D11*
X72046800Y87699200D03*
D12*
X69546800Y87699200D03*
D25*
X76756400Y64945000D03*
D26*
X71676400Y64945000D03*
D27*
X59596340Y53949200D03*
X69497260Y53949200D03*
D12*
X57546800Y68949200D03*
D18*
X57546800Y71489200D03*
D12*
X57546800Y64949200D03*
D18*
X55006800Y64949200D03*
D12*
X65046800Y84699200D03*
D18*
X65046800Y87239200D03*
D12*
X74269600Y74498200D03*
D18*
X71729600Y74498200D03*
D12*
X19546800Y65949200D03*
D18*
X22086800Y65949200D03*
D12*
X85296800Y35449200D03*
D18*
X85296800Y32909200D03*
D12*
X90296800Y35699200D03*
D18*
X90296800Y33159200D03*
D11*
X85296800Y22449200D03*
D18*
X90376800Y30069200D03*
X87836800Y22449200D03*
X87836800Y30069200D03*
X90376800Y22449200D03*
X85296800Y30069200D03*
D11*
X68546800Y64949200D03*
D18*
X60926800Y72569200D03*
X68546800Y67489200D03*
X60926800Y70029200D03*
X68546800Y70029200D03*
X60926800Y67489200D03*
X68546800Y72569200D03*
X60926800Y64949200D03*
D25*
X33546800Y80949200D03*
D26*
X33546800Y86029200D03*
D25*
X39296800Y81949200D03*
D26*
X39296800Y87029200D03*
D25*
X33546800Y72199200D03*
D26*
X33546800Y77279200D03*
D25*
X29546800Y56949200D03*
D26*
X24466800Y56949200D03*
D12*
X85296800Y14949200D03*
D18*
X85296800Y17489200D03*
D28*
X48296800Y94549200D03*
X51796800Y94549200D03*
X19046800Y5199200D03*
X15546800Y5199200D03*
D29*
X75216800Y42949200D03*
X67886800Y42949200D03*
D28*
X88796800Y3949200D03*
X85296800Y3949200D03*
D30*
X9146800Y46199200D03*
X6446800Y46199200D03*
D27*
X27596340Y45949200D03*
X37497260Y45949200D03*
D31*
X101046800Y74449200D03*
X101046800Y80449200D03*
X101046800Y68449200D03*
D32*
X36546800Y23599200D03*
X36546800Y28699200D03*
X85246800Y42249200D03*
X90346800Y42249200D03*
D28*
X47796800Y3949200D03*
X51296800Y3949200D03*
X36546800Y3949200D03*
X33046800Y3949200D03*
D16*
X50546800Y38699200D03*
D17*
X58166800Y38699200D03*
D16*
X47546800Y30449200D03*
D17*
X55166800Y30449200D03*
D25*
X43546800Y24699200D03*
D26*
X43546800Y29779200D03*
D12*
X47046800Y38949200D03*
D18*
X44506800Y38949200D03*
D12*
X47796800Y25199200D03*
D18*
X47796800Y27739200D03*
D14*
X47546800Y34199200D03*
D20*
X50086800Y34199200D03*
X52626800Y34199200D03*
D33*
X92796800Y85549200D03*
X85796800Y85549200D03*
D34*
X112596800Y56849200D03*
X112596800Y16849200D03*
D35*
X105296800Y36849200D03*
X105296800Y43849200D03*
X105296800Y29849200D03*
D36*
X57256800Y8169200D03*
X112256800Y8169200D03*
X112256800Y90169200D03*
X57256800Y90169200D03*
D37*
X33546800Y20199200D03*
X22296800Y60949200D03*
X70787400Y62024000D03*
X53744000Y62024000D03*
X4296800Y22449200D03*
X15296800Y92949200D03*
X1546800Y56949200D03*
X1546800Y77949200D03*
D38*
X11046800Y63949200D02*
X12546800Y63949200D01*
X34046800Y20199200D02*
X33546800Y20199200D01*
X21796800Y60949200D02*
X22296800Y60949200D01*
X16296800Y76699200D02*
X16546800Y76949200D01*
X16296800Y62199200D02*
X16546800Y61949200D01*
X33296800Y66949200D02*
X48818800Y66949200D01*
X92796800Y76210200D02*
X92796800Y85549200D01*
X78610600Y62024000D02*
X92796800Y76210200D01*
X70787400Y62024000D02*
X78610600Y62024000D01*
X48818800Y66949200D02*
X53744000Y62024000D01*
X33736800Y61759200D02*
X36106800Y61759200D01*
X50546800Y56199200D02*
X50546800Y38699200D01*
X42796800Y63949200D02*
X50546800Y56199200D01*
X38296800Y63949200D02*
X42796800Y63949200D01*
X36106800Y61759200D02*
X38296800Y63949200D01*
X33736800Y61759200D02*
X26276800Y61759200D01*
X26276800Y61759200D02*
X22086800Y65949200D01*
X33296800Y66949200D02*
X33296800Y62199200D01*
X33296800Y62199200D02*
X33736800Y61759200D01*
X50546800Y38699200D02*
X50546800Y34659200D01*
X50546800Y34659200D02*
X50086800Y34199200D01*
X33546800Y61949200D02*
X33736800Y61759200D01*
X37296800Y35199200D02*
X37296800Y45748740D01*
X37296800Y45748740D02*
X37497260Y45949200D01*
X36546800Y28699200D02*
X36546800Y34449200D01*
X36546800Y34449200D02*
X37296800Y35199200D01*
X41356800Y54139200D02*
X41356800Y49808740D01*
X41356800Y49808740D02*
X37497260Y45949200D01*
X47796800Y11949200D02*
X47796800Y3949200D01*
X47796800Y15699200D02*
X47796800Y11949200D01*
X47796800Y21449200D02*
X47796800Y15699200D01*
X47796800Y25199200D02*
X47796800Y21449200D01*
X43546800Y24699200D02*
X47296800Y24699200D01*
X47296800Y24699200D02*
X47796800Y25199200D01*
X31006800Y91949200D02*
X30346600Y91949200D01*
X30346600Y91949200D02*
X27785200Y94510600D01*
X27785200Y94510600D02*
X12900800Y94510600D01*
X12900800Y94510600D02*
X9929000Y91538800D01*
X9929000Y91538800D02*
X9929000Y88440000D01*
X9929000Y88440000D02*
X9898200Y88409200D01*
X9898200Y88409200D02*
X7546800Y88409200D01*
X36756800Y91949200D02*
X33546800Y91949200D01*
X33546800Y91949200D02*
X33546800Y86029200D01*
X27596340Y45949200D02*
X27596340Y54998740D01*
X27596340Y54998740D02*
X29546800Y56949200D01*
X29546800Y56949200D02*
X33466800Y56949200D01*
X33466800Y56949200D02*
X33736800Y56679200D01*
X36546800Y3949200D02*
X36546800Y9949200D01*
X36546800Y9949200D02*
X36546800Y13949200D01*
X36546800Y13949200D02*
X36546800Y20199200D01*
X36546800Y20199200D02*
X36546800Y23599200D01*
X39296800Y91949200D02*
X39296800Y87029200D01*
X39296800Y93949200D02*
X39296800Y91949200D01*
X37296800Y95949200D02*
X39296800Y93949200D01*
X8296800Y95949200D02*
X37296800Y95949200D01*
X4296800Y91949200D02*
X8296800Y95949200D01*
X4296800Y22449200D02*
X4296800Y91949200D01*
X6546800Y56949200D02*
X6546800Y59949200D01*
X6546800Y59949200D02*
X9046800Y62449200D01*
X14166800Y56949200D02*
X14166800Y59829200D01*
X14166800Y59829200D02*
X11546800Y62449200D01*
X14166800Y54409200D02*
X16466800Y54409200D01*
X16466800Y54409200D02*
X16546800Y54329200D01*
X14296800Y46199200D02*
X14296800Y37449200D01*
X14166800Y49329200D02*
X14166800Y46329200D01*
X14166800Y46329200D02*
X14296800Y46199200D01*
X11796800Y46199200D02*
X9146800Y46199200D01*
X16796800Y37449200D02*
X17046800Y37449200D01*
X17046800Y37449200D02*
X19046800Y35449200D01*
X19046800Y35449200D02*
X19046800Y5199200D01*
X90376800Y30069200D02*
X90376800Y33079200D01*
X90376800Y33079200D02*
X90296800Y33159200D01*
D39*
X85246800Y42249200D02*
X85246800Y51419200D01*
X85246800Y51419200D02*
X85116800Y51549200D01*
D38*
X90296800Y35699200D02*
X90296800Y37199200D01*
X90296800Y37199200D02*
X85246800Y42249200D01*
D39*
X105296800Y43849200D02*
X91946800Y43849200D01*
X91946800Y43849200D02*
X90346800Y42249200D01*
D38*
X16546800Y81949200D02*
X15796800Y81949200D01*
X15796800Y81949200D02*
X15296800Y82449200D01*
X15296800Y82449200D02*
X15296800Y92949200D01*
X85296800Y3949200D02*
X85296800Y14949200D01*
X1546800Y77949200D02*
X1546800Y56949200D01*
X19546800Y51819200D02*
X19546800Y60699200D01*
X19546800Y60699200D02*
X19296800Y60949200D01*
X19546800Y51819200D02*
X16796800Y51819200D01*
X16796800Y51819200D02*
X16746800Y51869200D01*
X16746800Y51869200D02*
X14166800Y51869200D01*
X14216800Y51819200D02*
X14166800Y51869200D01*
X19546800Y65949200D02*
X19546800Y61199200D01*
X19546800Y61199200D02*
X19296800Y60949200D01*
X60926800Y70029200D02*
X63216800Y70029200D01*
X71796800Y42949200D02*
X75216800Y42949200D01*
X66796800Y47949200D02*
X71796800Y42949200D01*
X66796800Y66449200D02*
X66796800Y47949200D01*
X63216800Y70029200D02*
X66796800Y66449200D01*
X57546800Y71489200D02*
X57546800Y76699200D01*
X57546800Y71489200D02*
X59466800Y71489200D01*
X59466800Y71489200D02*
X60926800Y70029200D01*
X68546800Y70029200D02*
X67466800Y70029200D01*
X65546800Y71949200D02*
X65546800Y76949200D01*
X67466800Y70029200D02*
X65546800Y71949200D01*
X76756400Y64945000D02*
X76756400Y72011400D01*
X76756400Y72011400D02*
X74269600Y74498200D01*
X74269600Y74498200D02*
X74269600Y76172000D01*
X74269600Y76172000D02*
X74269600Y85476400D01*
X74269600Y85476400D02*
X72046800Y87699200D01*
X74267200Y74495800D02*
X74269600Y74498200D01*
X72046800Y87699200D02*
X72046800Y89199200D01*
X50626800Y77279200D02*
X33546800Y77279200D01*
X63296800Y89949200D02*
X50626800Y77279200D01*
X71296800Y89949200D02*
X63296800Y89949200D01*
X72046800Y89199200D02*
X71296800Y89949200D01*
X33546800Y80949200D02*
X33546800Y77279200D01*
X68546800Y64949200D02*
X71672200Y64949200D01*
X71672200Y64949200D02*
X71676400Y64945000D01*
X69497260Y53949200D02*
X69497260Y63998740D01*
X69497260Y63998740D02*
X68546800Y64949200D01*
X87836800Y22449200D02*
X87836800Y4909200D01*
X87836800Y4909200D02*
X88796800Y3949200D01*
X55006800Y64949200D02*
X55006800Y58538740D01*
X55006800Y58538740D02*
X59596340Y53949200D01*
X55006800Y64949200D02*
X55006800Y66409200D01*
X55006800Y66409200D02*
X57546800Y68949200D01*
X60926800Y67489200D02*
X59006800Y67489200D01*
X59006800Y67489200D02*
X57546800Y68949200D01*
D39*
X59596340Y53949200D02*
X59596340Y55899660D01*
D38*
X59596340Y53949200D02*
X58546800Y53949200D01*
X59596340Y53949200D02*
X59596340Y56359660D01*
X85296800Y17489200D02*
X85296800Y22449200D01*
X60926800Y64949200D02*
X57546800Y64949200D01*
X71729600Y74498200D02*
X71729600Y78016400D01*
X71729600Y78016400D02*
X65046800Y84699200D01*
X60926800Y72569200D02*
X60926800Y80579200D01*
X60926800Y80579200D02*
X65046800Y84699200D01*
X85296800Y30069200D02*
X85296800Y32909200D01*
D39*
X101046800Y68449200D02*
X99796800Y68449200D01*
X87656800Y56309200D02*
X87656800Y51549200D01*
X99796800Y68449200D02*
X87656800Y56309200D01*
X101046800Y74449200D02*
X104296800Y74449200D01*
X108296800Y39849200D02*
X105296800Y36849200D01*
X108296800Y70449200D02*
X108296800Y39849200D01*
X104296800Y74449200D02*
X108296800Y70449200D01*
X105296800Y29849200D02*
X105696800Y29849200D01*
X105696800Y29849200D02*
X117296800Y41449200D01*
X117296800Y41449200D02*
X117296800Y64199200D01*
X117296800Y64199200D02*
X101046800Y80449200D01*
D38*
X47546800Y34199200D02*
X47546800Y33779200D01*
X47546800Y33779200D02*
X43546800Y29779200D01*
X47546800Y30449200D02*
X47546800Y27989200D01*
X47546800Y27989200D02*
X47796800Y27739200D01*
X47546800Y34199200D02*
X47546800Y30449200D01*
X47046800Y38949200D02*
X47046800Y34699200D01*
X47046800Y34699200D02*
X47546800Y34199200D01*
X39296800Y81949200D02*
X39496800Y82149200D01*
X39496800Y82149200D02*
X43076800Y82149200D01*
X85796800Y85549200D02*
X77876800Y93469200D01*
X54396800Y93469200D02*
X43076800Y82149200D01*
X43076800Y82149200D02*
X42886800Y81959200D01*
X77876800Y93469200D02*
X54396800Y93469200D01*
X85796800Y85549200D02*
X85796800Y85789200D01*
X33796800Y71949200D02*
X33546800Y72199200D01*
D40*
G36*
X120312320Y86100D02*
X78880Y86100D01*
X78880Y2796668D01*
X32073873Y2796668D01*
X32172536Y2529813D01*
X32782261Y2303292D01*
X33432260Y2327344D01*
X33921064Y2529813D01*
X34019727Y2796668D01*
X33046800Y3769595D01*
X32073873Y2796668D01*
X78880Y2796668D01*
X78880Y4046668D01*
X14573873Y4046668D01*
X14672536Y3779813D01*
X15282261Y3553292D01*
X15932260Y3577344D01*
X16421064Y3779813D01*
X16519727Y4046668D01*
X15546800Y5019595D01*
X14573873Y4046668D01*
X78880Y4046668D01*
X78880Y5463739D01*
X13900892Y5463739D01*
X13924944Y4813740D01*
X14127413Y4324936D01*
X14394268Y4226273D01*
X15367195Y5199200D01*
X15726405Y5199200D01*
X16699332Y4226273D01*
X16966187Y4324936D01*
X17192708Y4934661D01*
X17168656Y5584660D01*
X16966187Y6073464D01*
X16699332Y6172127D01*
X15726405Y5199200D01*
X15367195Y5199200D01*
X14394268Y6172127D01*
X14127413Y6073464D01*
X13900892Y5463739D01*
X78880Y5463739D01*
X78880Y6351732D01*
X14573873Y6351732D01*
X15546800Y5378805D01*
X16519727Y6351732D01*
X16421064Y6618587D01*
X15811339Y6845108D01*
X15161340Y6821056D01*
X14672536Y6618587D01*
X14573873Y6351732D01*
X78880Y6351732D01*
X78880Y77949200D01*
X403800Y77949200D01*
X403800Y56949200D01*
X490806Y56511793D01*
X738577Y56140977D01*
X1109393Y55893206D01*
X1546800Y55806200D01*
X1984207Y55893206D01*
X2355023Y56140977D01*
X2602794Y56511793D01*
X2689800Y56949200D01*
X2689800Y77949200D01*
X2602794Y78386607D01*
X2355023Y78757423D01*
X1984207Y79005194D01*
X1546800Y79092200D01*
X1109393Y79005194D01*
X738577Y78757423D01*
X490806Y78386607D01*
X403800Y77949200D01*
X78880Y77949200D01*
X78880Y91949200D01*
X3153800Y91949200D01*
X3153800Y22449200D01*
X3240806Y22011793D01*
X3488577Y21640977D01*
X3859393Y21393206D01*
X4296800Y21306200D01*
X4734207Y21393206D01*
X5105023Y21640977D01*
X5352794Y22011793D01*
X5439800Y22449200D01*
X5439800Y44968334D01*
X5570491Y44914200D01*
X6161050Y44914200D01*
X6319800Y45072950D01*
X6319800Y46072200D01*
X6299800Y46072200D01*
X6299800Y46326200D01*
X6319800Y46326200D01*
X6319800Y47325450D01*
X6161050Y47484200D01*
X5570491Y47484200D01*
X5439800Y47430066D01*
X5439800Y48454847D01*
X5691666Y48176811D01*
X6197759Y47937286D01*
X6419800Y48058571D01*
X6419800Y49202200D01*
X6673800Y49202200D01*
X6673800Y48058571D01*
X6895841Y47937286D01*
X7401934Y48176811D01*
X7777841Y48591777D01*
X7938704Y48980161D01*
X7816715Y49202200D01*
X6673800Y49202200D01*
X6419800Y49202200D01*
X6399800Y49202200D01*
X6399800Y49456200D01*
X6419800Y49456200D01*
X6419800Y51742200D01*
X6673800Y51742200D01*
X6673800Y49456200D01*
X7816715Y49456200D01*
X7938704Y49678239D01*
X7777841Y50066623D01*
X7401934Y50481589D01*
X7153433Y50599200D01*
X7401934Y50716811D01*
X7777841Y51131777D01*
X7938704Y51520161D01*
X7816715Y51742200D01*
X6673800Y51742200D01*
X6419800Y51742200D01*
X6399800Y51742200D01*
X6399800Y51996200D01*
X6419800Y51996200D01*
X6419800Y52016200D01*
X6673800Y52016200D01*
X6673800Y51996200D01*
X7816715Y51996200D01*
X7938704Y52218239D01*
X7777841Y52606623D01*
X7401934Y53021589D01*
X7185097Y53124214D01*
X7589611Y53394502D01*
X7900680Y53860049D01*
X8009913Y54409200D01*
X7900680Y54958351D01*
X7589611Y55423898D01*
X7445335Y55520301D01*
X7582117Y55546038D01*
X7798241Y55685110D01*
X7943231Y55897310D01*
X7994240Y56149200D01*
X7994240Y57749200D01*
X7949962Y57984517D01*
X7810890Y58200641D01*
X7689800Y58283378D01*
X7689800Y59475754D01*
X9215806Y61001760D01*
X9846800Y61001760D01*
X10082117Y61046038D01*
X10298241Y61185110D01*
X10443231Y61397310D01*
X10464480Y61502241D01*
X10732877Y61233376D01*
X11260109Y61014450D01*
X11365196Y61014358D01*
X13023800Y59355754D01*
X13023800Y57813955D01*
X12812920Y57498351D01*
X12703687Y56949200D01*
X12812920Y56400049D01*
X13123989Y55934502D01*
X13506075Y55679200D01*
X13123989Y55423898D01*
X12812920Y54958351D01*
X12703687Y54409200D01*
X12812920Y53860049D01*
X13123989Y53394502D01*
X13506075Y53139200D01*
X13123989Y52883898D01*
X12812920Y52418351D01*
X12703687Y51869200D01*
X12812920Y51320049D01*
X13123989Y50854502D01*
X13506075Y50599200D01*
X13123989Y50343898D01*
X12812920Y49878351D01*
X12703687Y49329200D01*
X12812920Y48780049D01*
X13023800Y48464445D01*
X13023800Y47255578D01*
X13010890Y47275641D01*
X12798690Y47420631D01*
X12546800Y47471640D01*
X11046800Y47471640D01*
X10811483Y47427362D01*
X10679138Y47342200D01*
X10300066Y47342200D01*
X10148690Y47445631D01*
X9896800Y47496640D01*
X8396800Y47496640D01*
X8161483Y47452362D01*
X7945359Y47313290D01*
X7800369Y47101090D01*
X7793609Y47067710D01*
X7735127Y47208899D01*
X7556498Y47387527D01*
X7323109Y47484200D01*
X6732550Y47484200D01*
X6573800Y47325450D01*
X6573800Y46326200D01*
X6593800Y46326200D01*
X6593800Y46072200D01*
X6573800Y46072200D01*
X6573800Y45072950D01*
X6732550Y44914200D01*
X7323109Y44914200D01*
X7556498Y45010873D01*
X7735127Y45189501D01*
X7791454Y45325487D01*
X7793638Y45313883D01*
X7932710Y45097759D01*
X8144910Y44952769D01*
X8396800Y44901760D01*
X9896800Y44901760D01*
X10132117Y44946038D01*
X10303314Y45056200D01*
X10680122Y45056200D01*
X10794910Y44977769D01*
X11046800Y44926760D01*
X12546800Y44926760D01*
X12782117Y44971038D01*
X12998241Y45110110D01*
X13045934Y45179911D01*
X13082710Y45122759D01*
X13153800Y45074185D01*
X13153800Y38783070D01*
X13045359Y38713290D01*
X12900369Y38501090D01*
X12849360Y38249200D01*
X12849360Y36649200D01*
X12893638Y36413883D01*
X13032710Y36197759D01*
X13244910Y36052769D01*
X13496800Y36001760D01*
X15096800Y36001760D01*
X15332117Y36046038D01*
X15548241Y36185110D01*
X15693231Y36397310D01*
X15714480Y36502241D01*
X15982877Y36233376D01*
X16510109Y36014450D01*
X16865414Y36014140D01*
X17903800Y34975754D01*
X17903800Y6368418D01*
X17661522Y6126563D01*
X17412084Y5525848D01*
X17411516Y4875405D01*
X17659906Y4274257D01*
X18119437Y3813922D01*
X18720152Y3564484D01*
X19370595Y3563916D01*
X19971743Y3812306D01*
X20373878Y4213739D01*
X31400892Y4213739D01*
X31424944Y3563740D01*
X31627413Y3074936D01*
X31894268Y2976273D01*
X32867195Y3949200D01*
X33226405Y3949200D01*
X34199332Y2976273D01*
X34466187Y3074936D01*
X34670693Y3625405D01*
X34911516Y3625405D01*
X35159906Y3024257D01*
X35619437Y2563922D01*
X36220152Y2314484D01*
X36870595Y2313916D01*
X37471743Y2562306D01*
X37932078Y3021837D01*
X38181516Y3622552D01*
X38182084Y4272995D01*
X37933694Y4874143D01*
X37689800Y5118464D01*
X37689800Y9220659D01*
X37881568Y9682487D01*
X37882031Y10213583D01*
X37689800Y10678819D01*
X37689800Y13220659D01*
X37881568Y13682487D01*
X37882031Y14213583D01*
X37689800Y14678819D01*
X37689800Y19677275D01*
X37694240Y19699200D01*
X37694240Y20699200D01*
X37689800Y20722797D01*
X37689800Y22766272D01*
X37730429Y22806830D01*
X37943557Y23320100D01*
X37944042Y23875861D01*
X37731810Y24389503D01*
X37339170Y24782829D01*
X36825900Y24995957D01*
X36270139Y24996442D01*
X35756497Y24784210D01*
X35363171Y24391570D01*
X35150043Y23878300D01*
X35149558Y23322539D01*
X35361790Y22808897D01*
X35403800Y22766814D01*
X35403800Y20721125D01*
X35399360Y20699200D01*
X35399360Y19699200D01*
X35403800Y19675603D01*
X35403800Y14677741D01*
X35212032Y14215913D01*
X35211569Y13684817D01*
X35403800Y13219581D01*
X35403800Y10677741D01*
X35212032Y10215913D01*
X35211569Y9684817D01*
X35403800Y9219581D01*
X35403800Y5118418D01*
X35161522Y4876563D01*
X34912084Y4275848D01*
X34911516Y3625405D01*
X34670693Y3625405D01*
X34692708Y3684661D01*
X34668656Y4334660D01*
X34466187Y4823464D01*
X34199332Y4922127D01*
X33226405Y3949200D01*
X32867195Y3949200D01*
X31894268Y4922127D01*
X31627413Y4823464D01*
X31400892Y4213739D01*
X20373878Y4213739D01*
X20432078Y4271837D01*
X20681516Y4872552D01*
X20681716Y5101732D01*
X32073873Y5101732D01*
X33046800Y4128805D01*
X34019727Y5101732D01*
X33921064Y5368587D01*
X33311339Y5595108D01*
X32661340Y5571056D01*
X32172536Y5368587D01*
X32073873Y5101732D01*
X20681716Y5101732D01*
X20682084Y5522995D01*
X20433694Y6124143D01*
X20189800Y6368464D01*
X20189800Y9615871D01*
X27634084Y9615871D01*
X27777003Y9270804D01*
X28124137Y8882436D01*
X28593469Y8656473D01*
X28799800Y8778994D01*
X28799800Y9822200D01*
X29053800Y9822200D01*
X29053800Y8778994D01*
X29260131Y8656473D01*
X29729463Y8882436D01*
X30076597Y9270804D01*
X30219516Y9615871D01*
X30096174Y9822200D01*
X29053800Y9822200D01*
X28799800Y9822200D01*
X27757426Y9822200D01*
X27634084Y9615871D01*
X20189800Y9615871D01*
X20189800Y10282529D01*
X27634084Y10282529D01*
X27757426Y10076200D01*
X28799800Y10076200D01*
X28799800Y11119406D01*
X29053800Y11119406D01*
X29053800Y10076200D01*
X30096174Y10076200D01*
X30219516Y10282529D01*
X30076597Y10627596D01*
X29729463Y11015964D01*
X29260131Y11241927D01*
X29053800Y11119406D01*
X28799800Y11119406D01*
X28593469Y11241927D01*
X28124137Y11015964D01*
X27777003Y10627596D01*
X27634084Y10282529D01*
X20189800Y10282529D01*
X20189800Y13615871D01*
X27634084Y13615871D01*
X27777003Y13270804D01*
X28124137Y12882436D01*
X28593469Y12656473D01*
X28799800Y12778994D01*
X28799800Y13822200D01*
X29053800Y13822200D01*
X29053800Y12778994D01*
X29260131Y12656473D01*
X29729463Y12882436D01*
X30076597Y13270804D01*
X30219516Y13615871D01*
X30096174Y13822200D01*
X29053800Y13822200D01*
X28799800Y13822200D01*
X27757426Y13822200D01*
X27634084Y13615871D01*
X20189800Y13615871D01*
X20189800Y14282529D01*
X27634084Y14282529D01*
X27757426Y14076200D01*
X28799800Y14076200D01*
X28799800Y15119406D01*
X29053800Y15119406D01*
X29053800Y14076200D01*
X30096174Y14076200D01*
X30219516Y14282529D01*
X30076597Y14627596D01*
X29729463Y15015964D01*
X29260131Y15241927D01*
X29053800Y15119406D01*
X28799800Y15119406D01*
X28593469Y15241927D01*
X28124137Y15015964D01*
X27777003Y14627596D01*
X27634084Y14282529D01*
X20189800Y14282529D01*
X20189800Y19913450D01*
X32911800Y19913450D01*
X32911800Y19572890D01*
X33008473Y19339501D01*
X33187102Y19160873D01*
X33420491Y19064200D01*
X33761050Y19064200D01*
X33919800Y19222950D01*
X33919800Y20072200D01*
X34173800Y20072200D01*
X34173800Y19222950D01*
X34332550Y19064200D01*
X34673109Y19064200D01*
X34906498Y19160873D01*
X35085127Y19339501D01*
X35181800Y19572890D01*
X35181800Y19913450D01*
X35023050Y20072200D01*
X34173800Y20072200D01*
X33919800Y20072200D01*
X33070550Y20072200D01*
X32911800Y19913450D01*
X20189800Y19913450D01*
X20189800Y20825510D01*
X32911800Y20825510D01*
X32911800Y20484950D01*
X33070550Y20326200D01*
X33919800Y20326200D01*
X33919800Y21175450D01*
X34173800Y21175450D01*
X34173800Y20326200D01*
X35023050Y20326200D01*
X35181800Y20484950D01*
X35181800Y20825510D01*
X35085127Y21058899D01*
X34906498Y21237527D01*
X34673109Y21334200D01*
X34332550Y21334200D01*
X34173800Y21175450D01*
X33919800Y21175450D01*
X33761050Y21334200D01*
X33420491Y21334200D01*
X33187102Y21237527D01*
X33008473Y21058899D01*
X32911800Y20825510D01*
X20189800Y20825510D01*
X20189800Y34191455D01*
X33968661Y34191455D01*
X34042795Y33945336D01*
X34580023Y33752235D01*
X35150254Y33779422D01*
X35403800Y33884444D01*
X35403800Y29532128D01*
X35363171Y29491570D01*
X35150043Y28978300D01*
X35149558Y28422539D01*
X35361790Y27908897D01*
X35754430Y27515571D01*
X36267700Y27302443D01*
X36823461Y27301958D01*
X37337103Y27514190D01*
X37730429Y27906830D01*
X37943557Y28420100D01*
X37944042Y28975861D01*
X37731810Y29489503D01*
X37689800Y29531586D01*
X37689800Y33751760D01*
X38096800Y33751760D01*
X38332117Y33796038D01*
X38548241Y33935110D01*
X38693231Y34147310D01*
X38744240Y34399200D01*
X38744240Y35999200D01*
X38699962Y36234517D01*
X38560890Y36450641D01*
X38439800Y36533378D01*
X38439800Y38600161D01*
X43114896Y38600161D01*
X43275759Y38211777D01*
X43651666Y37796811D01*
X44157759Y37557286D01*
X44379800Y37678571D01*
X44379800Y38822200D01*
X43236885Y38822200D01*
X43114896Y38600161D01*
X38439800Y38600161D01*
X38439800Y39298239D01*
X43114896Y39298239D01*
X43236885Y39076200D01*
X44379800Y39076200D01*
X44379800Y40219829D01*
X44157759Y40341114D01*
X43651666Y40101589D01*
X43275759Y39686623D01*
X43114896Y39298239D01*
X38439800Y39298239D01*
X38439800Y42601740D01*
X38947600Y42601740D01*
X39182917Y42646018D01*
X39399041Y42785090D01*
X39544031Y42997290D01*
X39595040Y43249180D01*
X39595040Y46430534D01*
X42165023Y49000517D01*
X42412794Y49371333D01*
X42499800Y49808740D01*
X42499800Y53037099D01*
X42701832Y53238779D01*
X42944024Y53822041D01*
X42944575Y54453588D01*
X42703402Y55037272D01*
X42265271Y55476168D01*
X42295354Y55561041D01*
X41356800Y56499595D01*
X40418246Y55561041D01*
X40448525Y55475617D01*
X40011768Y55039621D01*
X39769576Y54456359D01*
X39769025Y53824812D01*
X40010198Y53241128D01*
X40213800Y53037171D01*
X40213800Y50282186D01*
X39181008Y49249394D01*
X38947600Y49296660D01*
X36046920Y49296660D01*
X35811603Y49252382D01*
X35595479Y49113310D01*
X35450489Y48901110D01*
X35399480Y48649220D01*
X35399480Y43249180D01*
X35443758Y43013863D01*
X35582830Y42797739D01*
X35795030Y42652749D01*
X36046920Y42601740D01*
X36153800Y42601740D01*
X36153800Y36533070D01*
X36045359Y36463290D01*
X35900369Y36251090D01*
X35852154Y36012999D01*
X35804545Y36027339D01*
X34976405Y35199200D01*
X34990548Y35185058D01*
X34810942Y35005452D01*
X34796800Y35019595D01*
X33968661Y34191455D01*
X20189800Y34191455D01*
X20189800Y35415977D01*
X33349835Y35415977D01*
X33377022Y34845746D01*
X33542936Y34445195D01*
X33789055Y34371061D01*
X34617195Y35199200D01*
X33789055Y36027339D01*
X33542936Y35953205D01*
X33349835Y35415977D01*
X20189800Y35415977D01*
X20189800Y35449200D01*
X20102794Y35886607D01*
X19888752Y36206945D01*
X33968661Y36206945D01*
X34796800Y35378805D01*
X35624939Y36206945D01*
X35550805Y36453064D01*
X35013577Y36646165D01*
X34443346Y36618978D01*
X34042795Y36453064D01*
X33968661Y36206945D01*
X19888752Y36206945D01*
X19855023Y36257423D01*
X18128533Y37983913D01*
X18014043Y38261000D01*
X17610723Y38665024D01*
X17083491Y38883950D01*
X16512613Y38884448D01*
X15985000Y38666443D01*
X15716217Y38398128D01*
X15699962Y38484517D01*
X15560890Y38700641D01*
X15439800Y38783378D01*
X15439800Y43263925D01*
X16041131Y43263925D01*
X16102969Y43028158D01*
X16603922Y42851781D01*
X17134240Y42880536D01*
X17490631Y43028158D01*
X17552469Y43263925D01*
X18791131Y43263925D01*
X18852969Y43028158D01*
X19353922Y42851781D01*
X19884240Y42880536D01*
X20240631Y43028158D01*
X20302469Y43263925D01*
X19546800Y44019595D01*
X18791131Y43263925D01*
X17552469Y43263925D01*
X16796800Y44019595D01*
X16041131Y43263925D01*
X15439800Y43263925D01*
X15439800Y44392078D01*
X15449381Y44392078D01*
X15478136Y43861760D01*
X15625758Y43505369D01*
X15861525Y43443531D01*
X16617195Y44199200D01*
X16976405Y44199200D01*
X17732075Y43443531D01*
X17967842Y43505369D01*
X18144219Y44006322D01*
X18123303Y44392078D01*
X18199381Y44392078D01*
X18228136Y43861760D01*
X18375758Y43505369D01*
X18611525Y43443531D01*
X19367195Y44199200D01*
X19726405Y44199200D01*
X20482075Y43443531D01*
X20717842Y43505369D01*
X20894219Y44006322D01*
X20865464Y44536640D01*
X20717842Y44893031D01*
X20482075Y44954869D01*
X19726405Y44199200D01*
X19367195Y44199200D01*
X18611525Y44954869D01*
X18375758Y44893031D01*
X18199381Y44392078D01*
X18123303Y44392078D01*
X18115464Y44536640D01*
X17967842Y44893031D01*
X17732075Y44954869D01*
X16976405Y44199200D01*
X16617195Y44199200D01*
X15861525Y44954869D01*
X15625758Y44893031D01*
X15449381Y44392078D01*
X15439800Y44392078D01*
X15439800Y45072504D01*
X15498241Y45110110D01*
X15514888Y45134475D01*
X16041131Y45134475D01*
X16796800Y44378805D01*
X17552469Y45134475D01*
X18791131Y45134475D01*
X19546800Y44378805D01*
X20302469Y45134475D01*
X20240631Y45370242D01*
X19739678Y45546619D01*
X19209360Y45517864D01*
X18852969Y45370242D01*
X18791131Y45134475D01*
X17552469Y45134475D01*
X17490631Y45370242D01*
X16989678Y45546619D01*
X16459360Y45517864D01*
X16102969Y45370242D01*
X16041131Y45134475D01*
X15514888Y45134475D01*
X15643231Y45322310D01*
X15694240Y45574200D01*
X15694240Y46824200D01*
X15649962Y47059517D01*
X15510890Y47275641D01*
X15309800Y47413040D01*
X15309800Y48464445D01*
X15520680Y48780049D01*
X15629913Y49329200D01*
X15520680Y49878351D01*
X15209611Y50343898D01*
X14827525Y50599200D01*
X15017594Y50726200D01*
X16036683Y50726200D01*
X16285918Y50559667D01*
X16796800Y50458046D01*
X17307682Y50559667D01*
X17482087Y50676200D01*
X18861513Y50676200D01*
X19035918Y50559667D01*
X19546800Y50458046D01*
X20057682Y50559667D01*
X20490788Y50849058D01*
X20780179Y51282164D01*
X20881800Y51793046D01*
X20881800Y51845354D01*
X20780179Y52356236D01*
X20689800Y52491498D01*
X20689800Y56537395D01*
X22678605Y56537395D01*
X22911158Y55975942D01*
X23402024Y55454708D01*
X24054993Y55160997D01*
X24339800Y55277342D01*
X24339800Y56822200D01*
X24593800Y56822200D01*
X24593800Y55277342D01*
X24878607Y55160997D01*
X25531576Y55454708D01*
X26022442Y55975942D01*
X26254995Y56537395D01*
X26138232Y56822200D01*
X24593800Y56822200D01*
X24339800Y56822200D01*
X22795368Y56822200D01*
X22678605Y56537395D01*
X20689800Y56537395D01*
X20689800Y57361005D01*
X22678605Y57361005D01*
X22795368Y57076200D01*
X24339800Y57076200D01*
X24339800Y58621058D01*
X24593800Y58621058D01*
X24593800Y57076200D01*
X26138232Y57076200D01*
X26254995Y57361005D01*
X26022442Y57922458D01*
X25531576Y58443692D01*
X24878607Y58737403D01*
X24593800Y58621058D01*
X24339800Y58621058D01*
X24054993Y58737403D01*
X23402024Y58443692D01*
X22911158Y57922458D01*
X22678605Y57361005D01*
X20689800Y57361005D01*
X20689800Y60255292D01*
X20758473Y60089501D01*
X20937102Y59910873D01*
X21170491Y59814200D01*
X21511050Y59814200D01*
X21669800Y59972950D01*
X21669800Y60822200D01*
X21923800Y60822200D01*
X21923800Y59972950D01*
X22082550Y59814200D01*
X22423109Y59814200D01*
X22656498Y59910873D01*
X22835127Y60089501D01*
X22931800Y60322890D01*
X22931800Y60663450D01*
X22773050Y60822200D01*
X21923800Y60822200D01*
X21669800Y60822200D01*
X20820550Y60822200D01*
X20689800Y60691450D01*
X20689800Y60699200D01*
X20640072Y60949200D01*
X20689800Y61199200D01*
X20689800Y61206950D01*
X20820550Y61076200D01*
X21669800Y61076200D01*
X21669800Y61925450D01*
X21923800Y61925450D01*
X21923800Y61076200D01*
X22773050Y61076200D01*
X22931800Y61234950D01*
X22931800Y61575510D01*
X22835127Y61808899D01*
X22656498Y61987527D01*
X22423109Y62084200D01*
X22082550Y62084200D01*
X21923800Y61925450D01*
X21669800Y61925450D01*
X21511050Y62084200D01*
X21170491Y62084200D01*
X20937102Y61987527D01*
X20758473Y61808899D01*
X20689800Y61643108D01*
X20689800Y65062580D01*
X20762624Y65135277D01*
X20819045Y65271154D01*
X21043989Y64934502D01*
X21509536Y64623433D01*
X21867281Y64552273D01*
X25468577Y60950977D01*
X25839393Y60703206D01*
X26276800Y60616200D01*
X32634699Y60616200D01*
X32761735Y60488943D01*
X32391768Y60119621D01*
X32149576Y59536359D01*
X32149025Y58904812D01*
X32390198Y58321128D01*
X32618727Y58092200D01*
X31394240Y58092200D01*
X31394240Y58149200D01*
X31349962Y58384517D01*
X31210890Y58600641D01*
X30998690Y58745631D01*
X30746800Y58796640D01*
X28346800Y58796640D01*
X28111483Y58752362D01*
X27895359Y58613290D01*
X27750369Y58401090D01*
X27699360Y58149200D01*
X27699360Y56718206D01*
X26788117Y55806963D01*
X26540346Y55436147D01*
X26453340Y54998740D01*
X26453340Y49296660D01*
X26146000Y49296660D01*
X25910683Y49252382D01*
X25694559Y49113310D01*
X25549569Y48901110D01*
X25498560Y48649220D01*
X25498560Y43249180D01*
X25542838Y43013863D01*
X25681910Y42797739D01*
X25894110Y42652749D01*
X26146000Y42601740D01*
X29046680Y42601740D01*
X29281997Y42646018D01*
X29498121Y42785090D01*
X29643111Y42997290D01*
X29694120Y43249180D01*
X29694120Y48649220D01*
X29649842Y48884537D01*
X29510770Y49100661D01*
X29298570Y49245651D01*
X29046680Y49296660D01*
X28739340Y49296660D01*
X28739340Y54525294D01*
X29315806Y55101760D01*
X30746800Y55101760D01*
X30982117Y55146038D01*
X31198241Y55285110D01*
X31343231Y55497310D01*
X31394240Y55749200D01*
X31394240Y55806200D01*
X32379838Y55806200D01*
X32390198Y55781128D01*
X32761735Y55408943D01*
X32391768Y55039621D01*
X32149576Y54456359D01*
X32149025Y53824812D01*
X32390198Y53241128D01*
X32836379Y52794168D01*
X33419641Y52551976D01*
X34051188Y52551425D01*
X34634872Y52792598D01*
X35081832Y53238779D01*
X35324024Y53822041D01*
X35324575Y54453588D01*
X35083402Y55037272D01*
X34711865Y55409457D01*
X35081832Y55778779D01*
X35324024Y56362041D01*
X35324521Y56932399D01*
X39758125Y56932399D01*
X39782922Y56301339D01*
X39976712Y55833488D01*
X40238641Y55740646D01*
X41177195Y56679200D01*
X41536405Y56679200D01*
X42474959Y55740646D01*
X42736888Y55833488D01*
X42955475Y56426001D01*
X42930678Y57057061D01*
X42736888Y57524912D01*
X42474959Y57617754D01*
X41536405Y56679200D01*
X41177195Y56679200D01*
X40238641Y57617754D01*
X39976712Y57524912D01*
X39758125Y56932399D01*
X35324521Y56932399D01*
X35324575Y56993588D01*
X35083402Y57577272D01*
X34711865Y57949457D01*
X34863713Y58101041D01*
X40418246Y58101041D01*
X40472067Y57949200D01*
X40418246Y57797359D01*
X41356800Y56858805D01*
X42295354Y57797359D01*
X42241533Y57949200D01*
X42295354Y58101041D01*
X41356800Y59039595D01*
X40418246Y58101041D01*
X34863713Y58101041D01*
X35081832Y58318779D01*
X35324024Y58902041D01*
X35324521Y59472399D01*
X39758125Y59472399D01*
X39782922Y58841339D01*
X39976712Y58373488D01*
X40238641Y58280646D01*
X41177195Y59219200D01*
X41536405Y59219200D01*
X42474959Y58280646D01*
X42736888Y58373488D01*
X42955475Y58966001D01*
X42930678Y59597061D01*
X42736888Y60064912D01*
X42474959Y60157754D01*
X41536405Y59219200D01*
X41177195Y59219200D01*
X40238641Y60157754D01*
X39976712Y60064912D01*
X39758125Y59472399D01*
X35324521Y59472399D01*
X35324575Y59533588D01*
X35083402Y60117272D01*
X34711865Y60489457D01*
X34838829Y60616200D01*
X36106800Y60616200D01*
X36231683Y60641041D01*
X40418246Y60641041D01*
X40472067Y60489200D01*
X40418246Y60337359D01*
X41356800Y59398805D01*
X42295354Y60337359D01*
X42241533Y60489200D01*
X42295354Y60641041D01*
X41356800Y61579595D01*
X40418246Y60641041D01*
X36231683Y60641041D01*
X36544207Y60703206D01*
X36915023Y60950977D01*
X38770246Y62806200D01*
X40130192Y62806200D01*
X40238639Y62697753D01*
X39976712Y62604912D01*
X39758125Y62012399D01*
X39782922Y61381339D01*
X39976712Y60913488D01*
X40238641Y60820646D01*
X41177195Y61759200D01*
X41163053Y61773342D01*
X41342658Y61952947D01*
X41356800Y61938805D01*
X41370943Y61952947D01*
X41550548Y61773342D01*
X41536405Y61759200D01*
X42474959Y60820646D01*
X42736888Y60913488D01*
X42955475Y61506001D01*
X42930678Y62137061D01*
X42886968Y62242586D01*
X49403800Y55725754D01*
X49403800Y39427741D01*
X49212032Y38965913D01*
X49211569Y38434817D01*
X49403800Y37969581D01*
X49403800Y35573583D01*
X49048774Y35336363D01*
X48910890Y35550641D01*
X48698690Y35695631D01*
X48446800Y35746640D01*
X48189800Y35746640D01*
X48189800Y38062580D01*
X48262624Y38135277D01*
X48481550Y38662509D01*
X48482048Y39233387D01*
X48264043Y39761000D01*
X47860723Y40165024D01*
X47333491Y40383950D01*
X46762613Y40384448D01*
X46235000Y40166443D01*
X45830976Y39763123D01*
X45768487Y39612632D01*
X45737841Y39686623D01*
X45361934Y40101589D01*
X44855841Y40341114D01*
X44633800Y40219829D01*
X44633800Y39076200D01*
X44653800Y39076200D01*
X44653800Y38822200D01*
X44633800Y38822200D01*
X44633800Y37678571D01*
X44855841Y37557286D01*
X45361934Y37796811D01*
X45737841Y38211777D01*
X45768370Y38285485D01*
X45829557Y38137400D01*
X45903800Y38063027D01*
X45903800Y34699200D01*
X45990806Y34261793D01*
X45999360Y34248991D01*
X45999360Y33848206D01*
X43759079Y31607925D01*
X43546800Y31650150D01*
X42844576Y31510469D01*
X42249259Y31112691D01*
X41851481Y30517374D01*
X41711800Y29815150D01*
X41711800Y29743250D01*
X41851481Y29041026D01*
X42249259Y28445709D01*
X42844576Y28047931D01*
X43546800Y27908250D01*
X44249024Y28047931D01*
X44844341Y28445709D01*
X45242119Y29041026D01*
X45381800Y29743250D01*
X45381800Y29815150D01*
X45351504Y29967458D01*
X46291614Y30907568D01*
X46212032Y30715913D01*
X46211569Y30184817D01*
X46403800Y29719581D01*
X46403800Y27989200D01*
X46404868Y27983831D01*
X46361800Y27767313D01*
X46361800Y27711087D01*
X46471033Y27161936D01*
X46782102Y26696389D01*
X47118510Y26471608D01*
X46985000Y26416443D01*
X46580976Y26013123D01*
X46510003Y25842200D01*
X45394240Y25842200D01*
X45394240Y25899200D01*
X45349962Y26134517D01*
X45210890Y26350641D01*
X44998690Y26495631D01*
X44746800Y26546640D01*
X42346800Y26546640D01*
X42111483Y26502362D01*
X41895359Y26363290D01*
X41750369Y26151090D01*
X41699360Y25899200D01*
X41699360Y23499200D01*
X41743638Y23263883D01*
X41882710Y23047759D01*
X42094910Y22902769D01*
X42346800Y22851760D01*
X44746800Y22851760D01*
X44982117Y22896038D01*
X45198241Y23035110D01*
X45343231Y23247310D01*
X45394240Y23499200D01*
X45394240Y23556200D01*
X46653800Y23556200D01*
X46653800Y16427741D01*
X46462032Y15965913D01*
X46461569Y15434817D01*
X46653800Y14969581D01*
X46653800Y12677741D01*
X46462032Y12215913D01*
X46461569Y11684817D01*
X46653800Y11219581D01*
X46653800Y5118418D01*
X46411522Y4876563D01*
X46162084Y4275848D01*
X46161516Y3625405D01*
X46409906Y3024257D01*
X46869437Y2563922D01*
X47470152Y2314484D01*
X48120595Y2313916D01*
X48721743Y2562306D01*
X48956515Y2796668D01*
X50323873Y2796668D01*
X50422536Y2529813D01*
X51032261Y2303292D01*
X51682260Y2327344D01*
X52171064Y2529813D01*
X52269727Y2796668D01*
X51296800Y3769595D01*
X50323873Y2796668D01*
X48956515Y2796668D01*
X49182078Y3021837D01*
X49431516Y3622552D01*
X49432032Y4213739D01*
X49650892Y4213739D01*
X49674944Y3563740D01*
X49877413Y3074936D01*
X50144268Y2976273D01*
X51117195Y3949200D01*
X51476405Y3949200D01*
X52449332Y2976273D01*
X52716187Y3074936D01*
X52920693Y3625405D01*
X83661516Y3625405D01*
X83909906Y3024257D01*
X84369437Y2563922D01*
X84970152Y2314484D01*
X85620595Y2313916D01*
X86221743Y2562306D01*
X86682078Y3021837D01*
X86931516Y3622552D01*
X86932060Y4245425D01*
X87028577Y4100977D01*
X87161815Y3967739D01*
X87161516Y3625405D01*
X87409906Y3024257D01*
X87869437Y2563922D01*
X88470152Y2314484D01*
X89120595Y2313916D01*
X89721743Y2562306D01*
X90182078Y3021837D01*
X90431516Y3622552D01*
X90432084Y4272995D01*
X90183694Y4874143D01*
X89724163Y5334478D01*
X89123448Y5583916D01*
X88979800Y5584041D01*
X88979800Y6163450D01*
X94161800Y6163450D01*
X94161800Y4572891D01*
X94258473Y4339502D01*
X94437101Y4160873D01*
X94670490Y4064200D01*
X96261050Y4064200D01*
X96419800Y4222950D01*
X96419800Y6322200D01*
X96673800Y6322200D01*
X96673800Y4222950D01*
X96832550Y4064200D01*
X98423110Y4064200D01*
X98656499Y4160873D01*
X98835127Y4339502D01*
X98931800Y4572891D01*
X98931800Y5327649D01*
X111183016Y5327649D01*
X111538884Y5054447D01*
X112785497Y5016809D01*
X112974716Y5054447D01*
X113330584Y5327649D01*
X112256800Y6401433D01*
X111183016Y5327649D01*
X98931800Y5327649D01*
X98931800Y6163450D01*
X98773050Y6322200D01*
X96673800Y6322200D01*
X96419800Y6322200D01*
X94320550Y6322200D01*
X94161800Y6163450D01*
X88979800Y6163450D01*
X88979800Y8325509D01*
X94161800Y8325509D01*
X94161800Y6734950D01*
X94320550Y6576200D01*
X96419800Y6576200D01*
X96419800Y8675450D01*
X96261050Y8834200D01*
X94670490Y8834200D01*
X94437101Y8737527D01*
X94258473Y8558898D01*
X94161800Y8325509D01*
X88979800Y8325509D01*
X88979800Y14199200D01*
X94149360Y14199200D01*
X94149360Y10699200D01*
X94193638Y10463883D01*
X94332710Y10247759D01*
X94544910Y10102769D01*
X94796800Y10051760D01*
X98296800Y10051760D01*
X98532117Y10096038D01*
X98748241Y10235110D01*
X98849360Y10383103D01*
X98849360Y8524537D01*
X98835127Y8558898D01*
X98656499Y8737527D01*
X98423110Y8834200D01*
X96832550Y8834200D01*
X96673800Y8675450D01*
X96673800Y6576200D01*
X98773050Y6576200D01*
X98931800Y6734950D01*
X98931800Y7404578D01*
X99032710Y7247759D01*
X99244910Y7102769D01*
X99496800Y7051760D01*
X102996800Y7051760D01*
X103232117Y7096038D01*
X103448241Y7235110D01*
X103593231Y7447310D01*
X103632353Y7640503D01*
X109104409Y7640503D01*
X109142047Y7451284D01*
X109415249Y7095416D01*
X110489033Y8169200D01*
X114024567Y8169200D01*
X115098351Y7095416D01*
X115371553Y7451284D01*
X115409191Y8697897D01*
X115371553Y8887116D01*
X115098351Y9242984D01*
X114024567Y8169200D01*
X110489033Y8169200D01*
X109415249Y9242984D01*
X109142047Y8887116D01*
X109104409Y7640503D01*
X103632353Y7640503D01*
X103644240Y7699200D01*
X103644240Y11010751D01*
X111183016Y11010751D01*
X112256800Y9936967D01*
X113330584Y11010751D01*
X112974716Y11283953D01*
X111728103Y11321591D01*
X111538884Y11283953D01*
X111183016Y11010751D01*
X103644240Y11010751D01*
X103644240Y11199200D01*
X103599962Y11434517D01*
X103460890Y11650641D01*
X103248690Y11795631D01*
X102996800Y11846640D01*
X99496800Y11846640D01*
X99261483Y11802362D01*
X99045359Y11663290D01*
X98944240Y11515297D01*
X98944240Y14199200D01*
X98899962Y14434517D01*
X98760890Y14650641D01*
X98548690Y14795631D01*
X98296800Y14846640D01*
X94796800Y14846640D01*
X94561483Y14802362D01*
X94345359Y14663290D01*
X94200369Y14451090D01*
X94149360Y14199200D01*
X88979800Y14199200D01*
X88979800Y16129326D01*
X108961170Y16129326D01*
X109513400Y14792828D01*
X110535049Y13769394D01*
X111870582Y13214832D01*
X113316674Y13213570D01*
X114653172Y13765800D01*
X115676606Y14787449D01*
X116231168Y16122982D01*
X116232430Y17569074D01*
X115680200Y18905572D01*
X114658551Y19929006D01*
X113323018Y20483568D01*
X111876926Y20484830D01*
X110540428Y19932600D01*
X109516994Y18910951D01*
X108962432Y17575418D01*
X108961170Y16129326D01*
X88979800Y16129326D01*
X88979800Y21598406D01*
X89106800Y21788475D01*
X89362102Y21406389D01*
X89827649Y21095320D01*
X90376800Y20986087D01*
X90925951Y21095320D01*
X91391498Y21406389D01*
X91702567Y21871936D01*
X91811800Y22421087D01*
X91811800Y22477313D01*
X91702567Y23026464D01*
X91391498Y23492011D01*
X90925951Y23803080D01*
X90376800Y23912313D01*
X89827649Y23803080D01*
X89362102Y23492011D01*
X89106800Y23109925D01*
X88851498Y23492011D01*
X88385951Y23803080D01*
X87836800Y23912313D01*
X87287649Y23803080D01*
X86822102Y23492011D01*
X86725699Y23347735D01*
X86699962Y23484517D01*
X86560890Y23700641D01*
X86348690Y23845631D01*
X86096800Y23896640D01*
X84496800Y23896640D01*
X84261483Y23852362D01*
X84045359Y23713290D01*
X83900369Y23501090D01*
X83849360Y23249200D01*
X83849360Y21649200D01*
X83893638Y21413883D01*
X84032710Y21197759D01*
X84153800Y21115022D01*
X84153800Y18339994D01*
X83971033Y18066464D01*
X83861800Y17517313D01*
X83861800Y17461087D01*
X83971033Y16911936D01*
X84282102Y16446389D01*
X84618510Y16221608D01*
X84485000Y16166443D01*
X84080976Y15763123D01*
X83862050Y15235891D01*
X83861552Y14665013D01*
X84079557Y14137400D01*
X84153800Y14063027D01*
X84153800Y5118418D01*
X83911522Y4876563D01*
X83662084Y4275848D01*
X83661516Y3625405D01*
X52920693Y3625405D01*
X52942708Y3684661D01*
X52918656Y4334660D01*
X52716187Y4823464D01*
X52449332Y4922127D01*
X51476405Y3949200D01*
X51117195Y3949200D01*
X50144268Y4922127D01*
X49877413Y4823464D01*
X49650892Y4213739D01*
X49432032Y4213739D01*
X49432084Y4272995D01*
X49183694Y4874143D01*
X48956503Y5101732D01*
X50323873Y5101732D01*
X51296800Y4128805D01*
X52269727Y5101732D01*
X52186200Y5327649D01*
X56183016Y5327649D01*
X56538884Y5054447D01*
X57785497Y5016809D01*
X57974716Y5054447D01*
X58330584Y5327649D01*
X57256800Y6401433D01*
X56183016Y5327649D01*
X52186200Y5327649D01*
X52171064Y5368587D01*
X51561339Y5595108D01*
X50911340Y5571056D01*
X50422536Y5368587D01*
X50323873Y5101732D01*
X48956503Y5101732D01*
X48939800Y5118464D01*
X48939800Y7640503D01*
X54104409Y7640503D01*
X54142047Y7451284D01*
X54415249Y7095416D01*
X55489033Y8169200D01*
X59024567Y8169200D01*
X60098351Y7095416D01*
X60371553Y7451284D01*
X60409191Y8697897D01*
X60371553Y8887116D01*
X60098351Y9242984D01*
X59024567Y8169200D01*
X55489033Y8169200D01*
X54415249Y9242984D01*
X54142047Y8887116D01*
X54104409Y7640503D01*
X48939800Y7640503D01*
X48939800Y11220659D01*
X49103906Y11615871D01*
X54124084Y11615871D01*
X54267003Y11270804D01*
X54614137Y10882436D01*
X55083469Y10656473D01*
X55289800Y10778994D01*
X55289800Y11822200D01*
X55543800Y11822200D01*
X55543800Y10778994D01*
X55750131Y10656473D01*
X56219463Y10882436D01*
X56262822Y10930945D01*
X57256800Y9936967D01*
X58330584Y11010751D01*
X57974716Y11283953D01*
X56728103Y11321591D01*
X56575020Y11291141D01*
X56709516Y11615871D01*
X56586174Y11822200D01*
X55543800Y11822200D01*
X55289800Y11822200D01*
X54247426Y11822200D01*
X54124084Y11615871D01*
X49103906Y11615871D01*
X49131568Y11682487D01*
X49132031Y12213583D01*
X49103544Y12282529D01*
X54124084Y12282529D01*
X54247426Y12076200D01*
X55289800Y12076200D01*
X55289800Y13119406D01*
X55543800Y13119406D01*
X55543800Y12076200D01*
X56586174Y12076200D01*
X56709516Y12282529D01*
X56566597Y12627596D01*
X56219463Y13015964D01*
X55750131Y13241927D01*
X55543800Y13119406D01*
X55289800Y13119406D01*
X55083469Y13241927D01*
X54614137Y13015964D01*
X54267003Y12627596D01*
X54124084Y12282529D01*
X49103544Y12282529D01*
X48939800Y12678819D01*
X48939800Y14970659D01*
X49103906Y15365871D01*
X54124084Y15365871D01*
X54267003Y15020804D01*
X54614137Y14632436D01*
X55083469Y14406473D01*
X55289800Y14528994D01*
X55289800Y15572200D01*
X55543800Y15572200D01*
X55543800Y14528994D01*
X55750131Y14406473D01*
X56219463Y14632436D01*
X56566597Y15020804D01*
X56709516Y15365871D01*
X56586174Y15572200D01*
X55543800Y15572200D01*
X55289800Y15572200D01*
X54247426Y15572200D01*
X54124084Y15365871D01*
X49103906Y15365871D01*
X49131568Y15432487D01*
X49132031Y15963583D01*
X49103544Y16032529D01*
X54124084Y16032529D01*
X54247426Y15826200D01*
X55289800Y15826200D01*
X55289800Y16869406D01*
X55543800Y16869406D01*
X55543800Y15826200D01*
X56586174Y15826200D01*
X56709516Y16032529D01*
X56566597Y16377596D01*
X56219463Y16765964D01*
X55750131Y16991927D01*
X55543800Y16869406D01*
X55289800Y16869406D01*
X55083469Y16991927D01*
X54614137Y16765964D01*
X54267003Y16377596D01*
X54124084Y16032529D01*
X49103544Y16032529D01*
X48939800Y16428819D01*
X48939800Y19608175D01*
X48987102Y19560873D01*
X49220491Y19464200D01*
X49511050Y19464200D01*
X49669800Y19622950D01*
X49669800Y20372200D01*
X49923800Y20372200D01*
X49923800Y19622950D01*
X50082550Y19464200D01*
X50373109Y19464200D01*
X50606498Y19560873D01*
X50785127Y19739501D01*
X50881800Y19972890D01*
X50881800Y20213450D01*
X50723050Y20372200D01*
X49923800Y20372200D01*
X49669800Y20372200D01*
X49649800Y20372200D01*
X49649800Y20626200D01*
X49669800Y20626200D01*
X49669800Y20646200D01*
X49923800Y20646200D01*
X49923800Y20626200D01*
X50723050Y20626200D01*
X50881800Y20784950D01*
X50881800Y21025510D01*
X50785127Y21258899D01*
X50606498Y21437527D01*
X50570053Y21452623D01*
X50698241Y21535110D01*
X50843231Y21747310D01*
X50894240Y21999200D01*
X50894240Y22799200D01*
X50849962Y23034517D01*
X50710890Y23250641D01*
X50498690Y23395631D01*
X50246800Y23446640D01*
X49346800Y23446640D01*
X49111483Y23402362D01*
X48939800Y23291887D01*
X48939800Y24312580D01*
X49012624Y24385277D01*
X49231550Y24912509D01*
X49232048Y25483387D01*
X49014043Y26011000D01*
X48610723Y26415024D01*
X48474846Y26471445D01*
X48811498Y26696389D01*
X49122567Y27161936D01*
X49231800Y27711087D01*
X49231800Y27767313D01*
X49122567Y28316464D01*
X48811498Y28782011D01*
X48689800Y28863327D01*
X48689800Y29720659D01*
X48853906Y30115871D01*
X53874084Y30115871D01*
X54017003Y29770804D01*
X54364137Y29382436D01*
X54833469Y29156473D01*
X55039800Y29278994D01*
X55039800Y30322200D01*
X55293800Y30322200D01*
X55293800Y29278994D01*
X55500131Y29156473D01*
X55969463Y29382436D01*
X56316597Y29770804D01*
X56459516Y30115871D01*
X56336174Y30322200D01*
X55293800Y30322200D01*
X55039800Y30322200D01*
X53997426Y30322200D01*
X53874084Y30115871D01*
X48853906Y30115871D01*
X48881568Y30182487D01*
X48882031Y30713583D01*
X48853544Y30782529D01*
X53874084Y30782529D01*
X53997426Y30576200D01*
X55039800Y30576200D01*
X55039800Y31619406D01*
X55293800Y31619406D01*
X55293800Y30576200D01*
X56336174Y30576200D01*
X56459516Y30782529D01*
X56316597Y31127596D01*
X55969463Y31515964D01*
X55500131Y31741927D01*
X55293800Y31619406D01*
X55039800Y31619406D01*
X54833469Y31741927D01*
X54364137Y31515964D01*
X54017003Y31127596D01*
X53874084Y30782529D01*
X48853544Y30782529D01*
X48689800Y31178819D01*
X48689800Y32700982D01*
X48898241Y32835110D01*
X49043231Y33047310D01*
X49046519Y33063544D01*
X49469309Y32781045D01*
X50056728Y32664200D01*
X50116872Y32664200D01*
X50704291Y32781045D01*
X51202281Y33113791D01*
X51356800Y33345045D01*
X51511319Y33113791D01*
X52009309Y32781045D01*
X52596728Y32664200D01*
X52656872Y32664200D01*
X53244291Y32781045D01*
X53742281Y33113791D01*
X54075027Y33611781D01*
X54191872Y34199200D01*
X54075027Y34786619D01*
X53742281Y35284609D01*
X53244291Y35617355D01*
X52656872Y35734200D01*
X52596728Y35734200D01*
X52009309Y35617355D01*
X51689800Y35403866D01*
X51689800Y37970659D01*
X51853906Y38365871D01*
X56874084Y38365871D01*
X57017003Y38020804D01*
X57364137Y37632436D01*
X57833469Y37406473D01*
X58039800Y37528994D01*
X58039800Y38572200D01*
X58293800Y38572200D01*
X58293800Y37528994D01*
X58500131Y37406473D01*
X58969463Y37632436D01*
X59316597Y38020804D01*
X59459516Y38365871D01*
X59336174Y38572200D01*
X58293800Y38572200D01*
X58039800Y38572200D01*
X56997426Y38572200D01*
X56874084Y38365871D01*
X51853906Y38365871D01*
X51881568Y38432487D01*
X51882031Y38963583D01*
X51853544Y39032529D01*
X56874084Y39032529D01*
X56997426Y38826200D01*
X58039800Y38826200D01*
X58039800Y39869406D01*
X58293800Y39869406D01*
X58293800Y38826200D01*
X59336174Y38826200D01*
X59459516Y39032529D01*
X59316597Y39377596D01*
X58969463Y39765964D01*
X58500131Y39991927D01*
X58293800Y39869406D01*
X58039800Y39869406D01*
X57833469Y39991927D01*
X57364137Y39765964D01*
X57017003Y39377596D01*
X56874084Y39032529D01*
X51853544Y39032529D01*
X51689800Y39428819D01*
X51689800Y41896553D01*
X67013758Y41896553D01*
X67095504Y41644008D01*
X67655213Y41440544D01*
X68250179Y41466758D01*
X68678096Y41644008D01*
X68759842Y41896553D01*
X67886800Y42769595D01*
X67013758Y41896553D01*
X51689800Y41896553D01*
X51689800Y43180787D01*
X66378144Y43180787D01*
X66404358Y42585821D01*
X66581608Y42157904D01*
X66834153Y42076158D01*
X67707195Y42949200D01*
X68066405Y42949200D01*
X68939447Y42076158D01*
X69191992Y42157904D01*
X69395456Y42717613D01*
X69369242Y43312579D01*
X69191992Y43740496D01*
X68939447Y43822242D01*
X68066405Y42949200D01*
X67707195Y42949200D01*
X66834153Y43822242D01*
X66581608Y43740496D01*
X66378144Y43180787D01*
X51689800Y43180787D01*
X51689800Y44001847D01*
X67013758Y44001847D01*
X67886800Y43128805D01*
X68759842Y44001847D01*
X68678096Y44254392D01*
X68118387Y44457856D01*
X67523421Y44431642D01*
X67095504Y44254392D01*
X67013758Y44001847D01*
X51689800Y44001847D01*
X51689800Y56199200D01*
X51602794Y56636607D01*
X51355023Y57007423D01*
X43605023Y64757423D01*
X43234207Y65005194D01*
X42796800Y65092200D01*
X38296800Y65092200D01*
X37859393Y65005194D01*
X37488577Y64757423D01*
X35633354Y62902200D01*
X34838901Y62902200D01*
X34637221Y63104232D01*
X34439800Y63186209D01*
X34439800Y65615330D01*
X34548241Y65685110D01*
X34630978Y65806200D01*
X48345354Y65806200D01*
X52935777Y61215777D01*
X53306593Y60968006D01*
X53744000Y60881000D01*
X53863800Y60904830D01*
X53863800Y58538740D01*
X53950806Y58101333D01*
X54198577Y57730517D01*
X57498560Y54430534D01*
X57498560Y54398212D01*
X57490806Y54386607D01*
X57403800Y53949200D01*
X57490806Y53511793D01*
X57498560Y53500188D01*
X57498560Y51249180D01*
X57542838Y51013863D01*
X57681910Y50797739D01*
X57894110Y50652749D01*
X58146000Y50601740D01*
X61046680Y50601740D01*
X61281997Y50646018D01*
X61498121Y50785090D01*
X61643111Y50997290D01*
X61694120Y51249180D01*
X61694120Y56649220D01*
X61649842Y56884537D01*
X61510770Y57100661D01*
X61298570Y57245651D01*
X61046680Y57296660D01*
X60211834Y57296660D01*
X60033747Y57415654D01*
X59596340Y57502660D01*
X59158933Y57415654D01*
X58980846Y57296660D01*
X58146000Y57296660D01*
X57910683Y57252382D01*
X57910026Y57251960D01*
X56149800Y59012186D01*
X56149800Y64084445D01*
X56274392Y64270910D01*
X56329557Y64137400D01*
X56732877Y63733376D01*
X57260109Y63514450D01*
X57830987Y63513952D01*
X58358600Y63731957D01*
X58432973Y63806200D01*
X60076006Y63806200D01*
X60349536Y63623433D01*
X60898687Y63514200D01*
X60954913Y63514200D01*
X61504064Y63623433D01*
X61969611Y63934502D01*
X62280680Y64400049D01*
X62389913Y64949200D01*
X62280680Y65498351D01*
X61969611Y65963898D01*
X61587525Y66219200D01*
X61969611Y66474502D01*
X62280680Y66940049D01*
X62389913Y67489200D01*
X62280680Y68038351D01*
X61969611Y68503898D01*
X61587525Y68759200D01*
X61777594Y68886200D01*
X62743354Y68886200D01*
X65653800Y65975754D01*
X65653800Y47949200D01*
X65740806Y47511793D01*
X65988577Y47140977D01*
X70988577Y42140977D01*
X71359393Y41893206D01*
X71796800Y41806200D01*
X74242574Y41806200D01*
X74367710Y41680845D01*
X74917722Y41452460D01*
X75513265Y41451941D01*
X76063675Y41679365D01*
X76485155Y42100110D01*
X76713540Y42650122D01*
X76714059Y43245665D01*
X76486635Y43796075D01*
X76065890Y44217555D01*
X75515878Y44445940D01*
X74920335Y44446459D01*
X74369925Y44219035D01*
X74242868Y44092200D01*
X72270246Y44092200D01*
X67939800Y48422646D01*
X67939800Y50623432D01*
X68046920Y50601740D01*
X70947600Y50601740D01*
X71182917Y50646018D01*
X71399041Y50785090D01*
X71544031Y50997290D01*
X71595040Y51249180D01*
X71595040Y51549200D01*
X83551728Y51549200D01*
X83668573Y50961781D01*
X83976800Y50500486D01*
X83976800Y42833565D01*
X83850043Y42528300D01*
X83849558Y41972539D01*
X84061790Y41458897D01*
X84454430Y41065571D01*
X84967700Y40852443D01*
X85027163Y40852391D01*
X89153800Y36725754D01*
X89153800Y36585820D01*
X89080976Y36513123D01*
X88862050Y35985891D01*
X88861552Y35415013D01*
X89079557Y34887400D01*
X89482877Y34483376D01*
X89618754Y34426955D01*
X89282102Y34202011D01*
X88971033Y33736464D01*
X88861800Y33187313D01*
X88861800Y33131087D01*
X88971033Y32581936D01*
X89233800Y32188678D01*
X89233800Y30919994D01*
X89106800Y30729925D01*
X88851498Y31112011D01*
X88385951Y31423080D01*
X87836800Y31532313D01*
X87287649Y31423080D01*
X86822102Y31112011D01*
X86566800Y30729925D01*
X86439800Y30919994D01*
X86439800Y32058406D01*
X86622567Y32331936D01*
X86731800Y32881087D01*
X86731800Y32937313D01*
X86622567Y33486464D01*
X86311498Y33952011D01*
X85975090Y34176792D01*
X86108600Y34231957D01*
X86512624Y34635277D01*
X86731550Y35162509D01*
X86732048Y35733387D01*
X86514043Y36261000D01*
X86110723Y36665024D01*
X85583491Y36883950D01*
X85012613Y36884448D01*
X84485000Y36666443D01*
X84080976Y36263123D01*
X83862050Y35735891D01*
X83861552Y35165013D01*
X84079557Y34637400D01*
X84482877Y34233376D01*
X84618754Y34176955D01*
X84282102Y33952011D01*
X83971033Y33486464D01*
X83861800Y32937313D01*
X83861800Y32881087D01*
X83971033Y32331936D01*
X84153800Y32058406D01*
X84153800Y30919994D01*
X83971033Y30646464D01*
X83861800Y30097313D01*
X83861800Y30041087D01*
X83971033Y29491936D01*
X84282102Y29026389D01*
X84747649Y28715320D01*
X85296800Y28606087D01*
X85845951Y28715320D01*
X86311498Y29026389D01*
X86566800Y29408475D01*
X86822102Y29026389D01*
X87287649Y28715320D01*
X87836800Y28606087D01*
X88385951Y28715320D01*
X88851498Y29026389D01*
X89106800Y29408475D01*
X89362102Y29026389D01*
X89827649Y28715320D01*
X90376800Y28606087D01*
X90925951Y28715320D01*
X91391498Y29026389D01*
X91702567Y29491936D01*
X91811800Y30041087D01*
X91811800Y30097313D01*
X91702567Y30646464D01*
X91519800Y30919994D01*
X91519800Y32428135D01*
X91622567Y32581936D01*
X91731800Y33131087D01*
X91731800Y33187313D01*
X91622567Y33736464D01*
X91311498Y34202011D01*
X90975090Y34426792D01*
X91108600Y34481957D01*
X91512624Y34885277D01*
X91731550Y35412509D01*
X91732048Y35983387D01*
X91514043Y36511000D01*
X91439800Y36585373D01*
X91439800Y37199200D01*
X91352794Y37636607D01*
X91105023Y38007423D01*
X87139907Y41972539D01*
X88949558Y41972539D01*
X89161790Y41458897D01*
X89554430Y41065571D01*
X90067700Y40852443D01*
X90623461Y40851958D01*
X91137103Y41064190D01*
X91530429Y41456830D01*
X91658208Y41764556D01*
X92472851Y42579200D01*
X103349180Y42579200D01*
X103358542Y42556542D01*
X104000761Y41913201D01*
X104840291Y41564597D01*
X105749321Y41563804D01*
X106589458Y41910942D01*
X107026800Y42347521D01*
X107026800Y40375251D01*
X105775950Y39124402D01*
X105753309Y39133803D01*
X104844279Y39134596D01*
X104004142Y38787458D01*
X103360801Y38145239D01*
X103012197Y37305709D01*
X103011404Y36396679D01*
X103358542Y35556542D01*
X104000761Y34913201D01*
X104840291Y34564597D01*
X105749321Y34563804D01*
X106589458Y34910942D01*
X107232799Y35553161D01*
X107581403Y36392691D01*
X107582196Y37301721D01*
X107571429Y37327778D01*
X109194823Y38951172D01*
X109194826Y38951174D01*
X109470127Y39363192D01*
X109488668Y39456404D01*
X109566801Y39849200D01*
X109566800Y39849205D01*
X109566800Y54739335D01*
X110535049Y53769394D01*
X111870582Y53214832D01*
X113316674Y53213570D01*
X114653172Y53765800D01*
X115676606Y54787449D01*
X116026800Y55630809D01*
X116026800Y41975251D01*
X106058588Y32007040D01*
X105753309Y32133803D01*
X104844279Y32134596D01*
X104004142Y31787458D01*
X103360801Y31145239D01*
X103012197Y30305709D01*
X103011404Y29396679D01*
X103358542Y28556542D01*
X104000761Y27913201D01*
X104840291Y27564597D01*
X105749321Y27563804D01*
X106589458Y27910942D01*
X107232799Y28553161D01*
X107581403Y29392691D01*
X107581879Y29938227D01*
X118194823Y40551172D01*
X118194826Y40551174D01*
X118470127Y40963192D01*
X118566800Y41449200D01*
X118566800Y64199200D01*
X118470127Y64685208D01*
X118194826Y65097226D01*
X118194823Y65097228D01*
X102450226Y80841826D01*
X102274222Y81267789D01*
X101867530Y81675191D01*
X101335889Y81895948D01*
X100760237Y81896450D01*
X100228211Y81676622D01*
X99820809Y81269930D01*
X99600052Y80738289D01*
X99599550Y80162637D01*
X99819378Y79630611D01*
X100226070Y79223209D01*
X100654738Y79045210D01*
X103980748Y75719200D01*
X101761545Y75719200D01*
X101335889Y75895948D01*
X100760237Y75896450D01*
X100228211Y75676622D01*
X99820809Y75269930D01*
X99600052Y74738289D01*
X99599550Y74162637D01*
X99819378Y73630611D01*
X100226070Y73223209D01*
X100757711Y73002452D01*
X101333363Y73001950D01*
X101762342Y73179200D01*
X103770748Y73179200D01*
X107026800Y69923149D01*
X107026800Y45350480D01*
X106592839Y45785199D01*
X105753309Y46133803D01*
X104844279Y46134596D01*
X104004142Y45787458D01*
X103360801Y45145239D01*
X103349989Y45119200D01*
X91946805Y45119200D01*
X91946800Y45119201D01*
X91460792Y45022527D01*
X91048774Y44747226D01*
X91048772Y44747223D01*
X89861982Y43560433D01*
X89556497Y43434210D01*
X89163171Y43041570D01*
X88950043Y42528300D01*
X88949558Y41972539D01*
X87139907Y41972539D01*
X86643992Y42468454D01*
X86644042Y42525861D01*
X86516800Y42833811D01*
X86516800Y50500486D01*
X86541319Y50463791D01*
X87039309Y50131045D01*
X87626728Y50014200D01*
X87686872Y50014200D01*
X88274291Y50131045D01*
X88694826Y50412037D01*
X88832710Y50197759D01*
X89044910Y50052769D01*
X89296800Y50001760D01*
X91096800Y50001760D01*
X91332117Y50046038D01*
X91548241Y50185110D01*
X91693231Y50397310D01*
X91744240Y50649200D01*
X91744240Y52449200D01*
X91699962Y52684517D01*
X91560890Y52900641D01*
X91348690Y53045631D01*
X91096800Y53096640D01*
X89296800Y53096640D01*
X89061483Y53052362D01*
X88926800Y52965696D01*
X88926800Y55783148D01*
X100322851Y67179200D01*
X100332055Y67179200D01*
X100757711Y67002452D01*
X101333363Y67001950D01*
X101865389Y67221778D01*
X102272791Y67628470D01*
X102493548Y68160111D01*
X102494050Y68735763D01*
X102274222Y69267789D01*
X101867530Y69675191D01*
X101335889Y69895948D01*
X100760237Y69896450D01*
X100331258Y69719200D01*
X99796805Y69719200D01*
X99796800Y69719201D01*
X99310792Y69622527D01*
X98898774Y69347226D01*
X98898772Y69347223D01*
X86758774Y57207226D01*
X86483473Y56795208D01*
X86386799Y56309200D01*
X86386800Y56309195D01*
X86386800Y52403355D01*
X86232281Y52634609D01*
X85734291Y52967355D01*
X85146872Y53084200D01*
X85086728Y53084200D01*
X84499309Y52967355D01*
X84001319Y52634609D01*
X83668573Y52136619D01*
X83551728Y51549200D01*
X71595040Y51549200D01*
X71595040Y56649220D01*
X71550762Y56884537D01*
X71411690Y57100661D01*
X71199490Y57245651D01*
X70947600Y57296660D01*
X70640260Y57296660D01*
X70640260Y60910268D01*
X70787400Y60881000D01*
X78610600Y60881000D01*
X79048007Y60968006D01*
X79418823Y61215777D01*
X93605023Y75401977D01*
X93852794Y75772793D01*
X93939800Y76210200D01*
X93939800Y84026737D01*
X94393893Y84480039D01*
X94681472Y85172605D01*
X94682126Y85922505D01*
X94395757Y86615572D01*
X93865961Y87146293D01*
X93429208Y87327649D01*
X111183016Y87327649D01*
X111538884Y87054447D01*
X112785497Y87016809D01*
X112974716Y87054447D01*
X113330584Y87327649D01*
X112256800Y88401433D01*
X111183016Y87327649D01*
X93429208Y87327649D01*
X93173395Y87433872D01*
X92423495Y87434526D01*
X91730428Y87148157D01*
X91199707Y86618361D01*
X90912128Y85925795D01*
X90911474Y85175895D01*
X91197843Y84482828D01*
X91653800Y84026075D01*
X91653800Y76683646D01*
X78575574Y63605420D01*
X78603840Y63745000D01*
X78603840Y66145000D01*
X78559562Y66380317D01*
X78420490Y66596441D01*
X78208290Y66741431D01*
X77956400Y66792440D01*
X77899400Y66792440D01*
X77899400Y72011400D01*
X77812394Y72448807D01*
X77564623Y72819623D01*
X75704758Y74679488D01*
X75704848Y74782387D01*
X75486843Y75310000D01*
X75412600Y75384373D01*
X75412600Y85476400D01*
X75325594Y85913807D01*
X75077823Y86284623D01*
X73494240Y87868206D01*
X73494240Y88499200D01*
X73449962Y88734517D01*
X73310890Y88950641D01*
X73189800Y89033378D01*
X73189800Y89199200D01*
X73102794Y89636607D01*
X72855023Y90007423D01*
X72105023Y90757423D01*
X71734207Y91005194D01*
X71296800Y91092200D01*
X63296800Y91092200D01*
X62859393Y91005194D01*
X62488577Y90757423D01*
X50153354Y78422200D01*
X34971623Y78422200D01*
X34844341Y78612691D01*
X34689800Y78715952D01*
X34689800Y79101760D01*
X34746800Y79101760D01*
X34982117Y79146038D01*
X35198241Y79285110D01*
X35343231Y79497310D01*
X35394240Y79749200D01*
X35394240Y82149200D01*
X35349962Y82384517D01*
X35210890Y82600641D01*
X34998690Y82745631D01*
X34746800Y82796640D01*
X32346800Y82796640D01*
X32111483Y82752362D01*
X31895359Y82613290D01*
X31750369Y82401090D01*
X31699360Y82149200D01*
X31699360Y79749200D01*
X31743638Y79513883D01*
X31882710Y79297759D01*
X32094910Y79152769D01*
X32346800Y79101760D01*
X32403800Y79101760D01*
X32403800Y78715952D01*
X32249259Y78612691D01*
X31851481Y78017374D01*
X31711800Y77315150D01*
X31711800Y77243250D01*
X31851481Y76541026D01*
X32249259Y75945709D01*
X32844576Y75547931D01*
X33546800Y75408250D01*
X34249024Y75547931D01*
X34463822Y75691455D01*
X54218661Y75691455D01*
X54292795Y75445336D01*
X54830023Y75252235D01*
X55400254Y75279422D01*
X55800805Y75445336D01*
X55874939Y75691455D01*
X55046800Y76519595D01*
X54218661Y75691455D01*
X34463822Y75691455D01*
X34844341Y75945709D01*
X34971623Y76136200D01*
X50626800Y76136200D01*
X51064207Y76223206D01*
X51435023Y76470977D01*
X51880023Y76915977D01*
X53599835Y76915977D01*
X53627022Y76345746D01*
X53792936Y75945195D01*
X54039055Y75871061D01*
X54867195Y76699200D01*
X54039055Y77527339D01*
X53792936Y77453205D01*
X53599835Y76915977D01*
X51880023Y76915977D01*
X52670991Y77706945D01*
X54218661Y77706945D01*
X55046800Y76878805D01*
X55874939Y77706945D01*
X55800805Y77953064D01*
X55263577Y78146165D01*
X54693346Y78118978D01*
X54292795Y77953064D01*
X54218661Y77706945D01*
X52670991Y77706945D01*
X62552287Y87588241D01*
X63654886Y87588241D01*
X63776171Y87366200D01*
X64919800Y87366200D01*
X64919800Y88509115D01*
X65173800Y88509115D01*
X65173800Y87366200D01*
X66317429Y87366200D01*
X66438714Y87588241D01*
X66283603Y87915977D01*
X68099835Y87915977D01*
X68127022Y87345746D01*
X68292936Y86945195D01*
X68539055Y86871061D01*
X69367195Y87699200D01*
X68539055Y88527339D01*
X68292936Y88453205D01*
X68099835Y87915977D01*
X66283603Y87915977D01*
X66199189Y88094334D01*
X65784223Y88470241D01*
X65395839Y88631104D01*
X65173800Y88509115D01*
X64919800Y88509115D01*
X64697761Y88631104D01*
X64309377Y88470241D01*
X63894411Y88094334D01*
X63654886Y87588241D01*
X62552287Y87588241D01*
X63770246Y88806200D01*
X68748558Y88806200D01*
X68718661Y88706945D01*
X69546800Y87878805D01*
X70374939Y88706945D01*
X70345042Y88806200D01*
X70688024Y88806200D01*
X70650369Y88751090D01*
X70602154Y88512999D01*
X70554545Y88527339D01*
X69726405Y87699200D01*
X70554545Y86871061D01*
X70601967Y86885345D01*
X70643638Y86663883D01*
X70782710Y86447759D01*
X70994910Y86302769D01*
X71246800Y86251760D01*
X71877794Y86251760D01*
X73126600Y85002954D01*
X73126600Y75384820D01*
X73053776Y75312123D01*
X72997355Y75176246D01*
X72872600Y75362955D01*
X72872600Y78016400D01*
X72785594Y78453807D01*
X72537823Y78824623D01*
X66481958Y84880488D01*
X66482048Y84983387D01*
X66264043Y85511000D01*
X65860723Y85915024D01*
X65710232Y85977513D01*
X65784223Y86008159D01*
X66199189Y86384066D01*
X66344670Y86691455D01*
X68718661Y86691455D01*
X68792795Y86445336D01*
X69330023Y86252235D01*
X69900254Y86279422D01*
X70300805Y86445336D01*
X70374939Y86691455D01*
X69546800Y87519595D01*
X68718661Y86691455D01*
X66344670Y86691455D01*
X66438714Y86890159D01*
X66317429Y87112200D01*
X65173800Y87112200D01*
X65173800Y87092200D01*
X64919800Y87092200D01*
X64919800Y87112200D01*
X63776171Y87112200D01*
X63654886Y86890159D01*
X63894411Y86384066D01*
X64309377Y86008159D01*
X64383085Y85977630D01*
X64235000Y85916443D01*
X63830976Y85513123D01*
X63612050Y84985891D01*
X63611958Y84880804D01*
X60118577Y81387423D01*
X59870806Y81016607D01*
X59783800Y80579200D01*
X59783800Y73433955D01*
X59572920Y73118351D01*
X59475860Y72630398D01*
X59466800Y72632200D01*
X58689800Y72632200D01*
X58689800Y75365330D01*
X58798241Y75435110D01*
X58943231Y75647310D01*
X58994240Y75899200D01*
X58994240Y77499200D01*
X58949962Y77734517D01*
X58810890Y77950641D01*
X58598690Y78095631D01*
X58346800Y78146640D01*
X56746800Y78146640D01*
X56511483Y78102362D01*
X56295359Y77963290D01*
X56150369Y77751090D01*
X56102154Y77512999D01*
X56054545Y77527339D01*
X55226405Y76699200D01*
X56054545Y75871061D01*
X56101967Y75885345D01*
X56143638Y75663883D01*
X56282710Y75447759D01*
X56403800Y75365022D01*
X56403800Y72339994D01*
X56221033Y72066464D01*
X56111800Y71517313D01*
X56111800Y71461087D01*
X56221033Y70911936D01*
X56532102Y70446389D01*
X56868510Y70221608D01*
X56735000Y70166443D01*
X56330976Y69763123D01*
X56112050Y69235891D01*
X56111958Y69130804D01*
X54198577Y67217423D01*
X53950806Y66846607D01*
X53863800Y66409200D01*
X53863800Y65813955D01*
X53652920Y65498351D01*
X53543687Y64949200D01*
X53652920Y64400049D01*
X53863800Y64084445D01*
X53863800Y63520646D01*
X49627023Y67757423D01*
X49256207Y68005194D01*
X48818800Y68092200D01*
X34630670Y68092200D01*
X34560890Y68200641D01*
X34348690Y68345631D01*
X34096800Y68396640D01*
X32496800Y68396640D01*
X32261483Y68352362D01*
X32045359Y68213290D01*
X31900369Y68001090D01*
X31852154Y67762999D01*
X31804545Y67777339D01*
X30976405Y66949200D01*
X31804545Y66121061D01*
X31851967Y66135345D01*
X31893638Y65913883D01*
X32032710Y65697759D01*
X32153800Y65615022D01*
X32153800Y62902200D01*
X26750246Y62902200D01*
X23710991Y65941455D01*
X29968661Y65941455D01*
X30042795Y65695336D01*
X30580023Y65502235D01*
X31150254Y65529422D01*
X31550805Y65695336D01*
X31624939Y65941455D01*
X30796800Y66769595D01*
X29968661Y65941455D01*
X23710991Y65941455D01*
X23511840Y66140606D01*
X23440680Y66498351D01*
X23129611Y66963898D01*
X22827179Y67165977D01*
X29349835Y67165977D01*
X29377022Y66595746D01*
X29542936Y66195195D01*
X29789055Y66121061D01*
X30617195Y66949200D01*
X29789055Y67777339D01*
X29542936Y67703205D01*
X29349835Y67165977D01*
X22827179Y67165977D01*
X22664064Y67274967D01*
X22114913Y67384200D01*
X22058687Y67384200D01*
X21509536Y67274967D01*
X21043989Y66963898D01*
X20819208Y66627490D01*
X20764043Y66761000D01*
X20360723Y67165024D01*
X19833491Y67383950D01*
X19262613Y67384448D01*
X18735000Y67166443D01*
X18330976Y66763123D01*
X18112050Y66235891D01*
X18111552Y65665013D01*
X18329557Y65137400D01*
X18403800Y65063027D01*
X18403800Y61950896D01*
X18345359Y61913290D01*
X18200369Y61701090D01*
X18149360Y61449200D01*
X18149360Y60449200D01*
X18193638Y60213883D01*
X18332710Y59997759D01*
X18403800Y59949185D01*
X18403800Y52962200D01*
X17482087Y52962200D01*
X17307682Y53078733D01*
X17125488Y53114974D01*
X17490788Y53359058D01*
X17780179Y53792164D01*
X17881800Y54303046D01*
X17881800Y54355354D01*
X17780179Y54866236D01*
X17490788Y55299342D01*
X17057682Y55588733D01*
X16546800Y55690354D01*
X16035918Y55588733D01*
X15981242Y55552200D01*
X15017594Y55552200D01*
X14827525Y55679200D01*
X15209611Y55934502D01*
X15520680Y56400049D01*
X15629913Y56949200D01*
X15520680Y57498351D01*
X15309800Y57813955D01*
X15309800Y59829200D01*
X15222794Y60266607D01*
X14975023Y60637423D01*
X14598521Y61013925D01*
X15791131Y61013925D01*
X15852969Y60778158D01*
X16353922Y60601781D01*
X16884240Y60630536D01*
X17240631Y60778158D01*
X17302469Y61013925D01*
X16546800Y61769595D01*
X15791131Y61013925D01*
X14598521Y61013925D01*
X13470368Y62142078D01*
X15199381Y62142078D01*
X15228136Y61611760D01*
X15375758Y61255369D01*
X15611525Y61193531D01*
X16367195Y61949200D01*
X16726405Y61949200D01*
X17482075Y61193531D01*
X17717842Y61255369D01*
X17894219Y61756322D01*
X17865464Y62286640D01*
X17717842Y62643031D01*
X17482075Y62704869D01*
X16726405Y61949200D01*
X16367195Y61949200D01*
X15611525Y62704869D01*
X15375758Y62643031D01*
X15199381Y62142078D01*
X13470368Y62142078D01*
X12981958Y62630488D01*
X12982048Y62733387D01*
X12921191Y62880671D01*
X12940314Y62884475D01*
X15791131Y62884475D01*
X16546800Y62128805D01*
X17302469Y62884475D01*
X17240631Y63120242D01*
X16739678Y63296619D01*
X16209360Y63267864D01*
X15852969Y63120242D01*
X15791131Y62884475D01*
X12940314Y62884475D01*
X12984207Y62893206D01*
X13355023Y63140977D01*
X13602794Y63511793D01*
X13689800Y63949200D01*
X13602794Y64386607D01*
X13355023Y64757423D01*
X12984207Y65005194D01*
X12546800Y65092200D01*
X11046800Y65092200D01*
X10609393Y65005194D01*
X10238577Y64757423D01*
X9990806Y64386607D01*
X9903800Y63949200D01*
X9917086Y63882407D01*
X9846800Y63896640D01*
X8246800Y63896640D01*
X8011483Y63852362D01*
X7795359Y63713290D01*
X7650369Y63501090D01*
X7599360Y63249200D01*
X7599360Y62618206D01*
X5738577Y60757423D01*
X5490806Y60386607D01*
X5439800Y60130184D01*
X5439800Y67956945D01*
X29968661Y67956945D01*
X30796800Y67128805D01*
X31624939Y67956945D01*
X31550805Y68203064D01*
X31013577Y68396165D01*
X30443346Y68368978D01*
X30042795Y68203064D01*
X29968661Y67956945D01*
X5439800Y67956945D01*
X5439800Y75869041D01*
X15646246Y75869041D01*
X15732652Y75612557D01*
X16306136Y75402742D01*
X16916260Y75428361D01*
X17108472Y75507978D01*
X16912311Y75035569D01*
X16911292Y73867954D01*
X17357177Y72788828D01*
X18182085Y71962479D01*
X19260431Y71514711D01*
X20428046Y71513692D01*
X21507172Y71959577D01*
X22333521Y72784485D01*
X22588772Y73399200D01*
X31699360Y73399200D01*
X31699360Y70999200D01*
X31743638Y70763883D01*
X31882710Y70547759D01*
X32094910Y70402769D01*
X32346800Y70351760D01*
X34746800Y70351760D01*
X34982117Y70396038D01*
X35198241Y70535110D01*
X35343231Y70747310D01*
X35394240Y70999200D01*
X35394240Y73399200D01*
X35349962Y73634517D01*
X35210890Y73850641D01*
X34998690Y73995631D01*
X34746800Y74046640D01*
X32346800Y74046640D01*
X32111483Y74002362D01*
X31895359Y73863290D01*
X31750369Y73651090D01*
X31699360Y73399200D01*
X22588772Y73399200D01*
X22781289Y73862831D01*
X22782308Y75030446D01*
X22336423Y76109572D01*
X21511515Y76935921D01*
X20433169Y77383689D01*
X19265554Y77384708D01*
X18186428Y76938823D01*
X18087726Y76840293D01*
X18067639Y77318660D01*
X17883443Y77763348D01*
X17626959Y77849754D01*
X16726405Y76949200D01*
X16740548Y76935057D01*
X16560943Y76755452D01*
X16546800Y76769595D01*
X15646246Y75869041D01*
X5439800Y75869041D01*
X5439800Y77189864D01*
X15000342Y77189864D01*
X15025961Y76579740D01*
X15210157Y76135052D01*
X15466641Y76048646D01*
X16367195Y76949200D01*
X15466641Y77849754D01*
X15210157Y77763348D01*
X15000342Y77189864D01*
X5439800Y77189864D01*
X5439800Y91475754D01*
X6062885Y92098839D01*
X6011800Y91975509D01*
X6011800Y91234950D01*
X6170550Y91076200D01*
X7419800Y91076200D01*
X7419800Y92325450D01*
X7261050Y92484200D01*
X6520490Y92484200D01*
X6397162Y92433116D01*
X8770246Y94806200D01*
X11579954Y94806200D01*
X9120777Y92347023D01*
X9001719Y92168840D01*
X8985127Y92208898D01*
X8806499Y92387527D01*
X8573110Y92484200D01*
X7832550Y92484200D01*
X7673800Y92325450D01*
X7673800Y91076200D01*
X7693800Y91076200D01*
X7693800Y90822200D01*
X7673800Y90822200D01*
X7673800Y90802200D01*
X7419800Y90802200D01*
X7419800Y90822200D01*
X6170550Y90822200D01*
X6011800Y90663450D01*
X6011800Y89922891D01*
X6108473Y89689502D01*
X6287101Y89510873D01*
X6421794Y89455081D01*
X6246249Y89279843D01*
X6012067Y88715870D01*
X6011535Y88105209D01*
X6244732Y87540829D01*
X6676157Y87108649D01*
X7240130Y86874467D01*
X7850791Y86873935D01*
X8415171Y87107132D01*
X8574517Y87266200D01*
X9898200Y87266200D01*
X10335607Y87353206D01*
X10706423Y87600977D01*
X10737223Y87631777D01*
X10984994Y88002593D01*
X11072000Y88440000D01*
X11072000Y91065354D01*
X13374246Y93367600D01*
X14237025Y93367600D01*
X14153800Y92949200D01*
X14153800Y82449200D01*
X14240806Y82011793D01*
X14488577Y81640977D01*
X14988577Y81140977D01*
X15359393Y80893206D01*
X15450023Y80875178D01*
X15625982Y80698912D01*
X15246249Y80319843D01*
X15012067Y79755870D01*
X15011535Y79145209D01*
X15244732Y78580829D01*
X15676157Y78148649D01*
X15685172Y78144906D01*
X15646246Y78029359D01*
X16546800Y77128805D01*
X17447354Y78029359D01*
X17408593Y78144414D01*
X17415171Y78147132D01*
X17847351Y78578557D01*
X18081533Y79142530D01*
X18082065Y79753191D01*
X17848868Y80317571D01*
X17467618Y80699488D01*
X17847351Y81078557D01*
X18081533Y81642530D01*
X18081899Y82062840D01*
X18182085Y81962479D01*
X19260431Y81514711D01*
X20428046Y81513692D01*
X21507172Y81959577D01*
X22333521Y82784485D01*
X22484963Y83149200D01*
X37449360Y83149200D01*
X37449360Y80749200D01*
X37493638Y80513883D01*
X37632710Y80297759D01*
X37844910Y80152769D01*
X38096800Y80101760D01*
X39586998Y80101760D01*
X39779393Y79973206D01*
X40216800Y79886200D01*
X40654207Y79973206D01*
X41025023Y80220977D01*
X41214045Y80503869D01*
X41499393Y80313206D01*
X41936800Y80226200D01*
X42374207Y80313206D01*
X42745023Y80560977D01*
X49511695Y87327649D01*
X56183016Y87327649D01*
X56538884Y87054447D01*
X57785497Y87016809D01*
X57974716Y87054447D01*
X58330584Y87327649D01*
X57256800Y88401433D01*
X56183016Y87327649D01*
X49511695Y87327649D01*
X51824549Y89640503D01*
X54104409Y89640503D01*
X54142047Y89451284D01*
X54415249Y89095416D01*
X55489033Y90169200D01*
X59024567Y90169200D01*
X60098351Y89095416D01*
X60371553Y89451284D01*
X60409191Y90697897D01*
X60371553Y90887116D01*
X60098351Y91242984D01*
X59024567Y90169200D01*
X55489033Y90169200D01*
X54415249Y91242984D01*
X54142047Y90887116D01*
X54104409Y89640503D01*
X51824549Y89640503D01*
X55030246Y92846200D01*
X56347567Y92846200D01*
X57256800Y91936967D01*
X58166033Y92846200D01*
X76883354Y92846200D01*
X83912034Y85817520D01*
X83911474Y85175895D01*
X84197843Y84482828D01*
X84727639Y83952107D01*
X85420205Y83664528D01*
X86170105Y83663874D01*
X86863172Y83950243D01*
X87393893Y84480039D01*
X87681472Y85172605D01*
X87682126Y85922505D01*
X87395757Y86615572D01*
X86865961Y87146293D01*
X86173395Y87433872D01*
X85528011Y87434435D01*
X83321943Y89640503D01*
X109104409Y89640503D01*
X109142047Y89451284D01*
X109415249Y89095416D01*
X110489033Y90169200D01*
X114024567Y90169200D01*
X115098351Y89095416D01*
X115371553Y89451284D01*
X115409191Y90697897D01*
X115371553Y90887116D01*
X115098351Y91242984D01*
X114024567Y90169200D01*
X110489033Y90169200D01*
X109415249Y91242984D01*
X109142047Y90887116D01*
X109104409Y89640503D01*
X83321943Y89640503D01*
X79951695Y93010751D01*
X111183016Y93010751D01*
X112256800Y91936967D01*
X113330584Y93010751D01*
X112974716Y93283953D01*
X111728103Y93321591D01*
X111538884Y93283953D01*
X111183016Y93010751D01*
X79951695Y93010751D01*
X78165023Y94797423D01*
X77794207Y95045194D01*
X77356800Y95132200D01*
X54556800Y95132200D01*
X54119393Y95045194D01*
X53748577Y94797423D01*
X53435325Y94484171D01*
X53418656Y94934660D01*
X53216187Y95423464D01*
X52949332Y95522127D01*
X51976405Y94549200D01*
X51990548Y94535057D01*
X51810943Y94355452D01*
X51796800Y94369595D01*
X50823873Y93396668D01*
X50922536Y93129813D01*
X51532261Y92903292D01*
X51866826Y92915672D01*
X41144240Y82193086D01*
X41144240Y83149200D01*
X41099962Y83384517D01*
X40960890Y83600641D01*
X40748690Y83745631D01*
X40496800Y83796640D01*
X38096800Y83796640D01*
X37861483Y83752362D01*
X37645359Y83613290D01*
X37500369Y83401090D01*
X37449360Y83149200D01*
X22484963Y83149200D01*
X22781289Y83862831D01*
X22782308Y85030446D01*
X22336423Y86109572D01*
X21511515Y86935921D01*
X20433169Y87383689D01*
X19265554Y87384708D01*
X18186428Y86938823D01*
X17360079Y86113915D01*
X16912311Y85035569D01*
X16911292Y83867954D01*
X17114803Y83375418D01*
X16853470Y83483933D01*
X16439800Y83484293D01*
X16439800Y92949200D01*
X16356575Y93367600D01*
X27311754Y93367600D01*
X29538377Y91140977D01*
X29909193Y90893206D01*
X30075217Y90860182D01*
X30429536Y90623433D01*
X30978687Y90514200D01*
X31034913Y90514200D01*
X31584064Y90623433D01*
X32049611Y90934502D01*
X32274392Y91270910D01*
X32329557Y91137400D01*
X32403800Y91063027D01*
X32403800Y87465952D01*
X32249259Y87362691D01*
X31851481Y86767374D01*
X31711800Y86065150D01*
X31711800Y85993250D01*
X31851481Y85291026D01*
X32249259Y84695709D01*
X32844576Y84297931D01*
X33546800Y84158250D01*
X34249024Y84297931D01*
X34844341Y84695709D01*
X35242119Y85291026D01*
X35381800Y85993250D01*
X35381800Y86065150D01*
X35242119Y86767374D01*
X34844341Y87362691D01*
X34689800Y87465952D01*
X34689800Y90806200D01*
X35906006Y90806200D01*
X36179536Y90623433D01*
X36728687Y90514200D01*
X36784913Y90514200D01*
X37334064Y90623433D01*
X37799611Y90934502D01*
X38024392Y91270910D01*
X38079557Y91137400D01*
X38153800Y91063027D01*
X38153800Y88465952D01*
X37999259Y88362691D01*
X37601481Y87767374D01*
X37461800Y87065150D01*
X37461800Y86993250D01*
X37601481Y86291026D01*
X37999259Y85695709D01*
X38594576Y85297931D01*
X39296800Y85158250D01*
X39999024Y85297931D01*
X40594341Y85695709D01*
X40992119Y86291026D01*
X41131800Y86993250D01*
X41131800Y87065150D01*
X40992119Y87767374D01*
X40594341Y88362691D01*
X40439800Y88465952D01*
X40439800Y91062580D01*
X40512624Y91135277D01*
X40731550Y91662509D01*
X40732048Y92233387D01*
X40514043Y92761000D01*
X40439800Y92835373D01*
X40439800Y93949200D01*
X40384860Y94225405D01*
X46661516Y94225405D01*
X46909906Y93624257D01*
X47369437Y93163922D01*
X47970152Y92914484D01*
X48620595Y92913916D01*
X49221743Y93162306D01*
X49682078Y93621837D01*
X49931516Y94222552D01*
X49932032Y94813739D01*
X50150892Y94813739D01*
X50174944Y94163740D01*
X50377413Y93674936D01*
X50644268Y93576273D01*
X51617195Y94549200D01*
X50644268Y95522127D01*
X50377413Y95423464D01*
X50150892Y94813739D01*
X49932032Y94813739D01*
X49932084Y94872995D01*
X49683694Y95474143D01*
X49456503Y95701732D01*
X50823873Y95701732D01*
X51796800Y94728805D01*
X52769727Y95701732D01*
X52671064Y95968587D01*
X52061339Y96195108D01*
X51411340Y96171056D01*
X50922536Y95968587D01*
X50823873Y95701732D01*
X49456503Y95701732D01*
X49224163Y95934478D01*
X48623448Y96183916D01*
X47973005Y96184484D01*
X47371857Y95936094D01*
X46911522Y95476563D01*
X46662084Y94875848D01*
X46661516Y94225405D01*
X40384860Y94225405D01*
X40352794Y94386607D01*
X40105023Y94757423D01*
X38105023Y96757423D01*
X37734207Y97005194D01*
X37296800Y97092200D01*
X8296800Y97092200D01*
X7859393Y97005194D01*
X7488577Y96757423D01*
X3488577Y92757423D01*
X3240806Y92386607D01*
X3153800Y91949200D01*
X78880Y91949200D01*
X78880Y98422200D01*
X120312320Y98422200D01*
X120312320Y86100D01*
X120312320Y86100D01*
G37*
X120312320Y86100D02*
X78880Y86100D01*
X78880Y2796668D01*
X32073873Y2796668D01*
X32172536Y2529813D01*
X32782261Y2303292D01*
X33432260Y2327344D01*
X33921064Y2529813D01*
X34019727Y2796668D01*
X33046800Y3769595D01*
X32073873Y2796668D01*
X78880Y2796668D01*
X78880Y4046668D01*
X14573873Y4046668D01*
X14672536Y3779813D01*
X15282261Y3553292D01*
X15932260Y3577344D01*
X16421064Y3779813D01*
X16519727Y4046668D01*
X15546800Y5019595D01*
X14573873Y4046668D01*
X78880Y4046668D01*
X78880Y5463739D01*
X13900892Y5463739D01*
X13924944Y4813740D01*
X14127413Y4324936D01*
X14394268Y4226273D01*
X15367195Y5199200D01*
X15726405Y5199200D01*
X16699332Y4226273D01*
X16966187Y4324936D01*
X17192708Y4934661D01*
X17168656Y5584660D01*
X16966187Y6073464D01*
X16699332Y6172127D01*
X15726405Y5199200D01*
X15367195Y5199200D01*
X14394268Y6172127D01*
X14127413Y6073464D01*
X13900892Y5463739D01*
X78880Y5463739D01*
X78880Y6351732D01*
X14573873Y6351732D01*
X15546800Y5378805D01*
X16519727Y6351732D01*
X16421064Y6618587D01*
X15811339Y6845108D01*
X15161340Y6821056D01*
X14672536Y6618587D01*
X14573873Y6351732D01*
X78880Y6351732D01*
X78880Y77949200D01*
X403800Y77949200D01*
X403800Y56949200D01*
X490806Y56511793D01*
X738577Y56140977D01*
X1109393Y55893206D01*
X1546800Y55806200D01*
X1984207Y55893206D01*
X2355023Y56140977D01*
X2602794Y56511793D01*
X2689800Y56949200D01*
X2689800Y77949200D01*
X2602794Y78386607D01*
X2355023Y78757423D01*
X1984207Y79005194D01*
X1546800Y79092200D01*
X1109393Y79005194D01*
X738577Y78757423D01*
X490806Y78386607D01*
X403800Y77949200D01*
X78880Y77949200D01*
X78880Y91949200D01*
X3153800Y91949200D01*
X3153800Y22449200D01*
X3240806Y22011793D01*
X3488577Y21640977D01*
X3859393Y21393206D01*
X4296800Y21306200D01*
X4734207Y21393206D01*
X5105023Y21640977D01*
X5352794Y22011793D01*
X5439800Y22449200D01*
X5439800Y44968334D01*
X5570491Y44914200D01*
X6161050Y44914200D01*
X6319800Y45072950D01*
X6319800Y46072200D01*
X6299800Y46072200D01*
X6299800Y46326200D01*
X6319800Y46326200D01*
X6319800Y47325450D01*
X6161050Y47484200D01*
X5570491Y47484200D01*
X5439800Y47430066D01*
X5439800Y48454847D01*
X5691666Y48176811D01*
X6197759Y47937286D01*
X6419800Y48058571D01*
X6419800Y49202200D01*
X6673800Y49202200D01*
X6673800Y48058571D01*
X6895841Y47937286D01*
X7401934Y48176811D01*
X7777841Y48591777D01*
X7938704Y48980161D01*
X7816715Y49202200D01*
X6673800Y49202200D01*
X6419800Y49202200D01*
X6399800Y49202200D01*
X6399800Y49456200D01*
X6419800Y49456200D01*
X6419800Y51742200D01*
X6673800Y51742200D01*
X6673800Y49456200D01*
X7816715Y49456200D01*
X7938704Y49678239D01*
X7777841Y50066623D01*
X7401934Y50481589D01*
X7153433Y50599200D01*
X7401934Y50716811D01*
X7777841Y51131777D01*
X7938704Y51520161D01*
X7816715Y51742200D01*
X6673800Y51742200D01*
X6419800Y51742200D01*
X6399800Y51742200D01*
X6399800Y51996200D01*
X6419800Y51996200D01*
X6419800Y52016200D01*
X6673800Y52016200D01*
X6673800Y51996200D01*
X7816715Y51996200D01*
X7938704Y52218239D01*
X7777841Y52606623D01*
X7401934Y53021589D01*
X7185097Y53124214D01*
X7589611Y53394502D01*
X7900680Y53860049D01*
X8009913Y54409200D01*
X7900680Y54958351D01*
X7589611Y55423898D01*
X7445335Y55520301D01*
X7582117Y55546038D01*
X7798241Y55685110D01*
X7943231Y55897310D01*
X7994240Y56149200D01*
X7994240Y57749200D01*
X7949962Y57984517D01*
X7810890Y58200641D01*
X7689800Y58283378D01*
X7689800Y59475754D01*
X9215806Y61001760D01*
X9846800Y61001760D01*
X10082117Y61046038D01*
X10298241Y61185110D01*
X10443231Y61397310D01*
X10464480Y61502241D01*
X10732877Y61233376D01*
X11260109Y61014450D01*
X11365196Y61014358D01*
X13023800Y59355754D01*
X13023800Y57813955D01*
X12812920Y57498351D01*
X12703687Y56949200D01*
X12812920Y56400049D01*
X13123989Y55934502D01*
X13506075Y55679200D01*
X13123989Y55423898D01*
X12812920Y54958351D01*
X12703687Y54409200D01*
X12812920Y53860049D01*
X13123989Y53394502D01*
X13506075Y53139200D01*
X13123989Y52883898D01*
X12812920Y52418351D01*
X12703687Y51869200D01*
X12812920Y51320049D01*
X13123989Y50854502D01*
X13506075Y50599200D01*
X13123989Y50343898D01*
X12812920Y49878351D01*
X12703687Y49329200D01*
X12812920Y48780049D01*
X13023800Y48464445D01*
X13023800Y47255578D01*
X13010890Y47275641D01*
X12798690Y47420631D01*
X12546800Y47471640D01*
X11046800Y47471640D01*
X10811483Y47427362D01*
X10679138Y47342200D01*
X10300066Y47342200D01*
X10148690Y47445631D01*
X9896800Y47496640D01*
X8396800Y47496640D01*
X8161483Y47452362D01*
X7945359Y47313290D01*
X7800369Y47101090D01*
X7793609Y47067710D01*
X7735127Y47208899D01*
X7556498Y47387527D01*
X7323109Y47484200D01*
X6732550Y47484200D01*
X6573800Y47325450D01*
X6573800Y46326200D01*
X6593800Y46326200D01*
X6593800Y46072200D01*
X6573800Y46072200D01*
X6573800Y45072950D01*
X6732550Y44914200D01*
X7323109Y44914200D01*
X7556498Y45010873D01*
X7735127Y45189501D01*
X7791454Y45325487D01*
X7793638Y45313883D01*
X7932710Y45097759D01*
X8144910Y44952769D01*
X8396800Y44901760D01*
X9896800Y44901760D01*
X10132117Y44946038D01*
X10303314Y45056200D01*
X10680122Y45056200D01*
X10794910Y44977769D01*
X11046800Y44926760D01*
X12546800Y44926760D01*
X12782117Y44971038D01*
X12998241Y45110110D01*
X13045934Y45179911D01*
X13082710Y45122759D01*
X13153800Y45074185D01*
X13153800Y38783070D01*
X13045359Y38713290D01*
X12900369Y38501090D01*
X12849360Y38249200D01*
X12849360Y36649200D01*
X12893638Y36413883D01*
X13032710Y36197759D01*
X13244910Y36052769D01*
X13496800Y36001760D01*
X15096800Y36001760D01*
X15332117Y36046038D01*
X15548241Y36185110D01*
X15693231Y36397310D01*
X15714480Y36502241D01*
X15982877Y36233376D01*
X16510109Y36014450D01*
X16865414Y36014140D01*
X17903800Y34975754D01*
X17903800Y6368418D01*
X17661522Y6126563D01*
X17412084Y5525848D01*
X17411516Y4875405D01*
X17659906Y4274257D01*
X18119437Y3813922D01*
X18720152Y3564484D01*
X19370595Y3563916D01*
X19971743Y3812306D01*
X20373878Y4213739D01*
X31400892Y4213739D01*
X31424944Y3563740D01*
X31627413Y3074936D01*
X31894268Y2976273D01*
X32867195Y3949200D01*
X33226405Y3949200D01*
X34199332Y2976273D01*
X34466187Y3074936D01*
X34670693Y3625405D01*
X34911516Y3625405D01*
X35159906Y3024257D01*
X35619437Y2563922D01*
X36220152Y2314484D01*
X36870595Y2313916D01*
X37471743Y2562306D01*
X37932078Y3021837D01*
X38181516Y3622552D01*
X38182084Y4272995D01*
X37933694Y4874143D01*
X37689800Y5118464D01*
X37689800Y9220659D01*
X37881568Y9682487D01*
X37882031Y10213583D01*
X37689800Y10678819D01*
X37689800Y13220659D01*
X37881568Y13682487D01*
X37882031Y14213583D01*
X37689800Y14678819D01*
X37689800Y19677275D01*
X37694240Y19699200D01*
X37694240Y20699200D01*
X37689800Y20722797D01*
X37689800Y22766272D01*
X37730429Y22806830D01*
X37943557Y23320100D01*
X37944042Y23875861D01*
X37731810Y24389503D01*
X37339170Y24782829D01*
X36825900Y24995957D01*
X36270139Y24996442D01*
X35756497Y24784210D01*
X35363171Y24391570D01*
X35150043Y23878300D01*
X35149558Y23322539D01*
X35361790Y22808897D01*
X35403800Y22766814D01*
X35403800Y20721125D01*
X35399360Y20699200D01*
X35399360Y19699200D01*
X35403800Y19675603D01*
X35403800Y14677741D01*
X35212032Y14215913D01*
X35211569Y13684817D01*
X35403800Y13219581D01*
X35403800Y10677741D01*
X35212032Y10215913D01*
X35211569Y9684817D01*
X35403800Y9219581D01*
X35403800Y5118418D01*
X35161522Y4876563D01*
X34912084Y4275848D01*
X34911516Y3625405D01*
X34670693Y3625405D01*
X34692708Y3684661D01*
X34668656Y4334660D01*
X34466187Y4823464D01*
X34199332Y4922127D01*
X33226405Y3949200D01*
X32867195Y3949200D01*
X31894268Y4922127D01*
X31627413Y4823464D01*
X31400892Y4213739D01*
X20373878Y4213739D01*
X20432078Y4271837D01*
X20681516Y4872552D01*
X20681716Y5101732D01*
X32073873Y5101732D01*
X33046800Y4128805D01*
X34019727Y5101732D01*
X33921064Y5368587D01*
X33311339Y5595108D01*
X32661340Y5571056D01*
X32172536Y5368587D01*
X32073873Y5101732D01*
X20681716Y5101732D01*
X20682084Y5522995D01*
X20433694Y6124143D01*
X20189800Y6368464D01*
X20189800Y9615871D01*
X27634084Y9615871D01*
X27777003Y9270804D01*
X28124137Y8882436D01*
X28593469Y8656473D01*
X28799800Y8778994D01*
X28799800Y9822200D01*
X29053800Y9822200D01*
X29053800Y8778994D01*
X29260131Y8656473D01*
X29729463Y8882436D01*
X30076597Y9270804D01*
X30219516Y9615871D01*
X30096174Y9822200D01*
X29053800Y9822200D01*
X28799800Y9822200D01*
X27757426Y9822200D01*
X27634084Y9615871D01*
X20189800Y9615871D01*
X20189800Y10282529D01*
X27634084Y10282529D01*
X27757426Y10076200D01*
X28799800Y10076200D01*
X28799800Y11119406D01*
X29053800Y11119406D01*
X29053800Y10076200D01*
X30096174Y10076200D01*
X30219516Y10282529D01*
X30076597Y10627596D01*
X29729463Y11015964D01*
X29260131Y11241927D01*
X29053800Y11119406D01*
X28799800Y11119406D01*
X28593469Y11241927D01*
X28124137Y11015964D01*
X27777003Y10627596D01*
X27634084Y10282529D01*
X20189800Y10282529D01*
X20189800Y13615871D01*
X27634084Y13615871D01*
X27777003Y13270804D01*
X28124137Y12882436D01*
X28593469Y12656473D01*
X28799800Y12778994D01*
X28799800Y13822200D01*
X29053800Y13822200D01*
X29053800Y12778994D01*
X29260131Y12656473D01*
X29729463Y12882436D01*
X30076597Y13270804D01*
X30219516Y13615871D01*
X30096174Y13822200D01*
X29053800Y13822200D01*
X28799800Y13822200D01*
X27757426Y13822200D01*
X27634084Y13615871D01*
X20189800Y13615871D01*
X20189800Y14282529D01*
X27634084Y14282529D01*
X27757426Y14076200D01*
X28799800Y14076200D01*
X28799800Y15119406D01*
X29053800Y15119406D01*
X29053800Y14076200D01*
X30096174Y14076200D01*
X30219516Y14282529D01*
X30076597Y14627596D01*
X29729463Y15015964D01*
X29260131Y15241927D01*
X29053800Y15119406D01*
X28799800Y15119406D01*
X28593469Y15241927D01*
X28124137Y15015964D01*
X27777003Y14627596D01*
X27634084Y14282529D01*
X20189800Y14282529D01*
X20189800Y19913450D01*
X32911800Y19913450D01*
X32911800Y19572890D01*
X33008473Y19339501D01*
X33187102Y19160873D01*
X33420491Y19064200D01*
X33761050Y19064200D01*
X33919800Y19222950D01*
X33919800Y20072200D01*
X34173800Y20072200D01*
X34173800Y19222950D01*
X34332550Y19064200D01*
X34673109Y19064200D01*
X34906498Y19160873D01*
X35085127Y19339501D01*
X35181800Y19572890D01*
X35181800Y19913450D01*
X35023050Y20072200D01*
X34173800Y20072200D01*
X33919800Y20072200D01*
X33070550Y20072200D01*
X32911800Y19913450D01*
X20189800Y19913450D01*
X20189800Y20825510D01*
X32911800Y20825510D01*
X32911800Y20484950D01*
X33070550Y20326200D01*
X33919800Y20326200D01*
X33919800Y21175450D01*
X34173800Y21175450D01*
X34173800Y20326200D01*
X35023050Y20326200D01*
X35181800Y20484950D01*
X35181800Y20825510D01*
X35085127Y21058899D01*
X34906498Y21237527D01*
X34673109Y21334200D01*
X34332550Y21334200D01*
X34173800Y21175450D01*
X33919800Y21175450D01*
X33761050Y21334200D01*
X33420491Y21334200D01*
X33187102Y21237527D01*
X33008473Y21058899D01*
X32911800Y20825510D01*
X20189800Y20825510D01*
X20189800Y34191455D01*
X33968661Y34191455D01*
X34042795Y33945336D01*
X34580023Y33752235D01*
X35150254Y33779422D01*
X35403800Y33884444D01*
X35403800Y29532128D01*
X35363171Y29491570D01*
X35150043Y28978300D01*
X35149558Y28422539D01*
X35361790Y27908897D01*
X35754430Y27515571D01*
X36267700Y27302443D01*
X36823461Y27301958D01*
X37337103Y27514190D01*
X37730429Y27906830D01*
X37943557Y28420100D01*
X37944042Y28975861D01*
X37731810Y29489503D01*
X37689800Y29531586D01*
X37689800Y33751760D01*
X38096800Y33751760D01*
X38332117Y33796038D01*
X38548241Y33935110D01*
X38693231Y34147310D01*
X38744240Y34399200D01*
X38744240Y35999200D01*
X38699962Y36234517D01*
X38560890Y36450641D01*
X38439800Y36533378D01*
X38439800Y38600161D01*
X43114896Y38600161D01*
X43275759Y38211777D01*
X43651666Y37796811D01*
X44157759Y37557286D01*
X44379800Y37678571D01*
X44379800Y38822200D01*
X43236885Y38822200D01*
X43114896Y38600161D01*
X38439800Y38600161D01*
X38439800Y39298239D01*
X43114896Y39298239D01*
X43236885Y39076200D01*
X44379800Y39076200D01*
X44379800Y40219829D01*
X44157759Y40341114D01*
X43651666Y40101589D01*
X43275759Y39686623D01*
X43114896Y39298239D01*
X38439800Y39298239D01*
X38439800Y42601740D01*
X38947600Y42601740D01*
X39182917Y42646018D01*
X39399041Y42785090D01*
X39544031Y42997290D01*
X39595040Y43249180D01*
X39595040Y46430534D01*
X42165023Y49000517D01*
X42412794Y49371333D01*
X42499800Y49808740D01*
X42499800Y53037099D01*
X42701832Y53238779D01*
X42944024Y53822041D01*
X42944575Y54453588D01*
X42703402Y55037272D01*
X42265271Y55476168D01*
X42295354Y55561041D01*
X41356800Y56499595D01*
X40418246Y55561041D01*
X40448525Y55475617D01*
X40011768Y55039621D01*
X39769576Y54456359D01*
X39769025Y53824812D01*
X40010198Y53241128D01*
X40213800Y53037171D01*
X40213800Y50282186D01*
X39181008Y49249394D01*
X38947600Y49296660D01*
X36046920Y49296660D01*
X35811603Y49252382D01*
X35595479Y49113310D01*
X35450489Y48901110D01*
X35399480Y48649220D01*
X35399480Y43249180D01*
X35443758Y43013863D01*
X35582830Y42797739D01*
X35795030Y42652749D01*
X36046920Y42601740D01*
X36153800Y42601740D01*
X36153800Y36533070D01*
X36045359Y36463290D01*
X35900369Y36251090D01*
X35852154Y36012999D01*
X35804545Y36027339D01*
X34976405Y35199200D01*
X34990548Y35185058D01*
X34810942Y35005452D01*
X34796800Y35019595D01*
X33968661Y34191455D01*
X20189800Y34191455D01*
X20189800Y35415977D01*
X33349835Y35415977D01*
X33377022Y34845746D01*
X33542936Y34445195D01*
X33789055Y34371061D01*
X34617195Y35199200D01*
X33789055Y36027339D01*
X33542936Y35953205D01*
X33349835Y35415977D01*
X20189800Y35415977D01*
X20189800Y35449200D01*
X20102794Y35886607D01*
X19888752Y36206945D01*
X33968661Y36206945D01*
X34796800Y35378805D01*
X35624939Y36206945D01*
X35550805Y36453064D01*
X35013577Y36646165D01*
X34443346Y36618978D01*
X34042795Y36453064D01*
X33968661Y36206945D01*
X19888752Y36206945D01*
X19855023Y36257423D01*
X18128533Y37983913D01*
X18014043Y38261000D01*
X17610723Y38665024D01*
X17083491Y38883950D01*
X16512613Y38884448D01*
X15985000Y38666443D01*
X15716217Y38398128D01*
X15699962Y38484517D01*
X15560890Y38700641D01*
X15439800Y38783378D01*
X15439800Y43263925D01*
X16041131Y43263925D01*
X16102969Y43028158D01*
X16603922Y42851781D01*
X17134240Y42880536D01*
X17490631Y43028158D01*
X17552469Y43263925D01*
X18791131Y43263925D01*
X18852969Y43028158D01*
X19353922Y42851781D01*
X19884240Y42880536D01*
X20240631Y43028158D01*
X20302469Y43263925D01*
X19546800Y44019595D01*
X18791131Y43263925D01*
X17552469Y43263925D01*
X16796800Y44019595D01*
X16041131Y43263925D01*
X15439800Y43263925D01*
X15439800Y44392078D01*
X15449381Y44392078D01*
X15478136Y43861760D01*
X15625758Y43505369D01*
X15861525Y43443531D01*
X16617195Y44199200D01*
X16976405Y44199200D01*
X17732075Y43443531D01*
X17967842Y43505369D01*
X18144219Y44006322D01*
X18123303Y44392078D01*
X18199381Y44392078D01*
X18228136Y43861760D01*
X18375758Y43505369D01*
X18611525Y43443531D01*
X19367195Y44199200D01*
X19726405Y44199200D01*
X20482075Y43443531D01*
X20717842Y43505369D01*
X20894219Y44006322D01*
X20865464Y44536640D01*
X20717842Y44893031D01*
X20482075Y44954869D01*
X19726405Y44199200D01*
X19367195Y44199200D01*
X18611525Y44954869D01*
X18375758Y44893031D01*
X18199381Y44392078D01*
X18123303Y44392078D01*
X18115464Y44536640D01*
X17967842Y44893031D01*
X17732075Y44954869D01*
X16976405Y44199200D01*
X16617195Y44199200D01*
X15861525Y44954869D01*
X15625758Y44893031D01*
X15449381Y44392078D01*
X15439800Y44392078D01*
X15439800Y45072504D01*
X15498241Y45110110D01*
X15514888Y45134475D01*
X16041131Y45134475D01*
X16796800Y44378805D01*
X17552469Y45134475D01*
X18791131Y45134475D01*
X19546800Y44378805D01*
X20302469Y45134475D01*
X20240631Y45370242D01*
X19739678Y45546619D01*
X19209360Y45517864D01*
X18852969Y45370242D01*
X18791131Y45134475D01*
X17552469Y45134475D01*
X17490631Y45370242D01*
X16989678Y45546619D01*
X16459360Y45517864D01*
X16102969Y45370242D01*
X16041131Y45134475D01*
X15514888Y45134475D01*
X15643231Y45322310D01*
X15694240Y45574200D01*
X15694240Y46824200D01*
X15649962Y47059517D01*
X15510890Y47275641D01*
X15309800Y47413040D01*
X15309800Y48464445D01*
X15520680Y48780049D01*
X15629913Y49329200D01*
X15520680Y49878351D01*
X15209611Y50343898D01*
X14827525Y50599200D01*
X15017594Y50726200D01*
X16036683Y50726200D01*
X16285918Y50559667D01*
X16796800Y50458046D01*
X17307682Y50559667D01*
X17482087Y50676200D01*
X18861513Y50676200D01*
X19035918Y50559667D01*
X19546800Y50458046D01*
X20057682Y50559667D01*
X20490788Y50849058D01*
X20780179Y51282164D01*
X20881800Y51793046D01*
X20881800Y51845354D01*
X20780179Y52356236D01*
X20689800Y52491498D01*
X20689800Y56537395D01*
X22678605Y56537395D01*
X22911158Y55975942D01*
X23402024Y55454708D01*
X24054993Y55160997D01*
X24339800Y55277342D01*
X24339800Y56822200D01*
X24593800Y56822200D01*
X24593800Y55277342D01*
X24878607Y55160997D01*
X25531576Y55454708D01*
X26022442Y55975942D01*
X26254995Y56537395D01*
X26138232Y56822200D01*
X24593800Y56822200D01*
X24339800Y56822200D01*
X22795368Y56822200D01*
X22678605Y56537395D01*
X20689800Y56537395D01*
X20689800Y57361005D01*
X22678605Y57361005D01*
X22795368Y57076200D01*
X24339800Y57076200D01*
X24339800Y58621058D01*
X24593800Y58621058D01*
X24593800Y57076200D01*
X26138232Y57076200D01*
X26254995Y57361005D01*
X26022442Y57922458D01*
X25531576Y58443692D01*
X24878607Y58737403D01*
X24593800Y58621058D01*
X24339800Y58621058D01*
X24054993Y58737403D01*
X23402024Y58443692D01*
X22911158Y57922458D01*
X22678605Y57361005D01*
X20689800Y57361005D01*
X20689800Y60255292D01*
X20758473Y60089501D01*
X20937102Y59910873D01*
X21170491Y59814200D01*
X21511050Y59814200D01*
X21669800Y59972950D01*
X21669800Y60822200D01*
X21923800Y60822200D01*
X21923800Y59972950D01*
X22082550Y59814200D01*
X22423109Y59814200D01*
X22656498Y59910873D01*
X22835127Y60089501D01*
X22931800Y60322890D01*
X22931800Y60663450D01*
X22773050Y60822200D01*
X21923800Y60822200D01*
X21669800Y60822200D01*
X20820550Y60822200D01*
X20689800Y60691450D01*
X20689800Y60699200D01*
X20640072Y60949200D01*
X20689800Y61199200D01*
X20689800Y61206950D01*
X20820550Y61076200D01*
X21669800Y61076200D01*
X21669800Y61925450D01*
X21923800Y61925450D01*
X21923800Y61076200D01*
X22773050Y61076200D01*
X22931800Y61234950D01*
X22931800Y61575510D01*
X22835127Y61808899D01*
X22656498Y61987527D01*
X22423109Y62084200D01*
X22082550Y62084200D01*
X21923800Y61925450D01*
X21669800Y61925450D01*
X21511050Y62084200D01*
X21170491Y62084200D01*
X20937102Y61987527D01*
X20758473Y61808899D01*
X20689800Y61643108D01*
X20689800Y65062580D01*
X20762624Y65135277D01*
X20819045Y65271154D01*
X21043989Y64934502D01*
X21509536Y64623433D01*
X21867281Y64552273D01*
X25468577Y60950977D01*
X25839393Y60703206D01*
X26276800Y60616200D01*
X32634699Y60616200D01*
X32761735Y60488943D01*
X32391768Y60119621D01*
X32149576Y59536359D01*
X32149025Y58904812D01*
X32390198Y58321128D01*
X32618727Y58092200D01*
X31394240Y58092200D01*
X31394240Y58149200D01*
X31349962Y58384517D01*
X31210890Y58600641D01*
X30998690Y58745631D01*
X30746800Y58796640D01*
X28346800Y58796640D01*
X28111483Y58752362D01*
X27895359Y58613290D01*
X27750369Y58401090D01*
X27699360Y58149200D01*
X27699360Y56718206D01*
X26788117Y55806963D01*
X26540346Y55436147D01*
X26453340Y54998740D01*
X26453340Y49296660D01*
X26146000Y49296660D01*
X25910683Y49252382D01*
X25694559Y49113310D01*
X25549569Y48901110D01*
X25498560Y48649220D01*
X25498560Y43249180D01*
X25542838Y43013863D01*
X25681910Y42797739D01*
X25894110Y42652749D01*
X26146000Y42601740D01*
X29046680Y42601740D01*
X29281997Y42646018D01*
X29498121Y42785090D01*
X29643111Y42997290D01*
X29694120Y43249180D01*
X29694120Y48649220D01*
X29649842Y48884537D01*
X29510770Y49100661D01*
X29298570Y49245651D01*
X29046680Y49296660D01*
X28739340Y49296660D01*
X28739340Y54525294D01*
X29315806Y55101760D01*
X30746800Y55101760D01*
X30982117Y55146038D01*
X31198241Y55285110D01*
X31343231Y55497310D01*
X31394240Y55749200D01*
X31394240Y55806200D01*
X32379838Y55806200D01*
X32390198Y55781128D01*
X32761735Y55408943D01*
X32391768Y55039621D01*
X32149576Y54456359D01*
X32149025Y53824812D01*
X32390198Y53241128D01*
X32836379Y52794168D01*
X33419641Y52551976D01*
X34051188Y52551425D01*
X34634872Y52792598D01*
X35081832Y53238779D01*
X35324024Y53822041D01*
X35324575Y54453588D01*
X35083402Y55037272D01*
X34711865Y55409457D01*
X35081832Y55778779D01*
X35324024Y56362041D01*
X35324521Y56932399D01*
X39758125Y56932399D01*
X39782922Y56301339D01*
X39976712Y55833488D01*
X40238641Y55740646D01*
X41177195Y56679200D01*
X41536405Y56679200D01*
X42474959Y55740646D01*
X42736888Y55833488D01*
X42955475Y56426001D01*
X42930678Y57057061D01*
X42736888Y57524912D01*
X42474959Y57617754D01*
X41536405Y56679200D01*
X41177195Y56679200D01*
X40238641Y57617754D01*
X39976712Y57524912D01*
X39758125Y56932399D01*
X35324521Y56932399D01*
X35324575Y56993588D01*
X35083402Y57577272D01*
X34711865Y57949457D01*
X34863713Y58101041D01*
X40418246Y58101041D01*
X40472067Y57949200D01*
X40418246Y57797359D01*
X41356800Y56858805D01*
X42295354Y57797359D01*
X42241533Y57949200D01*
X42295354Y58101041D01*
X41356800Y59039595D01*
X40418246Y58101041D01*
X34863713Y58101041D01*
X35081832Y58318779D01*
X35324024Y58902041D01*
X35324521Y59472399D01*
X39758125Y59472399D01*
X39782922Y58841339D01*
X39976712Y58373488D01*
X40238641Y58280646D01*
X41177195Y59219200D01*
X41536405Y59219200D01*
X42474959Y58280646D01*
X42736888Y58373488D01*
X42955475Y58966001D01*
X42930678Y59597061D01*
X42736888Y60064912D01*
X42474959Y60157754D01*
X41536405Y59219200D01*
X41177195Y59219200D01*
X40238641Y60157754D01*
X39976712Y60064912D01*
X39758125Y59472399D01*
X35324521Y59472399D01*
X35324575Y59533588D01*
X35083402Y60117272D01*
X34711865Y60489457D01*
X34838829Y60616200D01*
X36106800Y60616200D01*
X36231683Y60641041D01*
X40418246Y60641041D01*
X40472067Y60489200D01*
X40418246Y60337359D01*
X41356800Y59398805D01*
X42295354Y60337359D01*
X42241533Y60489200D01*
X42295354Y60641041D01*
X41356800Y61579595D01*
X40418246Y60641041D01*
X36231683Y60641041D01*
X36544207Y60703206D01*
X36915023Y60950977D01*
X38770246Y62806200D01*
X40130192Y62806200D01*
X40238639Y62697753D01*
X39976712Y62604912D01*
X39758125Y62012399D01*
X39782922Y61381339D01*
X39976712Y60913488D01*
X40238641Y60820646D01*
X41177195Y61759200D01*
X41163053Y61773342D01*
X41342658Y61952947D01*
X41356800Y61938805D01*
X41370943Y61952947D01*
X41550548Y61773342D01*
X41536405Y61759200D01*
X42474959Y60820646D01*
X42736888Y60913488D01*
X42955475Y61506001D01*
X42930678Y62137061D01*
X42886968Y62242586D01*
X49403800Y55725754D01*
X49403800Y39427741D01*
X49212032Y38965913D01*
X49211569Y38434817D01*
X49403800Y37969581D01*
X49403800Y35573583D01*
X49048774Y35336363D01*
X48910890Y35550641D01*
X48698690Y35695631D01*
X48446800Y35746640D01*
X48189800Y35746640D01*
X48189800Y38062580D01*
X48262624Y38135277D01*
X48481550Y38662509D01*
X48482048Y39233387D01*
X48264043Y39761000D01*
X47860723Y40165024D01*
X47333491Y40383950D01*
X46762613Y40384448D01*
X46235000Y40166443D01*
X45830976Y39763123D01*
X45768487Y39612632D01*
X45737841Y39686623D01*
X45361934Y40101589D01*
X44855841Y40341114D01*
X44633800Y40219829D01*
X44633800Y39076200D01*
X44653800Y39076200D01*
X44653800Y38822200D01*
X44633800Y38822200D01*
X44633800Y37678571D01*
X44855841Y37557286D01*
X45361934Y37796811D01*
X45737841Y38211777D01*
X45768370Y38285485D01*
X45829557Y38137400D01*
X45903800Y38063027D01*
X45903800Y34699200D01*
X45990806Y34261793D01*
X45999360Y34248991D01*
X45999360Y33848206D01*
X43759079Y31607925D01*
X43546800Y31650150D01*
X42844576Y31510469D01*
X42249259Y31112691D01*
X41851481Y30517374D01*
X41711800Y29815150D01*
X41711800Y29743250D01*
X41851481Y29041026D01*
X42249259Y28445709D01*
X42844576Y28047931D01*
X43546800Y27908250D01*
X44249024Y28047931D01*
X44844341Y28445709D01*
X45242119Y29041026D01*
X45381800Y29743250D01*
X45381800Y29815150D01*
X45351504Y29967458D01*
X46291614Y30907568D01*
X46212032Y30715913D01*
X46211569Y30184817D01*
X46403800Y29719581D01*
X46403800Y27989200D01*
X46404868Y27983831D01*
X46361800Y27767313D01*
X46361800Y27711087D01*
X46471033Y27161936D01*
X46782102Y26696389D01*
X47118510Y26471608D01*
X46985000Y26416443D01*
X46580976Y26013123D01*
X46510003Y25842200D01*
X45394240Y25842200D01*
X45394240Y25899200D01*
X45349962Y26134517D01*
X45210890Y26350641D01*
X44998690Y26495631D01*
X44746800Y26546640D01*
X42346800Y26546640D01*
X42111483Y26502362D01*
X41895359Y26363290D01*
X41750369Y26151090D01*
X41699360Y25899200D01*
X41699360Y23499200D01*
X41743638Y23263883D01*
X41882710Y23047759D01*
X42094910Y22902769D01*
X42346800Y22851760D01*
X44746800Y22851760D01*
X44982117Y22896038D01*
X45198241Y23035110D01*
X45343231Y23247310D01*
X45394240Y23499200D01*
X45394240Y23556200D01*
X46653800Y23556200D01*
X46653800Y16427741D01*
X46462032Y15965913D01*
X46461569Y15434817D01*
X46653800Y14969581D01*
X46653800Y12677741D01*
X46462032Y12215913D01*
X46461569Y11684817D01*
X46653800Y11219581D01*
X46653800Y5118418D01*
X46411522Y4876563D01*
X46162084Y4275848D01*
X46161516Y3625405D01*
X46409906Y3024257D01*
X46869437Y2563922D01*
X47470152Y2314484D01*
X48120595Y2313916D01*
X48721743Y2562306D01*
X48956515Y2796668D01*
X50323873Y2796668D01*
X50422536Y2529813D01*
X51032261Y2303292D01*
X51682260Y2327344D01*
X52171064Y2529813D01*
X52269727Y2796668D01*
X51296800Y3769595D01*
X50323873Y2796668D01*
X48956515Y2796668D01*
X49182078Y3021837D01*
X49431516Y3622552D01*
X49432032Y4213739D01*
X49650892Y4213739D01*
X49674944Y3563740D01*
X49877413Y3074936D01*
X50144268Y2976273D01*
X51117195Y3949200D01*
X51476405Y3949200D01*
X52449332Y2976273D01*
X52716187Y3074936D01*
X52920693Y3625405D01*
X83661516Y3625405D01*
X83909906Y3024257D01*
X84369437Y2563922D01*
X84970152Y2314484D01*
X85620595Y2313916D01*
X86221743Y2562306D01*
X86682078Y3021837D01*
X86931516Y3622552D01*
X86932060Y4245425D01*
X87028577Y4100977D01*
X87161815Y3967739D01*
X87161516Y3625405D01*
X87409906Y3024257D01*
X87869437Y2563922D01*
X88470152Y2314484D01*
X89120595Y2313916D01*
X89721743Y2562306D01*
X90182078Y3021837D01*
X90431516Y3622552D01*
X90432084Y4272995D01*
X90183694Y4874143D01*
X89724163Y5334478D01*
X89123448Y5583916D01*
X88979800Y5584041D01*
X88979800Y6163450D01*
X94161800Y6163450D01*
X94161800Y4572891D01*
X94258473Y4339502D01*
X94437101Y4160873D01*
X94670490Y4064200D01*
X96261050Y4064200D01*
X96419800Y4222950D01*
X96419800Y6322200D01*
X96673800Y6322200D01*
X96673800Y4222950D01*
X96832550Y4064200D01*
X98423110Y4064200D01*
X98656499Y4160873D01*
X98835127Y4339502D01*
X98931800Y4572891D01*
X98931800Y5327649D01*
X111183016Y5327649D01*
X111538884Y5054447D01*
X112785497Y5016809D01*
X112974716Y5054447D01*
X113330584Y5327649D01*
X112256800Y6401433D01*
X111183016Y5327649D01*
X98931800Y5327649D01*
X98931800Y6163450D01*
X98773050Y6322200D01*
X96673800Y6322200D01*
X96419800Y6322200D01*
X94320550Y6322200D01*
X94161800Y6163450D01*
X88979800Y6163450D01*
X88979800Y8325509D01*
X94161800Y8325509D01*
X94161800Y6734950D01*
X94320550Y6576200D01*
X96419800Y6576200D01*
X96419800Y8675450D01*
X96261050Y8834200D01*
X94670490Y8834200D01*
X94437101Y8737527D01*
X94258473Y8558898D01*
X94161800Y8325509D01*
X88979800Y8325509D01*
X88979800Y14199200D01*
X94149360Y14199200D01*
X94149360Y10699200D01*
X94193638Y10463883D01*
X94332710Y10247759D01*
X94544910Y10102769D01*
X94796800Y10051760D01*
X98296800Y10051760D01*
X98532117Y10096038D01*
X98748241Y10235110D01*
X98849360Y10383103D01*
X98849360Y8524537D01*
X98835127Y8558898D01*
X98656499Y8737527D01*
X98423110Y8834200D01*
X96832550Y8834200D01*
X96673800Y8675450D01*
X96673800Y6576200D01*
X98773050Y6576200D01*
X98931800Y6734950D01*
X98931800Y7404578D01*
X99032710Y7247759D01*
X99244910Y7102769D01*
X99496800Y7051760D01*
X102996800Y7051760D01*
X103232117Y7096038D01*
X103448241Y7235110D01*
X103593231Y7447310D01*
X103632353Y7640503D01*
X109104409Y7640503D01*
X109142047Y7451284D01*
X109415249Y7095416D01*
X110489033Y8169200D01*
X114024567Y8169200D01*
X115098351Y7095416D01*
X115371553Y7451284D01*
X115409191Y8697897D01*
X115371553Y8887116D01*
X115098351Y9242984D01*
X114024567Y8169200D01*
X110489033Y8169200D01*
X109415249Y9242984D01*
X109142047Y8887116D01*
X109104409Y7640503D01*
X103632353Y7640503D01*
X103644240Y7699200D01*
X103644240Y11010751D01*
X111183016Y11010751D01*
X112256800Y9936967D01*
X113330584Y11010751D01*
X112974716Y11283953D01*
X111728103Y11321591D01*
X111538884Y11283953D01*
X111183016Y11010751D01*
X103644240Y11010751D01*
X103644240Y11199200D01*
X103599962Y11434517D01*
X103460890Y11650641D01*
X103248690Y11795631D01*
X102996800Y11846640D01*
X99496800Y11846640D01*
X99261483Y11802362D01*
X99045359Y11663290D01*
X98944240Y11515297D01*
X98944240Y14199200D01*
X98899962Y14434517D01*
X98760890Y14650641D01*
X98548690Y14795631D01*
X98296800Y14846640D01*
X94796800Y14846640D01*
X94561483Y14802362D01*
X94345359Y14663290D01*
X94200369Y14451090D01*
X94149360Y14199200D01*
X88979800Y14199200D01*
X88979800Y16129326D01*
X108961170Y16129326D01*
X109513400Y14792828D01*
X110535049Y13769394D01*
X111870582Y13214832D01*
X113316674Y13213570D01*
X114653172Y13765800D01*
X115676606Y14787449D01*
X116231168Y16122982D01*
X116232430Y17569074D01*
X115680200Y18905572D01*
X114658551Y19929006D01*
X113323018Y20483568D01*
X111876926Y20484830D01*
X110540428Y19932600D01*
X109516994Y18910951D01*
X108962432Y17575418D01*
X108961170Y16129326D01*
X88979800Y16129326D01*
X88979800Y21598406D01*
X89106800Y21788475D01*
X89362102Y21406389D01*
X89827649Y21095320D01*
X90376800Y20986087D01*
X90925951Y21095320D01*
X91391498Y21406389D01*
X91702567Y21871936D01*
X91811800Y22421087D01*
X91811800Y22477313D01*
X91702567Y23026464D01*
X91391498Y23492011D01*
X90925951Y23803080D01*
X90376800Y23912313D01*
X89827649Y23803080D01*
X89362102Y23492011D01*
X89106800Y23109925D01*
X88851498Y23492011D01*
X88385951Y23803080D01*
X87836800Y23912313D01*
X87287649Y23803080D01*
X86822102Y23492011D01*
X86725699Y23347735D01*
X86699962Y23484517D01*
X86560890Y23700641D01*
X86348690Y23845631D01*
X86096800Y23896640D01*
X84496800Y23896640D01*
X84261483Y23852362D01*
X84045359Y23713290D01*
X83900369Y23501090D01*
X83849360Y23249200D01*
X83849360Y21649200D01*
X83893638Y21413883D01*
X84032710Y21197759D01*
X84153800Y21115022D01*
X84153800Y18339994D01*
X83971033Y18066464D01*
X83861800Y17517313D01*
X83861800Y17461087D01*
X83971033Y16911936D01*
X84282102Y16446389D01*
X84618510Y16221608D01*
X84485000Y16166443D01*
X84080976Y15763123D01*
X83862050Y15235891D01*
X83861552Y14665013D01*
X84079557Y14137400D01*
X84153800Y14063027D01*
X84153800Y5118418D01*
X83911522Y4876563D01*
X83662084Y4275848D01*
X83661516Y3625405D01*
X52920693Y3625405D01*
X52942708Y3684661D01*
X52918656Y4334660D01*
X52716187Y4823464D01*
X52449332Y4922127D01*
X51476405Y3949200D01*
X51117195Y3949200D01*
X50144268Y4922127D01*
X49877413Y4823464D01*
X49650892Y4213739D01*
X49432032Y4213739D01*
X49432084Y4272995D01*
X49183694Y4874143D01*
X48956503Y5101732D01*
X50323873Y5101732D01*
X51296800Y4128805D01*
X52269727Y5101732D01*
X52186200Y5327649D01*
X56183016Y5327649D01*
X56538884Y5054447D01*
X57785497Y5016809D01*
X57974716Y5054447D01*
X58330584Y5327649D01*
X57256800Y6401433D01*
X56183016Y5327649D01*
X52186200Y5327649D01*
X52171064Y5368587D01*
X51561339Y5595108D01*
X50911340Y5571056D01*
X50422536Y5368587D01*
X50323873Y5101732D01*
X48956503Y5101732D01*
X48939800Y5118464D01*
X48939800Y7640503D01*
X54104409Y7640503D01*
X54142047Y7451284D01*
X54415249Y7095416D01*
X55489033Y8169200D01*
X59024567Y8169200D01*
X60098351Y7095416D01*
X60371553Y7451284D01*
X60409191Y8697897D01*
X60371553Y8887116D01*
X60098351Y9242984D01*
X59024567Y8169200D01*
X55489033Y8169200D01*
X54415249Y9242984D01*
X54142047Y8887116D01*
X54104409Y7640503D01*
X48939800Y7640503D01*
X48939800Y11220659D01*
X49103906Y11615871D01*
X54124084Y11615871D01*
X54267003Y11270804D01*
X54614137Y10882436D01*
X55083469Y10656473D01*
X55289800Y10778994D01*
X55289800Y11822200D01*
X55543800Y11822200D01*
X55543800Y10778994D01*
X55750131Y10656473D01*
X56219463Y10882436D01*
X56262822Y10930945D01*
X57256800Y9936967D01*
X58330584Y11010751D01*
X57974716Y11283953D01*
X56728103Y11321591D01*
X56575020Y11291141D01*
X56709516Y11615871D01*
X56586174Y11822200D01*
X55543800Y11822200D01*
X55289800Y11822200D01*
X54247426Y11822200D01*
X54124084Y11615871D01*
X49103906Y11615871D01*
X49131568Y11682487D01*
X49132031Y12213583D01*
X49103544Y12282529D01*
X54124084Y12282529D01*
X54247426Y12076200D01*
X55289800Y12076200D01*
X55289800Y13119406D01*
X55543800Y13119406D01*
X55543800Y12076200D01*
X56586174Y12076200D01*
X56709516Y12282529D01*
X56566597Y12627596D01*
X56219463Y13015964D01*
X55750131Y13241927D01*
X55543800Y13119406D01*
X55289800Y13119406D01*
X55083469Y13241927D01*
X54614137Y13015964D01*
X54267003Y12627596D01*
X54124084Y12282529D01*
X49103544Y12282529D01*
X48939800Y12678819D01*
X48939800Y14970659D01*
X49103906Y15365871D01*
X54124084Y15365871D01*
X54267003Y15020804D01*
X54614137Y14632436D01*
X55083469Y14406473D01*
X55289800Y14528994D01*
X55289800Y15572200D01*
X55543800Y15572200D01*
X55543800Y14528994D01*
X55750131Y14406473D01*
X56219463Y14632436D01*
X56566597Y15020804D01*
X56709516Y15365871D01*
X56586174Y15572200D01*
X55543800Y15572200D01*
X55289800Y15572200D01*
X54247426Y15572200D01*
X54124084Y15365871D01*
X49103906Y15365871D01*
X49131568Y15432487D01*
X49132031Y15963583D01*
X49103544Y16032529D01*
X54124084Y16032529D01*
X54247426Y15826200D01*
X55289800Y15826200D01*
X55289800Y16869406D01*
X55543800Y16869406D01*
X55543800Y15826200D01*
X56586174Y15826200D01*
X56709516Y16032529D01*
X56566597Y16377596D01*
X56219463Y16765964D01*
X55750131Y16991927D01*
X55543800Y16869406D01*
X55289800Y16869406D01*
X55083469Y16991927D01*
X54614137Y16765964D01*
X54267003Y16377596D01*
X54124084Y16032529D01*
X49103544Y16032529D01*
X48939800Y16428819D01*
X48939800Y19608175D01*
X48987102Y19560873D01*
X49220491Y19464200D01*
X49511050Y19464200D01*
X49669800Y19622950D01*
X49669800Y20372200D01*
X49923800Y20372200D01*
X49923800Y19622950D01*
X50082550Y19464200D01*
X50373109Y19464200D01*
X50606498Y19560873D01*
X50785127Y19739501D01*
X50881800Y19972890D01*
X50881800Y20213450D01*
X50723050Y20372200D01*
X49923800Y20372200D01*
X49669800Y20372200D01*
X49649800Y20372200D01*
X49649800Y20626200D01*
X49669800Y20626200D01*
X49669800Y20646200D01*
X49923800Y20646200D01*
X49923800Y20626200D01*
X50723050Y20626200D01*
X50881800Y20784950D01*
X50881800Y21025510D01*
X50785127Y21258899D01*
X50606498Y21437527D01*
X50570053Y21452623D01*
X50698241Y21535110D01*
X50843231Y21747310D01*
X50894240Y21999200D01*
X50894240Y22799200D01*
X50849962Y23034517D01*
X50710890Y23250641D01*
X50498690Y23395631D01*
X50246800Y23446640D01*
X49346800Y23446640D01*
X49111483Y23402362D01*
X48939800Y23291887D01*
X48939800Y24312580D01*
X49012624Y24385277D01*
X49231550Y24912509D01*
X49232048Y25483387D01*
X49014043Y26011000D01*
X48610723Y26415024D01*
X48474846Y26471445D01*
X48811498Y26696389D01*
X49122567Y27161936D01*
X49231800Y27711087D01*
X49231800Y27767313D01*
X49122567Y28316464D01*
X48811498Y28782011D01*
X48689800Y28863327D01*
X48689800Y29720659D01*
X48853906Y30115871D01*
X53874084Y30115871D01*
X54017003Y29770804D01*
X54364137Y29382436D01*
X54833469Y29156473D01*
X55039800Y29278994D01*
X55039800Y30322200D01*
X55293800Y30322200D01*
X55293800Y29278994D01*
X55500131Y29156473D01*
X55969463Y29382436D01*
X56316597Y29770804D01*
X56459516Y30115871D01*
X56336174Y30322200D01*
X55293800Y30322200D01*
X55039800Y30322200D01*
X53997426Y30322200D01*
X53874084Y30115871D01*
X48853906Y30115871D01*
X48881568Y30182487D01*
X48882031Y30713583D01*
X48853544Y30782529D01*
X53874084Y30782529D01*
X53997426Y30576200D01*
X55039800Y30576200D01*
X55039800Y31619406D01*
X55293800Y31619406D01*
X55293800Y30576200D01*
X56336174Y30576200D01*
X56459516Y30782529D01*
X56316597Y31127596D01*
X55969463Y31515964D01*
X55500131Y31741927D01*
X55293800Y31619406D01*
X55039800Y31619406D01*
X54833469Y31741927D01*
X54364137Y31515964D01*
X54017003Y31127596D01*
X53874084Y30782529D01*
X48853544Y30782529D01*
X48689800Y31178819D01*
X48689800Y32700982D01*
X48898241Y32835110D01*
X49043231Y33047310D01*
X49046519Y33063544D01*
X49469309Y32781045D01*
X50056728Y32664200D01*
X50116872Y32664200D01*
X50704291Y32781045D01*
X51202281Y33113791D01*
X51356800Y33345045D01*
X51511319Y33113791D01*
X52009309Y32781045D01*
X52596728Y32664200D01*
X52656872Y32664200D01*
X53244291Y32781045D01*
X53742281Y33113791D01*
X54075027Y33611781D01*
X54191872Y34199200D01*
X54075027Y34786619D01*
X53742281Y35284609D01*
X53244291Y35617355D01*
X52656872Y35734200D01*
X52596728Y35734200D01*
X52009309Y35617355D01*
X51689800Y35403866D01*
X51689800Y37970659D01*
X51853906Y38365871D01*
X56874084Y38365871D01*
X57017003Y38020804D01*
X57364137Y37632436D01*
X57833469Y37406473D01*
X58039800Y37528994D01*
X58039800Y38572200D01*
X58293800Y38572200D01*
X58293800Y37528994D01*
X58500131Y37406473D01*
X58969463Y37632436D01*
X59316597Y38020804D01*
X59459516Y38365871D01*
X59336174Y38572200D01*
X58293800Y38572200D01*
X58039800Y38572200D01*
X56997426Y38572200D01*
X56874084Y38365871D01*
X51853906Y38365871D01*
X51881568Y38432487D01*
X51882031Y38963583D01*
X51853544Y39032529D01*
X56874084Y39032529D01*
X56997426Y38826200D01*
X58039800Y38826200D01*
X58039800Y39869406D01*
X58293800Y39869406D01*
X58293800Y38826200D01*
X59336174Y38826200D01*
X59459516Y39032529D01*
X59316597Y39377596D01*
X58969463Y39765964D01*
X58500131Y39991927D01*
X58293800Y39869406D01*
X58039800Y39869406D01*
X57833469Y39991927D01*
X57364137Y39765964D01*
X57017003Y39377596D01*
X56874084Y39032529D01*
X51853544Y39032529D01*
X51689800Y39428819D01*
X51689800Y41896553D01*
X67013758Y41896553D01*
X67095504Y41644008D01*
X67655213Y41440544D01*
X68250179Y41466758D01*
X68678096Y41644008D01*
X68759842Y41896553D01*
X67886800Y42769595D01*
X67013758Y41896553D01*
X51689800Y41896553D01*
X51689800Y43180787D01*
X66378144Y43180787D01*
X66404358Y42585821D01*
X66581608Y42157904D01*
X66834153Y42076158D01*
X67707195Y42949200D01*
X68066405Y42949200D01*
X68939447Y42076158D01*
X69191992Y42157904D01*
X69395456Y42717613D01*
X69369242Y43312579D01*
X69191992Y43740496D01*
X68939447Y43822242D01*
X68066405Y42949200D01*
X67707195Y42949200D01*
X66834153Y43822242D01*
X66581608Y43740496D01*
X66378144Y43180787D01*
X51689800Y43180787D01*
X51689800Y44001847D01*
X67013758Y44001847D01*
X67886800Y43128805D01*
X68759842Y44001847D01*
X68678096Y44254392D01*
X68118387Y44457856D01*
X67523421Y44431642D01*
X67095504Y44254392D01*
X67013758Y44001847D01*
X51689800Y44001847D01*
X51689800Y56199200D01*
X51602794Y56636607D01*
X51355023Y57007423D01*
X43605023Y64757423D01*
X43234207Y65005194D01*
X42796800Y65092200D01*
X38296800Y65092200D01*
X37859393Y65005194D01*
X37488577Y64757423D01*
X35633354Y62902200D01*
X34838901Y62902200D01*
X34637221Y63104232D01*
X34439800Y63186209D01*
X34439800Y65615330D01*
X34548241Y65685110D01*
X34630978Y65806200D01*
X48345354Y65806200D01*
X52935777Y61215777D01*
X53306593Y60968006D01*
X53744000Y60881000D01*
X53863800Y60904830D01*
X53863800Y58538740D01*
X53950806Y58101333D01*
X54198577Y57730517D01*
X57498560Y54430534D01*
X57498560Y54398212D01*
X57490806Y54386607D01*
X57403800Y53949200D01*
X57490806Y53511793D01*
X57498560Y53500188D01*
X57498560Y51249180D01*
X57542838Y51013863D01*
X57681910Y50797739D01*
X57894110Y50652749D01*
X58146000Y50601740D01*
X61046680Y50601740D01*
X61281997Y50646018D01*
X61498121Y50785090D01*
X61643111Y50997290D01*
X61694120Y51249180D01*
X61694120Y56649220D01*
X61649842Y56884537D01*
X61510770Y57100661D01*
X61298570Y57245651D01*
X61046680Y57296660D01*
X60211834Y57296660D01*
X60033747Y57415654D01*
X59596340Y57502660D01*
X59158933Y57415654D01*
X58980846Y57296660D01*
X58146000Y57296660D01*
X57910683Y57252382D01*
X57910026Y57251960D01*
X56149800Y59012186D01*
X56149800Y64084445D01*
X56274392Y64270910D01*
X56329557Y64137400D01*
X56732877Y63733376D01*
X57260109Y63514450D01*
X57830987Y63513952D01*
X58358600Y63731957D01*
X58432973Y63806200D01*
X60076006Y63806200D01*
X60349536Y63623433D01*
X60898687Y63514200D01*
X60954913Y63514200D01*
X61504064Y63623433D01*
X61969611Y63934502D01*
X62280680Y64400049D01*
X62389913Y64949200D01*
X62280680Y65498351D01*
X61969611Y65963898D01*
X61587525Y66219200D01*
X61969611Y66474502D01*
X62280680Y66940049D01*
X62389913Y67489200D01*
X62280680Y68038351D01*
X61969611Y68503898D01*
X61587525Y68759200D01*
X61777594Y68886200D01*
X62743354Y68886200D01*
X65653800Y65975754D01*
X65653800Y47949200D01*
X65740806Y47511793D01*
X65988577Y47140977D01*
X70988577Y42140977D01*
X71359393Y41893206D01*
X71796800Y41806200D01*
X74242574Y41806200D01*
X74367710Y41680845D01*
X74917722Y41452460D01*
X75513265Y41451941D01*
X76063675Y41679365D01*
X76485155Y42100110D01*
X76713540Y42650122D01*
X76714059Y43245665D01*
X76486635Y43796075D01*
X76065890Y44217555D01*
X75515878Y44445940D01*
X74920335Y44446459D01*
X74369925Y44219035D01*
X74242868Y44092200D01*
X72270246Y44092200D01*
X67939800Y48422646D01*
X67939800Y50623432D01*
X68046920Y50601740D01*
X70947600Y50601740D01*
X71182917Y50646018D01*
X71399041Y50785090D01*
X71544031Y50997290D01*
X71595040Y51249180D01*
X71595040Y51549200D01*
X83551728Y51549200D01*
X83668573Y50961781D01*
X83976800Y50500486D01*
X83976800Y42833565D01*
X83850043Y42528300D01*
X83849558Y41972539D01*
X84061790Y41458897D01*
X84454430Y41065571D01*
X84967700Y40852443D01*
X85027163Y40852391D01*
X89153800Y36725754D01*
X89153800Y36585820D01*
X89080976Y36513123D01*
X88862050Y35985891D01*
X88861552Y35415013D01*
X89079557Y34887400D01*
X89482877Y34483376D01*
X89618754Y34426955D01*
X89282102Y34202011D01*
X88971033Y33736464D01*
X88861800Y33187313D01*
X88861800Y33131087D01*
X88971033Y32581936D01*
X89233800Y32188678D01*
X89233800Y30919994D01*
X89106800Y30729925D01*
X88851498Y31112011D01*
X88385951Y31423080D01*
X87836800Y31532313D01*
X87287649Y31423080D01*
X86822102Y31112011D01*
X86566800Y30729925D01*
X86439800Y30919994D01*
X86439800Y32058406D01*
X86622567Y32331936D01*
X86731800Y32881087D01*
X86731800Y32937313D01*
X86622567Y33486464D01*
X86311498Y33952011D01*
X85975090Y34176792D01*
X86108600Y34231957D01*
X86512624Y34635277D01*
X86731550Y35162509D01*
X86732048Y35733387D01*
X86514043Y36261000D01*
X86110723Y36665024D01*
X85583491Y36883950D01*
X85012613Y36884448D01*
X84485000Y36666443D01*
X84080976Y36263123D01*
X83862050Y35735891D01*
X83861552Y35165013D01*
X84079557Y34637400D01*
X84482877Y34233376D01*
X84618754Y34176955D01*
X84282102Y33952011D01*
X83971033Y33486464D01*
X83861800Y32937313D01*
X83861800Y32881087D01*
X83971033Y32331936D01*
X84153800Y32058406D01*
X84153800Y30919994D01*
X83971033Y30646464D01*
X83861800Y30097313D01*
X83861800Y30041087D01*
X83971033Y29491936D01*
X84282102Y29026389D01*
X84747649Y28715320D01*
X85296800Y28606087D01*
X85845951Y28715320D01*
X86311498Y29026389D01*
X86566800Y29408475D01*
X86822102Y29026389D01*
X87287649Y28715320D01*
X87836800Y28606087D01*
X88385951Y28715320D01*
X88851498Y29026389D01*
X89106800Y29408475D01*
X89362102Y29026389D01*
X89827649Y28715320D01*
X90376800Y28606087D01*
X90925951Y28715320D01*
X91391498Y29026389D01*
X91702567Y29491936D01*
X91811800Y30041087D01*
X91811800Y30097313D01*
X91702567Y30646464D01*
X91519800Y30919994D01*
X91519800Y32428135D01*
X91622567Y32581936D01*
X91731800Y33131087D01*
X91731800Y33187313D01*
X91622567Y33736464D01*
X91311498Y34202011D01*
X90975090Y34426792D01*
X91108600Y34481957D01*
X91512624Y34885277D01*
X91731550Y35412509D01*
X91732048Y35983387D01*
X91514043Y36511000D01*
X91439800Y36585373D01*
X91439800Y37199200D01*
X91352794Y37636607D01*
X91105023Y38007423D01*
X87139907Y41972539D01*
X88949558Y41972539D01*
X89161790Y41458897D01*
X89554430Y41065571D01*
X90067700Y40852443D01*
X90623461Y40851958D01*
X91137103Y41064190D01*
X91530429Y41456830D01*
X91658208Y41764556D01*
X92472851Y42579200D01*
X103349180Y42579200D01*
X103358542Y42556542D01*
X104000761Y41913201D01*
X104840291Y41564597D01*
X105749321Y41563804D01*
X106589458Y41910942D01*
X107026800Y42347521D01*
X107026800Y40375251D01*
X105775950Y39124402D01*
X105753309Y39133803D01*
X104844279Y39134596D01*
X104004142Y38787458D01*
X103360801Y38145239D01*
X103012197Y37305709D01*
X103011404Y36396679D01*
X103358542Y35556542D01*
X104000761Y34913201D01*
X104840291Y34564597D01*
X105749321Y34563804D01*
X106589458Y34910942D01*
X107232799Y35553161D01*
X107581403Y36392691D01*
X107582196Y37301721D01*
X107571429Y37327778D01*
X109194823Y38951172D01*
X109194826Y38951174D01*
X109470127Y39363192D01*
X109488668Y39456404D01*
X109566801Y39849200D01*
X109566800Y39849205D01*
X109566800Y54739335D01*
X110535049Y53769394D01*
X111870582Y53214832D01*
X113316674Y53213570D01*
X114653172Y53765800D01*
X115676606Y54787449D01*
X116026800Y55630809D01*
X116026800Y41975251D01*
X106058588Y32007040D01*
X105753309Y32133803D01*
X104844279Y32134596D01*
X104004142Y31787458D01*
X103360801Y31145239D01*
X103012197Y30305709D01*
X103011404Y29396679D01*
X103358542Y28556542D01*
X104000761Y27913201D01*
X104840291Y27564597D01*
X105749321Y27563804D01*
X106589458Y27910942D01*
X107232799Y28553161D01*
X107581403Y29392691D01*
X107581879Y29938227D01*
X118194823Y40551172D01*
X118194826Y40551174D01*
X118470127Y40963192D01*
X118566800Y41449200D01*
X118566800Y64199200D01*
X118470127Y64685208D01*
X118194826Y65097226D01*
X118194823Y65097228D01*
X102450226Y80841826D01*
X102274222Y81267789D01*
X101867530Y81675191D01*
X101335889Y81895948D01*
X100760237Y81896450D01*
X100228211Y81676622D01*
X99820809Y81269930D01*
X99600052Y80738289D01*
X99599550Y80162637D01*
X99819378Y79630611D01*
X100226070Y79223209D01*
X100654738Y79045210D01*
X103980748Y75719200D01*
X101761545Y75719200D01*
X101335889Y75895948D01*
X100760237Y75896450D01*
X100228211Y75676622D01*
X99820809Y75269930D01*
X99600052Y74738289D01*
X99599550Y74162637D01*
X99819378Y73630611D01*
X100226070Y73223209D01*
X100757711Y73002452D01*
X101333363Y73001950D01*
X101762342Y73179200D01*
X103770748Y73179200D01*
X107026800Y69923149D01*
X107026800Y45350480D01*
X106592839Y45785199D01*
X105753309Y46133803D01*
X104844279Y46134596D01*
X104004142Y45787458D01*
X103360801Y45145239D01*
X103349989Y45119200D01*
X91946805Y45119200D01*
X91946800Y45119201D01*
X91460792Y45022527D01*
X91048774Y44747226D01*
X91048772Y44747223D01*
X89861982Y43560433D01*
X89556497Y43434210D01*
X89163171Y43041570D01*
X88950043Y42528300D01*
X88949558Y41972539D01*
X87139907Y41972539D01*
X86643992Y42468454D01*
X86644042Y42525861D01*
X86516800Y42833811D01*
X86516800Y50500486D01*
X86541319Y50463791D01*
X87039309Y50131045D01*
X87626728Y50014200D01*
X87686872Y50014200D01*
X88274291Y50131045D01*
X88694826Y50412037D01*
X88832710Y50197759D01*
X89044910Y50052769D01*
X89296800Y50001760D01*
X91096800Y50001760D01*
X91332117Y50046038D01*
X91548241Y50185110D01*
X91693231Y50397310D01*
X91744240Y50649200D01*
X91744240Y52449200D01*
X91699962Y52684517D01*
X91560890Y52900641D01*
X91348690Y53045631D01*
X91096800Y53096640D01*
X89296800Y53096640D01*
X89061483Y53052362D01*
X88926800Y52965696D01*
X88926800Y55783148D01*
X100322851Y67179200D01*
X100332055Y67179200D01*
X100757711Y67002452D01*
X101333363Y67001950D01*
X101865389Y67221778D01*
X102272791Y67628470D01*
X102493548Y68160111D01*
X102494050Y68735763D01*
X102274222Y69267789D01*
X101867530Y69675191D01*
X101335889Y69895948D01*
X100760237Y69896450D01*
X100331258Y69719200D01*
X99796805Y69719200D01*
X99796800Y69719201D01*
X99310792Y69622527D01*
X98898774Y69347226D01*
X98898772Y69347223D01*
X86758774Y57207226D01*
X86483473Y56795208D01*
X86386799Y56309200D01*
X86386800Y56309195D01*
X86386800Y52403355D01*
X86232281Y52634609D01*
X85734291Y52967355D01*
X85146872Y53084200D01*
X85086728Y53084200D01*
X84499309Y52967355D01*
X84001319Y52634609D01*
X83668573Y52136619D01*
X83551728Y51549200D01*
X71595040Y51549200D01*
X71595040Y56649220D01*
X71550762Y56884537D01*
X71411690Y57100661D01*
X71199490Y57245651D01*
X70947600Y57296660D01*
X70640260Y57296660D01*
X70640260Y60910268D01*
X70787400Y60881000D01*
X78610600Y60881000D01*
X79048007Y60968006D01*
X79418823Y61215777D01*
X93605023Y75401977D01*
X93852794Y75772793D01*
X93939800Y76210200D01*
X93939800Y84026737D01*
X94393893Y84480039D01*
X94681472Y85172605D01*
X94682126Y85922505D01*
X94395757Y86615572D01*
X93865961Y87146293D01*
X93429208Y87327649D01*
X111183016Y87327649D01*
X111538884Y87054447D01*
X112785497Y87016809D01*
X112974716Y87054447D01*
X113330584Y87327649D01*
X112256800Y88401433D01*
X111183016Y87327649D01*
X93429208Y87327649D01*
X93173395Y87433872D01*
X92423495Y87434526D01*
X91730428Y87148157D01*
X91199707Y86618361D01*
X90912128Y85925795D01*
X90911474Y85175895D01*
X91197843Y84482828D01*
X91653800Y84026075D01*
X91653800Y76683646D01*
X78575574Y63605420D01*
X78603840Y63745000D01*
X78603840Y66145000D01*
X78559562Y66380317D01*
X78420490Y66596441D01*
X78208290Y66741431D01*
X77956400Y66792440D01*
X77899400Y66792440D01*
X77899400Y72011400D01*
X77812394Y72448807D01*
X77564623Y72819623D01*
X75704758Y74679488D01*
X75704848Y74782387D01*
X75486843Y75310000D01*
X75412600Y75384373D01*
X75412600Y85476400D01*
X75325594Y85913807D01*
X75077823Y86284623D01*
X73494240Y87868206D01*
X73494240Y88499200D01*
X73449962Y88734517D01*
X73310890Y88950641D01*
X73189800Y89033378D01*
X73189800Y89199200D01*
X73102794Y89636607D01*
X72855023Y90007423D01*
X72105023Y90757423D01*
X71734207Y91005194D01*
X71296800Y91092200D01*
X63296800Y91092200D01*
X62859393Y91005194D01*
X62488577Y90757423D01*
X50153354Y78422200D01*
X34971623Y78422200D01*
X34844341Y78612691D01*
X34689800Y78715952D01*
X34689800Y79101760D01*
X34746800Y79101760D01*
X34982117Y79146038D01*
X35198241Y79285110D01*
X35343231Y79497310D01*
X35394240Y79749200D01*
X35394240Y82149200D01*
X35349962Y82384517D01*
X35210890Y82600641D01*
X34998690Y82745631D01*
X34746800Y82796640D01*
X32346800Y82796640D01*
X32111483Y82752362D01*
X31895359Y82613290D01*
X31750369Y82401090D01*
X31699360Y82149200D01*
X31699360Y79749200D01*
X31743638Y79513883D01*
X31882710Y79297759D01*
X32094910Y79152769D01*
X32346800Y79101760D01*
X32403800Y79101760D01*
X32403800Y78715952D01*
X32249259Y78612691D01*
X31851481Y78017374D01*
X31711800Y77315150D01*
X31711800Y77243250D01*
X31851481Y76541026D01*
X32249259Y75945709D01*
X32844576Y75547931D01*
X33546800Y75408250D01*
X34249024Y75547931D01*
X34463822Y75691455D01*
X54218661Y75691455D01*
X54292795Y75445336D01*
X54830023Y75252235D01*
X55400254Y75279422D01*
X55800805Y75445336D01*
X55874939Y75691455D01*
X55046800Y76519595D01*
X54218661Y75691455D01*
X34463822Y75691455D01*
X34844341Y75945709D01*
X34971623Y76136200D01*
X50626800Y76136200D01*
X51064207Y76223206D01*
X51435023Y76470977D01*
X51880023Y76915977D01*
X53599835Y76915977D01*
X53627022Y76345746D01*
X53792936Y75945195D01*
X54039055Y75871061D01*
X54867195Y76699200D01*
X54039055Y77527339D01*
X53792936Y77453205D01*
X53599835Y76915977D01*
X51880023Y76915977D01*
X52670991Y77706945D01*
X54218661Y77706945D01*
X55046800Y76878805D01*
X55874939Y77706945D01*
X55800805Y77953064D01*
X55263577Y78146165D01*
X54693346Y78118978D01*
X54292795Y77953064D01*
X54218661Y77706945D01*
X52670991Y77706945D01*
X62552287Y87588241D01*
X63654886Y87588241D01*
X63776171Y87366200D01*
X64919800Y87366200D01*
X64919800Y88509115D01*
X65173800Y88509115D01*
X65173800Y87366200D01*
X66317429Y87366200D01*
X66438714Y87588241D01*
X66283603Y87915977D01*
X68099835Y87915977D01*
X68127022Y87345746D01*
X68292936Y86945195D01*
X68539055Y86871061D01*
X69367195Y87699200D01*
X68539055Y88527339D01*
X68292936Y88453205D01*
X68099835Y87915977D01*
X66283603Y87915977D01*
X66199189Y88094334D01*
X65784223Y88470241D01*
X65395839Y88631104D01*
X65173800Y88509115D01*
X64919800Y88509115D01*
X64697761Y88631104D01*
X64309377Y88470241D01*
X63894411Y88094334D01*
X63654886Y87588241D01*
X62552287Y87588241D01*
X63770246Y88806200D01*
X68748558Y88806200D01*
X68718661Y88706945D01*
X69546800Y87878805D01*
X70374939Y88706945D01*
X70345042Y88806200D01*
X70688024Y88806200D01*
X70650369Y88751090D01*
X70602154Y88512999D01*
X70554545Y88527339D01*
X69726405Y87699200D01*
X70554545Y86871061D01*
X70601967Y86885345D01*
X70643638Y86663883D01*
X70782710Y86447759D01*
X70994910Y86302769D01*
X71246800Y86251760D01*
X71877794Y86251760D01*
X73126600Y85002954D01*
X73126600Y75384820D01*
X73053776Y75312123D01*
X72997355Y75176246D01*
X72872600Y75362955D01*
X72872600Y78016400D01*
X72785594Y78453807D01*
X72537823Y78824623D01*
X66481958Y84880488D01*
X66482048Y84983387D01*
X66264043Y85511000D01*
X65860723Y85915024D01*
X65710232Y85977513D01*
X65784223Y86008159D01*
X66199189Y86384066D01*
X66344670Y86691455D01*
X68718661Y86691455D01*
X68792795Y86445336D01*
X69330023Y86252235D01*
X69900254Y86279422D01*
X70300805Y86445336D01*
X70374939Y86691455D01*
X69546800Y87519595D01*
X68718661Y86691455D01*
X66344670Y86691455D01*
X66438714Y86890159D01*
X66317429Y87112200D01*
X65173800Y87112200D01*
X65173800Y87092200D01*
X64919800Y87092200D01*
X64919800Y87112200D01*
X63776171Y87112200D01*
X63654886Y86890159D01*
X63894411Y86384066D01*
X64309377Y86008159D01*
X64383085Y85977630D01*
X64235000Y85916443D01*
X63830976Y85513123D01*
X63612050Y84985891D01*
X63611958Y84880804D01*
X60118577Y81387423D01*
X59870806Y81016607D01*
X59783800Y80579200D01*
X59783800Y73433955D01*
X59572920Y73118351D01*
X59475860Y72630398D01*
X59466800Y72632200D01*
X58689800Y72632200D01*
X58689800Y75365330D01*
X58798241Y75435110D01*
X58943231Y75647310D01*
X58994240Y75899200D01*
X58994240Y77499200D01*
X58949962Y77734517D01*
X58810890Y77950641D01*
X58598690Y78095631D01*
X58346800Y78146640D01*
X56746800Y78146640D01*
X56511483Y78102362D01*
X56295359Y77963290D01*
X56150369Y77751090D01*
X56102154Y77512999D01*
X56054545Y77527339D01*
X55226405Y76699200D01*
X56054545Y75871061D01*
X56101967Y75885345D01*
X56143638Y75663883D01*
X56282710Y75447759D01*
X56403800Y75365022D01*
X56403800Y72339994D01*
X56221033Y72066464D01*
X56111800Y71517313D01*
X56111800Y71461087D01*
X56221033Y70911936D01*
X56532102Y70446389D01*
X56868510Y70221608D01*
X56735000Y70166443D01*
X56330976Y69763123D01*
X56112050Y69235891D01*
X56111958Y69130804D01*
X54198577Y67217423D01*
X53950806Y66846607D01*
X53863800Y66409200D01*
X53863800Y65813955D01*
X53652920Y65498351D01*
X53543687Y64949200D01*
X53652920Y64400049D01*
X53863800Y64084445D01*
X53863800Y63520646D01*
X49627023Y67757423D01*
X49256207Y68005194D01*
X48818800Y68092200D01*
X34630670Y68092200D01*
X34560890Y68200641D01*
X34348690Y68345631D01*
X34096800Y68396640D01*
X32496800Y68396640D01*
X32261483Y68352362D01*
X32045359Y68213290D01*
X31900369Y68001090D01*
X31852154Y67762999D01*
X31804545Y67777339D01*
X30976405Y66949200D01*
X31804545Y66121061D01*
X31851967Y66135345D01*
X31893638Y65913883D01*
X32032710Y65697759D01*
X32153800Y65615022D01*
X32153800Y62902200D01*
X26750246Y62902200D01*
X23710991Y65941455D01*
X29968661Y65941455D01*
X30042795Y65695336D01*
X30580023Y65502235D01*
X31150254Y65529422D01*
X31550805Y65695336D01*
X31624939Y65941455D01*
X30796800Y66769595D01*
X29968661Y65941455D01*
X23710991Y65941455D01*
X23511840Y66140606D01*
X23440680Y66498351D01*
X23129611Y66963898D01*
X22827179Y67165977D01*
X29349835Y67165977D01*
X29377022Y66595746D01*
X29542936Y66195195D01*
X29789055Y66121061D01*
X30617195Y66949200D01*
X29789055Y67777339D01*
X29542936Y67703205D01*
X29349835Y67165977D01*
X22827179Y67165977D01*
X22664064Y67274967D01*
X22114913Y67384200D01*
X22058687Y67384200D01*
X21509536Y67274967D01*
X21043989Y66963898D01*
X20819208Y66627490D01*
X20764043Y66761000D01*
X20360723Y67165024D01*
X19833491Y67383950D01*
X19262613Y67384448D01*
X18735000Y67166443D01*
X18330976Y66763123D01*
X18112050Y66235891D01*
X18111552Y65665013D01*
X18329557Y65137400D01*
X18403800Y65063027D01*
X18403800Y61950896D01*
X18345359Y61913290D01*
X18200369Y61701090D01*
X18149360Y61449200D01*
X18149360Y60449200D01*
X18193638Y60213883D01*
X18332710Y59997759D01*
X18403800Y59949185D01*
X18403800Y52962200D01*
X17482087Y52962200D01*
X17307682Y53078733D01*
X17125488Y53114974D01*
X17490788Y53359058D01*
X17780179Y53792164D01*
X17881800Y54303046D01*
X17881800Y54355354D01*
X17780179Y54866236D01*
X17490788Y55299342D01*
X17057682Y55588733D01*
X16546800Y55690354D01*
X16035918Y55588733D01*
X15981242Y55552200D01*
X15017594Y55552200D01*
X14827525Y55679200D01*
X15209611Y55934502D01*
X15520680Y56400049D01*
X15629913Y56949200D01*
X15520680Y57498351D01*
X15309800Y57813955D01*
X15309800Y59829200D01*
X15222794Y60266607D01*
X14975023Y60637423D01*
X14598521Y61013925D01*
X15791131Y61013925D01*
X15852969Y60778158D01*
X16353922Y60601781D01*
X16884240Y60630536D01*
X17240631Y60778158D01*
X17302469Y61013925D01*
X16546800Y61769595D01*
X15791131Y61013925D01*
X14598521Y61013925D01*
X13470368Y62142078D01*
X15199381Y62142078D01*
X15228136Y61611760D01*
X15375758Y61255369D01*
X15611525Y61193531D01*
X16367195Y61949200D01*
X16726405Y61949200D01*
X17482075Y61193531D01*
X17717842Y61255369D01*
X17894219Y61756322D01*
X17865464Y62286640D01*
X17717842Y62643031D01*
X17482075Y62704869D01*
X16726405Y61949200D01*
X16367195Y61949200D01*
X15611525Y62704869D01*
X15375758Y62643031D01*
X15199381Y62142078D01*
X13470368Y62142078D01*
X12981958Y62630488D01*
X12982048Y62733387D01*
X12921191Y62880671D01*
X12940314Y62884475D01*
X15791131Y62884475D01*
X16546800Y62128805D01*
X17302469Y62884475D01*
X17240631Y63120242D01*
X16739678Y63296619D01*
X16209360Y63267864D01*
X15852969Y63120242D01*
X15791131Y62884475D01*
X12940314Y62884475D01*
X12984207Y62893206D01*
X13355023Y63140977D01*
X13602794Y63511793D01*
X13689800Y63949200D01*
X13602794Y64386607D01*
X13355023Y64757423D01*
X12984207Y65005194D01*
X12546800Y65092200D01*
X11046800Y65092200D01*
X10609393Y65005194D01*
X10238577Y64757423D01*
X9990806Y64386607D01*
X9903800Y63949200D01*
X9917086Y63882407D01*
X9846800Y63896640D01*
X8246800Y63896640D01*
X8011483Y63852362D01*
X7795359Y63713290D01*
X7650369Y63501090D01*
X7599360Y63249200D01*
X7599360Y62618206D01*
X5738577Y60757423D01*
X5490806Y60386607D01*
X5439800Y60130184D01*
X5439800Y67956945D01*
X29968661Y67956945D01*
X30796800Y67128805D01*
X31624939Y67956945D01*
X31550805Y68203064D01*
X31013577Y68396165D01*
X30443346Y68368978D01*
X30042795Y68203064D01*
X29968661Y67956945D01*
X5439800Y67956945D01*
X5439800Y75869041D01*
X15646246Y75869041D01*
X15732652Y75612557D01*
X16306136Y75402742D01*
X16916260Y75428361D01*
X17108472Y75507978D01*
X16912311Y75035569D01*
X16911292Y73867954D01*
X17357177Y72788828D01*
X18182085Y71962479D01*
X19260431Y71514711D01*
X20428046Y71513692D01*
X21507172Y71959577D01*
X22333521Y72784485D01*
X22588772Y73399200D01*
X31699360Y73399200D01*
X31699360Y70999200D01*
X31743638Y70763883D01*
X31882710Y70547759D01*
X32094910Y70402769D01*
X32346800Y70351760D01*
X34746800Y70351760D01*
X34982117Y70396038D01*
X35198241Y70535110D01*
X35343231Y70747310D01*
X35394240Y70999200D01*
X35394240Y73399200D01*
X35349962Y73634517D01*
X35210890Y73850641D01*
X34998690Y73995631D01*
X34746800Y74046640D01*
X32346800Y74046640D01*
X32111483Y74002362D01*
X31895359Y73863290D01*
X31750369Y73651090D01*
X31699360Y73399200D01*
X22588772Y73399200D01*
X22781289Y73862831D01*
X22782308Y75030446D01*
X22336423Y76109572D01*
X21511515Y76935921D01*
X20433169Y77383689D01*
X19265554Y77384708D01*
X18186428Y76938823D01*
X18087726Y76840293D01*
X18067639Y77318660D01*
X17883443Y77763348D01*
X17626959Y77849754D01*
X16726405Y76949200D01*
X16740548Y76935057D01*
X16560943Y76755452D01*
X16546800Y76769595D01*
X15646246Y75869041D01*
X5439800Y75869041D01*
X5439800Y77189864D01*
X15000342Y77189864D01*
X15025961Y76579740D01*
X15210157Y76135052D01*
X15466641Y76048646D01*
X16367195Y76949200D01*
X15466641Y77849754D01*
X15210157Y77763348D01*
X15000342Y77189864D01*
X5439800Y77189864D01*
X5439800Y91475754D01*
X6062885Y92098839D01*
X6011800Y91975509D01*
X6011800Y91234950D01*
X6170550Y91076200D01*
X7419800Y91076200D01*
X7419800Y92325450D01*
X7261050Y92484200D01*
X6520490Y92484200D01*
X6397162Y92433116D01*
X8770246Y94806200D01*
X11579954Y94806200D01*
X9120777Y92347023D01*
X9001719Y92168840D01*
X8985127Y92208898D01*
X8806499Y92387527D01*
X8573110Y92484200D01*
X7832550Y92484200D01*
X7673800Y92325450D01*
X7673800Y91076200D01*
X7693800Y91076200D01*
X7693800Y90822200D01*
X7673800Y90822200D01*
X7673800Y90802200D01*
X7419800Y90802200D01*
X7419800Y90822200D01*
X6170550Y90822200D01*
X6011800Y90663450D01*
X6011800Y89922891D01*
X6108473Y89689502D01*
X6287101Y89510873D01*
X6421794Y89455081D01*
X6246249Y89279843D01*
X6012067Y88715870D01*
X6011535Y88105209D01*
X6244732Y87540829D01*
X6676157Y87108649D01*
X7240130Y86874467D01*
X7850791Y86873935D01*
X8415171Y87107132D01*
X8574517Y87266200D01*
X9898200Y87266200D01*
X10335607Y87353206D01*
X10706423Y87600977D01*
X10737223Y87631777D01*
X10984994Y88002593D01*
X11072000Y88440000D01*
X11072000Y91065354D01*
X13374246Y93367600D01*
X14237025Y93367600D01*
X14153800Y92949200D01*
X14153800Y82449200D01*
X14240806Y82011793D01*
X14488577Y81640977D01*
X14988577Y81140977D01*
X15359393Y80893206D01*
X15450023Y80875178D01*
X15625982Y80698912D01*
X15246249Y80319843D01*
X15012067Y79755870D01*
X15011535Y79145209D01*
X15244732Y78580829D01*
X15676157Y78148649D01*
X15685172Y78144906D01*
X15646246Y78029359D01*
X16546800Y77128805D01*
X17447354Y78029359D01*
X17408593Y78144414D01*
X17415171Y78147132D01*
X17847351Y78578557D01*
X18081533Y79142530D01*
X18082065Y79753191D01*
X17848868Y80317571D01*
X17467618Y80699488D01*
X17847351Y81078557D01*
X18081533Y81642530D01*
X18081899Y82062840D01*
X18182085Y81962479D01*
X19260431Y81514711D01*
X20428046Y81513692D01*
X21507172Y81959577D01*
X22333521Y82784485D01*
X22484963Y83149200D01*
X37449360Y83149200D01*
X37449360Y80749200D01*
X37493638Y80513883D01*
X37632710Y80297759D01*
X37844910Y80152769D01*
X38096800Y80101760D01*
X39586998Y80101760D01*
X39779393Y79973206D01*
X40216800Y79886200D01*
X40654207Y79973206D01*
X41025023Y80220977D01*
X41214045Y80503869D01*
X41499393Y80313206D01*
X41936800Y80226200D01*
X42374207Y80313206D01*
X42745023Y80560977D01*
X49511695Y87327649D01*
X56183016Y87327649D01*
X56538884Y87054447D01*
X57785497Y87016809D01*
X57974716Y87054447D01*
X58330584Y87327649D01*
X57256800Y88401433D01*
X56183016Y87327649D01*
X49511695Y87327649D01*
X51824549Y89640503D01*
X54104409Y89640503D01*
X54142047Y89451284D01*
X54415249Y89095416D01*
X55489033Y90169200D01*
X59024567Y90169200D01*
X60098351Y89095416D01*
X60371553Y89451284D01*
X60409191Y90697897D01*
X60371553Y90887116D01*
X60098351Y91242984D01*
X59024567Y90169200D01*
X55489033Y90169200D01*
X54415249Y91242984D01*
X54142047Y90887116D01*
X54104409Y89640503D01*
X51824549Y89640503D01*
X55030246Y92846200D01*
X56347567Y92846200D01*
X57256800Y91936967D01*
X58166033Y92846200D01*
X76883354Y92846200D01*
X83912034Y85817520D01*
X83911474Y85175895D01*
X84197843Y84482828D01*
X84727639Y83952107D01*
X85420205Y83664528D01*
X86170105Y83663874D01*
X86863172Y83950243D01*
X87393893Y84480039D01*
X87681472Y85172605D01*
X87682126Y85922505D01*
X87395757Y86615572D01*
X86865961Y87146293D01*
X86173395Y87433872D01*
X85528011Y87434435D01*
X83321943Y89640503D01*
X109104409Y89640503D01*
X109142047Y89451284D01*
X109415249Y89095416D01*
X110489033Y90169200D01*
X114024567Y90169200D01*
X115098351Y89095416D01*
X115371553Y89451284D01*
X115409191Y90697897D01*
X115371553Y90887116D01*
X115098351Y91242984D01*
X114024567Y90169200D01*
X110489033Y90169200D01*
X109415249Y91242984D01*
X109142047Y90887116D01*
X109104409Y89640503D01*
X83321943Y89640503D01*
X79951695Y93010751D01*
X111183016Y93010751D01*
X112256800Y91936967D01*
X113330584Y93010751D01*
X112974716Y93283953D01*
X111728103Y93321591D01*
X111538884Y93283953D01*
X111183016Y93010751D01*
X79951695Y93010751D01*
X78165023Y94797423D01*
X77794207Y95045194D01*
X77356800Y95132200D01*
X54556800Y95132200D01*
X54119393Y95045194D01*
X53748577Y94797423D01*
X53435325Y94484171D01*
X53418656Y94934660D01*
X53216187Y95423464D01*
X52949332Y95522127D01*
X51976405Y94549200D01*
X51990548Y94535057D01*
X51810943Y94355452D01*
X51796800Y94369595D01*
X50823873Y93396668D01*
X50922536Y93129813D01*
X51532261Y92903292D01*
X51866826Y92915672D01*
X41144240Y82193086D01*
X41144240Y83149200D01*
X41099962Y83384517D01*
X40960890Y83600641D01*
X40748690Y83745631D01*
X40496800Y83796640D01*
X38096800Y83796640D01*
X37861483Y83752362D01*
X37645359Y83613290D01*
X37500369Y83401090D01*
X37449360Y83149200D01*
X22484963Y83149200D01*
X22781289Y83862831D01*
X22782308Y85030446D01*
X22336423Y86109572D01*
X21511515Y86935921D01*
X20433169Y87383689D01*
X19265554Y87384708D01*
X18186428Y86938823D01*
X17360079Y86113915D01*
X16912311Y85035569D01*
X16911292Y83867954D01*
X17114803Y83375418D01*
X16853470Y83483933D01*
X16439800Y83484293D01*
X16439800Y92949200D01*
X16356575Y93367600D01*
X27311754Y93367600D01*
X29538377Y91140977D01*
X29909193Y90893206D01*
X30075217Y90860182D01*
X30429536Y90623433D01*
X30978687Y90514200D01*
X31034913Y90514200D01*
X31584064Y90623433D01*
X32049611Y90934502D01*
X32274392Y91270910D01*
X32329557Y91137400D01*
X32403800Y91063027D01*
X32403800Y87465952D01*
X32249259Y87362691D01*
X31851481Y86767374D01*
X31711800Y86065150D01*
X31711800Y85993250D01*
X31851481Y85291026D01*
X32249259Y84695709D01*
X32844576Y84297931D01*
X33546800Y84158250D01*
X34249024Y84297931D01*
X34844341Y84695709D01*
X35242119Y85291026D01*
X35381800Y85993250D01*
X35381800Y86065150D01*
X35242119Y86767374D01*
X34844341Y87362691D01*
X34689800Y87465952D01*
X34689800Y90806200D01*
X35906006Y90806200D01*
X36179536Y90623433D01*
X36728687Y90514200D01*
X36784913Y90514200D01*
X37334064Y90623433D01*
X37799611Y90934502D01*
X38024392Y91270910D01*
X38079557Y91137400D01*
X38153800Y91063027D01*
X38153800Y88465952D01*
X37999259Y88362691D01*
X37601481Y87767374D01*
X37461800Y87065150D01*
X37461800Y86993250D01*
X37601481Y86291026D01*
X37999259Y85695709D01*
X38594576Y85297931D01*
X39296800Y85158250D01*
X39999024Y85297931D01*
X40594341Y85695709D01*
X40992119Y86291026D01*
X41131800Y86993250D01*
X41131800Y87065150D01*
X40992119Y87767374D01*
X40594341Y88362691D01*
X40439800Y88465952D01*
X40439800Y91062580D01*
X40512624Y91135277D01*
X40731550Y91662509D01*
X40732048Y92233387D01*
X40514043Y92761000D01*
X40439800Y92835373D01*
X40439800Y93949200D01*
X40384860Y94225405D01*
X46661516Y94225405D01*
X46909906Y93624257D01*
X47369437Y93163922D01*
X47970152Y92914484D01*
X48620595Y92913916D01*
X49221743Y93162306D01*
X49682078Y93621837D01*
X49931516Y94222552D01*
X49932032Y94813739D01*
X50150892Y94813739D01*
X50174944Y94163740D01*
X50377413Y93674936D01*
X50644268Y93576273D01*
X51617195Y94549200D01*
X50644268Y95522127D01*
X50377413Y95423464D01*
X50150892Y94813739D01*
X49932032Y94813739D01*
X49932084Y94872995D01*
X49683694Y95474143D01*
X49456503Y95701732D01*
X50823873Y95701732D01*
X51796800Y94728805D01*
X52769727Y95701732D01*
X52671064Y95968587D01*
X52061339Y96195108D01*
X51411340Y96171056D01*
X50922536Y95968587D01*
X50823873Y95701732D01*
X49456503Y95701732D01*
X49224163Y95934478D01*
X48623448Y96183916D01*
X47973005Y96184484D01*
X47371857Y95936094D01*
X46911522Y95476563D01*
X46662084Y94875848D01*
X46661516Y94225405D01*
X40384860Y94225405D01*
X40352794Y94386607D01*
X40105023Y94757423D01*
X38105023Y96757423D01*
X37734207Y97005194D01*
X37296800Y97092200D01*
X8296800Y97092200D01*
X7859393Y97005194D01*
X7488577Y96757423D01*
X3488577Y92757423D01*
X3240806Y92386607D01*
X3153800Y91949200D01*
X78880Y91949200D01*
X78880Y98422200D01*
X120312320Y98422200D01*
X120312320Y86100D01*
G36*
X70586600Y77542954D02*
X70586600Y75362955D01*
X70375720Y75047351D01*
X70266487Y74498200D01*
X70375720Y73949049D01*
X70686789Y73483502D01*
X71152336Y73172433D01*
X71701487Y73063200D01*
X71757713Y73063200D01*
X72306864Y73172433D01*
X72772411Y73483502D01*
X72997192Y73819910D01*
X73052357Y73686400D01*
X73455677Y73282376D01*
X73982909Y73063450D01*
X74087996Y73063358D01*
X75613400Y71537954D01*
X75613400Y66792440D01*
X75556400Y66792440D01*
X75321083Y66748162D01*
X75104959Y66609090D01*
X74959969Y66396890D01*
X74908960Y66145000D01*
X74908960Y63745000D01*
X74953238Y63509683D01*
X75092310Y63293559D01*
X75277535Y63167000D01*
X71998908Y63167000D01*
X72414574Y63249681D01*
X73009891Y63647459D01*
X73407669Y64242776D01*
X73547350Y64945000D01*
X73407669Y65647224D01*
X73009891Y66242541D01*
X72414574Y66640319D01*
X71712350Y66780000D01*
X71640450Y66780000D01*
X70938226Y66640319D01*
X70342909Y66242541D01*
X70242454Y66092200D01*
X69880670Y66092200D01*
X69810890Y66200641D01*
X69598690Y66345631D01*
X69439184Y66377932D01*
X69777841Y66751777D01*
X69938704Y67140161D01*
X69816715Y67362200D01*
X68673800Y67362200D01*
X68673800Y67342200D01*
X68419800Y67342200D01*
X68419800Y67362200D01*
X68399800Y67362200D01*
X68399800Y67616200D01*
X68419800Y67616200D01*
X68419800Y67636200D01*
X68673800Y67636200D01*
X68673800Y67616200D01*
X69816715Y67616200D01*
X69938704Y67838239D01*
X69777841Y68226623D01*
X69401934Y68641589D01*
X69185097Y68744214D01*
X69589611Y69014502D01*
X69900680Y69480049D01*
X70009913Y70029200D01*
X69900680Y70578351D01*
X69589611Y71043898D01*
X69185097Y71314186D01*
X69401934Y71416811D01*
X69777841Y71831777D01*
X69938704Y72220161D01*
X69816715Y72442200D01*
X68673800Y72442200D01*
X68673800Y72422200D01*
X68419800Y72422200D01*
X68419800Y72442200D01*
X67276885Y72442200D01*
X67154896Y72220161D01*
X67315759Y71831777D01*
X67653468Y71458978D01*
X66689800Y72422646D01*
X66689800Y72918239D01*
X67154896Y72918239D01*
X67276885Y72696200D01*
X68419800Y72696200D01*
X68419800Y73839829D01*
X68673800Y73839829D01*
X68673800Y72696200D01*
X69816715Y72696200D01*
X69938704Y72918239D01*
X69777841Y73306623D01*
X69401934Y73721589D01*
X68895841Y73961114D01*
X68673800Y73839829D01*
X68419800Y73839829D01*
X68197759Y73961114D01*
X67691666Y73721589D01*
X67315759Y73306623D01*
X67154896Y72918239D01*
X66689800Y72918239D01*
X66689800Y75615330D01*
X66798241Y75685110D01*
X66943231Y75897310D01*
X66994240Y76149200D01*
X66994240Y77749200D01*
X66949962Y77984517D01*
X66810890Y78200641D01*
X66598690Y78345631D01*
X66360599Y78393846D01*
X66374939Y78441455D01*
X65546800Y79269595D01*
X64718661Y78441455D01*
X64732945Y78394033D01*
X64511483Y78352362D01*
X64295359Y78213290D01*
X64150369Y78001090D01*
X64099360Y77749200D01*
X64099360Y76149200D01*
X64143638Y75913883D01*
X64282710Y75697759D01*
X64403800Y75615022D01*
X64403800Y71949200D01*
X64490806Y71511793D01*
X64738577Y71140977D01*
X66658577Y69220977D01*
X67029393Y68973206D01*
X67466800Y68886200D01*
X67696006Y68886200D01*
X67908503Y68744214D01*
X67691666Y68641589D01*
X67315759Y68226623D01*
X67154896Y67838239D01*
X67276884Y67616202D01*
X67246244Y67616202D01*
X64025023Y70837423D01*
X63654207Y71085194D01*
X63216800Y71172200D01*
X61777594Y71172200D01*
X61587525Y71299200D01*
X61969611Y71554502D01*
X62280680Y72020049D01*
X62389913Y72569200D01*
X62280680Y73118351D01*
X62069800Y73433955D01*
X62069800Y79665977D01*
X64099835Y79665977D01*
X64127022Y79095746D01*
X64292936Y78695195D01*
X64539055Y78621061D01*
X65367195Y79449200D01*
X65726405Y79449200D01*
X66554545Y78621061D01*
X66800664Y78695195D01*
X66993765Y79232423D01*
X66966578Y79802654D01*
X66800664Y80203205D01*
X66554545Y80277339D01*
X65726405Y79449200D01*
X65367195Y79449200D01*
X64539055Y80277339D01*
X64292936Y80203205D01*
X64099835Y79665977D01*
X62069800Y79665977D01*
X62069800Y80105754D01*
X62420991Y80456945D01*
X64718661Y80456945D01*
X65546800Y79628805D01*
X66374939Y80456945D01*
X66300805Y80703064D01*
X65763577Y80896165D01*
X65193346Y80868978D01*
X64792795Y80703064D01*
X64718661Y80456945D01*
X62420991Y80456945D01*
X65046800Y83082754D01*
X70586600Y77542954D01*
X70586600Y77542954D01*
G37*
X70586600Y77542954D02*
X70586600Y75362955D01*
X70375720Y75047351D01*
X70266487Y74498200D01*
X70375720Y73949049D01*
X70686789Y73483502D01*
X71152336Y73172433D01*
X71701487Y73063200D01*
X71757713Y73063200D01*
X72306864Y73172433D01*
X72772411Y73483502D01*
X72997192Y73819910D01*
X73052357Y73686400D01*
X73455677Y73282376D01*
X73982909Y73063450D01*
X74087996Y73063358D01*
X75613400Y71537954D01*
X75613400Y66792440D01*
X75556400Y66792440D01*
X75321083Y66748162D01*
X75104959Y66609090D01*
X74959969Y66396890D01*
X74908960Y66145000D01*
X74908960Y63745000D01*
X74953238Y63509683D01*
X75092310Y63293559D01*
X75277535Y63167000D01*
X71998908Y63167000D01*
X72414574Y63249681D01*
X73009891Y63647459D01*
X73407669Y64242776D01*
X73547350Y64945000D01*
X73407669Y65647224D01*
X73009891Y66242541D01*
X72414574Y66640319D01*
X71712350Y66780000D01*
X71640450Y66780000D01*
X70938226Y66640319D01*
X70342909Y66242541D01*
X70242454Y66092200D01*
X69880670Y66092200D01*
X69810890Y66200641D01*
X69598690Y66345631D01*
X69439184Y66377932D01*
X69777841Y66751777D01*
X69938704Y67140161D01*
X69816715Y67362200D01*
X68673800Y67362200D01*
X68673800Y67342200D01*
X68419800Y67342200D01*
X68419800Y67362200D01*
X68399800Y67362200D01*
X68399800Y67616200D01*
X68419800Y67616200D01*
X68419800Y67636200D01*
X68673800Y67636200D01*
X68673800Y67616200D01*
X69816715Y67616200D01*
X69938704Y67838239D01*
X69777841Y68226623D01*
X69401934Y68641589D01*
X69185097Y68744214D01*
X69589611Y69014502D01*
X69900680Y69480049D01*
X70009913Y70029200D01*
X69900680Y70578351D01*
X69589611Y71043898D01*
X69185097Y71314186D01*
X69401934Y71416811D01*
X69777841Y71831777D01*
X69938704Y72220161D01*
X69816715Y72442200D01*
X68673800Y72442200D01*
X68673800Y72422200D01*
X68419800Y72422200D01*
X68419800Y72442200D01*
X67276885Y72442200D01*
X67154896Y72220161D01*
X67315759Y71831777D01*
X67653468Y71458978D01*
X66689800Y72422646D01*
X66689800Y72918239D01*
X67154896Y72918239D01*
X67276885Y72696200D01*
X68419800Y72696200D01*
X68419800Y73839829D01*
X68673800Y73839829D01*
X68673800Y72696200D01*
X69816715Y72696200D01*
X69938704Y72918239D01*
X69777841Y73306623D01*
X69401934Y73721589D01*
X68895841Y73961114D01*
X68673800Y73839829D01*
X68419800Y73839829D01*
X68197759Y73961114D01*
X67691666Y73721589D01*
X67315759Y73306623D01*
X67154896Y72918239D01*
X66689800Y72918239D01*
X66689800Y75615330D01*
X66798241Y75685110D01*
X66943231Y75897310D01*
X66994240Y76149200D01*
X66994240Y77749200D01*
X66949962Y77984517D01*
X66810890Y78200641D01*
X66598690Y78345631D01*
X66360599Y78393846D01*
X66374939Y78441455D01*
X65546800Y79269595D01*
X64718661Y78441455D01*
X64732945Y78394033D01*
X64511483Y78352362D01*
X64295359Y78213290D01*
X64150369Y78001090D01*
X64099360Y77749200D01*
X64099360Y76149200D01*
X64143638Y75913883D01*
X64282710Y75697759D01*
X64403800Y75615022D01*
X64403800Y71949200D01*
X64490806Y71511793D01*
X64738577Y71140977D01*
X66658577Y69220977D01*
X67029393Y68973206D01*
X67466800Y68886200D01*
X67696006Y68886200D01*
X67908503Y68744214D01*
X67691666Y68641589D01*
X67315759Y68226623D01*
X67154896Y67838239D01*
X67276884Y67616202D01*
X67246244Y67616202D01*
X64025023Y70837423D01*
X63654207Y71085194D01*
X63216800Y71172200D01*
X61777594Y71172200D01*
X61587525Y71299200D01*
X61969611Y71554502D01*
X62280680Y72020049D01*
X62389913Y72569200D01*
X62280680Y73118351D01*
X62069800Y73433955D01*
X62069800Y79665977D01*
X64099835Y79665977D01*
X64127022Y79095746D01*
X64292936Y78695195D01*
X64539055Y78621061D01*
X65367195Y79449200D01*
X65726405Y79449200D01*
X66554545Y78621061D01*
X66800664Y78695195D01*
X66993765Y79232423D01*
X66966578Y79802654D01*
X66800664Y80203205D01*
X66554545Y80277339D01*
X65726405Y79449200D01*
X65367195Y79449200D01*
X64539055Y80277339D01*
X64292936Y80203205D01*
X64099835Y79665977D01*
X62069800Y79665977D01*
X62069800Y80105754D01*
X62420991Y80456945D01*
X64718661Y80456945D01*
X65546800Y79628805D01*
X66374939Y80456945D01*
X66300805Y80703064D01*
X65763577Y80896165D01*
X65193346Y80868978D01*
X64792795Y80703064D01*
X64718661Y80456945D01*
X62420991Y80456945D01*
X65046800Y83082754D01*
X70586600Y77542954D01*
M02*
