M48
;DRILL file {KiCad 4.0.5} date Friday, May 26, 2017 'AMt' 10:19:50 AM
;FORMAT={-:-/ absolute / inch / decimal}
FMAT,2
INCH,TZ
T1C0.016
T2C0.028
T3C0.030
T4C0.031
T5C0.033
T6C0.034
T7C0.035
T8C0.039
T9C0.047
T10C0.048
T11C0.061
T12C0.063
T13C0.091
T14C0.098
T15C0.134
%
G90
G05
M72
T1
X0.0609Y3.0689
X0.0609Y2.2421
X0.1692Y0.8838
X0.6022Y3.6594
X0.8778Y2.3996
X1.3207Y0.7952
X2.1159Y2.4419
X2.7869Y2.4419
T2
X0.6514Y2.4389
X0.6514Y2.1389
X0.6613Y2.0401
X0.6613Y1.7401
X0.7696Y2.0401
X0.7696Y1.7401
X1.1389Y0.5492
X1.1389Y0.3917
X1.4389Y0.5492
X1.4389Y0.3917
X1.8719Y1.1988
X1.8818Y0.6181
X1.8818Y0.4704
X1.99Y1.5236
X2.1719Y1.1988
X2.1818Y0.6181
X2.1818Y0.4704
X2.29Y1.5236
T3
X1.3282Y2.4315
X1.3282Y2.3315
X1.3282Y2.2315
X1.3282Y2.1315
X1.4389Y1.1299
X1.4389Y0.9291
X1.6282Y2.4315
X1.6282Y2.3315
X1.6282Y2.2315
X1.6282Y2.1315
X3.3562Y1.6634
X3.557Y1.6634
T4
X0.2577Y2.2421
X0.2577Y2.1421
X0.2577Y2.0421
X0.2577Y1.9421
X0.3562Y2.4586
X0.4546Y2.4586
X0.5577Y2.2421
X0.5577Y2.1421
X0.5577Y2.0421
X0.5577Y1.9421
X0.5629Y1.4744
X0.6613Y1.4744
X0.7696Y2.5964
X0.8696Y2.5964
X1.2125Y2.6358
X1.2207Y3.62
X1.3109Y2.6358
X1.3207Y3.62
X1.37Y1.3858
X1.4471Y3.62
X1.4684Y1.3858
X1.5471Y3.62
X1.7522Y1.5334
X1.8522Y1.5334
X1.8818Y1.0921
X1.8818Y0.9921
X2.1656Y2.5571
X2.1672Y3.0197
X2.2656Y3.0197
X2.2656Y2.8145
X2.2656Y2.7145
X2.2656Y2.5571
X2.3987Y2.8571
X2.3987Y2.7571
X2.3987Y2.6571
X2.3987Y2.5571
X2.5609Y3.4346
X2.5609Y3.3346
X2.5806Y3.1279
X2.5806Y3.0295
X2.6987Y2.8571
X2.6987Y2.7571
X2.6987Y2.6571
X2.6987Y2.5571
X2.7381Y3.4527
X2.824Y2.933
X2.8365Y3.4527
X2.924Y2.933
X3.3581Y1.3956
X3.3581Y1.2956
X3.3581Y1.1838
X3.3581Y0.8838
X3.3581Y0.6886
X3.3581Y0.5886
X3.4581Y1.1838
X3.4581Y0.8838
X3.555Y1.4055
X3.555Y1.3055
X3.5581Y1.1838
X3.5581Y0.8838
T5
X3.9782Y3.1673
X3.9782Y2.9311
X3.9782Y2.6949
T6
X2.6727Y1.6909
X2.9613Y1.6909
T7
X0.2971Y3.5807
X0.2971Y3.4807
T8
X0.6514Y3.2263
X0.6514Y3.1279
X0.6514Y3.0295
X1.8719Y1.3464
X1.9719Y1.3464
X2.0719Y1.3464
X3.3511Y2.0295
X3.4511Y2.0295
X3.5511Y2.0295
T9
X0.9633Y2.2421
X1.1633Y2.2421
X1.3207Y3.387
X1.3207Y3.187
X1.3207Y3.0425
X1.3207Y2.8425
X1.5471Y3.4263
X1.5471Y3.2263
X1.7144Y1.1724
X1.7144Y0.9724
X2.8219Y2.5569
X3.0219Y2.5569
T10
X0.6121Y0.2047
X0.7499Y0.2047
X1.3011Y0.1555
X1.4389Y0.1555
X1.8818Y0.1555
X1.9014Y3.7224
X2.0196Y0.1555
X2.0392Y3.7224
X3.3581Y0.1555
X3.4959Y0.1555
T11
X3.3778Y3.3681
X3.6534Y3.3681
T12
X4.1455Y1.7263
X4.1455Y1.4508
X4.1455Y1.1752
T13
X0.7814Y3.3248
X0.7814Y2.9311
T14
X2.2542Y3.55
X2.2542Y0.3216
X4.4196Y3.55
X4.4196Y0.3216
T15
X4.4329Y2.2382
X4.4329Y0.6634
T8
X3.7617Y0.4901G85X3.8404Y0.4901
G05
X3.7617Y0.2539G85X3.8404Y0.2539
G05
X3.9861Y0.3326G85X3.9861Y0.4114
G05
T0
M30
