G04 #@! TF.FileFunction,Soldermask,Bot*
%FSLAX46Y46*%
G04 Gerber Fmt 4.6, Leading zero omitted, Abs format (unit mm)*
G04 Created by KiCad (PCBNEW 4.0.5) date Friday, May 26, 2017 'AMt' 10:19:46 AM*
%MOMM*%
%LPD*%
G01*
G04 APERTURE LIST*
%ADD10C,0.100000*%
%ADD11R,2.000000X2.000000*%
%ADD12C,2.000000*%
%ADD13C,2.305000*%
%ADD14R,2.200000X2.200000*%
%ADD15C,2.200000*%
%ADD16C,1.800000*%
%ADD17O,1.800000X1.800000*%
%ADD18O,2.000000X2.000000*%
%ADD19O,2.200000X2.200000*%
%ADD20C,5.000000*%
%ADD21R,3.900000X3.900000*%
%ADD22R,2.800000X2.800000*%
%ADD23O,2.800000X2.800000*%
%ADD24C,2.400000*%
%ADD25C,2.124000*%
%ADD26C,2.024000*%
%ADD27C,1.924000*%
%ADD28C,2.900000*%
%ADD29C,6.400000*%
%ADD30C,3.700000*%
%ADD31C,5.400000*%
G04 APERTURE END LIST*
D10*
D11*
X37296800Y35199200D03*
D12*
X34796800Y35199200D03*
D13*
X41356800Y54139200D03*
X41356800Y56679200D03*
X41356800Y59219200D03*
X41356800Y61759200D03*
X33736800Y61759200D03*
X33736800Y59219200D03*
X33736800Y56679200D03*
X33736800Y54139200D03*
D14*
X7546800Y90949200D03*
D15*
X7546800Y88409200D03*
D16*
X19546800Y44199200D03*
D17*
X19546800Y51819200D03*
D16*
X47796800Y15699200D03*
D17*
X55416800Y15699200D03*
D16*
X16796800Y44199200D03*
D17*
X16796800Y51819200D03*
D16*
X47796800Y11949200D03*
D17*
X55416800Y11949200D03*
D16*
X36546800Y13949200D03*
D17*
X28926800Y13949200D03*
D16*
X36546800Y9949200D03*
D17*
X28926800Y9949200D03*
D12*
X39296800Y91949200D03*
D18*
X36756800Y91949200D03*
D12*
X33546800Y91949200D03*
D18*
X31006800Y91949200D03*
D11*
X9046800Y62449200D03*
D12*
X11546800Y62449200D03*
D16*
X16546800Y61949200D03*
D17*
X16546800Y54329200D03*
D11*
X14296800Y37449200D03*
D12*
X16796800Y37449200D03*
D14*
X90196800Y51549200D03*
D19*
X87656800Y51549200D03*
X85116800Y51549200D03*
D15*
X16546800Y76949200D03*
X16546800Y79449200D03*
X16546800Y81949200D03*
D20*
X19846800Y74449200D03*
X19846800Y84449200D03*
D11*
X6546800Y56949200D03*
D18*
X14166800Y49329200D03*
X6546800Y54409200D03*
X14166800Y51869200D03*
X6546800Y51869200D03*
X14166800Y54409200D03*
X6546800Y49329200D03*
X14166800Y56949200D03*
D11*
X33296800Y66949200D03*
D12*
X30796800Y66949200D03*
D21*
X96546800Y12449200D03*
X96546800Y6449200D03*
X101246800Y9449200D03*
D11*
X57546800Y76699200D03*
D12*
X55046800Y76699200D03*
D11*
X65546800Y76949200D03*
D12*
X65546800Y79449200D03*
D11*
X72046800Y87699200D03*
D12*
X69546800Y87699200D03*
D22*
X76756400Y64945000D03*
D23*
X71676400Y64945000D03*
D12*
X57546800Y68949200D03*
D18*
X57546800Y71489200D03*
D12*
X57546800Y64949200D03*
D18*
X55006800Y64949200D03*
D12*
X65046800Y84699200D03*
D18*
X65046800Y87239200D03*
D12*
X74269600Y74498200D03*
D18*
X71729600Y74498200D03*
D12*
X19546800Y65949200D03*
D18*
X22086800Y65949200D03*
D12*
X85296800Y35449200D03*
D18*
X85296800Y32909200D03*
D12*
X90296800Y35699200D03*
D18*
X90296800Y33159200D03*
D11*
X85296800Y22449200D03*
D18*
X90376800Y30069200D03*
X87836800Y22449200D03*
X87836800Y30069200D03*
X90376800Y22449200D03*
X85296800Y30069200D03*
D11*
X68546800Y64949200D03*
D18*
X60926800Y72569200D03*
X68546800Y67489200D03*
X60926800Y70029200D03*
X68546800Y70029200D03*
X60926800Y67489200D03*
X68546800Y72569200D03*
X60926800Y64949200D03*
D22*
X33546800Y80949200D03*
D23*
X33546800Y86029200D03*
D22*
X39296800Y81949200D03*
D23*
X39296800Y87029200D03*
D22*
X33546800Y72199200D03*
D23*
X33546800Y77279200D03*
D22*
X29546800Y56949200D03*
D23*
X24466800Y56949200D03*
D12*
X85296800Y14949200D03*
D18*
X85296800Y17489200D03*
D24*
X48296800Y94549200D03*
X51796800Y94549200D03*
X19046800Y5199200D03*
X15546800Y5199200D03*
D25*
X75216800Y42949200D03*
X67886800Y42949200D03*
D24*
X88796800Y3949200D03*
X85296800Y3949200D03*
D26*
X101046800Y74449200D03*
X101046800Y80449200D03*
X101046800Y68449200D03*
D27*
X36546800Y23599200D03*
X36546800Y28699200D03*
X85246800Y42249200D03*
X90346800Y42249200D03*
D24*
X47796800Y3949200D03*
X51296800Y3949200D03*
X36546800Y3949200D03*
X33046800Y3949200D03*
D16*
X50546800Y38699200D03*
D17*
X58166800Y38699200D03*
D16*
X47546800Y30449200D03*
D17*
X55166800Y30449200D03*
D22*
X43546800Y24699200D03*
D23*
X43546800Y29779200D03*
D12*
X47046800Y38949200D03*
D18*
X44506800Y38949200D03*
D12*
X47796800Y25199200D03*
D18*
X47796800Y27739200D03*
D14*
X47546800Y34199200D03*
D19*
X50086800Y34199200D03*
X52626800Y34199200D03*
D28*
X92796800Y85549200D03*
X85796800Y85549200D03*
D29*
X112596800Y56849200D03*
X112596800Y16849200D03*
D30*
X105296800Y36849200D03*
X105296800Y43849200D03*
X105296800Y29849200D03*
D31*
X57256800Y8169200D03*
X112256800Y8169200D03*
X112256800Y90169200D03*
X57256800Y90169200D03*
M02*
