G04 #@! TF.FileFunction,Copper,L1,Top,Signal*
%FSLAX46Y46*%
G04 Gerber Fmt 4.6, Leading zero omitted, Abs format (unit mm)*
G04 Created by KiCad (PCBNEW 4.0.5) date 05/07/17 17:15:17*
%MOMM*%
%LPD*%
G01*
G04 APERTURE LIST*
%ADD10C,0.025400*%
%ADD11C,1.000000*%
%ADD12R,2.290000X5.080000*%
%ADD13R,2.420000X5.080000*%
%ADD14C,0.970000*%
%ADD15R,0.460000X0.900000*%
%ADD16R,0.460000X0.890000*%
%ADD17R,0.800000X2.800000*%
%ADD18R,2.000000X1.000000*%
%ADD19R,1.250000X1.500000*%
%ADD20R,1.500000X1.250000*%
%ADD21C,0.838200*%
%ADD22C,0.254000*%
G04 APERTURE END LIST*
D10*
D11*
X17881600Y6705600D03*
X889000Y16891000D03*
X889000Y14986000D03*
X889000Y12954000D03*
X889000Y11049000D03*
X889000Y9144000D03*
X889000Y7366000D03*
X889000Y5715000D03*
X889000Y4064000D03*
X1016000Y2413000D03*
X1016000Y889000D03*
X2794000Y889000D03*
X4318000Y889000D03*
X5715000Y889000D03*
X7112000Y889000D03*
X8763000Y889000D03*
X8763000Y2641600D03*
X8788400Y4521200D03*
X8788400Y6477000D03*
X9779000Y8255000D03*
X18288000Y965200D03*
X18237200Y2743200D03*
X11557000Y8255000D03*
X18211800Y4622800D03*
X13157200Y965200D03*
X13157200Y2768600D03*
X13182600Y4800600D03*
X13665200Y6604000D03*
X13970000Y8128000D03*
X14224000Y9652000D03*
X15748000Y10668000D03*
X18034000Y10668000D03*
X20320000Y10668000D03*
X22606000Y10668000D03*
X24638000Y10668000D03*
X26670000Y10668000D03*
X28702000Y10668000D03*
X30988000Y10668000D03*
X35052000Y7112000D03*
X36830000Y7112000D03*
X29210000Y7112000D03*
X26924000Y7112000D03*
X24638000Y7112000D03*
X22606000Y7112000D03*
X22631400Y5181600D03*
X22860000Y3302000D03*
X23368000Y1270000D03*
X25908000Y1270000D03*
X28194000Y1270000D03*
X30734000Y1270000D03*
X33528000Y1270000D03*
X36322000Y1270000D03*
X38862000Y1270000D03*
X38862000Y3302000D03*
X38862000Y5588000D03*
X38862000Y7874000D03*
X33020000Y10922000D03*
X33020000Y12954000D03*
X33020000Y14732000D03*
X33020000Y16764000D03*
X32766000Y18796000D03*
X30480000Y18796000D03*
X28194000Y18796000D03*
X25908000Y18796000D03*
X23876000Y18796000D03*
X21539200Y18745200D03*
X19507200Y18745200D03*
X17018000Y18796000D03*
X14732000Y18796000D03*
X12446000Y18796000D03*
X10414000Y18796000D03*
X8636000Y18796000D03*
X6858000Y18796000D03*
X4826000Y18796000D03*
X2946400Y18846800D03*
D12*
X15758000Y3218000D03*
D13*
X11378000Y3218000D03*
X20138000Y3218000D03*
D14*
X11378000Y6658000D03*
X20138000Y6658000D03*
D15*
X11378000Y6208000D03*
D16*
X20138000Y6208000D03*
D17*
X36331200Y14798000D03*
D18*
X37551200Y18288000D03*
X37551200Y11288000D03*
D17*
X38771200Y14788000D03*
D19*
X31902400Y8870000D03*
X31902400Y6370000D03*
D20*
X20223800Y8864600D03*
X17723800Y8864600D03*
D11*
X1016000Y18897600D03*
D21*
X17723800Y8864600D02*
X16319500Y8864600D01*
X15758000Y8303100D02*
X15758000Y3218000D01*
X16319500Y8864600D02*
X15758000Y8303100D01*
X31902400Y8870000D02*
X20229200Y8870000D01*
X20229200Y8870000D02*
X20223800Y8864600D01*
X37551200Y11288000D02*
X37551200Y9420700D01*
X37000500Y8870000D02*
X31902400Y8870000D01*
X37551200Y9420700D02*
X37000500Y8870000D01*
D22*
G36*
X33665000Y9924100D02*
X33086301Y9924100D01*
X32991490Y10071441D01*
X32779290Y10216431D01*
X32527400Y10267440D01*
X31277400Y10267440D01*
X31042083Y10223162D01*
X30825959Y10084090D01*
X30716643Y9924100D01*
X21448791Y9924100D01*
X21437890Y9941041D01*
X21225690Y10086031D01*
X20973800Y10137040D01*
X19473800Y10137040D01*
X19238483Y10092762D01*
X19022359Y9953690D01*
X18974666Y9883889D01*
X18937890Y9941041D01*
X18725690Y10086031D01*
X18473800Y10137040D01*
X16973800Y10137040D01*
X16738483Y10092762D01*
X16522359Y9953690D01*
X16498451Y9918700D01*
X16319500Y9918700D01*
X15916113Y9838461D01*
X15770986Y9741490D01*
X15574139Y9609961D01*
X15012639Y9048461D01*
X14784139Y8706487D01*
X14703900Y8303100D01*
X14703900Y6405440D01*
X14613000Y6405440D01*
X14377683Y6361162D01*
X14161559Y6222090D01*
X14016569Y6009890D01*
X13965560Y5758000D01*
X13965560Y678000D01*
X14009838Y442683D01*
X14075527Y340600D01*
X391000Y340600D01*
X391000Y5878800D01*
X10778405Y5878800D01*
X10813692Y5665232D01*
X11236564Y5524851D01*
X11680968Y5556982D01*
X11942308Y5665232D01*
X11977595Y5878800D01*
X11378000Y6478395D01*
X10778405Y5878800D01*
X391000Y5878800D01*
X391000Y6799436D01*
X10244851Y6799436D01*
X10276982Y6355032D01*
X10385232Y6093692D01*
X10598800Y6058405D01*
X11198395Y6658000D01*
X11557605Y6658000D01*
X12157200Y6058405D01*
X12370768Y6093692D01*
X12511149Y6516564D01*
X12479018Y6960968D01*
X12370768Y7222308D01*
X12157200Y7257595D01*
X11557605Y6658000D01*
X11198395Y6658000D01*
X10598800Y7257595D01*
X10385232Y7222308D01*
X10244851Y6799436D01*
X391000Y6799436D01*
X391000Y7437200D01*
X10778405Y7437200D01*
X11378000Y6837605D01*
X11977595Y7437200D01*
X11942308Y7650768D01*
X11519436Y7791149D01*
X11075032Y7759018D01*
X10813692Y7650768D01*
X10778405Y7437200D01*
X391000Y7437200D01*
X391000Y19593800D01*
X33665000Y19593800D01*
X33665000Y9924100D01*
X33665000Y9924100D01*
G37*
X33665000Y9924100D02*
X33086301Y9924100D01*
X32991490Y10071441D01*
X32779290Y10216431D01*
X32527400Y10267440D01*
X31277400Y10267440D01*
X31042083Y10223162D01*
X30825959Y10084090D01*
X30716643Y9924100D01*
X21448791Y9924100D01*
X21437890Y9941041D01*
X21225690Y10086031D01*
X20973800Y10137040D01*
X19473800Y10137040D01*
X19238483Y10092762D01*
X19022359Y9953690D01*
X18974666Y9883889D01*
X18937890Y9941041D01*
X18725690Y10086031D01*
X18473800Y10137040D01*
X16973800Y10137040D01*
X16738483Y10092762D01*
X16522359Y9953690D01*
X16498451Y9918700D01*
X16319500Y9918700D01*
X15916113Y9838461D01*
X15770986Y9741490D01*
X15574139Y9609961D01*
X15012639Y9048461D01*
X14784139Y8706487D01*
X14703900Y8303100D01*
X14703900Y6405440D01*
X14613000Y6405440D01*
X14377683Y6361162D01*
X14161559Y6222090D01*
X14016569Y6009890D01*
X13965560Y5758000D01*
X13965560Y678000D01*
X14009838Y442683D01*
X14075527Y340600D01*
X391000Y340600D01*
X391000Y5878800D01*
X10778405Y5878800D01*
X10813692Y5665232D01*
X11236564Y5524851D01*
X11680968Y5556982D01*
X11942308Y5665232D01*
X11977595Y5878800D01*
X11378000Y6478395D01*
X10778405Y5878800D01*
X391000Y5878800D01*
X391000Y6799436D01*
X10244851Y6799436D01*
X10276982Y6355032D01*
X10385232Y6093692D01*
X10598800Y6058405D01*
X11198395Y6658000D01*
X11557605Y6658000D01*
X12157200Y6058405D01*
X12370768Y6093692D01*
X12511149Y6516564D01*
X12479018Y6960968D01*
X12370768Y7222308D01*
X12157200Y7257595D01*
X11557605Y6658000D01*
X11198395Y6658000D01*
X10598800Y7257595D01*
X10385232Y7222308D01*
X10244851Y6799436D01*
X391000Y6799436D01*
X391000Y7437200D01*
X10778405Y7437200D01*
X11378000Y6837605D01*
X11977595Y7437200D01*
X11942308Y7650768D01*
X11519436Y7791149D01*
X11075032Y7759018D01*
X10813692Y7650768D01*
X10778405Y7437200D01*
X391000Y7437200D01*
X391000Y19593800D01*
X33665000Y19593800D01*
X33665000Y9924100D01*
G36*
X39659400Y340600D02*
X17441005Y340600D01*
X17499431Y426110D01*
X17550440Y678000D01*
X17550440Y5758000D01*
X17527710Y5878800D01*
X19538405Y5878800D01*
X19573692Y5665232D01*
X19996564Y5524851D01*
X20440968Y5556982D01*
X20702308Y5665232D01*
X20737595Y5878800D01*
X20138000Y6478395D01*
X19538405Y5878800D01*
X17527710Y5878800D01*
X17506162Y5993317D01*
X17367090Y6209441D01*
X17154890Y6354431D01*
X16903000Y6405440D01*
X16812100Y6405440D01*
X16812100Y6799436D01*
X19004851Y6799436D01*
X19036982Y6355032D01*
X19145232Y6093692D01*
X19358800Y6058405D01*
X19958395Y6658000D01*
X20317605Y6658000D01*
X20917200Y6058405D01*
X21130768Y6093692D01*
X21271149Y6516564D01*
X21239018Y6960968D01*
X21130768Y7222308D01*
X20917200Y7257595D01*
X20317605Y6658000D01*
X19958395Y6658000D01*
X19358800Y7257595D01*
X19145232Y7222308D01*
X19004851Y6799436D01*
X16812100Y6799436D01*
X16812100Y7624905D01*
X16973800Y7592160D01*
X18473800Y7592160D01*
X18709117Y7636438D01*
X18925241Y7775510D01*
X18972934Y7845311D01*
X19009710Y7788159D01*
X19221910Y7643169D01*
X19473800Y7592160D01*
X19564008Y7592160D01*
X19538405Y7437200D01*
X20138000Y6837605D01*
X20737595Y7437200D01*
X20711992Y7592160D01*
X20973800Y7592160D01*
X21209117Y7636438D01*
X21425241Y7775510D01*
X21452838Y7815900D01*
X30718499Y7815900D01*
X30813310Y7668559D01*
X31025510Y7523569D01*
X31277400Y7472560D01*
X32527400Y7472560D01*
X32762717Y7516838D01*
X32978841Y7655910D01*
X33088157Y7815900D01*
X37000500Y7815900D01*
X37403887Y7896139D01*
X37745861Y8124639D01*
X38296561Y8675338D01*
X38426629Y8870000D01*
X38525061Y9017313D01*
X38605300Y9420700D01*
X38605300Y9433800D01*
X39659400Y9433800D01*
X39659400Y340600D01*
X39659400Y340600D01*
G37*
X39659400Y340600D02*
X17441005Y340600D01*
X17499431Y426110D01*
X17550440Y678000D01*
X17550440Y5758000D01*
X17527710Y5878800D01*
X19538405Y5878800D01*
X19573692Y5665232D01*
X19996564Y5524851D01*
X20440968Y5556982D01*
X20702308Y5665232D01*
X20737595Y5878800D01*
X20138000Y6478395D01*
X19538405Y5878800D01*
X17527710Y5878800D01*
X17506162Y5993317D01*
X17367090Y6209441D01*
X17154890Y6354431D01*
X16903000Y6405440D01*
X16812100Y6405440D01*
X16812100Y6799436D01*
X19004851Y6799436D01*
X19036982Y6355032D01*
X19145232Y6093692D01*
X19358800Y6058405D01*
X19958395Y6658000D01*
X20317605Y6658000D01*
X20917200Y6058405D01*
X21130768Y6093692D01*
X21271149Y6516564D01*
X21239018Y6960968D01*
X21130768Y7222308D01*
X20917200Y7257595D01*
X20317605Y6658000D01*
X19958395Y6658000D01*
X19358800Y7257595D01*
X19145232Y7222308D01*
X19004851Y6799436D01*
X16812100Y6799436D01*
X16812100Y7624905D01*
X16973800Y7592160D01*
X18473800Y7592160D01*
X18709117Y7636438D01*
X18925241Y7775510D01*
X18972934Y7845311D01*
X19009710Y7788159D01*
X19221910Y7643169D01*
X19473800Y7592160D01*
X19564008Y7592160D01*
X19538405Y7437200D01*
X20138000Y6837605D01*
X20737595Y7437200D01*
X20711992Y7592160D01*
X20973800Y7592160D01*
X21209117Y7636438D01*
X21425241Y7775510D01*
X21452838Y7815900D01*
X30718499Y7815900D01*
X30813310Y7668559D01*
X31025510Y7523569D01*
X31277400Y7472560D01*
X32527400Y7472560D01*
X32762717Y7516838D01*
X32978841Y7655910D01*
X33088157Y7815900D01*
X37000500Y7815900D01*
X37403887Y7896139D01*
X37745861Y8124639D01*
X38296561Y8675338D01*
X38426629Y8870000D01*
X38525061Y9017313D01*
X38605300Y9420700D01*
X38605300Y9433800D01*
X39659400Y9433800D01*
X39659400Y340600D01*
M02*
