G04 #@! TF.FileFunction,Legend,Top*
%FSLAX46Y46*%
G04 Gerber Fmt 4.6, Leading zero omitted, Abs format (unit mm)*
G04 Created by KiCad (PCBNEW 4.0.5) date 05/07/17 17:15:17*
%MOMM*%
%LPD*%
G01*
G04 APERTURE LIST*
%ADD10C,0.025400*%
%ADD11C,0.150000*%
%ADD12C,0.120000*%
G04 APERTURE END LIST*
D10*
D11*
X37834043Y12388000D02*
G75*
G03X37834043Y12388000I-282843J0D01*
G01*
X39801200Y9768000D02*
X34081200Y9768000D01*
X39811200Y19798000D02*
X34081200Y19798000D01*
X34081200Y19798000D02*
X34091200Y19778000D01*
X34081200Y19788000D02*
X34081200Y9788000D01*
X39821200Y19788000D02*
X39821200Y9788000D01*
D12*
X32752400Y7120000D02*
X32752400Y8120000D01*
X31052400Y8120000D02*
X31052400Y7120000D01*
X18473800Y8014600D02*
X19473800Y8014600D01*
X19473800Y9714600D02*
X18473800Y9714600D01*
D11*
X19519905Y-5014381D02*
X19519905Y-4014381D01*
X19900858Y-4014381D01*
X19996096Y-4062000D01*
X20043715Y-4109619D01*
X20091334Y-4204857D01*
X20091334Y-4347714D01*
X20043715Y-4442952D01*
X19996096Y-4490571D01*
X19900858Y-4538190D01*
X19519905Y-4538190D01*
X21043715Y-5014381D02*
X20472286Y-5014381D01*
X20758000Y-5014381D02*
X20758000Y-4014381D01*
X20662762Y-4157238D01*
X20567524Y-4252476D01*
X20472286Y-4300095D01*
X34261905Y17547619D02*
X34261905Y18547619D01*
X34642858Y18547619D01*
X34738096Y18500000D01*
X34785715Y18452381D01*
X34833334Y18357143D01*
X34833334Y18214286D01*
X34785715Y18119048D01*
X34738096Y18071429D01*
X34642858Y18023810D01*
X34261905Y18023810D01*
X35214286Y18452381D02*
X35261905Y18500000D01*
X35357143Y18547619D01*
X35595239Y18547619D01*
X35690477Y18500000D01*
X35738096Y18452381D01*
X35785715Y18357143D01*
X35785715Y18261905D01*
X35738096Y18119048D01*
X35166667Y17547619D01*
X35785715Y17547619D01*
X33755034Y6792957D02*
X33707415Y6745338D01*
X33564558Y6697719D01*
X33469320Y6697719D01*
X33326462Y6745338D01*
X33231224Y6840576D01*
X33183605Y6935814D01*
X33135986Y7126290D01*
X33135986Y7269148D01*
X33183605Y7459624D01*
X33231224Y7554862D01*
X33326462Y7650100D01*
X33469320Y7697719D01*
X33564558Y7697719D01*
X33707415Y7650100D01*
X33755034Y7602481D01*
X34707415Y6697719D02*
X34135986Y6697719D01*
X34421700Y6697719D02*
X34421700Y7697719D01*
X34326462Y7554862D01*
X34231224Y7459624D01*
X34135986Y7412005D01*
X19162734Y11231619D02*
X18686543Y11231619D01*
X18686543Y12231619D01*
X20019877Y11231619D02*
X19448448Y11231619D01*
X19734162Y11231619D02*
X19734162Y12231619D01*
X19638924Y12088762D01*
X19543686Y11993524D01*
X19448448Y11945905D01*
M02*
