G04 #@! TF.FileFunction,Copper,L2,Bot,Signal*
%FSLAX46Y46*%
G04 Gerber Fmt 4.6, Leading zero omitted, Abs format (unit mm)*
G04 Created by KiCad (PCBNEW 4.0.5) date 05/07/17 17:15:17*
%MOMM*%
%LPD*%
G01*
G04 APERTURE LIST*
%ADD10C,0.025400*%
%ADD11C,1.000000*%
%ADD12R,2.420000X5.080000*%
%ADD13C,0.970000*%
%ADD14R,0.460000X0.900000*%
%ADD15R,0.460000X0.890000*%
%ADD16C,0.254000*%
G04 APERTURE END LIST*
D10*
D11*
X17881600Y6705600D03*
X889000Y16891000D03*
X889000Y14986000D03*
X889000Y12954000D03*
X889000Y11049000D03*
X889000Y9144000D03*
X889000Y7366000D03*
X889000Y5715000D03*
X889000Y4064000D03*
X1016000Y2413000D03*
X1016000Y889000D03*
X2794000Y889000D03*
X4318000Y889000D03*
X5715000Y889000D03*
X7112000Y889000D03*
X8763000Y889000D03*
X8763000Y2641600D03*
X8788400Y4521200D03*
X8788400Y6477000D03*
X9779000Y8255000D03*
X18288000Y965200D03*
X18237200Y2743200D03*
X11557000Y8255000D03*
X18211800Y4622800D03*
X13157200Y965200D03*
X13157200Y2768600D03*
X13182600Y4800600D03*
X13665200Y6604000D03*
X13970000Y8128000D03*
X14224000Y9652000D03*
X15748000Y10668000D03*
X18034000Y10668000D03*
X20320000Y10668000D03*
X22606000Y10668000D03*
X24638000Y10668000D03*
X26670000Y10668000D03*
X28702000Y10668000D03*
X30988000Y10668000D03*
X35052000Y7112000D03*
X36830000Y7112000D03*
X29210000Y7112000D03*
X26924000Y7112000D03*
X24638000Y7112000D03*
X22606000Y7112000D03*
X22631400Y5181600D03*
X22860000Y3302000D03*
X23368000Y1270000D03*
X25908000Y1270000D03*
X28194000Y1270000D03*
X30734000Y1270000D03*
X33528000Y1270000D03*
X36322000Y1270000D03*
X38862000Y1270000D03*
X38862000Y3302000D03*
X38862000Y5588000D03*
X38862000Y7874000D03*
X33020000Y10922000D03*
X33020000Y12954000D03*
X33020000Y14732000D03*
X33020000Y16764000D03*
X32766000Y18796000D03*
X30480000Y18796000D03*
X28194000Y18796000D03*
X25908000Y18796000D03*
X23876000Y18796000D03*
X21539200Y18745200D03*
X19507200Y18745200D03*
X17018000Y18796000D03*
X14732000Y18796000D03*
X12446000Y18796000D03*
X10414000Y18796000D03*
X8636000Y18796000D03*
X6858000Y18796000D03*
X4826000Y18796000D03*
X2946400Y18846800D03*
D12*
X11378000Y3218000D03*
X20138000Y3218000D03*
D13*
X11378000Y6658000D03*
X20138000Y6658000D03*
D14*
X11378000Y6208000D03*
D15*
X20138000Y6208000D03*
D11*
X1016000Y18897600D03*
D16*
G36*
X33665000Y9560800D02*
X33675006Y9511390D01*
X33703447Y9469765D01*
X33745841Y9442485D01*
X33792000Y9433800D01*
X39659400Y9433800D01*
X39659400Y340600D01*
X391000Y340600D01*
X391000Y5878800D01*
X10778405Y5878800D01*
X10813692Y5665232D01*
X11236564Y5524851D01*
X11680968Y5556982D01*
X11942308Y5665232D01*
X11977595Y5878800D01*
X19538405Y5878800D01*
X19573692Y5665232D01*
X19996564Y5524851D01*
X20440968Y5556982D01*
X20702308Y5665232D01*
X20737595Y5878800D01*
X20138000Y6478395D01*
X19538405Y5878800D01*
X11977595Y5878800D01*
X11378000Y6478395D01*
X10778405Y5878800D01*
X391000Y5878800D01*
X391000Y6799436D01*
X10244851Y6799436D01*
X10276982Y6355032D01*
X10385232Y6093692D01*
X10598800Y6058405D01*
X11198395Y6658000D01*
X11557605Y6658000D01*
X12157200Y6058405D01*
X12370768Y6093692D01*
X12511149Y6516564D01*
X12490697Y6799436D01*
X19004851Y6799436D01*
X19036982Y6355032D01*
X19145232Y6093692D01*
X19358800Y6058405D01*
X19958395Y6658000D01*
X20317605Y6658000D01*
X20917200Y6058405D01*
X21130768Y6093692D01*
X21271149Y6516564D01*
X21239018Y6960968D01*
X21130768Y7222308D01*
X20917200Y7257595D01*
X20317605Y6658000D01*
X19958395Y6658000D01*
X19358800Y7257595D01*
X19145232Y7222308D01*
X19004851Y6799436D01*
X12490697Y6799436D01*
X12479018Y6960968D01*
X12370768Y7222308D01*
X12157200Y7257595D01*
X11557605Y6658000D01*
X11198395Y6658000D01*
X10598800Y7257595D01*
X10385232Y7222308D01*
X10244851Y6799436D01*
X391000Y6799436D01*
X391000Y7437200D01*
X10778405Y7437200D01*
X11378000Y6837605D01*
X11977595Y7437200D01*
X19538405Y7437200D01*
X20138000Y6837605D01*
X20737595Y7437200D01*
X20702308Y7650768D01*
X20279436Y7791149D01*
X19835032Y7759018D01*
X19573692Y7650768D01*
X19538405Y7437200D01*
X11977595Y7437200D01*
X11942308Y7650768D01*
X11519436Y7791149D01*
X11075032Y7759018D01*
X10813692Y7650768D01*
X10778405Y7437200D01*
X391000Y7437200D01*
X391000Y19593800D01*
X33665000Y19593800D01*
X33665000Y9560800D01*
X33665000Y9560800D01*
G37*
X33665000Y9560800D02*
X33675006Y9511390D01*
X33703447Y9469765D01*
X33745841Y9442485D01*
X33792000Y9433800D01*
X39659400Y9433800D01*
X39659400Y340600D01*
X391000Y340600D01*
X391000Y5878800D01*
X10778405Y5878800D01*
X10813692Y5665232D01*
X11236564Y5524851D01*
X11680968Y5556982D01*
X11942308Y5665232D01*
X11977595Y5878800D01*
X19538405Y5878800D01*
X19573692Y5665232D01*
X19996564Y5524851D01*
X20440968Y5556982D01*
X20702308Y5665232D01*
X20737595Y5878800D01*
X20138000Y6478395D01*
X19538405Y5878800D01*
X11977595Y5878800D01*
X11378000Y6478395D01*
X10778405Y5878800D01*
X391000Y5878800D01*
X391000Y6799436D01*
X10244851Y6799436D01*
X10276982Y6355032D01*
X10385232Y6093692D01*
X10598800Y6058405D01*
X11198395Y6658000D01*
X11557605Y6658000D01*
X12157200Y6058405D01*
X12370768Y6093692D01*
X12511149Y6516564D01*
X12490697Y6799436D01*
X19004851Y6799436D01*
X19036982Y6355032D01*
X19145232Y6093692D01*
X19358800Y6058405D01*
X19958395Y6658000D01*
X20317605Y6658000D01*
X20917200Y6058405D01*
X21130768Y6093692D01*
X21271149Y6516564D01*
X21239018Y6960968D01*
X21130768Y7222308D01*
X20917200Y7257595D01*
X20317605Y6658000D01*
X19958395Y6658000D01*
X19358800Y7257595D01*
X19145232Y7222308D01*
X19004851Y6799436D01*
X12490697Y6799436D01*
X12479018Y6960968D01*
X12370768Y7222308D01*
X12157200Y7257595D01*
X11557605Y6658000D01*
X11198395Y6658000D01*
X10598800Y7257595D01*
X10385232Y7222308D01*
X10244851Y6799436D01*
X391000Y6799436D01*
X391000Y7437200D01*
X10778405Y7437200D01*
X11378000Y6837605D01*
X11977595Y7437200D01*
X19538405Y7437200D01*
X20138000Y6837605D01*
X20737595Y7437200D01*
X20702308Y7650768D01*
X20279436Y7791149D01*
X19835032Y7759018D01*
X19573692Y7650768D01*
X19538405Y7437200D01*
X11977595Y7437200D01*
X11942308Y7650768D01*
X11519436Y7791149D01*
X11075032Y7759018D01*
X10813692Y7650768D01*
X10778405Y7437200D01*
X391000Y7437200D01*
X391000Y19593800D01*
X33665000Y19593800D01*
X33665000Y9560800D01*
M02*
