M48
;DRILL file {KiCad 4.0.5} date 05/07/17 17:15:15
;FORMAT={-:-/ absolute / inch / decimal}
FMAT,2
INCH,TZ
T1C0.018
T2C0.025
%
G90
G05
M72
T1
X0.448Y0.2621
X0.7928Y0.2621
T2
X0.035Y0.665
X0.035Y0.59
X0.035Y0.51
X0.035Y0.435
X0.035Y0.36
X0.035Y0.29
X0.035Y0.225
X0.035Y0.16
X0.04Y0.744
X0.04Y0.095
X0.04Y0.035
X0.11Y0.035
X0.116Y0.742
X0.17Y0.035
X0.19Y0.74
X0.225Y0.035
X0.27Y0.74
X0.28Y0.035
X0.34Y0.74
X0.345Y0.104
X0.345Y0.035
X0.346Y0.255
X0.346Y0.178
X0.385Y0.325
X0.41Y0.74
X0.455Y0.325
X0.49Y0.74
X0.518Y0.109
X0.518Y0.038
X0.519Y0.189
X0.538Y0.26
X0.55Y0.32
X0.56Y0.38
X0.58Y0.74
X0.62Y0.42
X0.67Y0.74
X0.704Y0.264
X0.71Y0.42
X0.717Y0.182
X0.718Y0.108
X0.72Y0.038
X0.768Y0.738
X0.8Y0.42
X0.848Y0.738
X0.89Y0.42
X0.89Y0.28
X0.891Y0.204
X0.9Y0.13
X0.92Y0.05
X0.94Y0.74
X0.97Y0.42
X0.97Y0.28
X1.02Y0.74
X1.02Y0.05
X1.05Y0.42
X1.06Y0.28
X1.11Y0.74
X1.11Y0.05
X1.13Y0.42
X1.15Y0.28
X1.2Y0.74
X1.21Y0.05
X1.22Y0.42
X1.29Y0.74
X1.3Y0.66
X1.3Y0.58
X1.3Y0.51
X1.3Y0.43
X1.32Y0.05
X1.38Y0.28
X1.43Y0.05
X1.45Y0.28
X1.53Y0.31
X1.53Y0.22
X1.53Y0.13
X1.53Y0.05
T0
M30
