*
%LPD*%
%LN915 Chip Antenna-B.Cu*%
%FSLAX25Y25*%
%MOIN*%
%AD*%
%AD*%
%ADD11C,0.039370079*%
%ADD12C,0.029559055*%
%ADD13R,0.065X0.065*%
%ADD14C,0.061023622*%
%ADD15C,0.01*%
G54D11*
%SRX1Y1I0.0J0.0*%
G1X574803Y-352457D3*
G54D12*
G1X576000Y-302000D3*
G1X571000Y-302000D3*
G54D11*
G1X613000Y-346000D3*
G1X606299Y-346457D3*
G1X582677Y-346457D3*
G1X598425Y-346457D3*
G1X590551Y-346457D3*
G1X574803Y-330709D3*
G1X574803Y-338583D3*
G1X574803Y-346457D3*
G1X574803Y-322835D3*
G1X574803Y-314961D3*
G1X570866Y-389764D3*
G1X562992Y-389764D3*
G1X582677Y-370079D3*
G1X582677Y-377953D3*
G1X551181Y-377953D3*
G1X551181Y-370079D3*
G1X551181Y-350394D3*
G1X559055Y-311024D3*
G1X559055Y-318898D3*
G1X559055Y-326772D3*
G1X559055Y-350394D3*
G1X559055Y-342520D3*
G1X559055Y-334646D3*
G1X559055Y-303150D3*
G1X543307Y-303150D3*
G1X551181Y-303150D3*
G1X535433Y-303150D3*
G1X527559Y-303150D3*
G1X614173Y-358268D3*
G1X614000Y-352000D3*
G1X614173Y-397638D3*
G1X614173Y-405512D3*
G1X614173Y-413386D3*
G1X614173Y-421260D3*
G1X614173Y-389764D3*
G1X614173Y-381890D3*
G1X614173Y-374016D3*
G1X614173Y-366142D3*
G1X614173Y-444882D3*
G1X614173Y-437008D3*
G1X614173Y-429134D3*
G1X614173Y-452756D3*
G1X598425Y-452756D3*
G1X606299Y-452756D3*
G1X590551Y-452756D3*
G1X582677Y-452756D3*
G1X551181Y-452756D3*
G1X559055Y-452756D3*
G1X574803Y-452756D3*
G1X566929Y-452756D3*
G1X535433Y-452756D3*
G1X543307Y-452756D3*
G1X527559Y-452756D3*
G1X519685Y-429134D3*
G1X519685Y-437008D3*
G1X519685Y-444882D3*
G1X519685Y-452756D3*
G1X519685Y-366142D3*
G1X519685Y-374016D3*
G1X519685Y-381890D3*
G1X519685Y-389764D3*
G1X519685Y-421260D3*
G1X519685Y-413386D3*
G1X519685Y-405512D3*
G1X519685Y-397638D3*
G1X519685Y-334646D3*
G1X519685Y-342520D3*
G1X519685Y-350394D3*
G1X519685Y-358268D3*
G1X519685Y-326772D3*
G1X519685Y-318898D3*
G1X519685Y-311024D3*
G54D13*
G1X580929Y-388016D3*
G1X552929Y-360016D3*
G1X552929Y-388016D3*
G1X580929Y-360016D3*
G54D14*
G1X566929Y-374016D3*
G54D11*
G1X519685Y-303150D3*
G54D12*
G1X565000Y-302000D3*
G54D15*
G36*
G1X516248Y-391141D2*
G1X516248Y-456193D1*
G1X617610Y-456193D1*
G1X617610Y-391141D1*
G1X586679Y-391141D1*
G1X586679Y-391763D1*
G1X586299Y-392682D1*
G1X585595Y-393385D1*
G1X584676Y-393766D1*
G1X582054Y-393766D1*
G1X581429Y-393141D1*
G1X581429Y-391141D1*
G1X580429Y-391141D1*
G1X580429Y-393141D1*
G1X579804Y-393766D1*
G1X577182Y-393766D1*
G1X576263Y-393385D1*
G1X575560Y-392682D1*
G1X575179Y-391763D1*
G1X575179Y-391141D1*
G1X558679Y-391141D1*
G1X558679Y-391763D1*
G1X558299Y-392682D1*
G1X557595Y-393385D1*
G1X556676Y-393766D1*
G1X554054Y-393766D1*
G1X553429Y-393141D1*
G1X553429Y-391141D1*
G1X552429Y-391141D1*
G1X552429Y-393141D1*
G1X551804Y-393766D1*
G1X549182Y-393766D1*
G1X548263Y-393385D1*
G1X547560Y-392682D1*
G1X547179Y-391763D1*
G1X547179Y-391141D1*
G1X516248Y-391141D1*
G37*
G36*
G1X516248Y-384891D2*
G1X516248Y-391141D1*
G1X547179Y-391141D1*
G1X547179Y-389141D1*
G1X547804Y-388516D1*
G1X552429Y-388516D1*
G1X552429Y-391141D1*
G1X553429Y-391141D1*
G1X553429Y-388516D1*
G1X558054Y-388516D1*
G1X558679Y-389141D1*
G1X558679Y-391141D1*
G1X575179Y-391141D1*
G1X575179Y-389141D1*
G1X575804Y-388516D1*
G1X580429Y-388516D1*
G1X580429Y-391141D1*
G1X581429Y-391141D1*
G1X581429Y-388516D1*
G1X586054Y-388516D1*
G1X586679Y-389141D1*
G1X586679Y-391141D1*
G1X617610Y-391141D1*
G1X617610Y-384891D1*
G1X586679Y-384891D1*
G1X586679Y-386891D1*
G1X586054Y-387516D1*
G1X581429Y-387516D1*
G1X581429Y-384891D1*
G1X580429Y-384891D1*
G1X580429Y-387516D1*
G1X575804Y-387516D1*
G1X575179Y-386891D1*
G1X575179Y-384891D1*
G1X558679Y-384891D1*
G1X558679Y-386891D1*
G1X558054Y-387516D1*
G1X553429Y-387516D1*
G1X553429Y-384891D1*
G1X552429Y-384891D1*
G1X552429Y-387516D1*
G1X547804Y-387516D1*
G1X547179Y-386891D1*
G1X547179Y-384891D1*
G1X516248Y-384891D1*
G37*
G36*
G1X516248Y-384891D2*
G1X547179Y-384891D1*
G1X547179Y-384268D1*
G1X547560Y-383350D1*
G1X548263Y-382646D1*
G1X549182Y-382266D1*
G1X551804Y-382266D1*
G1X552429Y-382891D1*
G1X552429Y-384891D1*
G1X553429Y-384891D1*
G1X553429Y-382891D1*
G1X554054Y-382266D1*
G1X556676Y-382266D1*
G1X557595Y-382646D1*
G1X558299Y-383350D1*
G1X558679Y-384268D1*
G1X558679Y-384891D1*
G1X575179Y-384891D1*
G1X575179Y-384268D1*
G1X575560Y-383350D1*
G1X576263Y-382646D1*
G1X577182Y-382266D1*
G1X579804Y-382266D1*
G1X580429Y-382891D1*
G1X580429Y-384891D1*
G1X581429Y-384891D1*
G1X581429Y-382891D1*
G1X582054Y-382266D1*
G1X584676Y-382266D1*
G1X585595Y-382646D1*
G1X586299Y-383350D1*
G1X586679Y-384268D1*
G1X586679Y-384891D1*
G1X617610Y-384891D1*
G1X617610Y-374016D1*
G1X572480Y-374016D1*
G1X572479Y-375125D1*
G1X571632Y-377164D1*
G1X570070Y-378725D1*
G1X568029Y-379568D1*
G1X565820Y-379566D1*
G1X563781Y-378719D1*
G1X562220Y-377156D1*
G1X561377Y-375115D1*
G1X561378Y-374016D1*
G1X516248Y-374016D1*
G1X516248Y-384891D1*
G37*
G36*
G1X516248Y-374016D2*
G1X561378Y-374016D1*
G1X561379Y-372907D1*
G1X562226Y-370867D1*
G1X563789Y-369307D1*
G1X565830Y-368464D1*
G1X568038Y-368466D1*
G1X570078Y-369312D1*
G1X571638Y-370875D1*
G1X572481Y-372916D1*
G1X572480Y-374016D1*
G1X617610Y-374016D1*
G1X617610Y-363141D1*
G1X586679Y-363141D1*
G1X586679Y-363763D1*
G1X586299Y-364682D1*
G1X585595Y-365385D1*
G1X584676Y-365766D1*
G1X582054Y-365766D1*
G1X581429Y-365141D1*
G1X581429Y-363141D1*
G1X580429Y-363141D1*
G1X580429Y-365141D1*
G1X579804Y-365766D1*
G1X577182Y-365766D1*
G1X576263Y-365385D1*
G1X575560Y-364682D1*
G1X575179Y-363763D1*
G1X575179Y-363141D1*
G1X558679Y-363141D1*
G1X558679Y-363763D1*
G1X558299Y-364682D1*
G1X557595Y-365385D1*
G1X556676Y-365766D1*
G1X554054Y-365766D1*
G1X553429Y-365141D1*
G1X553429Y-363141D1*
G1X552429Y-363141D1*
G1X552429Y-365141D1*
G1X551804Y-365766D1*
G1X549182Y-365766D1*
G1X548263Y-365385D1*
G1X547560Y-364682D1*
G1X547179Y-363763D1*
G1X547179Y-363141D1*
G1X516248Y-363141D1*
G1X516248Y-374016D1*
G37*
G36*
G1X516248Y-356891D2*
G1X516248Y-363141D1*
G1X547179Y-363141D1*
G1X547179Y-361141D1*
G1X547804Y-360516D1*
G1X552429Y-360516D1*
G1X552429Y-363141D1*
G1X553429Y-363141D1*
G1X553429Y-360516D1*
G1X558054Y-360516D1*
G1X558679Y-361141D1*
G1X558679Y-363141D1*
G1X575179Y-363141D1*
G1X575179Y-361141D1*
G1X575804Y-360516D1*
G1X580429Y-360516D1*
G1X580429Y-363141D1*
G1X581429Y-363141D1*
G1X581429Y-360516D1*
G1X586054Y-360516D1*
G1X586679Y-361141D1*
G1X586679Y-363141D1*
G1X617610Y-363141D1*
G1X617610Y-356891D1*
G1X586679Y-356891D1*
G1X586679Y-358891D1*
G1X586054Y-359516D1*
G1X581429Y-359516D1*
G1X581429Y-356891D1*
G1X580429Y-356891D1*
G1X580429Y-359516D1*
G1X575804Y-359516D1*
G1X575179Y-358891D1*
G1X575179Y-356891D1*
G1X558679Y-356891D1*
G1X558679Y-358891D1*
G1X558054Y-359516D1*
G1X553429Y-359516D1*
G1X553429Y-356891D1*
G1X552429Y-356891D1*
G1X552429Y-359516D1*
G1X547804Y-359516D1*
G1X547179Y-358891D1*
G1X547179Y-356891D1*
G1X516248Y-356891D1*
G37*
G36*
G1X516248Y-356891D2*
G1X547179Y-356891D1*
G1X547179Y-356268D1*
G1X547560Y-355350D1*
G1X548263Y-354646D1*
G1X549182Y-354266D1*
G1X551804Y-354266D1*
G1X552429Y-354891D1*
G1X552429Y-356891D1*
G1X553429Y-356891D1*
G1X553429Y-354891D1*
G1X554054Y-354266D1*
G1X556676Y-354266D1*
G1X557595Y-354646D1*
G1X558299Y-355350D1*
G1X558679Y-356268D1*
G1X558679Y-356891D1*
G1X575179Y-356891D1*
G1X575179Y-356268D1*
G1X575560Y-355350D1*
G1X576263Y-354646D1*
G1X577182Y-354266D1*
G1X579804Y-354266D1*
G1X580429Y-354891D1*
G1X580429Y-356891D1*
G1X581429Y-356891D1*
G1X581429Y-354891D1*
G1X582054Y-354266D1*
G1X584676Y-354266D1*
G1X585595Y-354646D1*
G1X586299Y-355350D1*
G1X586679Y-356268D1*
G1X586679Y-356891D1*
G1X617610Y-356891D1*
G1X617610Y-343020D1*
G1X578740Y-343020D1*
G1X578558Y-342986D1*
G1X578392Y-342878D1*
G1X578280Y-342714D1*
G1X578240Y-342520D1*
G1X578240Y-299713D1*
G1X516248Y-299713D1*
G1X516248Y-356891D1*
G37*
G1X578240Y-342520D2*
G1X578280Y-342714D1*
G1X578392Y-342878D1*
G1X578558Y-342986D1*
G1X578740Y-343020D1*
G1X617610Y-343020D1*
G1X617610Y-456193D1*
G1X516248Y-456193D1*
G1X516248Y-389141D1*
G1X547179Y-389141D1*
G1X547179Y-391763D1*
G1X547560Y-392682D1*
G1X548263Y-393385D1*
G1X549182Y-393766D1*
G1X551804Y-393766D1*
G1X552429Y-393141D1*
G1X552429Y-388516D1*
G1X553429Y-388516D1*
G1X553429Y-393141D1*
G1X554054Y-393766D1*
G1X556676Y-393766D1*
G1X557595Y-393385D1*
G1X558299Y-392682D1*
G1X558679Y-391763D1*
G1X558679Y-389141D1*
G1X575179Y-389141D1*
G1X575179Y-391763D1*
G1X575560Y-392682D1*
G1X576263Y-393385D1*
G1X577182Y-393766D1*
G1X579804Y-393766D1*
G1X580429Y-393141D1*
G1X580429Y-388516D1*
G1X581429Y-388516D1*
G1X581429Y-393141D1*
G1X582054Y-393766D1*
G1X584676Y-393766D1*
G1X585595Y-393385D1*
G1X586299Y-392682D1*
G1X586679Y-391763D1*
G1X586679Y-389141D1*
G1X586054Y-388516D1*
G1X581429Y-388516D1*
G1X580429Y-388516D1*
G1X575804Y-388516D1*
G1X575179Y-389141D1*
G1X558679Y-389141D1*
G1X558054Y-388516D1*
G1X553429Y-388516D1*
G1X552429Y-388516D1*
G1X547804Y-388516D1*
G1X547179Y-389141D1*
G1X516248Y-389141D1*
G1X516248Y-384268D1*
G1X547179Y-384268D1*
G1X547179Y-386891D1*
G1X547804Y-387516D1*
G1X552429Y-387516D1*
G1X552429Y-382891D1*
G1X553429Y-382891D1*
G1X553429Y-387516D1*
G1X558054Y-387516D1*
G1X558679Y-386891D1*
G1X558679Y-384268D1*
G1X575179Y-384268D1*
G1X575179Y-386891D1*
G1X575804Y-387516D1*
G1X580429Y-387516D1*
G1X580429Y-382891D1*
G1X581429Y-382891D1*
G1X581429Y-387516D1*
G1X586054Y-387516D1*
G1X586679Y-386891D1*
G1X586679Y-384268D1*
G1X586299Y-383350D1*
G1X585595Y-382646D1*
G1X584676Y-382266D1*
G1X582054Y-382266D1*
G1X581429Y-382891D1*
G1X580429Y-382891D1*
G1X579804Y-382266D1*
G1X577182Y-382266D1*
G1X576263Y-382646D1*
G1X575560Y-383350D1*
G1X575179Y-384268D1*
G1X558679Y-384268D1*
G1X558299Y-383350D1*
G1X557595Y-382646D1*
G1X556676Y-382266D1*
G1X554054Y-382266D1*
G1X553429Y-382891D1*
G1X552429Y-382891D1*
G1X551804Y-382266D1*
G1X549182Y-382266D1*
G1X548263Y-382646D1*
G1X547560Y-383350D1*
G1X547179Y-384268D1*
G1X516248Y-384268D1*
G1X516248Y-375115D1*
G1X561377Y-375115D1*
G1X562220Y-377156D1*
G1X563781Y-378719D1*
G1X565820Y-379566D1*
G1X568029Y-379568D1*
G1X570070Y-378725D1*
G1X571632Y-377164D1*
G1X572479Y-375125D1*
G1X572481Y-372916D1*
G1X571638Y-370875D1*
G1X570078Y-369312D1*
G1X568038Y-368466D1*
G1X565830Y-368464D1*
G1X563789Y-369307D1*
G1X562226Y-370867D1*
G1X561379Y-372907D1*
G1X561377Y-375115D1*
G1X516248Y-375115D1*
G1X516248Y-361141D1*
G1X547179Y-361141D1*
G1X547179Y-363763D1*
G1X547560Y-364682D1*
G1X548263Y-365385D1*
G1X549182Y-365766D1*
G1X551804Y-365766D1*
G1X552429Y-365141D1*
G1X552429Y-360516D1*
G1X553429Y-360516D1*
G1X553429Y-365141D1*
G1X554054Y-365766D1*
G1X556676Y-365766D1*
G1X557595Y-365385D1*
G1X558299Y-364682D1*
G1X558679Y-363763D1*
G1X558679Y-361141D1*
G1X575179Y-361141D1*
G1X575179Y-363763D1*
G1X575560Y-364682D1*
G1X576263Y-365385D1*
G1X577182Y-365766D1*
G1X579804Y-365766D1*
G1X580429Y-365141D1*
G1X580429Y-360516D1*
G1X581429Y-360516D1*
G1X581429Y-365141D1*
G1X582054Y-365766D1*
G1X584676Y-365766D1*
G1X585595Y-365385D1*
G1X586299Y-364682D1*
G1X586679Y-363763D1*
G1X586679Y-361141D1*
G1X586054Y-360516D1*
G1X581429Y-360516D1*
G1X580429Y-360516D1*
G1X575804Y-360516D1*
G1X575179Y-361141D1*
G1X558679Y-361141D1*
G1X558054Y-360516D1*
G1X553429Y-360516D1*
G1X552429Y-360516D1*
G1X547804Y-360516D1*
G1X547179Y-361141D1*
G1X516248Y-361141D1*
G1X516248Y-356268D1*
G1X547179Y-356268D1*
G1X547179Y-358891D1*
G1X547804Y-359516D1*
G1X552429Y-359516D1*
G1X552429Y-354891D1*
G1X553429Y-354891D1*
G1X553429Y-359516D1*
G1X558054Y-359516D1*
G1X558679Y-358891D1*
G1X558679Y-356268D1*
G1X575179Y-356268D1*
G1X575179Y-358891D1*
G1X575804Y-359516D1*
G1X580429Y-359516D1*
G1X580429Y-354891D1*
G1X581429Y-354891D1*
G1X581429Y-359516D1*
G1X586054Y-359516D1*
G1X586679Y-358891D1*
G1X586679Y-356268D1*
G1X586299Y-355350D1*
G1X585595Y-354646D1*
G1X584676Y-354266D1*
G1X582054Y-354266D1*
G1X581429Y-354891D1*
G1X580429Y-354891D1*
G1X579804Y-354266D1*
G1X577182Y-354266D1*
G1X576263Y-354646D1*
G1X575560Y-355350D1*
G1X575179Y-356268D1*
G1X558679Y-356268D1*
G1X558299Y-355350D1*
G1X557595Y-354646D1*
G1X556676Y-354266D1*
G1X554054Y-354266D1*
G1X553429Y-354891D1*
G1X552429Y-354891D1*
G1X551804Y-354266D1*
G1X549182Y-354266D1*
G1X548263Y-354646D1*
G1X547560Y-355350D1*
G1X547179Y-356268D1*
G1X516248Y-356268D1*
G1X516248Y-299713D1*
G1X578240Y-299713D1*
G1X578240Y-342520D1*
M2*
