M48
;DRILL file {KiCad 4.0.5} date 05/07/17 16:04:06
;FORMAT={-:-/ absolute / inch / decimal}
FMAT,2
ICI,OFF
T01C.018
T02C.025
T03C.039
T04C.045
%
T01
G05
X57100Y-30200
X56500Y-30200
X57600Y-30200
T02
X51969Y-45276
X52756Y-45276
X51969Y-44488
X51969Y-43701
X51969Y-42913
X51969Y-42126
X51969Y-41339
X51969Y-40551
X51969Y-39764
X51969Y-38976
X51969Y-38189
X51969Y-37402
X51969Y-36614
X51969Y-35827
X51969Y-35039
X51969Y-34252
X51969Y-33465
X51969Y-32677
X51969Y-31890
X51969Y-31102
X51969Y-30315
X52756Y-30315
X53543Y-45276
X54331Y-45276
X54331Y-30315
X53543Y-30315
X56693Y-45276
X55906Y-45276
X55118Y-45276
X55118Y-37795
X55118Y-37008
X55118Y-35039
X56299Y-38976
X55906Y-35039
X55906Y-34252
X55906Y-33465
X55906Y-32677
X55906Y-31890
X55906Y-31102
X55118Y-30315
X55906Y-30315
X57480Y-45276
X57087Y-38976
X57480Y-35246
X57480Y-34646
X57480Y-33858
X57480Y-33071
X57480Y-32283
X57480Y-31496
X59843Y-45276
X59055Y-45276
X58268Y-45276
X58268Y-37795
X58268Y-37008
X58268Y-34646
X59843Y-34646
X59055Y-34646
X61417Y-45276
X60630Y-45276
X61417Y-44488
X61417Y-43701
X61417Y-42913
X61417Y-42126
X61417Y-41339
X61417Y-40551
X61417Y-39764
X61417Y-38976
X61417Y-38189
X61417Y-37402
X61417Y-36614
X61417Y-35827
X61400Y-35200
X60630Y-34646
X61300Y-34600
T03
X56693Y-37402
T04
X55293Y-38802
X55293Y-36002
X58093Y-36002
X58093Y-38802
M30
