%TF.GenerationSoftware,KiCad,Pcbnew,4.0.5*%
%TF.CreationDate,2017-03-02T13:00:21-08:00*%
%TF.ProjectId,mifa_milled,6D6966615F6D696C6C65642E6B696361,rev?*%
%TF.FileFunction,Copper,L1,Top,Signal*%
%FSLAX46Y46*%
G04 Gerber Fmt 4.6, Leading zero omitted, Abs format (unit mm)*
G04 Created by KiCad (PCBNEW 4.0.5) date 03/02/17 13:00:21*
%MOMM*%
%LPD*%
G01*
G04 APERTURE LIST*
%ADD10C,0.025400*%
%ADD11C,0.150000*%
%ADD12C,0.300000*%
%ADD13C,0.400000*%
%ADD14R,2.290000X5.080000*%
%ADD15R,2.420000X5.080000*%
%ADD16C,0.970000*%
%ADD17R,0.460000X0.890000*%
%ADD18C,0.500380*%
%ADD19C,0.254000*%
G04 APERTURE END LIST*
D10*
D11*
X177002200Y-166007200D02*
X177002200Y-198007200D01*
X285002200Y-198007200D01*
X285002200Y-166007200D01*
X177002200Y-166007200D01*
D10*
D11*
X10000000Y-10000000D02*
X10000000Y-200007200D01*
X287002200Y-200007200D01*
X287002200Y-10000000D01*
X10000000Y-10000000D01*
D10*
D11*
X12000000Y-12000000D02*
X12000000Y-198007200D01*
X285002200Y-198007200D01*
X285002200Y-12000000D01*
X12000000Y-12000000D01*
D10*
D11*
X60000000Y-12000000D02*
X60000000Y-10000000D01*
D10*
D11*
X110000000Y-12000000D02*
X110000000Y-10000000D01*
D10*
D11*
X160000000Y-12000000D02*
X160000000Y-10000000D01*
D10*
D11*
X210000000Y-12000000D02*
X210000000Y-10000000D01*
D10*
D11*
X260000000Y-12000000D02*
X260000000Y-10000000D01*
D10*
D11*
X35990476Y-11588095D02*
X35247619Y-11588095D01*
X35619048Y-11588095D02*
X35619048Y-10288095D01*
X35495238Y-10473810D01*
X35371429Y-10597619D01*
X35247619Y-10659524D01*
D10*
D11*
X85247619Y-10411905D02*
X85309524Y-10350000D01*
X85433333Y-10288095D01*
X85742857Y-10288095D01*
X85866667Y-10350000D01*
X85928571Y-10411905D01*
X85990476Y-10535714D01*
X85990476Y-10659524D01*
X85928571Y-10845238D01*
X85185714Y-11588095D01*
X85990476Y-11588095D01*
D10*
D11*
X135185714Y-10288095D02*
X135990476Y-10288095D01*
X135557143Y-10783333D01*
X135742857Y-10783333D01*
X135866667Y-10845238D01*
X135928571Y-10907143D01*
X135990476Y-11030952D01*
X135990476Y-11340476D01*
X135928571Y-11464286D01*
X135866667Y-11526190D01*
X135742857Y-11588095D01*
X135371429Y-11588095D01*
X135247619Y-11526190D01*
X135185714Y-11464286D01*
D10*
D11*
X185866667Y-10721429D02*
X185866667Y-11588095D01*
X185557143Y-10226190D02*
X185247619Y-11154762D01*
X186052381Y-11154762D01*
D10*
D11*
X235928571Y-10288095D02*
X235309524Y-10288095D01*
X235247619Y-10907143D01*
X235309524Y-10845238D01*
X235433333Y-10783333D01*
X235742857Y-10783333D01*
X235866667Y-10845238D01*
X235928571Y-10907143D01*
X235990476Y-11030952D01*
X235990476Y-11340476D01*
X235928571Y-11464286D01*
X235866667Y-11526190D01*
X235742857Y-11588095D01*
X235433333Y-11588095D01*
X235309524Y-11526190D01*
X235247619Y-11464286D01*
D10*
D11*
X285866667Y-10288095D02*
X285619048Y-10288095D01*
X285495238Y-10350000D01*
X285433333Y-10411905D01*
X285309524Y-10597619D01*
X285247619Y-10845238D01*
X285247619Y-11340476D01*
X285309524Y-11464286D01*
X285371429Y-11526190D01*
X285495238Y-11588095D01*
X285742857Y-11588095D01*
X285866667Y-11526190D01*
X285928571Y-11464286D01*
X285990476Y-11340476D01*
X285990476Y-11030952D01*
X285928571Y-10907143D01*
X285866667Y-10845238D01*
X285742857Y-10783333D01*
X285495238Y-10783333D01*
X285371429Y-10845238D01*
X285309524Y-10907143D01*
X285247619Y-11030952D01*
D10*
D11*
X60000000Y-198007200D02*
X60000000Y-200007200D01*
D10*
D11*
X110000000Y-198007200D02*
X110000000Y-200007200D01*
D10*
D11*
X160000000Y-198007200D02*
X160000000Y-200007200D01*
D10*
D11*
X210000000Y-198007200D02*
X210000000Y-200007200D01*
D10*
D11*
X260000000Y-198007200D02*
X260000000Y-200007200D01*
D10*
D11*
X35990476Y-199595295D02*
X35247619Y-199595295D01*
X35619048Y-199595295D02*
X35619048Y-198295295D01*
X35495238Y-198481010D01*
X35371429Y-198604819D01*
X35247619Y-198666724D01*
D10*
D11*
X85247619Y-198419105D02*
X85309524Y-198357200D01*
X85433333Y-198295295D01*
X85742857Y-198295295D01*
X85866667Y-198357200D01*
X85928571Y-198419105D01*
X85990476Y-198542914D01*
X85990476Y-198666724D01*
X85928571Y-198852438D01*
X85185714Y-199595295D01*
X85990476Y-199595295D01*
D10*
D11*
X135185714Y-198295295D02*
X135990476Y-198295295D01*
X135557143Y-198790533D01*
X135742857Y-198790533D01*
X135866667Y-198852438D01*
X135928571Y-198914343D01*
X135990476Y-199038152D01*
X135990476Y-199347676D01*
X135928571Y-199471486D01*
X135866667Y-199533390D01*
X135742857Y-199595295D01*
X135371429Y-199595295D01*
X135247619Y-199533390D01*
X135185714Y-199471486D01*
D10*
D11*
X185866667Y-198728629D02*
X185866667Y-199595295D01*
X185557143Y-198233390D02*
X185247619Y-199161962D01*
X186052381Y-199161962D01*
D10*
D11*
X235928571Y-198295295D02*
X235309524Y-198295295D01*
X235247619Y-198914343D01*
X235309524Y-198852438D01*
X235433333Y-198790533D01*
X235742857Y-198790533D01*
X235866667Y-198852438D01*
X235928571Y-198914343D01*
X235990476Y-199038152D01*
X235990476Y-199347676D01*
X235928571Y-199471486D01*
X235866667Y-199533390D01*
X235742857Y-199595295D01*
X235433333Y-199595295D01*
X235309524Y-199533390D01*
X235247619Y-199471486D01*
D10*
D11*
X285866667Y-198295295D02*
X285619048Y-198295295D01*
X285495238Y-198357200D01*
X285433333Y-198419105D01*
X285309524Y-198604819D01*
X285247619Y-198852438D01*
X285247619Y-199347676D01*
X285309524Y-199471486D01*
X285371429Y-199533390D01*
X285495238Y-199595295D01*
X285742857Y-199595295D01*
X285866667Y-199533390D01*
X285928571Y-199471486D01*
X285990476Y-199347676D01*
X285990476Y-199038152D01*
X285928571Y-198914343D01*
X285866667Y-198852438D01*
X285742857Y-198790533D01*
X285495238Y-198790533D01*
X285371429Y-198852438D01*
X285309524Y-198914343D01*
X285247619Y-199038152D01*
D10*
D11*
X10000000Y-60000000D02*
X12000000Y-60000000D01*
D10*
D11*
X10000000Y-110000000D02*
X12000000Y-110000000D01*
D10*
D11*
X10000000Y-160000000D02*
X12000000Y-160000000D01*
D10*
D11*
X10690476Y-35216667D02*
X11309524Y-35216667D01*
X10566667Y-35588095D02*
X11000000Y-34288095D01*
X11433333Y-35588095D01*
D10*
D11*
X11092857Y-84907143D02*
X11278571Y-84969048D01*
X11340476Y-85030952D01*
X11402381Y-85154762D01*
X11402381Y-85340476D01*
X11340476Y-85464286D01*
X11278571Y-85526190D01*
X11154762Y-85588095D01*
X10659524Y-85588095D01*
X10659524Y-84288095D01*
X11092857Y-84288095D01*
X11216667Y-84350000D01*
X11278571Y-84411905D01*
X11340476Y-84535714D01*
X11340476Y-84659524D01*
X11278571Y-84783333D01*
X11216667Y-84845238D01*
X11092857Y-84907143D01*
X10659524Y-84907143D01*
D10*
D11*
X11402381Y-135464286D02*
X11340476Y-135526190D01*
X11154762Y-135588095D01*
X11030952Y-135588095D01*
X10845238Y-135526190D01*
X10721429Y-135402381D01*
X10659524Y-135278571D01*
X10597619Y-135030952D01*
X10597619Y-134845238D01*
X10659524Y-134597619D01*
X10721429Y-134473810D01*
X10845238Y-134350000D01*
X11030952Y-134288095D01*
X11154762Y-134288095D01*
X11340476Y-134350000D01*
X11402381Y-134411905D01*
D10*
D11*
X10659524Y-185588095D02*
X10659524Y-184288095D01*
X10969048Y-184288095D01*
X11154762Y-184350000D01*
X11278571Y-184473810D01*
X11340476Y-184597619D01*
X11402381Y-184845238D01*
X11402381Y-185030952D01*
X11340476Y-185278571D01*
X11278571Y-185402381D01*
X11154762Y-185526190D01*
X10969048Y-185588095D01*
X10659524Y-185588095D01*
D10*
D11*
X287002200Y-60000000D02*
X285002200Y-60000000D01*
D10*
D11*
X287002200Y-110000000D02*
X285002200Y-110000000D01*
D10*
D11*
X287002200Y-160000000D02*
X285002200Y-160000000D01*
D10*
D11*
X285692676Y-35216667D02*
X286311724Y-35216667D01*
X285568867Y-35588095D02*
X286002200Y-34288095D01*
X286435533Y-35588095D01*
D10*
D11*
X286095057Y-84907143D02*
X286280771Y-84969048D01*
X286342676Y-85030952D01*
X286404581Y-85154762D01*
X286404581Y-85340476D01*
X286342676Y-85464286D01*
X286280771Y-85526190D01*
X286156962Y-85588095D01*
X285661724Y-85588095D01*
X285661724Y-84288095D01*
X286095057Y-84288095D01*
X286218867Y-84350000D01*
X286280771Y-84411905D01*
X286342676Y-84535714D01*
X286342676Y-84659524D01*
X286280771Y-84783333D01*
X286218867Y-84845238D01*
X286095057Y-84907143D01*
X285661724Y-84907143D01*
D10*
D11*
X286404581Y-135464286D02*
X286342676Y-135526190D01*
X286156962Y-135588095D01*
X286033152Y-135588095D01*
X285847438Y-135526190D01*
X285723629Y-135402381D01*
X285661724Y-135278571D01*
X285599819Y-135030952D01*
X285599819Y-134845238D01*
X285661724Y-134597619D01*
X285723629Y-134473810D01*
X285847438Y-134350000D01*
X286033152Y-134288095D01*
X286156962Y-134288095D01*
X286342676Y-134350000D01*
X286404581Y-134411905D01*
D10*
D11*
X285661724Y-185588095D02*
X285661724Y-184288095D01*
X285971248Y-184288095D01*
X286156962Y-184350000D01*
X286280771Y-184473810D01*
X286342676Y-184597619D01*
X286404581Y-184845238D01*
X286404581Y-185030952D01*
X286342676Y-185278571D01*
X286280771Y-185402381D01*
X286156962Y-185526190D01*
X285971248Y-185588095D01*
X285661724Y-185588095D01*
D10*
D11*
X200359343Y-193785771D02*
X200359343Y-192285771D01*
X200716486Y-192285771D01*
X200930771Y-192357200D01*
X201073629Y-192500057D01*
X201145057Y-192642914D01*
X201216486Y-192928629D01*
X201216486Y-193142914D01*
X201145057Y-193428629D01*
X201073629Y-193571486D01*
X200930771Y-193714343D01*
X200716486Y-193785771D01*
X200359343Y-193785771D01*
X202502200Y-193785771D02*
X202502200Y-193000057D01*
X202430771Y-192857200D01*
X202287914Y-192785771D01*
X202002200Y-192785771D01*
X201859343Y-192857200D01*
X202502200Y-193714343D02*
X202359343Y-193785771D01*
X202002200Y-193785771D01*
X201859343Y-193714343D01*
X201787914Y-193571486D01*
X201787914Y-193428629D01*
X201859343Y-193285771D01*
X202002200Y-193214343D01*
X202359343Y-193214343D01*
X202502200Y-193142914D01*
X203002200Y-192785771D02*
X203573629Y-192785771D01*
X203216486Y-192285771D02*
X203216486Y-193571486D01*
X203287914Y-193714343D01*
X203430772Y-193785771D01*
X203573629Y-193785771D01*
X204645057Y-193714343D02*
X204502200Y-193785771D01*
X204216486Y-193785771D01*
X204073629Y-193714343D01*
X204002200Y-193571486D01*
X204002200Y-193000057D01*
X204073629Y-192857200D01*
X204216486Y-192785771D01*
X204502200Y-192785771D01*
X204645057Y-192857200D01*
X204716486Y-193000057D01*
X204716486Y-193142914D01*
X204002200Y-193285771D01*
X205359343Y-193642914D02*
X205430771Y-193714343D01*
X205359343Y-193785771D01*
X205287914Y-193714343D01*
X205359343Y-193642914D01*
X205359343Y-193785771D01*
X205359343Y-192857200D02*
X205430771Y-192928629D01*
X205359343Y-193000057D01*
X205287914Y-192928629D01*
X205359343Y-192857200D01*
X205359343Y-193000057D01*
D10*
D11*
X177002200Y-194507200D02*
X285002200Y-194507200D01*
D10*
D11*
X178359343Y-196585771D02*
X178359343Y-195085771D01*
X179216486Y-196585771D02*
X178573629Y-195728629D01*
X179216486Y-195085771D02*
X178359343Y-195942914D01*
X179859343Y-196585771D02*
X179859343Y-195585771D01*
X179859343Y-195085771D02*
X179787914Y-195157200D01*
X179859343Y-195228629D01*
X179930771Y-195157200D01*
X179859343Y-195085771D01*
X179859343Y-195228629D01*
X181430772Y-196442914D02*
X181359343Y-196514343D01*
X181145057Y-196585771D01*
X181002200Y-196585771D01*
X180787915Y-196514343D01*
X180645057Y-196371486D01*
X180573629Y-196228629D01*
X180502200Y-195942914D01*
X180502200Y-195728629D01*
X180573629Y-195442914D01*
X180645057Y-195300057D01*
X180787915Y-195157200D01*
X181002200Y-195085771D01*
X181145057Y-195085771D01*
X181359343Y-195157200D01*
X181430772Y-195228629D01*
X182716486Y-196585771D02*
X182716486Y-195800057D01*
X182645057Y-195657200D01*
X182502200Y-195585771D01*
X182216486Y-195585771D01*
X182073629Y-195657200D01*
X182716486Y-196514343D02*
X182573629Y-196585771D01*
X182216486Y-196585771D01*
X182073629Y-196514343D01*
X182002200Y-196371486D01*
X182002200Y-196228629D01*
X182073629Y-196085771D01*
X182216486Y-196014343D01*
X182573629Y-196014343D01*
X182716486Y-195942914D01*
X184073629Y-196585771D02*
X184073629Y-195085771D01*
X184073629Y-196514343D02*
X183930772Y-196585771D01*
X183645058Y-196585771D01*
X183502200Y-196514343D01*
X183430772Y-196442914D01*
X183359343Y-196300057D01*
X183359343Y-195871486D01*
X183430772Y-195728629D01*
X183502200Y-195657200D01*
X183645058Y-195585771D01*
X183930772Y-195585771D01*
X184073629Y-195657200D01*
X185930772Y-195800057D02*
X186430772Y-195800057D01*
X186645058Y-196585771D02*
X185930772Y-196585771D01*
X185930772Y-195085771D01*
X186645058Y-195085771D01*
X187287915Y-196442914D02*
X187359343Y-196514343D01*
X187287915Y-196585771D01*
X187216486Y-196514343D01*
X187287915Y-196442914D01*
X187287915Y-196585771D01*
X188002201Y-196585771D02*
X188002201Y-195085771D01*
X188359344Y-195085771D01*
X188573629Y-195157200D01*
X188716487Y-195300057D01*
X188787915Y-195442914D01*
X188859344Y-195728629D01*
X188859344Y-195942914D01*
X188787915Y-196228629D01*
X188716487Y-196371486D01*
X188573629Y-196514343D01*
X188359344Y-196585771D01*
X188002201Y-196585771D01*
X189502201Y-196442914D02*
X189573629Y-196514343D01*
X189502201Y-196585771D01*
X189430772Y-196514343D01*
X189502201Y-196442914D01*
X189502201Y-196585771D01*
X190145058Y-196157200D02*
X190859344Y-196157200D01*
X190002201Y-196585771D02*
X190502201Y-195085771D01*
X191002201Y-196585771D01*
X191502201Y-196442914D02*
X191573629Y-196514343D01*
X191502201Y-196585771D01*
X191430772Y-196514343D01*
X191502201Y-196442914D01*
X191502201Y-196585771D01*
X194502201Y-195585771D02*
X194502201Y-197085771D01*
X194502201Y-195657200D02*
X194645058Y-195585771D01*
X194930772Y-195585771D01*
X195073629Y-195657200D01*
X195145058Y-195728629D01*
X195216487Y-195871486D01*
X195216487Y-196300057D01*
X195145058Y-196442914D01*
X195073629Y-196514343D01*
X194930772Y-196585771D01*
X194645058Y-196585771D01*
X194502201Y-196514343D01*
X196502201Y-196514343D02*
X196359344Y-196585771D01*
X196073630Y-196585771D01*
X195930772Y-196514343D01*
X195859344Y-196442914D01*
X195787915Y-196300057D01*
X195787915Y-195871486D01*
X195859344Y-195728629D01*
X195930772Y-195657200D01*
X196073630Y-195585771D01*
X196359344Y-195585771D01*
X196502201Y-195657200D01*
X197145058Y-196585771D02*
X197145058Y-195085771D01*
X197145058Y-195657200D02*
X197287915Y-195585771D01*
X197573629Y-195585771D01*
X197716486Y-195657200D01*
X197787915Y-195728629D01*
X197859344Y-195871486D01*
X197859344Y-196300057D01*
X197787915Y-196442914D01*
X197716486Y-196514343D01*
X197573629Y-196585771D01*
X197287915Y-196585771D01*
X197145058Y-196514343D01*
X198502201Y-195585771D02*
X198502201Y-196585771D01*
X198502201Y-195728629D02*
X198573629Y-195657200D01*
X198716487Y-195585771D01*
X198930772Y-195585771D01*
X199073629Y-195657200D01*
X199145058Y-195800057D01*
X199145058Y-196585771D01*
X200430772Y-196514343D02*
X200287915Y-196585771D01*
X200002201Y-196585771D01*
X199859344Y-196514343D01*
X199787915Y-196371486D01*
X199787915Y-195800057D01*
X199859344Y-195657200D01*
X200002201Y-195585771D01*
X200287915Y-195585771D01*
X200430772Y-195657200D01*
X200502201Y-195800057D01*
X200502201Y-195942914D01*
X199787915Y-196085771D01*
X201002201Y-195585771D02*
X201287915Y-196585771D01*
X201573629Y-195871486D01*
X201859344Y-196585771D01*
X202145058Y-195585771D01*
X204502201Y-195585771D02*
X204502201Y-196585771D01*
X204145058Y-195014343D02*
X203787915Y-196085771D01*
X204716487Y-196085771D01*
X205287915Y-196442914D02*
X205359343Y-196514343D01*
X205287915Y-196585771D01*
X205216486Y-196514343D01*
X205287915Y-196442914D01*
X205287915Y-196585771D01*
X206287915Y-195085771D02*
X206430772Y-195085771D01*
X206573629Y-195157200D01*
X206645058Y-195228629D01*
X206716487Y-195371486D01*
X206787915Y-195657200D01*
X206787915Y-196014343D01*
X206716487Y-196300057D01*
X206645058Y-196442914D01*
X206573629Y-196514343D01*
X206430772Y-196585771D01*
X206287915Y-196585771D01*
X206145058Y-196514343D01*
X206073629Y-196442914D01*
X206002201Y-196300057D01*
X205930772Y-196014343D01*
X205930772Y-195657200D01*
X206002201Y-195371486D01*
X206073629Y-195228629D01*
X206145058Y-195157200D01*
X206287915Y-195085771D01*
X207430772Y-196442914D02*
X207502200Y-196514343D01*
X207430772Y-196585771D01*
X207359343Y-196514343D01*
X207430772Y-196442914D01*
X207430772Y-196585771D01*
X208859344Y-195085771D02*
X208145058Y-195085771D01*
X208073629Y-195800057D01*
X208145058Y-195728629D01*
X208287915Y-195657200D01*
X208645058Y-195657200D01*
X208787915Y-195728629D01*
X208859344Y-195800057D01*
X208930772Y-195942914D01*
X208930772Y-196300057D01*
X208859344Y-196442914D01*
X208787915Y-196514343D01*
X208645058Y-196585771D01*
X208287915Y-196585771D01*
X208145058Y-196514343D01*
X208073629Y-196442914D01*
D10*
D11*
X177002200Y-191507200D02*
X285002200Y-191507200D01*
D10*
D12*
X264216486Y-193785771D02*
X263716486Y-193071486D01*
X263359343Y-193785771D02*
X263359343Y-192285771D01*
X263930771Y-192285771D01*
X264073629Y-192357200D01*
X264145057Y-192428629D01*
X264216486Y-192571486D01*
X264216486Y-192785771D01*
X264145057Y-192928629D01*
X264073629Y-193000057D01*
X263930771Y-193071486D01*
X263359343Y-193071486D01*
X265430771Y-193714343D02*
X265287914Y-193785771D01*
X265002200Y-193785771D01*
X264859343Y-193714343D01*
X264787914Y-193571486D01*
X264787914Y-193000057D01*
X264859343Y-192857200D01*
X265002200Y-192785771D01*
X265287914Y-192785771D01*
X265430771Y-192857200D01*
X265502200Y-193000057D01*
X265502200Y-193142914D01*
X264787914Y-193285771D01*
X266002200Y-192785771D02*
X266359343Y-193785771D01*
X266716485Y-192785771D01*
X267287914Y-193642914D02*
X267359342Y-193714343D01*
X267287914Y-193785771D01*
X267216485Y-193714343D01*
X267287914Y-193642914D01*
X267287914Y-193785771D01*
X267287914Y-192857200D02*
X267359342Y-192928629D01*
X267287914Y-193000057D01*
X267216485Y-192928629D01*
X267287914Y-192857200D01*
X267287914Y-193000057D01*
D10*
D11*
X178287914Y-193714343D02*
X178502200Y-193785771D01*
X178859343Y-193785771D01*
X179002200Y-193714343D01*
X179073629Y-193642914D01*
X179145057Y-193500057D01*
X179145057Y-193357200D01*
X179073629Y-193214343D01*
X179002200Y-193142914D01*
X178859343Y-193071486D01*
X178573629Y-193000057D01*
X178430771Y-192928629D01*
X178359343Y-192857200D01*
X178287914Y-192714343D01*
X178287914Y-192571486D01*
X178359343Y-192428629D01*
X178430771Y-192357200D01*
X178573629Y-192285771D01*
X178930771Y-192285771D01*
X179145057Y-192357200D01*
X179787914Y-193785771D02*
X179787914Y-192785771D01*
X179787914Y-192285771D02*
X179716485Y-192357200D01*
X179787914Y-192428629D01*
X179859342Y-192357200D01*
X179787914Y-192285771D01*
X179787914Y-192428629D01*
X180359343Y-192785771D02*
X181145057Y-192785771D01*
X180359343Y-193785771D01*
X181145057Y-193785771D01*
X182287914Y-193714343D02*
X182145057Y-193785771D01*
X181859343Y-193785771D01*
X181716486Y-193714343D01*
X181645057Y-193571486D01*
X181645057Y-193000057D01*
X181716486Y-192857200D01*
X181859343Y-192785771D01*
X182145057Y-192785771D01*
X182287914Y-192857200D01*
X182359343Y-193000057D01*
X182359343Y-193142914D01*
X181645057Y-193285771D01*
X183002200Y-193642914D02*
X183073628Y-193714343D01*
X183002200Y-193785771D01*
X182930771Y-193714343D01*
X183002200Y-193642914D01*
X183002200Y-193785771D01*
X183002200Y-192857200D02*
X183073628Y-192928629D01*
X183002200Y-193000057D01*
X182930771Y-192928629D01*
X183002200Y-192857200D01*
X183002200Y-193000057D01*
X184787914Y-193357200D02*
X185502200Y-193357200D01*
X184645057Y-193785771D02*
X185145057Y-192285771D01*
X185645057Y-193785771D01*
X186787914Y-192785771D02*
X186787914Y-193785771D01*
X186430771Y-192214343D02*
X186073628Y-193285771D01*
X187002200Y-193285771D01*
D10*
D11*
X263359343Y-196585771D02*
X263359343Y-195085771D01*
X264716486Y-196585771D02*
X264716486Y-195085771D01*
X264716486Y-196514343D02*
X264573629Y-196585771D01*
X264287915Y-196585771D01*
X264145057Y-196514343D01*
X264073629Y-196442914D01*
X264002200Y-196300057D01*
X264002200Y-195871486D01*
X264073629Y-195728629D01*
X264145057Y-195657200D01*
X264287915Y-195585771D01*
X264573629Y-195585771D01*
X264716486Y-195657200D01*
X265430772Y-196442914D02*
X265502200Y-196514343D01*
X265430772Y-196585771D01*
X265359343Y-196514343D01*
X265430772Y-196442914D01*
X265430772Y-196585771D01*
X265430772Y-195657200D02*
X265502200Y-195728629D01*
X265430772Y-195800057D01*
X265359343Y-195728629D01*
X265430772Y-195657200D01*
X265430772Y-195800057D01*
X268073629Y-196585771D02*
X267216486Y-196585771D01*
X267645058Y-196585771D02*
X267645058Y-195085771D01*
X267502201Y-195300057D01*
X267359343Y-195442914D01*
X267216486Y-195514343D01*
X269787914Y-195014343D02*
X268502200Y-196942914D01*
X271073629Y-196585771D02*
X270216486Y-196585771D01*
X270645058Y-196585771D02*
X270645058Y-195085771D01*
X270502201Y-195300057D01*
X270359343Y-195442914D01*
X270216486Y-195514343D01*
D10*
D11*
X177002200Y-187507200D02*
X285002200Y-187507200D01*
D10*
D13*
X178454581Y-188211962D02*
X179597438Y-188211962D01*
X178776010Y-190211962D02*
X179026010Y-188211962D01*
X180014105Y-190211962D02*
X180180771Y-188878629D01*
X180264105Y-188211962D02*
X180156962Y-188307200D01*
X180240295Y-188402438D01*
X180347439Y-188307200D01*
X180264105Y-188211962D01*
X180240295Y-188402438D01*
X180847438Y-188878629D02*
X181609343Y-188878629D01*
X181216486Y-188211962D02*
X181002200Y-189926248D01*
X181073630Y-190116724D01*
X181252201Y-190211962D01*
X181442677Y-190211962D01*
X182395058Y-190211962D02*
X182216487Y-190116724D01*
X182145057Y-189926248D01*
X182359343Y-188211962D01*
X183930772Y-190116724D02*
X183728391Y-190211962D01*
X183347439Y-190211962D01*
X183168867Y-190116724D01*
X183097438Y-189926248D01*
X183192676Y-189164343D01*
X183311724Y-188973867D01*
X183514105Y-188878629D01*
X183895057Y-188878629D01*
X184073629Y-188973867D01*
X184145057Y-189164343D01*
X184121248Y-189354819D01*
X183145057Y-189545295D01*
X184895057Y-190021486D02*
X184978392Y-190116724D01*
X184871248Y-190211962D01*
X184787915Y-190116724D01*
X184895057Y-190021486D01*
X184871248Y-190211962D01*
X185026010Y-188973867D02*
X185109344Y-189069105D01*
X185002200Y-189164343D01*
X184918867Y-189069105D01*
X185026010Y-188973867D01*
X185002200Y-189164343D01*
D10*
D11*
X178859343Y-185600057D02*
X178359343Y-185600057D01*
X178359343Y-186385771D02*
X178359343Y-184885771D01*
X179073629Y-184885771D01*
X179645057Y-186385771D02*
X179645057Y-185385771D01*
X179645057Y-184885771D02*
X179573628Y-184957200D01*
X179645057Y-185028629D01*
X179716485Y-184957200D01*
X179645057Y-184885771D01*
X179645057Y-185028629D01*
X180573629Y-186385771D02*
X180430771Y-186314343D01*
X180359343Y-186171486D01*
X180359343Y-184885771D01*
X181716485Y-186314343D02*
X181573628Y-186385771D01*
X181287914Y-186385771D01*
X181145057Y-186314343D01*
X181073628Y-186171486D01*
X181073628Y-185600057D01*
X181145057Y-185457200D01*
X181287914Y-185385771D01*
X181573628Y-185385771D01*
X181716485Y-185457200D01*
X181787914Y-185600057D01*
X181787914Y-185742914D01*
X181073628Y-185885771D01*
X182430771Y-186242914D02*
X182502199Y-186314343D01*
X182430771Y-186385771D01*
X182359342Y-186314343D01*
X182430771Y-186242914D01*
X182430771Y-186385771D01*
X182430771Y-185457200D02*
X182502199Y-185528629D01*
X182430771Y-185600057D01*
X182359342Y-185528629D01*
X182430771Y-185457200D01*
X182430771Y-185600057D01*
X184287914Y-186385771D02*
X184287914Y-185385771D01*
X184287914Y-185528629D02*
X184359342Y-185457200D01*
X184502200Y-185385771D01*
X184716485Y-185385771D01*
X184859342Y-185457200D01*
X184930771Y-185600057D01*
X184930771Y-186385771D01*
X184930771Y-185600057D02*
X185002200Y-185457200D01*
X185145057Y-185385771D01*
X185359342Y-185385771D01*
X185502200Y-185457200D01*
X185573628Y-185600057D01*
X185573628Y-186385771D01*
X186287914Y-186385771D02*
X186287914Y-185385771D01*
X186287914Y-184885771D02*
X186216485Y-184957200D01*
X186287914Y-185028629D01*
X186359342Y-184957200D01*
X186287914Y-184885771D01*
X186287914Y-185028629D01*
X186787914Y-185385771D02*
X187359343Y-185385771D01*
X187002200Y-186385771D02*
X187002200Y-185100057D01*
X187073628Y-184957200D01*
X187216486Y-184885771D01*
X187359343Y-184885771D01*
X188502200Y-186385771D02*
X188502200Y-185600057D01*
X188430771Y-185457200D01*
X188287914Y-185385771D01*
X188002200Y-185385771D01*
X187859343Y-185457200D01*
X188502200Y-186314343D02*
X188359343Y-186385771D01*
X188002200Y-186385771D01*
X187859343Y-186314343D01*
X187787914Y-186171486D01*
X187787914Y-186028629D01*
X187859343Y-185885771D01*
X188002200Y-185814343D01*
X188359343Y-185814343D01*
X188502200Y-185742914D01*
X188859343Y-186528629D02*
X190002200Y-186528629D01*
X190359343Y-186385771D02*
X190359343Y-185385771D01*
X190359343Y-185528629D02*
X190430771Y-185457200D01*
X190573629Y-185385771D01*
X190787914Y-185385771D01*
X190930771Y-185457200D01*
X191002200Y-185600057D01*
X191002200Y-186385771D01*
X191002200Y-185600057D02*
X191073629Y-185457200D01*
X191216486Y-185385771D01*
X191430771Y-185385771D01*
X191573629Y-185457200D01*
X191645057Y-185600057D01*
X191645057Y-186385771D01*
X192359343Y-186385771D02*
X192359343Y-185385771D01*
X192359343Y-184885771D02*
X192287914Y-184957200D01*
X192359343Y-185028629D01*
X192430771Y-184957200D01*
X192359343Y-184885771D01*
X192359343Y-185028629D01*
X193287915Y-186385771D02*
X193145057Y-186314343D01*
X193073629Y-186171486D01*
X193073629Y-184885771D01*
X194073629Y-186385771D02*
X193930771Y-186314343D01*
X193859343Y-186171486D01*
X193859343Y-184885771D01*
X195216485Y-186314343D02*
X195073628Y-186385771D01*
X194787914Y-186385771D01*
X194645057Y-186314343D01*
X194573628Y-186171486D01*
X194573628Y-185600057D01*
X194645057Y-185457200D01*
X194787914Y-185385771D01*
X195073628Y-185385771D01*
X195216485Y-185457200D01*
X195287914Y-185600057D01*
X195287914Y-185742914D01*
X194573628Y-185885771D01*
X196573628Y-186385771D02*
X196573628Y-184885771D01*
X196573628Y-186314343D02*
X196430771Y-186385771D01*
X196145057Y-186385771D01*
X196002199Y-186314343D01*
X195930771Y-186242914D01*
X195859342Y-186100057D01*
X195859342Y-185671486D01*
X195930771Y-185528629D01*
X196002199Y-185457200D01*
X196145057Y-185385771D01*
X196430771Y-185385771D01*
X196573628Y-185457200D01*
X197287914Y-186242914D02*
X197359342Y-186314343D01*
X197287914Y-186385771D01*
X197216485Y-186314343D01*
X197287914Y-186242914D01*
X197287914Y-186385771D01*
X198002200Y-186385771D02*
X198002200Y-184885771D01*
X198145057Y-185814343D02*
X198573628Y-186385771D01*
X198573628Y-185385771D02*
X198002200Y-185957200D01*
X199216486Y-186385771D02*
X199216486Y-185385771D01*
X199216486Y-184885771D02*
X199145057Y-184957200D01*
X199216486Y-185028629D01*
X199287914Y-184957200D01*
X199216486Y-184885771D01*
X199216486Y-185028629D01*
X200573629Y-186314343D02*
X200430772Y-186385771D01*
X200145058Y-186385771D01*
X200002200Y-186314343D01*
X199930772Y-186242914D01*
X199859343Y-186100057D01*
X199859343Y-185671486D01*
X199930772Y-185528629D01*
X200002200Y-185457200D01*
X200145058Y-185385771D01*
X200430772Y-185385771D01*
X200573629Y-185457200D01*
X201859343Y-186385771D02*
X201859343Y-185600057D01*
X201787914Y-185457200D01*
X201645057Y-185385771D01*
X201359343Y-185385771D01*
X201216486Y-185457200D01*
X201859343Y-186314343D02*
X201716486Y-186385771D01*
X201359343Y-186385771D01*
X201216486Y-186314343D01*
X201145057Y-186171486D01*
X201145057Y-186028629D01*
X201216486Y-185885771D01*
X201359343Y-185814343D01*
X201716486Y-185814343D01*
X201859343Y-185742914D01*
X203216486Y-186385771D02*
X203216486Y-184885771D01*
X203216486Y-186314343D02*
X203073629Y-186385771D01*
X202787915Y-186385771D01*
X202645057Y-186314343D01*
X202573629Y-186242914D01*
X202502200Y-186100057D01*
X202502200Y-185671486D01*
X202573629Y-185528629D01*
X202645057Y-185457200D01*
X202787915Y-185385771D01*
X203073629Y-185385771D01*
X203216486Y-185457200D01*
X203573629Y-186528629D02*
X204716486Y-186528629D01*
X205073629Y-185385771D02*
X205073629Y-186885771D01*
X205073629Y-185457200D02*
X205216486Y-185385771D01*
X205502200Y-185385771D01*
X205645057Y-185457200D01*
X205716486Y-185528629D01*
X205787915Y-185671486D01*
X205787915Y-186100057D01*
X205716486Y-186242914D01*
X205645057Y-186314343D01*
X205502200Y-186385771D01*
X205216486Y-186385771D01*
X205073629Y-186314343D01*
X207073629Y-186314343D02*
X206930772Y-186385771D01*
X206645058Y-186385771D01*
X206502200Y-186314343D01*
X206430772Y-186242914D01*
X206359343Y-186100057D01*
X206359343Y-185671486D01*
X206430772Y-185528629D01*
X206502200Y-185457200D01*
X206645058Y-185385771D01*
X206930772Y-185385771D01*
X207073629Y-185457200D01*
X207716486Y-186385771D02*
X207716486Y-184885771D01*
X207716486Y-185457200D02*
X207859343Y-185385771D01*
X208145057Y-185385771D01*
X208287914Y-185457200D01*
X208359343Y-185528629D01*
X208430772Y-185671486D01*
X208430772Y-186100057D01*
X208359343Y-186242914D01*
X208287914Y-186314343D01*
X208145057Y-186385771D01*
X207859343Y-186385771D01*
X207716486Y-186314343D01*
D10*
D11*
X177002200Y-181507200D02*
X285002200Y-181507200D01*
D10*
D11*
X178287914Y-183614343D02*
X178502200Y-183685771D01*
X178859343Y-183685771D01*
X179002200Y-183614343D01*
X179073629Y-183542914D01*
X179145057Y-183400057D01*
X179145057Y-183257200D01*
X179073629Y-183114343D01*
X179002200Y-183042914D01*
X178859343Y-182971486D01*
X178573629Y-182900057D01*
X178430771Y-182828629D01*
X178359343Y-182757200D01*
X178287914Y-182614343D01*
X178287914Y-182471486D01*
X178359343Y-182328629D01*
X178430771Y-182257200D01*
X178573629Y-182185771D01*
X178930771Y-182185771D01*
X179145057Y-182257200D01*
X179787914Y-183685771D02*
X179787914Y-182185771D01*
X180430771Y-183685771D02*
X180430771Y-182900057D01*
X180359342Y-182757200D01*
X180216485Y-182685771D01*
X180002200Y-182685771D01*
X179859342Y-182757200D01*
X179787914Y-182828629D01*
X181716485Y-183614343D02*
X181573628Y-183685771D01*
X181287914Y-183685771D01*
X181145057Y-183614343D01*
X181073628Y-183471486D01*
X181073628Y-182900057D01*
X181145057Y-182757200D01*
X181287914Y-182685771D01*
X181573628Y-182685771D01*
X181716485Y-182757200D01*
X181787914Y-182900057D01*
X181787914Y-183042914D01*
X181073628Y-183185771D01*
X183002199Y-183614343D02*
X182859342Y-183685771D01*
X182573628Y-183685771D01*
X182430771Y-183614343D01*
X182359342Y-183471486D01*
X182359342Y-182900057D01*
X182430771Y-182757200D01*
X182573628Y-182685771D01*
X182859342Y-182685771D01*
X183002199Y-182757200D01*
X183073628Y-182900057D01*
X183073628Y-183042914D01*
X182359342Y-183185771D01*
X183502199Y-182685771D02*
X184073628Y-182685771D01*
X183716485Y-182185771D02*
X183716485Y-183471486D01*
X183787913Y-183614343D01*
X183930771Y-183685771D01*
X184073628Y-183685771D01*
X184573628Y-183542914D02*
X184645056Y-183614343D01*
X184573628Y-183685771D01*
X184502199Y-183614343D01*
X184573628Y-183542914D01*
X184573628Y-183685771D01*
X184573628Y-182757200D02*
X184645056Y-182828629D01*
X184573628Y-182900057D01*
X184502199Y-182828629D01*
X184573628Y-182757200D01*
X184573628Y-182900057D01*
D10*
D11*
X197002200Y-191507200D02*
X197002200Y-194507200D01*
D10*
D11*
X261002200Y-191507200D02*
X261002200Y-198007200D01*
D14*
X150876000Y-104488400D03*
D15*
X146496000Y-104488400D03*
X155256000Y-104488400D03*
D16*
X146496000Y-101048400D03*
X155256000Y-101048400D03*
D17*
X146496000Y-101498400D03*
X155256000Y-101498400D03*
D18*
X162496500Y-100152200D03*
X161607500Y-100152200D03*
X160718500Y-100152200D03*
X159829500Y-100152200D03*
X158940500Y-100152200D03*
X158051500Y-100152200D03*
X157162500Y-100152200D03*
X156273500Y-100152200D03*
X155384500Y-100152200D03*
X154495500Y-100152200D03*
X153606500Y-100152200D03*
X152717500Y-101041200D03*
X152717500Y-100152200D03*
X148780500Y-99707700D03*
D19*
X148082000Y-99834700D02*
X144145000Y-99834700D01*
X148082000Y-100037900D02*
X144145000Y-100037900D01*
X148082000Y-100241100D02*
X144145000Y-100241100D01*
X148136865Y-100444300D02*
X144145000Y-100444300D01*
X149352000Y-100647500D02*
X144145000Y-100647500D01*
X149352000Y-100850700D02*
X144145000Y-100850700D01*
X149352000Y-101053900D02*
X144145000Y-101053900D01*
X149352000Y-101257100D02*
X144145000Y-101257100D01*
X149352000Y-101460300D02*
X144145000Y-101460300D01*
X149352000Y-101663500D02*
X144145000Y-101663500D01*
X149352000Y-101866700D02*
X144145000Y-101866700D01*
X149352000Y-102069900D02*
X144145000Y-102069900D01*
X149352000Y-102273100D02*
X144145000Y-102273100D01*
X149352000Y-102476300D02*
X144145000Y-102476300D01*
X149352000Y-102679500D02*
X144145000Y-102679500D01*
X149352000Y-102882700D02*
X144145000Y-102882700D01*
X149352000Y-103085900D02*
X144145000Y-103085900D01*
X149352000Y-103289100D02*
X144145000Y-103289100D01*
X149352000Y-103492300D02*
X144145000Y-103492300D01*
X149352000Y-103695500D02*
X144145000Y-103695500D01*
X149352000Y-103898700D02*
X144145000Y-103898700D01*
X149352000Y-104101900D02*
X144145000Y-104101900D01*
X149352000Y-104305100D02*
X144145000Y-104305100D01*
X149352000Y-104508300D02*
X144145000Y-104508300D01*
X149352000Y-104711500D02*
X144145000Y-104711500D01*
X149352000Y-104914700D02*
X144145000Y-104914700D01*
X149352000Y-105117900D02*
X144145000Y-105117900D01*
X149352000Y-105321100D02*
X144145000Y-105321100D01*
X149352000Y-105524300D02*
X144145000Y-105524300D01*
X149352000Y-105727500D02*
X144145000Y-105727500D01*
X149352000Y-105930700D02*
X144145000Y-105930700D01*
X149352000Y-106133900D02*
X144145000Y-106133900D01*
X149352000Y-106337100D02*
X144145000Y-106337100D01*
X149352000Y-106540300D02*
X144145000Y-106540300D01*
X149352000Y-106743500D02*
X144145000Y-106743500D01*
X149352000Y-106946700D02*
X144145000Y-106946700D01*
X149352000Y-107149900D02*
X144145000Y-107149900D01*
X149380310Y-107353100D02*
X144145000Y-107353100D01*
X162864800Y-99834700D02*
X152400000Y-99834700D01*
X162864800Y-100037900D02*
X152400000Y-100037900D01*
X162864800Y-100241100D02*
X152400000Y-100241100D01*
X162864800Y-100444300D02*
X152400000Y-100444300D01*
X162864800Y-100647500D02*
X152400000Y-100647500D01*
X162864800Y-100850700D02*
X152400000Y-100850700D01*
X162864800Y-101053900D02*
X152400000Y-101053900D01*
X162864800Y-101257100D02*
X152400000Y-101257100D01*
X162864800Y-101460300D02*
X152400000Y-101460300D01*
X162864800Y-101663500D02*
X152400000Y-101663500D01*
X162864800Y-101866700D02*
X152400000Y-101866700D01*
X162864800Y-102069900D02*
X152400000Y-102069900D01*
X162864800Y-102273100D02*
X152400000Y-102273100D01*
X162864800Y-102476300D02*
X152400000Y-102476300D01*
X162864800Y-102679500D02*
X152400000Y-102679500D01*
X162864800Y-102882700D02*
X152400000Y-102882700D01*
X162864800Y-103085900D02*
X152400000Y-103085900D01*
X162864800Y-103289100D02*
X152400000Y-103289100D01*
X162864800Y-103492300D02*
X152400000Y-103492300D01*
X162864800Y-103695500D02*
X152400000Y-103695500D01*
X162864800Y-103898700D02*
X152400000Y-103898700D01*
X162864800Y-104101900D02*
X152400000Y-104101900D01*
X162864800Y-104305100D02*
X152400000Y-104305100D01*
X162864800Y-104508300D02*
X152400000Y-104508300D01*
X162864800Y-104711500D02*
X152400000Y-104711500D01*
X162864800Y-104914700D02*
X152400000Y-104914700D01*
X162864800Y-105117900D02*
X152400000Y-105117900D01*
X162864800Y-105321100D02*
X152400000Y-105321100D01*
X162864800Y-105524300D02*
X152400000Y-105524300D01*
X162864800Y-105727500D02*
X152400000Y-105727500D01*
X162864800Y-105930700D02*
X152400000Y-105930700D01*
X162864800Y-106133900D02*
X152400000Y-106133900D01*
X162864800Y-106337100D02*
X152400000Y-106337100D01*
X162864800Y-106540300D02*
X152400000Y-106540300D01*
X162864800Y-106743500D02*
X152400000Y-106743500D01*
X162864800Y-106946700D02*
X152400000Y-106946700D01*
X162864800Y-107149900D02*
X152400000Y-107149900D01*
X162864800Y-107353100D02*
X152371983Y-107353100D01*
X148082000Y-100342700D02*
X148092006Y-100392110D01*
X148120447Y-100433735D01*
X148162841Y-100461015D01*
X148209000Y-100469700D01*
X149352000Y-100469700D01*
X149352000Y-107276900D01*
X149362006Y-107326310D01*
X149390447Y-107367935D01*
X149432841Y-107395215D01*
X149479000Y-107403900D01*
X144145000Y-107403900D01*
X144145000Y-99834700D01*
X148082000Y-99834700D01*
X148082000Y-100342700D01*
X148082000Y-99834700D02*
X144145000Y-99834700D01*
X148082000Y-100037900D02*
X144145000Y-100037900D01*
X148082000Y-100241100D02*
X144145000Y-100241100D01*
X148136865Y-100444300D02*
X144145000Y-100444300D01*
X149352000Y-100647500D02*
X144145000Y-100647500D01*
X149352000Y-100850700D02*
X144145000Y-100850700D01*
X149352000Y-101053900D02*
X144145000Y-101053900D01*
X149352000Y-101257100D02*
X144145000Y-101257100D01*
X149352000Y-101460300D02*
X144145000Y-101460300D01*
X149352000Y-101663500D02*
X144145000Y-101663500D01*
X149352000Y-101866700D02*
X144145000Y-101866700D01*
X149352000Y-102069900D02*
X144145000Y-102069900D01*
X149352000Y-102273100D02*
X144145000Y-102273100D01*
X149352000Y-102476300D02*
X144145000Y-102476300D01*
X149352000Y-102679500D02*
X144145000Y-102679500D01*
X149352000Y-102882700D02*
X144145000Y-102882700D01*
X149352000Y-103085900D02*
X144145000Y-103085900D01*
X149352000Y-103289100D02*
X144145000Y-103289100D01*
X149352000Y-103492300D02*
X144145000Y-103492300D01*
X149352000Y-103695500D02*
X144145000Y-103695500D01*
X149352000Y-103898700D02*
X144145000Y-103898700D01*
X149352000Y-104101900D02*
X144145000Y-104101900D01*
X149352000Y-104305100D02*
X144145000Y-104305100D01*
X149352000Y-104508300D02*
X144145000Y-104508300D01*
X149352000Y-104711500D02*
X144145000Y-104711500D01*
X149352000Y-104914700D02*
X144145000Y-104914700D01*
X149352000Y-105117900D02*
X144145000Y-105117900D01*
X149352000Y-105321100D02*
X144145000Y-105321100D01*
X149352000Y-105524300D02*
X144145000Y-105524300D01*
X149352000Y-105727500D02*
X144145000Y-105727500D01*
X149352000Y-105930700D02*
X144145000Y-105930700D01*
X149352000Y-106133900D02*
X144145000Y-106133900D01*
X149352000Y-106337100D02*
X144145000Y-106337100D01*
X149352000Y-106540300D02*
X144145000Y-106540300D01*
X149352000Y-106743500D02*
X144145000Y-106743500D01*
X149352000Y-106946700D02*
X144145000Y-106946700D01*
X149352000Y-107149900D02*
X144145000Y-107149900D01*
X149380310Y-107353100D02*
X144145000Y-107353100D01*
X162864800Y-99834700D02*
X152400000Y-99834700D01*
X162864800Y-100037900D02*
X152400000Y-100037900D01*
X162864800Y-100241100D02*
X152400000Y-100241100D01*
X162864800Y-100444300D02*
X152400000Y-100444300D01*
X162864800Y-100647500D02*
X152400000Y-100647500D01*
X162864800Y-100850700D02*
X152400000Y-100850700D01*
X162864800Y-101053900D02*
X152400000Y-101053900D01*
X162864800Y-101257100D02*
X152400000Y-101257100D01*
X162864800Y-101460300D02*
X152400000Y-101460300D01*
X162864800Y-101663500D02*
X152400000Y-101663500D01*
X162864800Y-101866700D02*
X152400000Y-101866700D01*
X162864800Y-102069900D02*
X152400000Y-102069900D01*
X162864800Y-102273100D02*
X152400000Y-102273100D01*
X162864800Y-102476300D02*
X152400000Y-102476300D01*
X162864800Y-102679500D02*
X152400000Y-102679500D01*
X162864800Y-102882700D02*
X152400000Y-102882700D01*
X162864800Y-103085900D02*
X152400000Y-103085900D01*
X162864800Y-103289100D02*
X152400000Y-103289100D01*
X162864800Y-103492300D02*
X152400000Y-103492300D01*
X162864800Y-103695500D02*
X152400000Y-103695500D01*
X162864800Y-103898700D02*
X152400000Y-103898700D01*
X162864800Y-104101900D02*
X152400000Y-104101900D01*
X162864800Y-104305100D02*
X152400000Y-104305100D01*
X162864800Y-104508300D02*
X152400000Y-104508300D01*
X162864800Y-104711500D02*
X152400000Y-104711500D01*
X162864800Y-104914700D02*
X152400000Y-104914700D01*
X162864800Y-105117900D02*
X152400000Y-105117900D01*
X162864800Y-105321100D02*
X152400000Y-105321100D01*
X162864800Y-105524300D02*
X152400000Y-105524300D01*
X162864800Y-105727500D02*
X152400000Y-105727500D01*
X162864800Y-105930700D02*
X152400000Y-105930700D01*
X162864800Y-106133900D02*
X152400000Y-106133900D01*
X162864800Y-106337100D02*
X152400000Y-106337100D01*
X162864800Y-106540300D02*
X152400000Y-106540300D01*
X162864800Y-106743500D02*
X152400000Y-106743500D01*
X162864800Y-106946700D02*
X152400000Y-106946700D01*
X162864800Y-107149900D02*
X152400000Y-107149900D01*
X162864800Y-107353100D02*
X152371983Y-107353100D01*
X162864800Y-107403900D02*
X152273000Y-107403900D01*
X152322410Y-107393894D01*
X152364035Y-107365453D01*
X152391315Y-107323059D01*
X152400000Y-107276900D01*
X152400000Y-99834700D01*
X162864800Y-99834700D01*
X162864800Y-107403900D01*
X153212800Y-94932500D02*
X148463000Y-94932500D01*
X157886400Y-94932500D02*
X155448000Y-94932500D01*
X162560000Y-94932500D02*
X160121600Y-94932500D01*
X153212800Y-95135700D02*
X148463000Y-95135700D01*
X157886400Y-95135700D02*
X155448000Y-95135700D01*
X162560000Y-95135700D02*
X160121600Y-95135700D01*
X149098000Y-95338900D02*
X148463000Y-95338900D01*
X151003000Y-95338900D02*
X150749000Y-95338900D01*
X153212800Y-95338900D02*
X152958800Y-95338900D01*
X155702000Y-95338900D02*
X155448000Y-95338900D01*
X157886400Y-95338900D02*
X157632400Y-95338900D01*
X160375600Y-95338900D02*
X160121600Y-95338900D01*
X162560000Y-95338900D02*
X162306000Y-95338900D01*
X149098000Y-95542100D02*
X148463000Y-95542100D01*
X151003000Y-95542100D02*
X150749000Y-95542100D01*
X153212800Y-95542100D02*
X152958800Y-95542100D01*
X155702000Y-95542100D02*
X155448000Y-95542100D01*
X157886400Y-95542100D02*
X157632400Y-95542100D01*
X160375600Y-95542100D02*
X160121600Y-95542100D01*
X162560000Y-95542100D02*
X162306000Y-95542100D01*
X149098000Y-95745300D02*
X148463000Y-95745300D01*
X151003000Y-95745300D02*
X150749000Y-95745300D01*
X153212800Y-95745300D02*
X152958800Y-95745300D01*
X155702000Y-95745300D02*
X155448000Y-95745300D01*
X157886400Y-95745300D02*
X157632400Y-95745300D01*
X160375600Y-95745300D02*
X160121600Y-95745300D01*
X162560000Y-95745300D02*
X162306000Y-95745300D01*
X149098000Y-95948500D02*
X148463000Y-95948500D01*
X151003000Y-95948500D02*
X150749000Y-95948500D01*
X153212800Y-95948500D02*
X152958800Y-95948500D01*
X155702000Y-95948500D02*
X155448000Y-95948500D01*
X157886400Y-95948500D02*
X157632400Y-95948500D01*
X160375600Y-95948500D02*
X160121600Y-95948500D01*
X162560000Y-95948500D02*
X162306000Y-95948500D01*
X149098000Y-96151700D02*
X148463000Y-96151700D01*
X151003000Y-96151700D02*
X150749000Y-96151700D01*
X153212800Y-96151700D02*
X152958800Y-96151700D01*
X155702000Y-96151700D02*
X155448000Y-96151700D01*
X157886400Y-96151700D02*
X157632400Y-96151700D01*
X160375600Y-96151700D02*
X160121600Y-96151700D01*
X162560000Y-96151700D02*
X162306000Y-96151700D01*
X149098000Y-96354900D02*
X148463000Y-96354900D01*
X151003000Y-96354900D02*
X150749000Y-96354900D01*
X153212800Y-96354900D02*
X152958800Y-96354900D01*
X155702000Y-96354900D02*
X155448000Y-96354900D01*
X157886400Y-96354900D02*
X157632400Y-96354900D01*
X160375600Y-96354900D02*
X160121600Y-96354900D01*
X162560000Y-96354900D02*
X162306000Y-96354900D01*
X149098000Y-96558100D02*
X148463000Y-96558100D01*
X151003000Y-96558100D02*
X150749000Y-96558100D01*
X153212800Y-96558100D02*
X152958800Y-96558100D01*
X155702000Y-96558100D02*
X155448000Y-96558100D01*
X157886400Y-96558100D02*
X157632400Y-96558100D01*
X160375600Y-96558100D02*
X160121600Y-96558100D01*
X162560000Y-96558100D02*
X162306000Y-96558100D01*
X149098000Y-96761300D02*
X148463000Y-96761300D01*
X151003000Y-96761300D02*
X150749000Y-96761300D01*
X153212800Y-96761300D02*
X152958800Y-96761300D01*
X155702000Y-96761300D02*
X155448000Y-96761300D01*
X157886400Y-96761300D02*
X157632400Y-96761300D01*
X160375600Y-96761300D02*
X160121600Y-96761300D01*
X162560000Y-96761300D02*
X162306000Y-96761300D01*
X149098000Y-96964500D02*
X148463000Y-96964500D01*
X151003000Y-96964500D02*
X150749000Y-96964500D01*
X153212800Y-96964500D02*
X152958800Y-96964500D01*
X155702000Y-96964500D02*
X155448000Y-96964500D01*
X157886400Y-96964500D02*
X157632400Y-96964500D01*
X160375600Y-96964500D02*
X160121600Y-96964500D01*
X162560000Y-96964500D02*
X162306000Y-96964500D01*
X149098000Y-97167700D02*
X148463000Y-97167700D01*
X151003000Y-97167700D02*
X150749000Y-97167700D01*
X153212800Y-97167700D02*
X152958800Y-97167700D01*
X155702000Y-97167700D02*
X155448000Y-97167700D01*
X157886400Y-97167700D02*
X157632400Y-97167700D01*
X160375600Y-97167700D02*
X160121600Y-97167700D01*
X162560000Y-97167700D02*
X162306000Y-97167700D01*
X149098000Y-97370900D02*
X148463000Y-97370900D01*
X151003000Y-97370900D02*
X150749000Y-97370900D01*
X153212800Y-97370900D02*
X152958800Y-97370900D01*
X155702000Y-97370900D02*
X155448000Y-97370900D01*
X157886400Y-97370900D02*
X157632400Y-97370900D01*
X160375600Y-97370900D02*
X160121600Y-97370900D01*
X162560000Y-97370900D02*
X162306000Y-97370900D01*
X149098000Y-97574100D02*
X148463000Y-97574100D01*
X151003000Y-97574100D02*
X150749000Y-97574100D01*
X155702000Y-97574100D02*
X152958800Y-97574100D01*
X160375600Y-97574100D02*
X157632400Y-97574100D01*
X162560000Y-97574100D02*
X162306000Y-97574100D01*
X149098000Y-97777300D02*
X148463000Y-97777300D01*
X151003000Y-97777300D02*
X150749000Y-97777300D01*
X155702000Y-97777300D02*
X152958800Y-97777300D01*
X160375600Y-97777300D02*
X157632400Y-97777300D01*
X162560000Y-97777300D02*
X162306000Y-97777300D01*
X149098000Y-97980500D02*
X148463000Y-97980500D01*
X151003000Y-97980500D02*
X150749000Y-97980500D01*
X162560000Y-97980500D02*
X162306000Y-97980500D01*
X149098000Y-98183700D02*
X148463000Y-98183700D01*
X151003000Y-98183700D02*
X150749000Y-98183700D01*
X162560000Y-98183700D02*
X162306000Y-98183700D01*
X149098000Y-98386900D02*
X148463000Y-98386900D01*
X151003000Y-98386900D02*
X150749000Y-98386900D01*
X162560000Y-98386900D02*
X162306000Y-98386900D01*
X149098000Y-98590100D02*
X148463000Y-98590100D01*
X151003000Y-98590100D02*
X150749000Y-98590100D01*
X162560000Y-98590100D02*
X162306000Y-98590100D01*
X149098000Y-98793300D02*
X148463000Y-98793300D01*
X151003000Y-98793300D02*
X150749000Y-98793300D01*
X149098000Y-98996500D02*
X148463000Y-98996500D01*
X151003000Y-98996500D02*
X150749000Y-98996500D01*
X149098000Y-99199700D02*
X148463000Y-99199700D01*
X151003000Y-99199700D02*
X150749000Y-99199700D01*
X149098000Y-99402900D02*
X148463000Y-99402900D01*
X151003000Y-99402900D02*
X150749000Y-99402900D01*
X149098000Y-99606100D02*
X148463000Y-99606100D01*
X151003000Y-99606100D02*
X150749000Y-99606100D01*
X149098000Y-99809300D02*
X148463000Y-99809300D01*
X151003000Y-99809300D02*
X150749000Y-99809300D01*
X149098000Y-100012500D02*
X148463000Y-100012500D01*
X151003000Y-100012500D02*
X150749000Y-100012500D01*
X151003000Y-100215700D02*
X150749000Y-100215700D01*
X151089610Y-100418900D02*
X150662390Y-100418900D01*
X151191210Y-100622100D02*
X150560790Y-100622100D01*
X151292810Y-100825300D02*
X150459190Y-100825300D01*
X151394410Y-101028500D02*
X150357590Y-101028500D01*
X151496010Y-101231700D02*
X150255990Y-101231700D01*
X151597610Y-101434900D02*
X150154390Y-101434900D01*
X151699210Y-101638100D02*
X150052790Y-101638100D01*
X151800810Y-101841300D02*
X149951190Y-101841300D01*
X151892000Y-102044500D02*
X149860000Y-102044500D01*
X151892000Y-102247700D02*
X149860000Y-102247700D01*
X151892000Y-102450900D02*
X149860000Y-102450900D01*
X151892000Y-102654100D02*
X149860000Y-102654100D01*
X151892000Y-102857300D02*
X149860000Y-102857300D01*
X151892000Y-103060500D02*
X149860000Y-103060500D01*
X151892000Y-103263700D02*
X149860000Y-103263700D01*
X151892000Y-103466900D02*
X149860000Y-103466900D01*
X151892000Y-103670100D02*
X149860000Y-103670100D01*
X151892000Y-103873300D02*
X149860000Y-103873300D01*
X151892000Y-104076500D02*
X149860000Y-104076500D01*
X151892000Y-104279700D02*
X149860000Y-104279700D01*
X151892000Y-104482900D02*
X149860000Y-104482900D01*
X151892000Y-104686100D02*
X149860000Y-104686100D01*
X151892000Y-104889300D02*
X149860000Y-104889300D01*
X151892000Y-105092500D02*
X149860000Y-105092500D01*
X151892000Y-105295700D02*
X149860000Y-105295700D01*
X151892000Y-105498900D02*
X149860000Y-105498900D01*
X151892000Y-105702100D02*
X149860000Y-105702100D01*
X151892000Y-105905300D02*
X149860000Y-105905300D01*
X151892000Y-106108500D02*
X149860000Y-106108500D01*
X151892000Y-106311700D02*
X149860000Y-106311700D01*
X151892000Y-106514900D02*
X149860000Y-106514900D01*
X151892000Y-106718100D02*
X149860000Y-106718100D01*
X153212800Y-97447100D02*
X153222806Y-97496510D01*
X153251247Y-97538135D01*
X153293641Y-97565415D01*
X153339800Y-97574100D01*
X155321000Y-97574100D01*
X155370410Y-97564094D01*
X155412035Y-97535653D01*
X155439315Y-97493259D01*
X155448000Y-97447100D01*
X155448000Y-94932500D01*
X157886400Y-94932500D01*
X157886400Y-97447100D01*
X157896406Y-97496510D01*
X157924847Y-97538135D01*
X157967241Y-97565415D01*
X158013400Y-97574100D01*
X159994600Y-97574100D01*
X160044010Y-97564094D01*
X160085635Y-97535653D01*
X160112915Y-97493259D01*
X160121600Y-97447100D01*
X160121600Y-94932500D01*
X162560000Y-94932500D01*
X162560000Y-98615500D01*
X162306000Y-98615500D01*
X162306000Y-95313500D01*
X162295994Y-95264090D01*
X162267553Y-95222465D01*
X162225159Y-95195185D01*
X162179000Y-95186500D01*
X160502600Y-95186500D01*
X160453190Y-95196506D01*
X160411565Y-95224947D01*
X160384285Y-95267341D01*
X160375600Y-95313500D01*
X160375600Y-97828100D01*
X157632400Y-97828100D01*
X157632400Y-95313500D01*
X157622394Y-95264090D01*
X157593953Y-95222465D01*
X157551559Y-95195185D01*
X157505400Y-95186500D01*
X155829000Y-95186500D01*
X155779590Y-95196506D01*
X155737965Y-95224947D01*
X155710685Y-95267341D01*
X155702000Y-95313500D01*
X155702000Y-97828100D01*
X152958800Y-97828100D01*
X152958800Y-95313500D01*
X152948794Y-95264090D01*
X152920353Y-95222465D01*
X152877959Y-95195185D01*
X152831800Y-95186500D01*
X151130000Y-95186500D01*
X151080590Y-95196506D01*
X151038965Y-95224947D01*
X151011685Y-95267341D01*
X151003000Y-95313500D01*
X151003000Y-100215700D01*
X151016408Y-100272496D01*
X151892000Y-102023680D01*
X151892000Y-106895900D01*
X149860000Y-106895900D01*
X149860000Y-102023680D01*
X150735592Y-100272496D01*
X150749000Y-100215700D01*
X150749000Y-95313500D01*
X150738994Y-95264090D01*
X150710553Y-95222465D01*
X150668159Y-95195185D01*
X150622000Y-95186500D01*
X149225000Y-95186500D01*
X149175590Y-95196506D01*
X149133965Y-95224947D01*
X149106685Y-95267341D01*
X149098000Y-95313500D01*
X149098000Y-100088700D01*
X148463000Y-100088700D01*
X148463000Y-94932500D01*
X153212800Y-94932500D01*
X153212800Y-97447100D01*
M02*
