  0
SECTION
  2
HEADER
  9
$ANGBASE
  50
0.0
  9
$ANGDIR
  70
  1
  9
$MEASUREMENT
  70
0
  0
ENDSEC
  0
SECTION
  2
TABLES
  0
TABLE
  2
LTYPE
  70
1
  0
LTYPE
  2
CONTINUOUS
  70
0
  3
Solid line
  72
65
  73
0
  40
0.0
  0
ENDTAB
  0
TABLE
  2
STYLE
  70
4
  0
STYLE
  2
KICAD
  70
0
  40
0
  41
1
  42
1
  50
0
  71
0
  3
isocp.shx
  0
STYLE
  2
KICADB
  70
0
  40
0
  41
1
  42
1
  50
0
  71
0
  3
isocp.shx
  0
STYLE
  2
KICADI
  70
0
  40
0
  41
1
  42
1
  50
15
  71
0
  3
isocp.shx
  0
STYLE
  2
KICADBI
  70
0
  40
0
  41
1
  42
1
  50
15
  71
0
  3
isocp.shx
  0
ENDTAB
  0
TABLE
  2
LAYER
  70
30
  0
LAYER
  2
BLACK
  70
0
  62
7
  6
CONTINUOUS
  0
LAYER
  2
GRAY1
  70
0
  62
251
  6
CONTINUOUS
  0
LAYER
  2
GRAY2
  70
0
  62
8
  6
CONTINUOUS
  0
LAYER
  2
GRAY3
  70
0
  62
9
  6
CONTINUOUS
  0
LAYER
  2
WHITE
  70
0
  62
7
  6
CONTINUOUS
  0
LAYER
  2
LYELLOW
  70
0
  62
51
  6
CONTINUOUS
  0
LAYER
  2
BLUE1
  70
0
  62
178
  6
CONTINUOUS
  0
LAYER
  2
GREEN1
  70
0
  62
98
  6
CONTINUOUS
  0
LAYER
  2
CYAN1
  70
0
  62
138
  6
CONTINUOUS
  0
LAYER
  2
RED1
  70
0
  62
18
  6
CONTINUOUS
  0
LAYER
  2
MAGENTA1
  70
0
  62
228
  6
CONTINUOUS
  0
LAYER
  2
BROWN1
  70
0
  62
58
  6
CONTINUOUS
  0
LAYER
  2
BLUE2
  70
0
  62
5
  6
CONTINUOUS
  0
LAYER
  2
GREEN2
  70
0
  62
3
  6
CONTINUOUS
  0
LAYER
  2
CYAN2
  70
0
  62
4
  6
CONTINUOUS
  0
LAYER
  2
RED2
  70
0
  62
1
  6
CONTINUOUS
  0
LAYER
  2
MAGENTA2
  70
0
  62
6
  6
CONTINUOUS
  0
LAYER
  2
BROWN2
  70
0
  62
54
  6
CONTINUOUS
  0
LAYER
  2
BLUE3
  70
0
  62
171
  6
CONTINUOUS
  0
LAYER
  2
GREEN3
  70
0
  62
91
  6
CONTINUOUS
  0
LAYER
  2
CYAN3
  70
0
  62
131
  6
CONTINUOUS
  0
LAYER
  2
RED3
  70
0
  62
11
  6
CONTINUOUS
  0
LAYER
  2
MAGENTA3
  70
0
  62
221
  6
CONTINUOUS
  0
LAYER
  2
YELLOW3
  70
0
  62
2
  6
CONTINUOUS
  0
LAYER
  2
BLUE4
  70
0
  62
5
  6
CONTINUOUS
  0
LAYER
  2
GREEN4
  70
0
  62
3
  6
CONTINUOUS
  0
LAYER
  2
CYAN4
  70
0
  62
4
  6
CONTINUOUS
  0
LAYER
  2
RED4
  70
0
  62
1
  6
CONTINUOUS
  0
LAYER
  2
MAGENTA4
  70
0
  62
6
  6
CONTINUOUS
  0
LAYER
  2
YELLOW4
  70
0
  62
2
  6
CONTINUOUS
  0
ENDTAB
  0
ENDSEC
  0
SECTION
  2
ENTITIES
0
LINE
8
Black
10
18.9158
20
7.82224
11
18.9213
21
7.82224
0
LINE
8
Black
10
18.9213
20
7.82224
11
18.9265
21
7.82033
0
LINE
8
Black
10
18.9265
20
7.82033
11
18.932
21
7.81937
0
LINE
8
Black
10
18.932
20
7.81937
11
18.9368
21
7.81659
0
LINE
8
Black
10
18.9368
20
7.81659
11
18.942
21
7.81469
0
LINE
8
Black
10
18.942
20
7.81469
11
18.9463
21
7.81112
0
LINE
8
Black
10
18.9463
20
7.81112
11
18.9511
21
7.80834
0
LINE
8
Black
10
18.9511
20
7.80834
11
18.9547
21
7.80409
0
LINE
8
Black
10
18.9547
20
7.80409
11
18.9589
21
7.80052
0
LINE
8
Black
10
18.9589
20
7.80052
11
18.9617
21
7.79571
0
LINE
8
Black
10
18.9617
20
7.79571
11
18.9653
21
7.79145
0
LINE
8
Black
10
18.9653
20
7.79145
11
18.9672
21
7.78623
0
LINE
8
Black
10
18.9672
20
7.78623
11
18.97
21
7.78142
0
LINE
8
Black
10
18.97
20
7.78142
11
18.9709
21
7.77595
0
LINE
8
Black
10
18.9709
20
7.77595
11
18.9728
21
7.77073
0
LINE
8
Black
10
18.9728
20
7.77073
11
18.9728
21
7.76517
0
LINE
8
Black
10
18.9728
20
7.76517
11
18.9738
21
7.7597
0
LINE
8
Black
10
18.9738
20
7.7597
11
18.9738
21
0.0635
0
LINE
8
Black
10
18.9738
20
0.0635
11
18.9728
21
0.058028
0
LINE
8
Black
10
18.9728
20
0.058028
11
18.9728
21
0.052473
0
LINE
8
Black
10
18.9728
20
0.052473
11
18.9709
21
0.047251
0
LINE
8
Black
10
18.9709
20
0.047251
11
18.97
21
0.041782
0
LINE
8
Black
10
18.97
20
0.041782
11
18.9672
21
0.036974
0
LINE
8
Black
10
18.9672
20
0.036974
11
18.9653
21
0.03175
0
LINE
8
Black
10
18.9653
20
0.03175
11
18.9617
21
0.027493
0
LINE
8
Black
10
18.9617
20
0.027493
11
18.9589
21
0.022683
0
LINE
8
Black
10
18.9589
20
0.022683
11
18.9547
21
0.019112
0
LINE
8
Black
10
18.9547
20
0.019112
11
18.9511
21
0.014856
0
LINE
8
Black
10
18.9511
20
0.014856
11
18.9463
21
0.012079
0
LINE
8
Black
10
18.9463
20
0.012079
11
18.942
21
0.008507
0
LINE
8
Black
10
18.942
20
0.008507
11
18.9368
21
0.006606
0
LINE
8
Black
10
18.9368
20
0.006606
11
18.932
21
0.00383
0
LINE
8
Black
10
18.932
20
0.00383
11
18.9265
21
0.002866
0
LINE
8
Black
10
18.9265
20
0.002866
11
18.9213
21
0.000965
0
LINE
8
Black
10
18.9213
20
0.000965
11
18.9158
21
0.000965
0
LINE
8
Black
10
18.9158
20
0.000965
11
18.9103
21
0
0
LINE
8
Black
10
18.9103
20
0
11
0.0635
21
0
0
LINE
8
Black
10
0.0635
20
0
11
0.058028
21
0.000965
0
LINE
8
Black
10
0.058028
20
0.000965
11
0.052473
21
0.000965
0
LINE
8
Black
10
0.052473
20
0.000965
11
0.047251
21
0.002866
0
LINE
8
Black
10
0.047251
20
0.002866
11
0.041782
21
0.00383
0
LINE
8
Black
10
0.041782
20
0.00383
11
0.036974
21
0.006606
0
LINE
8
Black
10
0.036974
20
0.006606
11
0.03175
21
0.008507
0
LINE
8
Black
10
0.03175
20
0.008507
11
0.027493
21
0.012079
0
LINE
8
Black
10
0.027493
20
0.012079
11
0.022683
21
0.014856
0
LINE
8
Black
10
0.022683
20
0.014856
11
0.019112
21
0.019112
0
LINE
8
Black
10
0.019112
20
0.019112
11
0.014856
21
0.022683
0
LINE
8
Black
10
0.014856
20
0.022683
11
0.012079
21
0.027493
0
LINE
8
Black
10
0.012079
20
0.027493
11
0.008507
21
0.03175
0
LINE
8
Black
10
0.008507
20
0.03175
11
0.006606
21
0.036974
0
LINE
8
Black
10
0.006606
20
0.036974
11
0.00383
21
0.041782
0
LINE
8
Black
10
0.00383
20
0.041782
11
0.002866
21
0.047251
0
LINE
8
Black
10
0.002866
20
0.047251
11
0.000965
21
0.052473
0
LINE
8
Black
10
0.000965
20
0.052473
11
0.000965
21
0.058028
0
LINE
8
Black
10
0.000965
20
0.058028
11
0
21
0.0635
0
LINE
8
Black
10
0
20
0.0635
11
0
21
7.7597
0
LINE
8
Black
10
0
20
7.7597
11
0.000965
21
7.76517
0
LINE
8
Black
10
0.000965
20
7.76517
11
0.000965
21
7.77073
0
LINE
8
Black
10
0.000965
20
7.77073
11
0.002866
21
7.77595
0
LINE
8
Black
10
0.002866
20
7.77595
11
0.00383
21
7.78142
0
LINE
8
Black
10
0.00383
20
7.78142
11
0.006606
21
7.78623
0
LINE
8
Black
10
0.006606
20
7.78623
11
0.008507
21
7.79145
0
LINE
8
Black
10
0.008507
20
7.79145
11
0.012079
21
7.79571
0
LINE
8
Black
10
0.012079
20
7.79571
11
0.014856
21
7.80052
0
LINE
8
Black
10
0.014856
20
7.80052
11
0.019112
21
7.80409
0
LINE
8
Black
10
0.019112
20
7.80409
11
0.022683
21
7.80834
0
LINE
8
Black
10
0.022683
20
7.80834
11
0.027493
21
7.81112
0
LINE
8
Black
10
0.027493
20
7.81112
11
0.03175
21
7.81469
0
LINE
8
Black
10
0.03175
20
7.81469
11
0.036974
21
7.81659
0
LINE
8
Black
10
0.036974
20
7.81659
11
0.041782
21
7.81937
0
LINE
8
Black
10
0.041782
20
7.81937
11
0.047251
21
7.82033
0
LINE
8
Black
10
0.047251
20
7.82033
11
0.052473
21
7.82224
0
LINE
8
Black
10
0.052473
20
7.82224
11
0.058028
21
7.82224
0
LINE
8
Black
10
0.058028
20
7.82224
11
0.0635
21
7.8232
0
LINE
8
Black
10
0.0635
20
7.8232
11
18.9103
21
7.8232
0
LINE
8
Black
10
18.9103
20
7.8232
11
18.9158
21
7.82224
  0
ENDSEC
  0
EOF
