  0
SECTION
  2
HEADER
  9
$ANGBASE
  50
0.0
  9
$ANGDIR
  70
  1
  9
$MEASUREMENT
  70
0
  0
ENDSEC
  0
SECTION
  2
TABLES
  0
TABLE
  2
LTYPE
  70
1
  0
LTYPE
  2
CONTINUOUS
  70
0
  3
Solid line
  72
65
  73
0
  40
0.0
  0
ENDTAB
  0
TABLE
  2
STYLE
  70
4
  0
STYLE
  2
KICAD
  70
0
  40
0
  41
1
  42
1
  50
0
  71
0
  3
isocp.shx
  0
STYLE
  2
KICADB
  70
0
  40
0
  41
1
  42
1
  50
0
  71
0
  3
isocp.shx
  0
STYLE
  2
KICADI
  70
0
  40
0
  41
1
  42
1
  50
15
  71
0
  3
isocp.shx
  0
STYLE
  2
KICADBI
  70
0
  40
0
  41
1
  42
1
  50
15
  71
0
  3
isocp.shx
  0
ENDTAB
  0
TABLE
  2
LAYER
  70
30
  0
LAYER
  2
BLACK
  70
0
  62
7
  6
CONTINUOUS
  0
LAYER
  2
GRAY1
  70
0
  62
251
  6
CONTINUOUS
  0
LAYER
  2
GRAY2
  70
0
  62
8
  6
CONTINUOUS
  0
LAYER
  2
GRAY3
  70
0
  62
9
  6
CONTINUOUS
  0
LAYER
  2
WHITE
  70
0
  62
7
  6
CONTINUOUS
  0
LAYER
  2
LYELLOW
  70
0
  62
51
  6
CONTINUOUS
  0
LAYER
  2
BLUE1
  70
0
  62
178
  6
CONTINUOUS
  0
LAYER
  2
GREEN1
  70
0
  62
98
  6
CONTINUOUS
  0
LAYER
  2
CYAN1
  70
0
  62
138
  6
CONTINUOUS
  0
LAYER
  2
RED1
  70
0
  62
18
  6
CONTINUOUS
  0
LAYER
  2
MAGENTA1
  70
0
  62
228
  6
CONTINUOUS
  0
LAYER
  2
BROWN1
  70
0
  62
58
  6
CONTINUOUS
  0
LAYER
  2
BLUE2
  70
0
  62
5
  6
CONTINUOUS
  0
LAYER
  2
GREEN2
  70
0
  62
3
  6
CONTINUOUS
  0
LAYER
  2
CYAN2
  70
0
  62
4
  6
CONTINUOUS
  0
LAYER
  2
RED2
  70
0
  62
1
  6
CONTINUOUS
  0
LAYER
  2
MAGENTA2
  70
0
  62
6
  6
CONTINUOUS
  0
LAYER
  2
BROWN2
  70
0
  62
54
  6
CONTINUOUS
  0
LAYER
  2
BLUE3
  70
0
  62
171
  6
CONTINUOUS
  0
LAYER
  2
GREEN3
  70
0
  62
91
  6
CONTINUOUS
  0
LAYER
  2
CYAN3
  70
0
  62
131
  6
CONTINUOUS
  0
LAYER
  2
RED3
  70
0
  62
11
  6
CONTINUOUS
  0
LAYER
  2
MAGENTA3
  70
0
  62
221
  6
CONTINUOUS
  0
LAYER
  2
YELLOW3
  70
0
  62
2
  6
CONTINUOUS
  0
LAYER
  2
BLUE4
  70
0
  62
5
  6
CONTINUOUS
  0
LAYER
  2
GREEN4
  70
0
  62
3
  6
CONTINUOUS
  0
LAYER
  2
CYAN4
  70
0
  62
4
  6
CONTINUOUS
  0
LAYER
  2
RED4
  70
0
  62
1
  6
CONTINUOUS
  0
LAYER
  2
MAGENTA4
  70
0
  62
6
  6
CONTINUOUS
  0
LAYER
  2
YELLOW4
  70
0
  62
2
  6
CONTINUOUS
  0
ENDTAB
  0
ENDSEC
  0
SECTION
  2
ENTITIES
0
LINE
8
Black
10
9.26377
20
12.7244
11
9.26933
21
12.7244
0
LINE
8
Black
10
9.26933
20
12.7244
11
9.27455
21
12.7225
0
LINE
8
Black
10
9.27455
20
12.7225
11
9.28002
21
12.7216
0
LINE
8
Black
10
9.28002
20
12.7216
11
9.28483
21
12.7188
0
LINE
8
Black
10
9.28483
20
12.7188
11
9.29005
21
12.7169
0
LINE
8
Black
10
9.29005
20
12.7169
11
9.29431
21
12.7133
0
LINE
8
Black
10
9.29431
20
12.7133
11
9.29912
21
12.7105
0
LINE
8
Black
10
9.29912
20
12.7105
11
9.30269
21
12.7063
0
LINE
8
Black
10
9.30269
20
12.7063
11
9.30694
21
12.7027
0
LINE
8
Black
10
9.30694
20
12.7027
11
9.30972
21
12.6979
0
LINE
8
Black
10
9.30972
20
12.6979
11
9.31329
21
12.6936
0
LINE
8
Black
10
9.31329
20
12.6936
11
9.31519
21
12.6884
0
LINE
8
Black
10
9.31519
20
12.6884
11
9.31797
21
12.6836
0
LINE
8
Black
10
9.31797
20
12.6836
11
9.31893
21
12.6781
0
LINE
8
Black
10
9.31893
20
12.6781
11
9.32083
21
12.6729
0
LINE
8
Black
10
9.32083
20
12.6729
11
9.32083
21
12.6674
0
LINE
8
Black
10
9.32083
20
12.6674
11
9.3218
21
12.6619
0
LINE
8
Black
10
9.3218
20
12.6619
11
9.3218
21
10.0902
0
LINE
8
Black
10
9.3218
20
10.0902
11
9.32291
21
10.0847
0
LINE
8
Black
10
9.32291
20
10.0847
11
9.32772
21
10.0838
0
LINE
8
Black
10
9.32772
20
10.0838
11
11.2966
21
10.0838
0
LINE
8
Black
10
11.2966
20
10.0838
11
11.3021
21
10.0849
0
LINE
8
Black
10
11.3021
20
10.0849
11
11.303
21
10.0897
0
LINE
8
Black
10
11.303
20
10.0897
11
11.303
21
12.6619
0
LINE
8
Black
10
11.303
20
12.6619
11
11.304
21
12.6674
0
LINE
8
Black
10
11.304
20
12.6674
11
11.304
21
12.6729
0
LINE
8
Black
10
11.304
20
12.6729
11
11.3059
21
12.6781
0
LINE
8
Black
10
11.3059
20
12.6781
11
11.3068
21
12.6836
0
LINE
8
Black
10
11.3068
20
12.6836
11
11.3096
21
12.6884
0
LINE
8
Black
10
11.3096
20
12.6884
11
11.3115
21
12.6936
0
LINE
8
Black
10
11.3115
20
12.6936
11
11.3151
21
12.6979
0
LINE
8
Black
10
11.3151
20
12.6979
11
11.3179
21
12.7027
0
LINE
8
Black
10
11.3179
20
12.7027
11
11.3221
21
12.7063
0
LINE
8
Black
10
11.3221
20
12.7063
11
11.3257
21
12.7105
0
LINE
8
Black
10
11.3257
20
12.7105
11
11.3305
21
12.7133
0
LINE
8
Black
10
11.3305
20
12.7133
11
11.3347
21
12.7169
0
LINE
8
Black
10
11.3347
20
12.7169
11
11.34
21
12.7188
0
LINE
8
Black
10
11.34
20
12.7188
11
11.3448
21
12.7216
0
LINE
8
Black
10
11.3448
20
12.7216
11
11.3503
21
12.7225
0
LINE
8
Black
10
11.3503
20
12.7225
11
11.3555
21
12.7244
0
LINE
8
Black
10
11.3555
20
12.7244
11
11.361
21
12.7244
0
LINE
8
Black
10
11.361
20
12.7244
11
11.3665
21
12.7254
0
LINE
8
Black
10
11.3665
20
12.7254
11
13.9319
21
12.7254
0
LINE
8
Black
10
13.9319
20
12.7254
11
13.9374
21
12.7244
0
LINE
8
Black
10
13.9374
20
12.7244
11
13.9429
21
12.7244
0
LINE
8
Black
10
13.9429
20
12.7244
11
13.9481
21
12.7225
0
LINE
8
Black
10
13.9481
20
12.7225
11
13.9536
21
12.7216
0
LINE
8
Black
10
13.9536
20
12.7216
11
13.9584
21
12.7188
0
LINE
8
Black
10
13.9584
20
12.7188
11
13.9636
21
12.7169
0
LINE
8
Black
10
13.9636
20
12.7169
11
13.9679
21
12.7133
0
LINE
8
Black
10
13.9679
20
12.7133
11
13.9727
21
12.7105
0
LINE
8
Black
10
13.9727
20
12.7105
11
13.9763
21
12.7063
0
LINE
8
Black
10
13.9763
20
12.7063
11
13.9805
21
12.7027
0
LINE
8
Black
10
13.9805
20
12.7027
11
13.9833
21
12.6979
0
LINE
8
Black
10
13.9833
20
12.6979
11
13.9869
21
12.6936
0
LINE
8
Black
10
13.9869
20
12.6936
11
13.9888
21
12.6884
0
LINE
8
Black
10
13.9888
20
12.6884
11
13.9916
21
12.6836
0
LINE
8
Black
10
13.9916
20
12.6836
11
13.9925
21
12.6781
0
LINE
8
Black
10
13.9925
20
12.6781
11
13.9944
21
12.6729
0
LINE
8
Black
10
13.9944
20
12.6729
11
13.9944
21
12.6674
0
LINE
8
Black
10
13.9944
20
12.6674
11
13.9954
21
12.6619
0
LINE
8
Black
10
13.9954
20
12.6619
11
13.9954
21
10.0902
0
LINE
8
Black
10
13.9954
20
10.0902
11
13.9965
21
10.0847
0
LINE
8
Black
10
13.9965
20
10.0847
11
14.0013
21
10.0838
0
LINE
8
Black
10
14.0013
20
10.0838
11
15.9702
21
10.0838
0
LINE
8
Black
10
15.9702
20
10.0838
11
15.9757
21
10.0849
0
LINE
8
Black
10
15.9757
20
10.0849
11
15.9766
21
10.0897
0
LINE
8
Black
10
15.9766
20
10.0897
11
15.9766
21
12.6619
0
LINE
8
Black
10
15.9766
20
12.6619
11
15.9776
21
12.6674
0
LINE
8
Black
10
15.9776
20
12.6674
11
15.9776
21
12.6729
0
LINE
8
Black
10
15.9776
20
12.6729
11
15.9795
21
12.6781
0
LINE
8
Black
10
15.9795
20
12.6781
11
15.9804
21
12.6836
0
LINE
8
Black
10
15.9804
20
12.6836
11
15.9832
21
12.6884
0
LINE
8
Black
10
15.9832
20
12.6884
11
15.9851
21
12.6936
0
LINE
8
Black
10
15.9851
20
12.6936
11
15.9887
21
12.6979
0
LINE
8
Black
10
15.9887
20
12.6979
11
15.9915
21
12.7027
0
LINE
8
Black
10
15.9915
20
12.7027
11
15.9957
21
12.7063
0
LINE
8
Black
10
15.9957
20
12.7063
11
15.9993
21
12.7105
0
LINE
8
Black
10
15.9993
20
12.7105
11
16.0041
21
12.7133
0
LINE
8
Black
10
16.0041
20
12.7133
11
16.0084
21
12.7169
0
LINE
8
Black
10
16.0084
20
12.7169
11
16.0136
21
12.7188
0
LINE
8
Black
10
16.0136
20
12.7188
11
16.0184
21
12.7216
0
LINE
8
Black
10
16.0184
20
12.7216
11
16.0239
21
12.7225
0
LINE
8
Black
10
16.0239
20
12.7225
11
16.0291
21
12.7244
0
LINE
8
Black
10
16.0291
20
12.7244
11
16.0346
21
12.7244
0
LINE
8
Black
10
16.0346
20
12.7244
11
16.0401
21
12.7254
0
LINE
8
Black
10
16.0401
20
12.7254
11
18.6055
21
12.7254
0
LINE
8
Black
10
18.6055
20
12.7254
11
18.611
21
12.7244
0
LINE
8
Black
10
18.611
20
12.7244
11
18.6165
21
12.7244
0
LINE
8
Black
10
18.6165
20
12.7244
11
18.6217
21
12.7225
0
LINE
8
Black
10
18.6217
20
12.7225
11
18.6272
21
12.7216
0
LINE
8
Black
10
18.6272
20
12.7216
11
18.632
21
12.7188
0
LINE
8
Black
10
18.632
20
12.7188
11
18.6372
21
12.7169
0
LINE
8
Black
10
18.6372
20
12.7169
11
18.6415
21
12.7133
0
LINE
8
Black
10
18.6415
20
12.7133
11
18.6463
21
12.7105
0
LINE
8
Black
10
18.6463
20
12.7105
11
18.6499
21
12.7063
0
LINE
8
Black
10
18.6499
20
12.7063
11
18.6541
21
12.7027
0
LINE
8
Black
10
18.6541
20
12.7027
11
18.6569
21
12.6979
0
LINE
8
Black
10
18.6569
20
12.6979
11
18.6605
21
12.6936
0
LINE
8
Black
10
18.6605
20
12.6936
11
18.6624
21
12.6884
0
LINE
8
Black
10
18.6624
20
12.6884
11
18.6652
21
12.6836
0
LINE
8
Black
10
18.6652
20
12.6836
11
18.6661
21
12.6781
0
LINE
8
Black
10
18.6661
20
12.6781
11
18.668
21
12.6729
0
LINE
8
Black
10
18.668
20
12.6729
11
18.668
21
12.6674
0
LINE
8
Black
10
18.668
20
12.6674
11
18.669
21
12.6619
0
LINE
8
Black
10
18.669
20
12.6619
11
18.669
21
8.8519
0
LINE
8
Black
10
18.669
20
8.8519
11
18.668
21
8.84643
0
LINE
8
Black
10
18.668
20
8.84643
11
18.668
21
8.84087
0
LINE
8
Black
10
18.668
20
8.84087
11
18.6661
21
8.83565
0
LINE
8
Black
10
18.6661
20
8.83565
11
18.6652
21
8.83018
0
LINE
8
Black
10
18.6652
20
8.83018
11
18.6624
21
8.82537
0
LINE
8
Black
10
18.6624
20
8.82537
11
18.6605
21
8.82015
0
LINE
8
Black
10
18.6605
20
8.82015
11
18.6569
21
8.81589
0
LINE
8
Black
10
18.6569
20
8.81589
11
18.6541
21
8.81108
0
LINE
8
Black
10
18.6541
20
8.81108
11
18.6499
21
8.80751
0
LINE
8
Black
10
18.6499
20
8.80751
11
18.6463
21
8.80326
0
LINE
8
Black
10
18.6463
20
8.80326
11
18.6415
21
8.80048
0
LINE
8
Black
10
18.6415
20
8.80048
11
18.6372
21
8.79691
0
LINE
8
Black
10
18.6372
20
8.79691
11
18.632
21
8.79501
0
LINE
8
Black
10
18.632
20
8.79501
11
18.6272
21
8.79223
0
LINE
8
Black
10
18.6272
20
8.79223
11
18.6217
21
8.79127
0
LINE
8
Black
10
18.6217
20
8.79127
11
18.6165
21
8.78937
0
LINE
8
Black
10
18.6165
20
8.78937
11
18.611
21
8.78937
0
LINE
8
Black
10
18.611
20
8.78937
11
18.6055
21
8.7884
0
LINE
8
Black
10
18.6055
20
8.7884
11
18.2245
21
8.7884
0
LINE
8
Black
10
18.2245
20
8.7884
11
18.219
21
8.78937
0
LINE
8
Black
10
18.219
20
8.78937
11
18.2135
21
8.78937
0
LINE
8
Black
10
18.2135
20
8.78937
11
18.2083
21
8.79127
0
LINE
8
Black
10
18.2083
20
8.79127
11
18.2028
21
8.79223
0
LINE
8
Black
10
18.2028
20
8.79223
11
18.198
21
8.79501
0
LINE
8
Black
10
18.198
20
8.79501
11
18.1928
21
8.79691
0
LINE
8
Black
10
18.1928
20
8.79691
11
18.1885
21
8.80048
0
LINE
8
Black
10
18.1885
20
8.80048
11
18.1837
21
8.80326
0
LINE
8
Black
10
18.1837
20
8.80326
11
18.1801
21
8.80751
0
LINE
8
Black
10
18.1801
20
8.80751
11
18.1759
21
8.81108
0
LINE
8
Black
10
18.1759
20
8.81108
11
18.1731
21
8.81589
0
LINE
8
Black
10
18.1731
20
8.81589
11
18.1695
21
8.82015
0
LINE
8
Black
10
18.1695
20
8.82015
11
18.1676
21
8.82537
0
LINE
8
Black
10
18.1676
20
8.82537
11
18.1648
21
8.83018
0
LINE
8
Black
10
18.1648
20
8.83018
11
18.1639
21
8.83565
0
LINE
8
Black
10
18.1639
20
8.83565
11
18.162
21
8.84087
0
LINE
8
Black
10
18.162
20
8.84087
11
18.162
21
8.84643
0
LINE
8
Black
10
18.162
20
8.84643
11
18.161
21
8.8519
0
LINE
8
Black
10
18.161
20
8.8519
11
18.161
21
12.211
0
LINE
8
Black
10
18.161
20
12.211
11
18.1599
21
12.2165
0
LINE
8
Black
10
18.1599
20
12.2165
11
18.1551
21
12.2174
0
LINE
8
Black
10
18.1551
20
12.2174
11
16.491
21
12.2174
0
LINE
8
Black
10
16.491
20
12.2174
11
16.4855
21
12.2163
0
LINE
8
Black
10
16.4855
20
12.2163
11
16.4846
21
12.2115
0
LINE
8
Black
10
16.4846
20
12.2115
11
16.4846
21
9.6393
0
LINE
8
Black
10
16.4846
20
9.6393
11
16.4836
21
9.63383
0
LINE
8
Black
10
16.4836
20
9.63383
11
16.4836
21
9.62827
0
LINE
8
Black
10
16.4836
20
9.62827
11
16.4817
21
9.62305
0
LINE
8
Black
10
16.4817
20
9.62305
11
16.4808
21
9.61758
0
LINE
8
Black
10
16.4808
20
9.61758
11
16.478
21
9.61277
0
LINE
8
Black
10
16.478
20
9.61277
11
16.4761
21
9.60755
0
LINE
8
Black
10
16.4761
20
9.60755
11
16.4725
21
9.60329
0
LINE
8
Black
10
16.4725
20
9.60329
11
16.4697
21
9.59848
0
LINE
8
Black
10
16.4697
20
9.59848
11
16.4655
21
9.59491
0
LINE
8
Black
10
16.4655
20
9.59491
11
16.4619
21
9.59066
0
LINE
8
Black
10
16.4619
20
9.59066
11
16.4571
21
9.58788
0
LINE
8
Black
10
16.4571
20
9.58788
11
16.4528
21
9.58431
0
LINE
8
Black
10
16.4528
20
9.58431
11
16.4476
21
9.58241
0
LINE
8
Black
10
16.4476
20
9.58241
11
16.4428
21
9.57963
0
LINE
8
Black
10
16.4428
20
9.57963
11
16.4373
21
9.57867
0
LINE
8
Black
10
16.4373
20
9.57867
11
16.4321
21
9.57676
0
LINE
8
Black
10
16.4321
20
9.57676
11
16.4266
21
9.57676
0
LINE
8
Black
10
16.4266
20
9.57676
11
16.4211
21
9.5758
0
LINE
8
Black
10
16.4211
20
9.5758
11
13.5509
21
9.5758
0
LINE
8
Black
10
13.5509
20
9.5758
11
13.5454
21
9.57676
0
LINE
8
Black
10
13.5454
20
9.57676
11
13.5399
21
9.57676
0
LINE
8
Black
10
13.5399
20
9.57676
11
13.5347
21
9.57867
0
LINE
8
Black
10
13.5347
20
9.57867
11
13.5292
21
9.57963
0
LINE
8
Black
10
13.5292
20
9.57963
11
13.5244
21
9.58241
0
LINE
8
Black
10
13.5244
20
9.58241
11
13.5191
21
9.58431
0
LINE
8
Black
10
13.5191
20
9.58431
11
13.5149
21
9.58788
0
LINE
8
Black
10
13.5149
20
9.58788
11
13.5101
21
9.59066
0
LINE
8
Black
10
13.5101
20
9.59066
11
13.5065
21
9.59491
0
LINE
8
Black
10
13.5065
20
9.59491
11
13.5023
21
9.59848
0
LINE
8
Black
10
13.5023
20
9.59848
11
13.4995
21
9.60329
0
LINE
8
Black
10
13.4995
20
9.60329
11
13.4959
21
9.60755
0
LINE
8
Black
10
13.4959
20
9.60755
11
13.494
21
9.61277
0
LINE
8
Black
10
13.494
20
9.61277
11
13.4912
21
9.61758
0
LINE
8
Black
10
13.4912
20
9.61758
11
13.4903
21
9.62305
0
LINE
8
Black
10
13.4903
20
9.62305
11
13.4884
21
9.62827
0
LINE
8
Black
10
13.4884
20
9.62827
11
13.4884
21
9.63383
0
LINE
8
Black
10
13.4884
20
9.63383
11
13.4874
21
9.6393
0
LINE
8
Black
10
13.4874
20
9.6393
11
13.4874
21
12.211
0
LINE
8
Black
10
13.4874
20
12.211
11
13.4863
21
12.2165
0
LINE
8
Black
10
13.4863
20
12.2165
11
13.4815
21
12.2174
0
LINE
8
Black
10
13.4815
20
12.2174
11
11.8174
21
12.2174
0
LINE
8
Black
10
11.8174
20
12.2174
11
11.8119
21
12.2163
0
LINE
8
Black
10
11.8119
20
12.2163
11
11.811
21
12.2115
0
LINE
8
Black
10
11.811
20
12.2115
11
11.811
21
9.6393
0
LINE
8
Black
10
11.811
20
9.6393
11
11.81
21
9.63383
0
LINE
8
Black
10
11.81
20
9.63383
11
11.81
21
9.62827
0
LINE
8
Black
10
11.81
20
9.62827
11
11.8081
21
9.62305
0
LINE
8
Black
10
11.8081
20
9.62305
11
11.8072
21
9.61758
0
LINE
8
Black
10
11.8072
20
9.61758
11
11.8044
21
9.61277
0
LINE
8
Black
10
11.8044
20
9.61277
11
11.8025
21
9.60755
0
LINE
8
Black
10
11.8025
20
9.60755
11
11.7989
21
9.60329
0
LINE
8
Black
10
11.7989
20
9.60329
11
11.7961
21
9.59848
0
LINE
8
Black
10
11.7961
20
9.59848
11
11.7919
21
9.59491
0
LINE
8
Black
10
11.7919
20
9.59491
11
11.7883
21
9.59066
0
LINE
8
Black
10
11.7883
20
9.59066
11
11.7835
21
9.58788
0
LINE
8
Black
10
11.7835
20
9.58788
11
11.7792
21
9.58431
0
LINE
8
Black
10
11.7792
20
9.58431
11
11.774
21
9.58241
0
LINE
8
Black
10
11.774
20
9.58241
11
11.7692
21
9.57963
0
LINE
8
Black
10
11.7692
20
9.57963
11
11.7637
21
9.57867
0
LINE
8
Black
10
11.7637
20
9.57867
11
11.7585
21
9.57676
0
LINE
8
Black
10
11.7585
20
9.57676
11
11.753
21
9.57676
0
LINE
8
Black
10
11.753
20
9.57676
11
11.7475
21
9.5758
0
LINE
8
Black
10
11.7475
20
9.5758
11
8.8773
21
9.5758
0
LINE
8
Black
10
8.8773
20
9.5758
11
8.87183
21
9.57676
0
LINE
8
Black
10
8.87183
20
9.57676
11
8.86627
21
9.57676
0
LINE
8
Black
10
8.86627
20
9.57676
11
8.86105
21
9.57867
0
LINE
8
Black
10
8.86105
20
9.57867
11
8.85558
21
9.57963
0
LINE
8
Black
10
8.85558
20
9.57963
11
8.85077
21
9.58241
0
LINE
8
Black
10
8.85077
20
9.58241
11
8.84555
21
9.58431
0
LINE
8
Black
10
8.84555
20
9.58431
11
8.84129
21
9.58788
0
LINE
8
Black
10
8.84129
20
9.58788
11
8.83648
21
9.59066
0
LINE
8
Black
10
8.83648
20
9.59066
11
8.83291
21
9.59491
0
LINE
8
Black
10
8.83291
20
9.59491
11
8.82866
21
9.59848
0
LINE
8
Black
10
8.82866
20
9.59848
11
8.82588
21
9.60329
0
LINE
8
Black
10
8.82588
20
9.60329
11
8.82231
21
9.60755
0
LINE
8
Black
10
8.82231
20
9.60755
11
8.82041
21
9.61277
0
LINE
8
Black
10
8.82041
20
9.61277
11
8.81763
21
9.61758
0
LINE
8
Black
10
8.81763
20
9.61758
11
8.81667
21
9.62305
0
LINE
8
Black
10
8.81667
20
9.62305
11
8.81476
21
9.62827
0
LINE
8
Black
10
8.81476
20
9.62827
11
8.81476
21
9.63383
0
LINE
8
Black
10
8.81476
20
9.63383
11
8.8138
21
9.6393
0
LINE
8
Black
10
8.8138
20
9.6393
11
8.8138
21
12.211
0
LINE
8
Black
10
8.8138
20
12.211
11
8.81269
21
12.2165
0
LINE
8
Black
10
8.81269
20
12.2165
11
8.80788
21
12.2174
0
LINE
8
Black
10
8.80788
20
12.2174
11
7.11837
21
12.2174
0
LINE
8
Black
10
7.11837
20
12.2174
11
7.11291
21
12.2163
0
LINE
8
Black
10
7.11291
20
12.2163
11
7.112
21
12.2115
0
LINE
8
Black
10
7.112
20
12.2115
11
7.112
21
7.32259
0
LINE
8
Black
10
7.112
20
7.32259
11
7.11531
21
7.30859
0
LINE
8
Black
10
7.11531
20
7.30859
11
7.97835
21
5.5825
0
LINE
8
Black
10
7.97835
20
5.5825
11
8.003
21
5.5825
0
LINE
8
Black
10
8.003
20
5.5825
11
8.003
21
0.5025
0
LINE
8
Black
10
8.003
20
0.5025
11
5.713
21
0.5025
0
LINE
8
Black
10
5.713
20
0.5025
11
5.713
21
5.5825
0
LINE
8
Black
10
5.713
20
5.5825
11
5.73765
21
5.5825
0
LINE
8
Black
10
5.73765
20
5.5825
11
6.60069
21
7.30859
0
LINE
8
Black
10
6.60069
20
7.30859
11
6.604
21
7.32259
0
LINE
8
Black
10
6.604
20
7.32259
11
6.604
21
12.211
0
LINE
8
Black
10
6.604
20
12.211
11
6.60289
21
12.2165
0
LINE
8
Black
10
6.60289
20
12.2165
11
6.59808
21
12.2174
0
LINE
8
Black
10
6.59808
20
12.2174
11
5.21337
21
12.2174
0
LINE
8
Black
10
5.21337
20
12.2174
11
5.20791
21
12.2163
0
LINE
8
Black
10
5.20791
20
12.2163
11
5.207
21
12.2115
0
LINE
8
Black
10
5.207
20
12.2115
11
5.207
21
7.3787
0
LINE
8
Black
10
5.207
20
7.3787
11
5.20603
21
7.37323
0
LINE
8
Black
10
5.20603
20
7.37323
11
5.20603
21
7.36767
0
LINE
8
Black
10
5.20603
20
7.36767
11
5.20413
21
7.36245
0
LINE
8
Black
10
5.20413
20
7.36245
11
5.20317
21
7.35698
0
LINE
8
Black
10
5.20317
20
7.35698
11
5.20039
21
7.35217
0
LINE
8
Black
10
5.20039
20
7.35217
11
5.19849
21
7.34695
0
LINE
8
Black
10
5.19849
20
7.34695
11
5.19492
21
7.34269
0
LINE
8
Black
10
5.19492
20
7.34269
11
5.19214
21
7.33788
0
LINE
8
Black
10
5.19214
20
7.33788
11
5.18789
21
7.33431
0
LINE
8
Black
10
5.18789
20
7.33431
11
5.18432
21
7.33006
0
LINE
8
Black
10
5.18432
20
7.33006
11
5.17951
21
7.32728
0
LINE
8
Black
10
5.17951
20
7.32728
11
5.17525
21
7.32371
0
LINE
8
Black
10
5.17525
20
7.32371
11
5.17003
21
7.32181
0
LINE
8
Black
10
5.17003
20
7.32181
11
5.16522
21
7.31903
0
LINE
8
Black
10
5.16522
20
7.31903
11
5.15975
21
7.31807
0
LINE
8
Black
10
5.15975
20
7.31807
11
5.15453
21
7.31616
0
LINE
8
Black
10
5.15453
20
7.31616
11
5.14897
21
7.31616
0
LINE
8
Black
10
5.14897
20
7.31616
11
5.1435
21
7.3152
0
LINE
8
Black
10
5.1435
20
7.3152
11
4.84507
21
7.3152
0
LINE
8
Black
10
4.84507
20
7.3152
11
4.83961
21
7.31409
0
LINE
8
Black
10
4.83961
20
7.31409
11
4.8387
21
7.30928
0
LINE
8
Black
10
4.8387
20
7.30928
11
4.8387
21
7.16917
0
LINE
8
Black
10
4.8387
20
7.16917
11
4.83981
21
7.16371
0
LINE
8
Black
10
4.83981
20
7.16371
11
4.84462
21
7.1628
0
LINE
8
Black
10
4.84462
20
7.1628
11
5.35303
21
7.1628
0
LINE
8
Black
10
5.35303
20
7.1628
11
5.35849
21
7.16391
0
LINE
8
Black
10
5.35849
20
7.16391
11
5.3594
21
7.16872
0
LINE
8
Black
10
5.3594
20
7.16872
11
5.3594
21
7.7597
0
LINE
8
Black
10
5.3594
20
7.7597
11
5.36036
21
7.76517
0
LINE
8
Black
10
5.36036
20
7.76517
11
5.36036
21
7.77073
0
LINE
8
Black
10
5.36036
20
7.77073
11
5.36227
21
7.77595
0
LINE
8
Black
10
5.36227
20
7.77595
11
5.36323
21
7.78142
0
LINE
8
Black
10
5.36323
20
7.78142
11
5.36601
21
7.78623
0
LINE
8
Black
10
5.36601
20
7.78623
11
5.36791
21
7.79145
0
LINE
8
Black
10
5.36791
20
7.79145
11
5.37148
21
7.79571
0
LINE
8
Black
10
5.37148
20
7.79571
11
5.37426
21
7.80052
0
LINE
8
Black
10
5.37426
20
7.80052
11
5.37851
21
7.80409
0
LINE
8
Black
10
5.37851
20
7.80409
11
5.38208
21
7.80834
0
LINE
8
Black
10
5.38208
20
7.80834
11
5.38689
21
7.81112
0
LINE
8
Black
10
5.38689
20
7.81112
11
5.39115
21
7.81469
0
LINE
8
Black
10
5.39115
20
7.81469
11
5.39637
21
7.81659
0
LINE
8
Black
10
5.39637
20
7.81659
11
5.40118
21
7.81937
0
LINE
8
Black
10
5.40118
20
7.81937
11
5.40665
21
7.82033
0
LINE
8
Black
10
5.40665
20
7.82033
11
5.41187
21
7.82224
0
LINE
8
Black
10
5.41187
20
7.82224
11
5.41743
21
7.82224
0
LINE
8
Black
10
5.41743
20
7.82224
11
5.4229
21
7.8232
0
LINE
8
Black
10
5.4229
20
7.8232
11
5.4737
21
7.8232
0
LINE
8
Black
10
5.4737
20
7.8232
11
5.47917
21
7.82224
0
LINE
8
Black
10
5.47917
20
7.82224
11
5.48473
21
7.82224
0
LINE
8
Black
10
5.48473
20
7.82224
11
5.48995
21
7.82033
0
LINE
8
Black
10
5.48995
20
7.82033
11
5.49542
21
7.81937
0
LINE
8
Black
10
5.49542
20
7.81937
11
5.50023
21
7.81659
0
LINE
8
Black
10
5.50023
20
7.81659
11
5.50545
21
7.81469
0
LINE
8
Black
10
5.50545
20
7.81469
11
5.50971
21
7.81112
0
LINE
8
Black
10
5.50971
20
7.81112
11
5.51452
21
7.80834
0
LINE
8
Black
10
5.51452
20
7.80834
11
5.51809
21
7.80409
0
LINE
8
Black
10
5.51809
20
7.80409
11
5.52234
21
7.80052
0
LINE
8
Black
10
5.52234
20
7.80052
11
5.52512
21
7.79571
0
LINE
8
Black
10
5.52512
20
7.79571
11
5.52869
21
7.79145
0
LINE
8
Black
10
5.52869
20
7.79145
11
5.53059
21
7.78623
0
LINE
8
Black
10
5.53059
20
7.78623
11
5.53337
21
7.78142
0
LINE
8
Black
10
5.53337
20
7.78142
11
5.53433
21
7.77595
0
LINE
8
Black
10
5.53433
20
7.77595
11
5.53623
21
7.77073
0
LINE
8
Black
10
5.53623
20
7.77073
11
5.53623
21
7.76517
0
LINE
8
Black
10
5.53623
20
7.76517
11
5.5372
21
7.7597
0
LINE
8
Black
10
5.5372
20
7.7597
11
5.5372
21
0.336567
0
LINE
8
Black
10
5.5372
20
0.336567
11
5.53831
21
0.331107
0
LINE
8
Black
10
5.53831
20
0.331107
11
5.54312
21
0.3302
0
LINE
8
Black
10
5.54312
20
0.3302
11
8.17243
21
0.3302
0
LINE
8
Black
10
8.17243
20
0.3302
11
8.17789
21
0.331306
0
LINE
8
Black
10
8.17789
20
0.331306
11
8.1788
21
0.336124
0
LINE
8
Black
10
8.1788
20
0.336124
11
8.1788
21
7.7597
0
LINE
8
Black
10
8.1788
20
7.7597
11
8.17976
21
7.76517
0
LINE
8
Black
10
8.17976
20
7.76517
11
8.17976
21
7.77073
0
LINE
8
Black
10
8.17976
20
7.77073
11
8.18167
21
7.77595
0
LINE
8
Black
10
8.18167
20
7.77595
11
8.18263
21
7.78142
0
LINE
8
Black
10
8.18263
20
7.78142
11
8.18541
21
7.78623
0
LINE
8
Black
10
8.18541
20
7.78623
11
8.18731
21
7.79145
0
LINE
8
Black
10
8.18731
20
7.79145
11
8.19088
21
7.79571
0
LINE
8
Black
10
8.19088
20
7.79571
11
8.19366
21
7.80052
0
LINE
8
Black
10
8.19366
20
7.80052
11
8.19791
21
7.80409
0
LINE
8
Black
10
8.19791
20
7.80409
11
8.20148
21
7.80834
0
LINE
8
Black
10
8.20148
20
7.80834
11
8.20629
21
7.81112
0
LINE
8
Black
10
8.20629
20
7.81112
11
8.21055
21
7.81469
0
LINE
8
Black
10
8.21055
20
7.81469
11
8.21577
21
7.81659
0
LINE
8
Black
10
8.21577
20
7.81659
11
8.22058
21
7.81937
0
LINE
8
Black
10
8.22058
20
7.81937
11
8.22605
21
7.82033
0
LINE
8
Black
10
8.22605
20
7.82033
11
8.23127
21
7.82224
0
LINE
8
Black
10
8.23127
20
7.82224
11
8.23683
21
7.82224
0
LINE
8
Black
10
8.23683
20
7.82224
11
8.2423
21
7.8232
0
LINE
8
Black
10
8.2423
20
7.8232
11
18.9103
21
7.8232
0
LINE
8
Black
10
18.9103
20
7.8232
11
18.9158
21
7.82224
0
LINE
8
Black
10
18.9158
20
7.82224
11
18.9213
21
7.82224
0
LINE
8
Black
10
18.9213
20
7.82224
11
18.9265
21
7.82033
0
LINE
8
Black
10
18.9265
20
7.82033
11
18.932
21
7.81937
0
LINE
8
Black
10
18.932
20
7.81937
11
18.9368
21
7.81659
0
LINE
8
Black
10
18.9368
20
7.81659
11
18.942
21
7.81469
0
LINE
8
Black
10
18.942
20
7.81469
11
18.9463
21
7.81112
0
LINE
8
Black
10
18.9463
20
7.81112
11
18.9511
21
7.80834
0
LINE
8
Black
10
18.9511
20
7.80834
11
18.9547
21
7.80409
0
LINE
8
Black
10
18.9547
20
7.80409
11
18.9589
21
7.80052
0
LINE
8
Black
10
18.9589
20
7.80052
11
18.9617
21
7.79571
0
LINE
8
Black
10
18.9617
20
7.79571
11
18.9653
21
7.79145
0
LINE
8
Black
10
18.9653
20
7.79145
11
18.9672
21
7.78623
0
LINE
8
Black
10
18.9672
20
7.78623
11
18.97
21
7.78142
0
LINE
8
Black
10
18.97
20
7.78142
11
18.9709
21
7.77595
0
LINE
8
Black
10
18.9709
20
7.77595
11
18.9728
21
7.77073
0
LINE
8
Black
10
18.9728
20
7.77073
11
18.9728
21
7.76517
0
LINE
8
Black
10
18.9728
20
7.76517
11
18.9738
21
7.7597
0
LINE
8
Black
10
18.9738
20
7.7597
11
18.9738
21
0.0635
0
LINE
8
Black
10
18.9738
20
0.0635
11
18.9728
21
0.058028
0
LINE
8
Black
10
18.9728
20
0.058028
11
18.9728
21
0.052473
0
LINE
8
Black
10
18.9728
20
0.052473
11
18.9709
21
0.047251
0
LINE
8
Black
10
18.9709
20
0.047251
11
18.97
21
0.041782
0
LINE
8
Black
10
18.97
20
0.041782
11
18.9672
21
0.036974
0
LINE
8
Black
10
18.9672
20
0.036974
11
18.9653
21
0.03175
0
LINE
8
Black
10
18.9653
20
0.03175
11
18.9617
21
0.027493
0
LINE
8
Black
10
18.9617
20
0.027493
11
18.9589
21
0.022683
0
LINE
8
Black
10
18.9589
20
0.022683
11
18.9547
21
0.019112
0
LINE
8
Black
10
18.9547
20
0.019112
11
18.9511
21
0.014856
0
LINE
8
Black
10
18.9511
20
0.014856
11
18.9463
21
0.012079
0
LINE
8
Black
10
18.9463
20
0.012079
11
18.942
21
0.008507
0
LINE
8
Black
10
18.942
20
0.008507
11
18.9368
21
0.006606
0
LINE
8
Black
10
18.9368
20
0.006606
11
18.932
21
0.00383
0
LINE
8
Black
10
18.932
20
0.00383
11
18.9265
21
0.002866
0
LINE
8
Black
10
18.9265
20
0.002866
11
18.9213
21
0.000965
0
LINE
8
Black
10
18.9213
20
0.000965
11
18.9158
21
0.000965
0
LINE
8
Black
10
18.9158
20
0.000965
11
18.9103
21
0
0
LINE
8
Black
10
18.9103
20
0
11
0.0635
21
0
0
LINE
8
Black
10
0.0635
20
0
11
0.058028
21
0.000965
0
LINE
8
Black
10
0.058028
20
0.000965
11
0.052473
21
0.000965
0
LINE
8
Black
10
0.052473
20
0.000965
11
0.047251
21
0.002866
0
LINE
8
Black
10
0.047251
20
0.002866
11
0.041782
21
0.00383
0
LINE
8
Black
10
0.041782
20
0.00383
11
0.036974
21
0.006606
0
LINE
8
Black
10
0.036974
20
0.006606
11
0.03175
21
0.008507
0
LINE
8
Black
10
0.03175
20
0.008507
11
0.027493
21
0.012079
0
LINE
8
Black
10
0.027493
20
0.012079
11
0.022683
21
0.014856
0
LINE
8
Black
10
0.022683
20
0.014856
11
0.019112
21
0.019112
0
LINE
8
Black
10
0.019112
20
0.019112
11
0.014856
21
0.022683
0
LINE
8
Black
10
0.014856
20
0.022683
11
0.012079
21
0.027493
0
LINE
8
Black
10
0.012079
20
0.027493
11
0.008507
21
0.03175
0
LINE
8
Black
10
0.008507
20
0.03175
11
0.006606
21
0.036974
0
LINE
8
Black
10
0.006606
20
0.036974
11
0.00383
21
0.041782
0
LINE
8
Black
10
0.00383
20
0.041782
11
0.002866
21
0.047251
0
LINE
8
Black
10
0.002866
20
0.047251
11
0.000965
21
0.052473
0
LINE
8
Black
10
0.000965
20
0.052473
11
0.000965
21
0.058028
0
LINE
8
Black
10
0.000965
20
0.058028
11
0
21
0.0635
0
LINE
8
Black
10
0
20
0.0635
11
0
21
7.7597
0
LINE
8
Black
10
0
20
7.7597
11
0.000965
21
7.76517
0
LINE
8
Black
10
0.000965
20
7.76517
11
0.000965
21
7.77073
0
LINE
8
Black
10
0.000965
20
7.77073
11
0.002866
21
7.77595
0
LINE
8
Black
10
0.002866
20
7.77595
11
0.00383
21
7.78142
0
LINE
8
Black
10
0.00383
20
7.78142
11
0.006606
21
7.78623
0
LINE
8
Black
10
0.006606
20
7.78623
11
0.008507
21
7.79145
0
LINE
8
Black
10
0.008507
20
7.79145
11
0.012079
21
7.79571
0
LINE
8
Black
10
0.012079
20
7.79571
11
0.014856
21
7.80052
0
LINE
8
Black
10
0.014856
20
7.80052
11
0.019112
21
7.80409
0
LINE
8
Black
10
0.019112
20
7.80409
11
0.022683
21
7.80834
0
LINE
8
Black
10
0.022683
20
7.80834
11
0.027493
21
7.81112
0
LINE
8
Black
10
0.027493
20
7.81112
11
0.03175
21
7.81469
0
LINE
8
Black
10
0.03175
20
7.81469
11
0.036974
21
7.81659
0
LINE
8
Black
10
0.036974
20
7.81659
11
0.041782
21
7.81937
0
LINE
8
Black
10
0.041782
20
7.81937
11
0.047251
21
7.82033
0
LINE
8
Black
10
0.047251
20
7.82033
11
0.052473
21
7.82224
0
LINE
8
Black
10
0.052473
20
7.82224
11
0.058028
21
7.82224
0
LINE
8
Black
10
0.058028
20
7.82224
11
0.0635
21
7.8232
0
LINE
8
Black
10
0.0635
20
7.8232
11
4.1021
21
7.8232
0
LINE
8
Black
10
4.1021
20
7.8232
11
4.10757
21
7.82224
0
LINE
8
Black
10
4.10757
20
7.82224
11
4.11313
21
7.82224
0
LINE
8
Black
10
4.11313
20
7.82224
11
4.11835
21
7.82033
0
LINE
8
Black
10
4.11835
20
7.82033
11
4.12382
21
7.81937
0
LINE
8
Black
10
4.12382
20
7.81937
11
4.12863
21
7.81659
0
LINE
8
Black
10
4.12863
20
7.81659
11
4.13385
21
7.81469
0
LINE
8
Black
10
4.13385
20
7.81469
11
4.13811
21
7.81112
0
LINE
8
Black
10
4.13811
20
7.81112
11
4.14292
21
7.80834
0
LINE
8
Black
10
4.14292
20
7.80834
11
4.14649
21
7.80409
0
LINE
8
Black
10
4.14649
20
7.80409
11
4.15074
21
7.80052
0
LINE
8
Black
10
4.15074
20
7.80052
11
4.15352
21
7.79571
0
LINE
8
Black
10
4.15352
20
7.79571
11
4.15709
21
7.79145
0
LINE
8
Black
10
4.15709
20
7.79145
11
4.15899
21
7.78623
0
LINE
8
Black
10
4.15899
20
7.78623
11
4.16177
21
7.78142
0
LINE
8
Black
10
4.16177
20
7.78142
11
4.16273
21
7.77595
0
LINE
8
Black
10
4.16273
20
7.77595
11
4.16463
21
7.77073
0
LINE
8
Black
10
4.16463
20
7.77073
11
4.16463
21
7.76517
0
LINE
8
Black
10
4.16463
20
7.76517
11
4.1656
21
7.7597
0
LINE
8
Black
10
4.1656
20
7.7597
11
4.1656
21
7.16917
0
LINE
8
Black
10
4.1656
20
7.16917
11
4.16671
21
7.16371
0
LINE
8
Black
10
4.16671
20
7.16371
11
4.17152
21
7.1628
0
LINE
8
Black
10
4.17152
20
7.1628
11
4.67993
21
7.1628
0
LINE
8
Black
10
4.67993
20
7.1628
11
4.68539
21
7.16391
0
LINE
8
Black
10
4.68539
20
7.16391
11
4.6863
21
7.16872
0
LINE
8
Black
10
4.6863
20
7.16872
11
4.6863
21
7.30883
0
LINE
8
Black
10
4.6863
20
7.30883
11
4.68519
21
7.31429
0
LINE
8
Black
10
4.68519
20
7.31429
11
4.68038
21
7.3152
0
LINE
8
Black
10
4.68038
20
7.3152
11
4.3815
21
7.3152
0
LINE
8
Black
10
4.3815
20
7.3152
11
4.37603
21
7.31616
0
LINE
8
Black
10
4.37603
20
7.31616
11
4.37047
21
7.31616
0
LINE
8
Black
10
4.37047
20
7.31616
11
4.36525
21
7.31807
0
LINE
8
Black
10
4.36525
20
7.31807
11
4.35978
21
7.31903
0
LINE
8
Black
10
4.35978
20
7.31903
11
4.35497
21
7.32181
0
LINE
8
Black
10
4.35497
20
7.32181
11
4.34975
21
7.32371
0
LINE
8
Black
10
4.34975
20
7.32371
11
4.34549
21
7.32728
0
LINE
8
Black
10
4.34549
20
7.32728
11
4.34068
21
7.33006
0
LINE
8
Black
10
4.34068
20
7.33006
11
4.33711
21
7.33431
0
LINE
8
Black
10
4.33711
20
7.33431
11
4.33286
21
7.33788
0
LINE
8
Black
10
4.33286
20
7.33788
11
4.33008
21
7.34269
0
LINE
8
Black
10
4.33008
20
7.34269
11
4.32651
21
7.34695
0
LINE
8
Black
10
4.32651
20
7.34695
11
4.32461
21
7.35217
0
LINE
8
Black
10
4.32461
20
7.35217
11
4.32183
21
7.35698
0
LINE
8
Black
10
4.32183
20
7.35698
11
4.32087
21
7.36245
0
LINE
8
Black
10
4.32087
20
7.36245
11
4.31896
21
7.36767
0
LINE
8
Black
10
4.31896
20
7.36767
11
4.31896
21
7.37323
0
LINE
8
Black
10
4.31896
20
7.37323
11
4.318
21
7.3787
0
LINE
8
Black
10
4.318
20
7.3787
11
4.318
21
12.6619
0
LINE
8
Black
10
4.318
20
12.6619
11
4.31896
21
12.6674
0
LINE
8
Black
10
4.31896
20
12.6674
11
4.31896
21
12.6729
0
LINE
8
Black
10
4.31896
20
12.6729
11
4.32087
21
12.6781
0
LINE
8
Black
10
4.32087
20
12.6781
11
4.32183
21
12.6836
0
LINE
8
Black
10
4.32183
20
12.6836
11
4.32461
21
12.6884
0
LINE
8
Black
10
4.32461
20
12.6884
11
4.32651
21
12.6936
0
LINE
8
Black
10
4.32651
20
12.6936
11
4.33008
21
12.6979
0
LINE
8
Black
10
4.33008
20
12.6979
11
4.33286
21
12.7027
0
LINE
8
Black
10
4.33286
20
12.7027
11
4.33711
21
12.7063
0
LINE
8
Black
10
4.33711
20
12.7063
11
4.34068
21
12.7105
0
LINE
8
Black
10
4.34068
20
12.7105
11
4.34549
21
12.7133
0
LINE
8
Black
10
4.34549
20
12.7133
11
4.34975
21
12.7169
0
LINE
8
Black
10
4.34975
20
12.7169
11
4.35497
21
12.7188
0
LINE
8
Black
10
4.35497
20
12.7188
11
4.35978
21
12.7216
0
LINE
8
Black
10
4.35978
20
12.7216
11
4.36525
21
12.7225
0
LINE
8
Black
10
4.36525
20
12.7225
11
4.37047
21
12.7244
0
LINE
8
Black
10
4.37047
20
12.7244
11
4.37603
21
12.7244
0
LINE
8
Black
10
4.37603
20
12.7244
11
4.3815
21
12.7254
0
LINE
8
Black
10
4.3815
20
12.7254
11
9.2583
21
12.7254
0
LINE
8
Black
10
9.2583
20
12.7254
11
9.26377
21
12.7244
  0
ENDSEC
  0
EOF
