  0
SECTION
  2
HEADER
  9
$ANGBASE
  50
0.0
  9
$ANGDIR
  70
  1
  9
$MEASUREMENT
  70
0
  0
ENDSEC
  0
SECTION
  2
TABLES
  0
TABLE
  2
LTYPE
  70
1
  0
LTYPE
  2
CONTINUOUS
  70
0
  3
Solid line
  72
65
  73
0
  40
0.0
  0
ENDTAB
  0
TABLE
  2
STYLE
  70
4
  0
STYLE
  2
KICAD
  70
0
  40
0
  41
1
  42
1
  50
0
  71
0
  3
isocp.shx
  0
STYLE
  2
KICADB
  70
0
  40
0
  41
1
  42
1
  50
0
  71
0
  3
isocp.shx
  0
STYLE
  2
KICADI
  70
0
  40
0
  41
1
  42
1
  50
15
  71
0
  3
isocp.shx
  0
STYLE
  2
KICADBI
  70
0
  40
0
  41
1
  42
1
  50
15
  71
0
  3
isocp.shx
  0
ENDTAB
  0
TABLE
  2
LAYER
  70
30
  0
LAYER
  2
BLACK
  70
0
  62
7
  6
CONTINUOUS
  0
LAYER
  2
GRAY1
  70
0
  62
251
  6
CONTINUOUS
  0
LAYER
  2
GRAY2
  70
0
  62
8
  6
CONTINUOUS
  0
LAYER
  2
GRAY3
  70
0
  62
9
  6
CONTINUOUS
  0
LAYER
  2
WHITE
  70
0
  62
7
  6
CONTINUOUS
  0
LAYER
  2
LYELLOW
  70
0
  62
51
  6
CONTINUOUS
  0
LAYER
  2
BLUE1
  70
0
  62
178
  6
CONTINUOUS
  0
LAYER
  2
GREEN1
  70
0
  62
98
  6
CONTINUOUS
  0
LAYER
  2
CYAN1
  70
0
  62
138
  6
CONTINUOUS
  0
LAYER
  2
RED1
  70
0
  62
18
  6
CONTINUOUS
  0
LAYER
  2
MAGENTA1
  70
0
  62
228
  6
CONTINUOUS
  0
LAYER
  2
BROWN1
  70
0
  62
58
  6
CONTINUOUS
  0
LAYER
  2
BLUE2
  70
0
  62
5
  6
CONTINUOUS
  0
LAYER
  2
GREEN2
  70
0
  62
3
  6
CONTINUOUS
  0
LAYER
  2
CYAN2
  70
0
  62
4
  6
CONTINUOUS
  0
LAYER
  2
RED2
  70
0
  62
1
  6
CONTINUOUS
  0
LAYER
  2
MAGENTA2
  70
0
  62
6
  6
CONTINUOUS
  0
LAYER
  2
BROWN2
  70
0
  62
54
  6
CONTINUOUS
  0
LAYER
  2
BLUE3
  70
0
  62
171
  6
CONTINUOUS
  0
LAYER
  2
GREEN3
  70
0
  62
91
  6
CONTINUOUS
  0
LAYER
  2
CYAN3
  70
0
  62
131
  6
CONTINUOUS
  0
LAYER
  2
RED3
  70
0
  62
11
  6
CONTINUOUS
  0
LAYER
  2
MAGENTA3
  70
0
  62
221
  6
CONTINUOUS
  0
LAYER
  2
YELLOW3
  70
0
  62
2
  6
CONTINUOUS
  0
LAYER
  2
BLUE4
  70
0
  62
5
  6
CONTINUOUS
  0
LAYER
  2
GREEN4
  70
0
  62
3
  6
CONTINUOUS
  0
LAYER
  2
CYAN4
  70
0
  62
4
  6
CONTINUOUS
  0
LAYER
  2
RED4
  70
0
  62
1
  6
CONTINUOUS
  0
LAYER
  2
MAGENTA4
  70
0
  62
6
  6
CONTINUOUS
  0
LAYER
  2
YELLOW4
  70
0
  62
2
  6
CONTINUOUS
  0
ENDTAB
  0
ENDSEC
  0
SECTION
  2
ENTITIES
0
LINE
8
Black
10
14.2342
20
1.92627
11
14.2385
21
1.92653
0
LINE
8
Black
10
14.2385
20
1.92653
11
14.2469
21
1.92403
0
LINE
8
Black
10
14.2469
20
1.92403
11
14.2556
21
1.9225
0
LINE
8
Black
10
14.2556
20
1.9225
11
14.2593
21
1.92034
0
LINE
8
Black
10
14.2593
20
1.92034
11
14.2634
21
1.91911
0
LINE
8
Black
10
14.2634
20
1.91911
11
14.3587
21
1.87149
0
LINE
8
Black
10
14.3587
20
1.87149
11
14.3683
21
1.86432
0
LINE
8
Black
10
14.3683
20
1.86432
11
14.3782
21
1.85744
0
LINE
8
Black
10
14.3782
20
1.85744
11
14.4258
21
1.80982
0
LINE
8
Black
10
14.4258
20
1.80982
11
14.4327
21
1.79998
0
LINE
8
Black
10
14.4327
20
1.79998
11
14.4398
21
1.79033
0
LINE
8
Black
10
14.4398
20
1.79033
11
14.4875
21
1.69509
0
LINE
8
Black
10
14.4875
20
1.69509
11
14.4887
21
1.69094
0
LINE
8
Black
10
14.4887
20
1.69094
11
14.4909
21
1.6872
0
LINE
8
Black
10
14.4909
20
1.6872
11
14.4924
21
1.67854
0
LINE
8
Black
10
14.4924
20
1.67854
11
14.4949
21
1.67012
0
LINE
8
Black
10
14.4949
20
1.67012
11
14.4946
21
1.66581
0
LINE
8
Black
10
14.4946
20
1.66581
11
14.4954
21
1.66155
0
LINE
8
Black
10
14.4954
20
1.66155
11
14.4954
21
1.42345
0
LINE
8
Black
10
14.4954
20
1.42345
11
14.4933
21
1.41162
0
LINE
8
Black
10
14.4933
20
1.41162
11
14.4915
21
1.39973
0
LINE
8
Black
10
14.4915
20
1.39973
11
14.4439
21
1.25688
0
LINE
8
Black
10
14.4439
20
1.25688
11
14.4315
21
1.23397
0
LINE
8
Black
10
14.4315
20
1.23397
11
14.412
21
1.21669
0
LINE
8
Black
10
14.412
20
1.21669
11
14.3878
21
1.20712
0
LINE
8
Black
10
14.3878
20
1.20712
11
14.3618
21
1.20641
0
LINE
8
Black
10
14.3618
20
1.20641
11
14.337
21
1.21464
0
LINE
8
Black
10
14.337
20
1.21464
11
14.3166
21
1.23083
0
LINE
8
Black
10
14.3166
20
1.23083
11
14.303
21
1.25303
0
LINE
8
Black
10
14.303
20
1.25303
11
14.2978
21
1.27855
0
LINE
8
Black
10
14.2978
20
1.27855
11
14.3016
21
1.30431
0
LINE
8
Black
10
14.3016
20
1.30431
11
14.3454
21
1.43562
0
LINE
8
Black
10
14.3454
20
1.43562
11
14.3454
21
1.64384
0
LINE
8
Black
10
14.3454
20
1.64384
11
14.3111
21
1.71236
0
LINE
8
Black
10
14.3111
20
1.71236
11
14.2807
21
1.74277
0
LINE
8
Black
10
14.2807
20
1.74277
11
14.2122
21
1.77702
0
LINE
8
Black
10
14.2122
20
1.77702
11
14.1524
21
1.77702
0
LINE
8
Black
10
14.1524
20
1.77702
11
14.0839
21
1.74277
0
LINE
8
Black
10
14.0839
20
1.74277
11
14.0534
21
1.71236
0
LINE
8
Black
10
14.0534
20
1.71236
11
14.015
21
1.63537
0
LINE
8
Black
10
14.015
20
1.63537
11
13.9693
21
1.45288
0
LINE
8
Black
10
13.9693
20
1.45288
11
13.966
21
1.44539
0
LINE
8
Black
10
13.966
20
1.44539
11
13.9637
21
1.43753
0
LINE
8
Black
10
13.9637
20
1.43753
11
13.916
21
1.34229
0
LINE
8
Black
10
13.916
20
1.34229
11
13.9089
21
1.33263
0
LINE
8
Black
10
13.9089
20
1.33263
11
13.902
21
1.3228
0
LINE
8
Black
10
13.902
20
1.3228
11
13.8544
21
1.27518
0
LINE
8
Black
10
13.8544
20
1.27518
11
13.8445
21
1.2683
0
LINE
8
Black
10
13.8445
20
1.2683
11
13.8349
21
1.26113
0
LINE
8
Black
10
13.8349
20
1.26113
11
13.7396
21
1.21351
0
LINE
8
Black
10
13.7396
20
1.21351
11
13.7355
21
1.21228
0
LINE
8
Black
10
13.7355
20
1.21228
11
13.7317
21
1.21012
0
LINE
8
Black
10
13.7317
20
1.21012
11
13.7231
21
1.20859
0
LINE
8
Black
10
13.7231
20
1.20859
11
13.7147
21
1.20609
0
LINE
8
Black
10
13.7147
20
1.20609
11
13.7104
21
1.20635
0
LINE
8
Black
10
13.7104
20
1.20635
11
13.7061
21
1.20559
0
LINE
8
Black
10
13.7061
20
1.20559
11
13.6109
21
1.20559
0
LINE
8
Black
10
13.6109
20
1.20559
11
13.6066
21
1.20635
0
LINE
8
Black
10
13.6066
20
1.20635
11
13.6023
21
1.20609
0
LINE
8
Black
10
13.6023
20
1.20609
11
13.5939
21
1.20859
0
LINE
8
Black
10
13.5939
20
1.20859
11
13.5852
21
1.21012
0
LINE
8
Black
10
13.5852
20
1.21012
11
13.5815
21
1.21228
0
LINE
8
Black
10
13.5815
20
1.21228
11
13.5773
21
1.21351
0
LINE
8
Black
10
13.5773
20
1.21351
11
13.4821
21
1.26113
0
LINE
8
Black
10
13.4821
20
1.26113
11
13.4724
21
1.2683
0
LINE
8
Black
10
13.4724
20
1.2683
11
13.4626
21
1.27518
0
LINE
8
Black
10
13.4626
20
1.27518
11
13.415
21
1.3228
0
LINE
8
Black
10
13.415
20
1.3228
11
13.4081
21
1.33263
0
LINE
8
Black
10
13.4081
20
1.33263
11
13.4009
21
1.34229
0
LINE
8
Black
10
13.4009
20
1.34229
11
13.3533
21
1.43753
0
LINE
8
Black
10
13.3533
20
1.43753
11
13.3521
21
1.44167
0
LINE
8
Black
10
13.3521
20
1.44167
11
13.3499
21
1.44542
0
LINE
8
Black
10
13.3499
20
1.44542
11
13.3484
21
1.45408
0
LINE
8
Black
10
13.3484
20
1.45408
11
13.3459
21
1.4625
0
LINE
8
Black
10
13.3459
20
1.4625
11
13.3461
21
1.46681
0
LINE
8
Black
10
13.3461
20
1.46681
11
13.3454
21
1.47107
0
LINE
8
Black
10
13.3454
20
1.47107
11
13.3454
21
1.70917
0
LINE
8
Black
10
13.3454
20
1.70917
11
13.3475
21
1.72101
0
LINE
8
Black
10
13.3475
20
1.72101
11
13.3492
21
1.73288
0
LINE
8
Black
10
13.3492
20
1.73288
11
13.3968
21
1.87574
0
LINE
8
Black
10
13.3968
20
1.87574
11
13.4093
21
1.89865
0
LINE
8
Black
10
13.4093
20
1.89865
11
13.4287
21
1.91593
0
LINE
8
Black
10
13.4287
20
1.91593
11
13.453
21
1.9255
0
LINE
8
Black
10
13.453
20
1.9255
11
13.479
21
1.92621
0
LINE
8
Black
10
13.479
20
1.92621
11
13.5037
21
1.91798
0
LINE
8
Black
10
13.5037
20
1.91798
11
13.5241
21
1.90178
0
LINE
8
Black
10
13.5241
20
1.90178
11
13.5377
21
1.87959
0
LINE
8
Black
10
13.5377
20
1.87959
11
13.543
21
1.85407
0
LINE
8
Black
10
13.543
20
1.85407
11
13.5392
21
1.82831
0
LINE
8
Black
10
13.5392
20
1.82831
11
13.4954
21
1.697
0
LINE
8
Black
10
13.4954
20
1.697
11
13.4954
21
1.48878
0
LINE
8
Black
10
13.4954
20
1.48878
11
13.5296
21
1.42026
0
LINE
8
Black
10
13.5296
20
1.42026
11
13.56
21
1.38985
0
LINE
8
Black
10
13.56
20
1.38985
11
13.6286
21
1.35559
0
LINE
8
Black
10
13.6286
20
1.35559
11
13.6884
21
1.35559
0
LINE
8
Black
10
13.6884
20
1.35559
11
13.7569
21
1.38985
0
LINE
8
Black
10
13.7569
20
1.38985
11
13.7873
21
1.42026
0
LINE
8
Black
10
13.7873
20
1.42026
11
13.8258
21
1.49725
0
LINE
8
Black
10
13.8258
20
1.49725
11
13.8714
21
1.67974
0
LINE
8
Black
10
13.8714
20
1.67974
11
13.8748
21
1.68723
0
LINE
8
Black
10
13.8748
20
1.68723
11
13.8771
21
1.69509
0
LINE
8
Black
10
13.8771
20
1.69509
11
13.9247
21
1.79033
0
LINE
8
Black
10
13.9247
20
1.79033
11
13.9319
21
1.79999
0
LINE
8
Black
10
13.9319
20
1.79999
11
13.9388
21
1.80982
0
LINE
8
Black
10
13.9388
20
1.80982
11
13.9864
21
1.85744
0
LINE
8
Black
10
13.9864
20
1.85744
11
13.9962
21
1.86432
0
LINE
8
Black
10
13.9962
20
1.86432
11
14.0059
21
1.87149
0
LINE
8
Black
10
14.0059
20
1.87149
11
14.1011
21
1.91911
0
LINE
8
Black
10
14.1011
20
1.91911
11
14.1053
21
1.92034
0
LINE
8
Black
10
14.1053
20
1.92034
11
14.109
21
1.9225
0
LINE
8
Black
10
14.109
20
1.9225
11
14.1177
21
1.92403
0
LINE
8
Black
10
14.1177
20
1.92403
11
14.1261
21
1.92653
0
LINE
8
Black
10
14.1261
20
1.92653
11
14.1304
21
1.92627
0
LINE
8
Black
10
14.1304
20
1.92627
11
14.1347
21
1.92702
0
LINE
8
Black
10
14.1347
20
1.92702
11
14.2299
21
1.92702
0
LINE
8
Black
10
14.2299
20
1.92702
11
14.2342
21
1.92627
0
LINE
8
Black
10
14.446
20
3.01774
11
14.4686
21
3.00472
0
LINE
8
Black
10
14.4686
20
3.00472
11
14.4853
21
2.98476
0
LINE
8
Black
10
14.4853
20
2.98476
11
14.4942
21
2.96029
0
LINE
8
Black
10
14.4942
20
2.96029
11
14.4942
21
2.93424
0
LINE
8
Black
10
14.4942
20
2.93424
11
14.4853
21
2.90976
0
LINE
8
Black
10
14.4853
20
2.90976
11
14.4686
21
2.88981
0
LINE
8
Black
10
14.4686
20
2.88981
11
14.446
21
2.87678
0
LINE
8
Black
10
14.446
20
2.87678
11
14.4204
21
2.87226
0
LINE
8
Black
10
14.4204
20
2.87226
11
13.7584
21
2.87226
0
LINE
8
Black
10
13.7584
20
2.87226
11
14.1664
21
2.68189
0
LINE
8
Black
10
14.1664
20
2.68189
11
14.1717
21
2.67814
0
LINE
8
Black
10
14.1717
20
2.67814
11
14.1777
21
2.67538
0
LINE
8
Black
10
14.1777
20
2.67538
11
14.1823
21
2.67072
0
LINE
8
Black
10
14.1823
20
2.67072
11
14.1877
21
2.66695
0
LINE
8
Black
10
14.1877
20
2.66695
11
14.1915
21
2.66159
0
LINE
8
Black
10
14.1915
20
2.66159
11
14.1961
21
2.65697
0
LINE
8
Black
10
14.1961
20
2.65697
11
14.1989
21
2.651
0
LINE
8
Black
10
14.1989
20
2.651
11
14.2027
21
2.6456
0
LINE
8
Black
10
14.2027
20
2.6456
11
14.2043
21
2.63929
0
LINE
8
Black
10
14.2043
20
2.63929
11
14.2071
21
2.63336
0
LINE
8
Black
10
14.2071
20
2.63336
11
14.2077
21
2.6268
0
LINE
8
Black
10
14.2077
20
2.6268
11
14.2094
21
2.62044
0
LINE
8
Black
10
14.2094
20
2.62044
11
14.2088
21
2.61393
0
LINE
8
Black
10
14.2088
20
2.61393
11
14.2094
21
2.60741
0
LINE
8
Black
10
14.2094
20
2.60741
11
14.2077
21
2.60106
0
LINE
8
Black
10
14.2077
20
2.60106
11
14.2071
21
2.5945
0
LINE
8
Black
10
14.2071
20
2.5945
11
14.2043
21
2.58856
0
LINE
8
Black
10
14.2043
20
2.58856
11
14.2026
21
2.58225
0
LINE
8
Black
10
14.2026
20
2.58225
11
14.1989
21
2.57686
0
LINE
8
Black
10
14.1989
20
2.57686
11
14.1961
21
2.57089
0
LINE
8
Black
10
14.1961
20
2.57089
11
14.1915
21
2.56627
0
LINE
8
Black
10
14.1915
20
2.56627
11
14.1877
21
2.56091
0
LINE
8
Black
10
14.1877
20
2.56091
11
14.1823
21
2.55714
0
LINE
8
Black
10
14.1823
20
2.55714
11
14.1777
21
2.55248
0
LINE
8
Black
10
14.1777
20
2.55248
11
14.1717
21
2.54972
0
LINE
8
Black
10
14.1717
20
2.54972
11
14.1664
21
2.54596
0
LINE
8
Black
10
14.1664
20
2.54596
11
13.7584
21
2.3556
0
LINE
8
Black
10
13.7584
20
2.3556
11
14.4204
21
2.3556
0
LINE
8
Black
10
14.4204
20
2.3556
11
14.446
21
2.35107
0
LINE
8
Black
10
14.446
20
2.35107
11
14.4686
21
2.33805
0
LINE
8
Black
10
14.4686
20
2.33805
11
14.4853
21
2.3181
0
LINE
8
Black
10
14.4853
20
2.3181
11
14.4942
21
2.29362
0
LINE
8
Black
10
14.4942
20
2.29362
11
14.4942
21
2.26757
0
LINE
8
Black
10
14.4942
20
2.26757
11
14.4853
21
2.24309
0
LINE
8
Black
10
14.4853
20
2.24309
11
14.4686
21
2.22314
0
LINE
8
Black
10
14.4686
20
2.22314
11
14.446
21
2.21012
0
LINE
8
Black
10
14.446
20
2.21012
11
14.4204
21
2.20559
0
LINE
8
Black
10
14.4204
20
2.20559
11
13.4204
21
2.20559
0
LINE
8
Black
10
13.4204
20
2.20559
11
13.4107
21
2.20729
0
LINE
8
Black
10
13.4107
20
2.20729
11
13.401
21
2.20815
0
LINE
8
Black
10
13.401
20
2.20815
11
13.398
21
2.20954
0
LINE
8
Black
10
13.398
20
2.20954
11
13.3947
21
2.21012
0
LINE
8
Black
10
13.3947
20
2.21012
11
13.3863
21
2.21501
0
LINE
8
Black
10
13.3863
20
2.21501
11
13.3774
21
2.21915
0
LINE
8
Black
10
13.3774
20
2.21915
11
13.375
21
2.22149
0
LINE
8
Black
10
13.375
20
2.22149
11
13.3722
21
2.22314
0
LINE
8
Black
10
13.3722
20
2.22314
11
13.3659
21
2.23063
0
LINE
8
Black
10
13.3659
20
2.23063
11
13.359
21
2.23756
0
LINE
8
Black
10
13.359
20
2.23756
11
13.3576
21
2.24056
0
LINE
8
Black
10
13.3576
20
2.24056
11
13.3554
21
2.24309
0
LINE
8
Black
10
13.3554
20
2.24309
11
13.3521
21
2.25229
0
LINE
8
Black
10
13.3521
20
2.25229
11
13.3479
21
2.26116
0
LINE
8
Black
10
13.3479
20
2.26116
11
13.3477
21
2.26446
0
LINE
8
Black
10
13.3477
20
2.26446
11
13.3465
21
2.26757
0
LINE
8
Black
10
13.3465
20
2.26757
11
13.3465
21
2.27736
0
LINE
8
Black
10
13.3465
20
2.27736
11
13.3457
21
2.28711
0
LINE
8
Black
10
13.3457
20
2.28711
11
13.3465
21
2.29031
0
LINE
8
Black
10
13.3465
20
2.29031
11
13.3465
21
2.29362
0
LINE
8
Black
10
13.3465
20
2.29362
11
13.3499
21
2.30282
0
LINE
8
Black
10
13.3499
20
2.30282
11
13.3524
21
2.31227
0
LINE
8
Black
10
13.3524
20
2.31227
11
13.3543
21
2.31498
0
LINE
8
Black
10
13.3543
20
2.31498
11
13.3554
21
2.3181
0
LINE
8
Black
10
13.3554
20
2.3181
11
13.3617
21
2.32559
0
LINE
8
Black
10
13.3617
20
2.32559
11
13.3673
21
2.33361
0
LINE
8
Black
10
13.3673
20
2.33361
11
13.37
21
2.33551
0
LINE
8
Black
10
13.37
20
2.33551
11
13.3722
21
2.33805
0
LINE
8
Black
10
13.3722
20
2.33805
11
13.3806
21
2.34294
0
LINE
8
Black
10
13.3806
20
2.34294
11
13.3887
21
2.34856
0
LINE
8
Black
10
13.3887
20
2.34856
11
13.9573
21
2.61393
0
LINE
8
Black
10
13.9573
20
2.61393
11
13.3887
21
2.8793
0
LINE
8
Black
10
13.3887
20
2.8793
11
13.3806
21
2.88491
0
LINE
8
Black
10
13.3806
20
2.88491
11
13.3722
21
2.88981
0
LINE
8
Black
10
13.3722
20
2.88981
11
13.37
21
2.89234
0
LINE
8
Black
10
13.37
20
2.89234
11
13.3673
21
2.89424
0
LINE
8
Black
10
13.3673
20
2.89424
11
13.3617
21
2.90226
0
LINE
8
Black
10
13.3617
20
2.90226
11
13.3554
21
2.90976
0
LINE
8
Black
10
13.3554
20
2.90976
11
13.3543
21
2.91287
0
LINE
8
Black
10
13.3543
20
2.91287
11
13.3524
21
2.91559
0
LINE
8
Black
10
13.3524
20
2.91559
11
13.3499
21
2.92504
0
LINE
8
Black
10
13.3499
20
2.92504
11
13.3465
21
2.93424
0
LINE
8
Black
10
13.3465
20
2.93424
11
13.3465
21
2.93755
0
LINE
8
Black
10
13.3465
20
2.93755
11
13.3457
21
2.94075
0
LINE
8
Black
10
13.3457
20
2.94075
11
13.3465
21
2.9505
0
LINE
8
Black
10
13.3465
20
2.9505
11
13.3465
21
2.96029
0
LINE
8
Black
10
13.3465
20
2.96029
11
13.3477
21
2.9634
0
LINE
8
Black
10
13.3477
20
2.9634
11
13.3479
21
2.9667
0
LINE
8
Black
10
13.3479
20
2.9667
11
13.3521
21
2.97557
0
LINE
8
Black
10
13.3521
20
2.97557
11
13.3554
21
2.98476
0
LINE
8
Black
10
13.3554
20
2.98476
11
13.3576
21
2.9873
0
LINE
8
Black
10
13.3576
20
2.9873
11
13.359
21
2.9903
0
LINE
8
Black
10
13.359
20
2.9903
11
13.3659
21
2.99722
0
LINE
8
Black
10
13.3659
20
2.99722
11
13.3722
21
3.00472
0
LINE
8
Black
10
13.3722
20
3.00472
11
13.375
21
3.00637
0
LINE
8
Black
10
13.375
20
3.00637
11
13.3774
21
3.00871
0
LINE
8
Black
10
13.3774
20
3.00871
11
13.3863
21
3.01284
0
LINE
8
Black
10
13.3863
20
3.01284
11
13.3947
21
3.01774
0
LINE
8
Black
10
13.3947
20
3.01774
11
13.398
21
3.01831
0
LINE
8
Black
10
13.398
20
3.01831
11
13.401
21
3.01971
0
LINE
8
Black
10
13.401
20
3.01971
11
13.4107
21
3.02056
0
LINE
8
Black
10
13.4107
20
3.02056
11
13.4204
21
3.02226
0
LINE
8
Black
10
13.4204
20
3.02226
11
14.4204
21
3.02226
0
LINE
8
Black
10
14.4204
20
3.02226
11
14.446
21
3.01774
0
LINE
8
Black
10
14.4479
20
4.01701
11
14.4701
21
4.00338
0
LINE
8
Black
10
14.4701
20
4.00338
11
14.4863
21
3.98297
0
LINE
8
Black
10
14.4863
20
3.98297
11
14.4946
21
3.95826
0
LINE
8
Black
10
14.4946
20
3.95826
11
14.4939
21
3.93223
0
LINE
8
Black
10
14.4939
20
3.93223
11
14.4843
21
3.908
0
LINE
8
Black
10
14.4843
20
3.908
11
14.467
21
3.88851
0
LINE
8
Black
10
14.467
20
3.88851
11
14.4441
21
3.87611
0
LINE
8
Black
10
14.4441
20
3.87611
11
14.2097
21
3.79797
0
LINE
8
Black
10
14.2097
20
3.79797
11
14.2097
21
3.42989
0
LINE
8
Black
10
14.2097
20
3.42989
11
14.4441
21
3.35175
0
LINE
8
Black
10
14.4441
20
3.35175
11
14.467
21
3.33934
0
LINE
8
Black
10
14.467
20
3.33934
11
14.4843
21
3.31986
0
LINE
8
Black
10
14.4843
20
3.31986
11
14.4939
21
3.29563
0
LINE
8
Black
10
14.4939
20
3.29563
11
14.4946
21
3.26959
0
LINE
8
Black
10
14.4946
20
3.26959
11
14.4863
21
3.24488
0
LINE
8
Black
10
14.4863
20
3.24488
11
14.4701
21
3.22448
0
LINE
8
Black
10
14.4701
20
3.22448
11
14.4479
21
3.21084
0
LINE
8
Black
10
14.4479
20
3.21084
11
14.4224
21
3.20562
0
LINE
8
Black
10
14.4224
20
3.20562
11
14.3967
21
3.20944
0
LINE
8
Black
10
14.3967
20
3.20944
11
13.3967
21
3.54278
0
LINE
8
Black
10
13.3967
20
3.54278
11
13.3948
21
3.54376
0
LINE
8
Black
10
13.3948
20
3.54376
11
13.3928
21
3.54418
0
LINE
8
Black
10
13.3928
20
3.54418
11
13.3834
21
3.54994
0
LINE
8
Black
10
13.3834
20
3.54994
11
13.3738
21
3.55518
0
LINE
8
Black
10
13.3738
20
3.55518
11
13.3724
21
3.55673
0
LINE
8
Black
10
13.3724
20
3.55673
11
13.3706
21
3.55781
0
LINE
8
Black
10
13.3706
20
3.55781
11
13.3638
21
3.56644
0
LINE
8
Black
10
13.3638
20
3.56644
11
13.3565
21
3.57467
0
LINE
8
Black
10
13.3565
20
3.57467
11
13.3557
21
3.57659
0
LINE
8
Black
10
13.3557
20
3.57659
11
13.3544
21
3.57821
0
LINE
8
Black
10
13.3544
20
3.57821
11
13.3509
21
3.58867
0
LINE
8
Black
10
13.3509
20
3.58867
11
13.3469
21
3.59889
0
LINE
8
Black
10
13.3469
20
3.59889
11
13.3468
21
3.60096
0
LINE
8
Black
10
13.3468
20
3.60096
11
13.3462
21
3.60293
0
LINE
8
Black
10
13.3462
20
3.60293
11
13.3465
21
3.61393
0
LINE
8
Black
10
13.3465
20
3.61393
11
13.3462
21
3.62493
0
LINE
8
Black
10
13.3462
20
3.62493
11
13.3468
21
3.62689
0
LINE
8
Black
10
13.3468
20
3.62689
11
13.3469
21
3.62896
0
LINE
8
Black
10
13.3469
20
3.62896
11
13.3509
21
3.63919
0
LINE
8
Black
10
13.3509
20
3.63919
11
13.3544
21
3.64964
0
LINE
8
Black
10
13.3544
20
3.64964
11
13.3557
21
3.65126
0
LINE
8
Black
10
13.3557
20
3.65126
11
13.3565
21
3.65319
0
LINE
8
Black
10
13.3565
20
3.65319
11
13.3638
21
3.66142
0
LINE
8
Black
10
13.3638
20
3.66142
11
13.3706
21
3.67004
0
LINE
8
Black
10
13.3706
20
3.67004
11
13.3724
21
3.67113
0
LINE
8
Black
10
13.3724
20
3.67113
11
13.3738
21
3.67268
0
LINE
8
Black
10
13.3738
20
3.67268
11
13.3834
21
3.67791
0
LINE
8
Black
10
13.3834
20
3.67791
11
13.3928
21
3.68368
0
LINE
8
Black
10
13.3928
20
3.68368
11
13.3948
21
3.68409
0
LINE
8
Black
10
13.3948
20
3.68409
11
13.3967
21
3.68508
0
LINE
8
Black
10
13.3967
20
3.68508
11
14.3967
21
4.01841
0
LINE
8
Black
10
14.3967
20
4.01841
11
14.4224
21
4.02223
0
LINE
8
Black
10
14.4224
20
4.02223
11
14.4479
21
4.01701
0
LINE
8
Black
10
13.6576
20
3.61393
11
14.0597
21
3.47989
0
LINE
8
Black
10
14.0597
20
3.47989
11
14.0597
21
3.74797
0
LINE
8
Black
10
14.0597
20
3.74797
11
13.6576
21
3.61393
0
LINE
8
Black
10
14.4579
20
4.86936
11
14.4778
21
4.85261
0
LINE
8
Black
10
14.4778
20
4.85261
11
14.4909
21
4.83006
0
LINE
8
Black
10
14.4909
20
4.83006
11
14.4954
21
4.80441
0
LINE
8
Black
10
14.4954
20
4.80441
11
14.4954
21
4.23298
0
LINE
8
Black
10
14.4954
20
4.23298
11
14.4909
21
4.20732
0
LINE
8
Black
10
14.4909
20
4.20732
11
14.4778
21
4.18477
0
LINE
8
Black
10
14.4778
20
4.18477
11
14.4579
21
4.16802
0
LINE
8
Black
10
14.4579
20
4.16802
11
14.4334
21
4.15911
0
LINE
8
Black
10
14.4334
20
4.15911
11
14.4074
21
4.15911
0
LINE
8
Black
10
14.4074
20
4.15911
11
14.3829
21
4.16802
0
LINE
8
Black
10
14.3829
20
4.16802
11
14.3629
21
4.18477
0
LINE
8
Black
10
14.3629
20
4.18477
11
14.3499
21
4.20732
0
LINE
8
Black
10
14.3499
20
4.20732
11
14.3454
21
4.23298
0
LINE
8
Black
10
14.3454
20
4.23298
11
14.3454
21
4.44369
0
LINE
8
Black
10
14.3454
20
4.44369
11
13.6491
21
4.44369
0
LINE
8
Black
10
13.6491
20
4.44369
11
13.7115
21
4.38125
0
LINE
8
Black
10
13.7115
20
4.38125
11
13.7184
21
4.3714
0
LINE
8
Black
10
13.7184
20
4.3714
11
13.7256
21
4.36175
0
LINE
8
Black
10
13.7256
20
4.36175
11
13.7732
21
4.26652
0
LINE
8
Black
10
13.7732
20
4.26652
11
13.7806
21
4.24155
0
LINE
8
Black
10
13.7806
20
4.24155
11
13.779
21
4.21555
0
LINE
8
Black
10
13.779
20
4.21555
11
13.7687
21
4.19165
0
LINE
8
Black
10
13.7687
20
4.19165
11
13.7508
21
4.17274
0
LINE
8
Black
10
13.7508
20
4.17274
11
13.7275
21
4.16109
0
LINE
8
Black
10
13.7275
20
4.16109
11
13.7016
21
4.15811
0
LINE
8
Black
10
13.7016
20
4.15811
11
13.6763
21
4.16416
0
LINE
8
Black
10
13.6763
20
4.16416
11
13.6545
21
4.17851
0
LINE
8
Black
10
13.6545
20
4.17851
11
13.639
21
4.19944
0
LINE
8
Black
10
13.639
20
4.19944
11
13.5968
21
4.28379
0
LINE
8
Black
10
13.5968
20
4.28379
11
13.5155
21
4.36517
0
LINE
8
Black
10
13.5155
20
4.36517
11
13.3788
21
4.45629
0
LINE
8
Black
10
13.3788
20
4.45629
11
13.3758
21
4.45916
0
LINE
8
Black
10
13.3758
20
4.45916
11
13.3722
21
4.46124
0
LINE
8
Black
10
13.3722
20
4.46124
11
13.3664
21
4.46809
0
LINE
8
Black
10
13.3664
20
4.46809
11
13.3599
21
4.47428
0
LINE
8
Black
10
13.3599
20
4.47428
11
13.3581
21
4.478
0
LINE
8
Black
10
13.3581
20
4.478
11
13.3554
21
4.48119
0
LINE
8
Black
10
13.3554
20
4.48119
11
13.3524
21
4.48961
0
LINE
8
Black
10
13.3524
20
4.48961
11
13.3484
21
4.49763
0
LINE
8
Black
10
13.3484
20
4.49763
11
13.3479
21
4.50176
0
LINE
8
Black
10
13.3479
20
4.50176
11
13.3465
21
4.50567
0
LINE
8
Black
10
13.3465
20
4.50567
11
13.3465
21
4.51462
0
LINE
8
Black
10
13.3465
20
4.51462
11
13.3455
21
4.52352
0
LINE
8
Black
10
13.3455
20
4.52352
11
13.3465
21
4.52756
0
LINE
8
Black
10
13.3465
20
4.52756
11
13.3465
21
4.53171
0
LINE
8
Black
10
13.3465
20
4.53171
11
13.3496
21
4.54013
0
LINE
8
Black
10
13.3496
20
4.54013
11
13.3517
21
4.54882
0
LINE
8
Black
10
13.3517
20
4.54882
11
13.354
21
4.55228
0
LINE
8
Black
10
13.354
20
4.55228
11
13.3554
21
4.55619
0
LINE
8
Black
10
13.3554
20
4.55619
11
13.3612
21
4.56304
0
LINE
8
Black
10
13.3612
20
4.56304
11
13.3661
21
4.5705
0
LINE
8
Black
10
13.3661
20
4.5705
11
13.3695
21
4.57296
0
LINE
8
Black
10
13.3695
20
4.57296
11
13.3722
21
4.57614
0
LINE
8
Black
10
13.3722
20
4.57614
11
13.3799
21
4.58062
0
LINE
8
Black
10
13.3799
20
4.58062
11
13.3871
21
4.58592
0
LINE
8
Black
10
13.3871
20
4.58592
11
13.3911
21
4.58709
0
LINE
8
Black
10
13.3911
20
4.58709
11
13.3947
21
4.58917
0
LINE
8
Black
10
13.3947
20
4.58917
11
13.4035
21
4.59072
0
LINE
8
Black
10
13.4035
20
4.59072
11
13.4121
21
4.59323
0
LINE
8
Black
10
13.4121
20
4.59323
11
13.4163
21
4.59297
0
LINE
8
Black
10
13.4163
20
4.59297
11
13.4204
21
4.59369
0
LINE
8
Black
10
13.4204
20
4.59369
11
14.3454
21
4.59369
0
LINE
8
Black
10
14.3454
20
4.59369
11
14.3454
21
4.80441
0
LINE
8
Black
10
14.3454
20
4.80441
11
14.3499
21
4.83006
0
LINE
8
Black
10
14.3499
20
4.83006
11
14.3629
21
4.85261
0
LINE
8
Black
10
14.3629
20
4.85261
11
14.3829
21
4.86936
0
LINE
8
Black
10
14.3829
20
4.86936
11
14.4074
21
4.87827
0
LINE
8
Black
10
14.4074
20
4.87827
11
14.4334
21
4.87827
0
LINE
8
Black
10
14.4334
20
4.87827
11
14.4579
21
4.86936
  0
ENDSEC
  0
EOF
