G04 #@! TF.FileFunction,Copper,L2,Bot,Signal*
%FSLAX46Y46*%
G04 Gerber Fmt 4.6, Leading zero omitted, Abs format (unit mm)*
G04 Created by KiCad (PCBNEW 4.0.5) date 02/24/17 13:58:23*
%MOMM*%
%LPD*%
G01*
G04 APERTURE LIST*
%ADD10C,0.025400*%
%ADD11R,2.420000X5.080000*%
%ADD12C,0.970000*%
%ADD13R,0.460000X0.890000*%
%ADD14C,0.304800*%
%ADD15C,0.127000*%
G04 APERTURE END LIST*
D10*
D11*
X2478000Y3042500D03*
X11238000Y3042500D03*
D12*
X2478000Y6482500D03*
X11238000Y6482500D03*
D13*
X2478000Y6032500D03*
X11238000Y6032500D03*
D14*
X4762500Y7569200D03*
D15*
X63500Y7759700D02*
X18910300Y7759700D01*
X63500Y7683500D02*
X18910300Y7683500D01*
X63500Y7607300D02*
X18910300Y7607300D01*
X63500Y7531100D02*
X18910300Y7531100D01*
X63500Y7454900D02*
X18910300Y7454900D01*
X63500Y7378700D02*
X18910300Y7378700D01*
X63500Y7302500D02*
X18910300Y7302500D01*
X63500Y7226300D02*
X18910300Y7226300D01*
X63500Y7150100D02*
X18910300Y7150100D01*
X63500Y7073900D02*
X18910300Y7073900D01*
X63500Y6997700D02*
X18910300Y6997700D01*
X63500Y6921500D02*
X18910300Y6921500D01*
X63500Y6845300D02*
X18910300Y6845300D01*
X63500Y6769100D02*
X18910300Y6769100D01*
X63500Y6692900D02*
X18910300Y6692900D01*
X63500Y6616700D02*
X18910300Y6616700D01*
X63500Y6540500D02*
X18910300Y6540500D01*
X63500Y6464300D02*
X18910300Y6464300D01*
X63500Y6388100D02*
X18910300Y6388100D01*
X63500Y6311900D02*
X18910300Y6311900D01*
X63500Y6235700D02*
X18910300Y6235700D01*
X63500Y6159500D02*
X18910300Y6159500D01*
X63500Y6083300D02*
X18910300Y6083300D01*
X63500Y6007100D02*
X18910300Y6007100D01*
X63500Y5930900D02*
X18910300Y5930900D01*
X63500Y5854700D02*
X18910300Y5854700D01*
X63500Y5778500D02*
X18910300Y5778500D01*
X63500Y5702300D02*
X18910300Y5702300D01*
X63500Y5626100D02*
X18910300Y5626100D01*
X63500Y5549900D02*
X18910300Y5549900D01*
X63500Y5473700D02*
X18910300Y5473700D01*
X63500Y5397500D02*
X18910300Y5397500D01*
X63500Y5321300D02*
X18910300Y5321300D01*
X63500Y5245100D02*
X18910300Y5245100D01*
X63500Y5168900D02*
X18910300Y5168900D01*
X63500Y5092700D02*
X18910300Y5092700D01*
X63500Y5016500D02*
X18910300Y5016500D01*
X63500Y4940300D02*
X18910300Y4940300D01*
X63500Y4864100D02*
X18910300Y4864100D01*
X63500Y4787900D02*
X18910300Y4787900D01*
X63500Y4711700D02*
X18910300Y4711700D01*
X63500Y4635500D02*
X18910300Y4635500D01*
X63500Y4559300D02*
X18910300Y4559300D01*
X63500Y4483100D02*
X18910300Y4483100D01*
X63500Y4406900D02*
X18910300Y4406900D01*
X63500Y4330700D02*
X18910300Y4330700D01*
X63500Y4254500D02*
X18910300Y4254500D01*
X63500Y4178300D02*
X18910300Y4178300D01*
X63500Y4102100D02*
X18910300Y4102100D01*
X63500Y4025900D02*
X18910300Y4025900D01*
X63500Y3949700D02*
X18910300Y3949700D01*
X63500Y3873500D02*
X18910300Y3873500D01*
X63500Y3797300D02*
X18910300Y3797300D01*
X63500Y3721100D02*
X18910300Y3721100D01*
X63500Y3644900D02*
X18910300Y3644900D01*
X63500Y3568700D02*
X18910300Y3568700D01*
X63500Y3492500D02*
X18910300Y3492500D01*
X63500Y3416300D02*
X18910300Y3416300D01*
X63500Y3340100D02*
X18910300Y3340100D01*
X63500Y3263900D02*
X18910300Y3263900D01*
X63500Y3187700D02*
X18910300Y3187700D01*
X63500Y3111500D02*
X18910300Y3111500D01*
X63500Y3035300D02*
X18910300Y3035300D01*
X63500Y2959100D02*
X18910300Y2959100D01*
X63500Y2882900D02*
X18910300Y2882900D01*
X63500Y2806700D02*
X18910300Y2806700D01*
X63500Y2730500D02*
X18910300Y2730500D01*
X63500Y2654300D02*
X18910300Y2654300D01*
X63500Y2578100D02*
X18910300Y2578100D01*
X63500Y2501900D02*
X18910300Y2501900D01*
X63500Y2425700D02*
X18910300Y2425700D01*
X63500Y2349500D02*
X18910300Y2349500D01*
X63500Y2273300D02*
X18910300Y2273300D01*
X63500Y2197100D02*
X18910300Y2197100D01*
X63500Y2120900D02*
X18910300Y2120900D01*
X63500Y2044700D02*
X18910300Y2044700D01*
X63500Y1968500D02*
X18910300Y1968500D01*
X63500Y1892300D02*
X18910300Y1892300D01*
X63500Y1816100D02*
X18910300Y1816100D01*
X63500Y1739900D02*
X18910300Y1739900D01*
X63500Y1663700D02*
X18910300Y1663700D01*
X63500Y1587500D02*
X18910300Y1587500D01*
X63500Y1511300D02*
X18910300Y1511300D01*
X63500Y1435100D02*
X18910300Y1435100D01*
X63500Y1358900D02*
X18910300Y1358900D01*
X63500Y1282700D02*
X18910300Y1282700D01*
X63500Y1206500D02*
X18910300Y1206500D01*
X63500Y1130300D02*
X18910300Y1130300D01*
X63500Y1054100D02*
X18910300Y1054100D01*
X63500Y977900D02*
X18910300Y977900D01*
X63500Y901700D02*
X18910300Y901700D01*
X63500Y825500D02*
X18910300Y825500D01*
X63500Y749300D02*
X18910300Y749300D01*
X63500Y673100D02*
X18910300Y673100D01*
X63500Y596900D02*
X18910300Y596900D01*
X63500Y520700D02*
X18910300Y520700D01*
X63500Y444500D02*
X18910300Y444500D01*
X63500Y368300D02*
X18910300Y368300D01*
X63500Y292100D02*
X18910300Y292100D01*
X63500Y215900D02*
X18910300Y215900D01*
X63500Y139700D02*
X18910300Y139700D01*
X18910300Y63500D02*
X63500Y63500D01*
X63500Y7759700D01*
X18910300Y7759700D01*
X18910300Y63500D01*
M02*
