G04 #@! TF.FileFunction,Copper,L1,Top,Signal*
%FSLAX46Y46*%
G04 Gerber Fmt 4.6, Leading zero omitted, Abs format (unit mm)*
G04 Created by KiCad (PCBNEW 4.0.5) date 02/24/17 13:58:23*
%MOMM*%
%LPD*%
G01*
G04 APERTURE LIST*
%ADD10C,0.025400*%
%ADD11R,2.290000X5.080000*%
%ADD12R,2.420000X5.080000*%
%ADD13C,0.970000*%
%ADD14R,0.460000X0.890000*%
%ADD15C,0.304800*%
%ADD16C,0.127000*%
G04 APERTURE END LIST*
D10*
D11*
X6858000Y3042500D03*
D12*
X2478000Y3042500D03*
X11238000Y3042500D03*
D13*
X2478000Y6482500D03*
X11238000Y6482500D03*
D14*
X2478000Y6032500D03*
X11238000Y6032500D03*
D15*
X4762500Y7569200D03*
D16*
X4381500Y12661900D02*
X9258300Y12661900D01*
X11366500Y12661900D02*
X13931900Y12661900D01*
X16040100Y12661900D02*
X18605500Y12661900D01*
X4381500Y12585700D02*
X9258300Y12585700D01*
X11366500Y12585700D02*
X13931900Y12585700D01*
X16040100Y12585700D02*
X18605500Y12585700D01*
X4381500Y12509500D02*
X9258300Y12509500D01*
X11366500Y12509500D02*
X13931900Y12509500D01*
X16040100Y12509500D02*
X18605500Y12509500D01*
X4381500Y12433300D02*
X9258300Y12433300D01*
X11366500Y12433300D02*
X13931900Y12433300D01*
X16040100Y12433300D02*
X18605500Y12433300D01*
X4381500Y12357100D02*
X9258300Y12357100D01*
X11366500Y12357100D02*
X13931900Y12357100D01*
X16040100Y12357100D02*
X18605500Y12357100D01*
X4381500Y12280900D02*
X5207000Y12280900D01*
X6604000Y12280900D02*
X7112000Y12280900D01*
X8813800Y12280900D02*
X9258300Y12280900D01*
X11366500Y12280900D02*
X11811000Y12280900D01*
X13487400Y12280900D02*
X13931900Y12280900D01*
X16040100Y12280900D02*
X16484600Y12280900D01*
X18161000Y12280900D02*
X18605500Y12280900D01*
X4381500Y12204700D02*
X5143500Y12204700D01*
X6667500Y12204700D02*
X7048500Y12204700D01*
X8877300Y12204700D02*
X9258300Y12204700D01*
X11366500Y12204700D02*
X11747500Y12204700D01*
X13550900Y12204700D02*
X13931900Y12204700D01*
X16040100Y12204700D02*
X16421100Y12204700D01*
X18224500Y12204700D02*
X18605500Y12204700D01*
X4381500Y12128500D02*
X5143500Y12128500D01*
X6667500Y12128500D02*
X7048500Y12128500D01*
X8877300Y12128500D02*
X9258300Y12128500D01*
X11366500Y12128500D02*
X11747500Y12128500D01*
X13550900Y12128500D02*
X13931900Y12128500D01*
X16040100Y12128500D02*
X16421100Y12128500D01*
X18224500Y12128500D02*
X18605500Y12128500D01*
X4381500Y12052300D02*
X5143500Y12052300D01*
X6667500Y12052300D02*
X7048500Y12052300D01*
X8877300Y12052300D02*
X9258300Y12052300D01*
X11366500Y12052300D02*
X11747500Y12052300D01*
X13550900Y12052300D02*
X13931900Y12052300D01*
X16040100Y12052300D02*
X16421100Y12052300D01*
X18224500Y12052300D02*
X18605500Y12052300D01*
X4381500Y11976100D02*
X5143500Y11976100D01*
X6667500Y11976100D02*
X7048500Y11976100D01*
X8877300Y11976100D02*
X9258300Y11976100D01*
X11366500Y11976100D02*
X11747500Y11976100D01*
X13550900Y11976100D02*
X13931900Y11976100D01*
X16040100Y11976100D02*
X16421100Y11976100D01*
X18224500Y11976100D02*
X18605500Y11976100D01*
X4381500Y11899900D02*
X5143500Y11899900D01*
X6667500Y11899900D02*
X7048500Y11899900D01*
X8877300Y11899900D02*
X9258300Y11899900D01*
X11366500Y11899900D02*
X11747500Y11899900D01*
X13550900Y11899900D02*
X13931900Y11899900D01*
X16040100Y11899900D02*
X16421100Y11899900D01*
X18224500Y11899900D02*
X18605500Y11899900D01*
X4381500Y11823700D02*
X5143500Y11823700D01*
X6667500Y11823700D02*
X7048500Y11823700D01*
X8877300Y11823700D02*
X9258300Y11823700D01*
X11366500Y11823700D02*
X11747500Y11823700D01*
X13550900Y11823700D02*
X13931900Y11823700D01*
X16040100Y11823700D02*
X16421100Y11823700D01*
X18224500Y11823700D02*
X18605500Y11823700D01*
X4381500Y11747500D02*
X5143500Y11747500D01*
X6667500Y11747500D02*
X7048500Y11747500D01*
X8877300Y11747500D02*
X9258300Y11747500D01*
X11366500Y11747500D02*
X11747500Y11747500D01*
X13550900Y11747500D02*
X13931900Y11747500D01*
X16040100Y11747500D02*
X16421100Y11747500D01*
X18224500Y11747500D02*
X18605500Y11747500D01*
X4381500Y11671300D02*
X5143500Y11671300D01*
X6667500Y11671300D02*
X7048500Y11671300D01*
X8877300Y11671300D02*
X9258300Y11671300D01*
X11366500Y11671300D02*
X11747500Y11671300D01*
X13550900Y11671300D02*
X13931900Y11671300D01*
X16040100Y11671300D02*
X16421100Y11671300D01*
X18224500Y11671300D02*
X18605500Y11671300D01*
X4381500Y11595100D02*
X5143500Y11595100D01*
X6667500Y11595100D02*
X7048500Y11595100D01*
X8877300Y11595100D02*
X9258300Y11595100D01*
X11366500Y11595100D02*
X11747500Y11595100D01*
X13550900Y11595100D02*
X13931900Y11595100D01*
X16040100Y11595100D02*
X16421100Y11595100D01*
X18224500Y11595100D02*
X18605500Y11595100D01*
X4381500Y11518900D02*
X5143500Y11518900D01*
X6667500Y11518900D02*
X7048500Y11518900D01*
X8877300Y11518900D02*
X9258300Y11518900D01*
X11366500Y11518900D02*
X11747500Y11518900D01*
X13550900Y11518900D02*
X13931900Y11518900D01*
X16040100Y11518900D02*
X16421100Y11518900D01*
X18224500Y11518900D02*
X18605500Y11518900D01*
X4381500Y11442700D02*
X5143500Y11442700D01*
X6667500Y11442700D02*
X7048500Y11442700D01*
X8877300Y11442700D02*
X9258300Y11442700D01*
X11366500Y11442700D02*
X11747500Y11442700D01*
X13550900Y11442700D02*
X13931900Y11442700D01*
X16040100Y11442700D02*
X16421100Y11442700D01*
X18224500Y11442700D02*
X18605500Y11442700D01*
X4381500Y11366500D02*
X5143500Y11366500D01*
X6667500Y11366500D02*
X7048500Y11366500D01*
X8877300Y11366500D02*
X9258300Y11366500D01*
X11366500Y11366500D02*
X11747500Y11366500D01*
X13550900Y11366500D02*
X13931900Y11366500D01*
X16040100Y11366500D02*
X16421100Y11366500D01*
X18224500Y11366500D02*
X18605500Y11366500D01*
X4381500Y11290300D02*
X5143500Y11290300D01*
X6667500Y11290300D02*
X7048500Y11290300D01*
X8877300Y11290300D02*
X9258300Y11290300D01*
X11366500Y11290300D02*
X11747500Y11290300D01*
X13550900Y11290300D02*
X13931900Y11290300D01*
X16040100Y11290300D02*
X16421100Y11290300D01*
X18224500Y11290300D02*
X18605500Y11290300D01*
X4381500Y11214100D02*
X5143500Y11214100D01*
X6667500Y11214100D02*
X7048500Y11214100D01*
X8877300Y11214100D02*
X9258300Y11214100D01*
X11366500Y11214100D02*
X11747500Y11214100D01*
X13550900Y11214100D02*
X13931900Y11214100D01*
X16040100Y11214100D02*
X16421100Y11214100D01*
X18224500Y11214100D02*
X18605500Y11214100D01*
X4381500Y11137900D02*
X5143500Y11137900D01*
X6667500Y11137900D02*
X7048500Y11137900D01*
X8877300Y11137900D02*
X9258300Y11137900D01*
X11366500Y11137900D02*
X11747500Y11137900D01*
X13550900Y11137900D02*
X13931900Y11137900D01*
X16040100Y11137900D02*
X16421100Y11137900D01*
X18224500Y11137900D02*
X18605500Y11137900D01*
X4381500Y11061700D02*
X5143500Y11061700D01*
X6667500Y11061700D02*
X7048500Y11061700D01*
X8877300Y11061700D02*
X9258300Y11061700D01*
X11366500Y11061700D02*
X11747500Y11061700D01*
X13550900Y11061700D02*
X13931900Y11061700D01*
X16040100Y11061700D02*
X16421100Y11061700D01*
X18224500Y11061700D02*
X18605500Y11061700D01*
X4381500Y10985500D02*
X5143500Y10985500D01*
X6667500Y10985500D02*
X7048500Y10985500D01*
X8877300Y10985500D02*
X9258300Y10985500D01*
X11366500Y10985500D02*
X11747500Y10985500D01*
X13550900Y10985500D02*
X13931900Y10985500D01*
X16040100Y10985500D02*
X16421100Y10985500D01*
X18224500Y10985500D02*
X18605500Y10985500D01*
X4381500Y10909300D02*
X5143500Y10909300D01*
X6667500Y10909300D02*
X7048500Y10909300D01*
X8877300Y10909300D02*
X9258300Y10909300D01*
X11366500Y10909300D02*
X11747500Y10909300D01*
X13550900Y10909300D02*
X13931900Y10909300D01*
X16040100Y10909300D02*
X16421100Y10909300D01*
X18224500Y10909300D02*
X18605500Y10909300D01*
X4381500Y10833100D02*
X5143500Y10833100D01*
X6667500Y10833100D02*
X7048500Y10833100D01*
X8877300Y10833100D02*
X9258300Y10833100D01*
X11366500Y10833100D02*
X11747500Y10833100D01*
X13550900Y10833100D02*
X13931900Y10833100D01*
X16040100Y10833100D02*
X16421100Y10833100D01*
X18224500Y10833100D02*
X18605500Y10833100D01*
X4381500Y10756900D02*
X5143500Y10756900D01*
X6667500Y10756900D02*
X7048500Y10756900D01*
X8877300Y10756900D02*
X9258300Y10756900D01*
X11366500Y10756900D02*
X11747500Y10756900D01*
X13550900Y10756900D02*
X13931900Y10756900D01*
X16040100Y10756900D02*
X16421100Y10756900D01*
X18224500Y10756900D02*
X18605500Y10756900D01*
X4381500Y10680700D02*
X5143500Y10680700D01*
X6667500Y10680700D02*
X7048500Y10680700D01*
X8877300Y10680700D02*
X9258300Y10680700D01*
X11366500Y10680700D02*
X11747500Y10680700D01*
X13550900Y10680700D02*
X13931900Y10680700D01*
X16040100Y10680700D02*
X16421100Y10680700D01*
X18224500Y10680700D02*
X18605500Y10680700D01*
X4381500Y10604500D02*
X5143500Y10604500D01*
X6667500Y10604500D02*
X7048500Y10604500D01*
X8877300Y10604500D02*
X9258300Y10604500D01*
X11366500Y10604500D02*
X11747500Y10604500D01*
X13550900Y10604500D02*
X13931900Y10604500D01*
X16040100Y10604500D02*
X16421100Y10604500D01*
X18224500Y10604500D02*
X18605500Y10604500D01*
X4381500Y10528300D02*
X5143500Y10528300D01*
X6667500Y10528300D02*
X7048500Y10528300D01*
X8877300Y10528300D02*
X9258300Y10528300D01*
X11366500Y10528300D02*
X11747500Y10528300D01*
X13550900Y10528300D02*
X13931900Y10528300D01*
X16040100Y10528300D02*
X16421100Y10528300D01*
X18224500Y10528300D02*
X18605500Y10528300D01*
X4381500Y10452100D02*
X5143500Y10452100D01*
X6667500Y10452100D02*
X7048500Y10452100D01*
X8877300Y10452100D02*
X9258300Y10452100D01*
X11366500Y10452100D02*
X11747500Y10452100D01*
X13550900Y10452100D02*
X13931900Y10452100D01*
X16040100Y10452100D02*
X16421100Y10452100D01*
X18224500Y10452100D02*
X18605500Y10452100D01*
X4381500Y10375900D02*
X5143500Y10375900D01*
X6667500Y10375900D02*
X7048500Y10375900D01*
X8877300Y10375900D02*
X9258300Y10375900D01*
X11366500Y10375900D02*
X11747500Y10375900D01*
X13550900Y10375900D02*
X13931900Y10375900D01*
X16040100Y10375900D02*
X16421100Y10375900D01*
X18224500Y10375900D02*
X18605500Y10375900D01*
X4381500Y10299700D02*
X5143500Y10299700D01*
X6667500Y10299700D02*
X7048500Y10299700D01*
X8877300Y10299700D02*
X9258300Y10299700D01*
X11366500Y10299700D02*
X11747500Y10299700D01*
X13550900Y10299700D02*
X13931900Y10299700D01*
X16040100Y10299700D02*
X16421100Y10299700D01*
X18224500Y10299700D02*
X18605500Y10299700D01*
X4381500Y10223500D02*
X5143500Y10223500D01*
X6667500Y10223500D02*
X7048500Y10223500D01*
X8877300Y10223500D02*
X9258300Y10223500D01*
X11366500Y10223500D02*
X11747500Y10223500D01*
X13550900Y10223500D02*
X13931900Y10223500D01*
X16040100Y10223500D02*
X16421100Y10223500D01*
X18224500Y10223500D02*
X18605500Y10223500D01*
X4381500Y10147300D02*
X5143500Y10147300D01*
X6667500Y10147300D02*
X7048500Y10147300D01*
X8877300Y10147300D02*
X9258300Y10147300D01*
X11366500Y10147300D02*
X11747500Y10147300D01*
X13550900Y10147300D02*
X13931900Y10147300D01*
X16040100Y10147300D02*
X16421100Y10147300D01*
X18224500Y10147300D02*
X18605500Y10147300D01*
X4381500Y10071100D02*
X5143500Y10071100D01*
X6667500Y10071100D02*
X7048500Y10071100D01*
X8877300Y10071100D02*
X9260871Y10071100D01*
X11364110Y10071100D02*
X11747500Y10071100D01*
X13550900Y10071100D02*
X13934471Y10071100D01*
X16037710Y10071100D02*
X16421100Y10071100D01*
X18224500Y10071100D02*
X18605500Y10071100D01*
X4381500Y9994900D02*
X5143500Y9994900D01*
X6667500Y9994900D02*
X7048500Y9994900D01*
X8877300Y9994900D02*
X11747500Y9994900D01*
X13550900Y9994900D02*
X16421100Y9994900D01*
X18224500Y9994900D02*
X18605500Y9994900D01*
X4381500Y9918700D02*
X5143500Y9918700D01*
X6667500Y9918700D02*
X7048500Y9918700D01*
X8877300Y9918700D02*
X11747500Y9918700D01*
X13550900Y9918700D02*
X16421100Y9918700D01*
X18224500Y9918700D02*
X18605500Y9918700D01*
X4381500Y9842500D02*
X5143500Y9842500D01*
X6667500Y9842500D02*
X7048500Y9842500D01*
X8877300Y9842500D02*
X11747500Y9842500D01*
X13550900Y9842500D02*
X16421100Y9842500D01*
X18224500Y9842500D02*
X18605500Y9842500D01*
X4381500Y9766300D02*
X5143500Y9766300D01*
X6667500Y9766300D02*
X7048500Y9766300D01*
X8877300Y9766300D02*
X11747500Y9766300D01*
X13550900Y9766300D02*
X16421100Y9766300D01*
X18224500Y9766300D02*
X18605500Y9766300D01*
X4381500Y9690100D02*
X5143500Y9690100D01*
X6667500Y9690100D02*
X7048500Y9690100D01*
X8877300Y9690100D02*
X11747500Y9690100D01*
X13550900Y9690100D02*
X16421100Y9690100D01*
X18224500Y9690100D02*
X18605500Y9690100D01*
X4381500Y9613900D02*
X5143500Y9613900D01*
X6667500Y9613900D02*
X7048500Y9613900D01*
X18224500Y9613900D02*
X18605500Y9613900D01*
X4381500Y9537700D02*
X5143500Y9537700D01*
X6667500Y9537700D02*
X7048500Y9537700D01*
X18224500Y9537700D02*
X18605500Y9537700D01*
X4381500Y9461500D02*
X5143500Y9461500D01*
X6667500Y9461500D02*
X7048500Y9461500D01*
X18224500Y9461500D02*
X18605500Y9461500D01*
X4381500Y9385300D02*
X5143500Y9385300D01*
X6667500Y9385300D02*
X7048500Y9385300D01*
X18224500Y9385300D02*
X18605500Y9385300D01*
X4381500Y9309100D02*
X5143500Y9309100D01*
X6667500Y9309100D02*
X7048500Y9309100D01*
X18224500Y9309100D02*
X18605500Y9309100D01*
X4381500Y9232900D02*
X5143500Y9232900D01*
X6667500Y9232900D02*
X7048500Y9232900D01*
X18224500Y9232900D02*
X18605500Y9232900D01*
X4381500Y9156700D02*
X5143500Y9156700D01*
X6667500Y9156700D02*
X7048500Y9156700D01*
X18224500Y9156700D02*
X18605500Y9156700D01*
X4381500Y9080500D02*
X5143500Y9080500D01*
X6667500Y9080500D02*
X7048500Y9080500D01*
X18224500Y9080500D02*
X18605500Y9080500D01*
X4381500Y9004300D02*
X5143500Y9004300D01*
X6667500Y9004300D02*
X7048500Y9004300D01*
X18224500Y9004300D02*
X18605500Y9004300D01*
X4381500Y8928100D02*
X5143500Y8928100D01*
X6667500Y8928100D02*
X7048500Y8928100D01*
X18224500Y8928100D02*
X18605500Y8928100D01*
X4381500Y8851900D02*
X5143500Y8851900D01*
X6667500Y8851900D02*
X7048500Y8851900D01*
X4381500Y8775700D02*
X5143500Y8775700D01*
X6667500Y8775700D02*
X7048500Y8775700D01*
X4381500Y8699500D02*
X5143500Y8699500D01*
X6667500Y8699500D02*
X7048500Y8699500D01*
X4381500Y8623300D02*
X5143500Y8623300D01*
X6667500Y8623300D02*
X7048500Y8623300D01*
X4381500Y8547100D02*
X5143500Y8547100D01*
X6667500Y8547100D02*
X7048500Y8547100D01*
X4381500Y8470900D02*
X5143500Y8470900D01*
X6667500Y8470900D02*
X7048500Y8470900D01*
X4381500Y8394700D02*
X5143500Y8394700D01*
X6667500Y8394700D02*
X7048500Y8394700D01*
X4381500Y8318500D02*
X5143500Y8318500D01*
X6667500Y8318500D02*
X7048500Y8318500D01*
X4381500Y8242300D02*
X5143500Y8242300D01*
X6667500Y8242300D02*
X7048500Y8242300D01*
X4381500Y8166100D02*
X5143500Y8166100D01*
X6667500Y8166100D02*
X7048500Y8166100D01*
X4381500Y8089900D02*
X5143500Y8089900D01*
X6667500Y8089900D02*
X7048500Y8089900D01*
X4381500Y8013700D02*
X5143500Y8013700D01*
X6667500Y8013700D02*
X7048500Y8013700D01*
X4381500Y7937500D02*
X5143500Y7937500D01*
X6667500Y7937500D02*
X7048500Y7937500D01*
X4381500Y7861300D02*
X5143500Y7861300D01*
X6667500Y7861300D02*
X7048500Y7861300D01*
X4381500Y7785100D02*
X5143500Y7785100D01*
X6667500Y7785100D02*
X7048500Y7785100D01*
X63500Y7708900D02*
X4127500Y7708900D01*
X4381500Y7708900D02*
X5143500Y7708900D01*
X6667500Y7708900D02*
X7048500Y7708900D01*
X8318500Y7708900D02*
X18910300Y7708900D01*
X63500Y7632700D02*
X4127500Y7632700D01*
X4381500Y7632700D02*
X5143500Y7632700D01*
X6667500Y7632700D02*
X7048500Y7632700D01*
X8318500Y7632700D02*
X18910300Y7632700D01*
X63500Y7556500D02*
X4127500Y7556500D01*
X4381500Y7556500D02*
X5143500Y7556500D01*
X6667500Y7556500D02*
X7048500Y7556500D01*
X8318500Y7556500D02*
X18910300Y7556500D01*
X63500Y7480300D02*
X4127500Y7480300D01*
X4381500Y7480300D02*
X5143500Y7480300D01*
X6667500Y7480300D02*
X7048500Y7480300D01*
X8318500Y7480300D02*
X18910300Y7480300D01*
X63500Y7404100D02*
X4127500Y7404100D01*
X4381500Y7404100D02*
X5143500Y7404100D01*
X6667500Y7404100D02*
X7048500Y7404100D01*
X8318500Y7404100D02*
X18910300Y7404100D01*
X63500Y7327900D02*
X4127500Y7327900D01*
X4747229Y7327900D02*
X4777590Y7327900D01*
X6667500Y7327900D02*
X7048500Y7327900D01*
X8318500Y7327900D02*
X18910300Y7327900D01*
X63500Y7251700D02*
X4127500Y7251700D01*
X4749800Y7251700D02*
X4775200Y7251700D01*
X5778500Y7251700D02*
X7937500Y7251700D01*
X8318500Y7251700D02*
X18910300Y7251700D01*
X63500Y7175500D02*
X4130071Y7175500D01*
X4747410Y7175500D02*
X4777771Y7175500D01*
X5395110Y7175500D02*
X5397500Y7175500D01*
X5778500Y7175500D02*
X7937500Y7175500D01*
X8318500Y7175500D02*
X18910300Y7175500D01*
X63500Y7099300D02*
X5397500Y7099300D01*
X5778500Y7099300D02*
X7937500Y7099300D01*
X8318500Y7099300D02*
X18910300Y7099300D01*
X63500Y7023100D02*
X5397500Y7023100D01*
X5778500Y7023100D02*
X7937500Y7023100D01*
X8318500Y7023100D02*
X18910300Y7023100D01*
X63500Y6946900D02*
X5397500Y6946900D01*
X5778500Y6946900D02*
X7937500Y6946900D01*
X8318500Y6946900D02*
X18910300Y6946900D01*
X63500Y6870700D02*
X5397500Y6870700D01*
X5778500Y6870700D02*
X7937500Y6870700D01*
X8318500Y6870700D02*
X18910300Y6870700D01*
X63500Y6794500D02*
X5397500Y6794500D01*
X5778500Y6794500D02*
X7937500Y6794500D01*
X8318500Y6794500D02*
X18910300Y6794500D01*
X63500Y6718300D02*
X5397500Y6718300D01*
X5778500Y6718300D02*
X7937500Y6718300D01*
X8318500Y6718300D02*
X18910300Y6718300D01*
X63500Y6642100D02*
X5397500Y6642100D01*
X5778500Y6642100D02*
X7937500Y6642100D01*
X8318500Y6642100D02*
X18910300Y6642100D01*
X63500Y6565900D02*
X5397500Y6565900D01*
X5778500Y6565900D02*
X7937500Y6565900D01*
X8318500Y6565900D02*
X18910300Y6565900D01*
X63500Y6489700D02*
X5397500Y6489700D01*
X5778500Y6489700D02*
X7937500Y6489700D01*
X8318500Y6489700D02*
X18910300Y6489700D01*
X63500Y6413500D02*
X5397500Y6413500D01*
X5778500Y6413500D02*
X7937500Y6413500D01*
X8318500Y6413500D02*
X18910300Y6413500D01*
X63500Y6337300D02*
X5397500Y6337300D01*
X5778500Y6337300D02*
X7937500Y6337300D01*
X8318500Y6337300D02*
X18910300Y6337300D01*
X63500Y6261100D02*
X5397500Y6261100D01*
X5778500Y6261100D02*
X7937500Y6261100D01*
X8318500Y6261100D02*
X18910300Y6261100D01*
X63500Y6184900D02*
X5397500Y6184900D01*
X5778500Y6184900D02*
X7937500Y6184900D01*
X8318500Y6184900D02*
X18910300Y6184900D01*
X63500Y6108700D02*
X5397500Y6108700D01*
X5778500Y6108700D02*
X7937500Y6108700D01*
X8318500Y6108700D02*
X18910300Y6108700D01*
X63500Y6032500D02*
X5397500Y6032500D01*
X5778500Y6032500D02*
X7937500Y6032500D01*
X8318500Y6032500D02*
X18910300Y6032500D01*
X63500Y5956300D02*
X5397500Y5956300D01*
X5778500Y5956300D02*
X7937500Y5956300D01*
X8318500Y5956300D02*
X18910300Y5956300D01*
X63500Y5880100D02*
X5397500Y5880100D01*
X5778500Y5880100D02*
X7937500Y5880100D01*
X8318500Y5880100D02*
X18910300Y5880100D01*
X63500Y5803900D02*
X5397500Y5803900D01*
X5778500Y5803900D02*
X7937500Y5803900D01*
X8318500Y5803900D02*
X18910300Y5803900D01*
X63500Y5727700D02*
X5397500Y5727700D01*
X5778500Y5727700D02*
X7937500Y5727700D01*
X8318500Y5727700D02*
X18910300Y5727700D01*
X63500Y5651500D02*
X5397500Y5651500D01*
X5778500Y5651500D02*
X7937500Y5651500D01*
X8318500Y5651500D02*
X18910300Y5651500D01*
X63500Y5575300D02*
X5397500Y5575300D01*
X5778500Y5575300D02*
X7937500Y5575300D01*
X8318500Y5575300D02*
X18910300Y5575300D01*
X63500Y5499100D02*
X5397500Y5499100D01*
X5778500Y5499100D02*
X7937500Y5499100D01*
X8318500Y5499100D02*
X18910300Y5499100D01*
X63500Y5422900D02*
X5397500Y5422900D01*
X5778500Y5422900D02*
X7937500Y5422900D01*
X8318500Y5422900D02*
X18910300Y5422900D01*
X63500Y5346700D02*
X5397500Y5346700D01*
X5778500Y5346700D02*
X7937500Y5346700D01*
X8318500Y5346700D02*
X18910300Y5346700D01*
X63500Y5270500D02*
X5397500Y5270500D01*
X5778500Y5270500D02*
X7937500Y5270500D01*
X8318500Y5270500D02*
X18910300Y5270500D01*
X63500Y5194300D02*
X5397500Y5194300D01*
X5778500Y5194300D02*
X7937500Y5194300D01*
X8318500Y5194300D02*
X18910300Y5194300D01*
X63500Y5118100D02*
X5397500Y5118100D01*
X5778500Y5118100D02*
X7937500Y5118100D01*
X8318500Y5118100D02*
X18910300Y5118100D01*
X63500Y5041900D02*
X5397500Y5041900D01*
X5778500Y5041900D02*
X7937500Y5041900D01*
X8318500Y5041900D02*
X18910300Y5041900D01*
X63500Y4965700D02*
X5397500Y4965700D01*
X5778500Y4965700D02*
X7937500Y4965700D01*
X8318500Y4965700D02*
X18910300Y4965700D01*
X63500Y4889500D02*
X5397500Y4889500D01*
X5778500Y4889500D02*
X7937500Y4889500D01*
X8318500Y4889500D02*
X18910300Y4889500D01*
X63500Y4813300D02*
X5397500Y4813300D01*
X5778500Y4813300D02*
X7937500Y4813300D01*
X8318500Y4813300D02*
X18910300Y4813300D01*
X63500Y4737100D02*
X5397500Y4737100D01*
X5778500Y4737100D02*
X7937500Y4737100D01*
X8318500Y4737100D02*
X18910300Y4737100D01*
X63500Y4660900D02*
X5397500Y4660900D01*
X5778500Y4660900D02*
X7937500Y4660900D01*
X8318500Y4660900D02*
X18910300Y4660900D01*
X63500Y4584700D02*
X5397500Y4584700D01*
X5778500Y4584700D02*
X7937500Y4584700D01*
X8318500Y4584700D02*
X18910300Y4584700D01*
X63500Y4508500D02*
X5397500Y4508500D01*
X5778500Y4508500D02*
X7937500Y4508500D01*
X8318500Y4508500D02*
X18910300Y4508500D01*
X63500Y4432300D02*
X5397500Y4432300D01*
X5778500Y4432300D02*
X7937500Y4432300D01*
X8318500Y4432300D02*
X18910300Y4432300D01*
X63500Y4356100D02*
X5397500Y4356100D01*
X5778500Y4356100D02*
X7937500Y4356100D01*
X8318500Y4356100D02*
X18910300Y4356100D01*
X63500Y4279900D02*
X5397500Y4279900D01*
X5778500Y4279900D02*
X7937500Y4279900D01*
X8318500Y4279900D02*
X18910300Y4279900D01*
X63500Y4203700D02*
X5397500Y4203700D01*
X5778500Y4203700D02*
X7937500Y4203700D01*
X8318500Y4203700D02*
X18910300Y4203700D01*
X63500Y4127500D02*
X5397500Y4127500D01*
X5778500Y4127500D02*
X7937500Y4127500D01*
X8318500Y4127500D02*
X18910300Y4127500D01*
X63500Y4051300D02*
X5397500Y4051300D01*
X5778500Y4051300D02*
X7937500Y4051300D01*
X8318500Y4051300D02*
X18910300Y4051300D01*
X63500Y3975100D02*
X5397500Y3975100D01*
X5778500Y3975100D02*
X7937500Y3975100D01*
X8318500Y3975100D02*
X18910300Y3975100D01*
X63500Y3898900D02*
X5397500Y3898900D01*
X5778500Y3898900D02*
X7937500Y3898900D01*
X8318500Y3898900D02*
X18910300Y3898900D01*
X63500Y3822700D02*
X5397500Y3822700D01*
X5778500Y3822700D02*
X7937500Y3822700D01*
X8318500Y3822700D02*
X18910300Y3822700D01*
X63500Y3746500D02*
X5397500Y3746500D01*
X5778500Y3746500D02*
X7937500Y3746500D01*
X8318500Y3746500D02*
X18910300Y3746500D01*
X63500Y3670300D02*
X5397500Y3670300D01*
X5778500Y3670300D02*
X7937500Y3670300D01*
X8318500Y3670300D02*
X18910300Y3670300D01*
X63500Y3594100D02*
X5397500Y3594100D01*
X5778500Y3594100D02*
X7937500Y3594100D01*
X8318500Y3594100D02*
X18910300Y3594100D01*
X63500Y3517900D02*
X5397500Y3517900D01*
X5778500Y3517900D02*
X7937500Y3517900D01*
X8318500Y3517900D02*
X18910300Y3517900D01*
X63500Y3441700D02*
X5397500Y3441700D01*
X5778500Y3441700D02*
X7937500Y3441700D01*
X8318500Y3441700D02*
X18910300Y3441700D01*
X63500Y3365500D02*
X5397500Y3365500D01*
X5778500Y3365500D02*
X7937500Y3365500D01*
X8318500Y3365500D02*
X18910300Y3365500D01*
X63500Y3289300D02*
X5397500Y3289300D01*
X5778500Y3289300D02*
X7937500Y3289300D01*
X8318500Y3289300D02*
X18910300Y3289300D01*
X63500Y3213100D02*
X5397500Y3213100D01*
X5778500Y3213100D02*
X7937500Y3213100D01*
X8318500Y3213100D02*
X18910300Y3213100D01*
X63500Y3136900D02*
X5397500Y3136900D01*
X5778500Y3136900D02*
X7937500Y3136900D01*
X8318500Y3136900D02*
X18910300Y3136900D01*
X63500Y3060700D02*
X5397500Y3060700D01*
X5778500Y3060700D02*
X7937500Y3060700D01*
X8318500Y3060700D02*
X18910300Y3060700D01*
X63500Y2984500D02*
X5397500Y2984500D01*
X5778500Y2984500D02*
X7937500Y2984500D01*
X8318500Y2984500D02*
X18910300Y2984500D01*
X63500Y2908300D02*
X5397500Y2908300D01*
X5778500Y2908300D02*
X7937500Y2908300D01*
X8318500Y2908300D02*
X18910300Y2908300D01*
X63500Y2832100D02*
X5397500Y2832100D01*
X5778500Y2832100D02*
X7937500Y2832100D01*
X8318500Y2832100D02*
X18910300Y2832100D01*
X63500Y2755900D02*
X5397500Y2755900D01*
X5778500Y2755900D02*
X7937500Y2755900D01*
X8318500Y2755900D02*
X18910300Y2755900D01*
X63500Y2679700D02*
X5397500Y2679700D01*
X5778500Y2679700D02*
X7937500Y2679700D01*
X8318500Y2679700D02*
X18910300Y2679700D01*
X63500Y2603500D02*
X5397500Y2603500D01*
X5778500Y2603500D02*
X7937500Y2603500D01*
X8318500Y2603500D02*
X18910300Y2603500D01*
X63500Y2527300D02*
X5397500Y2527300D01*
X5778500Y2527300D02*
X7937500Y2527300D01*
X8318500Y2527300D02*
X18910300Y2527300D01*
X63500Y2451100D02*
X5397500Y2451100D01*
X5778500Y2451100D02*
X7937500Y2451100D01*
X8318500Y2451100D02*
X18910300Y2451100D01*
X63500Y2374900D02*
X5397500Y2374900D01*
X5778500Y2374900D02*
X7937500Y2374900D01*
X8318500Y2374900D02*
X18910300Y2374900D01*
X63500Y2298700D02*
X5397500Y2298700D01*
X5778500Y2298700D02*
X7937500Y2298700D01*
X8318500Y2298700D02*
X18910300Y2298700D01*
X63500Y2222500D02*
X5397500Y2222500D01*
X5778500Y2222500D02*
X7937500Y2222500D01*
X8318500Y2222500D02*
X18910300Y2222500D01*
X63500Y2146300D02*
X5397500Y2146300D01*
X5778500Y2146300D02*
X7937500Y2146300D01*
X8318500Y2146300D02*
X18910300Y2146300D01*
X63500Y2070100D02*
X5397500Y2070100D01*
X5778500Y2070100D02*
X7937500Y2070100D01*
X8318500Y2070100D02*
X18910300Y2070100D01*
X63500Y1993900D02*
X5397500Y1993900D01*
X5778500Y1993900D02*
X7937500Y1993900D01*
X8318500Y1993900D02*
X18910300Y1993900D01*
X63500Y1917700D02*
X5397500Y1917700D01*
X5778500Y1917700D02*
X7937500Y1917700D01*
X8318500Y1917700D02*
X18910300Y1917700D01*
X63500Y1841500D02*
X5397500Y1841500D01*
X5778500Y1841500D02*
X7937500Y1841500D01*
X8318500Y1841500D02*
X18910300Y1841500D01*
X63500Y1765300D02*
X5397500Y1765300D01*
X5778500Y1765300D02*
X7937500Y1765300D01*
X8318500Y1765300D02*
X18910300Y1765300D01*
X63500Y1689100D02*
X5397500Y1689100D01*
X5778500Y1689100D02*
X7937500Y1689100D01*
X8318500Y1689100D02*
X18910300Y1689100D01*
X63500Y1612900D02*
X5397500Y1612900D01*
X5778500Y1612900D02*
X7937500Y1612900D01*
X8318500Y1612900D02*
X18910300Y1612900D01*
X63500Y1536700D02*
X5397500Y1536700D01*
X5778500Y1536700D02*
X7937500Y1536700D01*
X8318500Y1536700D02*
X18910300Y1536700D01*
X63500Y1460500D02*
X5397500Y1460500D01*
X5778500Y1460500D02*
X7937500Y1460500D01*
X8318500Y1460500D02*
X18910300Y1460500D01*
X63500Y1384300D02*
X5397500Y1384300D01*
X5778500Y1384300D02*
X7937500Y1384300D01*
X8318500Y1384300D02*
X18910300Y1384300D01*
X63500Y1308100D02*
X5397500Y1308100D01*
X5778500Y1308100D02*
X7937500Y1308100D01*
X8318500Y1308100D02*
X18910300Y1308100D01*
X63500Y1231900D02*
X5397500Y1231900D01*
X5778500Y1231900D02*
X7937500Y1231900D01*
X8318500Y1231900D02*
X18910300Y1231900D01*
X63500Y1155700D02*
X5397500Y1155700D01*
X5778500Y1155700D02*
X7937500Y1155700D01*
X8318500Y1155700D02*
X18910300Y1155700D01*
X63500Y1079500D02*
X5397500Y1079500D01*
X5778500Y1079500D02*
X7937500Y1079500D01*
X8318500Y1079500D02*
X18910300Y1079500D01*
X63500Y1003300D02*
X5397500Y1003300D01*
X5778500Y1003300D02*
X7937500Y1003300D01*
X8318500Y1003300D02*
X18910300Y1003300D01*
X63500Y927100D02*
X5397500Y927100D01*
X5778500Y927100D02*
X7937500Y927100D01*
X8318500Y927100D02*
X18910300Y927100D01*
X63500Y850900D02*
X5397500Y850900D01*
X5778500Y850900D02*
X7937500Y850900D01*
X8318500Y850900D02*
X18910300Y850900D01*
X63500Y774700D02*
X5397500Y774700D01*
X5778500Y774700D02*
X7937500Y774700D01*
X8318500Y774700D02*
X18910300Y774700D01*
X63500Y698500D02*
X5397500Y698500D01*
X5778500Y698500D02*
X7937500Y698500D01*
X8318500Y698500D02*
X18910300Y698500D01*
X63500Y622300D02*
X5397500Y622300D01*
X5778500Y622300D02*
X7937500Y622300D01*
X8318500Y622300D02*
X18910300Y622300D01*
X63500Y546100D02*
X5397500Y546100D01*
X8318500Y546100D02*
X18910300Y546100D01*
X63500Y469900D02*
X5397500Y469900D01*
X8318500Y469900D02*
X18910300Y469900D01*
X63500Y393700D02*
X5397500Y393700D01*
X8318500Y393700D02*
X18910300Y393700D01*
X63500Y317500D02*
X5397500Y317500D01*
X8318500Y317500D02*
X18910300Y317500D01*
X63500Y241300D02*
X5400071Y241300D01*
X8316110Y241300D02*
X18910300Y241300D01*
X63500Y165100D02*
X18910300Y165100D01*
X63500Y88900D02*
X18910300Y88900D01*
X9258300Y10083800D02*
X9263303Y10059095D01*
X9277523Y10038283D01*
X9298720Y10024643D01*
X9321800Y10020300D01*
X11303000Y10020300D01*
X11327705Y10025303D01*
X11348517Y10039523D01*
X11362157Y10060720D01*
X11366500Y10083800D01*
X11366500Y12661900D01*
X13931900Y12661900D01*
X13931900Y10083800D01*
X13936903Y10059095D01*
X13951123Y10038283D01*
X13972320Y10024643D01*
X13995400Y10020300D01*
X15976600Y10020300D01*
X16001305Y10025303D01*
X16022117Y10039523D01*
X16035757Y10060720D01*
X16040100Y10083800D01*
X16040100Y12661900D01*
X18605500Y12661900D01*
X18605500Y8851900D01*
X18224500Y8851900D01*
X18224500Y12217400D01*
X18219497Y12242105D01*
X18205277Y12262917D01*
X18184080Y12276557D01*
X18161000Y12280900D01*
X16484600Y12280900D01*
X16459895Y12275897D01*
X16439083Y12261677D01*
X16425443Y12240480D01*
X16421100Y12217400D01*
X16421100Y9639300D01*
X13550900Y9639300D01*
X13550900Y12217400D01*
X13545897Y12242105D01*
X13531677Y12262917D01*
X13510480Y12276557D01*
X13487400Y12280900D01*
X11811000Y12280900D01*
X11786295Y12275897D01*
X11765483Y12261677D01*
X11751843Y12240480D01*
X11747500Y12217400D01*
X11747500Y9639300D01*
X8877300Y9639300D01*
X8877300Y12217400D01*
X8872297Y12242105D01*
X8858077Y12262917D01*
X8836880Y12276557D01*
X8813800Y12280900D01*
X7112000Y12280900D01*
X7087295Y12275897D01*
X7066483Y12261677D01*
X7052843Y12240480D01*
X7048500Y12217400D01*
X7048500Y7315200D01*
X7053503Y7290495D01*
X7067723Y7269683D01*
X7088920Y7256043D01*
X7112000Y7251700D01*
X7937500Y7251700D01*
X7937500Y571500D01*
X5778500Y571500D01*
X5778500Y7251700D01*
X6604000Y7251700D01*
X6628705Y7256703D01*
X6649517Y7270923D01*
X6663157Y7292120D01*
X6667500Y7315200D01*
X6667500Y12217400D01*
X6662497Y12242105D01*
X6648277Y12262917D01*
X6627080Y12276557D01*
X6604000Y12280900D01*
X5207000Y12280900D01*
X5182295Y12275897D01*
X5161483Y12261677D01*
X5147843Y12240480D01*
X5143500Y12217400D01*
X5143500Y7378700D01*
X4838700Y7378700D01*
X4813995Y7373697D01*
X4793183Y7359477D01*
X4779543Y7338280D01*
X4775200Y7315200D01*
X4775200Y7188200D01*
X4780203Y7163495D01*
X4794423Y7142683D01*
X4815620Y7129043D01*
X4838700Y7124700D01*
X5334000Y7124700D01*
X5358705Y7129703D01*
X5379517Y7143923D01*
X5393157Y7165120D01*
X5397500Y7188200D01*
X5397500Y254000D01*
X5402503Y229295D01*
X5416723Y208483D01*
X5437920Y194843D01*
X5461000Y190500D01*
X8255000Y190500D01*
X8279705Y195503D01*
X8300517Y209723D01*
X8314157Y230920D01*
X8318500Y254000D01*
X8318500Y7759700D01*
X18910300Y7759700D01*
X18910300Y63500D01*
X63500Y63500D01*
X63500Y7759700D01*
X4127500Y7759700D01*
X4127500Y7188200D01*
X4132503Y7163495D01*
X4146723Y7142683D01*
X4167920Y7129043D01*
X4191000Y7124700D01*
X4686300Y7124700D01*
X4711005Y7129703D01*
X4731817Y7143923D01*
X4745457Y7165120D01*
X4749800Y7188200D01*
X4749800Y7315200D01*
X4744797Y7339905D01*
X4730577Y7360717D01*
X4709380Y7374357D01*
X4686300Y7378700D01*
X4381500Y7378700D01*
X4381500Y12661900D01*
X9258300Y12661900D01*
X9258300Y10083800D01*
M02*
