G04 #@! TF.FileFunction,Legend,Top*
%FSLAX46Y46*%
G04 Gerber Fmt 4.6, Leading zero omitted, Abs format (unit mm)*
G04 Created by KiCad (PCBNEW 4.0.5) date Thursday, March 09, 2017 'PMt' 04:41:46 PM*
%MOMM*%
%LPD*%
G01*
G04 APERTURE LIST*
%ADD10C,0.100000*%
%ADD11C,0.120000*%
%ADD12C,0.150000*%
G04 APERTURE END LIST*
D10*
D11*
X164595000Y-113160000D02*
X164595000Y-111610000D01*
X164595000Y-107820000D02*
X164595000Y-109370000D01*
X159255000Y-108580000D02*
X159255000Y-109370000D01*
X159255000Y-112400000D02*
X159255000Y-111610000D01*
X164595000Y-107820000D02*
X160015000Y-107820000D01*
X160015000Y-107820000D02*
X159255000Y-108580000D01*
X159255000Y-112400000D02*
X160015000Y-113160000D01*
X160015000Y-113160000D02*
X164595000Y-113160000D01*
X171165000Y-117440000D02*
X170465000Y-117440000D01*
X170465000Y-116240000D02*
X171165000Y-116240000D01*
X177380000Y-131945000D02*
X177380000Y-130945000D01*
X175680000Y-130945000D02*
X175680000Y-131945000D01*
X169760000Y-126865000D02*
X169760000Y-125865000D01*
X168060000Y-125865000D02*
X168060000Y-126865000D01*
X181480000Y-121280000D02*
X181480000Y-124170000D01*
X181480000Y-130180000D02*
X181480000Y-127290000D01*
X191900000Y-130940000D02*
X191900000Y-127290000D01*
X191900000Y-120520000D02*
X191900000Y-124170000D01*
X191900000Y-130940000D02*
X182240000Y-130940000D01*
X182240000Y-130940000D02*
X181480000Y-130180000D01*
X181480000Y-121280000D02*
X182240000Y-120520000D01*
X182240000Y-120520000D02*
X191900000Y-120520000D01*
X130055000Y-118110000D02*
X130055000Y-120770000D01*
X130055000Y-120770000D02*
X132835000Y-120770000D01*
X132835000Y-120770000D02*
X132835000Y-118110000D01*
X132835000Y-118110000D02*
X130055000Y-118110000D01*
X130055000Y-116840000D02*
X130055000Y-115450000D01*
X130055000Y-115450000D02*
X131445000Y-115450000D01*
X176537000Y-120904000D02*
X176537000Y-123564000D01*
X176537000Y-123564000D02*
X179317000Y-123564000D01*
X179317000Y-123564000D02*
X179317000Y-120904000D01*
X179317000Y-120904000D02*
X176537000Y-120904000D01*
X176537000Y-119634000D02*
X176537000Y-118244000D01*
X176537000Y-118244000D02*
X177927000Y-118244000D01*
X163950000Y-133350000D02*
X163950000Y-130690000D01*
X163950000Y-130690000D02*
X161170000Y-130690000D01*
X161170000Y-130690000D02*
X161170000Y-133350000D01*
X161170000Y-133350000D02*
X163950000Y-133350000D01*
X163950000Y-134620000D02*
X163950000Y-136010000D01*
X163950000Y-136010000D02*
X162560000Y-136010000D01*
X195460000Y-120650000D02*
X195460000Y-123310000D01*
X195460000Y-123310000D02*
X198240000Y-123310000D01*
X198240000Y-123310000D02*
X198240000Y-120650000D01*
X198240000Y-120650000D02*
X195460000Y-120650000D01*
X195460000Y-119380000D02*
X195460000Y-117990000D01*
X195460000Y-117990000D02*
X196850000Y-117990000D01*
X170215000Y-134375000D02*
X171415000Y-134375000D01*
X171415000Y-136135000D02*
X170215000Y-136135000D01*
X167040000Y-129930000D02*
X168240000Y-129930000D01*
X168240000Y-131690000D02*
X167040000Y-131690000D01*
X143093018Y-122737432D02*
G75*
G02X143092000Y-117213000I1171982J2762432D01*
G01*
X146193295Y-117677247D02*
G75*
G02X146193000Y-122273000I-1928295J-2297753D01*
G01*
X150825000Y-124936000D02*
X146959000Y-124936000D01*
X142570000Y-124936000D02*
X138705000Y-124936000D01*
X150825000Y-115015000D02*
X146959000Y-115015000D01*
X142570000Y-115015000D02*
X138705000Y-115015000D01*
X150825000Y-124936000D02*
X150825000Y-123300000D01*
X150825000Y-121650000D02*
X150825000Y-120800000D01*
X150825000Y-119150000D02*
X150825000Y-118300000D01*
X150825000Y-116650000D02*
X150825000Y-115015000D01*
X138705000Y-124936000D02*
X138705000Y-115015000D01*
X162925000Y-116085000D02*
G75*
G02X160925000Y-116085000I-1000000J0D01*
G01*
X160925000Y-116085000D02*
X159155000Y-116085000D01*
X159155000Y-116085000D02*
X159155000Y-126485000D01*
X159155000Y-126485000D02*
X164695000Y-126485000D01*
X164695000Y-126485000D02*
X164695000Y-116085000D01*
X164695000Y-116085000D02*
X162925000Y-116085000D01*
X173189000Y-121277000D02*
X173189000Y-120277000D01*
X171489000Y-120277000D02*
X171489000Y-121277000D01*
X169891000Y-120808000D02*
X169891000Y-121508000D01*
X168691000Y-121508000D02*
X168691000Y-120808000D01*
D12*
X161758334Y-114767143D02*
X161710715Y-114814762D01*
X161567858Y-114862381D01*
X161472620Y-114862381D01*
X161329762Y-114814762D01*
X161234524Y-114719524D01*
X161186905Y-114624286D01*
X161139286Y-114433810D01*
X161139286Y-114290952D01*
X161186905Y-114100476D01*
X161234524Y-114005238D01*
X161329762Y-113910000D01*
X161472620Y-113862381D01*
X161567858Y-113862381D01*
X161710715Y-113910000D01*
X161758334Y-113957619D01*
X162710715Y-114862381D02*
X162139286Y-114862381D01*
X162425000Y-114862381D02*
X162425000Y-113862381D01*
X162329762Y-114005238D01*
X162234524Y-114100476D01*
X162139286Y-114148095D01*
X158164048Y-112921429D02*
X158925953Y-112921429D01*
X158545001Y-113302381D02*
X158545001Y-112540476D01*
X170648334Y-118447143D02*
X170600715Y-118494762D01*
X170457858Y-118542381D01*
X170362620Y-118542381D01*
X170219762Y-118494762D01*
X170124524Y-118399524D01*
X170076905Y-118304286D01*
X170029286Y-118113810D01*
X170029286Y-117970952D01*
X170076905Y-117780476D01*
X170124524Y-117685238D01*
X170219762Y-117590000D01*
X170362620Y-117542381D01*
X170457858Y-117542381D01*
X170600715Y-117590000D01*
X170648334Y-117637619D01*
X171029286Y-117637619D02*
X171076905Y-117590000D01*
X171172143Y-117542381D01*
X171410239Y-117542381D01*
X171505477Y-117590000D01*
X171553096Y-117637619D01*
X171600715Y-117732857D01*
X171600715Y-117828095D01*
X171553096Y-117970952D01*
X170981667Y-118542381D01*
X171600715Y-118542381D01*
X178637143Y-131611666D02*
X178684762Y-131659285D01*
X178732381Y-131802142D01*
X178732381Y-131897380D01*
X178684762Y-132040238D01*
X178589524Y-132135476D01*
X178494286Y-132183095D01*
X178303810Y-132230714D01*
X178160952Y-132230714D01*
X177970476Y-132183095D01*
X177875238Y-132135476D01*
X177780000Y-132040238D01*
X177732381Y-131897380D01*
X177732381Y-131802142D01*
X177780000Y-131659285D01*
X177827619Y-131611666D01*
X177732381Y-131278333D02*
X177732381Y-130659285D01*
X178113333Y-130992619D01*
X178113333Y-130849761D01*
X178160952Y-130754523D01*
X178208571Y-130706904D01*
X178303810Y-130659285D01*
X178541905Y-130659285D01*
X178637143Y-130706904D01*
X178684762Y-130754523D01*
X178732381Y-130849761D01*
X178732381Y-131135476D01*
X178684762Y-131230714D01*
X178637143Y-131278333D01*
X171017143Y-126531666D02*
X171064762Y-126579285D01*
X171112381Y-126722142D01*
X171112381Y-126817380D01*
X171064762Y-126960238D01*
X170969524Y-127055476D01*
X170874286Y-127103095D01*
X170683810Y-127150714D01*
X170540952Y-127150714D01*
X170350476Y-127103095D01*
X170255238Y-127055476D01*
X170160000Y-126960238D01*
X170112381Y-126817380D01*
X170112381Y-126722142D01*
X170160000Y-126579285D01*
X170207619Y-126531666D01*
X170445714Y-125674523D02*
X171112381Y-125674523D01*
X170064762Y-125912619D02*
X170779048Y-126150714D01*
X170779048Y-125531666D01*
X186523334Y-132547143D02*
X186475715Y-132594762D01*
X186332858Y-132642381D01*
X186237620Y-132642381D01*
X186094762Y-132594762D01*
X185999524Y-132499524D01*
X185951905Y-132404286D01*
X185904286Y-132213810D01*
X185904286Y-132070952D01*
X185951905Y-131880476D01*
X185999524Y-131785238D01*
X186094762Y-131690000D01*
X186237620Y-131642381D01*
X186332858Y-131642381D01*
X186475715Y-131690000D01*
X186523334Y-131737619D01*
X187428096Y-131642381D02*
X186951905Y-131642381D01*
X186904286Y-132118571D01*
X186951905Y-132070952D01*
X187047143Y-132023333D01*
X187285239Y-132023333D01*
X187380477Y-132070952D01*
X187428096Y-132118571D01*
X187475715Y-132213810D01*
X187475715Y-132451905D01*
X187428096Y-132547143D01*
X187380477Y-132594762D01*
X187285239Y-132642381D01*
X187047143Y-132642381D01*
X186951905Y-132594762D01*
X186904286Y-132547143D01*
X180529048Y-130771429D02*
X181290953Y-130771429D01*
X180910001Y-131152381D02*
X180910001Y-130390476D01*
X131111667Y-113902381D02*
X131111667Y-114616667D01*
X131064047Y-114759524D01*
X130968809Y-114854762D01*
X130825952Y-114902381D01*
X130730714Y-114902381D01*
X132111667Y-114902381D02*
X131540238Y-114902381D01*
X131825952Y-114902381D02*
X131825952Y-113902381D01*
X131730714Y-114045238D01*
X131635476Y-114140476D01*
X131540238Y-114188095D01*
X177593667Y-116696381D02*
X177593667Y-117410667D01*
X177546047Y-117553524D01*
X177450809Y-117648762D01*
X177307952Y-117696381D01*
X177212714Y-117696381D01*
X178022238Y-116791619D02*
X178069857Y-116744000D01*
X178165095Y-116696381D01*
X178403191Y-116696381D01*
X178498429Y-116744000D01*
X178546048Y-116791619D01*
X178593667Y-116886857D01*
X178593667Y-116982095D01*
X178546048Y-117124952D01*
X177974619Y-117696381D01*
X178593667Y-117696381D01*
X161726667Y-136462381D02*
X161726667Y-137176667D01*
X161679047Y-137319524D01*
X161583809Y-137414762D01*
X161440952Y-137462381D01*
X161345714Y-137462381D01*
X162202857Y-137462381D02*
X162202857Y-136462381D01*
X162583810Y-136462381D01*
X162679048Y-136510000D01*
X162726667Y-136557619D01*
X162774286Y-136652857D01*
X162774286Y-136795714D01*
X162726667Y-136890952D01*
X162679048Y-136938571D01*
X162583810Y-136986190D01*
X162202857Y-136986190D01*
X163726667Y-137462381D02*
X163155238Y-137462381D01*
X163440952Y-137462381D02*
X163440952Y-136462381D01*
X163345714Y-136605238D01*
X163250476Y-136700476D01*
X163155238Y-136748095D01*
X196207143Y-117442381D02*
X195730952Y-117442381D01*
X195730952Y-116442381D01*
X196492857Y-117394762D02*
X196635714Y-117442381D01*
X196873810Y-117442381D01*
X196969048Y-117394762D01*
X197016667Y-117347143D01*
X197064286Y-117251905D01*
X197064286Y-117156667D01*
X197016667Y-117061429D01*
X196969048Y-117013810D01*
X196873810Y-116966190D01*
X196683333Y-116918571D01*
X196588095Y-116870952D01*
X196540476Y-116823333D01*
X196492857Y-116728095D01*
X196492857Y-116632857D01*
X196540476Y-116537619D01*
X196588095Y-116490000D01*
X196683333Y-116442381D01*
X196921429Y-116442381D01*
X197064286Y-116490000D01*
X198016667Y-117442381D02*
X197445238Y-117442381D01*
X197730952Y-117442381D02*
X197730952Y-116442381D01*
X197635714Y-116585238D01*
X197540476Y-116680476D01*
X197445238Y-116728095D01*
X170648334Y-137407381D02*
X170315000Y-136931190D01*
X170076905Y-137407381D02*
X170076905Y-136407381D01*
X170457858Y-136407381D01*
X170553096Y-136455000D01*
X170600715Y-136502619D01*
X170648334Y-136597857D01*
X170648334Y-136740714D01*
X170600715Y-136835952D01*
X170553096Y-136883571D01*
X170457858Y-136931190D01*
X170076905Y-136931190D01*
X171600715Y-137407381D02*
X171029286Y-137407381D01*
X171315000Y-137407381D02*
X171315000Y-136407381D01*
X171219762Y-136550238D01*
X171124524Y-136645476D01*
X171029286Y-136693095D01*
X167473334Y-132962381D02*
X167140000Y-132486190D01*
X166901905Y-132962381D02*
X166901905Y-131962381D01*
X167282858Y-131962381D01*
X167378096Y-132010000D01*
X167425715Y-132057619D01*
X167473334Y-132152857D01*
X167473334Y-132295714D01*
X167425715Y-132390952D01*
X167378096Y-132438571D01*
X167282858Y-132486190D01*
X166901905Y-132486190D01*
X167854286Y-132057619D02*
X167901905Y-132010000D01*
X167997143Y-131962381D01*
X168235239Y-131962381D01*
X168330477Y-132010000D01*
X168378096Y-132057619D01*
X168425715Y-132152857D01*
X168425715Y-132248095D01*
X168378096Y-132390952D01*
X167806667Y-132962381D01*
X168425715Y-132962381D01*
X145119762Y-128077381D02*
X144786428Y-127601190D01*
X144548333Y-128077381D02*
X144548333Y-127077381D01*
X144929286Y-127077381D01*
X145024524Y-127125000D01*
X145072143Y-127172619D01*
X145119762Y-127267857D01*
X145119762Y-127410714D01*
X145072143Y-127505952D01*
X145024524Y-127553571D01*
X144929286Y-127601190D01*
X144548333Y-127601190D01*
X145405476Y-127077381D02*
X145738809Y-128077381D01*
X146072143Y-127077381D01*
X146929286Y-128077381D02*
X146357857Y-128077381D01*
X146643571Y-128077381D02*
X146643571Y-127077381D01*
X146548333Y-127220238D01*
X146453095Y-127315476D01*
X146357857Y-127363095D01*
X161163095Y-114537381D02*
X161163095Y-115346905D01*
X161210714Y-115442143D01*
X161258333Y-115489762D01*
X161353571Y-115537381D01*
X161544048Y-115537381D01*
X161639286Y-115489762D01*
X161686905Y-115442143D01*
X161734524Y-115346905D01*
X161734524Y-114537381D01*
X162734524Y-115537381D02*
X162163095Y-115537381D01*
X162448809Y-115537381D02*
X162448809Y-114537381D01*
X162353571Y-114680238D01*
X162258333Y-114775476D01*
X162163095Y-114823095D01*
X174446143Y-120943666D02*
X174493762Y-120991285D01*
X174541381Y-121134142D01*
X174541381Y-121229380D01*
X174493762Y-121372238D01*
X174398524Y-121467476D01*
X174303286Y-121515095D01*
X174112810Y-121562714D01*
X173969952Y-121562714D01*
X173779476Y-121515095D01*
X173684238Y-121467476D01*
X173589000Y-121372238D01*
X173541381Y-121229380D01*
X173541381Y-121134142D01*
X173589000Y-120991285D01*
X173636619Y-120943666D01*
X173541381Y-120086523D02*
X173541381Y-120277000D01*
X173589000Y-120372238D01*
X173636619Y-120419857D01*
X173779476Y-120515095D01*
X173969952Y-120562714D01*
X174350905Y-120562714D01*
X174446143Y-120515095D01*
X174493762Y-120467476D01*
X174541381Y-120372238D01*
X174541381Y-120181761D01*
X174493762Y-120086523D01*
X174446143Y-120038904D01*
X174350905Y-119991285D01*
X174112810Y-119991285D01*
X174017571Y-120038904D01*
X173969952Y-120086523D01*
X173922333Y-120181761D01*
X173922333Y-120372238D01*
X173969952Y-120467476D01*
X174017571Y-120515095D01*
X174112810Y-120562714D01*
X170898143Y-121324666D02*
X170945762Y-121372285D01*
X170993381Y-121515142D01*
X170993381Y-121610380D01*
X170945762Y-121753238D01*
X170850524Y-121848476D01*
X170755286Y-121896095D01*
X170564810Y-121943714D01*
X170421952Y-121943714D01*
X170231476Y-121896095D01*
X170136238Y-121848476D01*
X170041000Y-121753238D01*
X169993381Y-121610380D01*
X169993381Y-121515142D01*
X170041000Y-121372285D01*
X170088619Y-121324666D01*
X169993381Y-120991333D02*
X169993381Y-120324666D01*
X170993381Y-120753238D01*
M02*
