G04 #@! TF.FileFunction,Copper,L2,Bot,Signal*
%FSLAX46Y46*%
G04 Gerber Fmt 4.6, Leading zero omitted, Abs format (unit mm)*
G04 Created by KiCad (PCBNEW 4.0.5) date Thursday, March 09, 2017 'PMt' 04:41:46 PM*
%MOMM*%
%LPD*%
G01*
G04 APERTURE LIST*
%ADD10C,0.100000*%
%ADD11R,1.700000X1.700000*%
%ADD12O,1.700000X1.700000*%
%ADD13C,1.800000*%
%ADD14C,4.000000*%
%ADD15R,1.600000X1.600000*%
%ADD16O,1.600000X1.600000*%
%ADD17C,0.600000*%
%ADD18C,0.762000*%
%ADD19C,0.762000*%
%ADD20C,0.254000*%
G04 APERTURE END LIST*
D10*
D11*
X131445000Y-116840000D03*
D12*
X131445000Y-119380000D03*
D11*
X177927000Y-119634000D03*
D12*
X177927000Y-122174000D03*
D11*
X162560000Y-134620000D03*
D12*
X162560000Y-132080000D03*
D11*
X196850000Y-119380000D03*
D12*
X196850000Y-121920000D03*
D13*
X151765000Y-122475000D03*
X151765000Y-119975000D03*
X151765000Y-117475000D03*
D14*
X144765000Y-124375000D03*
X144765000Y-115575000D03*
D15*
X158115000Y-117475000D03*
D16*
X165735000Y-125095000D03*
X158115000Y-120015000D03*
X165735000Y-122555000D03*
X158115000Y-122555000D03*
X165735000Y-120015000D03*
X158115000Y-125095000D03*
X165735000Y-117475000D03*
D17*
X175056800Y-119583200D03*
D18*
X173990000Y-116840000D03*
X166370000Y-132715000D03*
D19*
X175056800Y-119583200D02*
X175133000Y-119659400D01*
D20*
G36*
X208788000Y-139573000D02*
X122047000Y-139573000D01*
X122047000Y-132080000D01*
X161045907Y-132080000D01*
X161158946Y-132648285D01*
X161480853Y-133130054D01*
X161522452Y-133157850D01*
X161474683Y-133166838D01*
X161258559Y-133305910D01*
X161113569Y-133518110D01*
X161062560Y-133770000D01*
X161062560Y-135470000D01*
X161106838Y-135705317D01*
X161245910Y-135921441D01*
X161458110Y-136066431D01*
X161710000Y-136117440D01*
X163410000Y-136117440D01*
X163645317Y-136073162D01*
X163861441Y-135934090D01*
X164006431Y-135721890D01*
X164057440Y-135470000D01*
X164057440Y-133770000D01*
X164013162Y-133534683D01*
X163874090Y-133318559D01*
X163661890Y-133173569D01*
X163594459Y-133159914D01*
X163639147Y-133130054D01*
X163961054Y-132648285D01*
X164074093Y-132080000D01*
X163961054Y-131511715D01*
X163639147Y-131029946D01*
X163157378Y-130708039D01*
X162589093Y-130595000D01*
X162530907Y-130595000D01*
X161962622Y-130708039D01*
X161480853Y-131029946D01*
X161158946Y-131511715D01*
X161045907Y-132080000D01*
X122047000Y-132080000D01*
X122047000Y-124896834D01*
X142129543Y-124896834D01*
X142529853Y-125865658D01*
X143270443Y-126607542D01*
X144238567Y-127009542D01*
X145286834Y-127010457D01*
X146255658Y-126610147D01*
X146997542Y-125869557D01*
X147174232Y-125444039D01*
X156723096Y-125444039D01*
X156883959Y-125832423D01*
X157259866Y-126247389D01*
X157765959Y-126486914D01*
X157988000Y-126365629D01*
X157988000Y-125222000D01*
X158242000Y-125222000D01*
X158242000Y-126365629D01*
X158464041Y-126486914D01*
X158970134Y-126247389D01*
X159346041Y-125832423D01*
X159506904Y-125444039D01*
X159384915Y-125222000D01*
X158242000Y-125222000D01*
X157988000Y-125222000D01*
X156845085Y-125222000D01*
X156723096Y-125444039D01*
X147174232Y-125444039D01*
X147399542Y-124901433D01*
X147400457Y-123853166D01*
X147277323Y-123555159D01*
X150864446Y-123555159D01*
X150950852Y-123811643D01*
X151524336Y-124021458D01*
X152134460Y-123995839D01*
X152579148Y-123811643D01*
X152665554Y-123555159D01*
X151765000Y-122654605D01*
X150864446Y-123555159D01*
X147277323Y-123555159D01*
X147000147Y-122884342D01*
X146351275Y-122234336D01*
X150218542Y-122234336D01*
X150244161Y-122844460D01*
X150428357Y-123289148D01*
X150684841Y-123375554D01*
X151585395Y-122475000D01*
X151944605Y-122475000D01*
X152845159Y-123375554D01*
X153101643Y-123289148D01*
X153242539Y-122904039D01*
X156723096Y-122904039D01*
X156883959Y-123292423D01*
X157259866Y-123707389D01*
X157508367Y-123825000D01*
X157259866Y-123942611D01*
X156883959Y-124357577D01*
X156723096Y-124745961D01*
X156845085Y-124968000D01*
X157988000Y-124968000D01*
X157988000Y-122682000D01*
X158242000Y-122682000D01*
X158242000Y-124968000D01*
X159384915Y-124968000D01*
X159506904Y-124745961D01*
X159346041Y-124357577D01*
X158970134Y-123942611D01*
X158721633Y-123825000D01*
X158970134Y-123707389D01*
X159346041Y-123292423D01*
X159506904Y-122904039D01*
X159384915Y-122682000D01*
X158242000Y-122682000D01*
X157988000Y-122682000D01*
X156845085Y-122682000D01*
X156723096Y-122904039D01*
X153242539Y-122904039D01*
X153311458Y-122715664D01*
X153285839Y-122105540D01*
X153101643Y-121660852D01*
X152845159Y-121574446D01*
X151944605Y-122475000D01*
X151585395Y-122475000D01*
X150684841Y-121574446D01*
X150428357Y-121660852D01*
X150218542Y-122234336D01*
X146351275Y-122234336D01*
X146259557Y-122142458D01*
X145291433Y-121740458D01*
X144243166Y-121739543D01*
X143274342Y-122139853D01*
X142532458Y-122880443D01*
X142130458Y-123848567D01*
X142129543Y-124896834D01*
X122047000Y-124896834D01*
X122047000Y-119736890D01*
X130003524Y-119736890D01*
X130173355Y-120146924D01*
X130563642Y-120575183D01*
X131088108Y-120821486D01*
X131318000Y-120700819D01*
X131318000Y-119507000D01*
X131572000Y-119507000D01*
X131572000Y-120700819D01*
X131801892Y-120821486D01*
X132326358Y-120575183D01*
X132716645Y-120146924D01*
X132886476Y-119736890D01*
X132765155Y-119507000D01*
X131572000Y-119507000D01*
X131318000Y-119507000D01*
X130124845Y-119507000D01*
X130003524Y-119736890D01*
X122047000Y-119736890D01*
X122047000Y-115990000D01*
X129947560Y-115990000D01*
X129947560Y-117690000D01*
X129991838Y-117925317D01*
X130130910Y-118141441D01*
X130343110Y-118286431D01*
X130451107Y-118308301D01*
X130173355Y-118613076D01*
X130003524Y-119023110D01*
X130124845Y-119253000D01*
X131318000Y-119253000D01*
X131318000Y-119233000D01*
X131572000Y-119233000D01*
X131572000Y-119253000D01*
X132765155Y-119253000D01*
X132886476Y-119023110D01*
X132716645Y-118613076D01*
X132440499Y-118310063D01*
X132530317Y-118293162D01*
X132746441Y-118154090D01*
X132891431Y-117941890D01*
X132942440Y-117690000D01*
X132942440Y-116096834D01*
X142129543Y-116096834D01*
X142529853Y-117065658D01*
X143270443Y-117807542D01*
X144238567Y-118209542D01*
X145286834Y-118210457D01*
X146255658Y-117810147D01*
X146286868Y-117778991D01*
X150229735Y-117778991D01*
X150462932Y-118343371D01*
X150844182Y-118725288D01*
X150464449Y-119104357D01*
X150230267Y-119668330D01*
X150229735Y-120278991D01*
X150462932Y-120843371D01*
X150894357Y-121275551D01*
X150903372Y-121279294D01*
X150864446Y-121394841D01*
X151765000Y-122295395D01*
X152665554Y-121394841D01*
X152626793Y-121279786D01*
X152633371Y-121277068D01*
X153065551Y-120845643D01*
X153299733Y-120281670D01*
X153299965Y-120015000D01*
X156651887Y-120015000D01*
X156761120Y-120564151D01*
X157072189Y-121029698D01*
X157476703Y-121299986D01*
X157259866Y-121402611D01*
X156883959Y-121817577D01*
X156723096Y-122205961D01*
X156845085Y-122428000D01*
X157988000Y-122428000D01*
X157988000Y-122408000D01*
X158242000Y-122408000D01*
X158242000Y-122428000D01*
X159384915Y-122428000D01*
X159506904Y-122205961D01*
X159346041Y-121817577D01*
X158970134Y-121402611D01*
X158753297Y-121299986D01*
X159157811Y-121029698D01*
X159468880Y-120564151D01*
X159578113Y-120015000D01*
X159468880Y-119465849D01*
X159157811Y-119000302D01*
X159013535Y-118903899D01*
X159150317Y-118878162D01*
X159366441Y-118739090D01*
X159511431Y-118526890D01*
X159562440Y-118275000D01*
X159562440Y-117475000D01*
X164271887Y-117475000D01*
X164381120Y-118024151D01*
X164692189Y-118489698D01*
X165074275Y-118745000D01*
X164692189Y-119000302D01*
X164381120Y-119465849D01*
X164271887Y-120015000D01*
X164381120Y-120564151D01*
X164692189Y-121029698D01*
X165074275Y-121285000D01*
X164692189Y-121540302D01*
X164381120Y-122005849D01*
X164271887Y-122555000D01*
X164381120Y-123104151D01*
X164692189Y-123569698D01*
X165074275Y-123825000D01*
X164692189Y-124080302D01*
X164381120Y-124545849D01*
X164271887Y-125095000D01*
X164381120Y-125644151D01*
X164692189Y-126109698D01*
X165157736Y-126420767D01*
X165706887Y-126530000D01*
X165763113Y-126530000D01*
X166312264Y-126420767D01*
X166777811Y-126109698D01*
X167088880Y-125644151D01*
X167198113Y-125095000D01*
X167088880Y-124545849D01*
X166777811Y-124080302D01*
X166395725Y-123825000D01*
X166777811Y-123569698D01*
X167088880Y-123104151D01*
X167198113Y-122555000D01*
X167122328Y-122174000D01*
X176412907Y-122174000D01*
X176525946Y-122742285D01*
X176847853Y-123224054D01*
X177329622Y-123545961D01*
X177897907Y-123659000D01*
X177956093Y-123659000D01*
X178524378Y-123545961D01*
X179006147Y-123224054D01*
X179328054Y-122742285D01*
X179420626Y-122276890D01*
X195408524Y-122276890D01*
X195578355Y-122686924D01*
X195968642Y-123115183D01*
X196493108Y-123361486D01*
X196723000Y-123240819D01*
X196723000Y-122047000D01*
X196977000Y-122047000D01*
X196977000Y-123240819D01*
X197206892Y-123361486D01*
X197731358Y-123115183D01*
X198121645Y-122686924D01*
X198291476Y-122276890D01*
X198170155Y-122047000D01*
X196977000Y-122047000D01*
X196723000Y-122047000D01*
X195529845Y-122047000D01*
X195408524Y-122276890D01*
X179420626Y-122276890D01*
X179441093Y-122174000D01*
X179328054Y-121605715D01*
X179006147Y-121123946D01*
X178962223Y-121094597D01*
X179136698Y-121022327D01*
X179315327Y-120843699D01*
X179412000Y-120610310D01*
X179412000Y-119919750D01*
X179253250Y-119761000D01*
X178054000Y-119761000D01*
X178054000Y-119781000D01*
X177800000Y-119781000D01*
X177800000Y-119761000D01*
X176600750Y-119761000D01*
X176442000Y-119919750D01*
X176442000Y-120610310D01*
X176538673Y-120843699D01*
X176717302Y-121022327D01*
X176891777Y-121094597D01*
X176847853Y-121123946D01*
X176525946Y-121605715D01*
X176412907Y-122174000D01*
X167122328Y-122174000D01*
X167088880Y-122005849D01*
X166777811Y-121540302D01*
X166395725Y-121285000D01*
X166777811Y-121029698D01*
X167088880Y-120564151D01*
X167198113Y-120015000D01*
X167088880Y-119465849D01*
X166777811Y-119000302D01*
X166395725Y-118745000D01*
X166526393Y-118657690D01*
X176442000Y-118657690D01*
X176442000Y-119348250D01*
X176600750Y-119507000D01*
X177800000Y-119507000D01*
X177800000Y-118307750D01*
X178054000Y-118307750D01*
X178054000Y-119507000D01*
X179253250Y-119507000D01*
X179412000Y-119348250D01*
X179412000Y-118657690D01*
X179359110Y-118530000D01*
X195352560Y-118530000D01*
X195352560Y-120230000D01*
X195396838Y-120465317D01*
X195535910Y-120681441D01*
X195748110Y-120826431D01*
X195856107Y-120848301D01*
X195578355Y-121153076D01*
X195408524Y-121563110D01*
X195529845Y-121793000D01*
X196723000Y-121793000D01*
X196723000Y-121773000D01*
X196977000Y-121773000D01*
X196977000Y-121793000D01*
X198170155Y-121793000D01*
X198291476Y-121563110D01*
X198121645Y-121153076D01*
X197845499Y-120850063D01*
X197935317Y-120833162D01*
X198151441Y-120694090D01*
X198296431Y-120481890D01*
X198347440Y-120230000D01*
X198347440Y-118530000D01*
X198303162Y-118294683D01*
X198164090Y-118078559D01*
X197951890Y-117933569D01*
X197700000Y-117882560D01*
X196000000Y-117882560D01*
X195764683Y-117926838D01*
X195548559Y-118065910D01*
X195403569Y-118278110D01*
X195352560Y-118530000D01*
X179359110Y-118530000D01*
X179315327Y-118424301D01*
X179136698Y-118245673D01*
X178903309Y-118149000D01*
X178212750Y-118149000D01*
X178054000Y-118307750D01*
X177800000Y-118307750D01*
X177641250Y-118149000D01*
X176950691Y-118149000D01*
X176717302Y-118245673D01*
X176538673Y-118424301D01*
X176442000Y-118657690D01*
X166526393Y-118657690D01*
X166777811Y-118489698D01*
X167088880Y-118024151D01*
X167198113Y-117475000D01*
X167088880Y-116925849D01*
X166777811Y-116460302D01*
X166312264Y-116149233D01*
X165763113Y-116040000D01*
X165706887Y-116040000D01*
X165157736Y-116149233D01*
X164692189Y-116460302D01*
X164381120Y-116925849D01*
X164271887Y-117475000D01*
X159562440Y-117475000D01*
X159562440Y-116675000D01*
X159518162Y-116439683D01*
X159379090Y-116223559D01*
X159166890Y-116078569D01*
X158915000Y-116027560D01*
X157315000Y-116027560D01*
X157079683Y-116071838D01*
X156863559Y-116210910D01*
X156718569Y-116423110D01*
X156667560Y-116675000D01*
X156667560Y-118275000D01*
X156711838Y-118510317D01*
X156850910Y-118726441D01*
X157063110Y-118871431D01*
X157218089Y-118902815D01*
X157072189Y-119000302D01*
X156761120Y-119465849D01*
X156651887Y-120015000D01*
X153299965Y-120015000D01*
X153300265Y-119671009D01*
X153067068Y-119106629D01*
X152685818Y-118724712D01*
X153065551Y-118345643D01*
X153299733Y-117781670D01*
X153300265Y-117171009D01*
X153067068Y-116606629D01*
X152635643Y-116174449D01*
X152071670Y-115940267D01*
X151461009Y-115939735D01*
X150896629Y-116172932D01*
X150464449Y-116604357D01*
X150230267Y-117168330D01*
X150229735Y-117778991D01*
X146286868Y-117778991D01*
X146997542Y-117069557D01*
X147399542Y-116101433D01*
X147400457Y-115053166D01*
X147000147Y-114084342D01*
X146259557Y-113342458D01*
X145291433Y-112940458D01*
X144243166Y-112939543D01*
X143274342Y-113339853D01*
X142532458Y-114080443D01*
X142130458Y-115048567D01*
X142129543Y-116096834D01*
X132942440Y-116096834D01*
X132942440Y-115990000D01*
X132898162Y-115754683D01*
X132759090Y-115538559D01*
X132546890Y-115393569D01*
X132295000Y-115342560D01*
X130595000Y-115342560D01*
X130359683Y-115386838D01*
X130143559Y-115525910D01*
X129998569Y-115738110D01*
X129947560Y-115990000D01*
X122047000Y-115990000D01*
X122047000Y-104267000D01*
X208788000Y-104267000D01*
X208788000Y-139573000D01*
X208788000Y-139573000D01*
G37*
X208788000Y-139573000D02*
X122047000Y-139573000D01*
X122047000Y-132080000D01*
X161045907Y-132080000D01*
X161158946Y-132648285D01*
X161480853Y-133130054D01*
X161522452Y-133157850D01*
X161474683Y-133166838D01*
X161258559Y-133305910D01*
X161113569Y-133518110D01*
X161062560Y-133770000D01*
X161062560Y-135470000D01*
X161106838Y-135705317D01*
X161245910Y-135921441D01*
X161458110Y-136066431D01*
X161710000Y-136117440D01*
X163410000Y-136117440D01*
X163645317Y-136073162D01*
X163861441Y-135934090D01*
X164006431Y-135721890D01*
X164057440Y-135470000D01*
X164057440Y-133770000D01*
X164013162Y-133534683D01*
X163874090Y-133318559D01*
X163661890Y-133173569D01*
X163594459Y-133159914D01*
X163639147Y-133130054D01*
X163961054Y-132648285D01*
X164074093Y-132080000D01*
X163961054Y-131511715D01*
X163639147Y-131029946D01*
X163157378Y-130708039D01*
X162589093Y-130595000D01*
X162530907Y-130595000D01*
X161962622Y-130708039D01*
X161480853Y-131029946D01*
X161158946Y-131511715D01*
X161045907Y-132080000D01*
X122047000Y-132080000D01*
X122047000Y-124896834D01*
X142129543Y-124896834D01*
X142529853Y-125865658D01*
X143270443Y-126607542D01*
X144238567Y-127009542D01*
X145286834Y-127010457D01*
X146255658Y-126610147D01*
X146997542Y-125869557D01*
X147174232Y-125444039D01*
X156723096Y-125444039D01*
X156883959Y-125832423D01*
X157259866Y-126247389D01*
X157765959Y-126486914D01*
X157988000Y-126365629D01*
X157988000Y-125222000D01*
X158242000Y-125222000D01*
X158242000Y-126365629D01*
X158464041Y-126486914D01*
X158970134Y-126247389D01*
X159346041Y-125832423D01*
X159506904Y-125444039D01*
X159384915Y-125222000D01*
X158242000Y-125222000D01*
X157988000Y-125222000D01*
X156845085Y-125222000D01*
X156723096Y-125444039D01*
X147174232Y-125444039D01*
X147399542Y-124901433D01*
X147400457Y-123853166D01*
X147277323Y-123555159D01*
X150864446Y-123555159D01*
X150950852Y-123811643D01*
X151524336Y-124021458D01*
X152134460Y-123995839D01*
X152579148Y-123811643D01*
X152665554Y-123555159D01*
X151765000Y-122654605D01*
X150864446Y-123555159D01*
X147277323Y-123555159D01*
X147000147Y-122884342D01*
X146351275Y-122234336D01*
X150218542Y-122234336D01*
X150244161Y-122844460D01*
X150428357Y-123289148D01*
X150684841Y-123375554D01*
X151585395Y-122475000D01*
X151944605Y-122475000D01*
X152845159Y-123375554D01*
X153101643Y-123289148D01*
X153242539Y-122904039D01*
X156723096Y-122904039D01*
X156883959Y-123292423D01*
X157259866Y-123707389D01*
X157508367Y-123825000D01*
X157259866Y-123942611D01*
X156883959Y-124357577D01*
X156723096Y-124745961D01*
X156845085Y-124968000D01*
X157988000Y-124968000D01*
X157988000Y-122682000D01*
X158242000Y-122682000D01*
X158242000Y-124968000D01*
X159384915Y-124968000D01*
X159506904Y-124745961D01*
X159346041Y-124357577D01*
X158970134Y-123942611D01*
X158721633Y-123825000D01*
X158970134Y-123707389D01*
X159346041Y-123292423D01*
X159506904Y-122904039D01*
X159384915Y-122682000D01*
X158242000Y-122682000D01*
X157988000Y-122682000D01*
X156845085Y-122682000D01*
X156723096Y-122904039D01*
X153242539Y-122904039D01*
X153311458Y-122715664D01*
X153285839Y-122105540D01*
X153101643Y-121660852D01*
X152845159Y-121574446D01*
X151944605Y-122475000D01*
X151585395Y-122475000D01*
X150684841Y-121574446D01*
X150428357Y-121660852D01*
X150218542Y-122234336D01*
X146351275Y-122234336D01*
X146259557Y-122142458D01*
X145291433Y-121740458D01*
X144243166Y-121739543D01*
X143274342Y-122139853D01*
X142532458Y-122880443D01*
X142130458Y-123848567D01*
X142129543Y-124896834D01*
X122047000Y-124896834D01*
X122047000Y-119736890D01*
X130003524Y-119736890D01*
X130173355Y-120146924D01*
X130563642Y-120575183D01*
X131088108Y-120821486D01*
X131318000Y-120700819D01*
X131318000Y-119507000D01*
X131572000Y-119507000D01*
X131572000Y-120700819D01*
X131801892Y-120821486D01*
X132326358Y-120575183D01*
X132716645Y-120146924D01*
X132886476Y-119736890D01*
X132765155Y-119507000D01*
X131572000Y-119507000D01*
X131318000Y-119507000D01*
X130124845Y-119507000D01*
X130003524Y-119736890D01*
X122047000Y-119736890D01*
X122047000Y-115990000D01*
X129947560Y-115990000D01*
X129947560Y-117690000D01*
X129991838Y-117925317D01*
X130130910Y-118141441D01*
X130343110Y-118286431D01*
X130451107Y-118308301D01*
X130173355Y-118613076D01*
X130003524Y-119023110D01*
X130124845Y-119253000D01*
X131318000Y-119253000D01*
X131318000Y-119233000D01*
X131572000Y-119233000D01*
X131572000Y-119253000D01*
X132765155Y-119253000D01*
X132886476Y-119023110D01*
X132716645Y-118613076D01*
X132440499Y-118310063D01*
X132530317Y-118293162D01*
X132746441Y-118154090D01*
X132891431Y-117941890D01*
X132942440Y-117690000D01*
X132942440Y-116096834D01*
X142129543Y-116096834D01*
X142529853Y-117065658D01*
X143270443Y-117807542D01*
X144238567Y-118209542D01*
X145286834Y-118210457D01*
X146255658Y-117810147D01*
X146286868Y-117778991D01*
X150229735Y-117778991D01*
X150462932Y-118343371D01*
X150844182Y-118725288D01*
X150464449Y-119104357D01*
X150230267Y-119668330D01*
X150229735Y-120278991D01*
X150462932Y-120843371D01*
X150894357Y-121275551D01*
X150903372Y-121279294D01*
X150864446Y-121394841D01*
X151765000Y-122295395D01*
X152665554Y-121394841D01*
X152626793Y-121279786D01*
X152633371Y-121277068D01*
X153065551Y-120845643D01*
X153299733Y-120281670D01*
X153299965Y-120015000D01*
X156651887Y-120015000D01*
X156761120Y-120564151D01*
X157072189Y-121029698D01*
X157476703Y-121299986D01*
X157259866Y-121402611D01*
X156883959Y-121817577D01*
X156723096Y-122205961D01*
X156845085Y-122428000D01*
X157988000Y-122428000D01*
X157988000Y-122408000D01*
X158242000Y-122408000D01*
X158242000Y-122428000D01*
X159384915Y-122428000D01*
X159506904Y-122205961D01*
X159346041Y-121817577D01*
X158970134Y-121402611D01*
X158753297Y-121299986D01*
X159157811Y-121029698D01*
X159468880Y-120564151D01*
X159578113Y-120015000D01*
X159468880Y-119465849D01*
X159157811Y-119000302D01*
X159013535Y-118903899D01*
X159150317Y-118878162D01*
X159366441Y-118739090D01*
X159511431Y-118526890D01*
X159562440Y-118275000D01*
X159562440Y-117475000D01*
X164271887Y-117475000D01*
X164381120Y-118024151D01*
X164692189Y-118489698D01*
X165074275Y-118745000D01*
X164692189Y-119000302D01*
X164381120Y-119465849D01*
X164271887Y-120015000D01*
X164381120Y-120564151D01*
X164692189Y-121029698D01*
X165074275Y-121285000D01*
X164692189Y-121540302D01*
X164381120Y-122005849D01*
X164271887Y-122555000D01*
X164381120Y-123104151D01*
X164692189Y-123569698D01*
X165074275Y-123825000D01*
X164692189Y-124080302D01*
X164381120Y-124545849D01*
X164271887Y-125095000D01*
X164381120Y-125644151D01*
X164692189Y-126109698D01*
X165157736Y-126420767D01*
X165706887Y-126530000D01*
X165763113Y-126530000D01*
X166312264Y-126420767D01*
X166777811Y-126109698D01*
X167088880Y-125644151D01*
X167198113Y-125095000D01*
X167088880Y-124545849D01*
X166777811Y-124080302D01*
X166395725Y-123825000D01*
X166777811Y-123569698D01*
X167088880Y-123104151D01*
X167198113Y-122555000D01*
X167122328Y-122174000D01*
X176412907Y-122174000D01*
X176525946Y-122742285D01*
X176847853Y-123224054D01*
X177329622Y-123545961D01*
X177897907Y-123659000D01*
X177956093Y-123659000D01*
X178524378Y-123545961D01*
X179006147Y-123224054D01*
X179328054Y-122742285D01*
X179420626Y-122276890D01*
X195408524Y-122276890D01*
X195578355Y-122686924D01*
X195968642Y-123115183D01*
X196493108Y-123361486D01*
X196723000Y-123240819D01*
X196723000Y-122047000D01*
X196977000Y-122047000D01*
X196977000Y-123240819D01*
X197206892Y-123361486D01*
X197731358Y-123115183D01*
X198121645Y-122686924D01*
X198291476Y-122276890D01*
X198170155Y-122047000D01*
X196977000Y-122047000D01*
X196723000Y-122047000D01*
X195529845Y-122047000D01*
X195408524Y-122276890D01*
X179420626Y-122276890D01*
X179441093Y-122174000D01*
X179328054Y-121605715D01*
X179006147Y-121123946D01*
X178962223Y-121094597D01*
X179136698Y-121022327D01*
X179315327Y-120843699D01*
X179412000Y-120610310D01*
X179412000Y-119919750D01*
X179253250Y-119761000D01*
X178054000Y-119761000D01*
X178054000Y-119781000D01*
X177800000Y-119781000D01*
X177800000Y-119761000D01*
X176600750Y-119761000D01*
X176442000Y-119919750D01*
X176442000Y-120610310D01*
X176538673Y-120843699D01*
X176717302Y-121022327D01*
X176891777Y-121094597D01*
X176847853Y-121123946D01*
X176525946Y-121605715D01*
X176412907Y-122174000D01*
X167122328Y-122174000D01*
X167088880Y-122005849D01*
X166777811Y-121540302D01*
X166395725Y-121285000D01*
X166777811Y-121029698D01*
X167088880Y-120564151D01*
X167198113Y-120015000D01*
X167088880Y-119465849D01*
X166777811Y-119000302D01*
X166395725Y-118745000D01*
X166526393Y-118657690D01*
X176442000Y-118657690D01*
X176442000Y-119348250D01*
X176600750Y-119507000D01*
X177800000Y-119507000D01*
X177800000Y-118307750D01*
X178054000Y-118307750D01*
X178054000Y-119507000D01*
X179253250Y-119507000D01*
X179412000Y-119348250D01*
X179412000Y-118657690D01*
X179359110Y-118530000D01*
X195352560Y-118530000D01*
X195352560Y-120230000D01*
X195396838Y-120465317D01*
X195535910Y-120681441D01*
X195748110Y-120826431D01*
X195856107Y-120848301D01*
X195578355Y-121153076D01*
X195408524Y-121563110D01*
X195529845Y-121793000D01*
X196723000Y-121793000D01*
X196723000Y-121773000D01*
X196977000Y-121773000D01*
X196977000Y-121793000D01*
X198170155Y-121793000D01*
X198291476Y-121563110D01*
X198121645Y-121153076D01*
X197845499Y-120850063D01*
X197935317Y-120833162D01*
X198151441Y-120694090D01*
X198296431Y-120481890D01*
X198347440Y-120230000D01*
X198347440Y-118530000D01*
X198303162Y-118294683D01*
X198164090Y-118078559D01*
X197951890Y-117933569D01*
X197700000Y-117882560D01*
X196000000Y-117882560D01*
X195764683Y-117926838D01*
X195548559Y-118065910D01*
X195403569Y-118278110D01*
X195352560Y-118530000D01*
X179359110Y-118530000D01*
X179315327Y-118424301D01*
X179136698Y-118245673D01*
X178903309Y-118149000D01*
X178212750Y-118149000D01*
X178054000Y-118307750D01*
X177800000Y-118307750D01*
X177641250Y-118149000D01*
X176950691Y-118149000D01*
X176717302Y-118245673D01*
X176538673Y-118424301D01*
X176442000Y-118657690D01*
X166526393Y-118657690D01*
X166777811Y-118489698D01*
X167088880Y-118024151D01*
X167198113Y-117475000D01*
X167088880Y-116925849D01*
X166777811Y-116460302D01*
X166312264Y-116149233D01*
X165763113Y-116040000D01*
X165706887Y-116040000D01*
X165157736Y-116149233D01*
X164692189Y-116460302D01*
X164381120Y-116925849D01*
X164271887Y-117475000D01*
X159562440Y-117475000D01*
X159562440Y-116675000D01*
X159518162Y-116439683D01*
X159379090Y-116223559D01*
X159166890Y-116078569D01*
X158915000Y-116027560D01*
X157315000Y-116027560D01*
X157079683Y-116071838D01*
X156863559Y-116210910D01*
X156718569Y-116423110D01*
X156667560Y-116675000D01*
X156667560Y-118275000D01*
X156711838Y-118510317D01*
X156850910Y-118726441D01*
X157063110Y-118871431D01*
X157218089Y-118902815D01*
X157072189Y-119000302D01*
X156761120Y-119465849D01*
X156651887Y-120015000D01*
X153299965Y-120015000D01*
X153300265Y-119671009D01*
X153067068Y-119106629D01*
X152685818Y-118724712D01*
X153065551Y-118345643D01*
X153299733Y-117781670D01*
X153300265Y-117171009D01*
X153067068Y-116606629D01*
X152635643Y-116174449D01*
X152071670Y-115940267D01*
X151461009Y-115939735D01*
X150896629Y-116172932D01*
X150464449Y-116604357D01*
X150230267Y-117168330D01*
X150229735Y-117778991D01*
X146286868Y-117778991D01*
X146997542Y-117069557D01*
X147399542Y-116101433D01*
X147400457Y-115053166D01*
X147000147Y-114084342D01*
X146259557Y-113342458D01*
X145291433Y-112940458D01*
X144243166Y-112939543D01*
X143274342Y-113339853D01*
X142532458Y-114080443D01*
X142130458Y-115048567D01*
X142129543Y-116096834D01*
X132942440Y-116096834D01*
X132942440Y-115990000D01*
X132898162Y-115754683D01*
X132759090Y-115538559D01*
X132546890Y-115393569D01*
X132295000Y-115342560D01*
X130595000Y-115342560D01*
X130359683Y-115386838D01*
X130143559Y-115525910D01*
X129998569Y-115738110D01*
X129947560Y-115990000D01*
X122047000Y-115990000D01*
X122047000Y-104267000D01*
X208788000Y-104267000D01*
X208788000Y-139573000D01*
M02*
