G04 #@! TF.FileFunction,Copper,L1,Top,Signal*
%FSLAX46Y46*%
G04 Gerber Fmt 4.6, Leading zero omitted, Abs format (unit mm)*
G04 Created by KiCad (PCBNEW 4.0.5) date Thursday, March 09, 2017 'PMt' 04:41:46 PM*
%MOMM*%
%LPD*%
G01*
G04 APERTURE LIST*
%ADD10C,0.100000*%
%ADD11R,3.000000X1.600000*%
%ADD12R,1.200000X0.750000*%
%ADD13R,1.250000X1.500000*%
%ADD14R,4.000000X2.500000*%
%ADD15R,1.700000X1.700000*%
%ADD16O,1.700000X1.700000*%
%ADD17R,1.500000X1.300000*%
%ADD18C,1.800000*%
%ADD19C,4.000000*%
%ADD20R,1.600000X1.600000*%
%ADD21O,1.600000X1.600000*%
%ADD22R,0.750000X1.200000*%
%ADD23C,0.600000*%
%ADD24C,0.762000*%
%ADD25C,0.762000*%
G04 APERTURE END LIST*
D10*
D11*
X159725000Y-110490000D03*
X164125000Y-110490000D03*
D12*
X171765000Y-116840000D03*
X169865000Y-116840000D03*
D13*
X176530000Y-130195000D03*
X176530000Y-132695000D03*
X168910000Y-125115000D03*
X168910000Y-127615000D03*
D14*
X182690000Y-125730000D03*
X190690000Y-125730000D03*
D15*
X131445000Y-116840000D03*
D16*
X131445000Y-119380000D03*
D15*
X177927000Y-119634000D03*
D16*
X177927000Y-122174000D03*
D15*
X162560000Y-134620000D03*
D16*
X162560000Y-132080000D03*
D15*
X196850000Y-119380000D03*
D16*
X196850000Y-121920000D03*
D17*
X172165000Y-135255000D03*
X169465000Y-135255000D03*
X168990000Y-130810000D03*
X166290000Y-130810000D03*
D18*
X151765000Y-122475000D03*
X151765000Y-119975000D03*
X151765000Y-117475000D03*
D19*
X144765000Y-124375000D03*
X144765000Y-115575000D03*
D20*
X158115000Y-117475000D03*
D21*
X165735000Y-125095000D03*
X158115000Y-120015000D03*
X165735000Y-122555000D03*
X158115000Y-122555000D03*
X165735000Y-120015000D03*
X158115000Y-125095000D03*
X165735000Y-117475000D03*
D13*
X172339000Y-119527000D03*
X172339000Y-122027000D03*
D22*
X169291000Y-120208000D03*
X169291000Y-122108000D03*
D23*
X175056800Y-119583200D03*
D24*
X173990000Y-116840000D03*
X166370000Y-132715000D03*
D25*
X162560000Y-132080000D02*
X162560000Y-121920000D01*
X162560000Y-121920000D02*
X158115000Y-117475000D01*
X158115000Y-117475000D02*
X158115000Y-112100000D01*
X158115000Y-112100000D02*
X159725000Y-110490000D01*
X165735000Y-117475000D02*
X165735000Y-112100000D01*
X165735000Y-112100000D02*
X164125000Y-110490000D01*
X169291000Y-120208000D02*
X171658000Y-120208000D01*
X171658000Y-120208000D02*
X172339000Y-119527000D01*
X172339000Y-119527000D02*
X175000600Y-119527000D01*
X175000600Y-119527000D02*
X175056800Y-119583200D01*
X171765000Y-116840000D02*
X173990000Y-116840000D01*
X166290000Y-130810000D02*
X166290000Y-132635000D01*
X166290000Y-132635000D02*
X166370000Y-132715000D01*
X165735000Y-120015000D02*
X166690000Y-120015000D01*
X166690000Y-120015000D02*
X169865000Y-116840000D01*
X176530000Y-130195000D02*
X176530000Y-125115000D01*
X175895000Y-125095000D02*
X175895000Y-125115000D01*
X176510000Y-125095000D02*
X175895000Y-125095000D01*
X176530000Y-125115000D02*
X176510000Y-125095000D01*
X168910000Y-125115000D02*
X175895000Y-125115000D01*
X175895000Y-125115000D02*
X182075000Y-125115000D01*
X182075000Y-125115000D02*
X182690000Y-125730000D01*
X165735000Y-125095000D02*
X168890000Y-125095000D01*
X168890000Y-125095000D02*
X168910000Y-125115000D01*
X176530000Y-132695000D02*
X176530000Y-134620000D01*
X175895000Y-135255000D02*
X172165000Y-135255000D01*
X176530000Y-134620000D02*
X175895000Y-135255000D01*
X168910000Y-127615000D02*
X168910000Y-130730000D01*
X168910000Y-130730000D02*
X168990000Y-130810000D01*
X190690000Y-125730000D02*
X190690000Y-121730000D01*
X193040000Y-119380000D02*
X196850000Y-119380000D01*
X190690000Y-121730000D02*
X193040000Y-119380000D01*
X131445000Y-116840000D02*
X131445000Y-115570000D01*
X151765000Y-111760000D02*
X151765000Y-117475000D01*
X150495000Y-110490000D02*
X151765000Y-111760000D01*
X136525000Y-110490000D02*
X150495000Y-110490000D01*
X131445000Y-115570000D02*
X136525000Y-110490000D01*
X162560000Y-134620000D02*
X165735000Y-134620000D01*
X166370000Y-135255000D02*
X169465000Y-135255000D01*
X165735000Y-134620000D02*
X166370000Y-135255000D01*
X151765000Y-119975000D02*
X158075000Y-119975000D01*
X158075000Y-119975000D02*
X158115000Y-120015000D01*
X177927000Y-122174000D02*
X172486000Y-122174000D01*
X172486000Y-122174000D02*
X172339000Y-122027000D01*
X172339000Y-122027000D02*
X169372000Y-122027000D01*
X169372000Y-122027000D02*
X168844000Y-122555000D01*
X168844000Y-122555000D02*
X165735000Y-122555000D01*
X172486000Y-122174000D02*
X172420000Y-122108000D01*
X172420000Y-122108000D02*
X166182000Y-122108000D01*
X166182000Y-122108000D02*
X165735000Y-122555000D01*
M02*
