M48
;DRILL file {KiCad 4.0.5} date Thursday, March 09, 2017 'PMt' 04:41:42 PM
;FORMAT={-:-/ absolute / inch / decimal}
FMAT,2
INCH,TZ
T1C0.016
T2C0.025
T3C0.031
T4C0.039
%
G90
G05
M72
T1
X6.892Y-4.708
T2
X6.55Y-5.225
X6.85Y-4.6
T3
X6.225Y-4.625
X6.225Y-4.725
X6.225Y-4.825
X6.225Y-4.925
X6.525Y-4.625
X6.525Y-4.725
X6.525Y-4.825
X6.525Y-4.925
T4
X5.175Y-4.6
X5.175Y-4.7
X5.975Y-4.625
X5.975Y-4.7234
X5.975Y-4.8219
X6.4Y-5.2
X6.4Y-5.3
X7.005Y-4.71
X7.005Y-4.81
X7.75Y-4.7
X7.75Y-4.8
T0
M30
