*
%LPD*%
%LNChip Antenna-B.Cu*%
%FSLAX25Y25*%
%MOIN*%
%AD*%
%AD*%
%ADD11R,0.095275591X0.2*%
%ADD12C,0.038188976*%
%ADD13R,0.018110236X0.03503937*%
%ADD14C,0.023622047*%
%ADD15C,0.01*%
G54D11*
%SRX1Y1I0.0J0.0*%
G1X44795Y12669D3*
G1X79283Y12669D3*
G54D12*
G1X44795Y26213D3*
G1X79283Y26213D3*
G54D13*
G1X44795Y24441D3*
G1X79283Y24441D3*
G54D14*
G1X88583Y11811D3*
G1X88583Y20669D3*
G1X46260Y32480D3*
G1X38386Y32480D3*
G1X35433Y26575D3*
G1X35433Y19685D3*
G1X35433Y11811D3*
G1X145669Y28543D3*
G1X138780Y28543D3*
G1X132874Y28543D3*
G1X125984Y28543D3*
G1X119094Y28543D3*
G1X111220Y28543D3*
G1X103346Y28543D3*
G1X95472Y28543D3*
G1X88583Y28543D3*
G1X67913Y26575D3*
G1X55118Y26575D3*
G1X55118Y32480D3*
G1X57087Y38386D3*
G1X63976Y40354D3*
G1X70866Y40354D3*
G1X78740Y40354D3*
G1X86614Y40354D3*
G1X95472Y40354D3*
G1X103346Y40354D3*
G1X111220Y40354D3*
G1X118110Y40354D3*
G1X125000Y40354D3*
G1X153543Y35433D3*
G1X153543Y27559D3*
G1X153543Y19685D3*
G1X153543Y11811D3*
G1X153543Y3937D3*
G1X145669Y3937D3*
G1X137795Y3937D3*
G1X129921Y3937D3*
G1X122047Y3937D3*
G1X114173Y3937D3*
G1X106299Y3937D3*
G1X98425Y3937D3*
G1X90551Y3937D3*
G1X35433Y3937D3*
G1X27559Y3937D3*
G1X19685Y3937D3*
G1X11811Y3937D3*
G1X129921Y43307D3*
G1X129921Y51181D3*
G1X129921Y59055D3*
G1X129921Y66929D3*
G1X129921Y74803D3*
G1X122047Y74803D3*
G1X114173Y74803D3*
G1X106299Y74803D3*
G1X98425Y74803D3*
G1X90551Y74803D3*
G1X82677Y74803D3*
G1X74803Y74803D3*
G1X66929Y74803D3*
G1X59055Y74803D3*
G1X51181Y74803D3*
G1X43307Y74803D3*
G1X35433Y74803D3*
G1X27559Y74803D3*
G1X19685Y74803D3*
G1X11811Y74803D3*
G1X3937Y3937D3*
G1X3937Y11811D3*
G1X3937Y19685D3*
G1X3937Y27559D3*
G1X3937Y35433D3*
G1X3937Y43307D3*
G1X3937Y51181D3*
G1X3937Y59055D3*
G1X3937Y66929D3*
G1X3937Y74803D3*
G54D15*
G36*
G1X1539Y1341D2*
G1X37876Y1341D1*
G1X37531Y2172D1*
G1X37531Y11544D1*
G1X38156Y12169D1*
G1X44295Y12169D1*
G1X44295Y12091D1*
G1X45295Y12091D1*
G1X45295Y12169D1*
G1X51434Y12169D1*
G1X52059Y11544D1*
G1X52059Y2172D1*
G1X51715Y1341D1*
G1X72364Y1341D1*
G1X72020Y2172D1*
G1X72020Y11544D1*
G1X72645Y12169D1*
G1X78783Y12169D1*
G1X78783Y12091D1*
G1X79783Y12091D1*
G1X79783Y12169D1*
G1X85922Y12169D1*
G1X86547Y11544D1*
G1X86547Y2172D1*
G1X86203Y1341D1*
G1X156139Y1341D1*
G1X156139Y21921D1*
G1X86547Y21921D1*
G1X86547Y13794D1*
G1X85922Y13169D1*
G1X79783Y13169D1*
G1X79783Y13248D1*
G1X78783Y13248D1*
G1X78783Y13169D1*
G1X72645Y13169D1*
G1X72020Y13794D1*
G1X72020Y21921D1*
G1X52059Y21921D1*
G1X52059Y13794D1*
G1X51434Y13169D1*
G1X45295Y13169D1*
G1X45295Y13248D1*
G1X44295Y13248D1*
G1X44295Y13169D1*
G1X38156Y13169D1*
G1X37531Y13794D1*
G1X37531Y21921D1*
G1X1539Y21921D1*
G1X1539Y1341D1*
G37*
G36*
G1X1539Y21921D2*
G1X37531Y21921D1*
G1X37531Y23167D1*
G1X37912Y24085D1*
G1X38615Y24789D1*
G1X39534Y25169D1*
G1X40450Y25169D1*
G1X40334Y26769D1*
G1X40887Y28434D1*
G1X41728Y28573D1*
G1X42231Y28070D1*
G1X42474Y28312D1*
G1X43131Y28584D1*
G1X42435Y29280D1*
G1X42574Y30121D1*
G1X43602Y30547D1*
G1X45352Y30674D1*
G1X47017Y30121D1*
G1X47156Y29280D1*
G1X46460Y28584D1*
G1X47117Y28312D1*
G1X47360Y28070D1*
G1X47863Y28573D1*
G1X48704Y28434D1*
G1X49130Y27405D1*
G1X49256Y25656D1*
G1X49095Y25169D1*
G1X50056Y25169D1*
G1X50975Y24789D1*
G1X51678Y24085D1*
G1X52059Y23167D1*
G1X52059Y21921D1*
G1X72020Y21921D1*
G1X72020Y23167D1*
G1X72400Y24085D1*
G1X73104Y24789D1*
G1X74022Y25169D1*
G1X74938Y25169D1*
G1X74822Y26769D1*
G1X75375Y28434D1*
G1X76216Y28573D1*
G1X76719Y28070D1*
G1X76962Y28312D1*
G1X77619Y28584D1*
G1X76923Y29280D1*
G1X77062Y30121D1*
G1X78091Y30547D1*
G1X79840Y30674D1*
G1X81505Y30121D1*
G1X81644Y29280D1*
G1X80948Y28584D1*
G1X81605Y28312D1*
G1X81848Y28070D1*
G1X82351Y28573D1*
G1X83192Y28434D1*
G1X83618Y27405D1*
G1X83745Y25656D1*
G1X83583Y25169D1*
G1X84545Y25169D1*
G1X85463Y24789D1*
G1X86167Y24085D1*
G1X86547Y23167D1*
G1X86547Y21921D1*
G1X156139Y21921D1*
G1X156139Y37141D1*
G1X133039Y37141D1*
G1X132858Y37175D1*
G1X132691Y37283D1*
G1X132579Y37446D1*
G1X132539Y37641D1*
G1X132539Y77141D1*
G1X1539Y77141D1*
G1X1539Y21921D1*
G37*
G1X132539Y37641D2*
G1X132579Y37446D1*
G1X132691Y37283D1*
G1X132858Y37175D1*
G1X133039Y37141D1*
G1X156139Y37141D1*
G1X156139Y1341D1*
G1X86203Y1341D1*
G1X86547Y2172D1*
G1X86547Y11544D1*
G1X85922Y12169D1*
G1X79783Y12169D1*
G1X79783Y12091D1*
G1X78783Y12091D1*
G1X78783Y12169D1*
G1X72645Y12169D1*
G1X72020Y11544D1*
G1X72020Y2172D1*
G1X72364Y1341D1*
G1X51715Y1341D1*
G1X52059Y2172D1*
G1X52059Y11544D1*
G1X51434Y12169D1*
G1X45295Y12169D1*
G1X45295Y12091D1*
G1X44295Y12091D1*
G1X44295Y12169D1*
G1X38156Y12169D1*
G1X37531Y11544D1*
G1X37531Y2172D1*
G1X37876Y1341D1*
G1X1539Y1341D1*
G1X1539Y23167D1*
G1X37531Y23167D1*
G1X37531Y13794D1*
G1X38156Y13169D1*
G1X44295Y13169D1*
G1X44295Y13248D1*
G1X45295Y13248D1*
G1X45295Y13169D1*
G1X51434Y13169D1*
G1X52059Y13794D1*
G1X52059Y23167D1*
G1X72020Y23167D1*
G1X72020Y13794D1*
G1X72645Y13169D1*
G1X78783Y13169D1*
G1X78783Y13248D1*
G1X79783Y13248D1*
G1X79783Y13169D1*
G1X85922Y13169D1*
G1X86547Y13794D1*
G1X86547Y23167D1*
G1X86167Y24085D1*
G1X85463Y24789D1*
G1X84545Y25169D1*
G1X83583Y25169D1*
G1X83745Y25656D1*
G1X83618Y27405D1*
G1X83192Y28434D1*
G1X82351Y28573D1*
G1X81848Y28070D1*
G1X81605Y28312D1*
G1X80948Y28584D1*
G1X81644Y29280D1*
G1X81505Y30121D1*
G1X79840Y30674D1*
G1X78091Y30547D1*
G1X77062Y30121D1*
G1X76923Y29280D1*
G1X77619Y28584D1*
G1X76962Y28312D1*
G1X76719Y28070D1*
G1X76216Y28573D1*
G1X75375Y28434D1*
G1X74822Y26769D1*
G1X74938Y25169D1*
G1X74022Y25169D1*
G1X73104Y24789D1*
G1X72400Y24085D1*
G1X72020Y23167D1*
G1X52059Y23167D1*
G1X51678Y24085D1*
G1X50975Y24789D1*
G1X50056Y25169D1*
G1X49095Y25169D1*
G1X49256Y25656D1*
G1X49130Y27405D1*
G1X48704Y28434D1*
G1X47863Y28573D1*
G1X47360Y28070D1*
G1X47117Y28312D1*
G1X46460Y28584D1*
G1X47156Y29280D1*
G1X47017Y30121D1*
G1X45352Y30674D1*
G1X43602Y30547D1*
G1X42574Y30121D1*
G1X42435Y29280D1*
G1X43131Y28584D1*
G1X42474Y28312D1*
G1X42231Y28070D1*
G1X41728Y28573D1*
G1X40887Y28434D1*
G1X40334Y26769D1*
G1X40450Y25169D1*
G1X39534Y25169D1*
G1X38615Y24789D1*
G1X37912Y24085D1*
G1X37531Y23167D1*
G1X1539Y23167D1*
G1X1539Y77141D1*
G1X132539Y77141D1*
G1X132539Y37641D1*
M2*
