*
%LPD*%
%LNChip Antenna-F.SilkS*%
%FSLAX25Y25*%
%MOIN*%
%AD*%
%AD*%
%ADD27C,0.005905512*%
G54D27*
%SRX1Y1I0.0J0.0*%
G1X148953Y48772D2*
G75*
G3X148953Y48772I-1114J0D1*
G74*
G1X156698Y38457D2*
G1X134178Y38457D1*
G1X156737Y77945D2*
G1X134178Y77945D1*
G1X134217Y77866D1*
G1X134178Y77906D2*
G1X134178Y38535D1*
G1X156776Y77906D2*
G1X156776Y38535D1*
G1X76850Y-19742D2*
G1X76850Y-15805D1*
G1X78350Y-15805D1*
G1X78725Y-15992D1*
G1X78912Y-16180D1*
G1X79100Y-16555D1*
G1X79100Y-17117D1*
G1X78912Y-17492D1*
G1X78725Y-17679D1*
G1X78350Y-17867D1*
G1X76850Y-17867D1*
G1X82849Y-19742D2*
G1X80600Y-19742D1*
G1X81724Y-19742D2*
G1X81724Y-15805D1*
G1X81349Y-16367D1*
G1X80974Y-16742D1*
G1X80600Y-16930D1*
G1X134889Y69085D2*
G1X134889Y73022D1*
G1X136389Y73022D1*
G1X136764Y72835D1*
G1X136952Y72647D1*
G1X137139Y72272D1*
G1X137139Y71710D1*
G1X136952Y71335D1*
G1X136764Y71147D1*
G1X136389Y70960D1*
G1X134889Y70960D1*
G1X138639Y72647D2*
G1X138826Y72835D1*
G1X139201Y73022D1*
G1X140139Y73022D1*
G1X140514Y72835D1*
G1X140701Y72647D1*
G1X140889Y72272D1*
G1X140889Y71897D1*
G1X140701Y71335D1*
G1X138451Y69085D1*
G1X140889Y69085D1*
M2*
