M48
INCH,TZ
FMAT,2
ICI,OFF
T01C.016
T02C.018
%
T01
G05
X394Y394
X1181Y394
X394Y1181
X394Y1969
X394Y2756
X394Y3543
X394Y4331
X394Y5118
X394Y5906
X394Y6693
X1181Y7480
X394Y7480
X1969Y394
X2756Y394
X1969Y7480
X2756Y7480
X3543Y2657
X3543Y1969
X3543Y1181
X3543Y394
X3839Y3248
X4331Y7480
X3543Y7480
X4626Y3248
X5512Y2657
X5512Y3248
X5709Y3839
X5906Y7480
X5118Y7480
X6791Y2657
X7087Y4035
X6398Y4035
X7480Y7480
X6693Y7480
X9055Y394
X9843Y394
X8858Y1181
X8858Y2067
X8858Y2854
X8661Y4035
X7874Y4035
X8268Y7480
X9547Y2854
X10335Y2854
X9547Y4035
X9055Y7480
X9843Y7480
X10630Y394
X11122Y2854
X11122Y4035
X10335Y4035
X10630Y7480
X12992Y394
X11417Y394
X12205Y394
X11909Y2854
X11811Y4035
X12205Y7480
X11417Y7480
X12500Y4035
X12598Y2854
X13780Y394
X14567Y394
X13878Y2854
X13287Y2854
X12992Y4331
X12992Y5118
X12992Y5906
X12992Y6693
X12992Y7480
X15354Y2756
X15354Y1969
X15354Y1181
X15354Y394
X14567Y2854
X15354Y3543
T02
X4480Y2621
X7928Y2621
M30
