G04 #@! TF.FileFunction,Legend,Top*
%FSLAX46Y46*%
G04 Gerber Fmt 4.6, Leading zero omitted, Abs format (unit mm)*
G04 Created by KiCad (PCBNEW 4.0.5) date 04/05/17 16:10:39*
%MOMM*%
%LPD*%
G01*
G04 APERTURE LIST*
%ADD10C,0.025400*%
%ADD11C,0.050000*%
%ADD12C,0.150000*%
G04 APERTURE END LIST*
D10*
D11*
X21553100Y5809500D02*
X21703100Y5809500D01*
X21703100Y5809500D02*
X21703100Y6084500D01*
X21703100Y6084500D02*
X21553100Y6084500D01*
X21553100Y6084500D02*
X21553100Y5809500D01*
X21378100Y5659500D02*
X21878100Y5659500D01*
X21878100Y5659500D02*
X21878100Y6659500D01*
X21878100Y6659500D02*
X21378100Y6659500D01*
X21378100Y6659500D02*
X21378100Y5659500D01*
D12*
X29469881Y1796405D02*
X28469881Y1796405D01*
X28469881Y2177358D01*
X28517500Y2272596D01*
X28565119Y2320215D01*
X28660357Y2367834D01*
X28803214Y2367834D01*
X28898452Y2320215D01*
X28946071Y2272596D01*
X28993690Y2177358D01*
X28993690Y1796405D01*
X29469881Y3320215D02*
X29469881Y2748786D01*
X29469881Y3034500D02*
X28469881Y3034500D01*
X28612738Y2939262D01*
X28707976Y2844024D01*
X28755595Y2748786D01*
X23580481Y5421405D02*
X22580481Y5421405D01*
X22580481Y5802358D01*
X22628100Y5897596D01*
X22675719Y5945215D01*
X22770957Y5992834D01*
X22913814Y5992834D01*
X23009052Y5945215D01*
X23056671Y5897596D01*
X23104290Y5802358D01*
X23104290Y5421405D01*
X22675719Y6373786D02*
X22628100Y6421405D01*
X22580481Y6516643D01*
X22580481Y6754739D01*
X22628100Y6849977D01*
X22675719Y6897596D01*
X22770957Y6945215D01*
X22866195Y6945215D01*
X23009052Y6897596D01*
X23580481Y6326167D01*
X23580481Y6945215D01*
X28195733Y5802333D02*
X28671924Y5802333D01*
X28100495Y5516619D02*
X28433828Y6516619D01*
X28767162Y5516619D01*
X29100495Y6040429D02*
X29433829Y6040429D01*
X29576686Y5516619D02*
X29100495Y5516619D01*
X29100495Y6516619D01*
X29576686Y6516619D01*
X30529067Y5516619D02*
X29957638Y5516619D01*
X30243352Y5516619D02*
X30243352Y6516619D01*
X30148114Y6373762D01*
X30052876Y6278524D01*
X29957638Y6230905D01*
M02*
