G04 #@! TF.FileFunction,Copper,L1,Top,Signal*
%FSLAX46Y46*%
G04 Gerber Fmt 4.6, Leading zero omitted, Abs format (unit mm)*
G04 Created by KiCad (PCBNEW 4.0.5) date 04/05/17 16:10:39*
%MOMM*%
%LPD*%
G01*
G04 APERTURE LIST*
%ADD10C,0.025400*%
%ADD11R,2.290000X5.080000*%
%ADD12R,2.420000X6.480000*%
%ADD13C,0.970000*%
%ADD14R,0.350000X0.300000*%
%ADD15R,34.925000X30.480000*%
%ADD16C,0.508000*%
%ADD17C,0.355600*%
%ADD18C,0.508000*%
%ADD19C,0.482600*%
%ADD20C,0.457200*%
%ADD21C,0.431800*%
%ADD22C,0.406400*%
%ADD23C,0.381000*%
G04 APERTURE END LIST*
D10*
D11*
X21907500Y2534500D03*
D12*
X17527500Y3234500D03*
X26287500Y3234500D03*
D13*
X17527500Y5974500D03*
X26287500Y5974500D03*
D14*
X21903100Y5909500D03*
X21903100Y6409500D03*
X21353100Y6409500D03*
X21353100Y5909500D03*
D15*
X25400000Y29591000D03*
D16*
X21170900Y6565900D03*
X21170900Y5753100D03*
D17*
X21903100Y6409500D02*
X21903100Y6561500D01*
D18*
X21907500Y6642100D02*
X21907500Y26098500D01*
X21907500Y6629400D02*
X21907500Y6642100D01*
D19*
X21907500Y6616700D02*
X21907500Y6629400D01*
D20*
X21907500Y6604000D02*
X21907500Y6616700D01*
D21*
X21907500Y6591300D02*
X21907500Y6604000D01*
D22*
X21907500Y6565900D02*
X21907500Y6591300D01*
D23*
X21903100Y6561500D02*
X21907500Y6565900D01*
D18*
X21907500Y26098500D02*
X25400000Y29591000D01*
D17*
X21903100Y5909500D02*
X21903100Y5757500D01*
D18*
X21907500Y5676900D02*
X21907500Y2534500D01*
X21907500Y5689600D02*
X21907500Y5676900D01*
D19*
X21907500Y5702300D02*
X21907500Y5689600D01*
D20*
X21907500Y5715000D02*
X21907500Y5702300D01*
D21*
X21907500Y5727700D02*
X21907500Y5715000D01*
D22*
X21907500Y5753100D02*
X21907500Y5727700D01*
D23*
X21903100Y5757500D02*
X21907500Y5753100D01*
D17*
X21353100Y6409500D02*
X21196700Y6565900D01*
X21196700Y6565900D02*
X21170900Y6565900D01*
X21353100Y5909500D02*
X21196700Y5753100D01*
X21196700Y5753100D02*
X21170900Y5753100D01*
M02*
