G04 #@! TF.FileFunction,Copper,L1,Top,Signal*
%FSLAX46Y46*%
G04 Gerber Fmt 4.6, Leading zero omitted, Abs format (unit mm)*
G04 Created by KiCad (PCBNEW 4.0.5) date Thursday, March 09, 2017 'PMt' 04:26:22 PM*
%MOMM*%
%LPD*%
G01*
G04 APERTURE LIST*
%ADD10C,0.100000*%
%ADD11R,1.800000X1.800000*%
%ADD12C,1.800000*%
%ADD13R,1.700000X1.700000*%
%ADD14O,1.700000X1.700000*%
%ADD15R,0.900000X1.200000*%
%ADD16C,0.600000*%
%ADD17C,1.524000*%
%ADD18C,1.270000*%
%ADD19C,1.016000*%
G04 APERTURE END LIST*
D10*
D11*
X156286200Y-110515400D03*
D12*
X156286200Y-107975400D03*
D11*
X156286200Y-120827800D03*
D12*
X156286200Y-118287800D03*
D11*
X156286200Y-130606800D03*
D12*
X156286200Y-128066800D03*
D11*
X166344600Y-110591600D03*
D12*
X166344600Y-108051600D03*
D11*
X166344600Y-120650000D03*
D12*
X166344600Y-118110000D03*
D11*
X166344600Y-130505200D03*
D12*
X166344600Y-127965200D03*
D11*
X176022000Y-110337600D03*
D12*
X176022000Y-107797600D03*
D11*
X176123600Y-120370600D03*
D12*
X176123600Y-117830600D03*
D11*
X176377600Y-130327400D03*
D12*
X176377600Y-127787400D03*
D11*
X186613800Y-110159800D03*
D12*
X186613800Y-107619800D03*
D11*
X186867800Y-120192800D03*
D12*
X186867800Y-117652800D03*
D11*
X186867800Y-130251200D03*
D12*
X186867800Y-127711200D03*
D11*
X196824600Y-110159800D03*
D12*
X196824600Y-107619800D03*
D11*
X196850000Y-120015000D03*
D12*
X196850000Y-117475000D03*
D11*
X196977000Y-130302000D03*
D12*
X196977000Y-127762000D03*
D11*
X207391000Y-109982000D03*
D12*
X207391000Y-107442000D03*
D11*
X207645000Y-119888000D03*
D12*
X207645000Y-117348000D03*
D11*
X207899000Y-130175000D03*
D12*
X207899000Y-127635000D03*
D13*
X146812000Y-100330000D03*
D14*
X146812000Y-102870000D03*
D15*
X156337000Y-135171000D03*
X156337000Y-137371000D03*
X166370000Y-135044000D03*
X166370000Y-137244000D03*
X176403000Y-134917000D03*
X176403000Y-137117000D03*
X186944000Y-134790000D03*
X186944000Y-136990000D03*
X196977000Y-134536000D03*
X196977000Y-136736000D03*
X208026000Y-134409000D03*
X208026000Y-136609000D03*
D16*
X208102200Y-138760200D03*
X197078600Y-138760200D03*
X186918600Y-138912600D03*
X176479200Y-139039600D03*
X166420800Y-139141200D03*
X156362400Y-139242800D03*
D17*
X156286200Y-110515400D02*
X156286200Y-118287800D01*
X156286200Y-107975400D02*
X156286200Y-104343200D01*
X156286200Y-104343200D02*
X152273000Y-100330000D01*
X166344600Y-108051600D02*
X166344600Y-104114600D01*
X166344600Y-104114600D02*
X162560000Y-100330000D01*
X176022000Y-107797600D02*
X176022000Y-103759000D01*
X176022000Y-103759000D02*
X172593000Y-100330000D01*
X186613800Y-107619800D02*
X186613800Y-104063800D01*
X186613800Y-104063800D02*
X182880000Y-100330000D01*
X196824600Y-107619800D02*
X196824600Y-103606600D01*
X196824600Y-103606600D02*
X193548000Y-100330000D01*
X146812000Y-100330000D02*
X152273000Y-100330000D01*
X152273000Y-100330000D02*
X162560000Y-100330000D01*
X162560000Y-100330000D02*
X172593000Y-100330000D01*
X172593000Y-100330000D02*
X182880000Y-100330000D01*
X182880000Y-100330000D02*
X193548000Y-100330000D01*
X193548000Y-100330000D02*
X204216000Y-100330000D01*
X207391000Y-103505000D02*
X207391000Y-107442000D01*
X204216000Y-100330000D02*
X207391000Y-103505000D01*
X156286200Y-120827800D02*
X156286200Y-128066800D01*
D18*
X156286200Y-130606800D02*
X156286200Y-135120200D01*
X156286200Y-135120200D02*
X156337000Y-135171000D01*
D17*
X166344600Y-110591600D02*
X166344600Y-118110000D01*
X166344600Y-120650000D02*
X166344600Y-127965200D01*
D18*
X166370000Y-135044000D02*
X166370000Y-130530600D01*
X166370000Y-130530600D02*
X166344600Y-130505200D01*
D17*
X176022000Y-110337600D02*
X176022000Y-117729000D01*
X176022000Y-117729000D02*
X176123600Y-117830600D01*
X176123600Y-120370600D02*
X176123600Y-127533400D01*
X176123600Y-127533400D02*
X176377600Y-127787400D01*
D18*
X176403000Y-134917000D02*
X176403000Y-130352800D01*
X176403000Y-130352800D02*
X176377600Y-130327400D01*
D17*
X186613800Y-110159800D02*
X186613800Y-117398800D01*
X186613800Y-117398800D02*
X186867800Y-117652800D01*
X186867800Y-120192800D02*
X186867800Y-127711200D01*
D18*
X186944000Y-134790000D02*
X186944000Y-130327400D01*
X186944000Y-130327400D02*
X186867800Y-130251200D01*
D17*
X196824600Y-110159800D02*
X196824600Y-117449600D01*
X196824600Y-117449600D02*
X196850000Y-117475000D01*
X196850000Y-120015000D02*
X196850000Y-127635000D01*
X196850000Y-127635000D02*
X196977000Y-127762000D01*
D18*
X196977000Y-134536000D02*
X196977000Y-130302000D01*
D17*
X207391000Y-109982000D02*
X207391000Y-117094000D01*
X207391000Y-117094000D02*
X207645000Y-117348000D01*
X207645000Y-119888000D02*
X207645000Y-127381000D01*
X207645000Y-127381000D02*
X207899000Y-127635000D01*
D18*
X208026000Y-134409000D02*
X208026000Y-130302000D01*
X208026000Y-130302000D02*
X207899000Y-130175000D01*
D19*
X208026000Y-136609000D02*
X208026000Y-138684000D01*
X208026000Y-138684000D02*
X208102200Y-138760200D01*
X196977000Y-136736000D02*
X196977000Y-138658600D01*
X196977000Y-138658600D02*
X197078600Y-138760200D01*
X186944000Y-136990000D02*
X186944000Y-138887200D01*
X186944000Y-138887200D02*
X186918600Y-138912600D01*
X176403000Y-137117000D02*
X176403000Y-138963400D01*
X176403000Y-138963400D02*
X176479200Y-139039600D01*
X166370000Y-137244000D02*
X166370000Y-139090400D01*
X166370000Y-139090400D02*
X166420800Y-139141200D01*
X156337000Y-137371000D02*
X156337000Y-139217400D01*
X156337000Y-139217400D02*
X156362400Y-139242800D01*
M02*
