G04 #@! TF.FileFunction,Copper,L2,Bot,Signal*
%FSLAX46Y46*%
G04 Gerber Fmt 4.6, Leading zero omitted, Abs format (unit mm)*
G04 Created by KiCad (PCBNEW 4.0.5) date Thursday, March 09, 2017 'PMt' 04:26:22 PM*
%MOMM*%
%LPD*%
G01*
G04 APERTURE LIST*
%ADD10C,0.100000*%
%ADD11R,1.800000X1.800000*%
%ADD12C,1.800000*%
%ADD13R,1.700000X1.700000*%
%ADD14O,1.700000X1.700000*%
%ADD15C,0.600000*%
%ADD16C,1.016000*%
%ADD17C,0.254000*%
G04 APERTURE END LIST*
D10*
D11*
X156286200Y-110515400D03*
D12*
X156286200Y-107975400D03*
D11*
X156286200Y-120827800D03*
D12*
X156286200Y-118287800D03*
D11*
X156286200Y-130606800D03*
D12*
X156286200Y-128066800D03*
D11*
X166344600Y-110591600D03*
D12*
X166344600Y-108051600D03*
D11*
X166344600Y-120650000D03*
D12*
X166344600Y-118110000D03*
D11*
X166344600Y-130505200D03*
D12*
X166344600Y-127965200D03*
D11*
X176022000Y-110337600D03*
D12*
X176022000Y-107797600D03*
D11*
X176123600Y-120370600D03*
D12*
X176123600Y-117830600D03*
D11*
X176377600Y-130327400D03*
D12*
X176377600Y-127787400D03*
D11*
X186613800Y-110159800D03*
D12*
X186613800Y-107619800D03*
D11*
X186867800Y-120192800D03*
D12*
X186867800Y-117652800D03*
D11*
X186867800Y-130251200D03*
D12*
X186867800Y-127711200D03*
D11*
X196824600Y-110159800D03*
D12*
X196824600Y-107619800D03*
D11*
X196850000Y-120015000D03*
D12*
X196850000Y-117475000D03*
D11*
X196977000Y-130302000D03*
D12*
X196977000Y-127762000D03*
D11*
X207391000Y-109982000D03*
D12*
X207391000Y-107442000D03*
D11*
X207645000Y-119888000D03*
D12*
X207645000Y-117348000D03*
D11*
X207899000Y-130175000D03*
D12*
X207899000Y-127635000D03*
D13*
X146812000Y-100330000D03*
D14*
X146812000Y-102870000D03*
D15*
X208102200Y-138760200D03*
X197078600Y-138760200D03*
X186918600Y-138912600D03*
X176479200Y-139039600D03*
X166420800Y-139141200D03*
X156362400Y-139242800D03*
D16*
X186918600Y-138912600D02*
X186918600Y-138861800D01*
X176479200Y-139039600D02*
X176403000Y-138963400D01*
X166420800Y-139141200D02*
X166370000Y-139090400D01*
X166370000Y-139090400D02*
X166344600Y-139090400D01*
X156413200Y-139192000D02*
X156464000Y-139192000D01*
X156362400Y-139242800D02*
X156413200Y-139192000D01*
D17*
G36*
X216104400Y-141530000D02*
X138099861Y-141530000D01*
X138066705Y-141507846D01*
X137946200Y-141483876D01*
X137946200Y-129706800D01*
X154738760Y-129706800D01*
X154738760Y-131506800D01*
X154783038Y-131742117D01*
X154922110Y-131958241D01*
X155134310Y-132103231D01*
X155386200Y-132154240D01*
X157186200Y-132154240D01*
X157421517Y-132109962D01*
X157637641Y-131970890D01*
X157782631Y-131758690D01*
X157833640Y-131506800D01*
X157833640Y-129706800D01*
X157814523Y-129605200D01*
X164797160Y-129605200D01*
X164797160Y-131405200D01*
X164841438Y-131640517D01*
X164980510Y-131856641D01*
X165192710Y-132001631D01*
X165444600Y-132052640D01*
X167244600Y-132052640D01*
X167479917Y-132008362D01*
X167696041Y-131869290D01*
X167841031Y-131657090D01*
X167892040Y-131405200D01*
X167892040Y-129605200D01*
X167858585Y-129427400D01*
X174830160Y-129427400D01*
X174830160Y-131227400D01*
X174874438Y-131462717D01*
X175013510Y-131678841D01*
X175225710Y-131823831D01*
X175477600Y-131874840D01*
X177277600Y-131874840D01*
X177512917Y-131830562D01*
X177729041Y-131691490D01*
X177874031Y-131479290D01*
X177925040Y-131227400D01*
X177925040Y-129427400D01*
X177910702Y-129351200D01*
X185320360Y-129351200D01*
X185320360Y-131151200D01*
X185364638Y-131386517D01*
X185503710Y-131602641D01*
X185715910Y-131747631D01*
X185967800Y-131798640D01*
X187767800Y-131798640D01*
X188003117Y-131754362D01*
X188219241Y-131615290D01*
X188364231Y-131403090D01*
X188415240Y-131151200D01*
X188415240Y-129402000D01*
X195429560Y-129402000D01*
X195429560Y-131202000D01*
X195473838Y-131437317D01*
X195612910Y-131653441D01*
X195825110Y-131798431D01*
X196077000Y-131849440D01*
X197877000Y-131849440D01*
X198112317Y-131805162D01*
X198328441Y-131666090D01*
X198473431Y-131453890D01*
X198524440Y-131202000D01*
X198524440Y-129402000D01*
X198500544Y-129275000D01*
X206351560Y-129275000D01*
X206351560Y-131075000D01*
X206395838Y-131310317D01*
X206534910Y-131526441D01*
X206747110Y-131671431D01*
X206999000Y-131722440D01*
X208799000Y-131722440D01*
X209034317Y-131678162D01*
X209250441Y-131539090D01*
X209395431Y-131326890D01*
X209446440Y-131075000D01*
X209446440Y-129275000D01*
X209402162Y-129039683D01*
X209263090Y-128823559D01*
X209050890Y-128678569D01*
X209030466Y-128674433D01*
X209199551Y-128505643D01*
X209433733Y-127941670D01*
X209434265Y-127331009D01*
X209201068Y-126766629D01*
X208769643Y-126334449D01*
X208205670Y-126100267D01*
X207595009Y-126099735D01*
X207030629Y-126332932D01*
X206598449Y-126764357D01*
X206364267Y-127328330D01*
X206363735Y-127938991D01*
X206596932Y-128503371D01*
X206764880Y-128671613D01*
X206763683Y-128671838D01*
X206547559Y-128810910D01*
X206402569Y-129023110D01*
X206351560Y-129275000D01*
X198500544Y-129275000D01*
X198480162Y-129166683D01*
X198341090Y-128950559D01*
X198128890Y-128805569D01*
X198108466Y-128801433D01*
X198277551Y-128632643D01*
X198511733Y-128068670D01*
X198512265Y-127458009D01*
X198279068Y-126893629D01*
X197847643Y-126461449D01*
X197283670Y-126227267D01*
X196673009Y-126226735D01*
X196108629Y-126459932D01*
X195676449Y-126891357D01*
X195442267Y-127455330D01*
X195441735Y-128065991D01*
X195674932Y-128630371D01*
X195842880Y-128798613D01*
X195841683Y-128798838D01*
X195625559Y-128937910D01*
X195480569Y-129150110D01*
X195429560Y-129402000D01*
X188415240Y-129402000D01*
X188415240Y-129351200D01*
X188370962Y-129115883D01*
X188231890Y-128899759D01*
X188019690Y-128754769D01*
X187999266Y-128750633D01*
X188168351Y-128581843D01*
X188402533Y-128017870D01*
X188403065Y-127407209D01*
X188169868Y-126842829D01*
X187738443Y-126410649D01*
X187174470Y-126176467D01*
X186563809Y-126175935D01*
X185999429Y-126409132D01*
X185567249Y-126840557D01*
X185333067Y-127404530D01*
X185332535Y-128015191D01*
X185565732Y-128579571D01*
X185733680Y-128747813D01*
X185732483Y-128748038D01*
X185516359Y-128887110D01*
X185371369Y-129099310D01*
X185320360Y-129351200D01*
X177910702Y-129351200D01*
X177880762Y-129192083D01*
X177741690Y-128975959D01*
X177529490Y-128830969D01*
X177509066Y-128826833D01*
X177678151Y-128658043D01*
X177912333Y-128094070D01*
X177912865Y-127483409D01*
X177679668Y-126919029D01*
X177248243Y-126486849D01*
X176684270Y-126252667D01*
X176073609Y-126252135D01*
X175509229Y-126485332D01*
X175077049Y-126916757D01*
X174842867Y-127480730D01*
X174842335Y-128091391D01*
X175075532Y-128655771D01*
X175243480Y-128824013D01*
X175242283Y-128824238D01*
X175026159Y-128963310D01*
X174881169Y-129175510D01*
X174830160Y-129427400D01*
X167858585Y-129427400D01*
X167847762Y-129369883D01*
X167708690Y-129153759D01*
X167496490Y-129008769D01*
X167476066Y-129004633D01*
X167645151Y-128835843D01*
X167879333Y-128271870D01*
X167879865Y-127661209D01*
X167646668Y-127096829D01*
X167215243Y-126664649D01*
X166651270Y-126430467D01*
X166040609Y-126429935D01*
X165476229Y-126663132D01*
X165044049Y-127094557D01*
X164809867Y-127658530D01*
X164809335Y-128269191D01*
X165042532Y-128833571D01*
X165210480Y-129001813D01*
X165209283Y-129002038D01*
X164993159Y-129141110D01*
X164848169Y-129353310D01*
X164797160Y-129605200D01*
X157814523Y-129605200D01*
X157789362Y-129471483D01*
X157650290Y-129255359D01*
X157438090Y-129110369D01*
X157417666Y-129106233D01*
X157586751Y-128937443D01*
X157820933Y-128373470D01*
X157821465Y-127762809D01*
X157588268Y-127198429D01*
X157156843Y-126766249D01*
X156592870Y-126532067D01*
X155982209Y-126531535D01*
X155417829Y-126764732D01*
X154985649Y-127196157D01*
X154751467Y-127760130D01*
X154750935Y-128370791D01*
X154984132Y-128935171D01*
X155152080Y-129103413D01*
X155150883Y-129103638D01*
X154934759Y-129242710D01*
X154789769Y-129454910D01*
X154738760Y-129706800D01*
X137946200Y-129706800D01*
X137946200Y-119927800D01*
X154738760Y-119927800D01*
X154738760Y-121727800D01*
X154783038Y-121963117D01*
X154922110Y-122179241D01*
X155134310Y-122324231D01*
X155386200Y-122375240D01*
X157186200Y-122375240D01*
X157421517Y-122330962D01*
X157637641Y-122191890D01*
X157782631Y-121979690D01*
X157833640Y-121727800D01*
X157833640Y-119927800D01*
X157800185Y-119750000D01*
X164797160Y-119750000D01*
X164797160Y-121550000D01*
X164841438Y-121785317D01*
X164980510Y-122001441D01*
X165192710Y-122146431D01*
X165444600Y-122197440D01*
X167244600Y-122197440D01*
X167479917Y-122153162D01*
X167696041Y-122014090D01*
X167841031Y-121801890D01*
X167892040Y-121550000D01*
X167892040Y-119750000D01*
X167847762Y-119514683D01*
X167819396Y-119470600D01*
X174576160Y-119470600D01*
X174576160Y-121270600D01*
X174620438Y-121505917D01*
X174759510Y-121722041D01*
X174971710Y-121867031D01*
X175223600Y-121918040D01*
X177023600Y-121918040D01*
X177258917Y-121873762D01*
X177475041Y-121734690D01*
X177620031Y-121522490D01*
X177671040Y-121270600D01*
X177671040Y-119470600D01*
X177637585Y-119292800D01*
X185320360Y-119292800D01*
X185320360Y-121092800D01*
X185364638Y-121328117D01*
X185503710Y-121544241D01*
X185715910Y-121689231D01*
X185967800Y-121740240D01*
X187767800Y-121740240D01*
X188003117Y-121695962D01*
X188219241Y-121556890D01*
X188364231Y-121344690D01*
X188415240Y-121092800D01*
X188415240Y-119292800D01*
X188381785Y-119115000D01*
X195302560Y-119115000D01*
X195302560Y-120915000D01*
X195346838Y-121150317D01*
X195485910Y-121366441D01*
X195698110Y-121511431D01*
X195950000Y-121562440D01*
X197750000Y-121562440D01*
X197985317Y-121518162D01*
X198201441Y-121379090D01*
X198346431Y-121166890D01*
X198397440Y-120915000D01*
X198397440Y-119115000D01*
X198373544Y-118988000D01*
X206097560Y-118988000D01*
X206097560Y-120788000D01*
X206141838Y-121023317D01*
X206280910Y-121239441D01*
X206493110Y-121384431D01*
X206745000Y-121435440D01*
X208545000Y-121435440D01*
X208780317Y-121391162D01*
X208996441Y-121252090D01*
X209141431Y-121039890D01*
X209192440Y-120788000D01*
X209192440Y-118988000D01*
X209148162Y-118752683D01*
X209009090Y-118536559D01*
X208796890Y-118391569D01*
X208776466Y-118387433D01*
X208945551Y-118218643D01*
X209179733Y-117654670D01*
X209180265Y-117044009D01*
X208947068Y-116479629D01*
X208515643Y-116047449D01*
X207951670Y-115813267D01*
X207341009Y-115812735D01*
X206776629Y-116045932D01*
X206344449Y-116477357D01*
X206110267Y-117041330D01*
X206109735Y-117651991D01*
X206342932Y-118216371D01*
X206510880Y-118384613D01*
X206509683Y-118384838D01*
X206293559Y-118523910D01*
X206148569Y-118736110D01*
X206097560Y-118988000D01*
X198373544Y-118988000D01*
X198353162Y-118879683D01*
X198214090Y-118663559D01*
X198001890Y-118518569D01*
X197981466Y-118514433D01*
X198150551Y-118345643D01*
X198384733Y-117781670D01*
X198385265Y-117171009D01*
X198152068Y-116606629D01*
X197720643Y-116174449D01*
X197156670Y-115940267D01*
X196546009Y-115939735D01*
X195981629Y-116172932D01*
X195549449Y-116604357D01*
X195315267Y-117168330D01*
X195314735Y-117778991D01*
X195547932Y-118343371D01*
X195715880Y-118511613D01*
X195714683Y-118511838D01*
X195498559Y-118650910D01*
X195353569Y-118863110D01*
X195302560Y-119115000D01*
X188381785Y-119115000D01*
X188370962Y-119057483D01*
X188231890Y-118841359D01*
X188019690Y-118696369D01*
X187999266Y-118692233D01*
X188168351Y-118523443D01*
X188402533Y-117959470D01*
X188403065Y-117348809D01*
X188169868Y-116784429D01*
X187738443Y-116352249D01*
X187174470Y-116118067D01*
X186563809Y-116117535D01*
X185999429Y-116350732D01*
X185567249Y-116782157D01*
X185333067Y-117346130D01*
X185332535Y-117956791D01*
X185565732Y-118521171D01*
X185733680Y-118689413D01*
X185732483Y-118689638D01*
X185516359Y-118828710D01*
X185371369Y-119040910D01*
X185320360Y-119292800D01*
X177637585Y-119292800D01*
X177626762Y-119235283D01*
X177487690Y-119019159D01*
X177275490Y-118874169D01*
X177255066Y-118870033D01*
X177424151Y-118701243D01*
X177658333Y-118137270D01*
X177658865Y-117526609D01*
X177425668Y-116962229D01*
X176994243Y-116530049D01*
X176430270Y-116295867D01*
X175819609Y-116295335D01*
X175255229Y-116528532D01*
X174823049Y-116959957D01*
X174588867Y-117523930D01*
X174588335Y-118134591D01*
X174821532Y-118698971D01*
X174989480Y-118867213D01*
X174988283Y-118867438D01*
X174772159Y-119006510D01*
X174627169Y-119218710D01*
X174576160Y-119470600D01*
X167819396Y-119470600D01*
X167708690Y-119298559D01*
X167496490Y-119153569D01*
X167476066Y-119149433D01*
X167645151Y-118980643D01*
X167879333Y-118416670D01*
X167879865Y-117806009D01*
X167646668Y-117241629D01*
X167215243Y-116809449D01*
X166651270Y-116575267D01*
X166040609Y-116574735D01*
X165476229Y-116807932D01*
X165044049Y-117239357D01*
X164809867Y-117803330D01*
X164809335Y-118413991D01*
X165042532Y-118978371D01*
X165210480Y-119146613D01*
X165209283Y-119146838D01*
X164993159Y-119285910D01*
X164848169Y-119498110D01*
X164797160Y-119750000D01*
X157800185Y-119750000D01*
X157789362Y-119692483D01*
X157650290Y-119476359D01*
X157438090Y-119331369D01*
X157417666Y-119327233D01*
X157586751Y-119158443D01*
X157820933Y-118594470D01*
X157821465Y-117983809D01*
X157588268Y-117419429D01*
X157156843Y-116987249D01*
X156592870Y-116753067D01*
X155982209Y-116752535D01*
X155417829Y-116985732D01*
X154985649Y-117417157D01*
X154751467Y-117981130D01*
X154750935Y-118591791D01*
X154984132Y-119156171D01*
X155152080Y-119324413D01*
X155150883Y-119324638D01*
X154934759Y-119463710D01*
X154789769Y-119675910D01*
X154738760Y-119927800D01*
X137946200Y-119927800D01*
X137946200Y-109615400D01*
X154738760Y-109615400D01*
X154738760Y-111415400D01*
X154783038Y-111650717D01*
X154922110Y-111866841D01*
X155134310Y-112011831D01*
X155386200Y-112062840D01*
X157186200Y-112062840D01*
X157421517Y-112018562D01*
X157637641Y-111879490D01*
X157782631Y-111667290D01*
X157833640Y-111415400D01*
X157833640Y-109691600D01*
X164797160Y-109691600D01*
X164797160Y-111491600D01*
X164841438Y-111726917D01*
X164980510Y-111943041D01*
X165192710Y-112088031D01*
X165444600Y-112139040D01*
X167244600Y-112139040D01*
X167479917Y-112094762D01*
X167696041Y-111955690D01*
X167841031Y-111743490D01*
X167892040Y-111491600D01*
X167892040Y-109691600D01*
X167847762Y-109456283D01*
X167835740Y-109437600D01*
X174474560Y-109437600D01*
X174474560Y-111237600D01*
X174518838Y-111472917D01*
X174657910Y-111689041D01*
X174870110Y-111834031D01*
X175122000Y-111885040D01*
X176922000Y-111885040D01*
X177157317Y-111840762D01*
X177373441Y-111701690D01*
X177518431Y-111489490D01*
X177569440Y-111237600D01*
X177569440Y-109437600D01*
X177535985Y-109259800D01*
X185066360Y-109259800D01*
X185066360Y-111059800D01*
X185110638Y-111295117D01*
X185249710Y-111511241D01*
X185461910Y-111656231D01*
X185713800Y-111707240D01*
X187513800Y-111707240D01*
X187749117Y-111662962D01*
X187965241Y-111523890D01*
X188110231Y-111311690D01*
X188161240Y-111059800D01*
X188161240Y-109259800D01*
X195277160Y-109259800D01*
X195277160Y-111059800D01*
X195321438Y-111295117D01*
X195460510Y-111511241D01*
X195672710Y-111656231D01*
X195924600Y-111707240D01*
X197724600Y-111707240D01*
X197959917Y-111662962D01*
X198176041Y-111523890D01*
X198321031Y-111311690D01*
X198372040Y-111059800D01*
X198372040Y-109259800D01*
X198338585Y-109082000D01*
X205843560Y-109082000D01*
X205843560Y-110882000D01*
X205887838Y-111117317D01*
X206026910Y-111333441D01*
X206239110Y-111478431D01*
X206491000Y-111529440D01*
X208291000Y-111529440D01*
X208526317Y-111485162D01*
X208742441Y-111346090D01*
X208887431Y-111133890D01*
X208938440Y-110882000D01*
X208938440Y-109082000D01*
X208894162Y-108846683D01*
X208755090Y-108630559D01*
X208542890Y-108485569D01*
X208522466Y-108481433D01*
X208691551Y-108312643D01*
X208925733Y-107748670D01*
X208926265Y-107138009D01*
X208693068Y-106573629D01*
X208261643Y-106141449D01*
X207697670Y-105907267D01*
X207087009Y-105906735D01*
X206522629Y-106139932D01*
X206090449Y-106571357D01*
X205856267Y-107135330D01*
X205855735Y-107745991D01*
X206088932Y-108310371D01*
X206256880Y-108478613D01*
X206255683Y-108478838D01*
X206039559Y-108617910D01*
X205894569Y-108830110D01*
X205843560Y-109082000D01*
X198338585Y-109082000D01*
X198327762Y-109024483D01*
X198188690Y-108808359D01*
X197976490Y-108663369D01*
X197956066Y-108659233D01*
X198125151Y-108490443D01*
X198359333Y-107926470D01*
X198359865Y-107315809D01*
X198126668Y-106751429D01*
X197695243Y-106319249D01*
X197131270Y-106085067D01*
X196520609Y-106084535D01*
X195956229Y-106317732D01*
X195524049Y-106749157D01*
X195289867Y-107313130D01*
X195289335Y-107923791D01*
X195522532Y-108488171D01*
X195690480Y-108656413D01*
X195689283Y-108656638D01*
X195473159Y-108795710D01*
X195328169Y-109007910D01*
X195277160Y-109259800D01*
X188161240Y-109259800D01*
X188116962Y-109024483D01*
X187977890Y-108808359D01*
X187765690Y-108663369D01*
X187745266Y-108659233D01*
X187914351Y-108490443D01*
X188148533Y-107926470D01*
X188149065Y-107315809D01*
X187915868Y-106751429D01*
X187484443Y-106319249D01*
X186920470Y-106085067D01*
X186309809Y-106084535D01*
X185745429Y-106317732D01*
X185313249Y-106749157D01*
X185079067Y-107313130D01*
X185078535Y-107923791D01*
X185311732Y-108488171D01*
X185479680Y-108656413D01*
X185478483Y-108656638D01*
X185262359Y-108795710D01*
X185117369Y-109007910D01*
X185066360Y-109259800D01*
X177535985Y-109259800D01*
X177525162Y-109202283D01*
X177386090Y-108986159D01*
X177173890Y-108841169D01*
X177153466Y-108837033D01*
X177322551Y-108668243D01*
X177556733Y-108104270D01*
X177557265Y-107493609D01*
X177324068Y-106929229D01*
X176892643Y-106497049D01*
X176328670Y-106262867D01*
X175718009Y-106262335D01*
X175153629Y-106495532D01*
X174721449Y-106926957D01*
X174487267Y-107490930D01*
X174486735Y-108101591D01*
X174719932Y-108665971D01*
X174887880Y-108834213D01*
X174886683Y-108834438D01*
X174670559Y-108973510D01*
X174525569Y-109185710D01*
X174474560Y-109437600D01*
X167835740Y-109437600D01*
X167708690Y-109240159D01*
X167496490Y-109095169D01*
X167476066Y-109091033D01*
X167645151Y-108922243D01*
X167879333Y-108358270D01*
X167879865Y-107747609D01*
X167646668Y-107183229D01*
X167215243Y-106751049D01*
X166651270Y-106516867D01*
X166040609Y-106516335D01*
X165476229Y-106749532D01*
X165044049Y-107180957D01*
X164809867Y-107744930D01*
X164809335Y-108355591D01*
X165042532Y-108919971D01*
X165210480Y-109088213D01*
X165209283Y-109088438D01*
X164993159Y-109227510D01*
X164848169Y-109439710D01*
X164797160Y-109691600D01*
X157833640Y-109691600D01*
X157833640Y-109615400D01*
X157789362Y-109380083D01*
X157650290Y-109163959D01*
X157438090Y-109018969D01*
X157417666Y-109014833D01*
X157586751Y-108846043D01*
X157820933Y-108282070D01*
X157821465Y-107671409D01*
X157588268Y-107107029D01*
X157156843Y-106674849D01*
X156592870Y-106440667D01*
X155982209Y-106440135D01*
X155417829Y-106673332D01*
X154985649Y-107104757D01*
X154751467Y-107668730D01*
X154750935Y-108279391D01*
X154984132Y-108843771D01*
X155152080Y-109012013D01*
X155150883Y-109012238D01*
X154934759Y-109151310D01*
X154789769Y-109363510D01*
X154738760Y-109615400D01*
X137946200Y-109615400D01*
X137946200Y-103226890D01*
X145370524Y-103226890D01*
X145540355Y-103636924D01*
X145930642Y-104065183D01*
X146455108Y-104311486D01*
X146685000Y-104190819D01*
X146685000Y-102997000D01*
X146939000Y-102997000D01*
X146939000Y-104190819D01*
X147168892Y-104311486D01*
X147693358Y-104065183D01*
X148083645Y-103636924D01*
X148253476Y-103226890D01*
X148132155Y-102997000D01*
X146939000Y-102997000D01*
X146685000Y-102997000D01*
X145491845Y-102997000D01*
X145370524Y-103226890D01*
X137946200Y-103226890D01*
X137946200Y-99480000D01*
X145314560Y-99480000D01*
X145314560Y-101180000D01*
X145358838Y-101415317D01*
X145497910Y-101631441D01*
X145710110Y-101776431D01*
X145818107Y-101798301D01*
X145540355Y-102103076D01*
X145370524Y-102513110D01*
X145491845Y-102743000D01*
X146685000Y-102743000D01*
X146685000Y-102723000D01*
X146939000Y-102723000D01*
X146939000Y-102743000D01*
X148132155Y-102743000D01*
X148253476Y-102513110D01*
X148083645Y-102103076D01*
X147807499Y-101800063D01*
X147897317Y-101783162D01*
X148113441Y-101644090D01*
X148258431Y-101431890D01*
X148309440Y-101180000D01*
X148309440Y-99480000D01*
X148265162Y-99244683D01*
X148126090Y-99028559D01*
X147913890Y-98883569D01*
X147662000Y-98832560D01*
X145962000Y-98832560D01*
X145726683Y-98876838D01*
X145510559Y-99015910D01*
X145365569Y-99228110D01*
X145314560Y-99480000D01*
X137946200Y-99480000D01*
X137946200Y-94385200D01*
X216104400Y-94385200D01*
X216104400Y-141530000D01*
X216104400Y-141530000D01*
G37*
X216104400Y-141530000D02*
X138099861Y-141530000D01*
X138066705Y-141507846D01*
X137946200Y-141483876D01*
X137946200Y-129706800D01*
X154738760Y-129706800D01*
X154738760Y-131506800D01*
X154783038Y-131742117D01*
X154922110Y-131958241D01*
X155134310Y-132103231D01*
X155386200Y-132154240D01*
X157186200Y-132154240D01*
X157421517Y-132109962D01*
X157637641Y-131970890D01*
X157782631Y-131758690D01*
X157833640Y-131506800D01*
X157833640Y-129706800D01*
X157814523Y-129605200D01*
X164797160Y-129605200D01*
X164797160Y-131405200D01*
X164841438Y-131640517D01*
X164980510Y-131856641D01*
X165192710Y-132001631D01*
X165444600Y-132052640D01*
X167244600Y-132052640D01*
X167479917Y-132008362D01*
X167696041Y-131869290D01*
X167841031Y-131657090D01*
X167892040Y-131405200D01*
X167892040Y-129605200D01*
X167858585Y-129427400D01*
X174830160Y-129427400D01*
X174830160Y-131227400D01*
X174874438Y-131462717D01*
X175013510Y-131678841D01*
X175225710Y-131823831D01*
X175477600Y-131874840D01*
X177277600Y-131874840D01*
X177512917Y-131830562D01*
X177729041Y-131691490D01*
X177874031Y-131479290D01*
X177925040Y-131227400D01*
X177925040Y-129427400D01*
X177910702Y-129351200D01*
X185320360Y-129351200D01*
X185320360Y-131151200D01*
X185364638Y-131386517D01*
X185503710Y-131602641D01*
X185715910Y-131747631D01*
X185967800Y-131798640D01*
X187767800Y-131798640D01*
X188003117Y-131754362D01*
X188219241Y-131615290D01*
X188364231Y-131403090D01*
X188415240Y-131151200D01*
X188415240Y-129402000D01*
X195429560Y-129402000D01*
X195429560Y-131202000D01*
X195473838Y-131437317D01*
X195612910Y-131653441D01*
X195825110Y-131798431D01*
X196077000Y-131849440D01*
X197877000Y-131849440D01*
X198112317Y-131805162D01*
X198328441Y-131666090D01*
X198473431Y-131453890D01*
X198524440Y-131202000D01*
X198524440Y-129402000D01*
X198500544Y-129275000D01*
X206351560Y-129275000D01*
X206351560Y-131075000D01*
X206395838Y-131310317D01*
X206534910Y-131526441D01*
X206747110Y-131671431D01*
X206999000Y-131722440D01*
X208799000Y-131722440D01*
X209034317Y-131678162D01*
X209250441Y-131539090D01*
X209395431Y-131326890D01*
X209446440Y-131075000D01*
X209446440Y-129275000D01*
X209402162Y-129039683D01*
X209263090Y-128823559D01*
X209050890Y-128678569D01*
X209030466Y-128674433D01*
X209199551Y-128505643D01*
X209433733Y-127941670D01*
X209434265Y-127331009D01*
X209201068Y-126766629D01*
X208769643Y-126334449D01*
X208205670Y-126100267D01*
X207595009Y-126099735D01*
X207030629Y-126332932D01*
X206598449Y-126764357D01*
X206364267Y-127328330D01*
X206363735Y-127938991D01*
X206596932Y-128503371D01*
X206764880Y-128671613D01*
X206763683Y-128671838D01*
X206547559Y-128810910D01*
X206402569Y-129023110D01*
X206351560Y-129275000D01*
X198500544Y-129275000D01*
X198480162Y-129166683D01*
X198341090Y-128950559D01*
X198128890Y-128805569D01*
X198108466Y-128801433D01*
X198277551Y-128632643D01*
X198511733Y-128068670D01*
X198512265Y-127458009D01*
X198279068Y-126893629D01*
X197847643Y-126461449D01*
X197283670Y-126227267D01*
X196673009Y-126226735D01*
X196108629Y-126459932D01*
X195676449Y-126891357D01*
X195442267Y-127455330D01*
X195441735Y-128065991D01*
X195674932Y-128630371D01*
X195842880Y-128798613D01*
X195841683Y-128798838D01*
X195625559Y-128937910D01*
X195480569Y-129150110D01*
X195429560Y-129402000D01*
X188415240Y-129402000D01*
X188415240Y-129351200D01*
X188370962Y-129115883D01*
X188231890Y-128899759D01*
X188019690Y-128754769D01*
X187999266Y-128750633D01*
X188168351Y-128581843D01*
X188402533Y-128017870D01*
X188403065Y-127407209D01*
X188169868Y-126842829D01*
X187738443Y-126410649D01*
X187174470Y-126176467D01*
X186563809Y-126175935D01*
X185999429Y-126409132D01*
X185567249Y-126840557D01*
X185333067Y-127404530D01*
X185332535Y-128015191D01*
X185565732Y-128579571D01*
X185733680Y-128747813D01*
X185732483Y-128748038D01*
X185516359Y-128887110D01*
X185371369Y-129099310D01*
X185320360Y-129351200D01*
X177910702Y-129351200D01*
X177880762Y-129192083D01*
X177741690Y-128975959D01*
X177529490Y-128830969D01*
X177509066Y-128826833D01*
X177678151Y-128658043D01*
X177912333Y-128094070D01*
X177912865Y-127483409D01*
X177679668Y-126919029D01*
X177248243Y-126486849D01*
X176684270Y-126252667D01*
X176073609Y-126252135D01*
X175509229Y-126485332D01*
X175077049Y-126916757D01*
X174842867Y-127480730D01*
X174842335Y-128091391D01*
X175075532Y-128655771D01*
X175243480Y-128824013D01*
X175242283Y-128824238D01*
X175026159Y-128963310D01*
X174881169Y-129175510D01*
X174830160Y-129427400D01*
X167858585Y-129427400D01*
X167847762Y-129369883D01*
X167708690Y-129153759D01*
X167496490Y-129008769D01*
X167476066Y-129004633D01*
X167645151Y-128835843D01*
X167879333Y-128271870D01*
X167879865Y-127661209D01*
X167646668Y-127096829D01*
X167215243Y-126664649D01*
X166651270Y-126430467D01*
X166040609Y-126429935D01*
X165476229Y-126663132D01*
X165044049Y-127094557D01*
X164809867Y-127658530D01*
X164809335Y-128269191D01*
X165042532Y-128833571D01*
X165210480Y-129001813D01*
X165209283Y-129002038D01*
X164993159Y-129141110D01*
X164848169Y-129353310D01*
X164797160Y-129605200D01*
X157814523Y-129605200D01*
X157789362Y-129471483D01*
X157650290Y-129255359D01*
X157438090Y-129110369D01*
X157417666Y-129106233D01*
X157586751Y-128937443D01*
X157820933Y-128373470D01*
X157821465Y-127762809D01*
X157588268Y-127198429D01*
X157156843Y-126766249D01*
X156592870Y-126532067D01*
X155982209Y-126531535D01*
X155417829Y-126764732D01*
X154985649Y-127196157D01*
X154751467Y-127760130D01*
X154750935Y-128370791D01*
X154984132Y-128935171D01*
X155152080Y-129103413D01*
X155150883Y-129103638D01*
X154934759Y-129242710D01*
X154789769Y-129454910D01*
X154738760Y-129706800D01*
X137946200Y-129706800D01*
X137946200Y-119927800D01*
X154738760Y-119927800D01*
X154738760Y-121727800D01*
X154783038Y-121963117D01*
X154922110Y-122179241D01*
X155134310Y-122324231D01*
X155386200Y-122375240D01*
X157186200Y-122375240D01*
X157421517Y-122330962D01*
X157637641Y-122191890D01*
X157782631Y-121979690D01*
X157833640Y-121727800D01*
X157833640Y-119927800D01*
X157800185Y-119750000D01*
X164797160Y-119750000D01*
X164797160Y-121550000D01*
X164841438Y-121785317D01*
X164980510Y-122001441D01*
X165192710Y-122146431D01*
X165444600Y-122197440D01*
X167244600Y-122197440D01*
X167479917Y-122153162D01*
X167696041Y-122014090D01*
X167841031Y-121801890D01*
X167892040Y-121550000D01*
X167892040Y-119750000D01*
X167847762Y-119514683D01*
X167819396Y-119470600D01*
X174576160Y-119470600D01*
X174576160Y-121270600D01*
X174620438Y-121505917D01*
X174759510Y-121722041D01*
X174971710Y-121867031D01*
X175223600Y-121918040D01*
X177023600Y-121918040D01*
X177258917Y-121873762D01*
X177475041Y-121734690D01*
X177620031Y-121522490D01*
X177671040Y-121270600D01*
X177671040Y-119470600D01*
X177637585Y-119292800D01*
X185320360Y-119292800D01*
X185320360Y-121092800D01*
X185364638Y-121328117D01*
X185503710Y-121544241D01*
X185715910Y-121689231D01*
X185967800Y-121740240D01*
X187767800Y-121740240D01*
X188003117Y-121695962D01*
X188219241Y-121556890D01*
X188364231Y-121344690D01*
X188415240Y-121092800D01*
X188415240Y-119292800D01*
X188381785Y-119115000D01*
X195302560Y-119115000D01*
X195302560Y-120915000D01*
X195346838Y-121150317D01*
X195485910Y-121366441D01*
X195698110Y-121511431D01*
X195950000Y-121562440D01*
X197750000Y-121562440D01*
X197985317Y-121518162D01*
X198201441Y-121379090D01*
X198346431Y-121166890D01*
X198397440Y-120915000D01*
X198397440Y-119115000D01*
X198373544Y-118988000D01*
X206097560Y-118988000D01*
X206097560Y-120788000D01*
X206141838Y-121023317D01*
X206280910Y-121239441D01*
X206493110Y-121384431D01*
X206745000Y-121435440D01*
X208545000Y-121435440D01*
X208780317Y-121391162D01*
X208996441Y-121252090D01*
X209141431Y-121039890D01*
X209192440Y-120788000D01*
X209192440Y-118988000D01*
X209148162Y-118752683D01*
X209009090Y-118536559D01*
X208796890Y-118391569D01*
X208776466Y-118387433D01*
X208945551Y-118218643D01*
X209179733Y-117654670D01*
X209180265Y-117044009D01*
X208947068Y-116479629D01*
X208515643Y-116047449D01*
X207951670Y-115813267D01*
X207341009Y-115812735D01*
X206776629Y-116045932D01*
X206344449Y-116477357D01*
X206110267Y-117041330D01*
X206109735Y-117651991D01*
X206342932Y-118216371D01*
X206510880Y-118384613D01*
X206509683Y-118384838D01*
X206293559Y-118523910D01*
X206148569Y-118736110D01*
X206097560Y-118988000D01*
X198373544Y-118988000D01*
X198353162Y-118879683D01*
X198214090Y-118663559D01*
X198001890Y-118518569D01*
X197981466Y-118514433D01*
X198150551Y-118345643D01*
X198384733Y-117781670D01*
X198385265Y-117171009D01*
X198152068Y-116606629D01*
X197720643Y-116174449D01*
X197156670Y-115940267D01*
X196546009Y-115939735D01*
X195981629Y-116172932D01*
X195549449Y-116604357D01*
X195315267Y-117168330D01*
X195314735Y-117778991D01*
X195547932Y-118343371D01*
X195715880Y-118511613D01*
X195714683Y-118511838D01*
X195498559Y-118650910D01*
X195353569Y-118863110D01*
X195302560Y-119115000D01*
X188381785Y-119115000D01*
X188370962Y-119057483D01*
X188231890Y-118841359D01*
X188019690Y-118696369D01*
X187999266Y-118692233D01*
X188168351Y-118523443D01*
X188402533Y-117959470D01*
X188403065Y-117348809D01*
X188169868Y-116784429D01*
X187738443Y-116352249D01*
X187174470Y-116118067D01*
X186563809Y-116117535D01*
X185999429Y-116350732D01*
X185567249Y-116782157D01*
X185333067Y-117346130D01*
X185332535Y-117956791D01*
X185565732Y-118521171D01*
X185733680Y-118689413D01*
X185732483Y-118689638D01*
X185516359Y-118828710D01*
X185371369Y-119040910D01*
X185320360Y-119292800D01*
X177637585Y-119292800D01*
X177626762Y-119235283D01*
X177487690Y-119019159D01*
X177275490Y-118874169D01*
X177255066Y-118870033D01*
X177424151Y-118701243D01*
X177658333Y-118137270D01*
X177658865Y-117526609D01*
X177425668Y-116962229D01*
X176994243Y-116530049D01*
X176430270Y-116295867D01*
X175819609Y-116295335D01*
X175255229Y-116528532D01*
X174823049Y-116959957D01*
X174588867Y-117523930D01*
X174588335Y-118134591D01*
X174821532Y-118698971D01*
X174989480Y-118867213D01*
X174988283Y-118867438D01*
X174772159Y-119006510D01*
X174627169Y-119218710D01*
X174576160Y-119470600D01*
X167819396Y-119470600D01*
X167708690Y-119298559D01*
X167496490Y-119153569D01*
X167476066Y-119149433D01*
X167645151Y-118980643D01*
X167879333Y-118416670D01*
X167879865Y-117806009D01*
X167646668Y-117241629D01*
X167215243Y-116809449D01*
X166651270Y-116575267D01*
X166040609Y-116574735D01*
X165476229Y-116807932D01*
X165044049Y-117239357D01*
X164809867Y-117803330D01*
X164809335Y-118413991D01*
X165042532Y-118978371D01*
X165210480Y-119146613D01*
X165209283Y-119146838D01*
X164993159Y-119285910D01*
X164848169Y-119498110D01*
X164797160Y-119750000D01*
X157800185Y-119750000D01*
X157789362Y-119692483D01*
X157650290Y-119476359D01*
X157438090Y-119331369D01*
X157417666Y-119327233D01*
X157586751Y-119158443D01*
X157820933Y-118594470D01*
X157821465Y-117983809D01*
X157588268Y-117419429D01*
X157156843Y-116987249D01*
X156592870Y-116753067D01*
X155982209Y-116752535D01*
X155417829Y-116985732D01*
X154985649Y-117417157D01*
X154751467Y-117981130D01*
X154750935Y-118591791D01*
X154984132Y-119156171D01*
X155152080Y-119324413D01*
X155150883Y-119324638D01*
X154934759Y-119463710D01*
X154789769Y-119675910D01*
X154738760Y-119927800D01*
X137946200Y-119927800D01*
X137946200Y-109615400D01*
X154738760Y-109615400D01*
X154738760Y-111415400D01*
X154783038Y-111650717D01*
X154922110Y-111866841D01*
X155134310Y-112011831D01*
X155386200Y-112062840D01*
X157186200Y-112062840D01*
X157421517Y-112018562D01*
X157637641Y-111879490D01*
X157782631Y-111667290D01*
X157833640Y-111415400D01*
X157833640Y-109691600D01*
X164797160Y-109691600D01*
X164797160Y-111491600D01*
X164841438Y-111726917D01*
X164980510Y-111943041D01*
X165192710Y-112088031D01*
X165444600Y-112139040D01*
X167244600Y-112139040D01*
X167479917Y-112094762D01*
X167696041Y-111955690D01*
X167841031Y-111743490D01*
X167892040Y-111491600D01*
X167892040Y-109691600D01*
X167847762Y-109456283D01*
X167835740Y-109437600D01*
X174474560Y-109437600D01*
X174474560Y-111237600D01*
X174518838Y-111472917D01*
X174657910Y-111689041D01*
X174870110Y-111834031D01*
X175122000Y-111885040D01*
X176922000Y-111885040D01*
X177157317Y-111840762D01*
X177373441Y-111701690D01*
X177518431Y-111489490D01*
X177569440Y-111237600D01*
X177569440Y-109437600D01*
X177535985Y-109259800D01*
X185066360Y-109259800D01*
X185066360Y-111059800D01*
X185110638Y-111295117D01*
X185249710Y-111511241D01*
X185461910Y-111656231D01*
X185713800Y-111707240D01*
X187513800Y-111707240D01*
X187749117Y-111662962D01*
X187965241Y-111523890D01*
X188110231Y-111311690D01*
X188161240Y-111059800D01*
X188161240Y-109259800D01*
X195277160Y-109259800D01*
X195277160Y-111059800D01*
X195321438Y-111295117D01*
X195460510Y-111511241D01*
X195672710Y-111656231D01*
X195924600Y-111707240D01*
X197724600Y-111707240D01*
X197959917Y-111662962D01*
X198176041Y-111523890D01*
X198321031Y-111311690D01*
X198372040Y-111059800D01*
X198372040Y-109259800D01*
X198338585Y-109082000D01*
X205843560Y-109082000D01*
X205843560Y-110882000D01*
X205887838Y-111117317D01*
X206026910Y-111333441D01*
X206239110Y-111478431D01*
X206491000Y-111529440D01*
X208291000Y-111529440D01*
X208526317Y-111485162D01*
X208742441Y-111346090D01*
X208887431Y-111133890D01*
X208938440Y-110882000D01*
X208938440Y-109082000D01*
X208894162Y-108846683D01*
X208755090Y-108630559D01*
X208542890Y-108485569D01*
X208522466Y-108481433D01*
X208691551Y-108312643D01*
X208925733Y-107748670D01*
X208926265Y-107138009D01*
X208693068Y-106573629D01*
X208261643Y-106141449D01*
X207697670Y-105907267D01*
X207087009Y-105906735D01*
X206522629Y-106139932D01*
X206090449Y-106571357D01*
X205856267Y-107135330D01*
X205855735Y-107745991D01*
X206088932Y-108310371D01*
X206256880Y-108478613D01*
X206255683Y-108478838D01*
X206039559Y-108617910D01*
X205894569Y-108830110D01*
X205843560Y-109082000D01*
X198338585Y-109082000D01*
X198327762Y-109024483D01*
X198188690Y-108808359D01*
X197976490Y-108663369D01*
X197956066Y-108659233D01*
X198125151Y-108490443D01*
X198359333Y-107926470D01*
X198359865Y-107315809D01*
X198126668Y-106751429D01*
X197695243Y-106319249D01*
X197131270Y-106085067D01*
X196520609Y-106084535D01*
X195956229Y-106317732D01*
X195524049Y-106749157D01*
X195289867Y-107313130D01*
X195289335Y-107923791D01*
X195522532Y-108488171D01*
X195690480Y-108656413D01*
X195689283Y-108656638D01*
X195473159Y-108795710D01*
X195328169Y-109007910D01*
X195277160Y-109259800D01*
X188161240Y-109259800D01*
X188116962Y-109024483D01*
X187977890Y-108808359D01*
X187765690Y-108663369D01*
X187745266Y-108659233D01*
X187914351Y-108490443D01*
X188148533Y-107926470D01*
X188149065Y-107315809D01*
X187915868Y-106751429D01*
X187484443Y-106319249D01*
X186920470Y-106085067D01*
X186309809Y-106084535D01*
X185745429Y-106317732D01*
X185313249Y-106749157D01*
X185079067Y-107313130D01*
X185078535Y-107923791D01*
X185311732Y-108488171D01*
X185479680Y-108656413D01*
X185478483Y-108656638D01*
X185262359Y-108795710D01*
X185117369Y-109007910D01*
X185066360Y-109259800D01*
X177535985Y-109259800D01*
X177525162Y-109202283D01*
X177386090Y-108986159D01*
X177173890Y-108841169D01*
X177153466Y-108837033D01*
X177322551Y-108668243D01*
X177556733Y-108104270D01*
X177557265Y-107493609D01*
X177324068Y-106929229D01*
X176892643Y-106497049D01*
X176328670Y-106262867D01*
X175718009Y-106262335D01*
X175153629Y-106495532D01*
X174721449Y-106926957D01*
X174487267Y-107490930D01*
X174486735Y-108101591D01*
X174719932Y-108665971D01*
X174887880Y-108834213D01*
X174886683Y-108834438D01*
X174670559Y-108973510D01*
X174525569Y-109185710D01*
X174474560Y-109437600D01*
X167835740Y-109437600D01*
X167708690Y-109240159D01*
X167496490Y-109095169D01*
X167476066Y-109091033D01*
X167645151Y-108922243D01*
X167879333Y-108358270D01*
X167879865Y-107747609D01*
X167646668Y-107183229D01*
X167215243Y-106751049D01*
X166651270Y-106516867D01*
X166040609Y-106516335D01*
X165476229Y-106749532D01*
X165044049Y-107180957D01*
X164809867Y-107744930D01*
X164809335Y-108355591D01*
X165042532Y-108919971D01*
X165210480Y-109088213D01*
X165209283Y-109088438D01*
X164993159Y-109227510D01*
X164848169Y-109439710D01*
X164797160Y-109691600D01*
X157833640Y-109691600D01*
X157833640Y-109615400D01*
X157789362Y-109380083D01*
X157650290Y-109163959D01*
X157438090Y-109018969D01*
X157417666Y-109014833D01*
X157586751Y-108846043D01*
X157820933Y-108282070D01*
X157821465Y-107671409D01*
X157588268Y-107107029D01*
X157156843Y-106674849D01*
X156592870Y-106440667D01*
X155982209Y-106440135D01*
X155417829Y-106673332D01*
X154985649Y-107104757D01*
X154751467Y-107668730D01*
X154750935Y-108279391D01*
X154984132Y-108843771D01*
X155152080Y-109012013D01*
X155150883Y-109012238D01*
X154934759Y-109151310D01*
X154789769Y-109363510D01*
X154738760Y-109615400D01*
X137946200Y-109615400D01*
X137946200Y-103226890D01*
X145370524Y-103226890D01*
X145540355Y-103636924D01*
X145930642Y-104065183D01*
X146455108Y-104311486D01*
X146685000Y-104190819D01*
X146685000Y-102997000D01*
X146939000Y-102997000D01*
X146939000Y-104190819D01*
X147168892Y-104311486D01*
X147693358Y-104065183D01*
X148083645Y-103636924D01*
X148253476Y-103226890D01*
X148132155Y-102997000D01*
X146939000Y-102997000D01*
X146685000Y-102997000D01*
X145491845Y-102997000D01*
X145370524Y-103226890D01*
X137946200Y-103226890D01*
X137946200Y-99480000D01*
X145314560Y-99480000D01*
X145314560Y-101180000D01*
X145358838Y-101415317D01*
X145497910Y-101631441D01*
X145710110Y-101776431D01*
X145818107Y-101798301D01*
X145540355Y-102103076D01*
X145370524Y-102513110D01*
X145491845Y-102743000D01*
X146685000Y-102743000D01*
X146685000Y-102723000D01*
X146939000Y-102723000D01*
X146939000Y-102743000D01*
X148132155Y-102743000D01*
X148253476Y-102513110D01*
X148083645Y-102103076D01*
X147807499Y-101800063D01*
X147897317Y-101783162D01*
X148113441Y-101644090D01*
X148258431Y-101431890D01*
X148309440Y-101180000D01*
X148309440Y-99480000D01*
X148265162Y-99244683D01*
X148126090Y-99028559D01*
X147913890Y-98883569D01*
X147662000Y-98832560D01*
X145962000Y-98832560D01*
X145726683Y-98876838D01*
X145510559Y-99015910D01*
X145365569Y-99228110D01*
X145314560Y-99480000D01*
X137946200Y-99480000D01*
X137946200Y-94385200D01*
X216104400Y-94385200D01*
X216104400Y-141530000D01*
M02*
