M48
;DRILL file {KiCad 4.0.5} date Thursday, March 09, 2017 'PMt' 04:26:34 PM
;FORMAT={-:-/ absolute / inch / decimal}
FMAT,2
INCH,TZ
T1C0.016
T2C0.035
T3C0.039
%
G90
G05
M72
T1
X6.156Y-5.482
X6.552Y-5.478
X6.948Y-5.474
X7.359Y-5.469
X7.759Y-5.463
X8.193Y-5.463
T2
X6.153Y-4.251
X6.153Y-4.351
X6.153Y-4.657
X6.153Y-4.757
X6.153Y-5.042
X6.153Y-5.142
X6.549Y-4.254
X6.549Y-4.354
X6.549Y-4.65
X6.549Y-4.75
X6.549Y-5.038
X6.549Y-5.138
X6.93Y-4.244
X6.93Y-4.344
X6.934Y-4.639
X6.934Y-4.739
X6.944Y-5.031
X6.944Y-5.131
X7.347Y-4.237
X7.347Y-4.337
X7.357Y-4.632
X7.357Y-4.732
X7.357Y-5.028
X7.357Y-5.128
X7.749Y-4.237
X7.749Y-4.337
X7.75Y-4.625
X7.75Y-4.725
X7.755Y-5.03
X7.755Y-5.13
X8.165Y-4.23
X8.165Y-4.33
X8.175Y-4.62
X8.175Y-4.72
X8.185Y-5.025
X8.185Y-5.125
T3
X5.78Y-3.95
X5.78Y-4.05
T0
M30
