M48
;DRILL file {KiCad 4.0.5} date 02/23/17 13:53:05
;FORMAT={-:-/ absolute / inch / decimal}
FMAT,2
INCH,TZ
T1C0.011
T2C0.018
%
G90
G05
M72
T1
X0.141Y0.614
X0.171Y0.614
X0.171Y0.584
X0.34Y0.614
X0.34Y0.584
X0.37Y0.614
X0.4Y0.614
X0.43Y0.614
X0.46Y0.614
X0.49Y0.614
X0.52Y0.614
X0.5285Y0.669
X0.55Y0.614
X0.58Y0.614
X0.61Y0.614
X0.64Y0.614
X0.67Y0.614
X0.7Y0.614
X0.73Y0.614
T2
X0.0856Y0.2647
X0.4304Y0.2647
T0
M30
