G04 #@! TF.FileFunction,Copper,L2,Bot,Plane*
%FSLAX46Y46*%
G04 Gerber Fmt 4.6, Leading zero omitted, Abs format (unit mm)*
G04 Created by KiCad (PCBNEW 4.0.5) date 02/23/17 13:53:00*
%MOMM*%
%LPD*%
G01*
G04 APERTURE LIST*
%ADD10C,0.127000*%
%ADD11R,2.420000X5.080000*%
%ADD12C,0.970000*%
%ADD13R,0.460000X0.890000*%
%ADD14C,0.381000*%
%ADD15C,0.030480*%
G04 APERTURE END LIST*
D10*
D11*
X2173200Y3283800D03*
X10933200Y3283800D03*
D12*
X2173200Y6723800D03*
X10933200Y6723800D03*
D13*
X2173200Y6273800D03*
X10933200Y6273800D03*
D14*
X18542000Y15595600D03*
X17780000Y15595600D03*
X17018000Y15595600D03*
X16256000Y15595600D03*
X15494000Y15595600D03*
X14732000Y15595600D03*
X13970000Y15595600D03*
X13208000Y15595600D03*
X12446000Y15595600D03*
X11684000Y15595600D03*
X10922000Y15595600D03*
X10160000Y15595600D03*
X9398000Y15595600D03*
X8636000Y14833600D03*
X8636000Y15595600D03*
X4343400Y14833600D03*
X3581400Y15595600D03*
X4343400Y15595600D03*
X13423900Y16992600D03*
D15*
G36*
X18718460Y90240D02*
X102940Y90240D01*
X102940Y12726122D01*
X3276909Y15900091D01*
X3296471Y15929366D01*
X3302834Y15961360D01*
X8255000Y15961360D01*
X8260929Y15962561D01*
X8265924Y15965974D01*
X8269198Y15971061D01*
X8270240Y15976600D01*
X8270240Y17485360D01*
X18718460Y17485360D01*
X18718460Y90240D01*
X18718460Y90240D01*
G37*
X18718460Y90240D02*
X102940Y90240D01*
X102940Y12726122D01*
X3276909Y15900091D01*
X3296471Y15929366D01*
X3302834Y15961360D01*
X8255000Y15961360D01*
X8260929Y15962561D01*
X8265924Y15965974D01*
X8269198Y15971061D01*
X8270240Y15976600D01*
X8270240Y17485360D01*
X18718460Y17485360D01*
X18718460Y90240D01*
M02*
