%FSLAX45Y45*%
G04 Gerber Fmt 4.5, Leading zero omitted, Abs format (unit mm)*
G04 Created by KiCad (PCBNEW 4.0.5) date 02/23/17 13:53:08*
%MOMM*%
%LPD*%
G01*
G04 APERTURE LIST*
%ADD10C,0.127000*%
%ADD11C,0.150000*%
%ADD12C,0.200000*%
%ADD13C,0.300000*%
G04 APERTURE END LIST*
D10*
D11*
X1270Y0D02*
X1880870Y0D01*
X1270Y1276350D02*
X1270Y0D01*
X321310Y1596390D02*
X1270Y1276350D01*
X321310Y2461260D02*
X321310Y1597660D01*
X1880870Y2461260D02*
X321310Y2461260D01*
X1880870Y0D02*
X1880870Y2461260D01*
D12*
X344170Y1573530D02*
X372110Y1545590D01*
X372110Y1573530D02*
X344170Y1545590D01*
X420370Y1573530D02*
X448310Y1545590D01*
X448310Y1573530D02*
X420370Y1545590D01*
X420370Y1497330D02*
X448310Y1469390D01*
X448310Y1497330D02*
X420370Y1469390D01*
X849630Y1573530D02*
X877570Y1545590D01*
X877570Y1573530D02*
X849630Y1545590D01*
X849630Y1497330D02*
X877570Y1469390D01*
X877570Y1497330D02*
X849630Y1469390D01*
X925830Y1573530D02*
X953770Y1545590D01*
X953770Y1573530D02*
X925830Y1545590D01*
X1002030Y1573530D02*
X1029970Y1545590D01*
X1029970Y1573530D02*
X1002030Y1545590D01*
X1078230Y1573530D02*
X1106170Y1545590D01*
X1106170Y1573530D02*
X1078230Y1545590D01*
X1154430Y1573530D02*
X1182370Y1545590D01*
X1182370Y1573530D02*
X1154430Y1545590D01*
X1230630Y1573530D02*
X1258570Y1545590D01*
X1258570Y1573530D02*
X1230630Y1545590D01*
X1306830Y1573530D02*
X1334770Y1545590D01*
X1334770Y1573530D02*
X1306830Y1545590D01*
X1328420Y1713230D02*
X1356360Y1685290D01*
X1356360Y1713230D02*
X1328420Y1685290D01*
X1383030Y1573530D02*
X1410970Y1545590D01*
X1410970Y1573530D02*
X1383030Y1545590D01*
X1459230Y1573530D02*
X1487170Y1545590D01*
X1487170Y1573530D02*
X1459230Y1545590D01*
X1535430Y1573530D02*
X1563370Y1545590D01*
X1563370Y1573530D02*
X1535430Y1545590D01*
X1611630Y1573530D02*
X1639570Y1545590D01*
X1639570Y1573530D02*
X1611630Y1545590D01*
X1687830Y1573530D02*
X1715770Y1545590D01*
X1715770Y1573530D02*
X1687830Y1545590D01*
X1764030Y1573530D02*
X1791970Y1545590D01*
X1791970Y1573530D02*
X1764030Y1545590D01*
X1840230Y1573530D02*
X1868170Y1545590D01*
X1868170Y1573530D02*
X1840230Y1545590D01*
X240320Y672380D02*
G75*
G03X240320Y672380I-23000J0D01*
G01*
X1116320Y672380D02*
G75*
G03X1116320Y672380I-23000J0D01*
G01*
D13*
X265199Y-473214D02*
X265199Y-173214D01*
X336627Y-173214D01*
X379484Y-187500D01*
X408056Y-216071D01*
X422341Y-244643D01*
X436627Y-301786D01*
X436627Y-344643D01*
X422341Y-401786D01*
X408056Y-430357D01*
X379484Y-458929D01*
X336627Y-473214D01*
X265199Y-473214D01*
X565199Y-473214D02*
X565199Y-273214D01*
X565199Y-330357D02*
X579484Y-301786D01*
X593770Y-287500D01*
X622341Y-273214D01*
X650913Y-273214D01*
X750913Y-473214D02*
X750913Y-273214D01*
X750913Y-173214D02*
X736627Y-187500D01*
X750913Y-201786D01*
X765198Y-187500D01*
X750913Y-173214D01*
X750913Y-201786D01*
X936627Y-473214D02*
X908056Y-458929D01*
X893770Y-430357D01*
X893770Y-173214D01*
X1093770Y-473214D02*
X1065199Y-458929D01*
X1050913Y-430357D01*
X1050913Y-173214D01*
X1436627Y-473214D02*
X1436627Y-173214D01*
X1536627Y-387500D01*
X1636627Y-173214D01*
X1636627Y-473214D01*
X1908056Y-473214D02*
X1908056Y-316072D01*
X1893770Y-287500D01*
X1865198Y-273214D01*
X1808056Y-273214D01*
X1779484Y-287500D01*
X1908056Y-458929D02*
X1879484Y-473214D01*
X1808056Y-473214D01*
X1779484Y-458929D01*
X1765198Y-430357D01*
X1765198Y-401786D01*
X1779484Y-373214D01*
X1808056Y-358929D01*
X1879484Y-358929D01*
X1908056Y-344643D01*
X2050913Y-273214D02*
X2050913Y-573214D01*
X2050913Y-287500D02*
X2079484Y-273214D01*
X2136627Y-273214D01*
X2165199Y-287500D01*
X2179484Y-301786D01*
X2193770Y-330357D01*
X2193770Y-416071D01*
X2179484Y-444643D01*
X2165199Y-458929D01*
X2136627Y-473214D01*
X2079484Y-473214D01*
X2050913Y-458929D01*
X2322341Y-444643D02*
X2336627Y-458929D01*
X2322341Y-473214D01*
X2308056Y-458929D01*
X2322341Y-444643D01*
X2322341Y-473214D01*
X2322341Y-287500D02*
X2336627Y-301786D01*
X2322341Y-316072D01*
X2308056Y-301786D01*
X2322341Y-287500D01*
X2322341Y-316072D01*
X-34170Y-953530D02*
X-6230Y-981470D01*
X-6230Y-953530D02*
X-34170Y-981470D01*
X322341Y-803214D02*
X350913Y-803214D01*
X379484Y-817500D01*
X393770Y-831786D01*
X408056Y-860357D01*
X422341Y-917500D01*
X422341Y-988929D01*
X408056Y-1046071D01*
X393770Y-1074643D01*
X379484Y-1088929D01*
X350913Y-1103214D01*
X322341Y-1103214D01*
X293770Y-1088929D01*
X279484Y-1074643D01*
X265199Y-1046071D01*
X250913Y-988929D01*
X250913Y-917500D01*
X265199Y-860357D01*
X279484Y-831786D01*
X293770Y-817500D01*
X322341Y-803214D01*
X550913Y-1074643D02*
X565199Y-1088929D01*
X550913Y-1103214D01*
X536627Y-1088929D01*
X550913Y-1074643D01*
X550913Y-1103214D01*
X679484Y-831786D02*
X693770Y-817500D01*
X722341Y-803214D01*
X793770Y-803214D01*
X822341Y-817500D01*
X836627Y-831786D01*
X850913Y-860357D01*
X850913Y-888929D01*
X836627Y-931786D01*
X665198Y-1103214D01*
X850913Y-1103214D01*
X1022341Y-931786D02*
X993770Y-917500D01*
X979484Y-903214D01*
X965198Y-874643D01*
X965198Y-860357D01*
X979484Y-831786D01*
X993770Y-817500D01*
X1022341Y-803214D01*
X1079484Y-803214D01*
X1108056Y-817500D01*
X1122341Y-831786D01*
X1136627Y-860357D01*
X1136627Y-874643D01*
X1122341Y-903214D01*
X1108056Y-917500D01*
X1079484Y-931786D01*
X1022341Y-931786D01*
X993770Y-946071D01*
X979484Y-960357D01*
X965198Y-988929D01*
X965198Y-1046071D01*
X979484Y-1074643D01*
X993770Y-1088929D01*
X1022341Y-1103214D01*
X1079484Y-1103214D01*
X1108056Y-1088929D01*
X1122341Y-1074643D01*
X1136627Y-1046071D01*
X1136627Y-988929D01*
X1122341Y-960357D01*
X1108056Y-946071D01*
X1079484Y-931786D01*
X1265199Y-1103214D02*
X1265199Y-903214D01*
X1265199Y-931786D02*
X1279484Y-917500D01*
X1308056Y-903214D01*
X1350913Y-903214D01*
X1379484Y-917500D01*
X1393770Y-946071D01*
X1393770Y-1103214D01*
X1393770Y-946071D02*
X1408056Y-917500D01*
X1436627Y-903214D01*
X1479484Y-903214D01*
X1508056Y-917500D01*
X1522341Y-946071D01*
X1522341Y-1103214D01*
X1665198Y-1103214D02*
X1665198Y-903214D01*
X1665198Y-931786D02*
X1679484Y-917500D01*
X1708056Y-903214D01*
X1750913Y-903214D01*
X1779484Y-917500D01*
X1793770Y-946071D01*
X1793770Y-1103214D01*
X1793770Y-946071D02*
X1808056Y-917500D01*
X1836627Y-903214D01*
X1879484Y-903214D01*
X1908056Y-917500D01*
X1922341Y-946071D01*
X1922341Y-1103214D01*
X2508056Y-788929D02*
X2250913Y-1174643D01*
X2893770Y-803214D02*
X2922341Y-803214D01*
X2950913Y-817500D01*
X2965198Y-831786D01*
X2979484Y-860357D01*
X2993770Y-917500D01*
X2993770Y-988929D01*
X2979484Y-1046071D01*
X2965198Y-1074643D01*
X2950913Y-1088929D01*
X2922341Y-1103214D01*
X2893770Y-1103214D01*
X2865198Y-1088929D01*
X2850913Y-1074643D01*
X2836627Y-1046071D01*
X2822341Y-988929D01*
X2822341Y-917500D01*
X2836627Y-860357D01*
X2850913Y-831786D01*
X2865198Y-817500D01*
X2893770Y-803214D01*
X3122341Y-1074643D02*
X3136627Y-1088929D01*
X3122341Y-1103214D01*
X3108056Y-1088929D01*
X3122341Y-1074643D01*
X3122341Y-1103214D01*
X3322341Y-803214D02*
X3350913Y-803214D01*
X3379484Y-817500D01*
X3393770Y-831786D01*
X3408055Y-860357D01*
X3422341Y-917500D01*
X3422341Y-988929D01*
X3408055Y-1046071D01*
X3393770Y-1074643D01*
X3379484Y-1088929D01*
X3350913Y-1103214D01*
X3322341Y-1103214D01*
X3293770Y-1088929D01*
X3279484Y-1074643D01*
X3265198Y-1046071D01*
X3250913Y-988929D01*
X3250913Y-917500D01*
X3265198Y-860357D01*
X3279484Y-831786D01*
X3293770Y-817500D01*
X3322341Y-803214D01*
X3708055Y-1103214D02*
X3536627Y-1103214D01*
X3622341Y-1103214D02*
X3622341Y-803214D01*
X3593770Y-846071D01*
X3565198Y-874643D01*
X3536627Y-888929D01*
X3993770Y-1103214D02*
X3822341Y-1103214D01*
X3908055Y-1103214D02*
X3908055Y-803214D01*
X3879484Y-846071D01*
X3850913Y-874643D01*
X3822341Y-888929D01*
X4108056Y-803214D02*
X4108056Y-860357D01*
X4222341Y-803214D02*
X4222341Y-860357D01*
X4665198Y-1217500D02*
X4650913Y-1203214D01*
X4622341Y-1160357D01*
X4608056Y-1131786D01*
X4593770Y-1088929D01*
X4579484Y-1017500D01*
X4579484Y-960357D01*
X4593770Y-888929D01*
X4608056Y-846071D01*
X4622341Y-817500D01*
X4650913Y-774643D01*
X4665198Y-760357D01*
X4936627Y-1103214D02*
X4765198Y-1103214D01*
X4850913Y-1103214D02*
X4850913Y-803214D01*
X4822341Y-846071D01*
X4793770Y-874643D01*
X4765198Y-888929D01*
X5079484Y-1103214D02*
X5136627Y-1103214D01*
X5165198Y-1088929D01*
X5179484Y-1074643D01*
X5208056Y-1031786D01*
X5222341Y-974643D01*
X5222341Y-860357D01*
X5208056Y-831786D01*
X5193770Y-817500D01*
X5165198Y-803214D01*
X5108056Y-803214D01*
X5079484Y-817500D01*
X5065198Y-831786D01*
X5050913Y-860357D01*
X5050913Y-931786D01*
X5065198Y-960357D01*
X5079484Y-974643D01*
X5108056Y-988929D01*
X5165198Y-988929D01*
X5193770Y-974643D01*
X5208056Y-960357D01*
X5222341Y-931786D01*
X5579484Y-1103214D02*
X5579484Y-803214D01*
X5708055Y-1103214D02*
X5708055Y-946071D01*
X5693770Y-917500D01*
X5665198Y-903214D01*
X5622341Y-903214D01*
X5593770Y-917500D01*
X5579484Y-931786D01*
X5893770Y-1103214D02*
X5865198Y-1088929D01*
X5850913Y-1074643D01*
X5836627Y-1046071D01*
X5836627Y-960357D01*
X5850913Y-931786D01*
X5865198Y-917500D01*
X5893770Y-903214D01*
X5936627Y-903214D01*
X5965198Y-917500D01*
X5979484Y-931786D01*
X5993770Y-960357D01*
X5993770Y-1046071D01*
X5979484Y-1074643D01*
X5965198Y-1088929D01*
X5936627Y-1103214D01*
X5893770Y-1103214D01*
X6165198Y-1103214D02*
X6136627Y-1088929D01*
X6122341Y-1060357D01*
X6122341Y-803214D01*
X6393770Y-1088929D02*
X6365198Y-1103214D01*
X6308056Y-1103214D01*
X6279484Y-1088929D01*
X6265198Y-1060357D01*
X6265198Y-946071D01*
X6279484Y-917500D01*
X6308056Y-903214D01*
X6365198Y-903214D01*
X6393770Y-917500D01*
X6408056Y-946071D01*
X6408056Y-974643D01*
X6265198Y-1003214D01*
X6522341Y-1088929D02*
X6550913Y-1103214D01*
X6608056Y-1103214D01*
X6636627Y-1088929D01*
X6650913Y-1060357D01*
X6650913Y-1046071D01*
X6636627Y-1017500D01*
X6608056Y-1003214D01*
X6565198Y-1003214D01*
X6536627Y-988929D01*
X6522341Y-960357D01*
X6522341Y-946071D01*
X6536627Y-917500D01*
X6565198Y-903214D01*
X6608056Y-903214D01*
X6636627Y-917500D01*
X6750913Y-1217500D02*
X6765198Y-1203214D01*
X6793770Y-1160357D01*
X6808056Y-1131786D01*
X6822341Y-1088929D01*
X6836627Y-1017500D01*
X6836627Y-960357D01*
X6822341Y-888929D01*
X6808056Y-846071D01*
X6793770Y-817500D01*
X6765198Y-774643D01*
X6750913Y-760357D01*
X-6230Y-1363500D02*
G75*
G03X-6230Y-1363500I-23000J0D01*
G01*
X322341Y-1199214D02*
X350913Y-1199214D01*
X379484Y-1213500D01*
X393770Y-1227786D01*
X408056Y-1256357D01*
X422341Y-1313500D01*
X422341Y-1384929D01*
X408056Y-1442071D01*
X393770Y-1470643D01*
X379484Y-1484929D01*
X350913Y-1499214D01*
X322341Y-1499214D01*
X293770Y-1484929D01*
X279484Y-1470643D01*
X265199Y-1442071D01*
X250913Y-1384929D01*
X250913Y-1313500D01*
X265199Y-1256357D01*
X279484Y-1227786D01*
X293770Y-1213500D01*
X322341Y-1199214D01*
X550913Y-1470643D02*
X565199Y-1484929D01*
X550913Y-1499214D01*
X536627Y-1484929D01*
X550913Y-1470643D01*
X550913Y-1499214D01*
X822341Y-1299214D02*
X822341Y-1499214D01*
X750913Y-1184929D02*
X679484Y-1399214D01*
X865198Y-1399214D01*
X1108056Y-1199214D02*
X1050913Y-1199214D01*
X1022341Y-1213500D01*
X1008056Y-1227786D01*
X979484Y-1270643D01*
X965198Y-1327786D01*
X965198Y-1442071D01*
X979484Y-1470643D01*
X993770Y-1484929D01*
X1022341Y-1499214D01*
X1079484Y-1499214D01*
X1108056Y-1484929D01*
X1122341Y-1470643D01*
X1136627Y-1442071D01*
X1136627Y-1370643D01*
X1122341Y-1342072D01*
X1108056Y-1327786D01*
X1079484Y-1313500D01*
X1022341Y-1313500D01*
X993770Y-1327786D01*
X979484Y-1342072D01*
X965198Y-1370643D01*
X1265199Y-1499214D02*
X1265199Y-1299214D01*
X1265199Y-1327786D02*
X1279484Y-1313500D01*
X1308056Y-1299214D01*
X1350913Y-1299214D01*
X1379484Y-1313500D01*
X1393770Y-1342072D01*
X1393770Y-1499214D01*
X1393770Y-1342072D02*
X1408056Y-1313500D01*
X1436627Y-1299214D01*
X1479484Y-1299214D01*
X1508056Y-1313500D01*
X1522341Y-1342072D01*
X1522341Y-1499214D01*
X1665198Y-1499214D02*
X1665198Y-1299214D01*
X1665198Y-1327786D02*
X1679484Y-1313500D01*
X1708056Y-1299214D01*
X1750913Y-1299214D01*
X1779484Y-1313500D01*
X1793770Y-1342072D01*
X1793770Y-1499214D01*
X1793770Y-1342072D02*
X1808056Y-1313500D01*
X1836627Y-1299214D01*
X1879484Y-1299214D01*
X1908056Y-1313500D01*
X1922341Y-1342072D01*
X1922341Y-1499214D01*
X2508056Y-1184929D02*
X2250913Y-1570643D01*
X2893770Y-1199214D02*
X2922341Y-1199214D01*
X2950913Y-1213500D01*
X2965198Y-1227786D01*
X2979484Y-1256357D01*
X2993770Y-1313500D01*
X2993770Y-1384929D01*
X2979484Y-1442071D01*
X2965198Y-1470643D01*
X2950913Y-1484929D01*
X2922341Y-1499214D01*
X2893770Y-1499214D01*
X2865198Y-1484929D01*
X2850913Y-1470643D01*
X2836627Y-1442071D01*
X2822341Y-1384929D01*
X2822341Y-1313500D01*
X2836627Y-1256357D01*
X2850913Y-1227786D01*
X2865198Y-1213500D01*
X2893770Y-1199214D01*
X3122341Y-1470643D02*
X3136627Y-1484929D01*
X3122341Y-1499214D01*
X3108056Y-1484929D01*
X3122341Y-1470643D01*
X3122341Y-1499214D01*
X3322341Y-1199214D02*
X3350913Y-1199214D01*
X3379484Y-1213500D01*
X3393770Y-1227786D01*
X3408055Y-1256357D01*
X3422341Y-1313500D01*
X3422341Y-1384929D01*
X3408055Y-1442071D01*
X3393770Y-1470643D01*
X3379484Y-1484929D01*
X3350913Y-1499214D01*
X3322341Y-1499214D01*
X3293770Y-1484929D01*
X3279484Y-1470643D01*
X3265198Y-1442071D01*
X3250913Y-1384929D01*
X3250913Y-1313500D01*
X3265198Y-1256357D01*
X3279484Y-1227786D01*
X3293770Y-1213500D01*
X3322341Y-1199214D01*
X3708055Y-1499214D02*
X3536627Y-1499214D01*
X3622341Y-1499214D02*
X3622341Y-1199214D01*
X3593770Y-1242072D01*
X3565198Y-1270643D01*
X3536627Y-1284929D01*
X3879484Y-1327786D02*
X3850913Y-1313500D01*
X3836627Y-1299214D01*
X3822341Y-1270643D01*
X3822341Y-1256357D01*
X3836627Y-1227786D01*
X3850913Y-1213500D01*
X3879484Y-1199214D01*
X3936627Y-1199214D01*
X3965198Y-1213500D01*
X3979484Y-1227786D01*
X3993770Y-1256357D01*
X3993770Y-1270643D01*
X3979484Y-1299214D01*
X3965198Y-1313500D01*
X3936627Y-1327786D01*
X3879484Y-1327786D01*
X3850913Y-1342072D01*
X3836627Y-1356357D01*
X3822341Y-1384929D01*
X3822341Y-1442071D01*
X3836627Y-1470643D01*
X3850913Y-1484929D01*
X3879484Y-1499214D01*
X3936627Y-1499214D01*
X3965198Y-1484929D01*
X3979484Y-1470643D01*
X3993770Y-1442071D01*
X3993770Y-1384929D01*
X3979484Y-1356357D01*
X3965198Y-1342072D01*
X3936627Y-1327786D01*
X4108056Y-1199214D02*
X4108056Y-1256357D01*
X4222341Y-1199214D02*
X4222341Y-1256357D01*
X4665198Y-1613500D02*
X4650913Y-1599214D01*
X4622341Y-1556357D01*
X4608056Y-1527786D01*
X4593770Y-1484929D01*
X4579484Y-1413500D01*
X4579484Y-1356357D01*
X4593770Y-1284929D01*
X4608056Y-1242072D01*
X4622341Y-1213500D01*
X4650913Y-1170643D01*
X4665198Y-1156357D01*
X4765198Y-1227786D02*
X4779484Y-1213500D01*
X4808056Y-1199214D01*
X4879484Y-1199214D01*
X4908056Y-1213500D01*
X4922341Y-1227786D01*
X4936627Y-1256357D01*
X4936627Y-1284929D01*
X4922341Y-1327786D01*
X4750913Y-1499214D01*
X4936627Y-1499214D01*
X5293770Y-1499214D02*
X5293770Y-1199214D01*
X5422341Y-1499214D02*
X5422341Y-1342072D01*
X5408056Y-1313500D01*
X5379484Y-1299214D01*
X5336627Y-1299214D01*
X5308056Y-1313500D01*
X5293770Y-1327786D01*
X5608055Y-1499214D02*
X5579484Y-1484929D01*
X5565198Y-1470643D01*
X5550913Y-1442071D01*
X5550913Y-1356357D01*
X5565198Y-1327786D01*
X5579484Y-1313500D01*
X5608055Y-1299214D01*
X5650913Y-1299214D01*
X5679484Y-1313500D01*
X5693770Y-1327786D01*
X5708055Y-1356357D01*
X5708055Y-1442071D01*
X5693770Y-1470643D01*
X5679484Y-1484929D01*
X5650913Y-1499214D01*
X5608055Y-1499214D01*
X5879484Y-1499214D02*
X5850913Y-1484929D01*
X5836627Y-1456357D01*
X5836627Y-1199214D01*
X6108056Y-1484929D02*
X6079484Y-1499214D01*
X6022341Y-1499214D01*
X5993770Y-1484929D01*
X5979484Y-1456357D01*
X5979484Y-1342072D01*
X5993770Y-1313500D01*
X6022341Y-1299214D01*
X6079484Y-1299214D01*
X6108056Y-1313500D01*
X6122341Y-1342072D01*
X6122341Y-1370643D01*
X5979484Y-1399214D01*
X6236627Y-1484929D02*
X6265198Y-1499214D01*
X6322341Y-1499214D01*
X6350913Y-1484929D01*
X6365198Y-1456357D01*
X6365198Y-1442071D01*
X6350913Y-1413500D01*
X6322341Y-1399214D01*
X6279484Y-1399214D01*
X6250913Y-1384929D01*
X6236627Y-1356357D01*
X6236627Y-1342072D01*
X6250913Y-1313500D01*
X6279484Y-1299214D01*
X6322341Y-1299214D01*
X6350913Y-1313500D01*
X6465198Y-1613500D02*
X6479484Y-1599214D01*
X6508056Y-1556357D01*
X6522341Y-1527786D01*
X6536627Y-1484929D01*
X6550913Y-1413500D01*
X6550913Y-1356357D01*
X6536627Y-1284929D01*
X6522341Y-1242072D01*
X6508056Y-1213500D01*
X6479484Y-1170643D01*
X6465198Y-1156357D01*
M02*
