M48
;DRILL file {KiCad 4.0.5} date 05/07/17 17:18:11
;FORMAT={-:-/ absolute / inch / decimal}
FMAT,2
INCH,TZ
T1C0.025
T2C0.039
T3C0.045
%
G90
G05
M72
T1
X3.2Y-3.98
X3.2Y-4.055
X3.2Y-4.135
X3.2Y-4.205
X3.2Y-4.285
X3.2Y-4.36
X3.2Y-4.44
X3.2Y-4.51
X3.2Y-4.59
X3.2Y-4.67
X3.28Y-3.98
X3.28Y-4.675
X3.36Y-3.98
X3.36Y-4.675
X3.44Y-3.98
X3.44Y-4.675
X3.52Y-4.675
X3.53Y-3.98
X3.58Y-4.335
X3.58Y-4.405
X3.61Y-3.98
X3.61Y-4.675
X3.68Y-4.52
X3.685Y-4.24
X3.685Y-4.52
X3.69Y-4.24
X3.69Y-4.675
X3.7Y-3.98
X3.76Y-4.52
X3.765Y-4.24
X3.765Y-4.52
X3.77Y-4.24
X3.78Y-3.98
X3.78Y-4.675
X3.86Y-3.98
X3.86Y-4.675
X3.935Y-4.45
X3.94Y-3.98
X3.94Y-4.675
X3.97Y-4.3
X4.02Y-4.45
X4.02Y-4.675
X4.03Y-3.98
X4.05Y-4.3
X4.105Y-4.45
X4.11Y-3.98
X4.11Y-4.675
X4.14Y-4.3
X4.18Y-4.44
X4.19Y-4.675
X4.2Y-3.98
X4.22Y-4.3
X4.26Y-4.44
X4.28Y-3.98
X4.28Y-4.675
X4.31Y-4.3
X4.335Y-4.44
X4.36Y-4.675
X4.37Y-3.98
X4.38Y-4.29
X4.45Y-3.98
X4.45Y-4.05
X4.45Y-4.13
X4.45Y-4.2
X4.45Y-4.28
X4.45Y-4.675
X4.475Y-4.435
X4.53Y-4.675
X4.555Y-4.435
X4.6Y-4.675
X4.63Y-4.435
X4.68Y-4.38
X4.68Y-4.46
X4.68Y-4.53
X4.68Y-4.61
X4.68Y-4.675
T2
X3.72Y-4.375
T3
X3.58Y-4.235
X3.58Y-4.515
X3.86Y-4.235
X3.86Y-4.515
T0
M30
