G04 #@! TF.FileFunction,Copper,L2,Bot,Signal*
%FSLAX46Y46*%
G04 Gerber Fmt 4.6, Leading zero omitted, Abs format (unit mm)*
G04 Created by KiCad (PCBNEW 4.0.5) date 05/07/17 17:18:14*
%MOMM*%
%LPD*%
G01*
G04 APERTURE LIST*
%ADD10C,0.100000*%
%ADD11C,1.000000*%
%ADD12R,1.651000X1.651000*%
%ADD13C,1.550000*%
%ADD14C,0.254000*%
G04 APERTURE END LIST*
D10*
D11*
X117602000Y-112649000D03*
X115697000Y-112649000D03*
X113665000Y-112649000D03*
X104267000Y-113030000D03*
X106172000Y-112776000D03*
X108204000Y-112776000D03*
X99949000Y-113030000D03*
X102108000Y-113030000D03*
X110109000Y-112776000D03*
X118872000Y-111252000D03*
X118872000Y-115062000D03*
X118872000Y-113284000D03*
X118872000Y-117094000D03*
X116840000Y-118745000D03*
X118872000Y-118745000D03*
X83312000Y-118745000D03*
X85344000Y-118745000D03*
X89408000Y-118745000D03*
X87376000Y-118745000D03*
X96012000Y-118745000D03*
X98044000Y-118745000D03*
X93726000Y-118745000D03*
X91694000Y-118745000D03*
X115062000Y-118745000D03*
X102108000Y-118745000D03*
X100076000Y-118745000D03*
X106426000Y-118745000D03*
X104394000Y-118745000D03*
X113030000Y-118745000D03*
X110744000Y-118745000D03*
X108712000Y-118745000D03*
X81280000Y-118618000D03*
X81280000Y-116586000D03*
X81280000Y-112776000D03*
X81280000Y-114554000D03*
X81280000Y-110744000D03*
X81280000Y-102997000D03*
X81280000Y-106807000D03*
X81280000Y-105029000D03*
X81280000Y-108839000D03*
X90932000Y-111887000D03*
X90932000Y-110109000D03*
X95631000Y-114808000D03*
X93599000Y-114808000D03*
X93472000Y-114808000D03*
X95504000Y-114808000D03*
X95631000Y-107696000D03*
X93599000Y-107696000D03*
X93726000Y-107696000D03*
X95758000Y-107696000D03*
X111252000Y-108966000D03*
X106680000Y-101092000D03*
X108712000Y-101092000D03*
X110998000Y-101092000D03*
X102362000Y-101092000D03*
X104394000Y-101092000D03*
X113030000Y-108712000D03*
X113030000Y-104902000D03*
X113030000Y-106680000D03*
X113030000Y-102870000D03*
X98044000Y-101092000D03*
X100076000Y-101092000D03*
X102870000Y-109220000D03*
X100838000Y-109220000D03*
X109474000Y-109220000D03*
X113030000Y-101092000D03*
X107188000Y-109220000D03*
X105156000Y-109220000D03*
X89662000Y-101092000D03*
X91694000Y-101092000D03*
X96012000Y-101092000D03*
X93980000Y-101092000D03*
X85344000Y-101092000D03*
X87376000Y-101092000D03*
X83312000Y-101092000D03*
D12*
X90932000Y-114681000D03*
X98044000Y-107569000D03*
X90932000Y-107569000D03*
X98044000Y-114681000D03*
D13*
X94488000Y-111125000D03*
D11*
X81280000Y-101092000D03*
D14*
G36*
X113665000Y-110439200D02*
X113675006Y-110488610D01*
X113703447Y-110530235D01*
X113745841Y-110557515D01*
X113792000Y-110566200D01*
X119659400Y-110566200D01*
X119659400Y-119659400D01*
X80391000Y-119659400D01*
X80391000Y-114966750D01*
X89471500Y-114966750D01*
X89471500Y-115632810D01*
X89568173Y-115866199D01*
X89746802Y-116044827D01*
X89980191Y-116141500D01*
X90646250Y-116141500D01*
X90805000Y-115982750D01*
X90805000Y-114808000D01*
X91059000Y-114808000D01*
X91059000Y-115982750D01*
X91217750Y-116141500D01*
X91883809Y-116141500D01*
X92117198Y-116044827D01*
X92295827Y-115866199D01*
X92392500Y-115632810D01*
X92392500Y-114966750D01*
X96583500Y-114966750D01*
X96583500Y-115632810D01*
X96680173Y-115866199D01*
X96858802Y-116044827D01*
X97092191Y-116141500D01*
X97758250Y-116141500D01*
X97917000Y-115982750D01*
X97917000Y-114808000D01*
X98171000Y-114808000D01*
X98171000Y-115982750D01*
X98329750Y-116141500D01*
X98995809Y-116141500D01*
X99229198Y-116044827D01*
X99407827Y-115866199D01*
X99504500Y-115632810D01*
X99504500Y-114966750D01*
X99345750Y-114808000D01*
X98171000Y-114808000D01*
X97917000Y-114808000D01*
X96742250Y-114808000D01*
X96583500Y-114966750D01*
X92392500Y-114966750D01*
X92233750Y-114808000D01*
X91059000Y-114808000D01*
X90805000Y-114808000D01*
X89630250Y-114808000D01*
X89471500Y-114966750D01*
X80391000Y-114966750D01*
X80391000Y-113729190D01*
X89471500Y-113729190D01*
X89471500Y-114395250D01*
X89630250Y-114554000D01*
X90805000Y-114554000D01*
X90805000Y-113379250D01*
X91059000Y-113379250D01*
X91059000Y-114554000D01*
X92233750Y-114554000D01*
X92392500Y-114395250D01*
X92392500Y-113729190D01*
X96583500Y-113729190D01*
X96583500Y-114395250D01*
X96742250Y-114554000D01*
X97917000Y-114554000D01*
X97917000Y-113379250D01*
X98171000Y-113379250D01*
X98171000Y-114554000D01*
X99345750Y-114554000D01*
X99504500Y-114395250D01*
X99504500Y-113729190D01*
X99407827Y-113495801D01*
X99229198Y-113317173D01*
X98995809Y-113220500D01*
X98329750Y-113220500D01*
X98171000Y-113379250D01*
X97917000Y-113379250D01*
X97758250Y-113220500D01*
X97092191Y-113220500D01*
X96858802Y-113317173D01*
X96680173Y-113495801D01*
X96583500Y-113729190D01*
X92392500Y-113729190D01*
X92295827Y-113495801D01*
X92117198Y-113317173D01*
X91883809Y-113220500D01*
X91217750Y-113220500D01*
X91059000Y-113379250D01*
X90805000Y-113379250D01*
X90646250Y-113220500D01*
X89980191Y-113220500D01*
X89746802Y-113317173D01*
X89568173Y-113495801D01*
X89471500Y-113729190D01*
X80391000Y-113729190D01*
X80391000Y-111404236D01*
X93077755Y-111404236D01*
X93291963Y-111922658D01*
X93688256Y-112319643D01*
X94206303Y-112534755D01*
X94767236Y-112535245D01*
X95285658Y-112321037D01*
X95682643Y-111924744D01*
X95897755Y-111406697D01*
X95898245Y-110845764D01*
X95684037Y-110327342D01*
X95287744Y-109930357D01*
X94769697Y-109715245D01*
X94208764Y-109714755D01*
X93690342Y-109928963D01*
X93293357Y-110325256D01*
X93078245Y-110843303D01*
X93077755Y-111404236D01*
X80391000Y-111404236D01*
X80391000Y-107854750D01*
X89471500Y-107854750D01*
X89471500Y-108520810D01*
X89568173Y-108754199D01*
X89746802Y-108932827D01*
X89980191Y-109029500D01*
X90646250Y-109029500D01*
X90805000Y-108870750D01*
X90805000Y-107696000D01*
X91059000Y-107696000D01*
X91059000Y-108870750D01*
X91217750Y-109029500D01*
X91883809Y-109029500D01*
X92117198Y-108932827D01*
X92295827Y-108754199D01*
X92392500Y-108520810D01*
X92392500Y-107854750D01*
X96583500Y-107854750D01*
X96583500Y-108520810D01*
X96680173Y-108754199D01*
X96858802Y-108932827D01*
X97092191Y-109029500D01*
X97758250Y-109029500D01*
X97917000Y-108870750D01*
X97917000Y-107696000D01*
X98171000Y-107696000D01*
X98171000Y-108870750D01*
X98329750Y-109029500D01*
X98995809Y-109029500D01*
X99229198Y-108932827D01*
X99407827Y-108754199D01*
X99504500Y-108520810D01*
X99504500Y-107854750D01*
X99345750Y-107696000D01*
X98171000Y-107696000D01*
X97917000Y-107696000D01*
X96742250Y-107696000D01*
X96583500Y-107854750D01*
X92392500Y-107854750D01*
X92233750Y-107696000D01*
X91059000Y-107696000D01*
X90805000Y-107696000D01*
X89630250Y-107696000D01*
X89471500Y-107854750D01*
X80391000Y-107854750D01*
X80391000Y-106617190D01*
X89471500Y-106617190D01*
X89471500Y-107283250D01*
X89630250Y-107442000D01*
X90805000Y-107442000D01*
X90805000Y-106267250D01*
X91059000Y-106267250D01*
X91059000Y-107442000D01*
X92233750Y-107442000D01*
X92392500Y-107283250D01*
X92392500Y-106617190D01*
X96583500Y-106617190D01*
X96583500Y-107283250D01*
X96742250Y-107442000D01*
X97917000Y-107442000D01*
X97917000Y-106267250D01*
X98171000Y-106267250D01*
X98171000Y-107442000D01*
X99345750Y-107442000D01*
X99504500Y-107283250D01*
X99504500Y-106617190D01*
X99407827Y-106383801D01*
X99229198Y-106205173D01*
X98995809Y-106108500D01*
X98329750Y-106108500D01*
X98171000Y-106267250D01*
X97917000Y-106267250D01*
X97758250Y-106108500D01*
X97092191Y-106108500D01*
X96858802Y-106205173D01*
X96680173Y-106383801D01*
X96583500Y-106617190D01*
X92392500Y-106617190D01*
X92295827Y-106383801D01*
X92117198Y-106205173D01*
X91883809Y-106108500D01*
X91217750Y-106108500D01*
X91059000Y-106267250D01*
X90805000Y-106267250D01*
X90646250Y-106108500D01*
X89980191Y-106108500D01*
X89746802Y-106205173D01*
X89568173Y-106383801D01*
X89471500Y-106617190D01*
X80391000Y-106617190D01*
X80391000Y-100406200D01*
X113665000Y-100406200D01*
X113665000Y-110439200D01*
X113665000Y-110439200D01*
G37*
X113665000Y-110439200D02*
X113675006Y-110488610D01*
X113703447Y-110530235D01*
X113745841Y-110557515D01*
X113792000Y-110566200D01*
X119659400Y-110566200D01*
X119659400Y-119659400D01*
X80391000Y-119659400D01*
X80391000Y-114966750D01*
X89471500Y-114966750D01*
X89471500Y-115632810D01*
X89568173Y-115866199D01*
X89746802Y-116044827D01*
X89980191Y-116141500D01*
X90646250Y-116141500D01*
X90805000Y-115982750D01*
X90805000Y-114808000D01*
X91059000Y-114808000D01*
X91059000Y-115982750D01*
X91217750Y-116141500D01*
X91883809Y-116141500D01*
X92117198Y-116044827D01*
X92295827Y-115866199D01*
X92392500Y-115632810D01*
X92392500Y-114966750D01*
X96583500Y-114966750D01*
X96583500Y-115632810D01*
X96680173Y-115866199D01*
X96858802Y-116044827D01*
X97092191Y-116141500D01*
X97758250Y-116141500D01*
X97917000Y-115982750D01*
X97917000Y-114808000D01*
X98171000Y-114808000D01*
X98171000Y-115982750D01*
X98329750Y-116141500D01*
X98995809Y-116141500D01*
X99229198Y-116044827D01*
X99407827Y-115866199D01*
X99504500Y-115632810D01*
X99504500Y-114966750D01*
X99345750Y-114808000D01*
X98171000Y-114808000D01*
X97917000Y-114808000D01*
X96742250Y-114808000D01*
X96583500Y-114966750D01*
X92392500Y-114966750D01*
X92233750Y-114808000D01*
X91059000Y-114808000D01*
X90805000Y-114808000D01*
X89630250Y-114808000D01*
X89471500Y-114966750D01*
X80391000Y-114966750D01*
X80391000Y-113729190D01*
X89471500Y-113729190D01*
X89471500Y-114395250D01*
X89630250Y-114554000D01*
X90805000Y-114554000D01*
X90805000Y-113379250D01*
X91059000Y-113379250D01*
X91059000Y-114554000D01*
X92233750Y-114554000D01*
X92392500Y-114395250D01*
X92392500Y-113729190D01*
X96583500Y-113729190D01*
X96583500Y-114395250D01*
X96742250Y-114554000D01*
X97917000Y-114554000D01*
X97917000Y-113379250D01*
X98171000Y-113379250D01*
X98171000Y-114554000D01*
X99345750Y-114554000D01*
X99504500Y-114395250D01*
X99504500Y-113729190D01*
X99407827Y-113495801D01*
X99229198Y-113317173D01*
X98995809Y-113220500D01*
X98329750Y-113220500D01*
X98171000Y-113379250D01*
X97917000Y-113379250D01*
X97758250Y-113220500D01*
X97092191Y-113220500D01*
X96858802Y-113317173D01*
X96680173Y-113495801D01*
X96583500Y-113729190D01*
X92392500Y-113729190D01*
X92295827Y-113495801D01*
X92117198Y-113317173D01*
X91883809Y-113220500D01*
X91217750Y-113220500D01*
X91059000Y-113379250D01*
X90805000Y-113379250D01*
X90646250Y-113220500D01*
X89980191Y-113220500D01*
X89746802Y-113317173D01*
X89568173Y-113495801D01*
X89471500Y-113729190D01*
X80391000Y-113729190D01*
X80391000Y-111404236D01*
X93077755Y-111404236D01*
X93291963Y-111922658D01*
X93688256Y-112319643D01*
X94206303Y-112534755D01*
X94767236Y-112535245D01*
X95285658Y-112321037D01*
X95682643Y-111924744D01*
X95897755Y-111406697D01*
X95898245Y-110845764D01*
X95684037Y-110327342D01*
X95287744Y-109930357D01*
X94769697Y-109715245D01*
X94208764Y-109714755D01*
X93690342Y-109928963D01*
X93293357Y-110325256D01*
X93078245Y-110843303D01*
X93077755Y-111404236D01*
X80391000Y-111404236D01*
X80391000Y-107854750D01*
X89471500Y-107854750D01*
X89471500Y-108520810D01*
X89568173Y-108754199D01*
X89746802Y-108932827D01*
X89980191Y-109029500D01*
X90646250Y-109029500D01*
X90805000Y-108870750D01*
X90805000Y-107696000D01*
X91059000Y-107696000D01*
X91059000Y-108870750D01*
X91217750Y-109029500D01*
X91883809Y-109029500D01*
X92117198Y-108932827D01*
X92295827Y-108754199D01*
X92392500Y-108520810D01*
X92392500Y-107854750D01*
X96583500Y-107854750D01*
X96583500Y-108520810D01*
X96680173Y-108754199D01*
X96858802Y-108932827D01*
X97092191Y-109029500D01*
X97758250Y-109029500D01*
X97917000Y-108870750D01*
X97917000Y-107696000D01*
X98171000Y-107696000D01*
X98171000Y-108870750D01*
X98329750Y-109029500D01*
X98995809Y-109029500D01*
X99229198Y-108932827D01*
X99407827Y-108754199D01*
X99504500Y-108520810D01*
X99504500Y-107854750D01*
X99345750Y-107696000D01*
X98171000Y-107696000D01*
X97917000Y-107696000D01*
X96742250Y-107696000D01*
X96583500Y-107854750D01*
X92392500Y-107854750D01*
X92233750Y-107696000D01*
X91059000Y-107696000D01*
X90805000Y-107696000D01*
X89630250Y-107696000D01*
X89471500Y-107854750D01*
X80391000Y-107854750D01*
X80391000Y-106617190D01*
X89471500Y-106617190D01*
X89471500Y-107283250D01*
X89630250Y-107442000D01*
X90805000Y-107442000D01*
X90805000Y-106267250D01*
X91059000Y-106267250D01*
X91059000Y-107442000D01*
X92233750Y-107442000D01*
X92392500Y-107283250D01*
X92392500Y-106617190D01*
X96583500Y-106617190D01*
X96583500Y-107283250D01*
X96742250Y-107442000D01*
X97917000Y-107442000D01*
X97917000Y-106267250D01*
X98171000Y-106267250D01*
X98171000Y-107442000D01*
X99345750Y-107442000D01*
X99504500Y-107283250D01*
X99504500Y-106617190D01*
X99407827Y-106383801D01*
X99229198Y-106205173D01*
X98995809Y-106108500D01*
X98329750Y-106108500D01*
X98171000Y-106267250D01*
X97917000Y-106267250D01*
X97758250Y-106108500D01*
X97092191Y-106108500D01*
X96858802Y-106205173D01*
X96680173Y-106383801D01*
X96583500Y-106617190D01*
X92392500Y-106617190D01*
X92295827Y-106383801D01*
X92117198Y-106205173D01*
X91883809Y-106108500D01*
X91217750Y-106108500D01*
X91059000Y-106267250D01*
X90805000Y-106267250D01*
X90646250Y-106108500D01*
X89980191Y-106108500D01*
X89746802Y-106205173D01*
X89568173Y-106383801D01*
X89471500Y-106617190D01*
X80391000Y-106617190D01*
X80391000Y-100406200D01*
X113665000Y-100406200D01*
X113665000Y-110439200D01*
M02*
