G04 #@! TF.FileFunction,Copper,L1,Top,Signal*
%FSLAX46Y46*%
G04 Gerber Fmt 4.6, Leading zero omitted, Abs format (unit mm)*
G04 Created by KiCad (PCBNEW 4.0.5) date 05/07/17 17:18:14*
%MOMM*%
%LPD*%
G01*
G04 APERTURE LIST*
%ADD10C,0.100000*%
%ADD11C,1.000000*%
%ADD12R,0.800000X2.800000*%
%ADD13R,2.000000X1.000000*%
%ADD14R,1.651000X1.651000*%
%ADD15C,1.550000*%
%ADD16R,1.250000X1.500000*%
%ADD17R,1.500000X1.250000*%
%ADD18C,0.838200*%
%ADD19C,0.254000*%
G04 APERTURE END LIST*
D10*
D11*
X117602000Y-112649000D03*
X115697000Y-112649000D03*
X113665000Y-112649000D03*
X104267000Y-113030000D03*
X106172000Y-112776000D03*
X108204000Y-112776000D03*
X99949000Y-113030000D03*
X102108000Y-113030000D03*
X110109000Y-112776000D03*
X118872000Y-111252000D03*
X118872000Y-115062000D03*
X118872000Y-113284000D03*
X118872000Y-117094000D03*
X116840000Y-118745000D03*
X118872000Y-118745000D03*
X83312000Y-118745000D03*
X85344000Y-118745000D03*
X89408000Y-118745000D03*
X87376000Y-118745000D03*
X96012000Y-118745000D03*
X98044000Y-118745000D03*
X93726000Y-118745000D03*
X91694000Y-118745000D03*
X115062000Y-118745000D03*
X102108000Y-118745000D03*
X100076000Y-118745000D03*
X106426000Y-118745000D03*
X104394000Y-118745000D03*
X113030000Y-118745000D03*
X110744000Y-118745000D03*
X108712000Y-118745000D03*
X81280000Y-118618000D03*
X81280000Y-116586000D03*
X81280000Y-112776000D03*
X81280000Y-114554000D03*
X81280000Y-110744000D03*
X81280000Y-102997000D03*
X81280000Y-106807000D03*
X81280000Y-105029000D03*
X81280000Y-108839000D03*
X90932000Y-111887000D03*
X90932000Y-110109000D03*
X95631000Y-114808000D03*
X93599000Y-114808000D03*
X93472000Y-114808000D03*
X95504000Y-114808000D03*
X95631000Y-107696000D03*
X93599000Y-107696000D03*
X93726000Y-107696000D03*
X95758000Y-107696000D03*
X111252000Y-108966000D03*
X106680000Y-101092000D03*
X108712000Y-101092000D03*
X110998000Y-101092000D03*
X102362000Y-101092000D03*
X104394000Y-101092000D03*
X113030000Y-108712000D03*
X113030000Y-104902000D03*
X113030000Y-106680000D03*
X113030000Y-102870000D03*
X98044000Y-101092000D03*
X100076000Y-101092000D03*
X102870000Y-109220000D03*
X100838000Y-109220000D03*
X109474000Y-109220000D03*
X113030000Y-101092000D03*
X107188000Y-109220000D03*
X105156000Y-109220000D03*
X89662000Y-101092000D03*
X91694000Y-101092000D03*
X96012000Y-101092000D03*
X93980000Y-101092000D03*
X85344000Y-101092000D03*
X87376000Y-101092000D03*
X83312000Y-101092000D03*
D12*
X116331200Y-105202000D03*
D13*
X117551200Y-101712000D03*
X117551200Y-108712000D03*
D12*
X118771200Y-105212000D03*
D14*
X90932000Y-114681000D03*
X98044000Y-107569000D03*
X90932000Y-107569000D03*
X98044000Y-114681000D03*
D15*
X94488000Y-111125000D03*
D16*
X111848900Y-111119600D03*
X111848900Y-113619600D03*
D17*
X103307200Y-111125000D03*
X100807200Y-111125000D03*
D11*
X81280000Y-101092000D03*
D18*
X111848900Y-111119600D02*
X103312600Y-111119600D01*
X103312600Y-111119600D02*
X103307200Y-111125000D01*
X117551200Y-108712000D02*
X117551200Y-110705900D01*
X117137500Y-111119600D02*
X111848900Y-111119600D01*
X117551200Y-110705900D02*
X117137500Y-111119600D01*
X100807200Y-111125000D02*
X94488000Y-111125000D01*
X94513400Y-111150400D02*
X94488000Y-111125000D01*
D19*
G36*
X113665000Y-110065500D02*
X113032801Y-110065500D01*
X112937990Y-109918159D01*
X112725790Y-109773169D01*
X112473900Y-109722160D01*
X111223900Y-109722160D01*
X110988583Y-109766438D01*
X110772459Y-109905510D01*
X110663143Y-110065500D01*
X104532191Y-110065500D01*
X104521290Y-110048559D01*
X104309090Y-109903569D01*
X104057200Y-109852560D01*
X102557200Y-109852560D01*
X102321883Y-109896838D01*
X102105759Y-110035910D01*
X102058066Y-110105711D01*
X102021290Y-110048559D01*
X101809090Y-109903569D01*
X101557200Y-109852560D01*
X100057200Y-109852560D01*
X99821883Y-109896838D01*
X99605759Y-110035910D01*
X99581851Y-110070900D01*
X95428042Y-110070900D01*
X95287744Y-109930357D01*
X94769697Y-109715245D01*
X94208764Y-109714755D01*
X93690342Y-109928963D01*
X93293357Y-110325256D01*
X93078245Y-110843303D01*
X93077755Y-111404236D01*
X93291963Y-111922658D01*
X93688256Y-112319643D01*
X94206303Y-112534755D01*
X94767236Y-112535245D01*
X95285658Y-112321037D01*
X95427843Y-112179100D01*
X99578734Y-112179100D01*
X99593110Y-112201441D01*
X99805310Y-112346431D01*
X100057200Y-112397440D01*
X101557200Y-112397440D01*
X101792517Y-112353162D01*
X102008641Y-112214090D01*
X102056334Y-112144289D01*
X102093110Y-112201441D01*
X102305310Y-112346431D01*
X102557200Y-112397440D01*
X104057200Y-112397440D01*
X104292517Y-112353162D01*
X104508641Y-112214090D01*
X104536238Y-112173700D01*
X110664999Y-112173700D01*
X110759810Y-112321041D01*
X110827906Y-112367569D01*
X110685573Y-112509902D01*
X110588900Y-112743291D01*
X110588900Y-113333850D01*
X110747650Y-113492600D01*
X111721900Y-113492600D01*
X111721900Y-113472600D01*
X111975900Y-113472600D01*
X111975900Y-113492600D01*
X112950150Y-113492600D01*
X113108900Y-113333850D01*
X113108900Y-112743291D01*
X113012227Y-112509902D01*
X112870990Y-112368664D01*
X112925341Y-112333690D01*
X113034657Y-112173700D01*
X117137500Y-112173700D01*
X117540887Y-112093461D01*
X117882861Y-111864961D01*
X118296561Y-111451261D01*
X118497590Y-111150400D01*
X118525061Y-111109287D01*
X118605300Y-110705900D01*
X118605300Y-110566200D01*
X119659400Y-110566200D01*
X119659400Y-119659400D01*
X80391000Y-119659400D01*
X80391000Y-114966750D01*
X89471500Y-114966750D01*
X89471500Y-115632810D01*
X89568173Y-115866199D01*
X89746802Y-116044827D01*
X89980191Y-116141500D01*
X90646250Y-116141500D01*
X90805000Y-115982750D01*
X90805000Y-114808000D01*
X91059000Y-114808000D01*
X91059000Y-115982750D01*
X91217750Y-116141500D01*
X91883809Y-116141500D01*
X92117198Y-116044827D01*
X92295827Y-115866199D01*
X92392500Y-115632810D01*
X92392500Y-114966750D01*
X96583500Y-114966750D01*
X96583500Y-115632810D01*
X96680173Y-115866199D01*
X96858802Y-116044827D01*
X97092191Y-116141500D01*
X97758250Y-116141500D01*
X97917000Y-115982750D01*
X97917000Y-114808000D01*
X98171000Y-114808000D01*
X98171000Y-115982750D01*
X98329750Y-116141500D01*
X98995809Y-116141500D01*
X99229198Y-116044827D01*
X99407827Y-115866199D01*
X99504500Y-115632810D01*
X99504500Y-114966750D01*
X99345750Y-114808000D01*
X98171000Y-114808000D01*
X97917000Y-114808000D01*
X96742250Y-114808000D01*
X96583500Y-114966750D01*
X92392500Y-114966750D01*
X92233750Y-114808000D01*
X91059000Y-114808000D01*
X90805000Y-114808000D01*
X89630250Y-114808000D01*
X89471500Y-114966750D01*
X80391000Y-114966750D01*
X80391000Y-113729190D01*
X89471500Y-113729190D01*
X89471500Y-114395250D01*
X89630250Y-114554000D01*
X90805000Y-114554000D01*
X90805000Y-113379250D01*
X91059000Y-113379250D01*
X91059000Y-114554000D01*
X92233750Y-114554000D01*
X92392500Y-114395250D01*
X92392500Y-113729190D01*
X96583500Y-113729190D01*
X96583500Y-114395250D01*
X96742250Y-114554000D01*
X97917000Y-114554000D01*
X97917000Y-113379250D01*
X98171000Y-113379250D01*
X98171000Y-114554000D01*
X99345750Y-114554000D01*
X99504500Y-114395250D01*
X99504500Y-113905350D01*
X110588900Y-113905350D01*
X110588900Y-114495909D01*
X110685573Y-114729298D01*
X110864201Y-114907927D01*
X111097590Y-115004600D01*
X111563150Y-115004600D01*
X111721900Y-114845850D01*
X111721900Y-113746600D01*
X111975900Y-113746600D01*
X111975900Y-114845850D01*
X112134650Y-115004600D01*
X112600210Y-115004600D01*
X112833599Y-114907927D01*
X113012227Y-114729298D01*
X113108900Y-114495909D01*
X113108900Y-113905350D01*
X112950150Y-113746600D01*
X111975900Y-113746600D01*
X111721900Y-113746600D01*
X110747650Y-113746600D01*
X110588900Y-113905350D01*
X99504500Y-113905350D01*
X99504500Y-113729190D01*
X99407827Y-113495801D01*
X99229198Y-113317173D01*
X98995809Y-113220500D01*
X98329750Y-113220500D01*
X98171000Y-113379250D01*
X97917000Y-113379250D01*
X97758250Y-113220500D01*
X97092191Y-113220500D01*
X96858802Y-113317173D01*
X96680173Y-113495801D01*
X96583500Y-113729190D01*
X92392500Y-113729190D01*
X92295827Y-113495801D01*
X92117198Y-113317173D01*
X91883809Y-113220500D01*
X91217750Y-113220500D01*
X91059000Y-113379250D01*
X90805000Y-113379250D01*
X90646250Y-113220500D01*
X89980191Y-113220500D01*
X89746802Y-113317173D01*
X89568173Y-113495801D01*
X89471500Y-113729190D01*
X80391000Y-113729190D01*
X80391000Y-107854750D01*
X89471500Y-107854750D01*
X89471500Y-108520810D01*
X89568173Y-108754199D01*
X89746802Y-108932827D01*
X89980191Y-109029500D01*
X90646250Y-109029500D01*
X90805000Y-108870750D01*
X90805000Y-107696000D01*
X91059000Y-107696000D01*
X91059000Y-108870750D01*
X91217750Y-109029500D01*
X91883809Y-109029500D01*
X92117198Y-108932827D01*
X92295827Y-108754199D01*
X92392500Y-108520810D01*
X92392500Y-107854750D01*
X96583500Y-107854750D01*
X96583500Y-108520810D01*
X96680173Y-108754199D01*
X96858802Y-108932827D01*
X97092191Y-109029500D01*
X97758250Y-109029500D01*
X97917000Y-108870750D01*
X97917000Y-107696000D01*
X98171000Y-107696000D01*
X98171000Y-108870750D01*
X98329750Y-109029500D01*
X98995809Y-109029500D01*
X99229198Y-108932827D01*
X99407827Y-108754199D01*
X99504500Y-108520810D01*
X99504500Y-107854750D01*
X99345750Y-107696000D01*
X98171000Y-107696000D01*
X97917000Y-107696000D01*
X96742250Y-107696000D01*
X96583500Y-107854750D01*
X92392500Y-107854750D01*
X92233750Y-107696000D01*
X91059000Y-107696000D01*
X90805000Y-107696000D01*
X89630250Y-107696000D01*
X89471500Y-107854750D01*
X80391000Y-107854750D01*
X80391000Y-106617190D01*
X89471500Y-106617190D01*
X89471500Y-107283250D01*
X89630250Y-107442000D01*
X90805000Y-107442000D01*
X90805000Y-106267250D01*
X91059000Y-106267250D01*
X91059000Y-107442000D01*
X92233750Y-107442000D01*
X92392500Y-107283250D01*
X92392500Y-106617190D01*
X96583500Y-106617190D01*
X96583500Y-107283250D01*
X96742250Y-107442000D01*
X97917000Y-107442000D01*
X97917000Y-106267250D01*
X98171000Y-106267250D01*
X98171000Y-107442000D01*
X99345750Y-107442000D01*
X99504500Y-107283250D01*
X99504500Y-106617190D01*
X99407827Y-106383801D01*
X99229198Y-106205173D01*
X98995809Y-106108500D01*
X98329750Y-106108500D01*
X98171000Y-106267250D01*
X97917000Y-106267250D01*
X97758250Y-106108500D01*
X97092191Y-106108500D01*
X96858802Y-106205173D01*
X96680173Y-106383801D01*
X96583500Y-106617190D01*
X92392500Y-106617190D01*
X92295827Y-106383801D01*
X92117198Y-106205173D01*
X91883809Y-106108500D01*
X91217750Y-106108500D01*
X91059000Y-106267250D01*
X90805000Y-106267250D01*
X90646250Y-106108500D01*
X89980191Y-106108500D01*
X89746802Y-106205173D01*
X89568173Y-106383801D01*
X89471500Y-106617190D01*
X80391000Y-106617190D01*
X80391000Y-100406200D01*
X113665000Y-100406200D01*
X113665000Y-110065500D01*
X113665000Y-110065500D01*
G37*
X113665000Y-110065500D02*
X113032801Y-110065500D01*
X112937990Y-109918159D01*
X112725790Y-109773169D01*
X112473900Y-109722160D01*
X111223900Y-109722160D01*
X110988583Y-109766438D01*
X110772459Y-109905510D01*
X110663143Y-110065500D01*
X104532191Y-110065500D01*
X104521290Y-110048559D01*
X104309090Y-109903569D01*
X104057200Y-109852560D01*
X102557200Y-109852560D01*
X102321883Y-109896838D01*
X102105759Y-110035910D01*
X102058066Y-110105711D01*
X102021290Y-110048559D01*
X101809090Y-109903569D01*
X101557200Y-109852560D01*
X100057200Y-109852560D01*
X99821883Y-109896838D01*
X99605759Y-110035910D01*
X99581851Y-110070900D01*
X95428042Y-110070900D01*
X95287744Y-109930357D01*
X94769697Y-109715245D01*
X94208764Y-109714755D01*
X93690342Y-109928963D01*
X93293357Y-110325256D01*
X93078245Y-110843303D01*
X93077755Y-111404236D01*
X93291963Y-111922658D01*
X93688256Y-112319643D01*
X94206303Y-112534755D01*
X94767236Y-112535245D01*
X95285658Y-112321037D01*
X95427843Y-112179100D01*
X99578734Y-112179100D01*
X99593110Y-112201441D01*
X99805310Y-112346431D01*
X100057200Y-112397440D01*
X101557200Y-112397440D01*
X101792517Y-112353162D01*
X102008641Y-112214090D01*
X102056334Y-112144289D01*
X102093110Y-112201441D01*
X102305310Y-112346431D01*
X102557200Y-112397440D01*
X104057200Y-112397440D01*
X104292517Y-112353162D01*
X104508641Y-112214090D01*
X104536238Y-112173700D01*
X110664999Y-112173700D01*
X110759810Y-112321041D01*
X110827906Y-112367569D01*
X110685573Y-112509902D01*
X110588900Y-112743291D01*
X110588900Y-113333850D01*
X110747650Y-113492600D01*
X111721900Y-113492600D01*
X111721900Y-113472600D01*
X111975900Y-113472600D01*
X111975900Y-113492600D01*
X112950150Y-113492600D01*
X113108900Y-113333850D01*
X113108900Y-112743291D01*
X113012227Y-112509902D01*
X112870990Y-112368664D01*
X112925341Y-112333690D01*
X113034657Y-112173700D01*
X117137500Y-112173700D01*
X117540887Y-112093461D01*
X117882861Y-111864961D01*
X118296561Y-111451261D01*
X118497590Y-111150400D01*
X118525061Y-111109287D01*
X118605300Y-110705900D01*
X118605300Y-110566200D01*
X119659400Y-110566200D01*
X119659400Y-119659400D01*
X80391000Y-119659400D01*
X80391000Y-114966750D01*
X89471500Y-114966750D01*
X89471500Y-115632810D01*
X89568173Y-115866199D01*
X89746802Y-116044827D01*
X89980191Y-116141500D01*
X90646250Y-116141500D01*
X90805000Y-115982750D01*
X90805000Y-114808000D01*
X91059000Y-114808000D01*
X91059000Y-115982750D01*
X91217750Y-116141500D01*
X91883809Y-116141500D01*
X92117198Y-116044827D01*
X92295827Y-115866199D01*
X92392500Y-115632810D01*
X92392500Y-114966750D01*
X96583500Y-114966750D01*
X96583500Y-115632810D01*
X96680173Y-115866199D01*
X96858802Y-116044827D01*
X97092191Y-116141500D01*
X97758250Y-116141500D01*
X97917000Y-115982750D01*
X97917000Y-114808000D01*
X98171000Y-114808000D01*
X98171000Y-115982750D01*
X98329750Y-116141500D01*
X98995809Y-116141500D01*
X99229198Y-116044827D01*
X99407827Y-115866199D01*
X99504500Y-115632810D01*
X99504500Y-114966750D01*
X99345750Y-114808000D01*
X98171000Y-114808000D01*
X97917000Y-114808000D01*
X96742250Y-114808000D01*
X96583500Y-114966750D01*
X92392500Y-114966750D01*
X92233750Y-114808000D01*
X91059000Y-114808000D01*
X90805000Y-114808000D01*
X89630250Y-114808000D01*
X89471500Y-114966750D01*
X80391000Y-114966750D01*
X80391000Y-113729190D01*
X89471500Y-113729190D01*
X89471500Y-114395250D01*
X89630250Y-114554000D01*
X90805000Y-114554000D01*
X90805000Y-113379250D01*
X91059000Y-113379250D01*
X91059000Y-114554000D01*
X92233750Y-114554000D01*
X92392500Y-114395250D01*
X92392500Y-113729190D01*
X96583500Y-113729190D01*
X96583500Y-114395250D01*
X96742250Y-114554000D01*
X97917000Y-114554000D01*
X97917000Y-113379250D01*
X98171000Y-113379250D01*
X98171000Y-114554000D01*
X99345750Y-114554000D01*
X99504500Y-114395250D01*
X99504500Y-113905350D01*
X110588900Y-113905350D01*
X110588900Y-114495909D01*
X110685573Y-114729298D01*
X110864201Y-114907927D01*
X111097590Y-115004600D01*
X111563150Y-115004600D01*
X111721900Y-114845850D01*
X111721900Y-113746600D01*
X111975900Y-113746600D01*
X111975900Y-114845850D01*
X112134650Y-115004600D01*
X112600210Y-115004600D01*
X112833599Y-114907927D01*
X113012227Y-114729298D01*
X113108900Y-114495909D01*
X113108900Y-113905350D01*
X112950150Y-113746600D01*
X111975900Y-113746600D01*
X111721900Y-113746600D01*
X110747650Y-113746600D01*
X110588900Y-113905350D01*
X99504500Y-113905350D01*
X99504500Y-113729190D01*
X99407827Y-113495801D01*
X99229198Y-113317173D01*
X98995809Y-113220500D01*
X98329750Y-113220500D01*
X98171000Y-113379250D01*
X97917000Y-113379250D01*
X97758250Y-113220500D01*
X97092191Y-113220500D01*
X96858802Y-113317173D01*
X96680173Y-113495801D01*
X96583500Y-113729190D01*
X92392500Y-113729190D01*
X92295827Y-113495801D01*
X92117198Y-113317173D01*
X91883809Y-113220500D01*
X91217750Y-113220500D01*
X91059000Y-113379250D01*
X90805000Y-113379250D01*
X90646250Y-113220500D01*
X89980191Y-113220500D01*
X89746802Y-113317173D01*
X89568173Y-113495801D01*
X89471500Y-113729190D01*
X80391000Y-113729190D01*
X80391000Y-107854750D01*
X89471500Y-107854750D01*
X89471500Y-108520810D01*
X89568173Y-108754199D01*
X89746802Y-108932827D01*
X89980191Y-109029500D01*
X90646250Y-109029500D01*
X90805000Y-108870750D01*
X90805000Y-107696000D01*
X91059000Y-107696000D01*
X91059000Y-108870750D01*
X91217750Y-109029500D01*
X91883809Y-109029500D01*
X92117198Y-108932827D01*
X92295827Y-108754199D01*
X92392500Y-108520810D01*
X92392500Y-107854750D01*
X96583500Y-107854750D01*
X96583500Y-108520810D01*
X96680173Y-108754199D01*
X96858802Y-108932827D01*
X97092191Y-109029500D01*
X97758250Y-109029500D01*
X97917000Y-108870750D01*
X97917000Y-107696000D01*
X98171000Y-107696000D01*
X98171000Y-108870750D01*
X98329750Y-109029500D01*
X98995809Y-109029500D01*
X99229198Y-108932827D01*
X99407827Y-108754199D01*
X99504500Y-108520810D01*
X99504500Y-107854750D01*
X99345750Y-107696000D01*
X98171000Y-107696000D01*
X97917000Y-107696000D01*
X96742250Y-107696000D01*
X96583500Y-107854750D01*
X92392500Y-107854750D01*
X92233750Y-107696000D01*
X91059000Y-107696000D01*
X90805000Y-107696000D01*
X89630250Y-107696000D01*
X89471500Y-107854750D01*
X80391000Y-107854750D01*
X80391000Y-106617190D01*
X89471500Y-106617190D01*
X89471500Y-107283250D01*
X89630250Y-107442000D01*
X90805000Y-107442000D01*
X90805000Y-106267250D01*
X91059000Y-106267250D01*
X91059000Y-107442000D01*
X92233750Y-107442000D01*
X92392500Y-107283250D01*
X92392500Y-106617190D01*
X96583500Y-106617190D01*
X96583500Y-107283250D01*
X96742250Y-107442000D01*
X97917000Y-107442000D01*
X97917000Y-106267250D01*
X98171000Y-106267250D01*
X98171000Y-107442000D01*
X99345750Y-107442000D01*
X99504500Y-107283250D01*
X99504500Y-106617190D01*
X99407827Y-106383801D01*
X99229198Y-106205173D01*
X98995809Y-106108500D01*
X98329750Y-106108500D01*
X98171000Y-106267250D01*
X97917000Y-106267250D01*
X97758250Y-106108500D01*
X97092191Y-106108500D01*
X96858802Y-106205173D01*
X96680173Y-106383801D01*
X96583500Y-106617190D01*
X92392500Y-106617190D01*
X92295827Y-106383801D01*
X92117198Y-106205173D01*
X91883809Y-106108500D01*
X91217750Y-106108500D01*
X91059000Y-106267250D01*
X90805000Y-106267250D01*
X90646250Y-106108500D01*
X89980191Y-106108500D01*
X89746802Y-106205173D01*
X89568173Y-106383801D01*
X89471500Y-106617190D01*
X80391000Y-106617190D01*
X80391000Y-100406200D01*
X113665000Y-100406200D01*
X113665000Y-110065500D01*
M02*
