G04 #@! TF.FileFunction,Copper,L2,Bot,Signal*
%FSLAX46Y46*%
G04 Gerber Fmt 4.6, Leading zero omitted, Abs format (unit mm)*
G04 Created by KiCad (PCBNEW 4.0.5) date 02/22/17 14:17:41*
%MOMM*%
%LPD*%
G01*
G04 APERTURE LIST*
%ADD10C,0.127000*%
%ADD11R,2.420000X5.080000*%
%ADD12C,0.970000*%
%ADD13R,0.460000X0.890000*%
%ADD14C,0.355600*%
%ADD15C,0.254000*%
G04 APERTURE END LIST*
D10*
D11*
X7507200Y3614000D03*
X16267200Y3614000D03*
D12*
X7507200Y7054000D03*
X16267200Y7054000D03*
D13*
X7507200Y6604000D03*
X16267200Y6604000D03*
D14*
X26250900Y14579600D03*
X24053800Y14579600D03*
X21856700Y14579600D03*
X19659600Y14579600D03*
X17462500Y14579600D03*
X15265400Y14579600D03*
X13068300Y14579600D03*
X1917700Y14579600D03*
X4114800Y14579600D03*
X6311900Y14579600D03*
X8509000Y14579600D03*
X10706100Y14579600D03*
D15*
G36*
X27482800Y127000D02*
X127000Y127000D01*
X127000Y3328250D01*
X5662200Y3328250D01*
X5662200Y947691D01*
X5758873Y714302D01*
X5937501Y535673D01*
X6170890Y439000D01*
X7221450Y439000D01*
X7380200Y597750D01*
X7380200Y3487000D01*
X7634200Y3487000D01*
X7634200Y597750D01*
X7792950Y439000D01*
X8843510Y439000D01*
X9076899Y535673D01*
X9255527Y714302D01*
X9352200Y947691D01*
X9352200Y3328250D01*
X14422200Y3328250D01*
X14422200Y947691D01*
X14518873Y714302D01*
X14697501Y535673D01*
X14930890Y439000D01*
X15981450Y439000D01*
X16140200Y597750D01*
X16140200Y3487000D01*
X16394200Y3487000D01*
X16394200Y597750D01*
X16552950Y439000D01*
X17603510Y439000D01*
X17836899Y535673D01*
X18015527Y714302D01*
X18112200Y947691D01*
X18112200Y3328250D01*
X17953450Y3487000D01*
X16394200Y3487000D01*
X16140200Y3487000D01*
X14580950Y3487000D01*
X14422200Y3328250D01*
X9352200Y3328250D01*
X9193450Y3487000D01*
X7634200Y3487000D01*
X7380200Y3487000D01*
X5820950Y3487000D01*
X5662200Y3328250D01*
X127000Y3328250D01*
X127000Y6280309D01*
X5662200Y6280309D01*
X5662200Y3899750D01*
X5820950Y3741000D01*
X7380200Y3741000D01*
X7380200Y3761000D01*
X7634200Y3761000D01*
X7634200Y3741000D01*
X9193450Y3741000D01*
X9352200Y3899750D01*
X9352200Y6280309D01*
X14422200Y6280309D01*
X14422200Y3899750D01*
X14580950Y3741000D01*
X16140200Y3741000D01*
X16140200Y3761000D01*
X16394200Y3761000D01*
X16394200Y3741000D01*
X17953450Y3741000D01*
X18112200Y3899750D01*
X18112200Y6280309D01*
X18015527Y6513698D01*
X17836899Y6692327D01*
X17603510Y6789000D01*
X17359329Y6789000D01*
X17400349Y6912564D01*
X17368218Y7356968D01*
X17259968Y7618308D01*
X17046400Y7653595D01*
X16918515Y7525710D01*
X16856899Y7587327D01*
X16690038Y7656443D01*
X16866795Y7833200D01*
X16831508Y8046768D01*
X16408636Y8187149D01*
X15964232Y8155018D01*
X15702892Y8046768D01*
X15667605Y7833200D01*
X15844362Y7656443D01*
X15677501Y7587327D01*
X15615885Y7525710D01*
X15488000Y7653595D01*
X15274432Y7618308D01*
X15134051Y7195436D01*
X15163437Y6789000D01*
X14930890Y6789000D01*
X14697501Y6692327D01*
X14518873Y6513698D01*
X14422200Y6280309D01*
X9352200Y6280309D01*
X9255527Y6513698D01*
X9076899Y6692327D01*
X8843510Y6789000D01*
X8599329Y6789000D01*
X8640349Y6912564D01*
X8608218Y7356968D01*
X8499968Y7618308D01*
X8286400Y7653595D01*
X8158515Y7525710D01*
X8096899Y7587327D01*
X7930038Y7656443D01*
X8106795Y7833200D01*
X8071508Y8046768D01*
X7648636Y8187149D01*
X7204232Y8155018D01*
X6942892Y8046768D01*
X6907605Y7833200D01*
X7084362Y7656443D01*
X6917501Y7587327D01*
X6855885Y7525710D01*
X6728000Y7653595D01*
X6514432Y7618308D01*
X6374051Y7195436D01*
X6403437Y6789000D01*
X6170890Y6789000D01*
X5937501Y6692327D01*
X5758873Y6513698D01*
X5662200Y6280309D01*
X127000Y6280309D01*
X127000Y14960600D01*
X27482800Y14960600D01*
X27482800Y127000D01*
X27482800Y127000D01*
G37*
X27482800Y127000D02*
X127000Y127000D01*
X127000Y3328250D01*
X5662200Y3328250D01*
X5662200Y947691D01*
X5758873Y714302D01*
X5937501Y535673D01*
X6170890Y439000D01*
X7221450Y439000D01*
X7380200Y597750D01*
X7380200Y3487000D01*
X7634200Y3487000D01*
X7634200Y597750D01*
X7792950Y439000D01*
X8843510Y439000D01*
X9076899Y535673D01*
X9255527Y714302D01*
X9352200Y947691D01*
X9352200Y3328250D01*
X14422200Y3328250D01*
X14422200Y947691D01*
X14518873Y714302D01*
X14697501Y535673D01*
X14930890Y439000D01*
X15981450Y439000D01*
X16140200Y597750D01*
X16140200Y3487000D01*
X16394200Y3487000D01*
X16394200Y597750D01*
X16552950Y439000D01*
X17603510Y439000D01*
X17836899Y535673D01*
X18015527Y714302D01*
X18112200Y947691D01*
X18112200Y3328250D01*
X17953450Y3487000D01*
X16394200Y3487000D01*
X16140200Y3487000D01*
X14580950Y3487000D01*
X14422200Y3328250D01*
X9352200Y3328250D01*
X9193450Y3487000D01*
X7634200Y3487000D01*
X7380200Y3487000D01*
X5820950Y3487000D01*
X5662200Y3328250D01*
X127000Y3328250D01*
X127000Y6280309D01*
X5662200Y6280309D01*
X5662200Y3899750D01*
X5820950Y3741000D01*
X7380200Y3741000D01*
X7380200Y3761000D01*
X7634200Y3761000D01*
X7634200Y3741000D01*
X9193450Y3741000D01*
X9352200Y3899750D01*
X9352200Y6280309D01*
X14422200Y6280309D01*
X14422200Y3899750D01*
X14580950Y3741000D01*
X16140200Y3741000D01*
X16140200Y3761000D01*
X16394200Y3761000D01*
X16394200Y3741000D01*
X17953450Y3741000D01*
X18112200Y3899750D01*
X18112200Y6280309D01*
X18015527Y6513698D01*
X17836899Y6692327D01*
X17603510Y6789000D01*
X17359329Y6789000D01*
X17400349Y6912564D01*
X17368218Y7356968D01*
X17259968Y7618308D01*
X17046400Y7653595D01*
X16918515Y7525710D01*
X16856899Y7587327D01*
X16690038Y7656443D01*
X16866795Y7833200D01*
X16831508Y8046768D01*
X16408636Y8187149D01*
X15964232Y8155018D01*
X15702892Y8046768D01*
X15667605Y7833200D01*
X15844362Y7656443D01*
X15677501Y7587327D01*
X15615885Y7525710D01*
X15488000Y7653595D01*
X15274432Y7618308D01*
X15134051Y7195436D01*
X15163437Y6789000D01*
X14930890Y6789000D01*
X14697501Y6692327D01*
X14518873Y6513698D01*
X14422200Y6280309D01*
X9352200Y6280309D01*
X9255527Y6513698D01*
X9076899Y6692327D01*
X8843510Y6789000D01*
X8599329Y6789000D01*
X8640349Y6912564D01*
X8608218Y7356968D01*
X8499968Y7618308D01*
X8286400Y7653595D01*
X8158515Y7525710D01*
X8096899Y7587327D01*
X7930038Y7656443D01*
X8106795Y7833200D01*
X8071508Y8046768D01*
X7648636Y8187149D01*
X7204232Y8155018D01*
X6942892Y8046768D01*
X6907605Y7833200D01*
X7084362Y7656443D01*
X6917501Y7587327D01*
X6855885Y7525710D01*
X6728000Y7653595D01*
X6514432Y7618308D01*
X6374051Y7195436D01*
X6403437Y6789000D01*
X6170890Y6789000D01*
X5937501Y6692327D01*
X5758873Y6513698D01*
X5662200Y6280309D01*
X127000Y6280309D01*
X127000Y14960600D01*
X27482800Y14960600D01*
X27482800Y127000D01*
M02*
