G04 #@! TF.FileFunction,Copper,L1,Top,Signal*
%FSLAX46Y46*%
G04 Gerber Fmt 4.6, Leading zero omitted, Abs format (unit mm)*
G04 Created by KiCad (PCBNEW 4.0.5) date 02/22/17 14:17:41*
%MOMM*%
%LPD*%
G01*
G04 APERTURE LIST*
%ADD10C,0.127000*%
%ADD11R,2.290000X5.080000*%
%ADD12R,2.420000X5.080000*%
%ADD13C,0.970000*%
%ADD14R,0.460000X0.890000*%
%ADD15C,0.355600*%
%ADD16C,0.254000*%
G04 APERTURE END LIST*
D10*
D11*
X11887200Y3614000D03*
D12*
X7507200Y3614000D03*
X16267200Y3614000D03*
D13*
X7507200Y7054000D03*
X16267200Y7054000D03*
D14*
X7507200Y6604000D03*
X16267200Y6604000D03*
D15*
X26250900Y14579600D03*
X24053800Y14579600D03*
X21856700Y14579600D03*
X19659600Y14579600D03*
X17462500Y14579600D03*
X15265400Y14579600D03*
X13068300Y14579600D03*
X1917700Y14579600D03*
X4114800Y14579600D03*
X6311900Y14579600D03*
X8509000Y14579600D03*
X10706100Y14579600D03*
D16*
G36*
X26466800Y20396200D02*
X10210800Y20396200D01*
X10161390Y20386194D01*
X10119765Y20357753D01*
X10092485Y20315359D01*
X10083800Y20269200D01*
X10083800Y18465800D01*
X10093806Y18416390D01*
X10122247Y18374765D01*
X10164641Y18347485D01*
X10210800Y18338800D01*
X11074400Y18338800D01*
X11074400Y18135600D01*
X11084406Y18086190D01*
X11111597Y18045797D01*
X11988800Y17168594D01*
X11988800Y15087600D01*
X11998806Y15038190D01*
X12027247Y14996565D01*
X12069641Y14969285D01*
X12115800Y14960600D01*
X12293600Y14960600D01*
X12293600Y6789000D01*
X12172950Y6789000D01*
X12014200Y6630250D01*
X12014200Y3403600D01*
X11760200Y3403600D01*
X11760200Y6630250D01*
X11601450Y6789000D01*
X11480800Y6789000D01*
X11480800Y14960600D01*
X11658600Y14960600D01*
X11708010Y14970606D01*
X11749635Y14999047D01*
X11776915Y15041441D01*
X11785600Y15087600D01*
X11785600Y17170400D01*
X11775594Y17219810D01*
X11748403Y17260203D01*
X11138803Y17869803D01*
X11096789Y17897666D01*
X11049000Y17907000D01*
X8128000Y17907000D01*
X8128000Y18338800D01*
X8991600Y18338800D01*
X9041010Y18348806D01*
X9082635Y18377247D01*
X9109915Y18419641D01*
X9118600Y18465800D01*
X9118600Y19278600D01*
X9108594Y19328010D01*
X9080153Y19369635D01*
X9037759Y19396915D01*
X8991600Y19405600D01*
X3200400Y19405600D01*
X3150990Y19395594D01*
X3109365Y19367153D01*
X3082085Y19324759D01*
X3073400Y19278600D01*
X3073400Y17119600D01*
X3083406Y17070190D01*
X3111847Y17028565D01*
X3154241Y17001285D01*
X3200400Y16992600D01*
X11074400Y16992600D01*
X11074400Y6789000D01*
X10615890Y6789000D01*
X10382501Y6692327D01*
X10203873Y6513698D01*
X10107200Y6280309D01*
X10107200Y3899750D01*
X10109200Y3897750D01*
X10109200Y3330250D01*
X10107200Y3328250D01*
X10107200Y947691D01*
X10203873Y714302D01*
X10382501Y535673D01*
X10615890Y439000D01*
X11601450Y439000D01*
X11619650Y457200D01*
X12154750Y457200D01*
X12172950Y439000D01*
X13158510Y439000D01*
X13391899Y535673D01*
X13570527Y714302D01*
X13667200Y947691D01*
X13667200Y3328250D01*
X14422200Y3328250D01*
X14422200Y947691D01*
X14518873Y714302D01*
X14697501Y535673D01*
X14930890Y439000D01*
X15981450Y439000D01*
X16140200Y597750D01*
X16140200Y3487000D01*
X16394200Y3487000D01*
X16394200Y597750D01*
X16552950Y439000D01*
X17603510Y439000D01*
X17836899Y535673D01*
X18015527Y714302D01*
X18112200Y947691D01*
X18112200Y3328250D01*
X17953450Y3487000D01*
X16394200Y3487000D01*
X16140200Y3487000D01*
X14580950Y3487000D01*
X14422200Y3328250D01*
X13667200Y3328250D01*
X13665200Y3330250D01*
X13665200Y3897750D01*
X13667200Y3899750D01*
X13667200Y6280309D01*
X14422200Y6280309D01*
X14422200Y3899750D01*
X14580950Y3741000D01*
X16140200Y3741000D01*
X16140200Y3761000D01*
X16394200Y3761000D01*
X16394200Y3741000D01*
X17953450Y3741000D01*
X18112200Y3899750D01*
X18112200Y6280309D01*
X18015527Y6513698D01*
X17836899Y6692327D01*
X17603510Y6789000D01*
X17359329Y6789000D01*
X17400349Y6912564D01*
X17368218Y7356968D01*
X17259968Y7618308D01*
X17046400Y7653595D01*
X16918515Y7525710D01*
X16856899Y7587327D01*
X16690038Y7656443D01*
X16866795Y7833200D01*
X16831508Y8046768D01*
X16408636Y8187149D01*
X15964232Y8155018D01*
X15702892Y8046768D01*
X15667605Y7833200D01*
X15844362Y7656443D01*
X15677501Y7587327D01*
X15615885Y7525710D01*
X15488000Y7653595D01*
X15274432Y7618308D01*
X15134051Y7195436D01*
X15163437Y6789000D01*
X14930890Y6789000D01*
X14697501Y6692327D01*
X14518873Y6513698D01*
X14422200Y6280309D01*
X13667200Y6280309D01*
X13570527Y6513698D01*
X13391899Y6692327D01*
X13158510Y6789000D01*
X12700000Y6789000D01*
X12700000Y14960600D01*
X27482800Y14960600D01*
X27482800Y127000D01*
X127000Y127000D01*
X127000Y3328250D01*
X5662200Y3328250D01*
X5662200Y947691D01*
X5758873Y714302D01*
X5937501Y535673D01*
X6170890Y439000D01*
X7221450Y439000D01*
X7380200Y597750D01*
X7380200Y3487000D01*
X7634200Y3487000D01*
X7634200Y597750D01*
X7792950Y439000D01*
X8843510Y439000D01*
X9076899Y535673D01*
X9255527Y714302D01*
X9352200Y947691D01*
X9352200Y3328250D01*
X9193450Y3487000D01*
X7634200Y3487000D01*
X7380200Y3487000D01*
X5820950Y3487000D01*
X5662200Y3328250D01*
X127000Y3328250D01*
X127000Y6280309D01*
X5662200Y6280309D01*
X5662200Y3899750D01*
X5820950Y3741000D01*
X7380200Y3741000D01*
X7380200Y3761000D01*
X7634200Y3761000D01*
X7634200Y3741000D01*
X9193450Y3741000D01*
X9352200Y3899750D01*
X9352200Y6280309D01*
X9255527Y6513698D01*
X9076899Y6692327D01*
X8843510Y6789000D01*
X8599329Y6789000D01*
X8640349Y6912564D01*
X8608218Y7356968D01*
X8499968Y7618308D01*
X8286400Y7653595D01*
X8158515Y7525710D01*
X8096899Y7587327D01*
X7930038Y7656443D01*
X8106795Y7833200D01*
X8071508Y8046768D01*
X7648636Y8187149D01*
X7204232Y8155018D01*
X6942892Y8046768D01*
X6907605Y7833200D01*
X7084362Y7656443D01*
X6917501Y7587327D01*
X6855885Y7525710D01*
X6728000Y7653595D01*
X6514432Y7618308D01*
X6374051Y7195436D01*
X6403437Y6789000D01*
X6170890Y6789000D01*
X5937501Y6692327D01*
X5758873Y6513698D01*
X5662200Y6280309D01*
X127000Y6280309D01*
X127000Y14960600D01*
X8001000Y14960600D01*
X8050410Y14970606D01*
X8092035Y14999047D01*
X8119315Y15041441D01*
X8128000Y15087600D01*
X8128000Y15824200D01*
X8864600Y15824200D01*
X8864600Y15087600D01*
X8874606Y15038190D01*
X8903047Y14996565D01*
X8945441Y14969285D01*
X8991600Y14960600D01*
X10210800Y14960600D01*
X10260210Y14970606D01*
X10301835Y14999047D01*
X10329115Y15041441D01*
X10337800Y15087600D01*
X10337800Y15824200D01*
X10327794Y15873610D01*
X10299353Y15915235D01*
X10256959Y15942515D01*
X10210800Y15951200D01*
X8991600Y15951200D01*
X8942190Y15941194D01*
X8900565Y15912753D01*
X8873285Y15870359D01*
X8864600Y15824200D01*
X8128000Y15824200D01*
X8117994Y15873610D01*
X8089553Y15915235D01*
X8047159Y15942515D01*
X8001000Y15951200D01*
X1143000Y15951200D01*
X1143000Y21361400D01*
X26466800Y21361400D01*
X26466800Y20396200D01*
X26466800Y20396200D01*
G37*
X26466800Y20396200D02*
X10210800Y20396200D01*
X10161390Y20386194D01*
X10119765Y20357753D01*
X10092485Y20315359D01*
X10083800Y20269200D01*
X10083800Y18465800D01*
X10093806Y18416390D01*
X10122247Y18374765D01*
X10164641Y18347485D01*
X10210800Y18338800D01*
X11074400Y18338800D01*
X11074400Y18135600D01*
X11084406Y18086190D01*
X11111597Y18045797D01*
X11988800Y17168594D01*
X11988800Y15087600D01*
X11998806Y15038190D01*
X12027247Y14996565D01*
X12069641Y14969285D01*
X12115800Y14960600D01*
X12293600Y14960600D01*
X12293600Y6789000D01*
X12172950Y6789000D01*
X12014200Y6630250D01*
X12014200Y3403600D01*
X11760200Y3403600D01*
X11760200Y6630250D01*
X11601450Y6789000D01*
X11480800Y6789000D01*
X11480800Y14960600D01*
X11658600Y14960600D01*
X11708010Y14970606D01*
X11749635Y14999047D01*
X11776915Y15041441D01*
X11785600Y15087600D01*
X11785600Y17170400D01*
X11775594Y17219810D01*
X11748403Y17260203D01*
X11138803Y17869803D01*
X11096789Y17897666D01*
X11049000Y17907000D01*
X8128000Y17907000D01*
X8128000Y18338800D01*
X8991600Y18338800D01*
X9041010Y18348806D01*
X9082635Y18377247D01*
X9109915Y18419641D01*
X9118600Y18465800D01*
X9118600Y19278600D01*
X9108594Y19328010D01*
X9080153Y19369635D01*
X9037759Y19396915D01*
X8991600Y19405600D01*
X3200400Y19405600D01*
X3150990Y19395594D01*
X3109365Y19367153D01*
X3082085Y19324759D01*
X3073400Y19278600D01*
X3073400Y17119600D01*
X3083406Y17070190D01*
X3111847Y17028565D01*
X3154241Y17001285D01*
X3200400Y16992600D01*
X11074400Y16992600D01*
X11074400Y6789000D01*
X10615890Y6789000D01*
X10382501Y6692327D01*
X10203873Y6513698D01*
X10107200Y6280309D01*
X10107200Y3899750D01*
X10109200Y3897750D01*
X10109200Y3330250D01*
X10107200Y3328250D01*
X10107200Y947691D01*
X10203873Y714302D01*
X10382501Y535673D01*
X10615890Y439000D01*
X11601450Y439000D01*
X11619650Y457200D01*
X12154750Y457200D01*
X12172950Y439000D01*
X13158510Y439000D01*
X13391899Y535673D01*
X13570527Y714302D01*
X13667200Y947691D01*
X13667200Y3328250D01*
X14422200Y3328250D01*
X14422200Y947691D01*
X14518873Y714302D01*
X14697501Y535673D01*
X14930890Y439000D01*
X15981450Y439000D01*
X16140200Y597750D01*
X16140200Y3487000D01*
X16394200Y3487000D01*
X16394200Y597750D01*
X16552950Y439000D01*
X17603510Y439000D01*
X17836899Y535673D01*
X18015527Y714302D01*
X18112200Y947691D01*
X18112200Y3328250D01*
X17953450Y3487000D01*
X16394200Y3487000D01*
X16140200Y3487000D01*
X14580950Y3487000D01*
X14422200Y3328250D01*
X13667200Y3328250D01*
X13665200Y3330250D01*
X13665200Y3897750D01*
X13667200Y3899750D01*
X13667200Y6280309D01*
X14422200Y6280309D01*
X14422200Y3899750D01*
X14580950Y3741000D01*
X16140200Y3741000D01*
X16140200Y3761000D01*
X16394200Y3761000D01*
X16394200Y3741000D01*
X17953450Y3741000D01*
X18112200Y3899750D01*
X18112200Y6280309D01*
X18015527Y6513698D01*
X17836899Y6692327D01*
X17603510Y6789000D01*
X17359329Y6789000D01*
X17400349Y6912564D01*
X17368218Y7356968D01*
X17259968Y7618308D01*
X17046400Y7653595D01*
X16918515Y7525710D01*
X16856899Y7587327D01*
X16690038Y7656443D01*
X16866795Y7833200D01*
X16831508Y8046768D01*
X16408636Y8187149D01*
X15964232Y8155018D01*
X15702892Y8046768D01*
X15667605Y7833200D01*
X15844362Y7656443D01*
X15677501Y7587327D01*
X15615885Y7525710D01*
X15488000Y7653595D01*
X15274432Y7618308D01*
X15134051Y7195436D01*
X15163437Y6789000D01*
X14930890Y6789000D01*
X14697501Y6692327D01*
X14518873Y6513698D01*
X14422200Y6280309D01*
X13667200Y6280309D01*
X13570527Y6513698D01*
X13391899Y6692327D01*
X13158510Y6789000D01*
X12700000Y6789000D01*
X12700000Y14960600D01*
X27482800Y14960600D01*
X27482800Y127000D01*
X127000Y127000D01*
X127000Y3328250D01*
X5662200Y3328250D01*
X5662200Y947691D01*
X5758873Y714302D01*
X5937501Y535673D01*
X6170890Y439000D01*
X7221450Y439000D01*
X7380200Y597750D01*
X7380200Y3487000D01*
X7634200Y3487000D01*
X7634200Y597750D01*
X7792950Y439000D01*
X8843510Y439000D01*
X9076899Y535673D01*
X9255527Y714302D01*
X9352200Y947691D01*
X9352200Y3328250D01*
X9193450Y3487000D01*
X7634200Y3487000D01*
X7380200Y3487000D01*
X5820950Y3487000D01*
X5662200Y3328250D01*
X127000Y3328250D01*
X127000Y6280309D01*
X5662200Y6280309D01*
X5662200Y3899750D01*
X5820950Y3741000D01*
X7380200Y3741000D01*
X7380200Y3761000D01*
X7634200Y3761000D01*
X7634200Y3741000D01*
X9193450Y3741000D01*
X9352200Y3899750D01*
X9352200Y6280309D01*
X9255527Y6513698D01*
X9076899Y6692327D01*
X8843510Y6789000D01*
X8599329Y6789000D01*
X8640349Y6912564D01*
X8608218Y7356968D01*
X8499968Y7618308D01*
X8286400Y7653595D01*
X8158515Y7525710D01*
X8096899Y7587327D01*
X7930038Y7656443D01*
X8106795Y7833200D01*
X8071508Y8046768D01*
X7648636Y8187149D01*
X7204232Y8155018D01*
X6942892Y8046768D01*
X6907605Y7833200D01*
X7084362Y7656443D01*
X6917501Y7587327D01*
X6855885Y7525710D01*
X6728000Y7653595D01*
X6514432Y7618308D01*
X6374051Y7195436D01*
X6403437Y6789000D01*
X6170890Y6789000D01*
X5937501Y6692327D01*
X5758873Y6513698D01*
X5662200Y6280309D01*
X127000Y6280309D01*
X127000Y14960600D01*
X8001000Y14960600D01*
X8050410Y14970606D01*
X8092035Y14999047D01*
X8119315Y15041441D01*
X8128000Y15087600D01*
X8128000Y15824200D01*
X8864600Y15824200D01*
X8864600Y15087600D01*
X8874606Y15038190D01*
X8903047Y14996565D01*
X8945441Y14969285D01*
X8991600Y14960600D01*
X10210800Y14960600D01*
X10260210Y14970606D01*
X10301835Y14999047D01*
X10329115Y15041441D01*
X10337800Y15087600D01*
X10337800Y15824200D01*
X10327794Y15873610D01*
X10299353Y15915235D01*
X10256959Y15942515D01*
X10210800Y15951200D01*
X8991600Y15951200D01*
X8942190Y15941194D01*
X8900565Y15912753D01*
X8873285Y15870359D01*
X8864600Y15824200D01*
X8128000Y15824200D01*
X8117994Y15873610D01*
X8089553Y15915235D01*
X8047159Y15942515D01*
X8001000Y15951200D01*
X1143000Y15951200D01*
X1143000Y21361400D01*
X26466800Y21361400D01*
X26466800Y20396200D01*
M02*
